<svg width="227" id="logo" height="119" viewBox="0 0 227 119" fill="none" xmlns="http://www.w3.org/2000/svg">
              <rect x="3" width="201" height="104.571" fill="#221862" />
              <path d="M61.83 49.8081C61.83 50.3732 61.8664 50.8381 61.9393 51.2026C62.0122 51.549 62.149 51.8224 62.3495 52.0229C62.5682 52.2235 62.869 52.3693 63.2518 52.4604C63.6346 52.5334 64.1359 52.5789 64.7557 52.5972V53.1714H56.0057V52.5972C56.6073 52.5425 57.0721 52.4696 57.4003 52.3784C57.7466 52.2873 58.0109 52.1323 58.1932 51.9136C58.3755 51.6948 58.4849 51.394 58.5214 51.0112C58.576 50.6102 58.6034 50.0815 58.6034 49.4253V35.9175C58.6034 35.3524 58.576 34.9058 58.5214 34.5776C58.4667 34.2313 58.3482 33.967 58.1659 33.7847C57.9836 33.5841 57.7193 33.4383 57.3729 33.3472C57.0266 33.256 56.5708 33.1831 56.0057 33.1284V32.4995H64.2362C65.7857 32.4995 67.1802 32.7183 68.4198 33.1558C69.6776 33.5933 70.6255 34.1675 71.2635 34.8784C72.0474 35.8081 72.4393 36.9019 72.4393 38.1597C72.4393 39.1987 72.1659 40.1649 71.619 41.0581C71.0904 41.9331 70.3612 42.6258 69.4315 43.1362C68.757 43.5008 67.9823 43.7651 67.1073 43.9292C66.2505 44.0933 65.2024 44.1753 63.9628 44.1753C63.5617 44.1753 63.2063 44.1753 62.8964 44.1753C62.6047 44.1571 62.2492 44.1388 61.83 44.1206V49.8081ZM61.83 42.8354C62.1945 42.8719 62.4953 42.8993 62.7323 42.9175C62.9875 42.9357 63.2701 42.9448 63.58 42.9448C67.2076 42.9448 69.0214 41.4136 69.0214 38.3511C69.0214 36.7287 68.5201 35.5438 67.5175 34.7964C66.5331 34.049 64.9745 33.6753 62.8417 33.6753C62.4224 33.6753 62.149 33.7482 62.0214 33.894C61.8938 34.0216 61.83 34.3042 61.83 34.7417V42.8354ZM80.8339 40.1011H77.662V49.0698C77.662 50.0724 77.7896 50.7925 78.0448 51.23C78.3 51.6493 78.7102 51.8589 79.2753 51.8589C79.6399 51.8589 79.9589 51.786 80.2323 51.6401C80.5057 51.4761 80.8247 51.1844 81.1893 50.7651L81.5721 51.1479C80.5878 52.6974 79.33 53.4722 77.7987 53.4722C75.9576 53.4722 75.037 52.1506 75.037 49.5073V40.1011H73.3964C73.3234 40.0828 73.287 40.019 73.287 39.9097C73.287 39.7274 73.4602 39.5269 73.8065 39.3081C74.6268 38.8341 75.6385 37.7222 76.8417 35.9722C76.9328 35.8263 77.0331 35.6896 77.1425 35.562C77.2701 35.4162 77.3794 35.2612 77.4706 35.0972C77.5435 35.0972 77.5891 35.1245 77.6073 35.1792C77.6438 35.2339 77.662 35.3433 77.662 35.5073V39.1167H80.8339V40.1011ZM81.7909 40.5386C82.2466 40.3745 82.6659 40.2287 83.0487 40.1011C83.4315 39.9552 83.7961 39.8185 84.1425 39.6909C84.507 39.5451 84.8625 39.4084 85.2089 39.2808C85.5734 39.1349 85.9654 38.98 86.3846 38.8159L86.576 38.8706V41.7417C86.9589 41.1766 87.3052 40.7118 87.6151 40.3472C87.925 39.9644 88.2258 39.6636 88.5175 39.4448C88.8091 39.2078 89.0917 39.0438 89.3651 38.9526C89.6568 38.8615 89.9667 38.8159 90.2948 38.8159C90.8234 38.8159 91.2427 38.9709 91.5526 39.2808C91.8625 39.5724 92.0175 39.9644 92.0175 40.4565C92.0175 40.9123 91.9081 41.2677 91.6893 41.5229C91.4706 41.7599 91.1789 41.8784 90.8143 41.8784C90.6138 41.8784 90.4133 41.842 90.2128 41.769C90.0305 41.6779 89.8117 41.5047 89.5565 41.2495C89.3925 41.1037 89.2375 40.9943 89.0917 40.9214C88.9458 40.8485 88.8274 40.812 88.7362 40.812C88.5175 40.812 88.2805 40.9032 88.0253 41.0854C87.7883 41.2495 87.5604 41.4591 87.3417 41.7144C87.1229 41.9696 86.9406 42.243 86.7948 42.5347C86.649 42.8263 86.576 43.0998 86.576 43.355V50.3823C86.576 50.8198 86.6125 51.1844 86.6854 51.4761C86.7583 51.7677 86.8951 52.0047 87.0956 52.187C87.2961 52.3511 87.5695 52.4787 87.9159 52.5698C88.2622 52.661 88.6997 52.7157 89.2284 52.7339V53.1714H81.7089V52.7339C82.201 52.6427 82.593 52.5516 82.8846 52.4604C83.1945 52.3511 83.4224 52.2235 83.5682 52.0776C83.7323 51.9318 83.8326 51.7404 83.869 51.5034C83.9237 51.2482 83.951 50.9292 83.951 50.5464V42.7534C83.951 42.0607 83.869 41.5776 83.705 41.3042C83.5409 41.0125 83.2675 40.8667 82.8846 40.8667C82.6841 40.8667 82.5018 40.8758 82.3378 40.894C82.1919 40.9123 82.0096 40.9487 81.7909 41.0034V40.5386ZM99.7831 38.8159C100.786 38.8159 101.706 38.9891 102.545 39.3354C103.383 39.6818 104.103 40.174 104.705 40.812C105.325 41.4318 105.808 42.1701 106.154 43.0269C106.501 43.8836 106.674 44.8315 106.674 45.8706C106.674 46.9644 106.491 47.9761 106.127 48.9058C105.78 49.8172 105.297 50.6193 104.678 51.312C104.058 51.9865 103.32 52.5151 102.463 52.8979C101.624 53.2808 100.713 53.4722 99.7284 53.4722C98.744 53.4722 97.8326 53.2899 96.994 52.9253C96.1555 52.5607 95.4354 52.0503 94.8339 51.394C94.2323 50.7378 93.7583 49.9631 93.412 49.0698C93.0656 48.1766 92.8925 47.2013 92.8925 46.144C92.8925 45.0685 93.0565 44.0841 93.3846 43.1909C93.731 42.2795 94.205 41.5047 94.8065 40.8667C95.4081 40.2104 96.1281 39.7091 96.9667 39.3628C97.8234 38.9982 98.7622 38.8159 99.7831 38.8159ZM99.3182 39.6909C98.2245 39.6909 97.3495 40.1375 96.6932 41.0308C96.037 41.924 95.7089 43.1089 95.7089 44.5854C95.7089 45.6974 95.8274 46.7821 96.0643 47.8394C96.3013 48.8784 96.6385 49.8081 97.076 50.6284C97.4042 51.2664 97.8417 51.7586 98.3885 52.105C98.9354 52.4513 99.5279 52.6245 100.166 52.6245C101.314 52.6245 102.208 52.1232 102.846 51.1206C103.502 50.0998 103.83 48.7052 103.83 46.937C103.83 45.6063 103.639 44.3667 103.256 43.2183C102.873 42.0698 102.353 41.2039 101.697 40.6206C101.351 40.2925 100.986 40.0555 100.603 39.9097C100.221 39.7638 99.7922 39.6909 99.3182 39.6909ZM108.096 40.2104C108.952 39.9735 109.691 39.7547 110.31 39.5542C110.948 39.3537 111.641 39.1076 112.389 38.8159L112.635 38.8706V41.3589C113.163 40.8667 113.628 40.4565 114.029 40.1284C114.43 39.8003 114.795 39.5451 115.123 39.3628C115.469 39.1623 115.797 39.0256 116.107 38.9526C116.435 38.8615 116.782 38.8159 117.146 38.8159C118.295 38.8159 119.197 39.2261 119.853 40.0464C120.51 40.8667 120.838 42.0151 120.838 43.4917V50.6558C120.838 51.4032 120.965 51.9136 121.221 52.187C121.476 52.4604 121.977 52.6427 122.724 52.7339V53.1714H116.244V52.7339C116.627 52.6974 116.946 52.6336 117.201 52.5425C117.456 52.4513 117.657 52.3055 117.803 52.105C117.967 51.9045 118.076 51.6401 118.131 51.312C118.185 50.9839 118.213 50.5737 118.213 50.0815V43.5464C118.213 41.5412 117.456 40.5386 115.943 40.5386C115.688 40.5386 115.442 40.5659 115.205 40.6206C114.968 40.6753 114.722 40.7664 114.467 40.894C114.23 41.0216 113.965 41.2039 113.674 41.4409C113.4 41.6779 113.072 41.9696 112.689 42.3159V51.0933C112.689 51.6584 112.835 52.0594 113.127 52.2964C113.418 52.5151 113.965 52.661 114.767 52.7339V53.1714H108.15V52.7339C108.551 52.6974 108.87 52.6427 109.107 52.5698C109.363 52.4787 109.563 52.342 109.709 52.1597C109.855 51.9774 109.955 51.7495 110.01 51.4761C110.064 51.1844 110.092 50.8198 110.092 50.3823V42.6167C110.092 41.8511 110.01 41.3315 109.846 41.0581C109.682 40.7664 109.381 40.6206 108.943 40.6206C108.615 40.6206 108.333 40.6662 108.096 40.7573V40.2104ZM128.795 38.8979V49.9995C128.795 50.5646 128.813 51.0203 128.849 51.3667C128.904 51.6948 129.014 51.9591 129.178 52.1597C129.342 52.342 129.57 52.4696 129.861 52.5425C130.171 52.6154 130.59 52.6792 131.119 52.7339V53.1714H123.709V52.7339C124.256 52.6974 124.684 52.6427 124.994 52.5698C125.322 52.4787 125.568 52.342 125.732 52.1597C125.915 51.9591 126.033 51.6948 126.088 51.3667C126.142 51.0203 126.17 50.5646 126.17 49.9995V42.7534C126.17 42.0607 126.088 41.5776 125.924 41.3042C125.778 41.0125 125.523 40.8667 125.158 40.8667C125.012 40.8667 124.839 40.8758 124.639 40.894C124.456 40.9123 124.265 40.9396 124.064 40.9761L123.846 41.0034V40.5386L128.658 38.8159L128.795 38.8979ZM127.236 31.8433C127.674 31.8433 128.047 32.0073 128.357 32.3354C128.667 32.6453 128.822 33.019 128.822 33.4565C128.822 33.9123 128.667 34.2951 128.357 34.605C128.066 34.8966 127.683 35.0425 127.209 35.0425C126.753 35.0425 126.379 34.8966 126.088 34.605C125.796 34.2951 125.65 33.9123 125.65 33.4565C125.65 33.019 125.805 32.6453 126.115 32.3354C126.425 32.0073 126.799 31.8433 127.236 31.8433ZM144.764 48.5776C144.508 49.0698 144.271 49.4982 144.053 49.8628C143.852 50.2091 143.652 50.5282 143.451 50.8198C143.269 51.0933 143.077 51.3394 142.877 51.5581C142.676 51.7769 142.458 51.9774 142.221 52.1597C141.127 53.0347 139.915 53.4722 138.584 53.4722C137.727 53.4722 136.934 53.3081 136.205 52.98C135.476 52.6336 134.847 52.1506 134.318 51.5308C133.808 50.911 133.407 50.1818 133.115 49.3433C132.823 48.5047 132.678 47.575 132.678 46.5542C132.678 45.2599 132.896 44.075 133.334 42.9995C133.79 41.9058 134.437 41.0125 135.275 40.3198C135.913 39.7912 136.588 39.3993 137.299 39.144C138.028 38.8706 138.766 38.7339 139.514 38.7339C140.17 38.7339 140.79 38.825 141.373 39.0073C141.956 39.1714 142.467 39.3993 142.904 39.6909C143.342 39.9826 143.688 40.3289 143.943 40.73C144.198 41.1128 144.326 41.5229 144.326 41.9604C144.326 42.325 144.18 42.644 143.889 42.9175C143.615 43.1909 143.278 43.3276 142.877 43.3276C142.512 43.3276 142.202 43.1909 141.947 42.9175C141.692 42.644 141.501 42.2795 141.373 41.8237L141.182 41.1401C141.036 40.5568 140.826 40.1649 140.553 39.9644C140.297 39.7638 139.887 39.6636 139.322 39.6636C138.684 39.6636 138.101 39.8003 137.572 40.0737C137.062 40.3289 136.624 40.7026 136.26 41.1948C135.895 41.687 135.603 42.2703 135.385 42.9448C135.184 43.6193 135.084 44.3667 135.084 45.187C135.084 46.062 135.202 46.8732 135.439 47.6206C135.676 48.368 136.004 49.006 136.424 49.5347C136.843 50.0633 137.344 50.4826 137.928 50.7925C138.529 51.0841 139.185 51.23 139.896 51.23C140.79 51.23 141.564 51.0203 142.221 50.6011C142.877 50.1636 143.579 49.3979 144.326 48.3042L144.764 48.5776ZM155.099 43.3823C154.753 41.9787 154.325 40.9852 153.814 40.4019C153.304 39.8185 152.602 39.5269 151.709 39.5269C150.98 39.5269 150.396 39.7274 149.959 40.1284C149.521 40.5112 149.303 41.0216 149.303 41.6597C149.303 42.5529 149.749 43.2638 150.642 43.7925L154.006 45.7886C154.954 46.3537 155.628 46.9188 156.029 47.4839C156.43 48.0308 156.631 48.6961 156.631 49.48C156.631 50.0269 156.512 50.5464 156.275 51.0386C156.038 51.5308 155.719 51.9591 155.318 52.3237C154.935 52.6701 154.48 52.9526 153.951 53.1714C153.422 53.3719 152.857 53.4722 152.256 53.4722C151.928 53.4722 151.572 53.4448 151.189 53.3901C150.807 53.3537 150.387 53.2808 149.932 53.1714C149.567 53.0802 149.284 53.0164 149.084 52.98C148.883 52.9435 148.692 52.9253 148.51 52.9253C148.327 52.9253 148.191 52.9526 148.099 53.0073C148.008 53.062 147.908 53.1623 147.799 53.3081H147.389V48.4409H147.881C148.063 49.243 148.273 49.9175 148.51 50.4644C148.747 51.0112 149.02 51.4578 149.33 51.8042C149.64 52.1506 150.004 52.4058 150.424 52.5698C150.843 52.7157 151.317 52.7886 151.846 52.7886C152.666 52.7886 153.304 52.5881 153.76 52.187C154.234 51.786 154.471 51.2391 154.471 50.5464C154.471 49.6167 153.924 48.842 152.83 48.2222L151.025 47.1831C150.351 46.8003 149.777 46.4357 149.303 46.0894C148.847 45.743 148.473 45.3966 148.182 45.0503C147.89 44.6857 147.68 44.312 147.553 43.9292C147.425 43.5464 147.361 43.1362 147.361 42.6987C147.361 42.1336 147.461 41.6141 147.662 41.1401C147.881 40.6662 148.172 40.256 148.537 39.9097C148.92 39.5633 149.376 39.299 149.904 39.1167C150.433 38.9344 151.016 38.8433 151.654 38.8433C152.383 38.8433 153.085 38.9709 153.76 39.2261C154.142 39.3901 154.434 39.4722 154.635 39.4722C154.708 39.4722 154.762 39.4539 154.799 39.4175C154.835 39.381 154.926 39.299 155.072 39.1714L155.099 39.1167H155.482L155.592 43.3823H155.099Z" fill="white" />
              <path d="M32.5853 26.3901C24.558 26.3901 18.0541 32.9526 18.0541 40.9214C18.0541 48.9487 24.558 55.4526 32.5853 55.4526C40.5541 55.4526 47.1166 48.9487 47.1166 40.9214C47.1166 32.9526 40.5541 26.3901 32.5853 26.3901ZM31.8822 40.5112C31.7064 40.8042 31.4135 40.9214 31.0619 40.9214C30.8275 40.9214 30.5931 41.0386 30.4174 41.2144L30.0658 41.5659C29.89 41.7417 29.89 42.0347 30.0658 42.2104L30.4174 42.562C30.5931 42.7378 30.7103 42.9722 30.7103 43.2065V43.7339C30.7103 44.2612 30.2416 44.6714 29.7728 44.6714H29.3627C29.0111 44.6714 28.7181 44.4956 28.5424 44.2026L27.1947 41.5073C27.0775 41.2729 26.726 41.1558 26.4916 41.3901L25.3197 42.562C25.1439 42.7378 24.9095 42.7964 24.6752 42.7964H20.9838C20.9252 42.2104 20.8666 41.5659 20.8666 40.9214C20.8666 34.4761 26.0814 29.2026 32.5853 29.2026C33.8158 29.2026 35.0463 29.437 36.1595 29.7886L33.2299 32.0737C32.9369 32.2495 32.9369 32.7183 33.2885 32.894L33.933 33.187C34.226 33.3628 34.4603 33.6558 34.4603 34.0073V38.5776C34.4603 38.8706 34.226 39.0464 33.9916 39.0464H33.7572C33.5814 39.0464 33.4642 38.9878 33.347 38.812C33.2885 38.6362 32.9955 38.6362 32.9369 38.812L31.8822 40.5112ZM41.9603 46.9565C41.9603 47.1909 41.8431 47.4253 41.6674 47.6011L41.0814 48.187C40.9056 48.3628 40.6713 48.4214 40.4369 48.4214H39.558C39.3236 48.4214 39.0306 48.3628 38.8549 48.187L38.0931 47.4253C37.8588 47.1323 37.4486 46.9565 37.0385 46.9565C36.8627 46.9565 36.7455 46.9565 36.6283 47.0151L35.3978 47.3081C35.2806 47.3081 35.222 47.3667 35.1635 47.3667H34.5775C34.2845 47.3667 34.0502 47.2495 33.8744 47.0737L33.1713 46.3706C33.1127 46.312 33.0541 46.1948 33.0541 46.019V45.4331C33.0541 45.2573 33.1713 45.0815 33.347 45.0229L35.6322 44.0854C35.7494 44.0269 35.8666 43.9683 35.9838 43.9097L37.39 42.9136C37.4486 42.855 37.5658 42.855 37.6244 42.855H38.3275C38.5619 42.855 38.7377 42.9136 38.7963 43.0894L39.0892 43.8511C39.1478 43.9683 39.2064 44.0269 39.3236 44.0269H39.558C39.6166 44.0269 39.7338 43.9683 39.7338 43.8511L40.0267 42.9722C40.0267 42.9136 40.1439 42.855 40.2025 42.855H40.6127C40.7299 42.855 40.847 42.9136 40.847 43.0894V43.7925C40.847 43.9683 40.847 44.0854 40.9642 44.144L41.6674 44.8472C41.8431 45.0229 41.9017 45.2573 41.9017 45.4917V46.9565H41.9603Z" fill="white" />
              <path d="M142.103 27.0717L137.533 22.5013L138.627 21.4467C138.705 21.4857 138.822 21.5248 138.939 21.5248C139.603 21.5248 140.189 20.9388 140.189 20.2748C140.189 19.5717 139.603 19.0248 138.939 19.0248C138.236 19.0248 137.689 19.5717 137.689 20.2748C137.689 20.3529 137.689 20.4701 137.728 20.5482L136.674 21.642L132.103 17.0717C131.83 16.7982 131.322 16.8373 131.127 17.1888C129.486 20.2357 129.955 24.1029 132.533 26.642C135.072 29.2201 138.939 29.6888 141.986 28.0482C142.338 27.8529 142.377 27.3451 142.103 27.0717ZM150.15 20.8607C149.838 14.4545 144.72 9.33728 138.353 9.02478C138.314 9.02478 138.314 8.98572 138.314 8.98572C137.963 8.98572 137.689 9.29822 137.689 9.64978V10.8607C137.689 11.2123 137.924 11.4857 138.275 11.4857C143.314 11.7592 147.377 15.8607 147.65 20.9388C147.689 21.2513 147.963 21.5248 148.275 21.5248H149.525C149.877 21.5248 150.189 21.2123 150.189 20.8607H150.15ZM146.4 20.8217C146.088 16.5248 142.65 13.0873 138.353 12.7748C138.314 12.7748 138.314 12.7357 138.314 12.7357C137.963 12.7357 137.689 13.0482 137.689 13.3998V14.6498C137.689 14.9623 137.924 15.2357 138.236 15.2748C141.244 15.5092 143.627 17.931 143.9 20.9388C143.939 21.2513 144.213 21.5248 144.525 21.5248H145.775C146.127 21.5248 146.439 21.2123 146.439 20.8607C146.439 20.8607 146.4 20.8607 146.4 20.8217Z" fill="white" />
              <g filter="url(#filter0_d)">
                <line x1="10.2432" y1="63.9857" x2="196.757" y2="63.9857" stroke="white" />
              </g>
              <path d="M32.4046 87.8114H31.7746V89.4634C32.4559 89.6128 32.8806 89.7948 33.0486 90.0094L32.9086 91.1714H29.1286L28.9886 90.0094C29.1099 89.8508 29.3666 89.6968 29.7586 89.5474V83.1494C29.3759 83.0094 29.1193 82.8508 28.9886 82.6734L29.1286 81.5114H32.8386C34.1359 81.5301 35.1019 81.7681 35.7366 82.2254C36.3806 82.6734 36.7026 83.4761 36.7026 84.6334C36.7026 86.7521 35.2699 87.8114 32.4046 87.8114ZM32.6146 83.0374H31.7746V86.2854H32.7126C33.3473 86.2854 33.8186 86.1594 34.1266 85.9074C34.4439 85.6554 34.6026 85.2214 34.6026 84.6054C34.6026 83.9801 34.4299 83.5648 34.0846 83.3594C33.7486 83.1448 33.2586 83.0374 32.6146 83.0374ZM39.9428 82.4074V84.1714H41.9448V85.3474H39.9428V88.8894C39.9428 89.1881 39.9848 89.4074 40.0688 89.5474C40.1528 89.6781 40.3535 89.7434 40.6708 89.7434C40.9882 89.7434 41.3288 89.6734 41.6928 89.5334L42.1128 90.6254C41.3942 90.9894 40.6568 91.1714 39.9008 91.1714C39.1542 91.1714 38.6455 91.0128 38.3748 90.6954C38.1135 90.3688 37.9828 89.8974 37.9828 89.2814V85.3474H37.3528L37.1988 84.4934C37.3482 84.3161 37.6562 84.1388 38.1228 83.9614C38.2348 83.1961 38.5008 82.6781 38.9208 82.4074H39.9428ZM46.8038 85.8934C46.0945 85.8934 45.6045 86.0288 45.3338 86.2994V89.5054C46.0898 89.6454 46.6078 89.8414 46.8878 90.0934L46.7478 91.1714H42.7438L42.6038 90.0934C42.7345 89.9161 42.9911 89.7574 43.3738 89.6174V85.7254C43.0471 85.6134 42.7905 85.4548 42.6038 85.2494L42.7438 84.1714C43.2571 84.0594 43.7191 84.0034 44.1298 84.0034C44.5405 84.0034 44.8811 84.0128 45.1518 84.0314V84.9134C45.3665 84.6614 45.6418 84.4561 45.9778 84.2974C46.3138 84.1294 46.6171 84.0454 46.8878 84.0454C47.1678 84.0454 47.3591 84.0688 47.4618 84.1154L47.4198 85.9354C47.2331 85.9074 47.0278 85.8934 46.8038 85.8934ZM51.2655 91.2834C50.1642 91.2834 49.3475 90.9894 48.8155 90.4014C48.2835 89.8134 48.0175 88.9268 48.0175 87.7414C48.0175 86.5468 48.3115 85.6368 48.8995 85.0114C49.4969 84.3768 50.3509 84.0594 51.4615 84.0594C52.5722 84.0594 53.3935 84.3394 53.9255 84.8994C54.4669 85.4594 54.7375 86.3368 54.7375 87.5314C54.7375 88.7168 54.4342 89.6408 53.8275 90.3034C53.2302 90.9568 52.3762 91.2834 51.2655 91.2834ZM50.0335 87.6154C50.0335 89.1088 50.4815 89.8554 51.3775 89.8554C51.8349 89.8554 52.1709 89.6874 52.3855 89.3514C52.6095 89.0061 52.7215 88.4461 52.7215 87.6714C52.7215 86.2154 52.2642 85.4874 51.3495 85.4874C50.9015 85.4874 50.5702 85.6508 50.3555 85.9774C50.1409 86.2948 50.0335 86.8408 50.0335 87.6154ZM55.5954 84.1714C56.1087 84.0594 56.5707 84.0034 56.9814 84.0034C57.392 84.0034 57.7327 84.0128 58.0034 84.0314V84.7314C58.2367 84.5354 58.5447 84.3768 58.9274 84.2554C59.3194 84.1248 59.6927 84.0594 60.0474 84.0594C60.962 84.0594 61.6014 84.2741 61.9654 84.7034C62.3387 85.1328 62.5254 85.8748 62.5254 86.9294V89.6174C62.8894 89.7574 63.146 89.9161 63.2954 90.0934L63.1554 91.1714H59.9354L59.7954 90.0934C59.926 89.9161 60.1827 89.7574 60.5654 89.6174V86.8454C60.5654 86.3414 60.4814 86.0054 60.3134 85.8374C60.1547 85.6601 59.8654 85.5714 59.4454 85.5714C59.0254 85.5714 58.6054 85.7208 58.1854 86.0194V89.6174C58.5494 89.7574 58.806 89.9161 58.9554 90.0934L58.8154 91.1714H55.5954L55.4554 90.0934C55.586 89.9161 55.8427 89.7574 56.2254 89.6174V85.7254C55.8987 85.6134 55.642 85.4548 55.4554 85.2494L55.5954 84.1714ZM63.9495 84.1714C64.4722 84.0501 64.9575 83.9894 65.4055 83.9894C65.8535 83.9894 66.2315 84.0034 66.5395 84.0314V89.6174C66.9035 89.7574 67.1602 89.9161 67.3095 90.0934L67.1695 91.1714H63.9495L63.8095 90.0934C63.9402 89.9161 64.1969 89.7574 64.5795 89.6174V85.7254C64.2529 85.6134 63.9962 85.4548 63.8095 85.2494L63.9495 84.1714ZM65.5315 83.2054C64.7569 83.2054 64.3695 82.8554 64.3695 82.1554C64.3695 81.4461 64.7569 81.0914 65.5315 81.0914C66.3155 81.0914 66.7075 81.4461 66.7075 82.1554C66.7075 82.8554 66.3155 83.2054 65.5315 83.2054ZM71.1594 85.4874C70.3008 85.4874 69.8714 86.2248 69.8714 87.6994C69.8714 88.4461 69.9881 88.9688 70.2214 89.2674C70.4641 89.5568 70.8094 89.7014 71.2574 89.7014C71.9668 89.7014 72.5921 89.6361 73.1334 89.5054L73.5534 90.5834C73.2548 90.7794 72.8534 90.9474 72.3494 91.0874C71.8454 91.2181 71.3554 91.2834 70.8794 91.2834C68.8634 91.2834 67.8554 90.1168 67.8554 87.7834C67.8554 86.4208 68.2054 85.4408 68.9054 84.8434C69.5308 84.3208 70.2914 84.0594 71.1874 84.0594C72.0834 84.0594 72.8301 84.2274 73.4274 84.5634C73.4368 84.6568 73.4414 84.7454 73.4414 84.8294C73.4414 85.3614 73.3201 85.8654 73.0774 86.3414H71.8454C71.7148 86.1081 71.6354 85.8281 71.6074 85.5014C71.4954 85.4921 71.3461 85.4874 71.1594 85.4874ZM76.9722 85.3194C76.3562 85.3194 76.0482 85.5014 76.0482 85.8654C76.0482 86.2108 76.3702 86.4674 77.0142 86.6354L78.1202 86.9294C79.2588 87.2281 79.8282 87.8861 79.8282 88.9034C79.8282 89.6034 79.5808 90.1774 79.0862 90.6254C78.6008 91.0641 77.8215 91.2834 76.7482 91.2834C75.6842 91.2834 74.8535 91.1341 74.2562 90.8354C74.2468 90.7328 74.2422 90.6301 74.2422 90.5274C74.2422 90.0141 74.3448 89.5521 74.5502 89.1414H75.7122C75.8335 89.3654 75.9128 89.5988 75.9502 89.8414C76.1368 89.8974 76.4028 89.9254 76.7482 89.9254C77.5695 89.9254 77.9802 89.6921 77.9802 89.2254C77.9802 89.0761 77.9242 88.9548 77.8122 88.8614C77.7002 88.7588 77.4808 88.6608 77.1542 88.5674L76.0482 88.2454C75.4788 88.0868 75.0355 87.8534 74.7182 87.5454C74.4008 87.2281 74.2422 86.7661 74.2422 86.1594C74.2422 85.5434 74.4895 85.0394 74.9842 84.6474C75.4788 84.2554 76.1835 84.0594 77.0982 84.0594C78.0222 84.0594 78.8015 84.1948 79.4362 84.4654C79.4455 84.5588 79.4502 84.6521 79.4502 84.7454C79.4502 85.2308 79.3475 85.6788 79.1422 86.0894H77.9942C77.8728 85.8748 77.7935 85.6508 77.7562 85.4174C77.4948 85.3521 77.2335 85.3194 76.9722 85.3194ZM88.7291 81.4414L91.5151 89.5194C91.9071 89.6594 92.1824 89.8228 92.3411 90.0094L92.2011 91.1714H88.9251L88.7851 90.0094C88.8971 89.8601 89.1211 89.7201 89.4571 89.5894L89.0791 88.4134H86.2791L85.9291 89.5474C86.2558 89.6781 86.4984 89.8321 86.6571 90.0094L86.5171 91.1714H83.3251L83.1851 90.0094C83.3531 89.7948 83.6658 89.6174 84.1231 89.4774L86.8111 81.4414H88.7291ZM87.5671 83.4014C87.5671 83.9708 87.4504 84.6334 87.2171 85.3894L86.6711 87.1254H88.6731L88.1411 85.4174C87.9264 84.7641 87.8051 84.1714 87.7771 83.6394L87.7631 83.4014H87.5671ZM99.3012 81.5254V83.5274L98.4192 83.6394C98.2978 83.5461 98.1812 83.3501 98.0692 83.0514H96.3892V89.5474C96.7625 89.6968 97.0192 89.8508 97.1592 90.0094L97.0192 91.1714H93.7432L93.6032 90.0094C93.7245 89.8508 93.9812 89.6968 94.3732 89.5474V83.0514H92.6932C92.5812 83.3501 92.4645 83.5461 92.3432 83.6394L91.4612 83.5274V81.5254H99.3012ZM108.95 85.8934C108.95 85.5201 108.982 84.9414 109.048 84.1574L109.076 83.8214L108.936 83.8074C108.721 84.6008 108.534 85.2308 108.376 85.6974L106.514 91.1714H104.652L102.692 85.6974C102.514 85.2774 102.356 84.7548 102.216 84.1294L102.132 83.8074L101.992 83.8214C102.076 84.6521 102.118 85.3428 102.118 85.8934V89.5754C102.463 89.7061 102.72 89.8788 102.888 90.0934L102.748 91.1714H100.004L99.8636 90.0934C100.032 89.8788 100.288 89.7061 100.634 89.5754V83.1074C100.251 82.9674 99.9849 82.7948 99.8356 82.5894L99.9756 81.5114H103.168L105.212 87.1534C105.473 87.7694 105.641 88.3341 105.716 88.8474L105.758 89.0854H105.954C105.991 88.5161 106.159 87.8721 106.458 87.1534L108.404 81.5114H111.54L111.68 82.5894C111.53 82.7948 111.264 82.9674 110.882 83.1074V89.5194C111.246 89.6594 111.502 89.8228 111.652 90.0094L111.512 91.1714H108.32L108.18 90.0234C108.329 89.8368 108.586 89.6734 108.95 89.5334V85.8934ZM120.021 83.0374C119.704 82.9534 119.373 82.9114 119.027 82.9114C118.682 82.9114 118.402 83.0001 118.187 83.1774C117.982 83.3454 117.879 83.5881 117.879 83.9054C117.879 84.2134 117.959 84.4561 118.117 84.6334C118.276 84.8108 118.589 84.9648 119.055 85.0954L120.301 85.4594C120.973 85.6554 121.505 85.9634 121.897 86.3834C122.299 86.7941 122.499 87.4008 122.499 88.2034C122.499 89.1554 122.154 89.9068 121.463 90.4574C120.782 91.0081 119.933 91.2834 118.915 91.2834C118.355 91.2834 117.777 91.2134 117.179 91.0734C116.591 90.9241 116.101 90.7188 115.709 90.4574C115.709 90.4014 115.709 90.2941 115.709 90.1354C115.709 89.9768 115.742 89.7061 115.807 89.3234C115.873 88.9408 115.966 88.6281 116.087 88.3854H117.417C117.567 88.6748 117.655 89.0621 117.683 89.5474C118.01 89.6874 118.388 89.7574 118.817 89.7574C119.256 89.7574 119.615 89.6548 119.895 89.4494C120.175 89.2441 120.315 88.9501 120.315 88.5674C120.315 88.3901 120.301 88.2454 120.273 88.1334C120.245 88.0121 120.157 87.8861 120.007 87.7554C119.867 87.6154 119.662 87.5034 119.391 87.4194L117.949 86.9994C116.484 86.5794 115.751 85.6461 115.751 84.1994C115.751 83.3501 116.059 82.6734 116.675 82.1694C117.291 81.6561 118.094 81.3994 119.083 81.3994C120.082 81.3994 121.057 81.6234 122.009 82.0714C122.009 82.1274 122.009 82.2347 122.009 82.3934C122.009 82.5521 121.977 82.8228 121.911 83.2054C121.846 83.5881 121.753 83.9008 121.631 84.1434H120.301C120.143 83.9194 120.049 83.5508 120.021 83.0374ZM126.518 91.2834C125.398 91.2834 124.554 90.9848 123.984 90.3874C123.424 89.7901 123.144 88.9221 123.144 87.7834C123.144 87.0928 123.242 86.5001 123.438 86.0054C123.634 85.5014 123.9 85.1141 124.236 84.8434C124.89 84.3208 125.65 84.0594 126.518 84.0594C127.386 84.0594 128.049 84.2834 128.506 84.7314C128.973 85.1701 129.206 85.9634 129.206 87.1114C129.206 87.7834 128.875 88.1194 128.212 88.1194H125.174C125.212 88.7074 125.361 89.1228 125.622 89.3654C125.893 89.6081 126.318 89.7294 126.896 89.7294C127.214 89.7294 127.517 89.6921 127.806 89.6174C128.096 89.5428 128.306 89.4681 128.436 89.3934L128.632 89.2814L129.052 90.4014C128.996 90.4668 128.912 90.5508 128.8 90.6534C128.698 90.7468 128.427 90.8774 127.988 91.0454C127.559 91.2041 127.069 91.2834 126.518 91.2834ZM127.4 86.8734C127.419 86.7428 127.428 86.5841 127.428 86.3974C127.428 86.2108 127.354 86.0148 127.204 85.8094C127.055 85.5948 126.794 85.4874 126.42 85.4874C126.056 85.4874 125.776 85.5994 125.58 85.8234C125.384 86.0474 125.254 86.4254 125.188 86.9574L127.4 86.8734ZM134.126 85.8934C133.417 85.8934 132.927 86.0288 132.656 86.2994V89.5054C133.412 89.6454 133.93 89.8414 134.21 90.0934L134.07 91.1714H130.066L129.926 90.0934C130.057 89.9161 130.313 89.7574 130.696 89.6174V85.7254C130.369 85.6134 130.113 85.4548 129.926 85.2494L130.066 84.1714C130.579 84.0594 131.041 84.0034 131.452 84.0034C131.863 84.0034 132.203 84.0128 132.474 84.0314V84.9134C132.689 84.6614 132.964 84.4561 133.3 84.2974C133.636 84.1294 133.939 84.0454 134.21 84.0454C134.49 84.0454 134.681 84.0688 134.784 84.1154L134.742 85.9354C134.555 85.9074 134.35 85.8934 134.126 85.8934ZM139.862 91.2554H138.322L136.026 85.7954C135.559 85.6461 135.246 85.4641 135.088 85.2494L135.228 84.1714H138.448L138.588 85.2494C138.466 85.3988 138.266 85.5341 137.986 85.6554L138.742 87.7694C138.91 88.2081 139.031 88.6421 139.106 89.0714L139.134 89.2674H139.33C139.404 88.8008 139.535 88.3108 139.722 87.7974L140.464 85.7254C140.118 85.5948 139.876 85.4361 139.736 85.2494L139.876 84.1714H142.956L143.096 85.2494C142.928 85.4641 142.62 85.6461 142.172 85.7954L139.862 91.2554ZM143.725 84.1714C144.248 84.0501 144.733 83.9894 145.181 83.9894C145.629 83.9894 146.007 84.0034 146.315 84.0314V89.6174C146.679 89.7574 146.936 89.9161 147.085 90.0934L146.945 91.1714H143.725L143.585 90.0934C143.716 89.9161 143.972 89.7574 144.355 89.6174V85.7254C144.028 85.6134 143.772 85.4548 143.585 85.2494L143.725 84.1714ZM145.307 83.2054C144.532 83.2054 144.145 82.8554 144.145 82.1554C144.145 81.4461 144.532 81.0914 145.307 81.0914C146.091 81.0914 146.483 81.4461 146.483 82.1554C146.483 82.8554 146.091 83.2054 145.307 83.2054ZM150.935 85.4874C150.076 85.4874 149.647 86.2248 149.647 87.6994C149.647 88.4461 149.763 88.9688 149.997 89.2674C150.239 89.5568 150.585 89.7014 151.033 89.7014C151.742 89.7014 152.367 89.6361 152.909 89.5054L153.329 90.5834C153.03 90.7794 152.629 90.9474 152.125 91.0874C151.621 91.2181 151.131 91.2834 150.655 91.2834C148.639 91.2834 147.631 90.1168 147.631 87.7834C147.631 86.4208 147.981 85.4408 148.681 84.8434C149.306 84.3208 150.067 84.0594 150.963 84.0594C151.859 84.0594 152.605 84.2274 153.203 84.5634C153.212 84.6568 153.217 84.7454 153.217 84.8294C153.217 85.3614 153.095 85.8654 152.853 86.3414H151.621C151.49 86.1081 151.411 85.8281 151.383 85.5014C151.271 85.4921 151.121 85.4874 150.935 85.4874ZM157.308 91.2834C156.188 91.2834 155.343 90.9848 154.774 90.3874C154.214 89.7901 153.934 88.9221 153.934 87.7834C153.934 87.0928 154.032 86.5001 154.228 86.0054C154.424 85.5014 154.69 85.1141 155.026 84.8434C155.679 84.3208 156.44 84.0594 157.308 84.0594C158.176 84.0594 158.838 84.2834 159.296 84.7314C159.762 85.1701 159.996 85.9634 159.996 87.1114C159.996 87.7834 159.664 88.1194 159.002 88.1194H155.964C156.001 88.7074 156.15 89.1228 156.412 89.3654C156.682 89.6081 157.107 89.7294 157.686 89.7294C158.003 89.7294 158.306 89.6921 158.596 89.6174C158.885 89.5428 159.095 89.4681 159.226 89.3934L159.422 89.2814L159.842 90.4014C159.786 90.4668 159.702 90.5508 159.59 90.6534C159.487 90.7468 159.216 90.8774 158.778 91.0454C158.348 91.2041 157.858 91.2834 157.308 91.2834ZM158.19 86.8734C158.208 86.7428 158.218 86.5841 158.218 86.3974C158.218 86.2108 158.143 86.0148 157.994 85.8094C157.844 85.5948 157.583 85.4874 157.21 85.4874C156.846 85.4874 156.566 85.5994 156.37 85.8234C156.174 86.0474 156.043 86.4254 155.978 86.9574L158.19 86.8734ZM163.515 85.3194C162.899 85.3194 162.591 85.5014 162.591 85.8654C162.591 86.2108 162.913 86.4674 163.557 86.6354L164.663 86.9294C165.802 87.2281 166.371 87.8861 166.371 88.9034C166.371 89.6034 166.124 90.1774 165.629 90.6254C165.144 91.0641 164.364 91.2834 163.291 91.2834C162.227 91.2834 161.396 91.1341 160.799 90.8354C160.79 90.7328 160.785 90.6301 160.785 90.5274C160.785 90.0141 160.888 89.5521 161.093 89.1414H162.255C162.376 89.3654 162.456 89.5988 162.493 89.8414C162.68 89.8974 162.946 89.9254 163.291 89.9254C164.112 89.9254 164.523 89.6921 164.523 89.2254C164.523 89.0761 164.467 88.9548 164.355 88.8614C164.243 88.7588 164.024 88.6608 163.697 88.5674L162.591 88.2454C162.022 88.0868 161.578 87.8534 161.261 87.5454C160.944 87.2281 160.785 86.7661 160.785 86.1594C160.785 85.5434 161.032 85.0394 161.527 84.6474C162.022 84.2554 162.726 84.0594 163.641 84.0594C164.565 84.0594 165.344 84.1948 165.979 84.4654C165.988 84.5588 165.993 84.6521 165.993 84.7454C165.993 85.2308 165.89 85.6788 165.685 86.0894H164.537C164.416 85.8748 164.336 85.6508 164.299 85.4174C164.038 85.3521 163.776 85.3194 163.515 85.3194Z" fill="white" />
              <defs>
                <filter id="filter0_d" x="0.243225" y="47.4857" width="226.514" height="41" filterUnits="userSpaceOnUse" color-interpolation-filters="sRGB">
                  <feFlood flood-opacity="0" result="BackgroundImageFix" />
                  <feColorMatrix in="SourceAlpha" type="matrix" values="0 0 0 0 0 0 0 0 0 0 0 0 0 0 0 0 0 0 127 0" />
                  <feOffset dx="10" dy="4" />
                  <feGaussianBlur stdDeviation="10" />
                  <feColorMatrix type="matrix" values="0 0 0 0 0 0 0 0 0 0 0 0 0 0 0 0 0 0 0.25 0" />
                  <feBlend mode="normal" in2="BackgroundImageFix" result="effect1_dropShadow" />
                  <feBlend mode="normal" in="SourceGraphic" in2="effect1_dropShadow" result="shape" />
                </filter>
              </defs>
            </svg>