<svg width="193" height="270" viewBox="0 0 193 270" fill="none" xmlns="http://www.w3.org/2000/svg">
<g clip-path="url(#clip0)">
<rect width="193" height="270" fill="#020202"/>
<path d="M-1.99621 270.001L-1.99665 -0.999437L197.003 270.002L-1.99621 270.001Z" fill="#1FD8CD"/>
<path d="M134.45 50.5221L122.643 50.1748L122.559 52.6468L122.024 68.7097L121.737 77.3585L121.548 82.92L80.5432 81.7105L79.3 81.674C78.9052 81.0444 78.1275 79.4147 78.1808 77.9306L78.9635 54.4539L79.3806 42.0958C80.047 40.6737 81.6381 37.8331 82.6289 37.8636C83.6259 37.8919 112.855 39.166 127.343 39.8C130.36 38.8991 133.463 42.8652 134.633 44.9628L134.45 50.5221Z" fill="#FFF5F5"/>
<g filter="url(#filter0_dd)">
<path d="M73.7465 233.92L74.9401 198.087L116.625 199.315L115.425 235.149L73.7465 233.92Z" fill="#1A1717"/>
<path d="M73.7465 233.92L74.9401 198.087L116.625 199.315L115.425 235.149L73.7465 233.92Z" stroke="black" stroke-opacity="0.2"/>
</g>
<g filter="url(#filter1_dd)">
<path d="M130.941 196.624C130.857 198.6 127.47 200.204 125.787 200.758L125.967 196.435L126.258 189.64L127.377 163.083L128.902 112.41L130.809 67.3209L130.368 62.9746C130.784 62.9899 132.1 63.2869 134.043 64.3523C135.991 65.4155 136.353 68.5648 136.291 70.0063L130.941 196.624Z" fill="#3AC2F2" fill-opacity="0.6"/>
<path d="M130.941 196.624C130.857 198.6 127.47 200.204 125.787 200.758L125.967 196.435L126.258 189.64L127.377 163.083L128.902 112.41L130.809 67.3209L130.368 62.9746C130.784 62.9899 132.1 63.2869 134.043 64.3523C135.991 65.4155 136.353 68.5648 136.291 70.0063L130.941 196.624Z" stroke="#451A67" stroke-opacity="0.2"/>
</g>
<g filter="url(#filter2_dd)">
<path d="M64.5832 67.2106C64.646 65.2347 68.016 63.6031 69.6931 63.0342L69.5495 67.3586L69.3213 74.1551L68.4343 100.721L67.3635 151.401L65.8508 196.505L66.3258 200.848C65.9113 200.836 64.5981 200.548 62.6417 199.502C60.6854 198.455 60.2967 195.309 60.3446 193.868L64.5832 67.2106Z" fill="#3AC2F2" fill-opacity="0.6"/>
<path d="M64.5832 67.2106C64.646 65.2347 68.016 63.6031 69.6931 63.0342L69.5495 67.3586L69.3213 74.1551L68.4343 100.721L67.3635 151.401L65.8508 196.505L66.3258 200.848C65.9113 200.836 64.5981 200.548 62.6417 199.502C60.6854 198.455 60.2967 195.309 60.3446 193.868L64.5832 67.2106Z" stroke="#451A67" stroke-opacity="0.2"/>
</g>
<g filter="url(#filter3_dd)">
<path d="M67.9448 63.7322C68.5545 60.3499 74.8958 60.4954 77.9872 60.992L77.5221 74.9448C77.4602 76.885 79.9012 78.2529 81.1309 78.6937L119.649 79.8304C122.136 79.9032 122.841 77.494 122.881 76.2808L123.346 62.3281L128.937 62.4932C131.423 62.5661 132.389 64.6195 132.563 65.6366L132.201 76.5553L131.857 86.8685L130.415 129.942L128.118 198.497C128.056 200.437 125.497 202.468 124.227 203.241L116.15 203.002L116.231 200.576L75.2258 199.367L75.1454 201.793L73.2778 201.74C72.4454 201.916 70.0345 202.128 67.0682 201.555C64.1021 200.982 63.5092 196.389 63.5798 194.166L64.0681 179.606C65.1085 142.39 67.335 67.1146 67.9448 63.7322Z" fill="#1E0B31"/>
<path d="M67.9448 63.7322C68.5545 60.3499 74.8958 60.4954 77.9872 60.992L77.5221 74.9448C77.4602 76.885 79.9012 78.2529 81.1309 78.6937L119.649 79.8304C122.136 79.9032 122.841 77.494 122.881 76.2808L123.346 62.3281L128.937 62.4932C131.423 62.5661 132.389 64.6195 132.563 65.6366L132.201 76.5553L131.857 86.8685L130.415 129.942L128.118 198.497C128.056 200.437 125.497 202.468 124.227 203.241L116.15 203.002L116.231 200.576L75.2258 199.367L75.1454 201.793L73.2778 201.74C72.4454 201.916 70.0345 202.128 67.0682 201.555C64.1021 200.982 63.5092 196.389 63.5798 194.166L64.0681 179.606C65.1085 142.39 67.335 67.1146 67.9448 63.7322Z" stroke="#451A67" stroke-opacity="0.2"/>
</g>
<g filter="url(#filter4_dd)">
<path d="M125.146 95.282L74.5079 93.7895C72.7065 93.7364 71.1975 95.1451 71.1376 96.9358L69.7419 138.642C69.682 140.433 71.0938 141.928 72.8952 141.981L123.533 143.473C125.335 143.526 126.844 142.118 126.904 140.327L128.299 98.6206C128.359 96.8298 126.947 95.3351 125.146 95.282Z" fill="#100F0F" fill-opacity="0.2"/>
</g>
<g filter="url(#filter5_dd)">
<path d="M124.464 100.207L74.8829 98.7455C74.1623 98.7242 73.5587 99.2877 73.5347 100.004L72.381 134.48C72.357 135.197 72.9217 135.794 73.6423 135.816L123.224 137.277C123.944 137.298 124.548 136.735 124.572 136.019L125.726 101.542C125.75 100.826 125.185 100.228 124.464 100.207Z" fill="#1CD2D2"/>
</g>
<g filter="url(#filter6_dd)">
<path d="M83.1569 150.445L73.3399 150.156C72.6193 150.134 72.0157 150.698 71.9918 151.414L71.8718 154.999C71.8478 155.715 72.4125 156.313 73.1331 156.334L82.9501 156.623C83.6707 156.645 84.2743 156.081 84.2982 155.365L84.4182 151.78C84.4421 151.064 83.8774 150.466 83.1569 150.445Z" fill="#C4C4C4" fill-opacity="0.2"/>
</g>
<g filter="url(#filter7_dd)">
<path d="M82.7897 161.562L72.9727 161.273C72.2521 161.252 71.6485 161.815 71.6246 162.531L71.5046 166.116C71.4806 166.832 72.0454 167.43 72.7659 167.451L82.5829 167.741C83.3035 167.762 83.9071 167.198 83.931 166.482L84.051 162.898C84.075 162.181 83.5102 161.583 82.7897 161.562Z" fill="#C4C4C4" fill-opacity="0.2"/>
</g>
<g filter="url(#filter8_dd)">
<path d="M82.4147 172.681L72.5977 172.392C71.8771 172.371 71.2735 172.934 71.2496 173.651L71.1296 177.235C71.1056 177.951 71.6704 178.549 72.3909 178.57L82.2079 178.86C82.9285 178.881 83.5321 178.317 83.556 177.601L83.676 174.017C83.7 173.3 83.1352 172.703 82.4147 172.681Z" fill="#C4C4C4" fill-opacity="0.2"/>
</g>
<g filter="url(#filter9_dd)">
<path d="M82.0514 183.804L72.2344 183.515C71.5138 183.494 70.9103 184.057 70.8863 184.774L70.7663 188.358C70.7424 189.074 71.3071 189.672 72.0277 189.693L81.8446 189.983C82.5652 190.004 83.1688 189.441 83.1928 188.724L83.3127 185.14C83.3367 184.424 82.772 183.826 82.0514 183.804Z" fill="#F30808"/>
</g>
<g filter="url(#filter10_dd)">
<path d="M100.672 184.351L90.8555 184.062C90.1349 184.041 89.5313 184.604 89.5074 185.32L89.3874 188.905C89.3635 189.621 89.9282 190.219 90.6488 190.24L100.466 190.53C101.186 190.551 101.79 189.987 101.814 189.271L101.934 185.687C101.958 184.97 101.393 184.372 100.672 184.351Z" fill="#C4C4C4" fill-opacity="0.2"/>
</g>
<g filter="url(#filter11_dd)">
<path d="M120.559 184.941L110.742 184.652C110.022 184.63 109.418 185.194 109.394 185.91L109.274 189.495C109.25 190.211 109.815 190.809 110.535 190.83L120.352 191.119C121.073 191.141 121.677 190.577 121.701 189.861L121.821 186.277C121.844 185.56 121.28 184.962 120.559 184.941Z" fill="#286214"/>
</g>
<g filter="url(#filter12_dd)">
<path d="M101.055 173.23L91.2383 172.941C90.5177 172.92 89.9142 173.483 89.8902 174.199L89.7702 177.784C89.7463 178.5 90.311 179.098 91.0316 179.119L100.849 179.409C101.569 179.43 102.173 178.866 102.197 178.15L102.317 174.566C102.341 173.849 101.776 173.251 101.055 173.23Z" fill="#C4C4C4" fill-opacity="0.2"/>
</g>
<g filter="url(#filter13_dd)">
<path d="M120.942 173.818L111.125 173.529C110.404 173.507 109.801 174.071 109.777 174.787L109.657 178.372C109.633 179.088 110.198 179.686 110.918 179.707L120.735 179.996C121.456 180.018 122.059 179.454 122.083 178.738L122.203 175.153C122.227 174.437 121.663 173.839 120.942 173.818Z" fill="#C4C4C4" fill-opacity="0.2"/>
</g>
<g filter="url(#filter14_dd)">
<path d="M101.43 162.109L91.6133 161.82C90.8927 161.798 90.2892 162.362 90.2652 163.078L90.1452 166.663C90.1213 167.379 90.686 167.977 91.4066 167.998L101.224 168.287C101.944 168.309 102.548 167.745 102.572 167.029L102.692 163.444C102.716 162.728 102.151 162.13 101.43 162.109Z" fill="#C4C4C4" fill-opacity="0.2"/>
</g>
<g filter="url(#filter15_dd)">
<path d="M121.305 162.695L111.488 162.406C110.768 162.384 110.164 162.948 110.14 163.664L110.02 167.249C109.996 167.965 110.561 168.563 111.282 168.584L121.099 168.873C121.819 168.895 122.423 168.331 122.447 167.615L122.567 164.03C122.591 163.314 122.026 162.716 121.305 162.695Z" fill="#C4C4C4" fill-opacity="0.2"/>
</g>
<g filter="url(#filter16_dd)">
<path d="M101.801 150.99L91.9844 150.701C91.2638 150.679 90.6603 151.243 90.6363 151.959L90.5163 155.543C90.4924 156.26 91.0571 156.858 91.7777 156.879L101.595 157.168C102.315 157.19 102.919 156.626 102.943 155.91L103.063 152.325C103.087 151.609 102.522 151.011 101.801 150.99Z" fill="#C4C4C4" fill-opacity="0.2"/>
</g>
<g filter="url(#filter17_dd)">
<path d="M121.684 151.578L111.867 151.288C111.147 151.267 110.543 151.831 110.519 152.547L110.399 156.131C110.375 156.848 110.94 157.446 111.66 157.467L121.477 157.756C122.198 157.777 122.802 157.214 122.826 156.498L122.946 152.913C122.969 152.197 122.405 151.599 121.684 151.578Z" fill="#C4C4C4" fill-opacity="0.2"/>
</g>
<path d="M81.1928 229.543C82.9086 229.594 84.3457 228.252 84.4028 226.546C84.4599 224.84 83.1153 223.416 81.3996 223.365C79.6838 223.314 78.2467 224.657 78.1896 226.363C78.1325 228.069 79.4771 229.493 81.1928 229.543Z" fill="#C4C732"/>
<path d="M81.2788 227.071C82.9945 227.121 84.4316 225.779 84.4887 224.073C84.5458 222.367 83.2012 220.943 81.4855 220.892C79.7698 220.842 78.3326 222.184 78.2755 223.89C78.2184 225.596 79.563 227.02 81.2788 227.071Z" fill="#C78232"/>
<g filter="url(#filter18_dd)">
<path d="M78.9985 119.024L78.9521 122.446L77.7874 122.436L77.9114 113.695L81.1551 113.726C82.1232 113.734 82.8708 113.986 83.4103 114.478C83.9502 114.972 84.2142 115.622 84.2083 116.424C84.1929 117.274 83.9189 117.924 83.3742 118.381C82.8346 118.832 82.0666 119.054 81.0699 119.045L78.9985 119.024ZM79.0131 118.081L81.0982 118.101C81.7164 118.108 82.1941 117.968 82.5315 117.682C82.8678 117.393 83.0357 116.975 83.0417 116.428C83.0508 115.906 82.8903 115.489 82.5656 115.173C82.2412 114.857 81.7859 114.692 81.2122 114.674L79.0577 114.655L79.0131 118.081ZM87.1426 114.453L87.119 116.027L88.3404 116.038L88.3282 116.896L87.1069 116.885L87.0555 120.911C87.051 121.172 87.0994 121.37 87.2064 121.503C87.3123 121.632 87.4982 121.697 87.7643 121.698C87.8912 121.701 88.071 121.677 88.298 121.631L88.2817 122.533C87.9892 122.609 87.7028 122.646 87.4224 122.645C86.9238 122.64 86.5497 122.486 86.2941 122.185C86.0447 121.883 85.9285 121.454 85.9329 120.902L85.9904 116.874L84.7974 116.864L84.8095 116.005L86.0025 116.015L86.0261 114.442L87.1426 114.453ZM92.8039 117.075C92.638 117.044 92.4508 117.03 92.2542 117.028C91.5235 117.02 91.019 117.327 90.7466 117.945L90.6825 122.556L89.566 122.544L89.6531 116.05L90.7412 116.06L90.7502 116.81C91.129 116.232 91.6493 115.948 92.3232 115.954C92.5409 115.956 92.706 115.986 92.8189 116.043L92.8039 117.075ZM93.3908 119.272C93.3981 118.636 93.5344 118.064 93.7877 117.559C94.0537 117.051 94.4078 116.663 94.8622 116.39C95.3171 116.118 95.8325 115.985 96.4083 115.991C97.2996 115.999 98.0148 116.312 98.5534 116.93C99.0989 117.547 99.3642 118.363 99.35 119.38L99.3458 119.46C99.3374 120.092 99.206 120.659 98.9518 121.161C98.7029 121.659 98.3546 122.044 97.8943 122.32C97.4347 122.598 96.9131 122.733 96.3237 122.728C95.4387 122.718 94.7238 122.406 94.1783 121.789C93.6397 121.171 93.3757 120.358 93.3927 119.349L93.3908 119.272ZM94.5158 119.414C94.5062 120.134 94.6665 120.713 94.9903 121.155C95.3268 121.592 95.7761 121.815 96.3381 121.821C96.9066 121.826 97.3618 121.609 97.7039 121.172C98.0448 120.731 98.2194 120.113 98.2278 119.317C98.24 118.604 98.0799 118.025 97.7414 117.582C97.4084 117.135 96.9578 116.909 96.3958 116.903C95.8415 116.899 95.3924 117.113 95.0484 117.546C94.7045 117.978 94.525 118.602 94.5158 119.414ZM101.853 116.163L101.881 116.978C102.39 116.359 103.049 116.052 103.856 116.059C105.239 116.072 105.924 116.853 105.913 118.403L105.852 122.696L104.735 122.684L104.794 118.386C104.796 117.919 104.696 117.57 104.484 117.344C104.278 117.118 103.947 117.004 103.504 116.998C103.139 116.996 102.819 117.089 102.542 117.279C102.265 117.468 102.047 117.719 101.887 118.031L101.823 122.659L100.706 122.647L100.8 116.151L101.853 116.163ZM108.758 122.721L107.641 122.71L107.728 116.216L108.845 116.227L108.758 122.721ZM107.659 114.493C107.666 114.311 107.72 114.161 107.833 114.036C107.947 113.914 108.113 113.854 108.33 113.856C108.548 113.858 108.712 113.922 108.823 114.046C108.935 114.172 108.987 114.325 108.986 114.505C108.985 114.684 108.924 114.835 108.809 114.954C108.694 115.073 108.528 115.132 108.31 115.129C108.092 115.127 107.929 115.066 107.819 114.944C107.71 114.824 107.659 114.673 107.659 114.493ZM113.192 121.975C113.592 121.979 113.939 121.863 114.239 121.626C114.546 121.387 114.711 121.09 114.748 120.73L115.807 120.739C115.783 121.112 115.646 121.465 115.404 121.799C115.162 122.133 114.844 122.396 114.437 122.595C114.044 122.789 113.62 122.887 113.177 122.883C112.286 122.874 111.582 122.573 111.06 121.98C110.544 121.383 110.294 120.572 110.306 119.549L110.311 119.362C110.319 118.729 110.445 118.167 110.684 117.678C110.928 117.187 111.265 116.809 111.707 116.54C112.15 116.272 112.666 116.142 113.263 116.148C113.999 116.153 114.603 116.378 115.081 116.818C115.565 117.258 115.819 117.826 115.842 118.523L114.782 118.514C114.754 118.094 114.599 117.747 114.313 117.476C114.026 117.204 113.678 117.062 113.25 117.06C112.682 117.055 112.241 117.254 111.921 117.658C111.601 118.061 111.441 118.645 111.429 119.414L111.426 119.624C111.414 120.374 111.566 120.949 111.869 121.357C112.173 121.764 112.616 121.97 113.192 121.975ZM120.874 121.11C120.878 120.81 120.767 120.576 120.535 120.412C120.315 120.24 119.916 120.093 119.35 119.968C118.791 119.841 118.342 119.694 118.011 119.522C117.679 119.352 117.44 119.148 117.28 118.916C117.127 118.681 117.049 118.406 117.058 118.084C117.063 117.552 117.296 117.104 117.751 116.741C118.212 116.377 118.794 116.199 119.503 116.204C120.24 116.213 120.84 116.407 121.296 116.791C121.752 117.177 121.981 117.663 121.972 118.256L120.848 118.245C120.85 117.942 120.721 117.679 120.461 117.457C120.207 117.234 119.884 117.121 119.49 117.116C119.083 117.112 118.76 117.199 118.532 117.371C118.299 117.546 118.177 117.776 118.175 118.059C118.173 118.327 118.273 118.531 118.486 118.669C118.7 118.806 119.081 118.941 119.634 119.07C120.194 119.199 120.645 119.351 120.992 119.526C121.339 119.7 121.588 119.912 121.752 120.157C121.916 120.4 121.995 120.695 121.995 121.042C121.981 121.624 121.747 122.086 121.272 122.434C120.797 122.779 120.19 122.947 119.445 122.939C118.919 122.935 118.456 122.84 118.055 122.652C117.654 122.464 117.344 122.204 117.119 121.874C116.899 121.539 116.789 121.181 116.795 120.796L117.911 120.807C117.928 121.179 118.071 121.477 118.346 121.7C118.626 121.919 118.997 122.029 119.454 122.034C119.881 122.037 120.221 121.956 120.479 121.79C120.735 121.621 120.871 121.393 120.874 121.11Z" fill="white"/>
</g>
</g>
<defs>
<filter id="filter0_dd" x="41.582" y="164.055" width="147.209" height="145.126" filterUnits="userSpaceOnUse" color-interpolation-filters="sRGB">
<feFlood flood-opacity="0" result="BackgroundImageFix"/>
<feColorMatrix in="SourceAlpha" type="matrix" values="0 0 0 0 0 0 0 0 0 0 0 0 0 0 0 0 0 0 127 0"/>
<feOffset dx="10" dy="10"/>
<feGaussianBlur stdDeviation="10"/>
<feColorMatrix type="matrix" values="0 0 0 0 0 0 0 0 0 0 0 0 0 0 0 0 0 0 0.25 0"/>
<feBlend mode="normal" in2="BackgroundImageFix" result="effect1_dropShadow"/>
<feColorMatrix in="SourceAlpha" type="matrix" values="0 0 0 0 0 0 0 0 0 0 0 0 0 0 0 0 0 0 127 0"/>
<feOffset dx="20" dy="20"/>
<feGaussianBlur stdDeviation="20"/>
<feColorMatrix type="matrix" values="0 0 0 0 0 0 0 0 0 0 0 0 0 0 0 0 0 0 0.25 0"/>
<feBlend mode="normal" in2="effect1_dropShadow" result="effect2_dropShadow"/>
<feBlend mode="normal" in="SourceGraphic" in2="effect2_dropShadow" result="shape"/>
</filter>
<filter id="filter1_dd" x="61.2891" y="40.8555" width="176.92" height="220.628" filterUnits="userSpaceOnUse" color-interpolation-filters="sRGB">
<feFlood flood-opacity="0" result="BackgroundImageFix"/>
<feColorMatrix in="SourceAlpha" type="matrix" values="0 0 0 0 0 0 0 0 0 0 0 0 0 0 0 0 0 0 127 0"/>
<feOffset dx="10" dy="10"/>
<feGaussianBlur stdDeviation="10"/>
<feColorMatrix type="matrix" values="0 0 0 0 0 0 0 0 0 0 0 0 0 0 0 0 0 0 0.25 0"/>
<feBlend mode="normal" in2="BackgroundImageFix" result="effect1_dropShadow"/>
<feColorMatrix in="SourceAlpha" type="matrix" values="0 0 0 0 0 0 0 0 0 0 0 0 0 0 0 0 0 0 127 0"/>
<feOffset dx="20" dy="20"/>
<feGaussianBlur stdDeviation="20"/>
<feColorMatrix type="matrix" values="0 0 0 0 0 0 0 0 0 0 0 0 0 0 0 0 0 0 0.25 0"/>
<feBlend mode="normal" in2="effect1_dropShadow" result="effect2_dropShadow"/>
<feBlend mode="normal" in="SourceGraphic" in2="effect2_dropShadow" result="shape"/>
</filter>
<filter id="filter2_dd" x="-1.70312" y="42.3125" width="176.042" height="220.668" filterUnits="userSpaceOnUse" color-interpolation-filters="sRGB">
<feFlood flood-opacity="0" result="BackgroundImageFix"/>
<feColorMatrix in="SourceAlpha" type="matrix" values="0 0 0 0 0 0 0 0 0 0 0 0 0 0 0 0 0 0 127 0"/>
<feOffset dx="10" dy="10"/>
<feGaussianBlur stdDeviation="10"/>
<feColorMatrix type="matrix" values="0 0 0 0 0 0 0 0 0 0 0 0 0 0 0 0 0 0 0.25 0"/>
<feBlend mode="normal" in2="BackgroundImageFix" result="effect1_dropShadow"/>
<feColorMatrix in="SourceAlpha" type="matrix" values="0 0 0 0 0 0 0 0 0 0 0 0 0 0 0 0 0 0 127 0"/>
<feOffset dx="20" dy="20"/>
<feGaussianBlur stdDeviation="20"/>
<feColorMatrix type="matrix" values="0 0 0 0 0 0 0 0 0 0 0 0 0 0 0 0 0 0 0.25 0"/>
<feBlend mode="normal" in2="effect1_dropShadow" result="effect2_dropShadow"/>
<feBlend mode="normal" in="SourceGraphic" in2="effect2_dropShadow" result="shape"/>
</filter>
<filter id="filter3_dd" x="0.351562" y="21.252" width="235.99" height="261.317" filterUnits="userSpaceOnUse" color-interpolation-filters="sRGB">
<feFlood flood-opacity="0" result="BackgroundImageFix"/>
<feColorMatrix in="SourceAlpha" type="matrix" values="0 0 0 0 0 0 0 0 0 0 0 0 0 0 0 0 0 0 127 0"/>
<feOffset dx="10" dy="10"/>
<feGaussianBlur stdDeviation="10"/>
<feColorMatrix type="matrix" values="0 0 0 0 0 0 0 0 0 0 0 0 0 0 0 0 0 0 0.25 0"/>
<feBlend mode="normal" in2="BackgroundImageFix" result="effect1_dropShadow"/>
<feColorMatrix in="SourceAlpha" type="matrix" values="0 0 0 0 0 0 0 0 0 0 0 0 0 0 0 0 0 0 127 0"/>
<feOffset dx="20" dy="20"/>
<feGaussianBlur stdDeviation="20"/>
<feColorMatrix type="matrix" values="0 0 0 0 0 0 0 0 0 0 0 0 0 0 0 0 0 0 0.25 0"/>
<feBlend mode="normal" in2="effect1_dropShadow" result="effect2_dropShadow"/>
<feBlend mode="normal" in="SourceGraphic" in2="effect2_dropShadow" result="shape"/>
</filter>
<filter id="filter4_dd" x="49.7383" y="73.7871" width="138.561" height="129.687" filterUnits="userSpaceOnUse" color-interpolation-filters="sRGB">
<feFlood flood-opacity="0" result="BackgroundImageFix"/>
<feColorMatrix in="SourceAlpha" type="matrix" values="0 0 0 0 0 0 0 0 0 0 0 0 0 0 0 0 0 0 127 0"/>
<feOffset dx="10" dy="10"/>
<feGaussianBlur stdDeviation="10"/>
<feColorMatrix type="matrix" values="0 0 0 0 0 0 0 0 0 0 0 0 0 0 0 0 0 0 0.25 0"/>
<feBlend mode="normal" in2="BackgroundImageFix" result="effect1_dropShadow"/>
<feColorMatrix in="SourceAlpha" type="matrix" values="0 0 0 0 0 0 0 0 0 0 0 0 0 0 0 0 0 0 127 0"/>
<feOffset dx="20" dy="20"/>
<feGaussianBlur stdDeviation="20"/>
<feColorMatrix type="matrix" values="0 0 0 0 0 0 0 0 0 0 0 0 0 0 0 0 0 0 0.25 0"/>
<feBlend mode="normal" in2="effect1_dropShadow" result="effect2_dropShadow"/>
<feBlend mode="normal" in="SourceGraphic" in2="effect2_dropShadow" result="shape"/>
</filter>
<filter id="filter5_dd" x="52.3789" y="78.7441" width="133.346" height="118.533" filterUnits="userSpaceOnUse" color-interpolation-filters="sRGB">
<feFlood flood-opacity="0" result="BackgroundImageFix"/>
<feColorMatrix in="SourceAlpha" type="matrix" values="0 0 0 0 0 0 0 0 0 0 0 0 0 0 0 0 0 0 127 0"/>
<feOffset dx="10" dy="10"/>
<feGaussianBlur stdDeviation="10"/>
<feColorMatrix type="matrix" values="0 0 0 0 0 0 0 0 0 0 0 0 0 0 0 0 0 0 0.25 0"/>
<feBlend mode="normal" in2="BackgroundImageFix" result="effect1_dropShadow"/>
<feColorMatrix in="SourceAlpha" type="matrix" values="0 0 0 0 0 0 0 0 0 0 0 0 0 0 0 0 0 0 127 0"/>
<feOffset dx="20" dy="20"/>
<feGaussianBlur stdDeviation="20"/>
<feColorMatrix type="matrix" values="0 0 0 0 0 0 0 0 0 0 0 0 0 0 0 0 0 0 0.25 0"/>
<feBlend mode="normal" in2="effect1_dropShadow" result="effect2_dropShadow"/>
<feBlend mode="normal" in="SourceGraphic" in2="effect2_dropShadow" result="shape"/>
</filter>
<filter id="filter6_dd" x="51.8711" y="130.154" width="92.5478" height="86.4689" filterUnits="userSpaceOnUse" color-interpolation-filters="sRGB">
<feFlood flood-opacity="0" result="BackgroundImageFix"/>
<feColorMatrix in="SourceAlpha" type="matrix" values="0 0 0 0 0 0 0 0 0 0 0 0 0 0 0 0 0 0 127 0"/>
<feOffset dx="10" dy="10"/>
<feGaussianBlur stdDeviation="10"/>
<feColorMatrix type="matrix" values="0 0 0 0 0 0 0 0 0 0 0 0 0 0 0 0 0 0 0.25 0"/>
<feBlend mode="normal" in2="BackgroundImageFix" result="effect1_dropShadow"/>
<feColorMatrix in="SourceAlpha" type="matrix" values="0 0 0 0 0 0 0 0 0 0 0 0 0 0 0 0 0 0 127 0"/>
<feOffset dx="20" dy="20"/>
<feGaussianBlur stdDeviation="20"/>
<feColorMatrix type="matrix" values="0 0 0 0 0 0 0 0 0 0 0 0 0 0 0 0 0 0 0.25 0"/>
<feBlend mode="normal" in2="effect1_dropShadow" result="effect2_dropShadow"/>
<feBlend mode="normal" in="SourceGraphic" in2="effect2_dropShadow" result="shape"/>
</filter>
<filter id="filter7_dd" x="51.5039" y="141.271" width="92.5478" height="86.4689" filterUnits="userSpaceOnUse" color-interpolation-filters="sRGB">
<feFlood flood-opacity="0" result="BackgroundImageFix"/>
<feColorMatrix in="SourceAlpha" type="matrix" values="0 0 0 0 0 0 0 0 0 0 0 0 0 0 0 0 0 0 127 0"/>
<feOffset dx="10" dy="10"/>
<feGaussianBlur stdDeviation="10"/>
<feColorMatrix type="matrix" values="0 0 0 0 0 0 0 0 0 0 0 0 0 0 0 0 0 0 0.25 0"/>
<feBlend mode="normal" in2="BackgroundImageFix" result="effect1_dropShadow"/>
<feColorMatrix in="SourceAlpha" type="matrix" values="0 0 0 0 0 0 0 0 0 0 0 0 0 0 0 0 0 0 127 0"/>
<feOffset dx="20" dy="20"/>
<feGaussianBlur stdDeviation="20"/>
<feColorMatrix type="matrix" values="0 0 0 0 0 0 0 0 0 0 0 0 0 0 0 0 0 0 0.25 0"/>
<feBlend mode="normal" in2="effect1_dropShadow" result="effect2_dropShadow"/>
<feBlend mode="normal" in="SourceGraphic" in2="effect2_dropShadow" result="shape"/>
</filter>
<filter id="filter8_dd" x="51.1289" y="152.391" width="92.5478" height="86.4689" filterUnits="userSpaceOnUse" color-interpolation-filters="sRGB">
<feFlood flood-opacity="0" result="BackgroundImageFix"/>
<feColorMatrix in="SourceAlpha" type="matrix" values="0 0 0 0 0 0 0 0 0 0 0 0 0 0 0 0 0 0 127 0"/>
<feOffset dx="10" dy="10"/>
<feGaussianBlur stdDeviation="10"/>
<feColorMatrix type="matrix" values="0 0 0 0 0 0 0 0 0 0 0 0 0 0 0 0 0 0 0.25 0"/>
<feBlend mode="normal" in2="BackgroundImageFix" result="effect1_dropShadow"/>
<feColorMatrix in="SourceAlpha" type="matrix" values="0 0 0 0 0 0 0 0 0 0 0 0 0 0 0 0 0 0 127 0"/>
<feOffset dx="20" dy="20"/>
<feGaussianBlur stdDeviation="20"/>
<feColorMatrix type="matrix" values="0 0 0 0 0 0 0 0 0 0 0 0 0 0 0 0 0 0 0.25 0"/>
<feBlend mode="normal" in2="effect1_dropShadow" result="effect2_dropShadow"/>
<feBlend mode="normal" in="SourceGraphic" in2="effect2_dropShadow" result="shape"/>
</filter>
<filter id="filter9_dd" x="50.7656" y="163.514" width="92.5478" height="86.4689" filterUnits="userSpaceOnUse" color-interpolation-filters="sRGB">
<feFlood flood-opacity="0" result="BackgroundImageFix"/>
<feColorMatrix in="SourceAlpha" type="matrix" values="0 0 0 0 0 0 0 0 0 0 0 0 0 0 0 0 0 0 127 0"/>
<feOffset dx="10" dy="10"/>
<feGaussianBlur stdDeviation="10"/>
<feColorMatrix type="matrix" values="0 0 0 0 0 0 0 0 0 0 0 0 0 0 0 0 0 0 0.25 0"/>
<feBlend mode="normal" in2="BackgroundImageFix" result="effect1_dropShadow"/>
<feColorMatrix in="SourceAlpha" type="matrix" values="0 0 0 0 0 0 0 0 0 0 0 0 0 0 0 0 0 0 127 0"/>
<feOffset dx="20" dy="20"/>
<feGaussianBlur stdDeviation="20"/>
<feColorMatrix type="matrix" values="0 0 0 0 0 0 0 0 0 0 0 0 0 0 0 0 0 0 0.25 0"/>
<feBlend mode="normal" in2="effect1_dropShadow" result="effect2_dropShadow"/>
<feBlend mode="normal" in="SourceGraphic" in2="effect2_dropShadow" result="shape"/>
</filter>
<filter id="filter10_dd" x="69.3867" y="164.061" width="92.5478" height="86.4689" filterUnits="userSpaceOnUse" color-interpolation-filters="sRGB">
<feFlood flood-opacity="0" result="BackgroundImageFix"/>
<feColorMatrix in="SourceAlpha" type="matrix" values="0 0 0 0 0 0 0 0 0 0 0 0 0 0 0 0 0 0 127 0"/>
<feOffset dx="10" dy="10"/>
<feGaussianBlur stdDeviation="10"/>
<feColorMatrix type="matrix" values="0 0 0 0 0 0 0 0 0 0 0 0 0 0 0 0 0 0 0.25 0"/>
<feBlend mode="normal" in2="BackgroundImageFix" result="effect1_dropShadow"/>
<feColorMatrix in="SourceAlpha" type="matrix" values="0 0 0 0 0 0 0 0 0 0 0 0 0 0 0 0 0 0 127 0"/>
<feOffset dx="20" dy="20"/>
<feGaussianBlur stdDeviation="20"/>
<feColorMatrix type="matrix" values="0 0 0 0 0 0 0 0 0 0 0 0 0 0 0 0 0 0 0.25 0"/>
<feBlend mode="normal" in2="effect1_dropShadow" result="effect2_dropShadow"/>
<feBlend mode="normal" in="SourceGraphic" in2="effect2_dropShadow" result="shape"/>
</filter>
<filter id="filter11_dd" x="89.2734" y="164.65" width="92.5478" height="86.4689" filterUnits="userSpaceOnUse" color-interpolation-filters="sRGB">
<feFlood flood-opacity="0" result="BackgroundImageFix"/>
<feColorMatrix in="SourceAlpha" type="matrix" values="0 0 0 0 0 0 0 0 0 0 0 0 0 0 0 0 0 0 127 0"/>
<feOffset dx="10" dy="10"/>
<feGaussianBlur stdDeviation="10"/>
<feColorMatrix type="matrix" values="0 0 0 0 0 0 0 0 0 0 0 0 0 0 0 0 0 0 0.25 0"/>
<feBlend mode="normal" in2="BackgroundImageFix" result="effect1_dropShadow"/>
<feColorMatrix in="SourceAlpha" type="matrix" values="0 0 0 0 0 0 0 0 0 0 0 0 0 0 0 0 0 0 127 0"/>
<feOffset dx="20" dy="20"/>
<feGaussianBlur stdDeviation="20"/>
<feColorMatrix type="matrix" values="0 0 0 0 0 0 0 0 0 0 0 0 0 0 0 0 0 0 0.25 0"/>
<feBlend mode="normal" in2="effect1_dropShadow" result="effect2_dropShadow"/>
<feBlend mode="normal" in="SourceGraphic" in2="effect2_dropShadow" result="shape"/>
</filter>
<filter id="filter12_dd" x="69.7695" y="152.939" width="92.5478" height="86.4689" filterUnits="userSpaceOnUse" color-interpolation-filters="sRGB">
<feFlood flood-opacity="0" result="BackgroundImageFix"/>
<feColorMatrix in="SourceAlpha" type="matrix" values="0 0 0 0 0 0 0 0 0 0 0 0 0 0 0 0 0 0 127 0"/>
<feOffset dx="10" dy="10"/>
<feGaussianBlur stdDeviation="10"/>
<feColorMatrix type="matrix" values="0 0 0 0 0 0 0 0 0 0 0 0 0 0 0 0 0 0 0.25 0"/>
<feBlend mode="normal" in2="BackgroundImageFix" result="effect1_dropShadow"/>
<feColorMatrix in="SourceAlpha" type="matrix" values="0 0 0 0 0 0 0 0 0 0 0 0 0 0 0 0 0 0 127 0"/>
<feOffset dx="20" dy="20"/>
<feGaussianBlur stdDeviation="20"/>
<feColorMatrix type="matrix" values="0 0 0 0 0 0 0 0 0 0 0 0 0 0 0 0 0 0 0.25 0"/>
<feBlend mode="normal" in2="effect1_dropShadow" result="effect2_dropShadow"/>
<feBlend mode="normal" in="SourceGraphic" in2="effect2_dropShadow" result="shape"/>
</filter>
<filter id="filter13_dd" x="89.6562" y="153.527" width="92.5478" height="86.4689" filterUnits="userSpaceOnUse" color-interpolation-filters="sRGB">
<feFlood flood-opacity="0" result="BackgroundImageFix"/>
<feColorMatrix in="SourceAlpha" type="matrix" values="0 0 0 0 0 0 0 0 0 0 0 0 0 0 0 0 0 0 127 0"/>
<feOffset dx="10" dy="10"/>
<feGaussianBlur stdDeviation="10"/>
<feColorMatrix type="matrix" values="0 0 0 0 0 0 0 0 0 0 0 0 0 0 0 0 0 0 0.25 0"/>
<feBlend mode="normal" in2="BackgroundImageFix" result="effect1_dropShadow"/>
<feColorMatrix in="SourceAlpha" type="matrix" values="0 0 0 0 0 0 0 0 0 0 0 0 0 0 0 0 0 0 127 0"/>
<feOffset dx="20" dy="20"/>
<feGaussianBlur stdDeviation="20"/>
<feColorMatrix type="matrix" values="0 0 0 0 0 0 0 0 0 0 0 0 0 0 0 0 0 0 0.25 0"/>
<feBlend mode="normal" in2="effect1_dropShadow" result="effect2_dropShadow"/>
<feBlend mode="normal" in="SourceGraphic" in2="effect2_dropShadow" result="shape"/>
</filter>
<filter id="filter14_dd" x="70.1445" y="141.818" width="92.5478" height="86.4689" filterUnits="userSpaceOnUse" color-interpolation-filters="sRGB">
<feFlood flood-opacity="0" result="BackgroundImageFix"/>
<feColorMatrix in="SourceAlpha" type="matrix" values="0 0 0 0 0 0 0 0 0 0 0 0 0 0 0 0 0 0 127 0"/>
<feOffset dx="10" dy="10"/>
<feGaussianBlur stdDeviation="10"/>
<feColorMatrix type="matrix" values="0 0 0 0 0 0 0 0 0 0 0 0 0 0 0 0 0 0 0.25 0"/>
<feBlend mode="normal" in2="BackgroundImageFix" result="effect1_dropShadow"/>
<feColorMatrix in="SourceAlpha" type="matrix" values="0 0 0 0 0 0 0 0 0 0 0 0 0 0 0 0 0 0 127 0"/>
<feOffset dx="20" dy="20"/>
<feGaussianBlur stdDeviation="20"/>
<feColorMatrix type="matrix" values="0 0 0 0 0 0 0 0 0 0 0 0 0 0 0 0 0 0 0.25 0"/>
<feBlend mode="normal" in2="effect1_dropShadow" result="effect2_dropShadow"/>
<feBlend mode="normal" in="SourceGraphic" in2="effect2_dropShadow" result="shape"/>
</filter>
<filter id="filter15_dd" x="90.0195" y="142.404" width="92.5478" height="86.4689" filterUnits="userSpaceOnUse" color-interpolation-filters="sRGB">
<feFlood flood-opacity="0" result="BackgroundImageFix"/>
<feColorMatrix in="SourceAlpha" type="matrix" values="0 0 0 0 0 0 0 0 0 0 0 0 0 0 0 0 0 0 127 0"/>
<feOffset dx="10" dy="10"/>
<feGaussianBlur stdDeviation="10"/>
<feColorMatrix type="matrix" values="0 0 0 0 0 0 0 0 0 0 0 0 0 0 0 0 0 0 0.25 0"/>
<feBlend mode="normal" in2="BackgroundImageFix" result="effect1_dropShadow"/>
<feColorMatrix in="SourceAlpha" type="matrix" values="0 0 0 0 0 0 0 0 0 0 0 0 0 0 0 0 0 0 127 0"/>
<feOffset dx="20" dy="20"/>
<feGaussianBlur stdDeviation="20"/>
<feColorMatrix type="matrix" values="0 0 0 0 0 0 0 0 0 0 0 0 0 0 0 0 0 0 0.25 0"/>
<feBlend mode="normal" in2="effect1_dropShadow" result="effect2_dropShadow"/>
<feBlend mode="normal" in="SourceGraphic" in2="effect2_dropShadow" result="shape"/>
</filter>
<filter id="filter16_dd" x="70.5156" y="130.699" width="92.5478" height="86.4689" filterUnits="userSpaceOnUse" color-interpolation-filters="sRGB">
<feFlood flood-opacity="0" result="BackgroundImageFix"/>
<feColorMatrix in="SourceAlpha" type="matrix" values="0 0 0 0 0 0 0 0 0 0 0 0 0 0 0 0 0 0 127 0"/>
<feOffset dx="10" dy="10"/>
<feGaussianBlur stdDeviation="10"/>
<feColorMatrix type="matrix" values="0 0 0 0 0 0 0 0 0 0 0 0 0 0 0 0 0 0 0.25 0"/>
<feBlend mode="normal" in2="BackgroundImageFix" result="effect1_dropShadow"/>
<feColorMatrix in="SourceAlpha" type="matrix" values="0 0 0 0 0 0 0 0 0 0 0 0 0 0 0 0 0 0 127 0"/>
<feOffset dx="20" dy="20"/>
<feGaussianBlur stdDeviation="20"/>
<feColorMatrix type="matrix" values="0 0 0 0 0 0 0 0 0 0 0 0 0 0 0 0 0 0 0.25 0"/>
<feBlend mode="normal" in2="effect1_dropShadow" result="effect2_dropShadow"/>
<feBlend mode="normal" in="SourceGraphic" in2="effect2_dropShadow" result="shape"/>
</filter>
<filter id="filter17_dd" x="90.3984" y="131.287" width="92.5478" height="86.4689" filterUnits="userSpaceOnUse" color-interpolation-filters="sRGB">
<feFlood flood-opacity="0" result="BackgroundImageFix"/>
<feColorMatrix in="SourceAlpha" type="matrix" values="0 0 0 0 0 0 0 0 0 0 0 0 0 0 0 0 0 0 127 0"/>
<feOffset dx="10" dy="10"/>
<feGaussianBlur stdDeviation="10"/>
<feColorMatrix type="matrix" values="0 0 0 0 0 0 0 0 0 0 0 0 0 0 0 0 0 0 0.25 0"/>
<feBlend mode="normal" in2="BackgroundImageFix" result="effect1_dropShadow"/>
<feColorMatrix in="SourceAlpha" type="matrix" values="0 0 0 0 0 0 0 0 0 0 0 0 0 0 0 0 0 0 127 0"/>
<feOffset dx="20" dy="20"/>
<feGaussianBlur stdDeviation="20"/>
<feColorMatrix type="matrix" values="0 0 0 0 0 0 0 0 0 0 0 0 0 0 0 0 0 0 0.25 0"/>
<feBlend mode="normal" in2="effect1_dropShadow" result="effect2_dropShadow"/>
<feBlend mode="normal" in="SourceGraphic" in2="effect2_dropShadow" result="shape"/>
</filter>
<filter id="filter18_dd" x="57.7891" y="93.6953" width="124.208" height="89.2449" filterUnits="userSpaceOnUse" color-interpolation-filters="sRGB">
<feFlood flood-opacity="0" result="BackgroundImageFix"/>
<feColorMatrix in="SourceAlpha" type="matrix" values="0 0 0 0 0 0 0 0 0 0 0 0 0 0 0 0 0 0 127 0"/>
<feOffset dx="10" dy="10"/>
<feGaussianBlur stdDeviation="10"/>
<feColorMatrix type="matrix" values="0 0 0 0 0 0 0 0 0 0 0 0 0 0 0 0 0 0 0.25 0"/>
<feBlend mode="normal" in2="BackgroundImageFix" result="effect1_dropShadow"/>
<feColorMatrix in="SourceAlpha" type="matrix" values="0 0 0 0 0 0 0 0 0 0 0 0 0 0 0 0 0 0 127 0"/>
<feOffset dx="20" dy="20"/>
<feGaussianBlur stdDeviation="20"/>
<feColorMatrix type="matrix" values="0 0 0 0 0 0 0 0 0 0 0 0 0 0 0 0 0 0 0.25 0"/>
<feBlend mode="normal" in2="effect1_dropShadow" result="effect2_dropShadow"/>
<feBlend mode="normal" in="SourceGraphic" in2="effect2_dropShadow" result="shape"/>
</filter>
<clipPath id="clip0">
<rect width="193" height="270" fill="white"/>
</clipPath>
</defs>
</svg>
