<svg width="1440" height="1024" viewBox="0 0 1440 1024" fill="none" xmlns="http://www.w3.org/2000/svg">
<g clip-path="url(#clip0)">
<rect width="1440" height="1024" fill="white"/>
<rect width="1440" height="1024" fill="#FFC446" fill-opacity="0.49"/>
<rect width="1460" height="512" fill="#3FACE4" fill-opacity="0.5"/>
<g filter="url(#filter0_d)">
<rect x="272" y="232" width="904" height="560" fill="#F8F9FD"/>
</g>
<path d="M934 668H389C384.493 667.995 380.172 666.202 376.985 663.015C373.798 659.828 372.005 655.507 372 651V380C372.005 375.493 373.798 371.172 376.985 367.985C380.172 364.798 384.493 363.005 389 363H934C938.507 363.005 942.828 364.798 946.015 367.985C949.202 371.172 950.995 375.493 951 380V651C950.995 655.507 949.202 659.828 946.015 663.015C942.828 666.202 938.507 667.995 934 668V668ZM389 365C385.023 365.004 381.21 366.586 378.398 369.398C375.586 372.21 374.004 376.023 374 380V651C374.004 654.977 375.586 658.79 378.398 661.602C381.21 664.414 385.023 665.996 389 666H934C937.977 665.996 941.79 664.414 944.602 661.602C947.414 658.79 948.996 654.977 949 651V380C948.996 376.023 947.414 372.21 944.602 369.398C941.79 366.586 937.977 365.004 934 365H389Z" fill="#3F3D56"/>
<path d="M503.885 426.002L490.029 426.528L490.042 429.372L490.15 447.846L490.208 457.793L490.241 464.189L442.116 466.016L440.657 466.071C440.165 465.38 439.179 463.571 439.174 461.864L439.018 434.863L438.943 420.649C439.658 418.965 441.394 415.581 442.556 415.538C443.727 415.493 478.05 414.663 495.065 414.255C498.559 412.985 502.379 417.293 503.846 419.608L503.885 426.002Z" fill="#FFF5F5"/>
<g filter="url(#filter1_dd)">
<path d="M441.107 641.206L440.869 599.995L489.792 598.135L490.024 639.35L441.107 641.206Z" fill="#1A1717"/>
<path d="M441.107 641.206L440.869 599.995L489.792 598.135L490.024 639.35L441.107 641.206Z" stroke="black" stroke-opacity="0.2"/>
</g>
<g filter="url(#filter2_dd)">
<path d="M506.452 593.926C506.444 596.201 502.547 598.307 500.6 599.074L500.612 594.101L500.643 586.28L500.741 555.718L500.214 497.451L500.388 445.563L499.672 440.61C500.16 440.595 501.718 440.832 504.043 441.903C506.375 442.97 506.945 446.555 506.937 448.215L506.452 593.926Z" fill="#B52BAF" fill-opacity="0.6"/>
<path d="M506.452 593.926C506.444 596.201 502.547 598.307 500.6 599.074L500.612 594.101L500.643 586.28L500.741 555.718L500.214 497.451L500.388 445.563L499.672 440.61C500.16 440.595 501.718 440.832 504.043 441.903C506.375 442.97 506.945 446.555 506.937 448.215L506.452 593.926Z" stroke="#451A67" stroke-opacity="0.2"/>
</g>
<g filter="url(#filter3_dd)">
<path d="M422.742 450.626C422.725 448.354 426.601 446.218 428.541 445.433L428.571 450.407L428.614 458.224L428.788 488.778L429.849 547.016L430.138 598.891L430.893 603.839C430.406 603.857 428.854 603.63 426.513 602.582C424.171 601.534 423.572 597.955 423.562 596.297L422.742 450.626Z" fill="#B52BAF" fill-opacity="0.6"/>
<path d="M422.742 450.626C422.725 448.354 426.601 446.218 428.541 445.433L428.571 450.407L428.614 458.224L428.788 488.778L429.849 547.016L430.138 598.891L430.893 603.839C430.406 603.857 428.854 603.63 426.513 602.582C424.171 601.534 423.572 597.955 423.562 596.297L422.742 450.626Z" stroke="#451A67" stroke-opacity="0.2"/>
</g>
<g filter="url(#filter4_dd)">
<path d="M426.523 446.371C427.083 442.442 434.524 442.112 438.17 442.44L438.263 458.487C438.279 460.718 441.203 462.096 442.665 462.506L487.873 460.791C490.791 460.679 491.507 457.859 491.498 456.464L491.406 440.417L497.968 440.168C500.886 440.057 502.112 442.338 502.362 443.491L502.437 456.049L502.504 467.91L502.784 517.45L503.223 596.297C503.239 598.527 500.333 601.058 498.88 602.045L489.399 602.404L489.383 599.614L441.258 601.44L441.274 604.23L439.083 604.316C438.115 604.584 435.298 605.016 431.795 604.591C428.291 604.166 427.387 598.943 427.367 596.385L427.274 579.639C426.793 536.853 425.963 450.3 426.523 446.371Z" fill="#1E0B31"/>
<path d="M426.523 446.371C427.083 442.442 434.524 442.112 438.17 442.44L438.263 458.487C438.279 460.718 441.203 462.096 442.665 462.506L487.873 460.791C490.791 460.679 491.507 457.859 491.498 456.464L491.406 440.417L497.968 440.168C500.886 440.057 502.112 442.338 502.362 443.491L502.437 456.049L502.504 467.91L502.784 517.45L503.223 596.297C503.239 598.527 500.333 601.058 498.88 602.045L489.399 602.404L489.383 599.614L441.258 601.44L441.274 604.23L439.083 604.316C438.115 604.584 435.298 605.016 431.795 604.591C428.291 604.166 427.387 598.943 427.367 596.385L427.274 579.639C426.793 536.853 425.963 450.3 426.523 446.371Z" stroke="#451A67" stroke-opacity="0.2"/>
</g>
<g filter="url(#filter5_dd)">
<path d="M495.023 478.092L435.593 480.348C433.478 480.429 431.774 482.163 431.785 484.223L432.055 532.19C432.067 534.25 433.79 535.854 435.905 535.774L495.336 533.517C497.45 533.437 499.155 531.702 499.143 529.643L498.873 481.675C498.862 479.616 497.138 478.011 495.023 478.092Z" fill="#100F0F" fill-opacity="0.2"/>
</g>
<g filter="url(#filter6_dd)">
<path d="M494.453 483.8L436.261 486.01C435.415 486.042 434.733 486.736 434.738 487.559L434.961 527.211C434.966 528.035 435.655 528.677 436.501 528.645L494.692 526.435C495.538 526.402 496.22 525.709 496.215 524.885L495.992 485.233C495.987 484.41 495.298 483.768 494.453 483.8Z" fill="#1CC7D2"/>
</g>
<g filter="url(#filter7_dd)">
<path d="M448.317 544.683L436.796 545.12C435.95 545.152 435.268 545.846 435.273 546.67L435.296 550.793C435.301 551.617 435.99 552.259 436.836 552.226L448.358 551.789C449.203 551.757 449.885 551.063 449.881 550.239L449.857 546.116C449.852 545.292 449.163 544.65 448.317 544.683Z" fill="#C4C4C4" fill-opacity="0.2"/>
</g>
<g filter="url(#filter8_dd)">
<path d="M448.397 557.472L436.876 557.909C436.03 557.942 435.348 558.635 435.353 559.459L435.376 563.581C435.38 564.405 436.07 565.047 436.915 565.014L448.437 564.577C449.283 564.546 449.965 563.851 449.96 563.027L449.937 558.905C449.932 558.081 449.243 557.439 448.397 557.472Z" fill="#C4C4C4" fill-opacity="0.2"/>
</g>
<g filter="url(#filter9_dd)">
<path d="M448.466 570.26L436.944 570.699C436.098 570.73 435.417 571.425 435.421 572.248L435.444 576.37C435.449 577.194 436.138 577.836 436.984 577.804L448.506 577.367C449.351 577.334 450.033 576.641 450.029 575.817L450.005 571.694C450.001 570.871 449.312 570.229 448.466 570.26Z" fill="#C4C4C4" fill-opacity="0.2"/>
</g>
<g filter="url(#filter10_dd)">
<path d="M448.552 583.046L437.03 583.483C436.184 583.516 435.502 584.209 435.507 585.033L435.531 589.156C435.535 589.979 436.224 590.621 437.07 590.59L448.591 590.151C449.438 590.12 450.119 589.425 450.115 588.602L450.091 584.479C450.087 583.655 449.397 583.014 448.552 583.046Z" fill="#F30808"/>
</g>
<g filter="url(#filter11_dd)">
<path d="M470.403 582.218L458.881 582.655C458.036 582.688 457.354 583.381 457.359 584.205L457.382 588.328C457.386 589.151 458.076 589.793 458.922 589.762L470.444 589.324C471.289 589.292 471.971 588.597 471.966 587.774L471.943 583.651C471.938 582.827 471.249 582.185 470.403 582.218Z" fill="#C4C4C4" fill-opacity="0.2"/>
</g>
<g filter="url(#filter12_dd)">
<path d="M493.743 581.334L482.222 581.773C481.375 581.804 480.694 582.499 480.699 583.323L480.722 587.445C480.726 588.269 481.416 588.911 482.261 588.878L493.783 588.441C494.629 588.408 495.311 587.715 495.306 586.891L495.283 582.769C495.278 581.945 494.589 581.303 493.743 581.334Z" fill="#286214"/>
</g>
<g filter="url(#filter13_dd)">
<path d="M470.345 569.425L458.823 569.862C457.977 569.894 457.296 570.589 457.3 571.412L457.323 575.535C457.328 576.359 458.017 577.001 458.863 576.968L470.385 576.531C471.23 576.499 471.912 575.805 471.908 574.981L471.884 570.858C471.88 570.035 471.191 569.393 470.345 569.425Z" fill="#C4C4C4" fill-opacity="0.2"/>
</g>
<g filter="url(#filter14_dd)">
<path d="M493.683 568.546L482.161 568.983C481.315 569.016 480.633 569.709 480.638 570.533L480.661 574.655C480.666 575.479 481.355 576.121 482.201 576.089L493.722 575.651C494.568 575.62 495.25 574.925 495.245 574.101L495.222 569.979C495.217 569.155 494.528 568.514 493.683 568.546Z" fill="#C4C4C4" fill-opacity="0.2"/>
</g>
<g filter="url(#filter15_dd)">
<path d="M470.274 556.64L458.753 557.077C457.907 557.11 457.225 557.803 457.23 558.627L457.253 562.749C457.257 563.573 457.947 564.215 458.792 564.182L470.314 563.745C471.16 563.714 471.842 563.019 471.837 562.195L471.814 558.073C471.809 557.249 471.12 556.607 470.274 556.64Z" fill="#C4C4C4" fill-opacity="0.2"/>
</g>
<g filter="url(#filter16_dd)">
<path d="M493.6 555.749L482.079 556.187C481.233 556.218 480.551 556.913 480.556 557.736L480.579 561.859C480.584 562.683 481.273 563.325 482.119 563.292L493.641 562.855C494.486 562.822 495.168 562.129 495.163 561.305L495.14 557.182C495.136 556.359 494.446 555.717 493.6 555.749Z" fill="#C4C4C4" fill-opacity="0.2"/>
</g>
<g filter="url(#filter17_dd)">
<path d="M470.202 543.847L458.68 544.284C457.835 544.317 457.153 545.01 457.157 545.834L457.181 549.957C457.186 550.781 457.875 551.422 458.721 551.39L470.242 550.953C471.088 550.921 471.769 550.226 471.765 549.403L471.742 545.28C471.737 544.456 471.048 543.814 470.202 543.847Z" fill="#C4C4C4" fill-opacity="0.2"/>
</g>
<g filter="url(#filter18_dd)">
<path d="M493.538 542.968L482.017 543.406C481.17 543.437 480.489 544.132 480.494 544.956L480.517 549.077C480.521 549.901 481.211 550.543 482.056 550.511L493.578 550.074C494.424 550.041 495.106 549.348 495.101 548.524L495.078 544.402C495.074 543.577 494.384 542.936 493.538 542.968Z" fill="#C4C4C4" fill-opacity="0.2"/>
</g>
<path d="M449.631 635.603C451.644 635.526 453.268 633.873 453.257 631.911C453.246 629.949 451.605 628.42 449.59 628.496C447.577 628.573 445.954 630.226 445.965 632.188C445.976 634.15 447.617 635.678 449.631 635.603Z" fill="#C4C732"/>
<path d="M449.619 632.755C451.632 632.678 453.256 631.026 453.245 629.063C453.234 627.101 451.593 625.573 449.579 625.649C447.565 625.726 445.942 627.378 445.953 629.34C445.964 631.303 447.605 632.831 449.619 632.755Z" fill="#C78232"/>
<g filter="url(#filter19_dd)">
<path d="M442.012 508.956L442.114 512.886L440.748 512.967L440.494 502.926L444.298 502.708C445.433 502.64 446.321 502.871 446.976 503.394C447.632 503.919 447.971 504.643 448.001 505.564C448.021 506.541 447.73 507.308 447.112 507.875C446.5 508.435 445.61 508.75 444.441 508.818L442.012 508.956ZM441.986 507.873L444.431 507.733C445.156 507.692 445.71 507.494 446.092 507.139C446.473 506.781 446.651 506.288 446.633 505.66C446.62 505.061 446.413 504.595 446.018 504.257C445.623 503.92 445.082 503.767 444.408 503.791L441.882 503.938L441.986 507.873ZM451.35 503.072L451.395 504.88L452.827 504.797L452.852 505.783L451.42 505.866L451.544 510.49C451.55 510.789 451.616 511.013 451.747 511.157C451.877 511.297 452.098 511.357 452.41 511.337C452.559 511.33 452.769 511.289 453.033 511.218L453.055 512.255C452.716 512.365 452.382 512.43 452.053 512.45C451.468 512.484 451.023 512.336 450.709 512.011C450.403 511.684 450.247 511.201 450.227 510.568L450.11 505.941L448.711 506.022L448.686 505.036L450.085 504.954L450.041 503.147L451.35 503.072ZM458.107 505.638C457.911 505.615 457.691 505.614 457.46 505.627C456.603 505.674 456.026 506.066 455.735 506.797L455.871 512.093L454.561 512.167L454.366 504.708L455.642 504.634L455.687 505.494C456.105 504.801 456.702 504.435 457.492 504.389C457.747 504.374 457.942 504.395 458.077 504.452L458.107 505.638ZM458.895 508.112C458.875 507.383 459.009 506.715 459.282 506.116C459.571 505.512 459.968 505.039 460.489 504.69C461.01 504.343 461.608 504.15 462.283 504.111C463.328 504.05 464.181 504.353 464.841 505.02C465.508 505.685 465.857 506.601 465.886 507.769L465.885 507.861C465.904 508.587 465.776 509.248 465.501 509.844C465.232 510.435 464.841 510.904 464.314 511.257C463.788 511.612 463.183 511.807 462.492 511.848C461.454 511.907 460.601 511.604 459.934 510.939C459.274 510.272 458.927 509.36 458.901 508.201L458.895 508.112ZM460.221 508.187C460.242 509.014 460.457 509.666 460.857 510.147C461.271 510.623 461.808 510.843 462.467 510.806C463.134 510.767 463.657 510.483 464.038 509.954C464.418 509.422 464.594 508.699 464.568 507.785C464.55 506.966 464.336 506.314 463.918 505.832C463.508 505.345 462.969 505.122 462.31 505.159C461.66 505.197 461.143 505.478 460.76 506.002C460.376 506.525 460.194 507.255 460.221 508.187ZM468.674 503.881L468.743 504.815C469.312 504.064 470.07 503.66 471.017 503.605C472.639 503.511 473.478 504.355 473.535 506.133L473.66 511.064L472.351 511.139L472.223 506.202C472.204 505.665 472.071 505.273 471.811 505.031C471.56 504.787 471.167 504.682 470.647 504.711C470.22 504.736 469.848 504.869 469.532 505.108C469.216 505.347 468.972 505.651 468.799 506.022L468.935 511.337L467.626 511.412L467.438 503.95L468.674 503.881ZM477.068 510.866L475.758 510.94L475.564 503.482L476.873 503.407L477.068 510.866ZM475.404 501.51C475.404 501.301 475.461 501.124 475.587 500.972C475.714 500.823 475.906 500.741 476.162 500.726C476.417 500.712 476.612 500.772 476.749 500.906C476.884 501.042 476.953 501.213 476.959 501.42C476.966 501.625 476.903 501.803 476.773 501.949C476.644 502.094 476.451 502.175 476.196 502.189C475.941 502.204 475.747 502.146 475.612 502.015C475.479 501.885 475.412 501.716 475.404 501.51ZM482.232 509.662C482.701 509.635 483.102 509.474 483.444 509.179C483.793 508.881 483.973 508.527 483.999 508.112L485.242 508.039C485.23 508.468 485.086 508.885 484.817 509.286C484.549 509.689 484.187 510.016 483.72 510.276C483.267 510.53 482.776 510.675 482.256 510.705C481.211 510.765 480.372 510.474 479.733 509.835C479.1 509.19 478.771 508.279 478.738 507.104L478.735 506.889C478.715 506.163 478.838 505.508 479.095 504.928C479.36 504.345 479.736 503.885 480.242 503.542C480.75 503.199 481.349 503.01 482.049 502.969C482.913 502.918 483.63 503.129 484.21 503.597C484.799 504.063 485.122 504.695 485.181 505.493L483.939 505.565C483.885 505.086 483.689 504.7 483.341 504.412C482.991 504.122 482.577 503.986 482.076 504.017C481.409 504.056 480.902 504.318 480.544 504.808C480.187 505.296 480.026 505.978 480.048 506.862L480.054 507.103C480.074 507.964 480.279 508.612 480.653 509.056C481.028 509.5 481.557 509.701 482.232 509.662ZM491.199 508.067C491.189 507.722 491.048 507.462 490.769 507.292C490.504 507.112 490.029 506.976 489.359 506.876C488.698 506.774 488.165 506.64 487.768 506.47C487.372 506.301 487.083 506.085 486.885 505.831C486.695 505.574 486.591 505.264 486.586 504.894C486.568 504.283 486.821 503.751 487.337 503.299C487.861 502.844 488.535 502.594 489.367 502.545C490.231 502.497 490.943 502.674 491.495 503.078C492.047 503.485 492.339 504.025 492.355 504.706L491.037 504.781C491.025 504.434 490.863 504.142 490.547 503.907C490.239 503.672 489.855 503.567 489.394 503.592C488.916 503.62 488.541 503.745 488.282 503.961C488.016 504.179 487.884 504.452 487.894 504.778C487.904 505.085 488.031 505.312 488.288 505.453C488.544 505.594 488.997 505.718 489.652 505.823C490.314 505.927 490.849 506.067 491.264 506.24C491.678 506.413 491.98 506.636 492.184 506.905C492.387 507.17 492.493 507.503 492.51 507.9C492.52 508.57 492.266 509.118 491.726 509.556C491.183 509.989 490.48 510.229 489.607 510.279C488.99 510.315 488.442 510.241 487.963 510.057C487.484 509.873 487.109 509.6 486.831 509.238C486.557 508.871 486.412 508.469 486.401 508.027L487.711 507.952C487.748 508.377 487.929 508.708 488.262 508.942C488.6 509.171 489.039 509.269 489.575 509.239C490.076 509.208 490.471 509.089 490.766 508.879C491.059 508.665 491.208 508.393 491.199 508.067Z" fill="white"/>
</g>
<g filter="url(#filter20_dd)">
<path d="M755.594 490.797L685.111 510.21L825.704 598.364L890.611 577.126L755.594 490.797Z" fill="#3FACE4" stroke="#7F7A7A"/>
<path d="M765.977 503.434L713.559 519.419L766.003 553.835L818.613 536.577L765.977 503.434Z" fill="#0F0F0F"/>
<path d="M776.516 511.156L727.516 525.806L759.094 545.328L806.089 530.395L776.516 511.156Z" fill="#CAE621"/>
<path d="M824.139 597.105L686.792 510.707L684.023 511.616L685.054 512.54L721.004 536.056L771.96 568.702C784.102 576.131 810.51 592.429 819.002 598.199C827.494 603.969 826.877 617.148 825.508 623.016L825.087 625.815L826.92 625.294L830.663 623.744L832.155 613.823C833.072 607.718 827.193 600.134 824.139 597.105Z" fill="black"/>
<path d="M700.631 442L644.986 458.05L643 459.588L648.442 460.356C651.598 461.408 658.603 463.972 661.368 465.816C664.823 468.122 671.581 473.752 680.038 481.699C686.804 488.057 696.663 507.944 700.748 517.093L754.923 501.095L753.568 496.488L750.878 489.094L745.915 479.302C743.217 475.198 736.367 465.382 730.549 458.95C724.73 452.517 708.18 444.97 700.631 442Z" fill="#FFF3F3"/>
<path d="M695.963 488.621L755.568 524.046L747.542 554.088L684.117 520.722L695.963 488.621Z" fill="#4D1BB8"/>
<path d="M676.251 518.573C676.648 515.928 681.573 513.003 683.985 511.871L685.704 512.113C729.195 539.291 817.315 594.637 821.866 598.604C827.555 603.563 828.871 612.322 829.348 614.987C829.824 617.652 826.634 625.255 825.259 626.62C824.159 627.711 818.499 626.186 815.808 625.287C771.907 606.018 682.514 566.789 676.145 564.02C669.775 561.251 669.012 553.748 669.427 550.343C671.536 540.855 675.853 521.219 676.251 518.573Z" fill="#3FACE4"/>
<path d="M829.31 603.551C828.108 601.823 826.657 599.8 825.477 598.691L891.614 577.066C892.333 577.71 894.417 579.599 896.997 582.011C899.577 584.424 899.124 592.812 898.576 596.705L853.105 615.593L830.883 623.516C831.002 622.213 831.196 617.302 831.427 614.761C831.717 611.583 830.384 605.095 829.31 603.551Z" fill="black"/>
<path d="M718.484 553.148L721.173 554.575C722.287 555.165 723.015 555.824 723.359 556.552C723.71 557.283 723.649 558.014 723.175 558.744C722.876 559.204 722.464 559.525 721.936 559.709C721.416 559.896 720.834 559.946 720.191 559.86C719.559 559.77 718.929 559.558 718.3 559.224L717.845 558.983L716.297 561.365L713.955 560.123L718.484 553.148ZM719.226 557.821C719.609 558.024 719.954 558.107 720.26 558.07C720.566 558.032 720.811 557.872 720.996 557.588C721.18 557.304 721.213 557.036 721.096 556.783C720.985 556.533 720.735 556.305 720.345 556.098L719.878 555.851L718.772 557.553C718.908 557.644 719.06 557.733 719.226 557.821ZM723.157 565.113C722.521 564.775 722.135 564.344 722 563.818C721.87 563.285 722 562.718 722.391 562.117L723.674 560.14L722.98 559.772L723.796 558.515L724.653 558.969L726.906 557.588L728.001 558.169L726.757 560.085L728.015 560.752L727.199 562.009L725.941 561.342L724.821 563.065C724.712 563.235 724.684 563.397 724.738 563.553C724.793 563.709 724.925 563.842 725.135 563.954C725.33 564.057 725.533 564.111 725.745 564.114L724.91 565.579C724.663 565.585 724.374 565.544 724.04 565.458C723.719 565.37 723.424 565.255 723.157 565.113ZM728.799 561.264L731.087 562.477L730.416 563.512C730.841 563.201 731.256 563.026 731.661 562.986C732.077 562.943 732.477 563.024 732.86 563.227L732.102 565.046C731.415 564.682 730.863 564.484 730.445 564.454C730.039 564.42 729.74 564.552 729.547 564.85L727.835 567.485L725.548 566.272L728.799 561.264ZM733.186 570.433C732.579 570.11 732.109 569.711 731.777 569.235C731.452 568.763 731.283 568.26 731.27 567.726C731.269 567.189 731.434 566.664 731.768 566.15C732.101 565.637 732.529 565.255 733.051 565.005C733.578 564.748 734.146 564.636 734.756 564.669C735.374 564.706 735.986 564.886 736.594 565.207C737.208 565.533 737.678 565.932 738.003 566.405C738.34 566.874 738.511 567.374 738.517 567.904C738.523 568.434 738.358 568.956 738.025 569.47C737.687 569.99 737.255 570.378 736.729 570.635C736.214 570.889 735.645 571.001 735.024 570.971C734.413 570.938 733.801 570.759 733.186 570.433ZM734.195 568.924C734.491 569.081 734.799 569.108 735.119 569.005C735.451 568.899 735.722 568.684 735.932 568.359C736.143 568.035 736.216 567.72 736.153 567.413C736.101 567.104 735.927 566.871 735.63 566.714C735.334 566.556 735.02 566.531 734.689 566.637C734.369 566.74 734.104 566.954 733.894 567.278C733.683 567.602 733.604 567.919 733.655 568.228C733.719 568.534 733.899 568.766 734.195 568.924ZM740.437 567.437L742.617 568.593L741.946 569.627C742.874 569.066 743.793 569.027 744.704 569.51C745.398 569.878 745.789 570.399 745.877 571.072C745.976 571.743 745.76 572.487 745.229 573.305L743.584 575.839L741.306 574.631L743.09 571.884C743.279 571.593 743.355 571.333 743.318 571.105C743.289 570.881 743.155 570.705 742.917 570.578C742.744 570.486 742.538 570.451 742.302 570.471C742.07 570.484 741.836 570.559 741.6 570.698C741.372 570.84 741.176 571.036 741.014 571.287L739.473 573.658L737.186 572.445L740.437 567.437ZM746.486 577.487C745.879 577.165 745.524 576.732 745.421 576.186C745.318 575.641 745.471 575.055 745.879 574.426L747.906 571.304L750.205 572.523L748.237 575.554C748.136 575.71 748.1 575.854 748.13 575.988C748.172 576.119 748.264 576.223 748.409 576.3C748.554 576.376 748.728 576.414 748.933 576.414L748.137 577.886C747.904 577.917 747.637 577.893 747.337 577.816C747.044 577.743 746.761 577.633 746.486 577.487ZM749.55 571.153C749.21 570.973 748.984 570.722 748.873 570.399C748.773 570.073 748.818 569.766 749.006 569.475C749.195 569.184 749.476 569.006 749.849 568.941C750.222 568.875 750.567 568.926 750.886 569.095C751.218 569.271 751.438 569.525 751.545 569.854C751.659 570.187 751.626 570.492 751.446 570.769C751.253 571.067 750.97 571.248 750.597 571.313C750.224 571.379 749.875 571.326 749.55 571.153ZM751.217 579.997C750.638 579.69 750.195 579.309 749.887 578.855C749.591 578.399 749.446 577.904 749.452 577.371C749.465 576.842 749.636 576.324 749.966 575.817C750.281 575.33 750.699 574.957 751.218 574.696C751.737 574.435 752.295 574.309 752.893 574.317C753.49 574.325 754.063 574.474 754.613 574.766C755.314 575.138 755.78 575.566 756.009 576.051L754.927 577.29C754.59 576.957 754.288 576.719 754.02 576.577C753.673 576.393 753.337 576.342 753.011 576.424C752.691 576.499 752.427 576.695 752.221 577.013C752.015 577.331 751.951 577.638 752.031 577.934C752.111 578.231 752.316 578.468 752.649 578.644C752.938 578.798 753.315 578.92 753.78 579.013L753.065 580.541C752.745 580.525 752.442 580.474 752.158 580.387C751.87 580.307 751.556 580.177 751.217 579.997ZM755.529 582.284C754.77 581.881 754.173 581.424 753.738 580.911L754.77 579.837C755.177 580.289 755.626 580.646 756.118 580.906C756.479 581.098 756.721 581.099 756.844 580.91C756.905 580.815 756.901 580.709 756.833 580.591C756.771 580.476 756.611 580.318 756.352 580.118C755.822 579.691 755.507 579.279 755.407 578.88C755.313 578.485 755.42 578.051 755.727 577.578C756.103 577.06 756.596 576.772 757.207 576.714C757.818 576.657 758.492 576.823 759.229 577.215C759.605 577.414 759.911 577.608 760.148 577.798C760.396 577.984 760.6 578.187 760.758 578.407L759.747 579.493C759.586 579.307 759.392 579.127 759.165 578.952C758.945 578.781 758.753 578.652 758.586 578.564C758.341 578.433 758.155 578.366 758.031 578.364C757.906 578.362 757.817 578.401 757.765 578.482C757.668 578.63 757.781 578.831 758.103 579.084C758.69 579.541 759.059 579.991 759.209 580.434C759.359 580.876 759.283 581.331 758.98 581.797C758.633 582.331 758.156 582.647 757.549 582.742C756.954 582.836 756.281 582.683 755.529 582.284Z" fill="white"/>
<g filter="url(#filter21_dd)">
<path d="M790.827 556.035L779.961 560.217L786.624 564.535L796.917 560.271L790.827 556.035Z" fill="#302A2A"/>
<path d="M790.827 556.035L779.961 560.217L786.624 564.535L796.917 560.271L790.827 556.035Z" stroke="black"/>
</g>
<g filter="url(#filter22_dd)">
<path d="M807.022 549.484L796.156 553.667L802.819 557.984L813.112 553.72L807.022 549.484Z" fill="#302A2A"/>
<path d="M807.022 549.484L796.156 553.667L802.819 557.984L813.112 553.72L807.022 549.484Z" stroke="black"/>
</g>
<g filter="url(#filter23_dd)">
<path d="M824.36 543.098L813.494 547.28L820.157 551.597L830.45 547.334L824.36 543.098Z" fill="#302A2A"/>
<path d="M824.36 543.098L813.494 547.28L820.157 551.597L830.45 547.334L824.36 543.098Z" stroke="black"/>
</g>
<g filter="url(#filter24_dd)">
<path d="M806.292 566.016L795.426 570.198L802.089 574.515L812.382 570.252L806.292 566.016Z" fill="#302A2A"/>
<path d="M806.292 566.016L795.426 570.198L802.089 574.515L812.382 570.252L806.292 566.016Z" stroke="black"/>
</g>
<g filter="url(#filter25_dd)">
<path d="M821.913 559.383L811.047 563.565L817.71 567.882L828.003 563.619L821.913 559.383Z" fill="#302A2A"/>
<path d="M821.913 559.383L811.047 563.565L817.71 567.882L828.003 563.619L821.913 559.383Z" stroke="black"/>
</g>
<g filter="url(#filter26_dd)">
<path d="M838.104 552.84L827.238 557.023L833.902 561.339L844.194 557.077L838.104 552.84Z" fill="#302A2A"/>
<path d="M838.104 552.84L827.238 557.023L833.902 561.339L844.194 557.077L838.104 552.84Z" stroke="black"/>
</g>
<g filter="url(#filter27_dd)">
<path d="M820.035 575.746L809.17 579.929L815.833 584.246L826.125 579.983L820.035 575.746Z" fill="#FF0707"/>
<path d="M820.035 575.746L809.17 579.929L815.833 584.246L826.125 579.983L820.035 575.746Z" stroke="black"/>
</g>
<g filter="url(#filter28_dd)">
<path d="M835.735 568.609L824.869 572.792L831.532 577.109L841.825 572.845L835.735 568.609Z" fill="#302A2A"/>
<path d="M835.735 568.609L824.869 572.792L831.532 577.109L841.825 572.845L835.735 568.609Z" stroke="black"/>
</g>
<g filter="url(#filter29_dd)">
<path d="M850.21 561.812L839.344 565.995L846.007 570.312L856.3 566.049L850.21 561.812Z" fill="#21F035"/>
<path d="M850.21 561.812L839.344 565.995L846.007 570.312L856.3 566.049L850.21 561.812Z" stroke="black"/>
</g>
<path d="M735.877 536.335C739.515 536.848 742.944 534.075 743.536 530.141C744.127 526.208 741.657 522.603 738.019 522.089C734.381 521.576 730.952 524.349 730.361 528.283C729.769 532.217 732.239 535.822 735.877 536.335Z" fill="#BA8E38"/>
<path d="M742.446 539.343C746.084 539.856 749.512 537.083 750.104 533.149C750.695 529.215 748.226 525.61 744.587 525.097C740.949 524.584 737.521 527.357 736.929 531.291C736.338 535.225 738.807 538.83 742.446 539.343Z" fill="#E9ED23"/>
</g>
<path d="M1097.94 765.679C1095.34 748.786 1095.34 731.596 1097.94 714.703C1098.11 713.698 1098.62 712.784 1099.4 712.123C1100.17 711.463 1101.16 711.1 1102.18 711.098H1142.05C1142.7 711.096 1143.33 711.241 1143.92 711.523C1144.5 711.805 1145.01 712.215 1145.41 712.724C1145.81 713.239 1146.1 713.841 1146.24 714.483C1146.38 715.125 1146.37 715.79 1146.21 716.428C1142.48 732.051 1142.48 748.331 1146.21 763.954C1146.37 764.592 1146.38 765.257 1146.24 765.899C1146.1 766.541 1145.81 767.143 1145.41 767.658C1145.01 768.167 1144.5 768.577 1143.92 768.859C1143.33 769.141 1142.7 769.286 1142.05 769.284H1102.18C1101.16 769.283 1100.17 768.919 1099.4 768.259C1098.62 767.598 1098.11 766.684 1097.94 765.679V765.679Z" fill="#CCCCCC"/>
<path d="M1130.51 737.008H1109.58C1108.79 737.007 1108.03 736.691 1107.46 736.129C1106.9 735.566 1106.58 734.804 1106.58 734.008V732.836C1106.58 732.041 1106.9 731.278 1107.46 730.716C1108.03 730.153 1108.79 729.837 1109.58 729.836H1130.51C1131.3 729.837 1132.07 730.153 1132.63 730.716C1133.19 731.278 1133.51 732.041 1133.51 732.836V734.008C1133.51 734.804 1133.19 735.566 1132.63 736.129C1132.07 736.691 1131.3 737.007 1130.51 737.008V737.008Z" fill="white"/>
<path d="M1109.65 719.048C1110.84 716.643 1111.08 713.878 1110.32 711.304C1109.57 708.73 1107.87 706.535 1105.57 705.156C1105.1 704.898 1104.62 704.681 1104.11 704.505L1103.29 668.195L1088.79 678.875L1091.79 711.718C1091.26 713.922 1091.44 716.24 1092.32 718.331C1093.2 720.422 1094.72 722.176 1096.67 723.335C1097.8 723.96 1099.04 724.344 1100.32 724.465C1101.59 724.586 1102.88 724.441 1104.1 724.038C1105.32 723.635 1106.45 722.983 1107.4 722.124C1108.36 721.266 1109.12 720.218 1109.65 719.048V719.048Z" fill="#A0616A"/>
<path d="M1103.54 702.925L1093.15 703.552C1092.04 703.579 1090.96 703.189 1090.12 702.457C1089.29 701.726 1088.76 700.707 1088.64 699.604L1080.01 634.657L1066.06 595.04C1064.88 591.74 1065.01 588.114 1066.42 584.905C1067.08 583.359 1068.04 581.964 1069.25 580.804C1070.47 579.644 1071.91 578.745 1073.48 578.161C1079.83 575.852 1086.79 579.508 1088.98 586.31L1103.17 631.731L1107.55 698.064C1107.63 699.266 1107.26 700.457 1106.5 701.391C1106.02 701.979 1105.39 702.427 1104.68 702.689C1104.32 702.823 1103.93 702.902 1103.54 702.925V702.925Z" fill="#3F3D56"/>
<path d="M1042.93 902.547L1030.67 902.546L1024.84 855.258L1042.94 855.259L1042.93 902.547Z" fill="#A0616A"/>
<path d="M1046.06 914.431L1006.53 914.429V913.929C1006.53 911.909 1006.93 909.908 1007.7 908.041C1008.47 906.174 1009.61 904.478 1011.04 903.049C1012.46 901.621 1014.16 900.487 1016.03 899.714C1017.89 898.941 1019.9 898.543 1021.92 898.543H1021.92L1046.06 898.544L1046.06 914.431Z" fill="#2F2E41"/>
<path d="M1078.93 902.547L1066.67 902.546L1060.84 855.258L1078.94 855.259L1078.93 902.547Z" fill="#A0616A"/>
<path d="M1082.06 914.431L1042.53 914.429V913.929C1042.53 911.909 1042.93 909.908 1043.7 908.041C1044.47 906.174 1045.61 904.478 1047.04 903.049C1048.46 901.621 1050.16 900.487 1052.03 899.714C1053.89 898.941 1055.9 898.543 1057.92 898.543H1057.92L1082.06 898.544L1082.06 914.431Z" fill="#2F2E41"/>
<path d="M1087.16 711.441L1084.23 885.135C1084.22 885.685 1084.1 886.228 1083.87 886.728C1083.64 887.229 1083.31 887.677 1082.91 888.044C1082.5 888.412 1082.02 888.691 1081.49 888.864C1080.97 889.038 1080.42 889.101 1079.87 889.051L1065.52 887.747C1064.58 887.662 1063.7 887.246 1063.04 886.573C1062.38 885.901 1061.97 885.015 1061.9 884.073L1053.5 775.728C1053.48 775.473 1053.36 775.236 1053.18 775.064C1052.99 774.893 1052.74 774.8 1052.48 774.805C1052.23 774.81 1051.98 774.913 1051.8 775.091C1051.62 775.27 1051.51 775.512 1051.5 775.767L1047.31 886.593C1047.27 887.627 1046.83 888.605 1046.08 889.323C1045.34 890.04 1044.34 890.441 1043.31 890.441H1027.92C1026.9 890.441 1025.92 890.053 1025.18 889.355C1024.44 888.657 1023.99 887.702 1023.93 886.685L1013.16 710.441L1077.16 694.441L1087.16 711.441Z" fill="#2F2E41"/>
<path d="M1040.74 548.345C1054.3 548.345 1065.3 537.348 1065.3 523.784C1065.3 510.219 1054.3 499.223 1040.74 499.223C1027.17 499.223 1016.18 510.219 1016.18 523.784C1016.18 537.348 1027.17 548.345 1040.74 548.345Z" fill="#A0616A"/>
<path d="M1010.97 716.608C1010.54 716.197 1010.2 715.706 1009.97 715.162C1009.73 714.619 1009.61 714.035 1009.6 713.443L1007.95 595.001C1007.85 588.976 1009.66 583.074 1013.12 578.144C1016.59 573.213 1021.53 569.508 1027.23 567.559C1029.53 557.12 1041.78 555.812 1048.92 555.969C1050.7 556.007 1052.44 556.474 1054.01 557.331C1055.57 558.188 1056.9 559.41 1057.89 560.891L1063.01 568.568L1074.29 575.18C1079.51 578.228 1083.63 582.854 1086.05 588.393C1088.47 593.931 1089.07 600.096 1087.76 605.997L1086.03 613.896C1079.91 641.856 1080.49 670.865 1087.72 698.556L1091.22 711.881C1091.4 712.575 1091.41 713.302 1091.26 714.002C1091.1 714.702 1090.78 715.355 1090.32 715.906C1089.86 716.457 1089.28 716.889 1088.61 717.168C1087.95 717.447 1087.24 717.564 1086.52 717.509L1082.46 717.196C1081.41 717.116 1080.42 716.668 1079.66 715.929C1078.9 715.191 1078.43 714.21 1078.33 713.158L1077.66 706.441C1077.65 706.318 1077.59 706.203 1077.5 706.12C1077.4 706.037 1077.28 705.991 1077.16 705.991C1077.04 705.991 1076.92 706.037 1076.82 706.12C1076.73 706.203 1076.67 706.318 1076.66 706.441L1076.01 712.944C1075.9 714.043 1075.39 715.063 1074.58 715.81C1073.77 716.557 1072.71 716.979 1071.6 716.996L1014.17 717.88C1014.15 717.88 1014.13 717.881 1014.1 717.881C1012.93 717.883 1011.81 717.426 1010.97 716.608V716.608Z" fill="#3F3D56"/>
<path d="M1042.66 537.942C1042.76 541.414 1045.17 543.423 1048.13 545.241C1051.09 547.06 1054.55 547.849 1057.94 548.609C1058.39 548.851 1058.9 548.971 1059.42 548.959C1059.94 548.946 1060.44 548.801 1060.88 548.537C1061.32 548.273 1061.69 547.9 1061.95 547.453C1062.2 547.006 1062.34 546.5 1062.34 545.985L1065.45 534.161C1066.55 530.385 1067.35 526.527 1067.85 522.624C1068.59 515.115 1066.82 507.037 1061.57 501.608C1056.33 496.179 1047.24 494.25 1040.96 498.433C1033.51 488.913 999.439 509.946 1007.84 516.566C1009.34 517.744 1011.62 516.254 1013.52 516.109C1015.42 515.965 1017.55 516.298 1018.75 517.771C1020.33 519.696 1019.64 522.562 1020.29 524.962C1020.56 525.807 1020.99 526.59 1021.56 527.266C1022.14 527.943 1022.84 528.499 1023.63 528.903C1024.41 529.308 1025.28 529.552 1026.16 529.622C1027.04 529.691 1027.93 529.586 1028.77 529.311C1030.34 528.537 1031.82 527.588 1033.17 526.482C1034.63 525.512 1036.47 524.796 1038.11 525.407C1040.27 526.214 1041.03 528.858 1041.23 531.155C1041.56 533.446 1042.04 535.713 1042.66 537.942Z" fill="#2F2E41"/>
<path opacity="0.2" d="M1036.92 603.766L1032.92 652.766L1011.92 703.766L1042.92 653.766L1036.92 603.766Z" fill="black"/>
<path d="M1007.01 722.759C1008.16 721.839 1009.09 720.678 1009.74 719.359C1010.39 718.04 1010.74 716.595 1010.77 715.125C1010.8 713.655 1010.51 712.197 1009.92 710.852C1009.32 709.508 1008.44 708.31 1007.33 707.343L1020.71 674.207L1002.51 677.883L992.595 708.786C991.094 710.754 990.367 713.204 990.552 715.672C990.737 718.14 991.821 720.455 993.598 722.177C995.375 723.9 997.723 724.91 1000.2 725.018C1002.67 725.125 1005.09 724.321 1007.01 722.759V722.759Z" fill="#A0616A"/>
<path d="M1006.62 708.143L996.319 704.429C995.257 704.041 994.38 703.269 993.859 702.266C993.338 701.263 993.211 700.101 993.504 699.01L1010.5 636.79L1013.09 580.558C1013.17 578.86 1013.59 577.196 1014.31 575.66C1015.04 574.124 1016.07 572.749 1017.33 571.613C1018.59 570.477 1020.07 569.604 1021.67 569.044C1023.28 568.484 1024.98 568.249 1026.67 568.352C1028.37 568.454 1030.03 568.893 1031.55 569.643C1033.08 570.393 1034.44 571.438 1035.56 572.718C1036.67 573.998 1037.52 575.488 1038.06 577.1C1038.6 578.712 1038.81 580.415 1038.68 582.109L1034.05 643.682L1012.39 705.401C1012.07 706.333 1011.44 707.132 1010.61 707.674C1009.79 708.216 1008.8 708.471 1007.82 708.4C1007.41 708.369 1007.01 708.282 1006.62 708.143V708.143Z" fill="#3F3D56"/>
<path d="M1122 915.648H952C951.735 915.648 951.48 915.543 951.293 915.356C951.105 915.168 951 914.914 951 914.648C951 914.383 951.105 914.129 951.293 913.941C951.48 913.754 951.735 913.648 952 913.648H1122C1122.27 913.648 1122.52 913.754 1122.71 913.941C1122.89 914.129 1123 914.383 1123 914.648C1123 914.914 1122.89 915.168 1122.71 915.356C1122.52 915.543 1122.27 915.648 1122 915.648Z" fill="#CCCCCC"/>
</g>
<defs>
<filter id="filter0_d" x="262" y="222" width="944" height="600" filterUnits="userSpaceOnUse" color-interpolation-filters="sRGB">
<feFlood flood-opacity="0" result="BackgroundImageFix"/>
<feColorMatrix in="SourceAlpha" type="matrix" values="0 0 0 0 0 0 0 0 0 0 0 0 0 0 0 0 0 0 127 0"/>
<feOffset dx="10" dy="10"/>
<feGaussianBlur stdDeviation="10"/>
<feColorMatrix type="matrix" values="0 0 0 0 0 0 0 0 0 0 0 0 0 0 0 0 0 0 0.25 0"/>
<feBlend mode="normal" in2="BackgroundImageFix" result="effect1_dropShadow"/>
<feBlend mode="normal" in="SourceGraphic" in2="effect1_dropShadow" result="shape"/>
</filter>
<filter id="filter1_dd" x="403.088" y="558.438" width="164.724" height="162.467" filterUnits="userSpaceOnUse" color-interpolation-filters="sRGB">
<feFlood flood-opacity="0" result="BackgroundImageFix"/>
<feColorMatrix in="SourceAlpha" type="matrix" values="0 0 0 0 0 0 0 0 0 0 0 0 0 0 0 0 0 0 127 0"/>
<feOffset dx="10" dy="10"/>
<feGaussianBlur stdDeviation="10"/>
<feColorMatrix type="matrix" values="0 0 0 0 0 0 0 0 0 0 0 0 0 0 0 0 0 0 0.25 0"/>
<feBlend mode="normal" in2="BackgroundImageFix" result="effect1_dropShadow"/>
<feColorMatrix in="SourceAlpha" type="matrix" values="0 0 0 0 0 0 0 0 0 0 0 0 0 0 0 0 0 0 127 0"/>
<feOffset dx="20" dy="20"/>
<feGaussianBlur stdDeviation="20"/>
<feColorMatrix type="matrix" values="0 0 0 0 0 0 0 0 0 0 0 0 0 0 0 0 0 0 0.25 0"/>
<feBlend mode="normal" in2="effect1_dropShadow" result="effect2_dropShadow"/>
<feBlend mode="normal" in="SourceGraphic" in2="effect2_dropShadow" result="shape"/>
</filter>
<filter id="filter2_dd" x="413.797" y="417.879" width="215.934" height="242.095" filterUnits="userSpaceOnUse" color-interpolation-filters="sRGB">
<feFlood flood-opacity="0" result="BackgroundImageFix"/>
<feColorMatrix in="SourceAlpha" type="matrix" values="0 0 0 0 0 0 0 0 0 0 0 0 0 0 0 0 0 0 127 0"/>
<feOffset dx="10" dy="10"/>
<feGaussianBlur stdDeviation="10"/>
<feColorMatrix type="matrix" values="0 0 0 0 0 0 0 0 0 0 0 0 0 0 0 0 0 0 0.25 0"/>
<feBlend mode="normal" in2="BackgroundImageFix" result="effect1_dropShadow"/>
<feColorMatrix in="SourceAlpha" type="matrix" values="0 0 0 0 0 0 0 0 0 0 0 0 0 0 0 0 0 0 127 0"/>
<feOffset dx="20" dy="20"/>
<feGaussianBlur stdDeviation="20"/>
<feColorMatrix type="matrix" values="0 0 0 0 0 0 0 0 0 0 0 0 0 0 0 0 0 0 0.25 0"/>
<feBlend mode="normal" in2="effect1_dropShadow" result="effect2_dropShadow"/>
<feBlend mode="normal" in="SourceGraphic" in2="effect2_dropShadow" result="shape"/>
</filter>
<filter id="filter3_dd" x="340.512" y="424.551" width="215.118" height="242.043" filterUnits="userSpaceOnUse" color-interpolation-filters="sRGB">
<feFlood flood-opacity="0" result="BackgroundImageFix"/>
<feColorMatrix in="SourceAlpha" type="matrix" values="0 0 0 0 0 0 0 0 0 0 0 0 0 0 0 0 0 0 127 0"/>
<feOffset dx="10" dy="10"/>
<feGaussianBlur stdDeviation="10"/>
<feColorMatrix type="matrix" values="0 0 0 0 0 0 0 0 0 0 0 0 0 0 0 0 0 0 0.25 0"/>
<feBlend mode="normal" in2="BackgroundImageFix" result="effect1_dropShadow"/>
<feColorMatrix in="SourceAlpha" type="matrix" values="0 0 0 0 0 0 0 0 0 0 0 0 0 0 0 0 0 0 127 0"/>
<feOffset dx="20" dy="20"/>
<feGaussianBlur stdDeviation="20"/>
<feColorMatrix type="matrix" values="0 0 0 0 0 0 0 0 0 0 0 0 0 0 0 0 0 0 0.25 0"/>
<feBlend mode="normal" in2="effect1_dropShadow" result="effect2_dropShadow"/>
<feBlend mode="normal" in="SourceGraphic" in2="effect2_dropShadow" result="shape"/>
</filter>
<filter id="filter4_dd" x="342.418" y="392.406" width="285.602" height="299.403" filterUnits="userSpaceOnUse" color-interpolation-filters="sRGB">
<feFlood flood-opacity="0" result="BackgroundImageFix"/>
<feColorMatrix in="SourceAlpha" type="matrix" values="0 0 0 0 0 0 0 0 0 0 0 0 0 0 0 0 0 0 127 0"/>
<feOffset dx="10" dy="10"/>
<feGaussianBlur stdDeviation="10"/>
<feColorMatrix type="matrix" values="0 0 0 0 0 0 0 0 0 0 0 0 0 0 0 0 0 0 0.25 0"/>
<feBlend mode="normal" in2="BackgroundImageFix" result="effect1_dropShadow"/>
<feColorMatrix in="SourceAlpha" type="matrix" values="0 0 0 0 0 0 0 0 0 0 0 0 0 0 0 0 0 0 127 0"/>
<feOffset dx="20" dy="20"/>
<feGaussianBlur stdDeviation="20"/>
<feColorMatrix type="matrix" values="0 0 0 0 0 0 0 0 0 0 0 0 0 0 0 0 0 0 0.25 0"/>
<feBlend mode="normal" in2="effect1_dropShadow" result="effect2_dropShadow"/>
<feBlend mode="normal" in="SourceGraphic" in2="effect2_dropShadow" result="shape"/>
</filter>
<filter id="filter5_dd" x="390.83" y="433.91" width="189.268" height="186.046" filterUnits="userSpaceOnUse" color-interpolation-filters="sRGB">
<feFlood flood-opacity="0" result="BackgroundImageFix"/>
<feColorMatrix in="SourceAlpha" type="matrix" values="0 0 0 0 0 0 0 0 0 0 0 0 0 0 0 0 0 0 127 0"/>
<feOffset dx="10" dy="10"/>
<feGaussianBlur stdDeviation="10"/>
<feColorMatrix type="matrix" values="0 0 0 0 0 0 0 0 0 0 0 0 0 0 0 0 0 0 0.25 0"/>
<feBlend mode="normal" in2="BackgroundImageFix" result="effect1_dropShadow"/>
<feColorMatrix in="SourceAlpha" type="matrix" values="0 0 0 0 0 0 0 0 0 0 0 0 0 0 0 0 0 0 127 0"/>
<feOffset dx="20" dy="20"/>
<feGaussianBlur stdDeviation="20"/>
<feColorMatrix type="matrix" values="0 0 0 0 0 0 0 0 0 0 0 0 0 0 0 0 0 0 0.25 0"/>
<feBlend mode="normal" in2="effect1_dropShadow" result="effect2_dropShadow"/>
<feBlend mode="normal" in="SourceGraphic" in2="effect2_dropShadow" result="shape"/>
</filter>
<filter id="filter6_dd" x="397.977" y="440.902" width="175" height="170.637" filterUnits="userSpaceOnUse" color-interpolation-filters="sRGB">
<feFlood flood-opacity="0" result="BackgroundImageFix"/>
<feColorMatrix in="SourceAlpha" type="matrix" values="0 0 0 0 0 0 0 0 0 0 0 0 0 0 0 0 0 0 127 0"/>
<feOffset dx="10" dy="10"/>
<feGaussianBlur stdDeviation="10"/>
<feColorMatrix type="matrix" values="0 0 0 0 0 0 0 0 0 0 0 0 0 0 0 0 0 0 0.25 0"/>
<feBlend mode="normal" in2="BackgroundImageFix" result="effect1_dropShadow"/>
<feColorMatrix in="SourceAlpha" type="matrix" values="0 0 0 0 0 0 0 0 0 0 0 0 0 0 0 0 0 0 127 0"/>
<feOffset dx="20" dy="20"/>
<feGaussianBlur stdDeviation="20"/>
<feColorMatrix type="matrix" values="0 0 0 0 0 0 0 0 0 0 0 0 0 0 0 0 0 0 0.25 0"/>
<feBlend mode="normal" in2="effect1_dropShadow" result="effect2_dropShadow"/>
<feBlend mode="normal" in="SourceGraphic" in2="effect2_dropShadow" result="shape"/>
</filter>
<filter id="filter7_dd" x="413.059" y="519.715" width="99.036" height="97.4758" filterUnits="userSpaceOnUse" color-interpolation-filters="sRGB">
<feFlood flood-opacity="0" result="BackgroundImageFix"/>
<feColorMatrix in="SourceAlpha" type="matrix" values="0 0 0 0 0 0 0 0 0 0 0 0 0 0 0 0 0 0 127 0"/>
<feOffset dx="10" dy="10"/>
<feGaussianBlur stdDeviation="10"/>
<feColorMatrix type="matrix" values="0 0 0 0 0 0 0 0 0 0 0 0 0 0 0 0 0 0 0.25 0"/>
<feBlend mode="normal" in2="BackgroundImageFix" result="effect1_dropShadow"/>
<feColorMatrix in="SourceAlpha" type="matrix" values="0 0 0 0 0 0 0 0 0 0 0 0 0 0 0 0 0 0 127 0"/>
<feOffset dx="20" dy="20"/>
<feGaussianBlur stdDeviation="20"/>
<feColorMatrix type="matrix" values="0 0 0 0 0 0 0 0 0 0 0 0 0 0 0 0 0 0 0.25 0"/>
<feBlend mode="normal" in2="effect1_dropShadow" result="effect2_dropShadow"/>
<feBlend mode="normal" in="SourceGraphic" in2="effect2_dropShadow" result="shape"/>
</filter>
<filter id="filter8_dd" x="413.139" y="532.504" width="99.0357" height="97.4752" filterUnits="userSpaceOnUse" color-interpolation-filters="sRGB">
<feFlood flood-opacity="0" result="BackgroundImageFix"/>
<feColorMatrix in="SourceAlpha" type="matrix" values="0 0 0 0 0 0 0 0 0 0 0 0 0 0 0 0 0 0 127 0"/>
<feOffset dx="10" dy="10"/>
<feGaussianBlur stdDeviation="10"/>
<feColorMatrix type="matrix" values="0 0 0 0 0 0 0 0 0 0 0 0 0 0 0 0 0 0 0.25 0"/>
<feBlend mode="normal" in2="BackgroundImageFix" result="effect1_dropShadow"/>
<feColorMatrix in="SourceAlpha" type="matrix" values="0 0 0 0 0 0 0 0 0 0 0 0 0 0 0 0 0 0 127 0"/>
<feOffset dx="20" dy="20"/>
<feGaussianBlur stdDeviation="20"/>
<feColorMatrix type="matrix" values="0 0 0 0 0 0 0 0 0 0 0 0 0 0 0 0 0 0 0.25 0"/>
<feBlend mode="normal" in2="effect1_dropShadow" result="effect2_dropShadow"/>
<feBlend mode="normal" in="SourceGraphic" in2="effect2_dropShadow" result="shape"/>
</filter>
<filter id="filter9_dd" x="413.207" y="545.293" width="99.0358" height="97.4753" filterUnits="userSpaceOnUse" color-interpolation-filters="sRGB">
<feFlood flood-opacity="0" result="BackgroundImageFix"/>
<feColorMatrix in="SourceAlpha" type="matrix" values="0 0 0 0 0 0 0 0 0 0 0 0 0 0 0 0 0 0 127 0"/>
<feOffset dx="10" dy="10"/>
<feGaussianBlur stdDeviation="10"/>
<feColorMatrix type="matrix" values="0 0 0 0 0 0 0 0 0 0 0 0 0 0 0 0 0 0 0.25 0"/>
<feBlend mode="normal" in2="BackgroundImageFix" result="effect1_dropShadow"/>
<feColorMatrix in="SourceAlpha" type="matrix" values="0 0 0 0 0 0 0 0 0 0 0 0 0 0 0 0 0 0 127 0"/>
<feOffset dx="20" dy="20"/>
<feGaussianBlur stdDeviation="20"/>
<feColorMatrix type="matrix" values="0 0 0 0 0 0 0 0 0 0 0 0 0 0 0 0 0 0 0.25 0"/>
<feBlend mode="normal" in2="effect1_dropShadow" result="effect2_dropShadow"/>
<feBlend mode="normal" in="SourceGraphic" in2="effect2_dropShadow" result="shape"/>
</filter>
<filter id="filter10_dd" x="413.293" y="558.078" width="99.0357" height="97.4753" filterUnits="userSpaceOnUse" color-interpolation-filters="sRGB">
<feFlood flood-opacity="0" result="BackgroundImageFix"/>
<feColorMatrix in="SourceAlpha" type="matrix" values="0 0 0 0 0 0 0 0 0 0 0 0 0 0 0 0 0 0 127 0"/>
<feOffset dx="10" dy="10"/>
<feGaussianBlur stdDeviation="10"/>
<feColorMatrix type="matrix" values="0 0 0 0 0 0 0 0 0 0 0 0 0 0 0 0 0 0 0.25 0"/>
<feBlend mode="normal" in2="BackgroundImageFix" result="effect1_dropShadow"/>
<feColorMatrix in="SourceAlpha" type="matrix" values="0 0 0 0 0 0 0 0 0 0 0 0 0 0 0 0 0 0 127 0"/>
<feOffset dx="20" dy="20"/>
<feGaussianBlur stdDeviation="20"/>
<feColorMatrix type="matrix" values="0 0 0 0 0 0 0 0 0 0 0 0 0 0 0 0 0 0 0.25 0"/>
<feBlend mode="normal" in2="effect1_dropShadow" result="effect2_dropShadow"/>
<feBlend mode="normal" in="SourceGraphic" in2="effect2_dropShadow" result="shape"/>
</filter>
<filter id="filter11_dd" x="435.145" y="557.25" width="99.0359" height="97.4756" filterUnits="userSpaceOnUse" color-interpolation-filters="sRGB">
<feFlood flood-opacity="0" result="BackgroundImageFix"/>
<feColorMatrix in="SourceAlpha" type="matrix" values="0 0 0 0 0 0 0 0 0 0 0 0 0 0 0 0 0 0 127 0"/>
<feOffset dx="10" dy="10"/>
<feGaussianBlur stdDeviation="10"/>
<feColorMatrix type="matrix" values="0 0 0 0 0 0 0 0 0 0 0 0 0 0 0 0 0 0 0.25 0"/>
<feBlend mode="normal" in2="BackgroundImageFix" result="effect1_dropShadow"/>
<feColorMatrix in="SourceAlpha" type="matrix" values="0 0 0 0 0 0 0 0 0 0 0 0 0 0 0 0 0 0 127 0"/>
<feOffset dx="20" dy="20"/>
<feGaussianBlur stdDeviation="20"/>
<feColorMatrix type="matrix" values="0 0 0 0 0 0 0 0 0 0 0 0 0 0 0 0 0 0 0.25 0"/>
<feBlend mode="normal" in2="effect1_dropShadow" result="effect2_dropShadow"/>
<feBlend mode="normal" in="SourceGraphic" in2="effect2_dropShadow" result="shape"/>
</filter>
<filter id="filter12_dd" x="458.484" y="556.367" width="99.0357" height="97.4752" filterUnits="userSpaceOnUse" color-interpolation-filters="sRGB">
<feFlood flood-opacity="0" result="BackgroundImageFix"/>
<feColorMatrix in="SourceAlpha" type="matrix" values="0 0 0 0 0 0 0 0 0 0 0 0 0 0 0 0 0 0 127 0"/>
<feOffset dx="10" dy="10"/>
<feGaussianBlur stdDeviation="10"/>
<feColorMatrix type="matrix" values="0 0 0 0 0 0 0 0 0 0 0 0 0 0 0 0 0 0 0.25 0"/>
<feBlend mode="normal" in2="BackgroundImageFix" result="effect1_dropShadow"/>
<feColorMatrix in="SourceAlpha" type="matrix" values="0 0 0 0 0 0 0 0 0 0 0 0 0 0 0 0 0 0 127 0"/>
<feOffset dx="20" dy="20"/>
<feGaussianBlur stdDeviation="20"/>
<feColorMatrix type="matrix" values="0 0 0 0 0 0 0 0 0 0 0 0 0 0 0 0 0 0 0.25 0"/>
<feBlend mode="normal" in2="effect1_dropShadow" result="effect2_dropShadow"/>
<feBlend mode="normal" in="SourceGraphic" in2="effect2_dropShadow" result="shape"/>
</filter>
<filter id="filter13_dd" x="435.086" y="544.457" width="99.0359" height="97.4756" filterUnits="userSpaceOnUse" color-interpolation-filters="sRGB">
<feFlood flood-opacity="0" result="BackgroundImageFix"/>
<feColorMatrix in="SourceAlpha" type="matrix" values="0 0 0 0 0 0 0 0 0 0 0 0 0 0 0 0 0 0 127 0"/>
<feOffset dx="10" dy="10"/>
<feGaussianBlur stdDeviation="10"/>
<feColorMatrix type="matrix" values="0 0 0 0 0 0 0 0 0 0 0 0 0 0 0 0 0 0 0.25 0"/>
<feBlend mode="normal" in2="BackgroundImageFix" result="effect1_dropShadow"/>
<feColorMatrix in="SourceAlpha" type="matrix" values="0 0 0 0 0 0 0 0 0 0 0 0 0 0 0 0 0 0 127 0"/>
<feOffset dx="20" dy="20"/>
<feGaussianBlur stdDeviation="20"/>
<feColorMatrix type="matrix" values="0 0 0 0 0 0 0 0 0 0 0 0 0 0 0 0 0 0 0.25 0"/>
<feBlend mode="normal" in2="effect1_dropShadow" result="effect2_dropShadow"/>
<feBlend mode="normal" in="SourceGraphic" in2="effect2_dropShadow" result="shape"/>
</filter>
<filter id="filter14_dd" x="458.424" y="543.578" width="99.0356" height="97.4752" filterUnits="userSpaceOnUse" color-interpolation-filters="sRGB">
<feFlood flood-opacity="0" result="BackgroundImageFix"/>
<feColorMatrix in="SourceAlpha" type="matrix" values="0 0 0 0 0 0 0 0 0 0 0 0 0 0 0 0 0 0 127 0"/>
<feOffset dx="10" dy="10"/>
<feGaussianBlur stdDeviation="10"/>
<feColorMatrix type="matrix" values="0 0 0 0 0 0 0 0 0 0 0 0 0 0 0 0 0 0 0.25 0"/>
<feBlend mode="normal" in2="BackgroundImageFix" result="effect1_dropShadow"/>
<feColorMatrix in="SourceAlpha" type="matrix" values="0 0 0 0 0 0 0 0 0 0 0 0 0 0 0 0 0 0 127 0"/>
<feOffset dx="20" dy="20"/>
<feGaussianBlur stdDeviation="20"/>
<feColorMatrix type="matrix" values="0 0 0 0 0 0 0 0 0 0 0 0 0 0 0 0 0 0 0.25 0"/>
<feBlend mode="normal" in2="effect1_dropShadow" result="effect2_dropShadow"/>
<feBlend mode="normal" in="SourceGraphic" in2="effect2_dropShadow" result="shape"/>
</filter>
<filter id="filter15_dd" x="435.016" y="531.672" width="99.0357" height="97.4752" filterUnits="userSpaceOnUse" color-interpolation-filters="sRGB">
<feFlood flood-opacity="0" result="BackgroundImageFix"/>
<feColorMatrix in="SourceAlpha" type="matrix" values="0 0 0 0 0 0 0 0 0 0 0 0 0 0 0 0 0 0 127 0"/>
<feOffset dx="10" dy="10"/>
<feGaussianBlur stdDeviation="10"/>
<feColorMatrix type="matrix" values="0 0 0 0 0 0 0 0 0 0 0 0 0 0 0 0 0 0 0.25 0"/>
<feBlend mode="normal" in2="BackgroundImageFix" result="effect1_dropShadow"/>
<feColorMatrix in="SourceAlpha" type="matrix" values="0 0 0 0 0 0 0 0 0 0 0 0 0 0 0 0 0 0 127 0"/>
<feOffset dx="20" dy="20"/>
<feGaussianBlur stdDeviation="20"/>
<feColorMatrix type="matrix" values="0 0 0 0 0 0 0 0 0 0 0 0 0 0 0 0 0 0 0.25 0"/>
<feBlend mode="normal" in2="effect1_dropShadow" result="effect2_dropShadow"/>
<feBlend mode="normal" in="SourceGraphic" in2="effect2_dropShadow" result="shape"/>
</filter>
<filter id="filter16_dd" x="458.342" y="530.781" width="99.0357" height="97.4753" filterUnits="userSpaceOnUse" color-interpolation-filters="sRGB">
<feFlood flood-opacity="0" result="BackgroundImageFix"/>
<feColorMatrix in="SourceAlpha" type="matrix" values="0 0 0 0 0 0 0 0 0 0 0 0 0 0 0 0 0 0 127 0"/>
<feOffset dx="10" dy="10"/>
<feGaussianBlur stdDeviation="10"/>
<feColorMatrix type="matrix" values="0 0 0 0 0 0 0 0 0 0 0 0 0 0 0 0 0 0 0.25 0"/>
<feBlend mode="normal" in2="BackgroundImageFix" result="effect1_dropShadow"/>
<feColorMatrix in="SourceAlpha" type="matrix" values="0 0 0 0 0 0 0 0 0 0 0 0 0 0 0 0 0 0 127 0"/>
<feOffset dx="20" dy="20"/>
<feGaussianBlur stdDeviation="20"/>
<feColorMatrix type="matrix" values="0 0 0 0 0 0 0 0 0 0 0 0 0 0 0 0 0 0 0.25 0"/>
<feBlend mode="normal" in2="effect1_dropShadow" result="effect2_dropShadow"/>
<feBlend mode="normal" in="SourceGraphic" in2="effect2_dropShadow" result="shape"/>
</filter>
<filter id="filter17_dd" x="434.943" y="518.879" width="99.0359" height="97.4756" filterUnits="userSpaceOnUse" color-interpolation-filters="sRGB">
<feFlood flood-opacity="0" result="BackgroundImageFix"/>
<feColorMatrix in="SourceAlpha" type="matrix" values="0 0 0 0 0 0 0 0 0 0 0 0 0 0 0 0 0 0 127 0"/>
<feOffset dx="10" dy="10"/>
<feGaussianBlur stdDeviation="10"/>
<feColorMatrix type="matrix" values="0 0 0 0 0 0 0 0 0 0 0 0 0 0 0 0 0 0 0.25 0"/>
<feBlend mode="normal" in2="BackgroundImageFix" result="effect1_dropShadow"/>
<feColorMatrix in="SourceAlpha" type="matrix" values="0 0 0 0 0 0 0 0 0 0 0 0 0 0 0 0 0 0 127 0"/>
<feOffset dx="20" dy="20"/>
<feGaussianBlur stdDeviation="20"/>
<feColorMatrix type="matrix" values="0 0 0 0 0 0 0 0 0 0 0 0 0 0 0 0 0 0 0.25 0"/>
<feBlend mode="normal" in2="effect1_dropShadow" result="effect2_dropShadow"/>
<feBlend mode="normal" in="SourceGraphic" in2="effect2_dropShadow" result="shape"/>
</filter>
<filter id="filter18_dd" x="458.279" y="518" width="99.0361" height="97.4755" filterUnits="userSpaceOnUse" color-interpolation-filters="sRGB">
<feFlood flood-opacity="0" result="BackgroundImageFix"/>
<feColorMatrix in="SourceAlpha" type="matrix" values="0 0 0 0 0 0 0 0 0 0 0 0 0 0 0 0 0 0 127 0"/>
<feOffset dx="10" dy="10"/>
<feGaussianBlur stdDeviation="10"/>
<feColorMatrix type="matrix" values="0 0 0 0 0 0 0 0 0 0 0 0 0 0 0 0 0 0 0.25 0"/>
<feBlend mode="normal" in2="BackgroundImageFix" result="effect1_dropShadow"/>
<feColorMatrix in="SourceAlpha" type="matrix" values="0 0 0 0 0 0 0 0 0 0 0 0 0 0 0 0 0 0 127 0"/>
<feOffset dx="20" dy="20"/>
<feGaussianBlur stdDeviation="20"/>
<feColorMatrix type="matrix" values="0 0 0 0 0 0 0 0 0 0 0 0 0 0 0 0 0 0 0.25 0"/>
<feBlend mode="normal" in2="effect1_dropShadow" result="effect2_dropShadow"/>
<feBlend mode="normal" in="SourceGraphic" in2="effect2_dropShadow" result="shape"/>
</filter>
<filter id="filter19_dd" x="416.537" y="461.746" width="137.911" height="129.697" filterUnits="userSpaceOnUse" color-interpolation-filters="sRGB">
<feFlood flood-opacity="0" result="BackgroundImageFix"/>
<feColorMatrix in="SourceAlpha" type="matrix" values="0 0 0 0 0 0 0 0 0 0 0 0 0 0 0 0 0 0 127 0"/>
<feOffset dx="10" dy="10"/>
<feGaussianBlur stdDeviation="10"/>
<feColorMatrix type="matrix" values="0 0 0 0 0 0 0 0 0 0 0 0 0 0 0 0 0 0 0.25 0"/>
<feBlend mode="normal" in2="BackgroundImageFix" result="effect1_dropShadow"/>
<feColorMatrix in="SourceAlpha" type="matrix" values="0 0 0 0 0 0 0 0 0 0 0 0 0 0 0 0 0 0 127 0"/>
<feOffset dx="20" dy="20"/>
<feGaussianBlur stdDeviation="20"/>
<feColorMatrix type="matrix" values="0 0 0 0 0 0 0 0 0 0 0 0 0 0 0 0 0 0 0.25 0"/>
<feBlend mode="normal" in2="effect1_dropShadow" result="effect2_dropShadow"/>
<feBlend mode="normal" in="SourceGraphic" in2="effect2_dropShadow" result="shape"/>
</filter>
<filter id="filter20_dd" x="639" y="442" width="290" height="214.998" filterUnits="userSpaceOnUse" color-interpolation-filters="sRGB">
<feFlood flood-opacity="0" result="BackgroundImageFix"/>
<feColorMatrix in="SourceAlpha" type="matrix" values="0 0 0 0 0 0 0 0 0 0 0 0 0 0 0 0 0 0 127 0"/>
<feOffset dy="4"/>
<feGaussianBlur stdDeviation="2"/>
<feColorMatrix type="matrix" values="0 0 0 0 0 0 0 0 0 0 0 0 0 0 0 0 0 0 0.25 0"/>
<feBlend mode="normal" in2="BackgroundImageFix" result="effect1_dropShadow"/>
<feColorMatrix in="SourceAlpha" type="matrix" values="0 0 0 0 0 0 0 0 0 0 0 0 0 0 0 0 0 0 127 0"/>
<feOffset dx="20" dy="20"/>
<feGaussianBlur stdDeviation="5"/>
<feColorMatrix type="matrix" values="0 0 0 0 0 0 0 0 0 0 0 0 0 0 0 0 0 0 0.25 0"/>
<feBlend mode="normal" in2="effect1_dropShadow" result="effect2_dropShadow"/>
<feBlend mode="normal" in="SourceGraphic" in2="effect2_dropShadow" result="shape"/>
</filter>
<filter id="filter21_dd" x="774.865" y="555.473" width="63.0881" height="49.6238" filterUnits="userSpaceOnUse" color-interpolation-filters="sRGB">
<feFlood flood-opacity="0" result="BackgroundImageFix"/>
<feColorMatrix in="SourceAlpha" type="matrix" values="0 0 0 0 0 0 0 0 0 0 0 0 0 0 0 0 0 0 127 0"/>
<feOffset dy="4"/>
<feGaussianBlur stdDeviation="2"/>
<feColorMatrix type="matrix" values="0 0 0 0 0 0 0 0 0 0 0 0 0 0 0 0 0 0 0.25 0"/>
<feBlend mode="normal" in2="BackgroundImageFix" result="effect1_dropShadow"/>
<feColorMatrix in="SourceAlpha" type="matrix" values="0 0 0 0 0 0 0 0 0 0 0 0 0 0 0 0 0 0 127 0"/>
<feOffset dx="20" dy="20"/>
<feGaussianBlur stdDeviation="10"/>
<feColorMatrix type="matrix" values="0 0 0 0 0 0 0 0 0 0 0 0 0 0 0 0 0 0 0.25 0"/>
<feBlend mode="normal" in2="effect1_dropShadow" result="effect2_dropShadow"/>
<feBlend mode="normal" in="SourceGraphic" in2="effect2_dropShadow" result="shape"/>
</filter>
<filter id="filter22_dd" x="791.061" y="548.922" width="63.0881" height="49.6238" filterUnits="userSpaceOnUse" color-interpolation-filters="sRGB">
<feFlood flood-opacity="0" result="BackgroundImageFix"/>
<feColorMatrix in="SourceAlpha" type="matrix" values="0 0 0 0 0 0 0 0 0 0 0 0 0 0 0 0 0 0 127 0"/>
<feOffset dy="4"/>
<feGaussianBlur stdDeviation="2"/>
<feColorMatrix type="matrix" values="0 0 0 0 0 0 0 0 0 0 0 0 0 0 0 0 0 0 0.25 0"/>
<feBlend mode="normal" in2="BackgroundImageFix" result="effect1_dropShadow"/>
<feColorMatrix in="SourceAlpha" type="matrix" values="0 0 0 0 0 0 0 0 0 0 0 0 0 0 0 0 0 0 127 0"/>
<feOffset dx="20" dy="20"/>
<feGaussianBlur stdDeviation="10"/>
<feColorMatrix type="matrix" values="0 0 0 0 0 0 0 0 0 0 0 0 0 0 0 0 0 0 0.25 0"/>
<feBlend mode="normal" in2="effect1_dropShadow" result="effect2_dropShadow"/>
<feBlend mode="normal" in="SourceGraphic" in2="effect2_dropShadow" result="shape"/>
</filter>
<filter id="filter23_dd" x="808.398" y="542.535" width="63.0881" height="49.6238" filterUnits="userSpaceOnUse" color-interpolation-filters="sRGB">
<feFlood flood-opacity="0" result="BackgroundImageFix"/>
<feColorMatrix in="SourceAlpha" type="matrix" values="0 0 0 0 0 0 0 0 0 0 0 0 0 0 0 0 0 0 127 0"/>
<feOffset dy="4"/>
<feGaussianBlur stdDeviation="2"/>
<feColorMatrix type="matrix" values="0 0 0 0 0 0 0 0 0 0 0 0 0 0 0 0 0 0 0.25 0"/>
<feBlend mode="normal" in2="BackgroundImageFix" result="effect1_dropShadow"/>
<feColorMatrix in="SourceAlpha" type="matrix" values="0 0 0 0 0 0 0 0 0 0 0 0 0 0 0 0 0 0 127 0"/>
<feOffset dx="20" dy="20"/>
<feGaussianBlur stdDeviation="10"/>
<feColorMatrix type="matrix" values="0 0 0 0 0 0 0 0 0 0 0 0 0 0 0 0 0 0 0.25 0"/>
<feBlend mode="normal" in2="effect1_dropShadow" result="effect2_dropShadow"/>
<feBlend mode="normal" in="SourceGraphic" in2="effect2_dropShadow" result="shape"/>
</filter>
<filter id="filter24_dd" x="790.33" y="565.453" width="63.0881" height="49.6238" filterUnits="userSpaceOnUse" color-interpolation-filters="sRGB">
<feFlood flood-opacity="0" result="BackgroundImageFix"/>
<feColorMatrix in="SourceAlpha" type="matrix" values="0 0 0 0 0 0 0 0 0 0 0 0 0 0 0 0 0 0 127 0"/>
<feOffset dy="4"/>
<feGaussianBlur stdDeviation="2"/>
<feColorMatrix type="matrix" values="0 0 0 0 0 0 0 0 0 0 0 0 0 0 0 0 0 0 0.25 0"/>
<feBlend mode="normal" in2="BackgroundImageFix" result="effect1_dropShadow"/>
<feColorMatrix in="SourceAlpha" type="matrix" values="0 0 0 0 0 0 0 0 0 0 0 0 0 0 0 0 0 0 127 0"/>
<feOffset dx="20" dy="20"/>
<feGaussianBlur stdDeviation="10"/>
<feColorMatrix type="matrix" values="0 0 0 0 0 0 0 0 0 0 0 0 0 0 0 0 0 0 0.25 0"/>
<feBlend mode="normal" in2="effect1_dropShadow" result="effect2_dropShadow"/>
<feBlend mode="normal" in="SourceGraphic" in2="effect2_dropShadow" result="shape"/>
</filter>
<filter id="filter25_dd" x="805.951" y="558.82" width="63.0881" height="49.6238" filterUnits="userSpaceOnUse" color-interpolation-filters="sRGB">
<feFlood flood-opacity="0" result="BackgroundImageFix"/>
<feColorMatrix in="SourceAlpha" type="matrix" values="0 0 0 0 0 0 0 0 0 0 0 0 0 0 0 0 0 0 127 0"/>
<feOffset dy="4"/>
<feGaussianBlur stdDeviation="2"/>
<feColorMatrix type="matrix" values="0 0 0 0 0 0 0 0 0 0 0 0 0 0 0 0 0 0 0.25 0"/>
<feBlend mode="normal" in2="BackgroundImageFix" result="effect1_dropShadow"/>
<feColorMatrix in="SourceAlpha" type="matrix" values="0 0 0 0 0 0 0 0 0 0 0 0 0 0 0 0 0 0 127 0"/>
<feOffset dx="20" dy="20"/>
<feGaussianBlur stdDeviation="10"/>
<feColorMatrix type="matrix" values="0 0 0 0 0 0 0 0 0 0 0 0 0 0 0 0 0 0 0.25 0"/>
<feBlend mode="normal" in2="effect1_dropShadow" result="effect2_dropShadow"/>
<feBlend mode="normal" in="SourceGraphic" in2="effect2_dropShadow" result="shape"/>
</filter>
<filter id="filter26_dd" x="822.143" y="552.277" width="63.0881" height="49.6238" filterUnits="userSpaceOnUse" color-interpolation-filters="sRGB">
<feFlood flood-opacity="0" result="BackgroundImageFix"/>
<feColorMatrix in="SourceAlpha" type="matrix" values="0 0 0 0 0 0 0 0 0 0 0 0 0 0 0 0 0 0 127 0"/>
<feOffset dy="4"/>
<feGaussianBlur stdDeviation="2"/>
<feColorMatrix type="matrix" values="0 0 0 0 0 0 0 0 0 0 0 0 0 0 0 0 0 0 0.25 0"/>
<feBlend mode="normal" in2="BackgroundImageFix" result="effect1_dropShadow"/>
<feColorMatrix in="SourceAlpha" type="matrix" values="0 0 0 0 0 0 0 0 0 0 0 0 0 0 0 0 0 0 127 0"/>
<feOffset dx="20" dy="20"/>
<feGaussianBlur stdDeviation="10"/>
<feColorMatrix type="matrix" values="0 0 0 0 0 0 0 0 0 0 0 0 0 0 0 0 0 0 0.25 0"/>
<feBlend mode="normal" in2="effect1_dropShadow" result="effect2_dropShadow"/>
<feBlend mode="normal" in="SourceGraphic" in2="effect2_dropShadow" result="shape"/>
</filter>
<filter id="filter27_dd" x="804.074" y="575.184" width="63.0875" height="49.6238" filterUnits="userSpaceOnUse" color-interpolation-filters="sRGB">
<feFlood flood-opacity="0" result="BackgroundImageFix"/>
<feColorMatrix in="SourceAlpha" type="matrix" values="0 0 0 0 0 0 0 0 0 0 0 0 0 0 0 0 0 0 127 0"/>
<feOffset dy="4"/>
<feGaussianBlur stdDeviation="2"/>
<feColorMatrix type="matrix" values="0 0 0 0 0 0 0 0 0 0 0 0 0 0 0 0 0 0 0.25 0"/>
<feBlend mode="normal" in2="BackgroundImageFix" result="effect1_dropShadow"/>
<feColorMatrix in="SourceAlpha" type="matrix" values="0 0 0 0 0 0 0 0 0 0 0 0 0 0 0 0 0 0 127 0"/>
<feOffset dx="20" dy="20"/>
<feGaussianBlur stdDeviation="10"/>
<feColorMatrix type="matrix" values="0 0 0 0 0 0 0 0 0 0 0 0 0 0 0 0 0 0 0.25 0"/>
<feBlend mode="normal" in2="effect1_dropShadow" result="effect2_dropShadow"/>
<feBlend mode="normal" in="SourceGraphic" in2="effect2_dropShadow" result="shape"/>
</filter>
<filter id="filter28_dd" x="819.773" y="568.047" width="63.0881" height="49.6238" filterUnits="userSpaceOnUse" color-interpolation-filters="sRGB">
<feFlood flood-opacity="0" result="BackgroundImageFix"/>
<feColorMatrix in="SourceAlpha" type="matrix" values="0 0 0 0 0 0 0 0 0 0 0 0 0 0 0 0 0 0 127 0"/>
<feOffset dy="4"/>
<feGaussianBlur stdDeviation="2"/>
<feColorMatrix type="matrix" values="0 0 0 0 0 0 0 0 0 0 0 0 0 0 0 0 0 0 0.25 0"/>
<feBlend mode="normal" in2="BackgroundImageFix" result="effect1_dropShadow"/>
<feColorMatrix in="SourceAlpha" type="matrix" values="0 0 0 0 0 0 0 0 0 0 0 0 0 0 0 0 0 0 127 0"/>
<feOffset dx="20" dy="20"/>
<feGaussianBlur stdDeviation="10"/>
<feColorMatrix type="matrix" values="0 0 0 0 0 0 0 0 0 0 0 0 0 0 0 0 0 0 0.25 0"/>
<feBlend mode="normal" in2="effect1_dropShadow" result="effect2_dropShadow"/>
<feBlend mode="normal" in="SourceGraphic" in2="effect2_dropShadow" result="shape"/>
</filter>
<filter id="filter29_dd" x="834.248" y="561.25" width="63.0881" height="49.6238" filterUnits="userSpaceOnUse" color-interpolation-filters="sRGB">
<feFlood flood-opacity="0" result="BackgroundImageFix"/>
<feColorMatrix in="SourceAlpha" type="matrix" values="0 0 0 0 0 0 0 0 0 0 0 0 0 0 0 0 0 0 127 0"/>
<feOffset dy="4"/>
<feGaussianBlur stdDeviation="2"/>
<feColorMatrix type="matrix" values="0 0 0 0 0 0 0 0 0 0 0 0 0 0 0 0 0 0 0.25 0"/>
<feBlend mode="normal" in2="BackgroundImageFix" result="effect1_dropShadow"/>
<feColorMatrix in="SourceAlpha" type="matrix" values="0 0 0 0 0 0 0 0 0 0 0 0 0 0 0 0 0 0 127 0"/>
<feOffset dx="20" dy="20"/>
<feGaussianBlur stdDeviation="10"/>
<feColorMatrix type="matrix" values="0 0 0 0 0 0 0 0 0 0 0 0 0 0 0 0 0 0 0.25 0"/>
<feBlend mode="normal" in2="effect1_dropShadow" result="effect2_dropShadow"/>
<feBlend mode="normal" in="SourceGraphic" in2="effect2_dropShadow" result="shape"/>
</filter>
<clipPath id="clip0">
<rect width="1440" height="1024" fill="white"/>
</clipPath>
</defs>
</svg>
