<svg width="141" height="115" viewBox="0 0 141 115" fill="none" xmlns="http://www.w3.org/2000/svg">
<g filter="url(#filter0_d)">
<path d="M54.3697 27.782L22.9845 37.198L85.5297 80.5833L114.434 70.2652L54.3697 27.782Z" fill="#22AFC2" stroke="#7F7A7A"/>
<path d="M58.9865 33.9869L35.6444 41.7484L58.9749 58.6825L82.4027 50.2981L58.9865 33.9869Z" fill="#0F0F0F"/>
<path d="M63.6741 37.7844L41.8543 44.8958L55.9025 54.504L76.8299 47.2513L63.6741 37.7844Z" fill="#CAE621"/>
<path d="M84.8344 79.9615L23.7333 37.4414L22.5002 37.8827L22.9587 38.3372L38.9512 49.9083L61.6196 65.9738C67.0215 69.6299 78.7696 77.6518 82.5472 80.4905C86.3248 83.3293 86.0442 89.786 85.4317 92.6595L85.2431 94.03L86.0594 93.7773L87.7263 93.0228L88.395 88.1637C88.8065 85.1735 86.1927 81.4497 84.8344 79.9615Z" fill="black"/>
<path d="M29.9193 3.79491L5.14065 11.5835L4.25575 12.3346L6.67787 12.7181C8.08264 13.2376 11.1996 14.5035 12.4294 15.4111C13.9666 16.5457 16.9725 19.3132 20.7335 23.2187C23.7424 26.3431 28.1223 36.1008 29.9361 40.5892L54.0602 32.8242L53.4593 30.5648L52.265 26.9384L50.0605 22.1336C48.8615 20.119 45.8167 15.3 43.2295 12.1405C40.6423 8.98103 33.278 5.26033 29.9193 3.79491Z" fill="#FFF3F3"/>
<path d="M27.8247 26.6329L54.3421 44.0716L50.7549 58.7804L22.5363 42.3453L27.8247 26.6329Z" fill="#4D1BB8"/>
<path d="M19.0303 41.2814C19.2087 39.9856 21.4022 38.5592 22.4767 38.0079L23.2416 38.129C42.5896 51.5045 81.7915 78.7429 83.8157 80.693C86.346 83.1305 86.9275 87.4237 87.1385 88.7302C87.3495 90.0367 85.9256 93.7577 85.3128 94.4245C84.8226 94.958 82.304 94.2027 81.106 93.7584C61.5722 84.2576 21.7961 64.9146 18.962 63.5492C16.1279 62.1838 15.7916 58.5066 15.9777 56.8387C16.921 52.1928 18.852 42.5771 19.0303 41.2814Z" fill="#22AFC2"/>
<path d="M87.1264 83.1276C86.5919 82.2791 85.947 81.2858 85.4219 80.7409L114.874 70.2353C115.194 70.5514 116.121 71.4799 117.268 72.6655C118.416 73.8511 118.21 77.9607 117.964 79.8673L97.713 89.0602L87.8172 92.9123C87.8707 92.2737 87.9593 89.8681 88.0636 88.6228C88.1939 87.0663 87.6038 83.8854 87.1264 83.1276Z" fill="black"/>
<g filter="url(#filter1_dd)">
<path d="M70.0204 59.7924L65.1814 61.827L68.1455 63.9513L72.7295 61.8764L70.0204 59.7924Z" fill="#302A2A"/>
<path d="M70.0204 59.7924L65.1814 61.827L68.1455 63.9513L72.7295 61.8764L70.0204 59.7924Z" stroke="black"/>
</g>
<g filter="url(#filter2_dd)">
<path d="M77.2313 56.6069L72.3923 58.6414L75.3564 60.7657L79.9405 58.6909L77.2313 56.6069Z" fill="#302A2A"/>
<path d="M77.2313 56.6069L72.3923 58.6414L75.3564 60.7657L79.9405 58.6909L77.2313 56.6069Z" stroke="black"/>
</g>
<g filter="url(#filter3_dd)">
<path d="M84.9579 53.5034L80.1189 55.5379L83.083 57.6622L87.667 55.5873L84.9579 53.5034Z" fill="#302A2A"/>
<path d="M84.9579 53.5034L80.1189 55.5379L83.083 57.6622L87.667 55.5873L84.9579 53.5034Z" stroke="black"/>
</g>
<g filter="url(#filter4_dd)">
<path d="M76.8993 64.7026L72.0603 66.7371L75.0244 68.8614L79.6084 66.7866L76.8993 64.7026Z" fill="#302A2A"/>
<path d="M76.8993 64.7026L72.0603 66.7371L75.0244 68.8614L79.6084 66.7866L76.8993 64.7026Z" stroke="black"/>
</g>
<g filter="url(#filter5_dd)">
<path d="M83.8641 61.476L79.0252 63.5105L81.9893 65.6349L86.5733 63.56L83.8641 61.476Z" fill="#302A2A"/>
<path d="M83.8641 61.476L79.0252 63.5105L81.9893 65.6349L86.5733 63.56L83.8641 61.476Z" stroke="black"/>
</g>
<g filter="url(#filter6_dd)">
<path d="M91.0712 58.2885L86.2322 60.323L89.1963 62.4474L93.7803 60.3725L91.0712 58.2885Z" fill="#302A2A"/>
<path d="M91.0712 58.2885L86.2322 60.323L89.1963 62.4474L93.7803 60.3725L91.0712 58.2885Z" stroke="black"/>
</g>
<g filter="url(#filter7_dd)">
<path d="M83.0126 69.4897L78.1736 71.5242L81.1377 73.6486L85.7217 71.5737L83.0126 69.4897Z" fill="#FF0707"/>
<path d="M83.0126 69.4897L78.1736 71.5242L81.1377 73.6486L85.7217 71.5737L83.0126 69.4897Z" stroke="black"/>
</g>
<g filter="url(#filter8_dd)">
<path d="M90.0048 66.0131L85.1658 68.0477L88.1299 70.172L92.7139 68.0971L90.0048 66.0131Z" fill="#302A2A"/>
<path d="M90.0048 66.0131L85.1658 68.0477L88.1299 70.172L92.7139 68.0971L90.0048 66.0131Z" stroke="black"/>
</g>
<g filter="url(#filter9_dd)">
<path d="M96.454 62.7065L91.615 64.741L94.5791 66.8654L99.1631 64.7905L96.454 62.7065Z" fill="#21F035"/>
<path d="M96.454 62.7065L91.615 64.741L94.5791 66.8654L99.1631 64.7905L96.454 62.7065Z" stroke="black"/>
</g>
<ellipse rx="2.96857" ry="3.52144" transform="matrix(0.987694 0.156396 -0.136326 0.990664 46.0496 46.5778)" fill="#BA8E38"/>
<ellipse rx="2.96857" ry="3.52144" transform="matrix(0.987694 0.156396 -0.136326 0.990664 48.9676 48.0583)" fill="#E9ED23"/>
</g>
<defs>
<filter id="filter0_d" x="0.253906" y="3.79492" width="121.902" height="98.8131" filterUnits="userSpaceOnUse" color-interpolation-filters="sRGB">
<feFlood flood-opacity="0" result="BackgroundImageFix"/>
<feColorMatrix in="SourceAlpha" type="matrix" values="0 0 0 0 0 0 0 0 0 0 0 0 0 0 0 0 0 0 127 0"/>
<feOffset dy="4"/>
<feGaussianBlur stdDeviation="2"/>
<feColorMatrix type="matrix" values="0 0 0 0 0 0 0 0 0 0 0 0 0 0 0 0 0 0 0.25 0"/>
<feBlend mode="normal" in2="BackgroundImageFix" result="effect1_dropShadow"/>
<feBlend mode="normal" in="SourceGraphic" in2="effect1_dropShadow" result="shape"/>
</filter>
<filter id="filter1_dd" x="60.1641" y="59.2168" width="53.531" height="45.3093" filterUnits="userSpaceOnUse" color-interpolation-filters="sRGB">
<feFlood flood-opacity="0" result="BackgroundImageFix"/>
<feColorMatrix in="SourceAlpha" type="matrix" values="0 0 0 0 0 0 0 0 0 0 0 0 0 0 0 0 0 0 127 0"/>
<feOffset dy="4"/>
<feGaussianBlur stdDeviation="2"/>
<feColorMatrix type="matrix" values="0 0 0 0 0 0 0 0 0 0 0 0 0 0 0 0 0 0 0.25 0"/>
<feBlend mode="normal" in2="BackgroundImageFix" result="effect1_dropShadow"/>
<feColorMatrix in="SourceAlpha" type="matrix" values="0 0 0 0 0 0 0 0 0 0 0 0 0 0 0 0 0 0 127 0"/>
<feOffset dx="20" dy="20"/>
<feGaussianBlur stdDeviation="10"/>
<feColorMatrix type="matrix" values="0 0 0 0 0 0 0 0 0 0 0 0 0 0 0 0 0 0 0.25 0"/>
<feBlend mode="normal" in2="effect1_dropShadow" result="effect2_dropShadow"/>
<feBlend mode="normal" in="SourceGraphic" in2="effect2_dropShadow" result="shape"/>
</filter>
<filter id="filter2_dd" x="67.375" y="56.0312" width="53.531" height="45.3093" filterUnits="userSpaceOnUse" color-interpolation-filters="sRGB">
<feFlood flood-opacity="0" result="BackgroundImageFix"/>
<feColorMatrix in="SourceAlpha" type="matrix" values="0 0 0 0 0 0 0 0 0 0 0 0 0 0 0 0 0 0 127 0"/>
<feOffset dy="4"/>
<feGaussianBlur stdDeviation="2"/>
<feColorMatrix type="matrix" values="0 0 0 0 0 0 0 0 0 0 0 0 0 0 0 0 0 0 0.25 0"/>
<feBlend mode="normal" in2="BackgroundImageFix" result="effect1_dropShadow"/>
<feColorMatrix in="SourceAlpha" type="matrix" values="0 0 0 0 0 0 0 0 0 0 0 0 0 0 0 0 0 0 127 0"/>
<feOffset dx="20" dy="20"/>
<feGaussianBlur stdDeviation="10"/>
<feColorMatrix type="matrix" values="0 0 0 0 0 0 0 0 0 0 0 0 0 0 0 0 0 0 0.25 0"/>
<feBlend mode="normal" in2="effect1_dropShadow" result="effect2_dropShadow"/>
<feBlend mode="normal" in="SourceGraphic" in2="effect2_dropShadow" result="shape"/>
</filter>
<filter id="filter3_dd" x="75.1016" y="52.9277" width="53.531" height="45.3093" filterUnits="userSpaceOnUse" color-interpolation-filters="sRGB">
<feFlood flood-opacity="0" result="BackgroundImageFix"/>
<feColorMatrix in="SourceAlpha" type="matrix" values="0 0 0 0 0 0 0 0 0 0 0 0 0 0 0 0 0 0 127 0"/>
<feOffset dy="4"/>
<feGaussianBlur stdDeviation="2"/>
<feColorMatrix type="matrix" values="0 0 0 0 0 0 0 0 0 0 0 0 0 0 0 0 0 0 0.25 0"/>
<feBlend mode="normal" in2="BackgroundImageFix" result="effect1_dropShadow"/>
<feColorMatrix in="SourceAlpha" type="matrix" values="0 0 0 0 0 0 0 0 0 0 0 0 0 0 0 0 0 0 127 0"/>
<feOffset dx="20" dy="20"/>
<feGaussianBlur stdDeviation="10"/>
<feColorMatrix type="matrix" values="0 0 0 0 0 0 0 0 0 0 0 0 0 0 0 0 0 0 0.25 0"/>
<feBlend mode="normal" in2="effect1_dropShadow" result="effect2_dropShadow"/>
<feBlend mode="normal" in="SourceGraphic" in2="effect2_dropShadow" result="shape"/>
</filter>
<filter id="filter4_dd" x="67.043" y="64.127" width="53.531" height="45.3093" filterUnits="userSpaceOnUse" color-interpolation-filters="sRGB">
<feFlood flood-opacity="0" result="BackgroundImageFix"/>
<feColorMatrix in="SourceAlpha" type="matrix" values="0 0 0 0 0 0 0 0 0 0 0 0 0 0 0 0 0 0 127 0"/>
<feOffset dy="4"/>
<feGaussianBlur stdDeviation="2"/>
<feColorMatrix type="matrix" values="0 0 0 0 0 0 0 0 0 0 0 0 0 0 0 0 0 0 0.25 0"/>
<feBlend mode="normal" in2="BackgroundImageFix" result="effect1_dropShadow"/>
<feColorMatrix in="SourceAlpha" type="matrix" values="0 0 0 0 0 0 0 0 0 0 0 0 0 0 0 0 0 0 127 0"/>
<feOffset dx="20" dy="20"/>
<feGaussianBlur stdDeviation="10"/>
<feColorMatrix type="matrix" values="0 0 0 0 0 0 0 0 0 0 0 0 0 0 0 0 0 0 0.25 0"/>
<feBlend mode="normal" in2="effect1_dropShadow" result="effect2_dropShadow"/>
<feBlend mode="normal" in="SourceGraphic" in2="effect2_dropShadow" result="shape"/>
</filter>
<filter id="filter5_dd" x="74.0078" y="60.9004" width="53.531" height="45.3093" filterUnits="userSpaceOnUse" color-interpolation-filters="sRGB">
<feFlood flood-opacity="0" result="BackgroundImageFix"/>
<feColorMatrix in="SourceAlpha" type="matrix" values="0 0 0 0 0 0 0 0 0 0 0 0 0 0 0 0 0 0 127 0"/>
<feOffset dy="4"/>
<feGaussianBlur stdDeviation="2"/>
<feColorMatrix type="matrix" values="0 0 0 0 0 0 0 0 0 0 0 0 0 0 0 0 0 0 0.25 0"/>
<feBlend mode="normal" in2="BackgroundImageFix" result="effect1_dropShadow"/>
<feColorMatrix in="SourceAlpha" type="matrix" values="0 0 0 0 0 0 0 0 0 0 0 0 0 0 0 0 0 0 127 0"/>
<feOffset dx="20" dy="20"/>
<feGaussianBlur stdDeviation="10"/>
<feColorMatrix type="matrix" values="0 0 0 0 0 0 0 0 0 0 0 0 0 0 0 0 0 0 0.25 0"/>
<feBlend mode="normal" in2="effect1_dropShadow" result="effect2_dropShadow"/>
<feBlend mode="normal" in="SourceGraphic" in2="effect2_dropShadow" result="shape"/>
</filter>
<filter id="filter6_dd" x="81.2148" y="57.7129" width="53.531" height="45.3093" filterUnits="userSpaceOnUse" color-interpolation-filters="sRGB">
<feFlood flood-opacity="0" result="BackgroundImageFix"/>
<feColorMatrix in="SourceAlpha" type="matrix" values="0 0 0 0 0 0 0 0 0 0 0 0 0 0 0 0 0 0 127 0"/>
<feOffset dy="4"/>
<feGaussianBlur stdDeviation="2"/>
<feColorMatrix type="matrix" values="0 0 0 0 0 0 0 0 0 0 0 0 0 0 0 0 0 0 0.25 0"/>
<feBlend mode="normal" in2="BackgroundImageFix" result="effect1_dropShadow"/>
<feColorMatrix in="SourceAlpha" type="matrix" values="0 0 0 0 0 0 0 0 0 0 0 0 0 0 0 0 0 0 127 0"/>
<feOffset dx="20" dy="20"/>
<feGaussianBlur stdDeviation="10"/>
<feColorMatrix type="matrix" values="0 0 0 0 0 0 0 0 0 0 0 0 0 0 0 0 0 0 0.25 0"/>
<feBlend mode="normal" in2="effect1_dropShadow" result="effect2_dropShadow"/>
<feBlend mode="normal" in="SourceGraphic" in2="effect2_dropShadow" result="shape"/>
</filter>
<filter id="filter7_dd" x="73.1562" y="68.9141" width="53.531" height="45.3093" filterUnits="userSpaceOnUse" color-interpolation-filters="sRGB">
<feFlood flood-opacity="0" result="BackgroundImageFix"/>
<feColorMatrix in="SourceAlpha" type="matrix" values="0 0 0 0 0 0 0 0 0 0 0 0 0 0 0 0 0 0 127 0"/>
<feOffset dy="4"/>
<feGaussianBlur stdDeviation="2"/>
<feColorMatrix type="matrix" values="0 0 0 0 0 0 0 0 0 0 0 0 0 0 0 0 0 0 0.25 0"/>
<feBlend mode="normal" in2="BackgroundImageFix" result="effect1_dropShadow"/>
<feColorMatrix in="SourceAlpha" type="matrix" values="0 0 0 0 0 0 0 0 0 0 0 0 0 0 0 0 0 0 127 0"/>
<feOffset dx="20" dy="20"/>
<feGaussianBlur stdDeviation="10"/>
<feColorMatrix type="matrix" values="0 0 0 0 0 0 0 0 0 0 0 0 0 0 0 0 0 0 0.25 0"/>
<feBlend mode="normal" in2="effect1_dropShadow" result="effect2_dropShadow"/>
<feBlend mode="normal" in="SourceGraphic" in2="effect2_dropShadow" result="shape"/>
</filter>
<filter id="filter8_dd" x="80.1484" y="65.4375" width="53.531" height="45.3093" filterUnits="userSpaceOnUse" color-interpolation-filters="sRGB">
<feFlood flood-opacity="0" result="BackgroundImageFix"/>
<feColorMatrix in="SourceAlpha" type="matrix" values="0 0 0 0 0 0 0 0 0 0 0 0 0 0 0 0 0 0 127 0"/>
<feOffset dy="4"/>
<feGaussianBlur stdDeviation="2"/>
<feColorMatrix type="matrix" values="0 0 0 0 0 0 0 0 0 0 0 0 0 0 0 0 0 0 0.25 0"/>
<feBlend mode="normal" in2="BackgroundImageFix" result="effect1_dropShadow"/>
<feColorMatrix in="SourceAlpha" type="matrix" values="0 0 0 0 0 0 0 0 0 0 0 0 0 0 0 0 0 0 127 0"/>
<feOffset dx="20" dy="20"/>
<feGaussianBlur stdDeviation="10"/>
<feColorMatrix type="matrix" values="0 0 0 0 0 0 0 0 0 0 0 0 0 0 0 0 0 0 0.25 0"/>
<feBlend mode="normal" in2="effect1_dropShadow" result="effect2_dropShadow"/>
<feBlend mode="normal" in="SourceGraphic" in2="effect2_dropShadow" result="shape"/>
</filter>
<filter id="filter9_dd" x="86.5977" y="62.1309" width="53.531" height="45.3093" filterUnits="userSpaceOnUse" color-interpolation-filters="sRGB">
<feFlood flood-opacity="0" result="BackgroundImageFix"/>
<feColorMatrix in="SourceAlpha" type="matrix" values="0 0 0 0 0 0 0 0 0 0 0 0 0 0 0 0 0 0 127 0"/>
<feOffset dy="4"/>
<feGaussianBlur stdDeviation="2"/>
<feColorMatrix type="matrix" values="0 0 0 0 0 0 0 0 0 0 0 0 0 0 0 0 0 0 0.25 0"/>
<feBlend mode="normal" in2="BackgroundImageFix" result="effect1_dropShadow"/>
<feColorMatrix in="SourceAlpha" type="matrix" values="0 0 0 0 0 0 0 0 0 0 0 0 0 0 0 0 0 0 127 0"/>
<feOffset dx="20" dy="20"/>
<feGaussianBlur stdDeviation="10"/>
<feColorMatrix type="matrix" values="0 0 0 0 0 0 0 0 0 0 0 0 0 0 0 0 0 0 0.25 0"/>
<feBlend mode="normal" in2="effect1_dropShadow" result="effect2_dropShadow"/>
<feBlend mode="normal" in="SourceGraphic" in2="effect2_dropShadow" result="shape"/>
</filter>
</defs>
</svg>
