<svg width="210" height="265" viewBox="0 0 210 265" fill="none" xmlns="http://www.w3.org/2000/svg">
<path d="M154.526 42.8153L143.961 37.5351L142.844 39.7424L135.604 54.0909L131.706 61.8171L129.196 66.7835L92.5021 48.4424L91.3896 47.8866C91.2962 47.1493 91.2759 45.3436 91.9483 44.0195L102.531 23.0488L108.107 12.012C109.309 11.0019 111.947 9.09386 112.833 9.5382C113.726 9.9831 139.709 23.4307 152.588 30.0988C155.703 30.5498 156.851 35.4534 157.03 37.8483L154.526 42.8153Z" fill="#FFF5F5"/>
<g filter="url(#filter0_dd)">
<path d="M22.3274 183.68L38.479 151.672L75.7831 170.315L59.6249 202.323L22.3274 183.68Z" fill="#1A1717"/>
<path d="M22.3274 183.68L38.479 151.672L75.7831 170.315L59.6249 202.323L22.3274 183.68Z" stroke="black" stroke-opacity="0.2"/>
</g>
<g filter="url(#filter1_dd)">
<path d="M89.9034 173.895C88.9965 175.653 85.2491 175.684 83.4896 175.479L85.4697 171.633L88.5915 165.59L100.775 141.966L123.469 96.6324L144.16 56.5265L145.587 52.3977C145.958 52.5863 147.028 53.4094 148.342 55.1928C149.662 56.9768 148.667 59.9864 148.004 61.2683L89.9034 173.895Z" fill="#B52BAF" fill-opacity="0.6"/>
<path d="M89.9034 173.895C88.9965 175.653 85.2491 175.684 83.4896 175.479L85.4697 171.633L88.5915 165.59L100.775 141.966L123.469 96.6324L144.16 56.5265L145.587 52.3977C145.958 52.5863 147.028 53.4094 148.342 55.1928C149.662 56.9768 148.667 59.9864 148.004 61.2683L89.9034 173.895Z" stroke="#451A67" stroke-opacity="0.2"/>
</g>
<g filter="url(#filter2_dd)">
<path d="M84.1191 28.5761C85.0069 26.8098 88.7506 26.7467 90.5115 26.9358L88.5626 30.7989L85.4975 36.8692L73.5208 60.5992L51.237 106.129L30.8972 146.415L29.5014 150.556C29.1306 150.37 28.0601 149.557 26.7253 147.785C25.3905 146.012 26.3608 142.995 27.0104 141.707L84.1191 28.5761Z" fill="#B52BAF" fill-opacity="0.6"/>
<path d="M84.1191 28.5761C85.0069 26.8098 88.7506 26.7467 90.5115 26.9358L88.5626 30.7989L85.4975 36.8692L73.5208 60.5992L51.237 106.129L30.8972 146.415L29.5014 150.556C29.1306 150.37 28.0601 149.557 26.7253 147.785C25.3905 146.012 26.3608 142.995 27.0104 141.707L84.1191 28.5761Z" stroke="#451A67" stroke-opacity="0.2"/>
</g>
<g filter="url(#filter3_dd)">
<path d="M88.6299 26.833C90.6055 24.0207 96.2977 26.8194 98.8935 28.57L92.604 41.0335C91.732 42.7678 93.3714 45.0353 94.3017 45.9524L128.771 63.1819C130.996 64.2935 132.649 62.4042 133.195 61.3203L139.485 48.8569L144.488 51.3578C146.713 52.4696 146.726 54.7388 146.456 55.7346L141.536 65.4889L136.886 74.7009L117.465 113.175L86.5507 174.407C85.6787 176.141 82.5036 176.907 81.0266 177.075L73.7984 173.461L74.8916 171.294L38.1975 152.953L37.1044 155.12L35.4323 154.287C34.6028 154.097 32.3263 153.275 29.8762 151.508C27.426 149.741 28.8194 145.325 29.8183 143.337L36.3844 130.332C52.9786 97.005 86.6544 29.6453 88.6299 26.833Z" fill="#1E0B31"/>
<path d="M88.6299 26.833C90.6055 24.0207 96.2977 26.8194 98.8935 28.57L92.604 41.0335C91.732 42.7678 93.3714 45.0353 94.3017 45.9524L128.771 63.1819C130.996 64.2935 132.649 62.4042 133.195 61.3203L139.485 48.8569L144.488 51.3578C146.713 52.4696 146.726 54.7388 146.456 55.7346L141.536 65.4889L136.886 74.7009L117.465 113.175L86.5507 174.407C85.6787 176.141 82.5036 176.907 81.0266 177.075L73.7984 173.461L74.8916 171.294L38.1975 152.953L37.1044 155.12L35.4323 154.287C34.6028 154.097 32.3263 153.275 29.8762 151.508C27.426 149.741 28.8194 145.325 29.8183 143.337L36.3844 130.332C52.9786 97.005 86.6544 29.6453 88.6299 26.833Z" stroke="#451A67" stroke-opacity="0.2"/>
</g>
<g filter="url(#filter4_dd)">
<path d="M127.261 79.5121L81.9463 56.8632C80.3342 56.0575 78.3728 56.701 77.5653 58.3005L58.7603 95.5528C57.9529 97.1524 58.6052 99.1022 60.2173 99.9079L105.532 122.557C107.144 123.363 109.106 122.719 109.913 121.12L128.718 83.8672C129.526 82.2677 128.873 80.3178 127.261 79.5121Z" fill="#100F0F" fill-opacity="0.2"/>
</g>
<g filter="url(#filter5_dd)">
<path d="M124.573 83.6936L80.2027 61.5172C79.5579 61.1949 78.7733 61.4523 78.4504 62.0921L62.9053 92.8865C62.5823 93.5263 62.8432 94.3062 63.4881 94.6285L107.858 116.805C108.503 117.127 109.287 116.87 109.61 116.23L125.155 85.4356C125.478 84.7958 125.217 84.0159 124.573 83.6936Z" fill="#1CC7D2"/>
</g>
<g filter="url(#filter6_dd)">
<path d="M65.9643 111.902L57.1793 107.511C56.5345 107.189 55.7499 107.446 55.4269 108.086L53.8107 111.288C53.4878 111.928 53.7487 112.708 54.3935 113.03L63.1786 117.421C63.8234 117.743 64.608 117.486 64.931 116.846L66.5471 113.644C66.8701 113.004 66.6092 112.224 65.9643 111.902Z" fill="#C4C4C4" fill-opacity="0.2"/>
</g>
<g filter="url(#filter7_dd)">
<path d="M60.9565 121.836L52.1715 117.445C51.5266 117.123 50.7421 117.38 50.4191 118.02L48.8029 121.221C48.48 121.861 48.7409 122.641 49.3857 122.963L58.1708 127.354C58.8156 127.677 59.6002 127.419 59.9231 126.779L61.5393 123.578C61.8623 122.938 61.6014 122.158 60.9565 121.836Z" fill="#C4C4C4" fill-opacity="0.2"/>
</g>
<g filter="url(#filter8_dd)">
<path d="M55.9409 131.765L47.1559 127.375C46.511 127.052 45.7265 127.31 45.4035 127.949L43.7873 131.151C43.4643 131.791 43.7252 132.571 44.3701 132.893L53.1551 137.284C53.8 137.606 54.5845 137.349 54.9075 136.709L56.5237 133.507C56.8467 132.868 56.5857 132.088 55.9409 131.765Z" fill="#C4C4C4" fill-opacity="0.2"/>
</g>
<g filter="url(#filter9_dd)">
<path d="M50.937 141.705L42.152 137.314C41.5071 136.992 40.7226 137.249 40.3996 137.889L38.7834 141.091C38.4604 141.73 38.7213 142.51 39.3662 142.833L48.1512 147.223C48.7961 147.546 49.5806 147.288 49.9036 146.649L51.5198 143.447C51.8428 142.807 51.5818 142.027 50.937 141.705Z" fill="#F30808"/>
</g>
<g filter="url(#filter10_dd)">
<path d="M67.6011 150.033L58.816 145.642C58.1712 145.32 57.3866 145.577 57.0636 146.217L55.4475 149.419C55.1245 150.058 55.3854 150.838 56.0302 151.161L64.8153 155.552C65.4601 155.874 66.2447 155.616 66.5677 154.977L68.1838 151.775C68.5068 151.135 68.2459 150.355 67.6011 150.033Z" fill="#C4C4C4" fill-opacity="0.2"/>
</g>
<g filter="url(#filter11_dd)">
<path d="M85.394 158.929L76.609 154.539C75.9641 154.216 75.1796 154.474 74.8566 155.114L73.2404 158.315C72.9175 158.955 73.1784 159.735 73.8232 160.057L82.6083 164.448C83.2531 164.77 84.0377 164.513 84.3606 163.873L85.9768 160.672C86.2998 160.032 86.0389 159.252 85.394 158.929Z" fill="#286214"/>
</g>
<g filter="url(#filter12_dd)">
<path d="M72.6245 140.103L63.8395 135.712C63.1946 135.39 62.4101 135.648 62.0871 136.287L60.4709 139.489C60.1479 140.129 60.4088 140.909 61.0537 141.231L69.8387 145.622C70.4836 145.944 71.2681 145.687 71.5911 145.047L73.2073 141.845C73.5302 141.206 73.2693 140.426 72.6245 140.103Z" fill="#C4C4C4" fill-opacity="0.2"/>
</g>
<g filter="url(#filter13_dd)">
<path d="M90.4175 149L81.6324 144.609C80.9876 144.287 80.203 144.544 79.88 145.184L78.2639 148.385C77.9409 149.025 78.2018 149.805 78.8467 150.127L87.6317 154.518C88.2765 154.841 89.0611 154.583 89.3841 153.943L91.0002 150.742C91.3232 150.102 91.0623 149.322 90.4175 149Z" fill="#C4C4C4" fill-opacity="0.2"/>
</g>
<g filter="url(#filter14_dd)">
<path d="M77.6401 130.172L68.8551 125.781C68.2102 125.459 67.4257 125.716 67.1027 126.356L65.4865 129.557C65.1636 130.197 65.4245 130.977 66.0693 131.299L74.8544 135.69C75.4992 136.013 76.2838 135.755 76.6067 135.115L78.2229 131.914C78.5459 131.274 78.285 130.494 77.6401 130.172Z" fill="#C4C4C4" fill-opacity="0.2"/>
</g>
<g filter="url(#filter15_dd)">
<path d="M95.4253 139.06L86.6402 134.67C85.9954 134.347 85.2108 134.605 84.8879 135.244L83.2717 138.446C82.9487 139.086 83.2096 139.866 83.8545 140.188L92.6395 144.579C93.2843 144.901 94.0689 144.644 94.3919 144.004L96.0081 140.802C96.331 140.163 96.0701 139.383 95.4253 139.06Z" fill="#C4C4C4" fill-opacity="0.2"/>
</g>
<g filter="url(#filter16_dd)">
<path d="M82.6518 120.24L73.8668 115.849C73.222 115.527 72.4374 115.784 72.1144 116.424L70.4982 119.626C70.1753 120.266 70.4362 121.045 71.081 121.368L79.8661 125.759C80.5109 126.081 81.2955 125.823 81.6184 125.184L83.2346 121.982C83.5576 121.342 83.2967 120.562 82.6518 120.24Z" fill="#C4C4C4" fill-opacity="0.2"/>
</g>
<g filter="url(#filter17_dd)">
<path d="M100.445 129.133L91.6598 124.742C91.0149 124.419 90.2304 124.677 89.9074 125.317L88.2912 128.518C87.9682 129.158 88.2292 129.938 88.874 130.26L97.659 134.651C98.3039 134.973 99.0884 134.716 99.4114 134.076L101.028 130.875C101.351 130.235 101.09 129.455 100.445 129.133Z" fill="#C4C4C4" fill-opacity="0.2"/>
</g>
<path d="M30.9201 182.84C32.4554 183.607 34.3237 182.994 35.093 181.47C35.8623 179.946 35.2412 178.089 33.7058 177.321C32.1705 176.554 30.3022 177.167 29.5329 178.691C28.7636 180.215 29.3847 182.072 30.9201 182.84Z" fill="#C4C732"/>
<path d="M32.0372 180.633C33.5726 181.4 35.4409 180.787 36.2102 179.263C36.9795 177.739 36.3584 175.882 34.823 175.114C33.2876 174.347 31.4194 174.96 30.6501 176.484C29.8808 178.008 30.5019 179.865 32.0372 180.633Z" fill="#C78232"/>
<g filter="url(#filter18_dd)">
<path d="M75.4091 81.6473L73.9281 84.7322L72.8753 84.2339L76.6639 76.3549L79.5936 77.7476C80.4689 78.1615 81.0411 78.7046 81.3233 79.3785C81.6055 80.0538 81.572 80.7538 81.2293 81.4791C80.8579 82.2439 80.3357 82.7187 79.6496 82.9039C78.9702 83.0863 78.1801 82.9646 77.2796 82.5374L75.4091 81.6473ZM75.8188 80.7983L77.7021 81.6931C78.2601 81.9593 78.7524 82.0332 79.1789 81.9154C79.6056 81.7944 79.9336 81.486 80.1693 80.992C80.3968 80.5226 80.4264 80.0769 80.2649 79.6534C80.1033 79.2305 79.7597 78.8893 79.2469 78.6314L77.3001 77.7083L75.8188 80.7983ZM84.7203 80.925L84.0372 82.3427L85.1407 82.8664L84.7686 83.6403L83.6651 83.1165L81.9255 86.7477C81.8117 86.9823 81.7723 87.1824 81.8136 87.3478C81.8551 87.51 81.9964 87.6471 82.2375 87.7598C82.3516 87.8154 82.5246 87.8698 82.75 87.9232L82.3558 88.7351C82.0585 88.6808 81.783 88.5942 81.5292 88.4748C81.079 88.2606 80.8044 87.9636 80.6989 87.5833C80.5998 87.2041 80.6747 86.766 80.9107 86.2675L82.6569 82.6368L81.5788 82.1258L81.9509 81.352L83.029 81.863L83.7121 80.4453L84.7203 80.925ZM88.7539 85.685C88.6165 85.587 88.4525 85.4957 88.2749 85.4112C87.6155 85.0961 87.0289 85.1623 86.5216 85.6089L84.5246 89.765L83.5163 89.2853L86.3265 83.4294L87.3094 83.8964L87.0022 84.5807C87.5891 84.2151 88.1805 84.1765 88.7893 84.4655C88.9858 84.559 89.1233 84.6551 89.2018 84.7543L88.7539 85.685ZM88.3628 87.9243C88.6365 87.3512 89.0009 86.8891 89.4429 86.5379C89.8979 86.1888 90.3824 85.9855 90.9095 85.9289C91.4365 85.8736 91.9601 85.9696 92.48 86.217C93.2854 86.5989 93.8026 87.1837 94.0315 87.9707C94.2668 88.76 94.1643 89.6122 93.7239 90.5285L93.6865 90.5992C93.4131 91.1691 93.0554 91.6284 92.6136 91.9771C92.1783 92.3243 91.7003 92.5274 91.1667 92.5842C90.6329 92.6429 90.1029 92.5458 89.5702 92.2936C88.7713 91.9128 88.254 91.3287 88.0187 90.5393C87.7898 89.7524 87.892 88.904 88.3319 87.9955L88.3628 87.9243ZM89.3237 88.5266C89.0123 89.1756 88.9139 89.7689 89.0221 90.3055C89.1433 90.8442 89.4575 91.2346 89.9647 91.4766C90.4784 91.7204 90.9824 91.7153 91.4768 91.4622C91.9714 91.2058 92.3899 90.7182 92.732 90C93.043 89.3581 93.1413 88.7654 93.0205 88.2209C92.9063 87.6755 92.5924 87.2812 92.0851 87.0392C91.5841 86.8021 91.0865 86.8076 90.5925 87.0556C90.0984 87.3036 89.6733 87.794 89.3237 88.5266ZM97.348 88.6624L97.0298 89.414C97.7529 89.066 98.4791 89.0643 99.2084 89.4106C100.458 90.0037 100.751 91.0011 100.089 92.402L98.2286 96.2712L97.2203 95.7914L99.0809 91.9164C99.2792 91.4931 99.3358 91.1347 99.2376 90.8405C99.1458 90.5486 98.8936 90.3062 98.4942 90.1148C98.1644 89.9592 97.8342 89.9092 97.5034 89.9647C97.1726 90.0203 96.8692 90.1554 96.5931 90.3714L94.5885 94.5431L93.5803 94.0634L96.3969 88.2086L97.348 88.6624ZM100.854 97.5165L99.8458 97.0367L102.656 91.1815L103.664 91.6612L100.854 97.5165ZM103.318 89.5894C103.401 89.4272 103.513 89.3135 103.668 89.2481C103.822 89.1847 103.998 89.1997 104.195 89.2932C104.391 89.3868 104.513 89.5135 104.562 89.6736C104.61 89.8342 104.593 89.9951 104.516 90.1577C104.44 90.3198 104.322 90.431 104.167 90.4906C104.013 90.5502 103.837 90.5339 103.641 90.4403C103.444 90.3468 103.322 90.222 103.273 90.0652C103.225 89.9103 103.242 89.7521 103.318 89.5894ZM105.191 98.7043C105.552 98.8757 105.916 98.9163 106.288 98.8279C106.667 98.74 106.942 98.5401 107.126 98.2292L108.084 98.6829C107.905 99.0103 107.632 99.2739 107.272 99.4745C106.912 99.6758 106.512 99.7811 106.06 99.7903C105.621 99.801 105.196 99.7115 104.796 99.5214C103.991 99.1388 103.479 98.5693 103.255 97.8125C103.037 97.0534 103.152 96.2124 103.593 95.289L103.676 95.1216C103.949 94.5511 104.3 94.0946 104.722 93.751C105.151 93.4079 105.615 93.2065 106.129 93.1484C106.644 93.0916 107.167 93.1909 107.706 93.4467C108.372 93.7616 108.825 94.2196 109.073 94.82C109.328 95.4227 109.319 96.0448 109.047 96.6867L108.09 96.2324C108.24 95.8395 108.246 95.4602 108.1 95.0941C107.954 94.7261 107.698 94.451 107.311 94.2695C106.797 94.0258 106.314 94.0205 105.853 94.2533C105.393 94.4841 105.002 94.9464 104.668 95.6392L104.577 95.8287C104.251 96.5033 104.147 97.0897 104.251 97.5872C104.355 98.0846 104.671 98.4569 105.191 98.7043ZM112.525 101.15C112.654 100.879 112.652 100.62 112.511 100.374C112.384 100.125 112.083 99.8248 111.622 99.4731C111.168 99.1226 110.823 98.8001 110.594 98.5049C110.365 98.2115 110.234 97.9261 110.187 97.6476C110.147 97.3708 110.192 97.0881 110.335 96.7997C110.563 96.3194 110.963 96.0107 111.528 95.8724C112.1 95.7359 112.703 95.8191 113.344 96.122C114.009 96.4401 114.471 96.8689 114.723 97.4086C114.975 97.9503 114.979 98.4883 114.721 99.0223L113.706 98.5395C113.835 98.2657 113.829 97.9731 113.686 97.6616C113.549 97.3531 113.304 97.1138 112.949 96.9441C112.581 96.7698 112.251 96.712 111.972 96.773C111.687 96.8329 111.48 96.9907 111.358 97.2468C111.244 97.4886 111.249 97.7163 111.385 97.9308C111.521 98.1453 111.81 98.4277 112.258 98.7779C112.712 99.1303 113.056 99.458 113.298 99.7625C113.539 100.066 113.676 100.363 113.722 100.655C113.769 100.943 113.716 101.245 113.571 101.559C113.313 102.082 112.906 102.402 112.329 102.519C111.752 102.632 111.131 102.529 110.459 102.209C109.983 101.984 109.603 101.702 109.318 101.363C109.033 101.024 108.861 100.658 108.796 100.264C108.737 99.867 108.788 99.496 108.955 99.1496L109.964 99.6293C109.823 99.9736 109.827 100.304 109.983 100.622C110.145 100.938 110.435 101.194 110.847 101.391C111.234 101.573 111.576 101.643 111.88 101.601C112.184 101.556 112.403 101.406 112.525 101.15Z" fill="white"/>
</g>
<defs>
<filter id="filter0_dd" x="0.296875" y="129.818" width="137.52" height="134.36" filterUnits="userSpaceOnUse" color-interpolation-filters="sRGB">
<feFlood flood-opacity="0" result="BackgroundImageFix"/>
<feColorMatrix in="SourceAlpha" type="matrix" values="0 0 0 0 0 0 0 0 0 0 0 0 0 0 0 0 0 0 127 0"/>
<feOffset dx="10" dy="10"/>
<feGaussianBlur stdDeviation="10"/>
<feColorMatrix type="matrix" values="0 0 0 0 0 0 0 0 0 0 0 0 0 0 0 0 0 0 0.25 0"/>
<feBlend mode="normal" in2="BackgroundImageFix" result="effect1_dropShadow"/>
<feColorMatrix in="SourceAlpha" type="matrix" values="0 0 0 0 0 0 0 0 0 0 0 0 0 0 0 0 0 0 127 0"/>
<feOffset dx="20" dy="20"/>
<feGaussianBlur stdDeviation="20"/>
<feColorMatrix type="matrix" values="0 0 0 0 0 0 0 0 0 0 0 0 0 0 0 0 0 0 0.25 0"/>
<feBlend mode="normal" in2="effect1_dropShadow" result="effect2_dropShadow"/>
<feBlend mode="normal" in="SourceGraphic" in2="effect2_dropShadow" result="shape"/>
</filter>
<filter id="filter1_dd" x="62.7109" y="27.2266" width="147.268" height="213.562" filterUnits="userSpaceOnUse" color-interpolation-filters="sRGB">
<feFlood flood-opacity="0" result="BackgroundImageFix"/>
<feColorMatrix in="SourceAlpha" type="matrix" values="0 0 0 0 0 0 0 0 0 0 0 0 0 0 0 0 0 0 127 0"/>
<feOffset dx="10" dy="10"/>
<feGaussianBlur stdDeviation="10"/>
<feColorMatrix type="matrix" values="0 0 0 0 0 0 0 0 0 0 0 0 0 0 0 0 0 0 0.25 0"/>
<feBlend mode="normal" in2="BackgroundImageFix" result="effect1_dropShadow"/>
<feColorMatrix in="SourceAlpha" type="matrix" values="0 0 0 0 0 0 0 0 0 0 0 0 0 0 0 0 0 0 127 0"/>
<feOffset dx="20" dy="20"/>
<feGaussianBlur stdDeviation="20"/>
<feColorMatrix type="matrix" values="0 0 0 0 0 0 0 0 0 0 0 0 0 0 0 0 0 0 0.25 0"/>
<feBlend mode="normal" in2="effect1_dropShadow" result="effect2_dropShadow"/>
<feBlend mode="normal" in="SourceGraphic" in2="effect2_dropShadow" result="shape"/>
</filter>
<filter id="filter2_dd" x="5.06641" y="1.72266" width="146.218" height="213.904" filterUnits="userSpaceOnUse" color-interpolation-filters="sRGB">
<feFlood flood-opacity="0" result="BackgroundImageFix"/>
<feColorMatrix in="SourceAlpha" type="matrix" values="0 0 0 0 0 0 0 0 0 0 0 0 0 0 0 0 0 0 127 0"/>
<feOffset dx="10" dy="10"/>
<feGaussianBlur stdDeviation="10"/>
<feColorMatrix type="matrix" values="0 0 0 0 0 0 0 0 0 0 0 0 0 0 0 0 0 0 0.25 0"/>
<feBlend mode="normal" in2="BackgroundImageFix" result="effect1_dropShadow"/>
<feColorMatrix in="SourceAlpha" type="matrix" values="0 0 0 0 0 0 0 0 0 0 0 0 0 0 0 0 0 0 127 0"/>
<feOffset dx="20" dy="20"/>
<feGaussianBlur stdDeviation="20"/>
<feColorMatrix type="matrix" values="0 0 0 0 0 0 0 0 0 0 0 0 0 0 0 0 0 0 0.25 0"/>
<feBlend mode="normal" in2="effect1_dropShadow" result="effect2_dropShadow"/>
<feBlend mode="normal" in="SourceGraphic" in2="effect2_dropShadow" result="shape"/>
</filter>
<filter id="filter3_dd" x="5.85156" y="0.578125" width="203.377" height="241.793" filterUnits="userSpaceOnUse" color-interpolation-filters="sRGB">
<feFlood flood-opacity="0" result="BackgroundImageFix"/>
<feColorMatrix in="SourceAlpha" type="matrix" values="0 0 0 0 0 0 0 0 0 0 0 0 0 0 0 0 0 0 127 0"/>
<feOffset dx="10" dy="10"/>
<feGaussianBlur stdDeviation="10"/>
<feColorMatrix type="matrix" values="0 0 0 0 0 0 0 0 0 0 0 0 0 0 0 0 0 0 0.25 0"/>
<feBlend mode="normal" in2="BackgroundImageFix" result="effect1_dropShadow"/>
<feColorMatrix in="SourceAlpha" type="matrix" values="0 0 0 0 0 0 0 0 0 0 0 0 0 0 0 0 0 0 127 0"/>
<feOffset dx="20" dy="20"/>
<feGaussianBlur stdDeviation="20"/>
<feColorMatrix type="matrix" values="0 0 0 0 0 0 0 0 0 0 0 0 0 0 0 0 0 0 0.25 0"/>
<feBlend mode="normal" in2="effect1_dropShadow" result="effect2_dropShadow"/>
<feBlend mode="normal" in="SourceGraphic" in2="effect2_dropShadow" result="shape"/>
</filter>
<filter id="filter4_dd" x="38.4141" y="36.5156" width="150.651" height="146.388" filterUnits="userSpaceOnUse" color-interpolation-filters="sRGB">
<feFlood flood-opacity="0" result="BackgroundImageFix"/>
<feColorMatrix in="SourceAlpha" type="matrix" values="0 0 0 0 0 0 0 0 0 0 0 0 0 0 0 0 0 0 127 0"/>
<feOffset dx="10" dy="10"/>
<feGaussianBlur stdDeviation="10"/>
<feColorMatrix type="matrix" values="0 0 0 0 0 0 0 0 0 0 0 0 0 0 0 0 0 0 0.25 0"/>
<feBlend mode="normal" in2="BackgroundImageFix" result="effect1_dropShadow"/>
<feColorMatrix in="SourceAlpha" type="matrix" values="0 0 0 0 0 0 0 0 0 0 0 0 0 0 0 0 0 0 127 0"/>
<feOffset dx="20" dy="20"/>
<feGaussianBlur stdDeviation="20"/>
<feColorMatrix type="matrix" values="0 0 0 0 0 0 0 0 0 0 0 0 0 0 0 0 0 0 0.25 0"/>
<feBlend mode="normal" in2="effect1_dropShadow" result="effect2_dropShadow"/>
<feBlend mode="normal" in="SourceGraphic" in2="effect2_dropShadow" result="shape"/>
</filter>
<filter id="filter5_dd" x="42.7656" y="41.3789" width="142.527" height="135.566" filterUnits="userSpaceOnUse" color-interpolation-filters="sRGB">
<feFlood flood-opacity="0" result="BackgroundImageFix"/>
<feColorMatrix in="SourceAlpha" type="matrix" values="0 0 0 0 0 0 0 0 0 0 0 0 0 0 0 0 0 0 127 0"/>
<feOffset dx="10" dy="10"/>
<feGaussianBlur stdDeviation="10"/>
<feColorMatrix type="matrix" values="0 0 0 0 0 0 0 0 0 0 0 0 0 0 0 0 0 0 0.25 0"/>
<feBlend mode="normal" in2="BackgroundImageFix" result="effect1_dropShadow"/>
<feColorMatrix in="SourceAlpha" type="matrix" values="0 0 0 0 0 0 0 0 0 0 0 0 0 0 0 0 0 0 127 0"/>
<feOffset dx="20" dy="20"/>
<feGaussianBlur stdDeviation="20"/>
<feColorMatrix type="matrix" values="0 0 0 0 0 0 0 0 0 0 0 0 0 0 0 0 0 0 0.25 0"/>
<feBlend mode="normal" in2="effect1_dropShadow" result="effect2_dropShadow"/>
<feBlend mode="normal" in="SourceGraphic" in2="effect2_dropShadow" result="shape"/>
</filter>
<filter id="filter6_dd" x="33.6719" y="87.373" width="93.0135" height="90.1873" filterUnits="userSpaceOnUse" color-interpolation-filters="sRGB">
<feFlood flood-opacity="0" result="BackgroundImageFix"/>
<feColorMatrix in="SourceAlpha" type="matrix" values="0 0 0 0 0 0 0 0 0 0 0 0 0 0 0 0 0 0 127 0"/>
<feOffset dx="10" dy="10"/>
<feGaussianBlur stdDeviation="10"/>
<feColorMatrix type="matrix" values="0 0 0 0 0 0 0 0 0 0 0 0 0 0 0 0 0 0 0.25 0"/>
<feBlend mode="normal" in2="BackgroundImageFix" result="effect1_dropShadow"/>
<feColorMatrix in="SourceAlpha" type="matrix" values="0 0 0 0 0 0 0 0 0 0 0 0 0 0 0 0 0 0 127 0"/>
<feOffset dx="20" dy="20"/>
<feGaussianBlur stdDeviation="20"/>
<feColorMatrix type="matrix" values="0 0 0 0 0 0 0 0 0 0 0 0 0 0 0 0 0 0 0.25 0"/>
<feBlend mode="normal" in2="effect1_dropShadow" result="effect2_dropShadow"/>
<feBlend mode="normal" in="SourceGraphic" in2="effect2_dropShadow" result="shape"/>
</filter>
<filter id="filter7_dd" x="28.6641" y="97.3066" width="93.0135" height="90.1873" filterUnits="userSpaceOnUse" color-interpolation-filters="sRGB">
<feFlood flood-opacity="0" result="BackgroundImageFix"/>
<feColorMatrix in="SourceAlpha" type="matrix" values="0 0 0 0 0 0 0 0 0 0 0 0 0 0 0 0 0 0 127 0"/>
<feOffset dx="10" dy="10"/>
<feGaussianBlur stdDeviation="10"/>
<feColorMatrix type="matrix" values="0 0 0 0 0 0 0 0 0 0 0 0 0 0 0 0 0 0 0.25 0"/>
<feBlend mode="normal" in2="BackgroundImageFix" result="effect1_dropShadow"/>
<feColorMatrix in="SourceAlpha" type="matrix" values="0 0 0 0 0 0 0 0 0 0 0 0 0 0 0 0 0 0 127 0"/>
<feOffset dx="20" dy="20"/>
<feGaussianBlur stdDeviation="20"/>
<feColorMatrix type="matrix" values="0 0 0 0 0 0 0 0 0 0 0 0 0 0 0 0 0 0 0.25 0"/>
<feBlend mode="normal" in2="effect1_dropShadow" result="effect2_dropShadow"/>
<feBlend mode="normal" in="SourceGraphic" in2="effect2_dropShadow" result="shape"/>
</filter>
<filter id="filter8_dd" x="23.6484" y="107.236" width="93.0135" height="90.1873" filterUnits="userSpaceOnUse" color-interpolation-filters="sRGB">
<feFlood flood-opacity="0" result="BackgroundImageFix"/>
<feColorMatrix in="SourceAlpha" type="matrix" values="0 0 0 0 0 0 0 0 0 0 0 0 0 0 0 0 0 0 127 0"/>
<feOffset dx="10" dy="10"/>
<feGaussianBlur stdDeviation="10"/>
<feColorMatrix type="matrix" values="0 0 0 0 0 0 0 0 0 0 0 0 0 0 0 0 0 0 0.25 0"/>
<feBlend mode="normal" in2="BackgroundImageFix" result="effect1_dropShadow"/>
<feColorMatrix in="SourceAlpha" type="matrix" values="0 0 0 0 0 0 0 0 0 0 0 0 0 0 0 0 0 0 127 0"/>
<feOffset dx="20" dy="20"/>
<feGaussianBlur stdDeviation="20"/>
<feColorMatrix type="matrix" values="0 0 0 0 0 0 0 0 0 0 0 0 0 0 0 0 0 0 0.25 0"/>
<feBlend mode="normal" in2="effect1_dropShadow" result="effect2_dropShadow"/>
<feBlend mode="normal" in="SourceGraphic" in2="effect2_dropShadow" result="shape"/>
</filter>
<filter id="filter9_dd" x="18.6445" y="117.176" width="93.0135" height="90.1873" filterUnits="userSpaceOnUse" color-interpolation-filters="sRGB">
<feFlood flood-opacity="0" result="BackgroundImageFix"/>
<feColorMatrix in="SourceAlpha" type="matrix" values="0 0 0 0 0 0 0 0 0 0 0 0 0 0 0 0 0 0 127 0"/>
<feOffset dx="10" dy="10"/>
<feGaussianBlur stdDeviation="10"/>
<feColorMatrix type="matrix" values="0 0 0 0 0 0 0 0 0 0 0 0 0 0 0 0 0 0 0.25 0"/>
<feBlend mode="normal" in2="BackgroundImageFix" result="effect1_dropShadow"/>
<feColorMatrix in="SourceAlpha" type="matrix" values="0 0 0 0 0 0 0 0 0 0 0 0 0 0 0 0 0 0 127 0"/>
<feOffset dx="20" dy="20"/>
<feGaussianBlur stdDeviation="20"/>
<feColorMatrix type="matrix" values="0 0 0 0 0 0 0 0 0 0 0 0 0 0 0 0 0 0 0.25 0"/>
<feBlend mode="normal" in2="effect1_dropShadow" result="effect2_dropShadow"/>
<feBlend mode="normal" in="SourceGraphic" in2="effect2_dropShadow" result="shape"/>
</filter>
<filter id="filter10_dd" x="35.3086" y="125.504" width="93.0135" height="90.1873" filterUnits="userSpaceOnUse" color-interpolation-filters="sRGB">
<feFlood flood-opacity="0" result="BackgroundImageFix"/>
<feColorMatrix in="SourceAlpha" type="matrix" values="0 0 0 0 0 0 0 0 0 0 0 0 0 0 0 0 0 0 127 0"/>
<feOffset dx="10" dy="10"/>
<feGaussianBlur stdDeviation="10"/>
<feColorMatrix type="matrix" values="0 0 0 0 0 0 0 0 0 0 0 0 0 0 0 0 0 0 0.25 0"/>
<feBlend mode="normal" in2="BackgroundImageFix" result="effect1_dropShadow"/>
<feColorMatrix in="SourceAlpha" type="matrix" values="0 0 0 0 0 0 0 0 0 0 0 0 0 0 0 0 0 0 127 0"/>
<feOffset dx="20" dy="20"/>
<feGaussianBlur stdDeviation="20"/>
<feColorMatrix type="matrix" values="0 0 0 0 0 0 0 0 0 0 0 0 0 0 0 0 0 0 0.25 0"/>
<feBlend mode="normal" in2="effect1_dropShadow" result="effect2_dropShadow"/>
<feBlend mode="normal" in="SourceGraphic" in2="effect2_dropShadow" result="shape"/>
</filter>
<filter id="filter11_dd" x="53.1016" y="134.4" width="93.0135" height="90.1873" filterUnits="userSpaceOnUse" color-interpolation-filters="sRGB">
<feFlood flood-opacity="0" result="BackgroundImageFix"/>
<feColorMatrix in="SourceAlpha" type="matrix" values="0 0 0 0 0 0 0 0 0 0 0 0 0 0 0 0 0 0 127 0"/>
<feOffset dx="10" dy="10"/>
<feGaussianBlur stdDeviation="10"/>
<feColorMatrix type="matrix" values="0 0 0 0 0 0 0 0 0 0 0 0 0 0 0 0 0 0 0.25 0"/>
<feBlend mode="normal" in2="BackgroundImageFix" result="effect1_dropShadow"/>
<feColorMatrix in="SourceAlpha" type="matrix" values="0 0 0 0 0 0 0 0 0 0 0 0 0 0 0 0 0 0 127 0"/>
<feOffset dx="20" dy="20"/>
<feGaussianBlur stdDeviation="20"/>
<feColorMatrix type="matrix" values="0 0 0 0 0 0 0 0 0 0 0 0 0 0 0 0 0 0 0.25 0"/>
<feBlend mode="normal" in2="effect1_dropShadow" result="effect2_dropShadow"/>
<feBlend mode="normal" in="SourceGraphic" in2="effect2_dropShadow" result="shape"/>
</filter>
<filter id="filter12_dd" x="40.332" y="115.574" width="93.0135" height="90.1873" filterUnits="userSpaceOnUse" color-interpolation-filters="sRGB">
<feFlood flood-opacity="0" result="BackgroundImageFix"/>
<feColorMatrix in="SourceAlpha" type="matrix" values="0 0 0 0 0 0 0 0 0 0 0 0 0 0 0 0 0 0 127 0"/>
<feOffset dx="10" dy="10"/>
<feGaussianBlur stdDeviation="10"/>
<feColorMatrix type="matrix" values="0 0 0 0 0 0 0 0 0 0 0 0 0 0 0 0 0 0 0.25 0"/>
<feBlend mode="normal" in2="BackgroundImageFix" result="effect1_dropShadow"/>
<feColorMatrix in="SourceAlpha" type="matrix" values="0 0 0 0 0 0 0 0 0 0 0 0 0 0 0 0 0 0 127 0"/>
<feOffset dx="20" dy="20"/>
<feGaussianBlur stdDeviation="20"/>
<feColorMatrix type="matrix" values="0 0 0 0 0 0 0 0 0 0 0 0 0 0 0 0 0 0 0.25 0"/>
<feBlend mode="normal" in2="effect1_dropShadow" result="effect2_dropShadow"/>
<feBlend mode="normal" in="SourceGraphic" in2="effect2_dropShadow" result="shape"/>
</filter>
<filter id="filter13_dd" x="58.125" y="124.471" width="93.0135" height="90.1873" filterUnits="userSpaceOnUse" color-interpolation-filters="sRGB">
<feFlood flood-opacity="0" result="BackgroundImageFix"/>
<feColorMatrix in="SourceAlpha" type="matrix" values="0 0 0 0 0 0 0 0 0 0 0 0 0 0 0 0 0 0 127 0"/>
<feOffset dx="10" dy="10"/>
<feGaussianBlur stdDeviation="10"/>
<feColorMatrix type="matrix" values="0 0 0 0 0 0 0 0 0 0 0 0 0 0 0 0 0 0 0.25 0"/>
<feBlend mode="normal" in2="BackgroundImageFix" result="effect1_dropShadow"/>
<feColorMatrix in="SourceAlpha" type="matrix" values="0 0 0 0 0 0 0 0 0 0 0 0 0 0 0 0 0 0 127 0"/>
<feOffset dx="20" dy="20"/>
<feGaussianBlur stdDeviation="20"/>
<feColorMatrix type="matrix" values="0 0 0 0 0 0 0 0 0 0 0 0 0 0 0 0 0 0 0.25 0"/>
<feBlend mode="normal" in2="effect1_dropShadow" result="effect2_dropShadow"/>
<feBlend mode="normal" in="SourceGraphic" in2="effect2_dropShadow" result="shape"/>
</filter>
<filter id="filter14_dd" x="45.3477" y="105.643" width="93.0135" height="90.1873" filterUnits="userSpaceOnUse" color-interpolation-filters="sRGB">
<feFlood flood-opacity="0" result="BackgroundImageFix"/>
<feColorMatrix in="SourceAlpha" type="matrix" values="0 0 0 0 0 0 0 0 0 0 0 0 0 0 0 0 0 0 127 0"/>
<feOffset dx="10" dy="10"/>
<feGaussianBlur stdDeviation="10"/>
<feColorMatrix type="matrix" values="0 0 0 0 0 0 0 0 0 0 0 0 0 0 0 0 0 0 0.25 0"/>
<feBlend mode="normal" in2="BackgroundImageFix" result="effect1_dropShadow"/>
<feColorMatrix in="SourceAlpha" type="matrix" values="0 0 0 0 0 0 0 0 0 0 0 0 0 0 0 0 0 0 127 0"/>
<feOffset dx="20" dy="20"/>
<feGaussianBlur stdDeviation="20"/>
<feColorMatrix type="matrix" values="0 0 0 0 0 0 0 0 0 0 0 0 0 0 0 0 0 0 0.25 0"/>
<feBlend mode="normal" in2="effect1_dropShadow" result="effect2_dropShadow"/>
<feBlend mode="normal" in="SourceGraphic" in2="effect2_dropShadow" result="shape"/>
</filter>
<filter id="filter15_dd" x="63.1328" y="114.531" width="93.0135" height="90.1873" filterUnits="userSpaceOnUse" color-interpolation-filters="sRGB">
<feFlood flood-opacity="0" result="BackgroundImageFix"/>
<feColorMatrix in="SourceAlpha" type="matrix" values="0 0 0 0 0 0 0 0 0 0 0 0 0 0 0 0 0 0 127 0"/>
<feOffset dx="10" dy="10"/>
<feGaussianBlur stdDeviation="10"/>
<feColorMatrix type="matrix" values="0 0 0 0 0 0 0 0 0 0 0 0 0 0 0 0 0 0 0.25 0"/>
<feBlend mode="normal" in2="BackgroundImageFix" result="effect1_dropShadow"/>
<feColorMatrix in="SourceAlpha" type="matrix" values="0 0 0 0 0 0 0 0 0 0 0 0 0 0 0 0 0 0 127 0"/>
<feOffset dx="20" dy="20"/>
<feGaussianBlur stdDeviation="20"/>
<feColorMatrix type="matrix" values="0 0 0 0 0 0 0 0 0 0 0 0 0 0 0 0 0 0 0.25 0"/>
<feBlend mode="normal" in2="effect1_dropShadow" result="effect2_dropShadow"/>
<feBlend mode="normal" in="SourceGraphic" in2="effect2_dropShadow" result="shape"/>
</filter>
<filter id="filter16_dd" x="50.3594" y="95.7109" width="93.0135" height="90.1873" filterUnits="userSpaceOnUse" color-interpolation-filters="sRGB">
<feFlood flood-opacity="0" result="BackgroundImageFix"/>
<feColorMatrix in="SourceAlpha" type="matrix" values="0 0 0 0 0 0 0 0 0 0 0 0 0 0 0 0 0 0 127 0"/>
<feOffset dx="10" dy="10"/>
<feGaussianBlur stdDeviation="10"/>
<feColorMatrix type="matrix" values="0 0 0 0 0 0 0 0 0 0 0 0 0 0 0 0 0 0 0.25 0"/>
<feBlend mode="normal" in2="BackgroundImageFix" result="effect1_dropShadow"/>
<feColorMatrix in="SourceAlpha" type="matrix" values="0 0 0 0 0 0 0 0 0 0 0 0 0 0 0 0 0 0 127 0"/>
<feOffset dx="20" dy="20"/>
<feGaussianBlur stdDeviation="20"/>
<feColorMatrix type="matrix" values="0 0 0 0 0 0 0 0 0 0 0 0 0 0 0 0 0 0 0.25 0"/>
<feBlend mode="normal" in2="effect1_dropShadow" result="effect2_dropShadow"/>
<feBlend mode="normal" in="SourceGraphic" in2="effect2_dropShadow" result="shape"/>
</filter>
<filter id="filter17_dd" x="68.1523" y="104.604" width="93.0135" height="90.1873" filterUnits="userSpaceOnUse" color-interpolation-filters="sRGB">
<feFlood flood-opacity="0" result="BackgroundImageFix"/>
<feColorMatrix in="SourceAlpha" type="matrix" values="0 0 0 0 0 0 0 0 0 0 0 0 0 0 0 0 0 0 127 0"/>
<feOffset dx="10" dy="10"/>
<feGaussianBlur stdDeviation="10"/>
<feColorMatrix type="matrix" values="0 0 0 0 0 0 0 0 0 0 0 0 0 0 0 0 0 0 0.25 0"/>
<feBlend mode="normal" in2="BackgroundImageFix" result="effect1_dropShadow"/>
<feColorMatrix in="SourceAlpha" type="matrix" values="0 0 0 0 0 0 0 0 0 0 0 0 0 0 0 0 0 0 127 0"/>
<feOffset dx="20" dy="20"/>
<feGaussianBlur stdDeviation="20"/>
<feColorMatrix type="matrix" values="0 0 0 0 0 0 0 0 0 0 0 0 0 0 0 0 0 0 0.25 0"/>
<feBlend mode="normal" in2="effect1_dropShadow" result="effect2_dropShadow"/>
<feBlend mode="normal" in="SourceGraphic" in2="effect2_dropShadow" result="shape"/>
</filter>
<filter id="filter18_dd" x="52.875" y="56.3555" width="122.038" height="106.208" filterUnits="userSpaceOnUse" color-interpolation-filters="sRGB">
<feFlood flood-opacity="0" result="BackgroundImageFix"/>
<feColorMatrix in="SourceAlpha" type="matrix" values="0 0 0 0 0 0 0 0 0 0 0 0 0 0 0 0 0 0 127 0"/>
<feOffset dx="10" dy="10"/>
<feGaussianBlur stdDeviation="10"/>
<feColorMatrix type="matrix" values="0 0 0 0 0 0 0 0 0 0 0 0 0 0 0 0 0 0 0.25 0"/>
<feBlend mode="normal" in2="BackgroundImageFix" result="effect1_dropShadow"/>
<feColorMatrix in="SourceAlpha" type="matrix" values="0 0 0 0 0 0 0 0 0 0 0 0 0 0 0 0 0 0 127 0"/>
<feOffset dx="20" dy="20"/>
<feGaussianBlur stdDeviation="20"/>
<feColorMatrix type="matrix" values="0 0 0 0 0 0 0 0 0 0 0 0 0 0 0 0 0 0 0.25 0"/>
<feBlend mode="normal" in2="effect1_dropShadow" result="effect2_dropShadow"/>
<feBlend mode="normal" in="SourceGraphic" in2="effect2_dropShadow" result="shape"/>
</filter>
</defs>
</svg>
