<svg width="65" height="66" viewBox="0 0 65 66" fill="none" xmlns="http://www.w3.org/2000/svg">
<ellipse cx="32.5" cy="33" rx="32.5" ry="33" fill="#48A587"/>
<ellipse cx="30.3333" cy="30.8" rx="30.3333" ry="30.8" fill="white"/>
<path d="M30.8889 53.6784C30.1914 53.676 29.4969 53.583 28.8218 53.4014L28.6887 53.3633L28.5653 53.2992C24.1025 50.9809 20.3375 47.9188 17.3749 44.1979C14.9224 41.0997 13.0104 37.5821 11.7247 33.8031C10.1873 29.2787 9.44764 24.5048 9.54107 19.7091C9.54295 19.6085 9.54455 19.5308 9.54455 19.4772C9.54455 17.146 10.7935 15.1006 12.7263 14.2662C14.2057 13.6275 27.6372 7.91169 28.6076 7.4987C30.4353 6.54991 32.385 7.34183 32.697 7.48031C33.3969 7.77678 45.8135 13.0385 48.4967 14.3623C51.2621 15.7266 51.9999 18.1776 51.9999 19.4107C51.9999 24.9934 51.0667 30.2108 49.2262 34.9182C47.7398 38.7284 45.6331 42.246 42.9979 45.3177C37.9136 51.2457 32.8279 53.3473 32.7789 53.3658C32.1711 53.5825 31.5316 53.6883 30.8889 53.6784ZM29.6929 50.6091C30.1338 50.7115 31.1489 50.8651 31.8106 50.6151C32.6511 50.2975 36.9077 48.0105 40.8854 43.3728C46.3812 36.965 49.1697 28.9099 49.1738 19.4313C49.164 19.2392 49.0324 17.8696 47.2817 17.0059C44.6505 15.7078 31.7445 10.2401 31.6145 10.185L31.5788 10.1694C31.3083 10.0519 30.4476 9.80461 29.8543 10.1267L29.7355 10.1841C29.5916 10.2453 15.3339 16.3125 13.8133 16.9689C12.7496 17.4281 12.3706 18.5657 12.3706 19.4772C12.3706 19.5438 12.369 19.6407 12.3666 19.7659C12.2451 26.2516 13.6937 42.2109 29.6929 50.6091Z" fill="#3F3D56"/>
<path d="M29.1994 8.82924C29.1994 8.82924 14.8122 14.9515 13.2707 15.6169C11.7292 16.2824 10.9584 17.8795 10.9584 19.4766C10.9584 21.0737 9.80231 41.9137 29.1994 51.9898C29.1994 51.9898 30.9599 52.4945 32.2956 51.9898C33.6312 51.4851 50.5877 42.9672 50.5877 19.41C50.5877 19.41 50.5877 17.0144 47.8901 15.6835C45.1924 14.3525 32.1499 8.82924 32.1499 8.82924C32.1499 8.82924 30.5483 8.09724 29.1994 8.82924Z" fill="#48A587"/>
<path opacity="0.1" d="M30.7397 13.6211V46.2809C30.7397 46.2809 16.224 39.0416 16.3524 20.0095L30.7397 13.6211Z" fill="black"/>
<path d="M30.9287 37.0935L26.3047 30.9336L28.9937 28.7667L31.1832 31.6833L38.5795 23.5938L41.0529 26.0217L30.9287 37.0935Z" fill="white"/>
</svg>
