<svg width="15" height="15" viewBox="0 0 15 15" fill="none" xmlns="http://www.w3.org/2000/svg">
<path d="M7.5 15C11.6421 15 15 11.6421 15 7.5C15 3.35786 11.6421 0 7.5 0C3.35786 0 0 3.35786 0 7.5C0 11.6421 3.35786 15 7.5 15Z" fill="#E4E4E4"/>
<path d="M7.5 13.75C10.9518 13.75 13.75 10.9518 13.75 7.5C13.75 4.04822 10.9518 1.25 7.5 1.25C4.04822 1.25 1.25 4.04822 1.25 7.5C1.25 10.9518 4.04822 13.75 7.5 13.75Z" fill="#6C63FF"/>
<path d="M6.9689 9.76027C6.95773 9.76027 6.94654 9.76 6.93534 9.75946C6.83649 9.75469 6.73985 9.7286 6.65203 9.68297C6.56421 9.63735 6.48731 9.57327 6.42658 9.49513L5.46786 8.26248C5.35623 8.11862 5.30622 7.93635 5.3288 7.75566C5.35138 7.57497 5.4447 7.41062 5.58831 7.29865L5.62279 7.2718C5.76667 7.16018 5.94895 7.11017 6.12964 7.13275C6.31034 7.15533 6.4747 7.24865 6.58669 7.39225C6.64072 7.46173 6.70913 7.51871 6.78723 7.55929C6.86533 7.59988 6.95127 7.62311 7.03919 7.6274C7.1271 7.63168 7.21489 7.61692 7.29657 7.58412C7.37825 7.55133 7.45187 7.50127 7.51241 7.43738L9.4591 5.38245C9.52113 5.31696 9.59546 5.26434 9.67783 5.22758C9.76021 5.19083 9.84901 5.17065 9.93918 5.16822C10.0294 5.16578 10.1191 5.18113 10.2034 5.21339C10.2876 5.24565 10.3646 5.29419 10.4301 5.35623L10.4619 5.38634C10.5941 5.51162 10.6712 5.6843 10.6761 5.86639C10.681 6.04848 10.6134 6.22506 10.4881 6.35729L7.46736 9.54578C7.40323 9.61355 7.32594 9.66753 7.24024 9.70441C7.15453 9.74129 7.0622 9.7603 6.9689 9.76027V9.76027Z" fill="white"/>
</svg>
