<svg width="1282" height="736" viewBox="0 0 1282 736" fill="none" xmlns="http://www.w3.org/2000/svg">
<g clip-path="url(#clip0)">
<rect width="1282" height="736" fill="#FFC446" fill-opacity="0.27"/>
<rect width="1310" height="760" fill="#FFC446" fill-opacity="0.49"/>
<rect x="-116" width="1460" height="368" fill="#3FACE4" fill-opacity="0.5"/>
<g filter="url(#filter0_d)">
<rect x="223" y="130" width="835" height="476" fill="#FDFDF8"/>
</g>
<path d="M370.942 412.923L366.017 410.581C365.547 410.359 365.085 410.12 364.615 409.892C375.101 408.515 384.662 404.45 391.728 398.365C398.793 392.279 402.943 384.536 403.494 376.407C404.045 368.279 400.965 360.249 394.76 353.637C388.556 347.025 379.596 342.224 369.352 340.025L369.595 354.803L358.985 338.731H358.837C352.689 338.511 346.544 339.22 340.754 340.817C334.964 342.414 329.642 344.868 325.092 348.039C320.542 351.21 316.852 355.035 314.235 359.297C311.617 363.559 310.123 368.173 309.836 372.877C309.789 373.56 309.836 374.237 309.836 374.914C306.148 371.691 302.789 368.234 300.573 364.448C296.087 356.786 296.001 348.1 296.353 337.551C297.058 316.638 298.24 295.569 299.775 274.567C310.854 273.623 321.13 269.689 328.759 263.47C336.388 257.251 340.87 249.155 341.399 240.636C341.462 239.54 341.438 238.456 341.399 237.384C341.399 237.114 341.399 236.844 341.344 236.581C341.25 235.539 341.125 234.508 340.914 233.49C340.914 233.322 340.835 233.16 340.796 232.999C340.608 232.136 340.373 231.285 340.107 230.441C340.005 230.129 339.904 229.842 339.794 229.5C339.465 228.59 339.105 227.703 338.682 226.798C338.541 226.505 338.377 226.199 338.228 225.924C337.899 225.271 337.539 224.624 337.155 223.989C336.952 223.653 336.756 223.318 336.545 222.988C336.482 222.905 336.443 222.815 336.38 222.731C331.432 215.251 323.212 209.336 313.152 206.015C303.091 202.694 291.826 202.178 281.319 204.556L281.632 223.785L271.14 207.898C262.512 211.68 255.69 217.472 251.669 224.429C247.647 231.387 246.637 239.145 248.785 246.573H248.738C248.809 246.831 248.911 247.07 248.989 247.328C249.138 247.801 249.294 248.268 249.467 248.736C249.686 249.335 249.936 249.934 250.195 250.533C250.391 250.97 250.578 251.413 250.798 251.851C251.119 252.486 251.479 253.103 251.839 253.72C252.05 254.079 252.238 254.451 252.465 254.804C253.061 255.734 253.708 256.639 254.407 257.518C254.65 257.829 254.924 258.117 255.19 258.422C255.691 259.021 256.193 259.62 256.756 260.177C257.093 260.531 257.453 260.866 257.806 261.214C258.322 261.711 258.847 262.202 259.372 262.676C259.755 263.017 260.155 263.34 260.554 263.67C261.133 264.131 261.721 264.58 262.331 265.024C262.731 265.317 263.114 265.623 263.561 265.898C264.25 266.366 264.97 266.815 265.698 267.252C266.066 267.468 266.426 267.702 266.802 267.917C267.914 268.516 269.057 269.115 270.24 269.714C270.459 269.822 270.702 269.906 270.921 270.008C271.915 270.451 272.918 270.87 273.951 271.26C274.397 271.428 274.852 271.571 275.306 271.727C276.151 272.021 277.005 272.326 277.882 272.554C278.391 272.704 278.908 272.841 279.448 272.979C280.309 273.201 281.186 273.404 282.071 273.578C282.588 273.686 283.112 273.8 283.637 273.896C284.592 274.069 285.571 274.213 286.558 274.345L286.745 274.375C286.103 283.233 285.529 292.097 285.023 300.967C282.232 296.575 278.297 292.666 273.46 289.48C268.623 286.294 262.985 283.899 256.894 282.44C250.803 280.981 244.386 280.491 238.038 280.998C231.69 281.506 225.544 283.001 219.979 285.391L228.263 302.764L211.201 290.184C202.064 296.575 196.618 305.481 196.058 314.943C195.84 318.262 196.24 321.588 197.248 324.821C199.39 331.815 204.23 338.156 211.14 343.021C218.049 347.885 226.71 351.049 235.999 352.102C245.287 353.155 254.775 352.049 263.232 348.927C271.688 345.804 278.724 340.81 283.425 334.591C283.425 335.49 283.347 336.389 283.316 337.293C283.003 346.602 282.611 358.188 288.679 368.534C292.79 375.543 299.399 381.234 305.906 386.337C310.157 389.662 314.566 392.873 319.084 395.982C323.527 400.554 329.33 404.25 336.012 406.765C343.435 411.144 351.124 415.26 359.072 419.058L364.036 421.418C368.499 423.532 373.072 425.707 377.551 427.965C376.767 427.906 375.984 427.84 375.201 427.81C365.265 427.455 355.438 429.528 347.142 433.728C338.846 437.928 332.51 444.037 329.051 451.173L358.336 469.402L326.123 463.687C326.133 469.75 328.151 475.713 331.99 481.018C335.828 486.322 341.361 490.796 348.072 494.022C354.784 497.247 362.454 499.119 370.366 499.461C378.279 499.804 386.176 498.607 393.32 495.982C392.6 496.677 391.874 497.367 391.143 498.054C389.703 499.424 388.28 500.786 386.876 502.14C367.818 520.603 362.517 538.137 371.952 551.502L383.431 546.757C374.246 533.752 388.058 517.098 397.11 508.328C398.488 506.99 399.887 505.652 401.307 504.314C413.498 492.711 427.295 479.604 426.958 463.501C426.449 439.246 395.638 424.653 370.942 412.923Z" fill="#F2F2F2"/>
<path d="M824.309 339.838L829.234 337.496C829.704 337.274 830.166 337.035 830.636 336.807C820.152 335.426 810.594 331.358 803.533 325.27C796.472 319.183 792.327 311.439 791.781 303.31C791.234 295.182 794.318 287.154 800.525 280.544C806.733 273.934 815.695 269.137 825.938 266.94L825.695 281.719L836.305 265.646H836.438C842.586 265.426 848.731 266.135 854.521 267.732C860.311 269.329 865.633 271.783 870.183 274.954C874.733 278.125 878.422 281.95 881.04 286.212C883.657 290.474 885.152 295.088 885.439 299.792C885.486 300.475 885.439 301.152 885.439 301.829C889.126 298.606 892.486 295.149 894.701 291.363C899.188 283.701 899.274 275.015 898.922 264.466C898.217 243.553 897.035 222.484 895.5 201.482C884.421 200.538 874.144 196.604 866.515 190.385C858.887 184.166 854.405 176.071 853.876 167.552C853.813 166.455 853.836 165.371 853.876 164.299C853.876 164.029 853.876 163.76 853.93 163.496C854.024 162.454 854.15 161.423 854.361 160.405C854.361 160.237 854.439 160.075 854.479 159.914C854.666 159.051 854.901 158.2 855.168 157.356C855.269 157.044 855.371 156.757 855.481 156.415C855.81 155.505 856.17 154.618 856.593 153.713C856.734 153.42 856.898 153.114 857.047 152.839C857.376 152.186 857.736 151.539 858.12 150.904C858.323 150.568 858.519 150.233 858.738 149.903C858.793 149.82 858.832 149.73 858.895 149.646C863.84 142.17 872.054 136.257 882.109 132.936C892.163 129.614 903.42 129.093 913.924 131.465L913.611 150.694L924.103 134.807C932.734 138.589 939.559 144.381 943.582 151.34C947.605 158.299 948.616 166.059 946.466 173.488H946.513C946.442 173.746 946.341 173.985 946.262 174.243C946.114 174.716 945.957 175.183 945.785 175.651C945.565 176.25 945.315 176.849 945.057 177.448C944.861 177.885 944.673 178.328 944.454 178.766C944.133 179.401 943.772 180.018 943.412 180.635C943.201 180.994 943.013 181.366 942.786 181.719C942.191 182.65 941.543 183.554 940.844 184.433C940.601 184.744 940.327 185.032 940.061 185.337C939.56 185.936 939.059 186.535 938.495 187.093C938.158 187.446 937.798 187.781 937.446 188.129C936.929 188.626 936.404 189.117 935.88 189.591C935.496 189.932 935.097 190.256 934.697 190.585C934.126 191.046 933.531 191.496 932.92 191.939C932.521 192.232 932.137 192.538 931.691 192.813C931.002 193.281 930.281 193.73 929.553 194.167C929.185 194.383 928.825 194.617 928.449 194.832C927.337 195.431 926.194 196.03 925.012 196.599C924.792 196.707 924.55 196.791 924.33 196.893C923.336 197.336 922.334 197.756 921.3 198.145C920.854 198.313 920.4 198.457 919.946 198.612C919.1 198.906 918.246 199.211 917.369 199.439C916.861 199.589 916.344 199.726 915.803 199.864C914.942 200.086 914.065 200.29 913.18 200.463C912.664 200.571 912.139 200.685 911.614 200.781C910.659 200.955 909.68 201.098 908.694 201.23H908.506C909.148 210.092 909.722 218.956 910.228 227.822C913.019 223.43 916.954 219.521 921.791 216.336C926.628 213.15 932.266 210.754 938.357 209.295C944.449 207.836 950.865 207.346 957.213 207.853C963.562 208.361 969.707 209.856 975.273 212.247L966.989 229.619L984.034 217.099C993.171 223.491 998.618 232.396 999.178 241.858C999.396 245.177 998.995 248.503 997.988 251.736C995.845 258.73 991.006 265.071 984.096 269.936C977.186 274.8 968.526 277.964 959.237 279.017C949.948 280.07 940.461 278.964 932.004 275.842C923.547 272.719 916.512 267.725 911.81 261.507C911.81 262.405 911.896 263.304 911.92 264.208C912.233 273.518 912.624 285.103 906.556 295.449C902.445 302.458 895.837 308.149 889.33 313.253C885.078 316.577 880.67 319.788 876.152 322.897C871.708 327.469 865.905 331.165 859.224 333.68C851.801 338.059 844.112 342.175 836.164 345.973L831.2 348.333C826.737 350.448 822.164 352.622 817.685 354.881C818.468 354.821 819.251 354.755 820.034 354.725C829.971 354.371 839.798 356.443 848.094 360.643C856.39 364.843 862.725 370.952 866.184 378.088L836.9 396.317L869.113 390.602C869.103 396.665 867.084 402.628 863.246 407.933C859.407 413.238 853.874 417.712 847.163 420.937C840.452 424.162 832.782 426.034 824.869 426.376C816.957 426.719 809.059 425.522 801.915 422.897C802.636 423.592 803.361 424.282 804.092 424.969C805.533 426.339 806.955 427.701 808.36 429.055C827.418 447.518 832.719 465.052 823.284 478.417L811.805 473.672C820.989 460.667 807.177 444.013 798.126 435.243C796.748 433.905 795.349 432.567 793.929 431.229C781.753 419.656 767.956 406.537 768.293 390.446C768.802 366.161 799.582 351.568 824.309 339.838Z" fill="#F2F2F2"/>
<path d="M699.271 574C913.408 574 1087 565.149 1087 554.232C1087 543.314 913.408 534.463 699.271 534.463C485.135 534.463 311.543 543.314 311.543 554.232C311.543 565.149 485.135 574 699.271 574Z" fill="#F2F2F2"/>
<path d="M712.293 554.832L572.77 553.466L573.177 550.729L579.926 505.566H702.459L711.471 550.729L712.16 554.149L712.293 554.832Z" fill="#2F2E41"/>
<path opacity="0.1" d="M712.16 554.147H642.527L572.77 553.464L573.177 550.727H711.471L712.16 554.147Z" fill="black"/>
<path d="M734.655 551.41H549.514V554.831H734.655V551.41Z" fill="#3F3D56"/>
<path d="M911.303 234.309C911.31 233.139 911.016 231.98 910.437 230.897C909.859 229.814 909.007 228.829 907.931 227.998C906.855 227.167 905.576 226.506 904.166 226.053C902.756 225.601 901.243 225.365 899.714 225.359H382.68C381.151 225.365 379.639 225.601 378.229 226.053C376.819 226.506 375.539 227.167 374.463 227.998C373.387 228.829 372.536 229.814 371.957 230.897C371.379 231.98 371.085 233.139 371.092 234.309V474.085H911.303V234.309Z" fill="#3F3D56"/>
<path d="M371.092 471.695V499.779C371.092 502.13 372.313 504.385 374.486 506.048C376.659 507.711 379.607 508.645 382.68 508.645H899.714C902.788 508.645 905.735 507.711 907.908 506.048C910.082 504.385 911.303 502.13 911.303 499.779V471.695H371.092Z" fill="#3F3D56"/>
<path d="M891.617 240.414H393.445V455.958H891.617V240.414Z" fill="#32B0B8"/>
<path d="M643.85 497.988C645.679 497.989 647.485 497.672 649.131 497.061C650.776 496.45 652.218 495.56 653.348 494.459C653.693 494.123 654.007 493.769 654.288 493.399L647.663 492.566L654.828 492.608C655.513 491.464 655.888 490.225 655.928 488.966C655.969 487.708 655.674 486.456 655.063 485.288L645.447 489.104L654.311 484.12C653.479 483.025 652.361 482.073 651.027 481.323C649.694 480.572 648.172 480.04 646.559 479.758C644.945 479.477 643.272 479.452 641.645 479.686C640.018 479.92 638.472 480.407 637.101 481.118C635.731 481.828 634.566 482.747 633.679 483.816C632.793 484.886 632.203 486.083 631.946 487.334C631.69 488.585 631.773 489.863 632.189 491.089C632.606 492.315 633.347 493.462 634.368 494.459V494.459C635.496 495.558 636.936 496.447 638.578 497.058C640.221 497.67 642.023 497.987 643.85 497.988Z" fill="#6C63FF"/>
<path opacity="0.1" d="M655.949 508.645L711.613 551.411L703.07 508.645H655.949Z" fill="black"/>
<path d="M805.447 537.83L820.441 531.121C818.41 528.475 815.82 526.104 812.776 524.106L784.502 530.833L806.653 520.865C801.167 518.566 794.994 517.4 788.741 517.48C782.487 517.561 776.369 518.886 770.988 521.326C765.607 523.765 761.149 527.234 758.053 531.391C754.957 535.549 753.329 540.252 753.33 545.037C753.33 560.259 769.46 560.786 789.348 560.786C809.237 560.786 825.367 560.259 825.367 545.037C825.373 541.187 824.321 537.378 822.282 533.859L805.447 537.83Z" fill="#57B894"/>
<path opacity="0.1" d="M809.268 552.627C807.669 551.404 805.884 550.332 803.951 549.434C801.234 548.05 798.416 546.642 795.205 546.169C792.394 545.756 789.482 546.103 786.592 545.983C781.607 545.749 776.914 544.103 773.43 541.365C771.378 539.747 769.773 537.77 767.307 536.518C764.652 535.188 761.285 534.901 758.146 535.23C757.23 535.335 756.323 535.479 755.429 535.662C754.015 538.658 753.294 541.821 753.299 545.007C753.299 560.229 769.429 560.756 789.317 560.756C798.972 560.756 807.741 560.63 814.209 558.761L813.128 557.215C812.1 555.567 810.803 554.025 809.268 552.627V552.627Z" fill="black"/>
<path opacity="0.3" d="M432.133 323.566H415.572V327.412H432.133V323.566Z" fill="#6C63FF"/>
<path opacity="0.3" d="M874.023 323.68H857.463V327.526H874.023V323.68Z" fill="#6C63FF"/>
<path opacity="0.3" d="M432.283 350.604H415.723V354.449H432.283V350.604Z" fill="#6C63FF"/>
<path opacity="0.3" d="M432.432 377.639H415.871V381.485H432.432V377.639Z" fill="#6C63FF"/>
<path opacity="0.3" d="M432.58 404.668H416.02V408.514H432.58V404.668Z" fill="#6C63FF"/>
<g opacity="0.2">
<path opacity="0.2" d="M436.833 325.42H432.135V325.57H436.833V325.42Z" fill="#F2F2F2"/>
<path opacity="0.2" d="M843.234 325.57H834.002V325.42H843.234V325.57ZM824.763 325.57H815.531V325.42H824.763V325.57ZM806.292 325.57H797.052V325.42H806.292V325.57ZM787.821 325.57H778.581V325.42H787.821V325.57ZM769.35 325.57H760.11V325.42H769.35V325.57ZM750.871 325.57H741.639V325.42H750.871V325.57ZM732.4 325.57H723.16V325.42H732.4V325.57ZM713.928 325.57H704.689V325.42H713.928V325.57ZM695.457 325.57H686.218V325.42H695.457V325.57ZM676.978 325.57H667.747V325.42H676.978V325.57ZM658.507 325.57H649.268V325.42H658.507V325.57ZM640.036 325.57H630.797V325.42H640.036V325.57ZM621.565 325.57H612.326V325.42H621.565V325.57ZM603.086 325.57H593.855V325.42H603.086V325.57ZM584.615 325.57H575.384V325.42H584.615V325.57ZM566.144 325.57H556.936V325.42H566.175L566.144 325.57ZM547.673 325.57H538.434V325.42H547.673V325.57ZM529.194 325.57H519.962V325.42H529.194V325.57ZM510.723 325.57H501.491V325.42H510.739L510.723 325.57ZM492.252 325.57H483.012V325.42H492.252V325.57ZM473.781 325.57H464.541V325.42H473.781V325.57ZM455.302 325.57H446.07V325.42H455.302V325.57Z" fill="#F2F2F2"/>
<path opacity="0.2" d="M857.173 325.42H852.475V325.57H857.173V325.42Z" fill="#F2F2F2"/>
<path opacity="0.2" d="M436.833 325.42H432.135V325.57H436.833V325.42Z" fill="#F2F2F2"/>
<path opacity="0.2" d="M843.234 325.57H834.002V325.42H843.234V325.57ZM824.763 325.57H815.531V325.42H824.763V325.57ZM806.292 325.57H797.052V325.42H806.292V325.57ZM787.821 325.57H778.581V325.42H787.821V325.57ZM769.35 325.57H760.11V325.42H769.35V325.57ZM750.871 325.57H741.639V325.42H750.871V325.57ZM732.4 325.57H723.16V325.42H732.4V325.57ZM713.928 325.57H704.689V325.42H713.928V325.57ZM695.457 325.57H686.218V325.42H695.457V325.57ZM676.978 325.57H667.747V325.42H676.978V325.57ZM658.507 325.57H649.268V325.42H658.507V325.57ZM640.036 325.57H630.797V325.42H640.036V325.57ZM621.565 325.57H612.326V325.42H621.565V325.57ZM603.086 325.57H593.855V325.42H603.086V325.57ZM584.615 325.57H575.384V325.42H584.615V325.57ZM566.144 325.57H556.936V325.42H566.175L566.144 325.57ZM547.673 325.57H538.434V325.42H547.673V325.57ZM529.194 325.57H519.962V325.42H529.194V325.57ZM510.723 325.57H501.491V325.42H510.739L510.723 325.57ZM492.252 325.57H483.012V325.42H492.252V325.57ZM473.781 325.57H464.541V325.42H473.781V325.57ZM455.302 325.57H446.07V325.42H455.302V325.57Z" fill="#F2F2F2"/>
<path opacity="0.2" d="M857.173 325.42H852.475V325.57H857.173V325.42Z" fill="#F2F2F2"/>
</g>
<path opacity="0.3" d="M432.133 296.609H415.572V300.455H432.133V296.609Z" fill="#6C63FF"/>
<path opacity="0.3" d="M874.023 296.723H857.463V300.569H874.023V296.723Z" fill="#6C63FF"/>
<g opacity="0.2">
<path opacity="0.2" d="M436.833 298.461H432.135V298.611H436.833V298.461Z" fill="#F2F2F2"/>
<path opacity="0.2" d="M843.234 298.611H834.002V298.461H843.234V298.611ZM824.763 298.611H815.531V298.461H824.763V298.611ZM806.292 298.611H797.052V298.461H806.292V298.611ZM787.821 298.611H778.581V298.461H787.821V298.611ZM769.35 298.611H760.11V298.461H769.35V298.611ZM750.871 298.611H741.639V298.461H750.871V298.611ZM732.4 298.611H723.16V298.461H732.4V298.611ZM713.928 298.611H704.689V298.461H713.928V298.611ZM695.457 298.611H686.218V298.461H695.457V298.611ZM676.978 298.611H667.747V298.461H676.978V298.611ZM658.507 298.611H649.268V298.461H658.507V298.611ZM640.036 298.611H630.797V298.461H640.036V298.611ZM621.565 298.611H612.326V298.461H621.565V298.611ZM603.086 298.611H593.855V298.461H603.086V298.611ZM584.615 298.611H575.384V298.461H584.615V298.611ZM566.144 298.611H556.936V298.461H566.175L566.144 298.611ZM547.673 298.611H538.434V298.461H547.673V298.611ZM529.194 298.611H519.962V298.461H529.194V298.611ZM510.723 298.611H501.491V298.461H510.739L510.723 298.611ZM492.252 298.611H483.012V298.461H492.252V298.611ZM473.781 298.611H464.541V298.461H473.781V298.611ZM455.302 298.611H446.07V298.461H455.302V298.611Z" fill="#F2F2F2"/>
<path opacity="0.2" d="M857.173 298.461H852.475V298.611H857.173V298.461Z" fill="#F2F2F2"/>
</g>
<path opacity="0.3" d="M874.023 350.604H857.463V354.449H874.023V350.604Z" fill="#6C63FF"/>
<g opacity="0.2">
<path opacity="0.2" d="M436.833 352.342H432.135V352.492H436.833V352.342Z" fill="#F2F2F2"/>
<path opacity="0.2" d="M843.234 352.486H834.002V352.336H843.234V352.486ZM824.763 352.486H815.531V352.336H824.763V352.486ZM806.292 352.486H797.052V352.336H806.292V352.486ZM787.821 352.486H778.581V352.336H787.821V352.486ZM769.35 352.486H760.11V352.336H769.35V352.486ZM750.871 352.486H741.639V352.336H750.871V352.486ZM732.4 352.486H723.16V352.336H732.4V352.486ZM713.928 352.486H704.689V352.336H713.928V352.486ZM695.457 352.486H686.218V352.336H695.457V352.486ZM676.978 352.486H667.747V352.336H676.978V352.486ZM658.507 352.486H649.268V352.336H658.507V352.486ZM640.036 352.486H630.797V352.336H640.036V352.486ZM621.565 352.486H612.326V352.336H621.565V352.486ZM603.086 352.486H593.855V352.336H603.086V352.486ZM584.615 352.486H575.384V352.336H584.615V352.486ZM566.144 352.486H556.936V352.336H566.175L566.144 352.486ZM547.673 352.486H538.434V352.336H547.673V352.486ZM529.194 352.486H519.962V352.336H529.194V352.486ZM510.723 352.486H501.491V352.336H510.739L510.723 352.486ZM492.252 352.486H483.012V352.336H492.252V352.486ZM473.781 352.486H464.541V352.336H473.781V352.486ZM455.302 352.486H446.07V352.336H455.302V352.486Z" fill="#F2F2F2"/>
<path opacity="0.2" d="M857.173 352.342H852.475V352.492H857.173V352.342Z" fill="#F2F2F2"/>
<path opacity="0.2" d="M436.833 352.342H432.135V352.492H436.833V352.342Z" fill="#F2F2F2"/>
<path opacity="0.2" d="M843.234 352.486H834.002V352.336H843.234V352.486ZM824.763 352.486H815.531V352.336H824.763V352.486ZM806.292 352.486H797.052V352.336H806.292V352.486ZM787.821 352.486H778.581V352.336H787.821V352.486ZM769.35 352.486H760.11V352.336H769.35V352.486ZM750.871 352.486H741.639V352.336H750.871V352.486ZM732.4 352.486H723.16V352.336H732.4V352.486ZM713.928 352.486H704.689V352.336H713.928V352.486ZM695.457 352.486H686.218V352.336H695.457V352.486ZM676.978 352.486H667.747V352.336H676.978V352.486ZM658.507 352.486H649.268V352.336H658.507V352.486ZM640.036 352.486H630.797V352.336H640.036V352.486ZM621.565 352.486H612.326V352.336H621.565V352.486ZM603.086 352.486H593.855V352.336H603.086V352.486ZM584.615 352.486H575.384V352.336H584.615V352.486ZM566.144 352.486H556.936V352.336H566.175L566.144 352.486ZM547.673 352.486H538.434V352.336H547.673V352.486ZM529.194 352.486H519.962V352.336H529.194V352.486ZM510.723 352.486H501.491V352.336H510.739L510.723 352.486ZM492.252 352.486H483.012V352.336H492.252V352.486ZM473.781 352.486H464.541V352.336H473.781V352.486ZM455.302 352.486H446.07V352.336H455.302V352.486Z" fill="#F2F2F2"/>
<path opacity="0.2" d="M857.173 352.342H852.475V352.492H857.173V352.342Z" fill="#F2F2F2"/>
</g>
<path opacity="0.3" d="M874.023 377.525H857.463V381.371H874.023V377.525Z" fill="#6C63FF"/>
<g opacity="0.2">
<path opacity="0.2" d="M436.833 379.256H432.135V379.406H436.833V379.256Z" fill="#F2F2F2"/>
<path opacity="0.2" d="M843.234 379.406H834.002V379.256H843.234V379.406ZM824.763 379.406H815.531V379.256H824.763V379.406ZM806.292 379.406H797.052V379.256H806.292V379.406ZM787.821 379.406H778.581V379.256H787.821V379.406ZM769.35 379.406H760.11V379.256H769.35V379.406ZM750.871 379.406H741.639V379.256H750.871V379.406ZM732.4 379.406H723.16V379.256H732.4V379.406ZM713.928 379.406H704.689V379.256H713.928V379.406ZM695.457 379.406H686.218V379.256H695.457V379.406ZM676.978 379.406H667.747V379.256H676.978V379.406ZM658.507 379.406H649.268V379.256H658.507V379.406ZM640.036 379.406H630.797V379.256H640.036V379.406ZM621.565 379.406H612.326V379.256H621.565V379.406ZM603.086 379.406H593.855V379.256H603.086V379.406ZM584.615 379.406H575.384V379.256H584.615V379.406ZM566.144 379.406H556.936V379.256H566.175L566.144 379.406ZM547.673 379.406H538.434V379.256H547.673V379.406ZM529.194 379.406H519.962V379.256H529.194V379.406ZM510.723 379.406H501.491V379.256H510.739L510.723 379.406ZM492.252 379.406H483.012V379.256H492.252V379.406ZM473.781 379.406H464.541V379.256H473.781V379.406ZM455.302 379.406H446.07V379.256H455.302V379.406Z" fill="#F2F2F2"/>
<path opacity="0.2" d="M857.173 379.256H852.475V379.406H857.173V379.256Z" fill="#F2F2F2"/>
<path opacity="0.2" d="M436.833 379.256H432.135V379.406H436.833V379.256Z" fill="#F2F2F2"/>
<path opacity="0.2" d="M843.234 379.406H834.002V379.256H843.234V379.406ZM824.763 379.406H815.531V379.256H824.763V379.406ZM806.292 379.406H797.052V379.256H806.292V379.406ZM787.821 379.406H778.581V379.256H787.821V379.406ZM769.35 379.406H760.11V379.256H769.35V379.406ZM750.871 379.406H741.639V379.256H750.871V379.406ZM732.4 379.406H723.16V379.256H732.4V379.406ZM713.928 379.406H704.689V379.256H713.928V379.406ZM695.457 379.406H686.218V379.256H695.457V379.406ZM676.978 379.406H667.747V379.256H676.978V379.406ZM658.507 379.406H649.268V379.256H658.507V379.406ZM640.036 379.406H630.797V379.256H640.036V379.406ZM621.565 379.406H612.326V379.256H621.565V379.406ZM603.086 379.406H593.855V379.256H603.086V379.406ZM584.615 379.406H575.384V379.256H584.615V379.406ZM566.144 379.406H556.936V379.256H566.175L566.144 379.406ZM547.673 379.406H538.434V379.256H547.673V379.406ZM529.194 379.406H519.962V379.256H529.194V379.406ZM510.723 379.406H501.491V379.256H510.739L510.723 379.406ZM492.252 379.406H483.012V379.256H492.252V379.406ZM473.781 379.406H464.541V379.256H473.781V379.406ZM455.302 379.406H446.07V379.256H455.302V379.406Z" fill="#F2F2F2"/>
<path opacity="0.2" d="M857.173 379.256H852.475V379.406H857.173V379.256Z" fill="#F2F2F2"/>
</g>
<path opacity="0.3" d="M874.023 404.441H857.463V408.287H874.023V404.441Z" fill="#6C63FF"/>
<g opacity="0.2">
<path opacity="0.2" d="M436.833 406.178H432.135V406.328H436.833V406.178Z" fill="#F2F2F2"/>
<path opacity="0.2" d="M843.234 406.328H834.002V406.178H843.234V406.328ZM824.763 406.328H815.531V406.178H824.763V406.328ZM806.292 406.328H797.052V406.178H806.292V406.328ZM787.821 406.328H778.581V406.178H787.821V406.328ZM769.35 406.328H760.11V406.178H769.35V406.328ZM750.871 406.328H741.639V406.178H750.871V406.328ZM732.4 406.328H723.16V406.178H732.4V406.328ZM713.928 406.328H704.689V406.178H713.928V406.328ZM695.457 406.328H686.218V406.178H695.457V406.328ZM676.978 406.328H667.747V406.178H676.978V406.328ZM658.507 406.328H649.268V406.178H658.507V406.328ZM640.036 406.328H630.797V406.178H640.036V406.328ZM621.565 406.328H612.326V406.178H621.565V406.328ZM603.086 406.328H593.855V406.178H603.086V406.328ZM584.615 406.328H575.384V406.178H584.615V406.328ZM566.144 406.328H556.936V406.178H566.175L566.144 406.328ZM547.673 406.328H538.434V406.178H547.673V406.328ZM529.194 406.328H519.962V406.178H529.194V406.328ZM510.723 406.328H501.491V406.178H510.739L510.723 406.328ZM492.252 406.328H483.012V406.178H492.252V406.328ZM473.781 406.328H464.541V406.178H473.781V406.328ZM455.302 406.328H446.07V406.178H455.302V406.328Z" fill="#F2F2F2"/>
<path opacity="0.2" d="M857.173 406.178H852.475V406.328H857.173V406.178Z" fill="#F2F2F2"/>
<path opacity="0.2" d="M436.833 406.178H432.135V406.328H436.833V406.178Z" fill="#F2F2F2"/>
<path opacity="0.2" d="M843.234 406.328H834.002V406.178H843.234V406.328ZM824.763 406.328H815.531V406.178H824.763V406.328ZM806.292 406.328H797.052V406.178H806.292V406.328ZM787.821 406.328H778.581V406.178H787.821V406.328ZM769.35 406.328H760.11V406.178H769.35V406.328ZM750.871 406.328H741.639V406.178H750.871V406.328ZM732.4 406.328H723.16V406.178H732.4V406.328ZM713.928 406.328H704.689V406.178H713.928V406.328ZM695.457 406.328H686.218V406.178H695.457V406.328ZM676.978 406.328H667.747V406.178H676.978V406.328ZM658.507 406.328H649.268V406.178H658.507V406.328ZM640.036 406.328H630.797V406.178H640.036V406.328ZM621.565 406.328H612.326V406.178H621.565V406.328ZM603.086 406.328H593.855V406.178H603.086V406.328ZM584.615 406.328H575.384V406.178H584.615V406.328ZM566.144 406.328H556.936V406.178H566.175L566.144 406.328ZM547.673 406.328H538.434V406.178H547.673V406.328ZM529.194 406.328H519.962V406.178H529.194V406.328ZM510.723 406.328H501.491V406.178H510.739L510.723 406.328ZM492.252 406.328H483.012V406.178H492.252V406.328ZM473.781 406.328H464.541V406.178H473.781V406.328ZM455.302 406.328H446.07V406.178H455.302V406.328Z" fill="#F2F2F2"/>
<path opacity="0.2" d="M857.173 406.178H852.475V406.328H857.173V406.178Z" fill="#F2F2F2"/>
</g>
<path d="M600.441 298.648V406.591" stroke="#F2F2F2" stroke-width="0.1" stroke-miterlimit="10"/>
<path opacity="0.2" d="M874.023 431.207H415.965V431.267H874.023V431.207Z" fill="#F2F2F2"/>
<path opacity="0.3" d="M486.435 434.229C488.597 434.229 490.35 432.888 490.35 431.234C490.35 429.579 488.597 428.238 486.435 428.238C484.272 428.238 482.52 429.579 482.52 431.234C482.52 432.888 484.272 434.229 486.435 434.229Z" fill="#6C63FF"/>
<path opacity="0.3" d="M543.595 434.229C545.757 434.229 547.51 432.888 547.51 431.234C547.51 429.579 545.757 428.238 543.595 428.238C541.432 428.238 539.68 429.579 539.68 431.234C539.68 432.888 541.432 434.229 543.595 434.229Z" fill="#6C63FF"/>
<path opacity="0.3" d="M600.755 434.229C602.917 434.229 604.67 432.888 604.67 431.234C604.67 429.579 602.917 428.238 600.755 428.238C598.593 428.238 596.84 429.579 596.84 431.234C596.84 432.888 598.593 434.229 600.755 434.229Z" fill="#6C63FF"/>
<path opacity="0.3" d="M657.913 434.229C660.075 434.229 661.828 432.888 661.828 431.234C661.828 429.579 660.075 428.238 657.913 428.238C655.751 428.238 653.998 429.579 653.998 431.234C653.998 432.888 655.751 434.229 657.913 434.229Z" fill="#6C63FF"/>
<path opacity="0.3" d="M715.073 434.229C717.235 434.229 718.988 432.888 718.988 431.234C718.988 429.579 717.235 428.238 715.073 428.238C712.911 428.238 711.158 429.579 711.158 431.234C711.158 432.888 712.911 434.229 715.073 434.229Z" fill="#6C63FF"/>
<path opacity="0.3" d="M772.231 434.229C774.394 434.229 776.147 432.888 776.147 431.234C776.147 429.579 774.394 428.238 772.231 428.238C770.069 428.238 768.316 429.579 768.316 431.234C768.316 432.888 770.069 434.229 772.231 434.229Z" fill="#6C63FF"/>
<path opacity="0.3" d="M829.392 434.229C831.554 434.229 833.307 432.888 833.307 431.234C833.307 429.579 831.554 428.238 829.392 428.238C827.229 428.238 825.477 429.579 825.477 431.234C825.477 432.888 827.229 434.229 829.392 434.229Z" fill="#6C63FF"/>
<path d="M383.682 546.745C381.333 543.445 383.995 539.401 387.041 536.46C390.087 533.518 393.782 530.469 393.704 526.701C393.587 521.31 386.109 518.123 380.135 515.265C375.698 513.143 371.607 510.623 367.951 507.759C366.421 506.658 365.154 505.36 364.208 503.925C362.971 501.817 363.002 499.42 363.081 497.114C363.347 489.414 363.845 481.728 364.576 474.057" stroke="#3F3D56" stroke-width="4" stroke-miterlimit="10"/>
<path d="M353.216 473.649C353.299 472.24 353.845 470.871 354.803 469.667C355.761 468.463 357.1 467.463 358.697 466.759L361.155 470.48L361.077 465.975C362.253 465.711 363.478 465.598 364.702 465.639C366.865 465.721 368.948 466.292 370.687 467.278C372.427 468.265 373.745 469.623 374.477 471.183C375.208 472.742 375.32 474.432 374.797 476.04C374.275 477.647 373.142 479.101 371.541 480.216C369.94 481.332 367.943 482.059 365.802 482.308C363.661 482.556 361.472 482.313 359.511 481.611C357.55 480.908 355.905 479.777 354.783 478.36C353.661 476.943 353.113 475.304 353.208 473.649H353.216Z" fill="#57B894"/>
<path d="M372.813 530.552C373.966 532.262 375.852 533.616 378.154 534.388C380.457 535.16 383.036 535.304 385.46 534.794C387.884 534.284 390.006 533.152 391.469 531.588C392.932 530.024 393.648 528.123 393.497 526.203C393.346 524.283 392.337 522.461 390.64 521.043C388.942 519.625 386.658 518.696 384.172 518.412C381.685 518.128 379.147 518.507 376.982 519.485C374.817 520.463 373.157 521.98 372.281 523.783L379.148 528.054L371.592 526.719C371.595 528.053 372.013 529.367 372.813 530.552Z" fill="#57B894"/>
<path d="M378.238 514.229C380.969 514.377 383.673 513.737 385.818 512.437C387.964 511.137 389.396 509.269 389.832 507.202C390.269 505.134 389.679 503.017 388.179 501.265C386.678 499.514 384.375 498.256 381.723 497.737L381.785 501.2L379.296 497.432C377.854 497.378 376.412 497.542 375.054 497.916C373.695 498.289 372.446 498.864 371.379 499.608C370.312 500.352 369.447 501.249 368.834 502.249C368.222 503.249 367.873 504.332 367.809 505.435C367.745 506.405 367.904 507.377 368.279 508.305C368.939 509.957 370.25 511.413 372.033 512.473C373.816 513.533 375.983 514.147 378.238 514.229V514.229Z" fill="#57B894"/>
<path d="M351.563 500.649C353.25 500.696 354.928 500.445 356.467 499.914C358.006 499.384 359.365 498.589 360.436 497.591C361.508 496.593 362.263 495.42 362.645 494.161C363.026 492.903 363.022 491.595 362.634 490.338C362.245 489.081 361.483 487.91 360.406 486.916C359.329 485.922 357.966 485.131 356.424 484.606C354.882 484.081 353.202 483.835 351.515 483.888C349.829 483.941 348.181 484.291 346.701 484.912L348.642 488.985L344.649 486.05C342.509 487.549 341.233 489.637 341.102 491.855C341.05 492.633 341.142 493.414 341.376 494.173C341.924 495.952 343.215 497.547 345.053 498.715C346.891 499.883 349.176 500.562 351.563 500.649V500.649Z" fill="#57B894"/>
<path opacity="0.1" d="M354.694 475.887C357.231 476.097 359.698 476.702 362.242 476.822C364.787 476.942 367.582 476.475 369.195 474.965C370.057 474.15 370.495 473.114 371.223 472.227C371.919 471.398 372.871 470.713 373.995 470.232C374.658 471.293 375.023 472.448 375.065 473.623C375.106 474.798 374.825 475.967 374.239 477.053C373.652 478.14 372.774 479.12 371.66 479.929C370.547 480.739 369.223 481.361 367.776 481.755C366.328 482.148 364.788 482.304 363.256 482.213C361.724 482.122 360.235 481.785 358.884 481.225C357.533 480.665 356.351 479.894 355.415 478.962C354.479 478.031 353.809 476.958 353.449 475.816C353.867 475.828 354.282 475.852 354.694 475.887Z" fill="black"/>
<path opacity="0.1" d="M351.562 500.647C353.457 500.721 355.345 500.416 357.04 499.764C358.736 499.112 360.181 498.135 361.235 496.927C362.288 495.72 362.914 494.324 363.051 492.875C363.188 491.427 362.831 489.977 362.015 488.666C361.143 489.115 360.393 489.688 359.807 490.355C359.024 491.26 358.546 492.302 357.63 493.135C355.915 494.674 352.995 495.178 350.34 495.088C347.686 494.998 345.126 494.417 342.51 494.231C342.142 494.231 341.774 494.189 341.398 494.183C341.949 495.958 343.237 497.547 345.07 498.713C346.903 499.879 349.181 500.557 351.562 500.647V500.647Z" fill="black"/>
<path opacity="0.1" d="M378.239 514.23C380.121 514.305 381.996 514.008 383.684 513.366C385.371 512.725 386.814 511.762 387.874 510.57C388.933 509.378 389.573 507.997 389.731 506.56C389.89 505.124 389.562 503.68 388.778 502.369C387.867 502.825 387.071 503.403 386.429 504.076C385.576 504.999 385.043 506.059 384.08 506.91C382.225 508.491 379.108 509.049 376.305 508.995C373.502 508.941 370.957 508.444 368.256 508.282C368.912 509.941 370.225 511.404 372.012 512.469C373.8 513.535 375.976 514.15 378.239 514.23V514.23Z" fill="black"/>
<path opacity="0.1" d="M372.812 530.553C374.001 532.585 376.197 534.174 378.917 534.968C381.636 535.762 384.657 535.697 387.314 534.788C389.971 533.878 392.047 532.198 393.085 530.118C394.123 528.037 394.038 525.726 392.85 523.693C391.943 524.145 391.13 524.698 390.438 525.335C389.389 526.311 388.7 527.419 387.494 528.33C385.247 530.019 381.621 530.726 378.387 530.78C376.525 530.786 374.664 530.71 372.812 530.553V530.553Z" fill="black"/>
<path d="M400.258 542.946C400.258 542.946 391.582 542.743 388.967 541.317C386.352 539.891 375.656 538.196 374.983 540.478C374.309 542.761 361.946 551.86 371.733 551.896C381.521 551.932 394.487 550.728 397.102 549.5C399.718 548.272 400.258 542.946 400.258 542.946Z" fill="#656380"/>
<path opacity="0.2" d="M371.559 551.099C381.354 551.159 394.313 549.937 396.92 548.703C398.909 547.774 399.7 544.449 399.966 542.922H400.256C400.256 542.922 399.708 548.271 397.124 549.511C394.54 550.751 381.55 551.956 371.755 551.908C368.928 551.908 367.957 551.123 368.012 549.985C368.38 550.656 369.453 551.087 371.559 551.099Z" fill="black"/>
<path d="M538.58 274.666L526.916 274.831L526.952 277.005L527.208 291.124L527.346 298.727L527.431 303.616L486.92 304.187L485.692 304.204C485.271 303.667 484.425 302.268 484.405 300.963L484.032 280.326L483.842 269.462C484.429 268.187 485.86 265.631 486.839 265.618C487.824 265.603 516.722 265.558 531.046 265.538C533.978 264.627 537.233 267.985 538.489 269.78L538.58 274.666Z" fill="#FFF5F5"/>
<g filter="url(#filter1_dd)">
<path d="M487.636 438.049L487.067 406.551L528.25 405.969L528.814 437.47L487.636 438.049Z" fill="#1A1717"/>
<path d="M487.636 438.049L487.067 406.551L528.25 405.969L528.814 437.47L487.636 438.049Z" stroke="black" stroke-opacity="0.2"/>
</g>
<g filter="url(#filter2_dd)">
<path d="M542.243 403.043C542.257 404.781 538.994 406.323 537.361 406.877L537.327 403.076L537.283 397.1L537.092 373.745L536.126 329.207L535.809 289.556L535.161 285.759C535.572 285.756 536.886 285.964 538.854 286.822C540.827 287.678 541.339 290.427 541.347 291.695L542.243 403.043Z" fill="#B52BAF" fill-opacity="0.6"/>
<path d="M542.243 403.043C542.257 404.781 538.994 406.323 537.361 406.877L537.327 403.076L537.283 397.1L537.092 373.745L536.126 329.207L535.809 289.556L535.161 285.759C535.572 285.756 536.886 285.964 538.854 286.822C540.827 287.678 541.339 290.427 541.347 291.695L542.243 403.043Z" stroke="#451A67" stroke-opacity="0.2"/>
</g>
<g filter="url(#filter3_dd)">
<path d="M470.469 292.093C470.435 290.356 473.68 288.79 475.306 288.224L475.376 292.025L475.482 298L475.902 321.353L477.317 365.878L478.024 405.527L478.704 409.321C478.295 409.326 476.985 409.126 475.004 408.286C473.023 407.444 472.487 404.699 472.463 403.432L470.469 292.093Z" fill="#B52BAF" fill-opacity="0.6"/>
<path d="M470.469 292.093C470.435 290.356 473.68 288.79 475.306 288.224L475.376 292.025L475.482 298L475.902 321.353L477.317 365.878L478.024 405.527L478.704 409.321C478.295 409.326 476.985 409.126 475.004 408.286C473.023 407.444 472.487 404.699 472.463 403.432L470.469 292.093Z" stroke="#451A67" stroke-opacity="0.2"/>
</g>
<g filter="url(#filter4_dd)">
<path d="M473.613 288.906C474.05 285.913 480.313 285.789 483.386 286.102L483.608 298.367C483.642 300.072 486.116 301.176 487.351 301.514L525.406 300.978C527.863 300.943 528.441 298.8 528.421 297.734L528.2 285.469L533.723 285.391C536.18 285.356 537.233 287.12 537.454 288.006L537.629 297.604L537.792 306.67L538.471 344.534L539.547 404.798C539.58 406.503 537.155 408.387 535.94 409.117L527.96 409.228L527.921 407.096L487.409 407.666L487.448 409.798L485.603 409.827C484.791 410.015 482.423 410.296 479.469 409.912C476.514 409.527 475.706 405.519 475.667 403.565L475.438 390.765C474.65 358.059 473.176 291.899 473.613 288.906Z" fill="#1E0B31"/>
<path d="M473.613 288.906C474.05 285.913 480.313 285.789 483.386 286.102L483.608 298.367C483.642 300.072 486.116 301.176 487.351 301.514L525.406 300.978C527.863 300.943 528.441 298.8 528.421 297.734L528.2 285.469L533.723 285.391C536.18 285.356 537.233 287.12 537.454 288.006L537.629 297.604L537.792 306.67L538.471 344.534L539.547 404.798C539.58 406.503 537.155 408.387 535.94 409.117L527.96 409.228L527.921 407.096L487.409 407.666L487.448 409.798L485.603 409.827C484.791 410.015 482.423 410.296 479.469 409.912C476.514 409.527 475.706 405.519 475.667 403.565L475.438 390.765C474.65 358.059 473.176 291.899 473.613 288.906Z" stroke="#451A67" stroke-opacity="0.2"/>
</g>
<g filter="url(#filter5_dd)">
<path d="M531.585 314.327L481.556 315.032C479.776 315.057 478.357 316.354 478.385 317.928L479.041 354.59C479.07 356.164 480.535 357.42 482.315 357.395L532.344 356.69C534.123 356.665 535.544 355.368 535.515 353.794L534.858 317.132C534.831 315.557 533.364 314.302 531.585 314.327Z" fill="#100F0F" fill-opacity="0.2"/>
</g>
<g filter="url(#filter6_dd)">
<path d="M531.153 318.676L482.168 319.367C481.456 319.377 480.888 319.896 480.899 320.525L481.442 350.832C481.454 351.462 482.04 351.964 482.752 351.954L531.737 351.263C532.449 351.253 533.017 350.735 533.005 350.105L532.462 319.799C532.451 319.169 531.865 318.667 531.153 318.676Z" fill="#1CC7D2"/>
</g>
<g filter="url(#filter7_dd)">
<path d="M492.845 364.416L483.147 364.552C482.435 364.563 481.867 365.081 481.878 365.711L481.935 368.862C481.946 369.492 482.532 369.994 483.244 369.984L492.943 369.847C493.655 369.837 494.223 369.319 494.212 368.689L494.155 365.538C494.144 364.908 493.557 364.405 492.845 364.416Z" fill="#C4C4C4" fill-opacity="0.2"/>
</g>
<g filter="url(#filter8_dd)">
<path d="M493.027 374.187L483.328 374.324C482.616 374.334 482.048 374.852 482.06 375.482L482.116 378.633C482.127 379.262 482.713 379.765 483.425 379.755L493.124 379.618C493.836 379.608 494.404 379.089 494.393 378.46L494.337 375.309C494.325 374.679 493.739 374.177 493.027 374.187Z" fill="#C4C4C4" fill-opacity="0.2"/>
</g>
<g filter="url(#filter9_dd)">
<path d="M493.201 383.966L483.502 384.103C482.79 384.113 482.222 384.632 482.233 385.261L482.29 388.412C482.301 389.042 482.887 389.544 483.599 389.534L493.298 389.398C494.01 389.387 494.578 388.869 494.567 388.239L494.51 385.088C494.499 384.459 493.913 383.957 493.201 383.966Z" fill="#C4C4C4" fill-opacity="0.2"/>
</g>
<g filter="url(#filter10_dd)">
<path d="M493.386 393.738L483.688 393.875C482.976 393.885 482.408 394.403 482.419 395.033L482.476 398.184C482.487 398.813 483.073 399.316 483.785 399.306L493.483 399.169C494.196 399.159 494.763 398.64 494.753 398.011L494.696 394.86C494.685 394.23 494.098 393.728 493.386 393.738Z" fill="#F30808"/>
</g>
<g filter="url(#filter11_dd)">
<path d="M511.781 393.478L502.082 393.615C501.37 393.625 500.802 394.143 500.813 394.773L500.87 397.924C500.881 398.553 501.467 399.056 502.18 399.046L511.878 398.91C512.59 398.899 513.158 398.38 513.147 397.751L513.09 394.6C513.079 393.97 512.493 393.468 511.781 393.478Z" fill="#C4C4C4" fill-opacity="0.2"/>
</g>
<g filter="url(#filter12_dd)">
<path d="M531.427 393.2L521.729 393.338C521.016 393.347 520.449 393.866 520.46 394.496L520.516 397.647C520.528 398.276 521.114 398.779 521.826 398.769L531.525 398.632C532.236 398.622 532.805 398.103 532.793 397.474L532.737 394.323C532.726 393.693 532.139 393.191 531.427 393.2Z" fill="#286214"/>
</g>
<g filter="url(#filter13_dd)">
<path d="M511.621 383.693L501.922 383.83C501.21 383.84 500.642 384.359 500.653 384.988L500.71 388.139C500.721 388.769 501.308 389.271 502.019 389.261L511.718 389.124C512.43 389.114 512.998 388.596 512.987 387.966L512.93 384.815C512.919 384.186 512.333 383.683 511.621 383.693Z" fill="#C4C4C4" fill-opacity="0.2"/>
</g>
<g filter="url(#filter14_dd)">
<path d="M531.263 383.427L521.564 383.564C520.853 383.574 520.285 384.093 520.296 384.722L520.352 387.873C520.363 388.503 520.95 389.005 521.662 388.995L531.36 388.858C532.073 388.849 532.64 388.33 532.629 387.7L532.573 384.549C532.561 383.92 531.975 383.417 531.263 383.427Z" fill="#C4C4C4" fill-opacity="0.2"/>
</g>
<g filter="url(#filter15_dd)">
<path d="M511.445 373.927L501.746 374.064C501.034 374.074 500.466 374.593 500.478 375.222L500.534 378.373C500.545 379.003 501.131 379.505 501.843 379.495L511.542 379.358C512.254 379.349 512.822 378.83 512.811 378.2L512.754 375.049C512.743 374.42 512.157 373.917 511.445 373.927Z" fill="#C4C4C4" fill-opacity="0.2"/>
</g>
<g filter="url(#filter16_dd)">
<path d="M531.082 373.642L521.383 373.779C520.671 373.789 520.103 374.308 520.114 374.937L520.171 378.088C520.182 378.718 520.768 379.22 521.48 379.21L531.179 379.073C531.891 379.063 532.459 378.545 532.448 377.915L532.391 374.764C532.38 374.135 531.794 373.632 531.082 373.642Z" fill="#C4C4C4" fill-opacity="0.2"/>
</g>
<g filter="url(#filter17_dd)">
<path d="M511.267 364.152L501.568 364.289C500.857 364.299 500.288 364.817 500.3 365.447L500.356 368.598C500.368 369.228 500.954 369.73 501.666 369.72L511.365 369.584C512.077 369.573 512.644 369.054 512.633 368.425L512.577 365.274C512.565 364.644 511.979 364.142 511.267 364.152Z" fill="#C4C4C4" fill-opacity="0.2"/>
</g>
<g filter="url(#filter18_dd)">
<path d="M530.914 363.879L521.215 364.016C520.503 364.025 519.935 364.544 519.947 365.174L520.003 368.324C520.014 368.954 520.6 369.457 521.312 369.446L531.011 369.31C531.723 369.299 532.291 368.781 532.28 368.151L532.224 365.001C532.212 364.371 531.626 363.869 530.914 363.879Z" fill="#C4C4C4" fill-opacity="0.2"/>
</g>
<path d="M494.768 433.919C496.462 433.895 497.815 432.66 497.788 431.16C497.761 429.66 496.365 428.464 494.67 428.488C492.975 428.512 491.623 429.747 491.65 431.247C491.676 432.747 493.072 433.943 494.768 433.919Z" fill="#C4C732"/>
<path d="M494.73 431.745C496.425 431.721 497.778 430.486 497.751 428.986C497.724 427.486 496.328 426.29 494.633 426.314C492.938 426.338 491.586 427.573 491.612 429.073C491.639 430.573 493.035 431.769 494.73 431.745Z" fill="#C78232"/>
<g filter="url(#filter19_dd)">
<path d="M487.216 337.002L487.337 340.007L486.188 340.045L485.884 332.367L489.085 332.266C490.041 332.234 490.791 332.425 491.347 332.836C491.904 333.248 492.196 333.808 492.229 334.512C492.255 335.259 492.016 335.841 491.501 336.263C490.991 336.68 490.244 336.906 489.261 336.938L487.216 337.002ZM487.185 336.174L489.242 336.108C489.853 336.09 490.317 335.948 490.636 335.683C490.954 335.416 491.099 335.042 491.078 334.562C491.062 334.104 490.883 333.744 490.547 333.479C490.212 333.215 489.755 333.088 489.188 333.095L487.061 333.164L487.185 336.174ZM495.028 332.665L495.081 334.047L496.287 334.009L496.316 334.763L495.111 334.801L495.257 338.337C495.265 338.566 495.322 338.738 495.434 338.85C495.545 338.96 495.732 339.01 495.994 339C496.119 338.997 496.296 338.969 496.517 338.92L496.545 339.712C496.26 339.79 495.98 339.835 495.703 339.844C495.211 339.86 494.834 339.74 494.567 339.486C494.307 339.23 494.171 338.858 494.149 338.374L494.009 334.836L492.831 334.875L492.802 334.121L493.979 334.082L493.926 332.7L495.028 332.665ZM500.741 334.742C500.575 334.721 500.39 334.716 500.196 334.722C499.475 334.744 498.992 335.033 498.753 335.587L498.915 339.636L497.813 339.671L497.582 333.967L498.656 333.933L498.702 334.591C499.047 334.068 499.546 333.798 500.212 333.777C500.426 333.77 500.591 333.789 500.705 333.835L500.741 334.742ZM501.427 336.646C501.403 336.088 501.509 335.58 501.735 335.128C501.972 334.671 502.303 334.316 502.738 334.058C503.173 333.802 503.675 333.665 504.243 333.647C505.123 333.618 505.844 333.864 506.405 334.385C506.974 334.905 507.275 335.611 507.311 336.504L507.31 336.574C507.333 337.129 507.231 337.632 507.005 338.083C506.783 338.53 506.459 338.882 506.018 339.143C505.578 339.405 505.07 339.544 504.488 339.563C503.615 339.59 502.894 339.344 502.326 338.824C501.765 338.303 501.465 337.601 501.432 336.714L501.427 336.646ZM502.543 336.726C502.569 337.358 502.755 337.861 503.096 338.235C503.45 338.606 503.904 338.783 504.458 338.766C505.02 338.748 505.458 338.54 505.774 338.142C506.089 337.742 506.231 337.192 506.201 336.494C506.178 335.867 505.992 335.365 505.636 334.99C505.286 334.611 504.83 334.431 504.276 334.448C503.729 334.466 503.296 334.672 502.978 335.065C502.659 335.459 502.513 336.013 502.543 336.726ZM509.623 333.581L509.69 334.295C510.163 333.731 510.797 333.436 511.594 333.41C512.959 333.366 513.673 334.025 513.737 335.385L513.887 339.156L512.785 339.19L512.633 335.415C512.612 335.005 512.497 334.702 512.276 334.513C512.062 334.323 511.73 334.236 511.293 334.248C510.933 334.261 510.621 334.356 510.357 334.533C510.093 334.71 509.89 334.939 509.748 335.219L509.91 339.283L508.808 339.318L508.583 333.612L509.623 333.581ZM516.755 339.063L515.653 339.097L515.422 333.394L516.524 333.359L516.755 339.063ZM515.27 331.884C515.268 331.724 515.314 331.59 515.42 331.476C515.525 331.364 515.686 331.305 515.901 331.298C516.116 331.291 516.28 331.341 516.397 331.446C516.512 331.551 516.571 331.684 516.579 331.842C516.587 331.999 516.535 332.133 516.426 332.243C516.319 332.352 516.158 332.41 515.943 332.417C515.728 332.424 515.564 332.376 515.449 332.273C515.336 332.172 515.278 332.042 515.27 331.884ZM521.093 338.231C521.487 338.218 521.824 338.103 522.109 337.883C522.4 337.661 522.549 337.394 522.567 337.077L523.613 337.042C523.607 337.37 523.489 337.686 523.266 337.988C523.044 338.291 522.743 338.535 522.351 338.726C521.972 338.912 521.56 339.014 521.123 339.028C520.243 339.056 519.534 338.82 518.99 338.32C518.451 337.817 518.166 337.115 518.127 336.216L518.123 336.052C518.1 335.497 518.197 334.998 518.409 334.56C518.626 334.118 518.94 333.773 519.362 333.52C519.787 333.267 520.29 333.132 520.879 333.113C521.606 333.089 522.212 333.262 522.705 333.63C523.204 333.996 523.482 334.485 523.539 335.096L522.493 335.129C522.444 334.762 522.275 334.464 521.979 334.238C521.683 334.01 521.333 333.899 520.911 333.915C520.349 333.933 519.925 334.125 519.628 334.493C519.332 334.859 519.202 335.378 519.228 336.053L519.236 336.238C519.26 336.896 519.439 337.395 519.758 337.741C520.077 338.087 520.525 338.249 521.093 338.231ZM528.63 337.166C528.618 336.902 528.497 336.701 528.261 336.567C528.036 336.424 527.635 336.312 527.07 336.225C526.512 336.135 526.062 336.024 525.727 335.886C525.392 335.75 525.146 335.581 524.977 335.383C524.815 335.183 524.725 334.945 524.717 334.662C524.696 334.195 524.904 333.792 525.335 333.455C525.772 333.117 526.338 332.938 527.038 332.914C527.765 332.893 528.366 333.04 528.834 333.358C529.303 333.679 529.554 334.096 529.573 334.617L528.464 334.652C528.451 334.386 528.312 334.161 528.044 333.976C527.782 333.791 527.458 333.704 527.07 333.715C526.668 333.728 526.353 333.817 526.137 333.978C525.915 334.14 525.806 334.347 525.817 334.596C525.828 334.831 525.937 335.006 526.155 335.118C526.372 335.23 526.755 335.333 527.307 335.425C527.866 335.516 528.317 335.632 528.669 335.771C529.019 335.91 529.275 336.086 529.449 336.295C529.623 336.5 529.715 336.757 529.732 337.061C529.747 337.573 529.538 337.988 529.087 338.313C528.634 338.635 528.044 338.806 527.309 338.829C526.789 338.846 526.328 338.78 525.923 338.632C525.518 338.483 525.199 338.267 524.962 337.986C524.728 337.701 524.602 337.391 524.589 337.053L525.692 337.018C525.727 337.344 525.882 337.6 526.164 337.784C526.451 337.965 526.822 338.047 527.273 338.034C527.695 338.019 528.026 337.935 528.273 337.779C528.518 337.621 528.641 337.415 528.63 337.166Z" fill="white"/>
</g>
<g filter="url(#filter20_dd)">
<path d="M717.692 315.994L657.074 330.804L777.99 398.055L833.812 381.852L717.692 315.994Z" fill="#3FACE4" stroke="#7F7A7A"/>
<path d="M726.621 325.633L681.539 337.828L726.644 364.083L771.89 350.917L726.621 325.633Z" fill="#0F0F0F"/>
<path d="M735.685 331.527L693.543 342.703L720.702 357.596L761.119 346.204L735.685 331.527Z" fill="#CAE621"/>
<path d="M776.644 397.095L658.52 331.184L656.139 331.877L657.025 332.582L687.943 350.521L731.768 375.427C742.211 381.093 764.923 393.527 772.226 397.929C779.529 402.331 778.999 412.385 777.821 416.861L777.459 418.996L779.036 418.599L782.255 417.416L783.538 409.848C784.327 405.19 779.271 399.405 776.644 397.095Z" fill="black"/>
<path d="M670.421 278.77L622.564 291.014L620.855 292.187L625.536 292.773C628.251 293.575 634.275 295.531 636.652 296.938C639.624 298.698 645.437 302.992 652.71 309.055C658.529 313.905 667.008 329.077 670.521 336.056L717.114 323.852L715.949 320.337L713.635 314.696L709.367 307.226C707.047 304.095 701.155 296.607 696.151 291.7C691.147 286.793 676.913 281.035 670.421 278.77Z" fill="#FFF3F3"/>
<path d="M666.407 314.336L717.67 341.361L710.766 364.279L656.219 338.825L666.407 314.336Z" fill="#4D1BB8"/>
<path d="M649.453 337.185C649.795 335.167 654.03 332.936 656.105 332.072L657.583 332.257C694.987 352.99 770.774 395.212 774.688 398.239C779.581 402.022 780.712 408.703 781.123 410.737C781.533 412.769 778.789 418.57 777.606 419.611C776.66 420.444 771.793 419.28 769.478 418.594C731.721 403.894 654.839 373.967 649.361 371.855C643.884 369.743 643.227 364.019 643.584 361.421C645.397 354.184 649.11 339.204 649.453 337.185Z" fill="#3FACE4"/>
<path d="M781.092 402.011C780.058 400.693 778.81 399.15 777.795 398.303L834.676 381.807C835.295 382.297 837.086 383.738 839.306 385.579C841.525 387.419 841.135 393.819 840.664 396.788L801.556 411.198L782.445 417.242C782.547 416.248 782.714 412.502 782.913 410.563C783.162 408.138 782.016 403.189 781.092 402.011Z" fill="black"/>
<path d="M685.776 363.561L688.089 364.649C689.047 365.099 689.673 365.602 689.969 366.157C690.271 366.715 690.218 367.273 689.81 367.829C689.554 368.18 689.199 368.425 688.745 368.565C688.297 368.708 687.797 368.746 687.244 368.68C686.701 368.612 686.158 368.45 685.617 368.196L685.226 368.011L683.895 369.829L681.881 368.881L685.776 363.561ZM686.414 367.125C686.744 367.28 687.04 367.344 687.303 367.315C687.567 367.286 687.777 367.164 687.936 366.947C688.094 366.731 688.123 366.526 688.022 366.333C687.927 366.143 687.712 365.969 687.376 365.81L686.975 365.622L686.024 366.921C686.141 366.99 686.271 367.058 686.414 367.125ZM689.795 372.688C689.248 372.43 688.916 372.101 688.8 371.7C688.688 371.294 688.8 370.861 689.136 370.402L690.24 368.894L689.643 368.614L690.345 367.654L691.082 368.001L693.019 366.947L693.961 367.391L692.891 368.852L693.973 369.361L693.271 370.32L692.189 369.811L691.226 371.126C691.132 371.255 691.109 371.379 691.155 371.498C691.202 371.617 691.315 371.719 691.496 371.804C691.663 371.883 691.838 371.923 692.021 371.926L691.302 373.044C691.09 373.048 690.841 373.017 690.555 372.951C690.278 372.884 690.025 372.796 689.795 372.688ZM694.647 369.751L696.615 370.677L696.038 371.466C696.403 371.229 696.761 371.096 697.109 371.065C697.467 371.033 697.81 371.094 698.14 371.249L697.488 372.637C696.897 372.359 696.422 372.209 696.063 372.185C695.714 372.16 695.457 372.26 695.29 372.487L693.819 374.498L691.851 373.572L694.647 369.751ZM698.42 376.746C697.898 376.5 697.494 376.196 697.208 375.833C696.929 375.473 696.783 375.089 696.772 374.681C696.771 374.272 696.914 373.871 697.201 373.479C697.487 373.088 697.855 372.796 698.304 372.606C698.757 372.41 699.246 372.324 699.771 372.349C700.302 372.378 700.829 372.515 701.351 372.76C701.879 373.009 702.283 373.313 702.563 373.674C702.853 374.032 703 374.413 703.005 374.817C703.01 375.221 702.869 375.62 702.582 376.012C702.291 376.409 701.92 376.705 701.467 376.901C701.024 377.095 700.535 377.18 700.001 377.157C699.476 377.132 698.949 376.995 698.42 376.746ZM699.288 375.595C699.543 375.715 699.808 375.735 700.083 375.657C700.368 375.576 700.601 375.412 700.782 375.164C700.963 374.917 701.026 374.676 700.972 374.443C700.927 374.207 700.777 374.029 700.522 373.909C700.268 373.789 699.998 373.77 699.713 373.85C699.438 373.929 699.21 374.092 699.029 374.34C698.848 374.587 698.779 374.828 698.824 375.064C698.878 375.298 699.033 375.475 699.288 375.595ZM704.657 374.461L706.531 375.343L705.954 376.132C706.752 375.703 707.543 375.674 708.327 376.042C708.923 376.323 709.26 376.72 709.335 377.234C709.42 377.746 709.235 378.313 708.778 378.937L707.363 380.87L705.404 379.949L706.938 377.853C707.1 377.632 707.166 377.433 707.135 377.259C707.109 377.088 706.994 376.954 706.789 376.857C706.64 376.787 706.464 376.76 706.26 376.775C706.061 376.785 705.86 376.843 705.657 376.949C705.46 377.057 705.292 377.207 705.153 377.398L703.828 379.207L701.86 378.281L704.657 374.461ZM709.859 382.128C709.337 381.882 709.031 381.552 708.943 381.136C708.854 380.72 708.986 380.272 709.337 379.793L711.081 377.411L713.058 378.341L711.365 380.653C711.278 380.772 711.247 380.882 711.273 380.984C711.309 381.084 711.388 381.163 711.513 381.222C711.637 381.28 711.787 381.31 711.963 381.309L711.279 382.432C711.078 382.456 710.849 382.438 710.591 382.379C710.339 382.323 710.095 382.239 709.859 382.128ZM712.494 377.296C712.201 377.159 712.008 376.967 711.912 376.72C711.826 376.472 711.864 376.237 712.026 376.016C712.189 375.794 712.43 375.658 712.751 375.608C713.072 375.558 713.369 375.597 713.643 375.726C713.929 375.86 714.118 376.053 714.21 376.305C714.308 376.559 714.28 376.791 714.125 377.003C713.959 377.23 713.716 377.368 713.395 377.418C713.074 377.468 712.774 377.428 712.494 377.296ZM713.927 384.042C713.43 383.808 713.049 383.518 712.784 383.172C712.53 382.823 712.405 382.446 712.41 382.039C712.421 381.636 712.568 381.24 712.851 380.854C713.123 380.482 713.482 380.197 713.929 379.999C714.375 379.8 714.855 379.703 715.369 379.709C715.883 379.715 716.376 379.83 716.849 380.052C717.452 380.336 717.852 380.663 718.049 381.033L717.119 381.978C716.829 381.724 716.569 381.542 716.339 381.434C716.04 381.293 715.751 381.254 715.471 381.317C715.195 381.374 714.968 381.524 714.791 381.766C714.614 382.008 714.559 382.243 714.628 382.469C714.696 382.695 714.873 382.876 715.159 383.01C715.408 383.128 715.732 383.221 716.132 383.292L715.517 384.457C715.241 384.446 714.981 384.407 714.737 384.34C714.489 384.279 714.22 384.18 713.927 384.042ZM717.636 385.787C716.983 385.48 716.47 385.131 716.095 384.74L716.984 383.921C717.333 384.265 717.719 384.537 718.142 384.736C718.453 384.883 718.661 384.883 718.767 384.739C718.82 384.667 718.817 384.586 718.758 384.495C718.704 384.408 718.567 384.288 718.344 384.135C717.889 383.809 717.617 383.495 717.531 383.191C717.451 382.889 717.543 382.558 717.807 382.197C718.13 381.802 718.554 381.582 719.079 381.538C719.604 381.494 720.184 381.621 720.819 381.92C721.142 382.072 721.405 382.22 721.609 382.365C721.822 382.507 721.997 382.662 722.134 382.83L721.264 383.658C721.125 383.516 720.958 383.379 720.763 383.246C720.574 383.115 720.409 383.016 720.266 382.949C720.054 382.849 719.895 382.799 719.788 382.797C719.681 382.795 719.604 382.825 719.559 382.887C719.476 383 719.573 383.153 719.85 383.346C720.355 383.694 720.673 384.038 720.801 384.376C720.93 384.713 720.864 385.06 720.604 385.416C720.306 385.824 719.896 386.064 719.374 386.137C718.862 386.208 718.283 386.092 717.636 385.787Z" fill="white"/>
<g filter="url(#filter21_dd)">
<path d="M747.994 365.764L738.648 368.954L744.379 372.248L753.231 368.995L747.994 365.764Z" fill="#302A2A"/>
<path d="M747.994 365.764L738.648 368.954L744.379 372.248L753.231 368.995L747.994 365.764Z" stroke="black"/>
</g>
<g filter="url(#filter22_dd)">
<path d="M761.923 360.768L752.578 363.958L758.308 367.252L767.161 363.999L761.923 360.768Z" fill="#302A2A"/>
<path d="M761.923 360.768L752.578 363.958L758.308 367.252L767.161 363.999L761.923 360.768Z" stroke="black"/>
</g>
<g filter="url(#filter23_dd)">
<path d="M776.833 355.895L767.488 359.085L773.219 362.379L782.071 359.126L776.833 355.895Z" fill="#302A2A"/>
<path d="M776.833 355.895L767.488 359.085L773.219 362.379L782.071 359.126L776.833 355.895Z" stroke="black"/>
</g>
<g filter="url(#filter24_dd)">
<path d="M761.294 373.377L751.949 376.567L757.68 379.861L766.532 376.609L761.294 373.377Z" fill="#302A2A"/>
<path d="M761.294 373.377L751.949 376.567L757.68 379.861L766.532 376.609L761.294 373.377Z" stroke="black"/>
</g>
<g filter="url(#filter25_dd)">
<path d="M774.73 368.316L765.385 371.507L771.115 374.8L779.968 371.548L774.73 368.316Z" fill="#302A2A"/>
<path d="M774.73 368.316L765.385 371.507L771.115 374.8L779.968 371.548L774.73 368.316Z" stroke="black"/>
</g>
<g filter="url(#filter26_dd)">
<path d="M788.654 363.326L779.309 366.517L785.039 369.81L793.891 366.558L788.654 363.326Z" fill="#302A2A"/>
<path d="M788.654 363.326L779.309 366.517L785.039 369.81L793.891 366.558L788.654 363.326Z" stroke="black"/>
</g>
<g filter="url(#filter27_dd)">
<path d="M773.114 380.799L763.77 383.99L769.5 387.283L778.352 384.031L773.114 380.799Z" fill="#FF0707"/>
<path d="M773.114 380.799L763.77 383.99L769.5 387.283L778.352 384.031L773.114 380.799Z" stroke="black"/>
</g>
<g filter="url(#filter28_dd)">
<path d="M786.617 375.355L777.271 378.546L783.002 381.839L791.854 378.587L786.617 375.355Z" fill="#302A2A"/>
<path d="M786.617 375.355L777.271 378.546L783.002 381.839L791.854 378.587L786.617 375.355Z" stroke="black"/>
</g>
<g filter="url(#filter29_dd)">
<path d="M799.066 370.17L789.721 373.36L795.451 376.654L804.304 373.402L799.066 370.17Z" fill="#21F035"/>
<path d="M799.066 370.17L789.721 373.36L795.451 376.654L804.304 373.402L799.066 370.17Z" stroke="black"/>
</g>
<path d="M700.736 350.737C703.864 351.128 706.813 349.013 707.322 346.012C707.831 343.011 705.707 340.261 702.578 339.869C699.449 339.478 696.5 341.593 695.991 344.594C695.482 347.595 697.607 350.345 700.736 350.737Z" fill="#BA8E38"/>
<path d="M706.384 353.028C709.513 353.419 712.462 351.304 712.97 348.303C713.479 345.302 711.355 342.552 708.226 342.16C705.097 341.769 702.148 343.884 701.64 346.885C701.131 349.886 703.255 352.636 706.384 353.028Z" fill="#E9ED23"/>
</g>
<path d="M945.287 268.086C945.287 268.086 922.893 263.509 910.577 271.9C898.26 280.292 926.252 299.364 926.252 299.364L945.287 268.086Z" fill="#2F2E41"/>
<path d="M968.446 377.545C967.997 376.497 967.813 375.374 967.907 374.255C968 373.137 968.369 372.05 968.987 371.072C969.606 370.094 970.458 369.247 971.485 368.593C972.512 367.939 973.688 367.492 974.93 367.284L979.456 340.32L991.349 349.776L985.228 373.931C985.482 375.806 984.953 377.698 983.74 379.25C982.527 380.802 980.715 381.905 978.646 382.35C976.577 382.796 974.397 382.552 972.517 381.667C970.637 380.781 969.188 379.315 968.446 377.545H968.446Z" fill="#FFB8B8"/>
<path d="M921.57 517.525L932.091 516.905L934.404 480.615L918.877 481.529L921.57 517.525Z" fill="#FFB8B8"/>
<path d="M952.641 525.361H919.503V514.005H939.837C943.233 514.005 946.49 515.201 948.891 517.331C951.292 519.461 952.641 522.349 952.641 525.361V525.361V525.361Z" fill="#2F2E41"/>
<path d="M939.75 504.606L949.641 507.845L968.432 475.543L953.833 470.764L939.75 504.606Z" fill="#FFB8B8"/>
<path d="M965.328 522.236L934.24 512.057L938.674 501.403L957.751 507.649C960.936 508.692 963.524 510.815 964.945 513.551C966.366 516.286 966.504 519.411 965.328 522.236V522.236L965.328 522.236Z" fill="#2F2E41"/>
<path d="M968.512 365.19C968.512 365.19 979.167 370.279 975.889 390.635L972.61 467.696L954.498 502.826L938.926 499.191L948.842 470.604L935.729 420.441L934.009 511.55L919.256 513.731L898.027 362.282L925.074 351.377L968.512 365.19Z" fill="#2F2E41"/>
<path d="M930.428 259.439C942.094 259.439 951.552 251.05 951.552 240.702C951.552 230.354 942.094 221.965 930.428 221.965C918.762 221.965 909.305 230.354 909.305 240.702C909.305 251.05 918.762 259.439 930.428 259.439Z" fill="#FFB8B8"/>
<path d="M942.696 264.502L932.041 279.769L916.469 265.956L887.356 284.032C886.335 284.665 885.586 285.586 885.23 286.645C884.875 287.704 884.936 288.838 885.401 289.863C889.879 299.685 901.347 328.718 898.028 362.283C898.028 362.283 920.157 357.194 943.105 363.01C966.054 368.826 971.791 366.645 971.791 366.645C971.791 366.645 966.054 329.568 969.332 321.571C972.052 314.938 977.591 292.798 979.401 285.44C979.571 284.746 979.486 284.02 979.156 283.372C978.827 282.723 978.271 282.186 977.571 281.839L942.696 264.502Z" fill="#6C63FF"/>
<path d="M976.726 281.926C977.627 281.812 978.544 281.993 979.306 282.435C980.068 282.877 980.622 283.55 980.865 284.328L994.739 328.767L991.46 355.666L975.888 353.485L977.527 334.583L966.053 310.593L973.627 284.39C973.811 283.753 974.204 283.18 974.755 282.741C975.307 282.303 975.992 282.019 976.726 281.926V281.926Z" fill="#6C63FF"/>
<path d="M914.095 214.398C915.504 212.278 917.546 210.543 919.996 209.387C922.445 208.231 925.208 207.698 927.978 207.847C930.875 208.169 933.702 208.871 936.367 209.93L950.176 214.708C953.749 215.944 957.663 217.459 959.213 220.57C960.652 223.458 959.579 226.794 958.492 229.801L953.325 244.094C952.753 240.859 951.771 237.692 950.398 234.652C948.897 231.664 946.523 228.908 943.242 227.415C939.655 225.783 935.427 225.817 931.401 225.988C925.698 226.232 919.497 226.875 915.445 230.443C913.295 232.47 911.836 234.996 911.24 237.728C910.654 240.446 910.358 243.207 910.358 245.974C908.02 242.409 906.05 238.663 904.473 234.782C903.175 231.892 902.436 228.829 902.286 225.722C902.15 222.588 903.323 219.52 905.578 217.104C907.911 214.792 911.713 213.543 915.056 214.459" fill="#2F2E41"/>
<path d="M902.346 388.227C902.795 387.178 902.979 386.055 902.885 384.937C902.792 383.818 902.423 382.732 901.805 381.753C901.186 380.775 900.334 379.929 899.307 379.275C898.28 378.62 897.104 378.174 895.862 377.966L891.336 351.002L879.443 360.457L885.564 384.613C885.309 386.488 885.839 388.38 887.052 389.932C888.265 391.483 890.077 392.586 892.146 393.032C894.214 393.477 896.395 393.234 898.275 392.348C900.155 391.463 901.604 389.996 902.346 388.227V388.227Z" fill="#FFB8B8"/>
<path d="M887.655 283.774C886.414 283.957 885.281 284.512 884.444 285.345C883.607 286.178 883.116 287.24 883.053 288.355L878.357 371.66H895.569L901.306 327.314L894.005 287.808C893.887 287.173 893.63 286.565 893.247 286.018C892.864 285.471 892.364 284.997 891.774 284.622C891.184 284.247 890.516 283.979 889.81 283.834C889.103 283.688 888.371 283.668 887.655 283.774V283.774Z" fill="#6C63FF"/>
<path d="M1010.23 526.155H862.529V524.549H1010.56L1010.23 526.155Z" fill="#CCCCCC"/>
<rect x="-16" y="-38" width="1298" height="784" fill="#F5EE43" fill-opacity="0.28"/>
</g>
<defs>
<filter id="filter0_d" x="213" y="120" width="875" height="516" filterUnits="userSpaceOnUse" color-interpolation-filters="sRGB">
<feFlood flood-opacity="0" result="BackgroundImageFix"/>
<feColorMatrix in="SourceAlpha" type="matrix" values="0 0 0 0 0 0 0 0 0 0 0 0 0 0 0 0 0 0 127 0"/>
<feOffset dx="10" dy="10"/>
<feGaussianBlur stdDeviation="10"/>
<feColorMatrix type="matrix" values="0 0 0 0 0 0 0 0 0 0 0 0 0 0 0 0 0 0 0.25 0"/>
<feBlend mode="normal" in2="BackgroundImageFix" result="effect1_dropShadow"/>
<feBlend mode="normal" in="SourceGraphic" in2="effect1_dropShadow" result="shape"/>
</filter>
<filter id="filter1_dd" x="466.539" y="385.482" width="122.803" height="113.055" filterUnits="userSpaceOnUse" color-interpolation-filters="sRGB">
<feFlood flood-opacity="0" result="BackgroundImageFix"/>
<feColorMatrix in="SourceAlpha" type="matrix" values="0 0 0 0 0 0 0 0 0 0 0 0 0 0 0 0 0 0 127 0"/>
<feOffset dx="10" dy="10"/>
<feGaussianBlur stdDeviation="10"/>
<feColorMatrix type="matrix" values="0 0 0 0 0 0 0 0 0 0 0 0 0 0 0 0 0 0 0.25 0"/>
<feBlend mode="normal" in2="BackgroundImageFix" result="effect1_dropShadow"/>
<feColorMatrix in="SourceAlpha" type="matrix" values="0 0 0 0 0 0 0 0 0 0 0 0 0 0 0 0 0 0 127 0"/>
<feOffset dx="20" dy="20"/>
<feGaussianBlur stdDeviation="20"/>
<feColorMatrix type="matrix" values="0 0 0 0 0 0 0 0 0 0 0 0 0 0 0 0 0 0 0.25 0"/>
<feBlend mode="normal" in2="effect1_dropShadow" result="effect2_dropShadow"/>
<feBlend mode="normal" in="SourceGraphic" in2="effect2_dropShadow" result="shape"/>
</filter>
<filter id="filter2_dd" x="514.559" y="265.279" width="88.2042" height="202.291" filterUnits="userSpaceOnUse" color-interpolation-filters="sRGB">
<feFlood flood-opacity="0" result="BackgroundImageFix"/>
<feColorMatrix in="SourceAlpha" type="matrix" values="0 0 0 0 0 0 0 0 0 0 0 0 0 0 0 0 0 0 127 0"/>
<feOffset dx="10" dy="10"/>
<feGaussianBlur stdDeviation="10"/>
<feColorMatrix type="matrix" values="0 0 0 0 0 0 0 0 0 0 0 0 0 0 0 0 0 0 0.25 0"/>
<feBlend mode="normal" in2="BackgroundImageFix" result="effect1_dropShadow"/>
<feColorMatrix in="SourceAlpha" type="matrix" values="0 0 0 0 0 0 0 0 0 0 0 0 0 0 0 0 0 0 127 0"/>
<feOffset dx="20" dy="20"/>
<feGaussianBlur stdDeviation="20"/>
<feColorMatrix type="matrix" values="0 0 0 0 0 0 0 0 0 0 0 0 0 0 0 0 0 0 0.25 0"/>
<feBlend mode="normal" in2="effect1_dropShadow" result="effect2_dropShadow"/>
<feBlend mode="normal" in="SourceGraphic" in2="effect2_dropShadow" result="shape"/>
</filter>
<filter id="filter3_dd" x="449.949" y="267.525" width="89.3623" height="202.275" filterUnits="userSpaceOnUse" color-interpolation-filters="sRGB">
<feFlood flood-opacity="0" result="BackgroundImageFix"/>
<feColorMatrix in="SourceAlpha" type="matrix" values="0 0 0 0 0 0 0 0 0 0 0 0 0 0 0 0 0 0 127 0"/>
<feOffset dx="10" dy="10"/>
<feGaussianBlur stdDeviation="10"/>
<feColorMatrix type="matrix" values="0 0 0 0 0 0 0 0 0 0 0 0 0 0 0 0 0 0 0.25 0"/>
<feBlend mode="normal" in2="BackgroundImageFix" result="effect1_dropShadow"/>
<feColorMatrix in="SourceAlpha" type="matrix" values="0 0 0 0 0 0 0 0 0 0 0 0 0 0 0 0 0 0 127 0"/>
<feOffset dx="20" dy="20"/>
<feGaussianBlur stdDeviation="20"/>
<feColorMatrix type="matrix" values="0 0 0 0 0 0 0 0 0 0 0 0 0 0 0 0 0 0 0.25 0"/>
<feBlend mode="normal" in2="effect1_dropShadow" result="effect2_dropShadow"/>
<feBlend mode="normal" in="SourceGraphic" in2="effect2_dropShadow" result="shape"/>
</filter>
<filter id="filter4_dd" x="453.014" y="264.912" width="147.053" height="205.671" filterUnits="userSpaceOnUse" color-interpolation-filters="sRGB">
<feFlood flood-opacity="0" result="BackgroundImageFix"/>
<feColorMatrix in="SourceAlpha" type="matrix" values="0 0 0 0 0 0 0 0 0 0 0 0 0 0 0 0 0 0 127 0"/>
<feOffset dx="10" dy="10"/>
<feGaussianBlur stdDeviation="10"/>
<feColorMatrix type="matrix" values="0 0 0 0 0 0 0 0 0 0 0 0 0 0 0 0 0 0 0.25 0"/>
<feBlend mode="normal" in2="BackgroundImageFix" result="effect1_dropShadow"/>
<feColorMatrix in="SourceAlpha" type="matrix" values="0 0 0 0 0 0 0 0 0 0 0 0 0 0 0 0 0 0 127 0"/>
<feOffset dx="20" dy="20"/>
<feGaussianBlur stdDeviation="20"/>
<feColorMatrix type="matrix" values="0 0 0 0 0 0 0 0 0 0 0 0 0 0 0 0 0 0 0.25 0"/>
<feBlend mode="normal" in2="effect1_dropShadow" result="effect2_dropShadow"/>
<feBlend mode="normal" in="SourceGraphic" in2="effect2_dropShadow" result="shape"/>
</filter>
<filter id="filter5_dd" x="458.385" y="294.326" width="137.131" height="123.069" filterUnits="userSpaceOnUse" color-interpolation-filters="sRGB">
<feFlood flood-opacity="0" result="BackgroundImageFix"/>
<feColorMatrix in="SourceAlpha" type="matrix" values="0 0 0 0 0 0 0 0 0 0 0 0 0 0 0 0 0 0 127 0"/>
<feOffset dx="10" dy="10"/>
<feGaussianBlur stdDeviation="10"/>
<feColorMatrix type="matrix" values="0 0 0 0 0 0 0 0 0 0 0 0 0 0 0 0 0 0 0.25 0"/>
<feBlend mode="normal" in2="BackgroundImageFix" result="effect1_dropShadow"/>
<feColorMatrix in="SourceAlpha" type="matrix" values="0 0 0 0 0 0 0 0 0 0 0 0 0 0 0 0 0 0 127 0"/>
<feOffset dx="20" dy="20"/>
<feGaussianBlur stdDeviation="20"/>
<feColorMatrix type="matrix" values="0 0 0 0 0 0 0 0 0 0 0 0 0 0 0 0 0 0 0.25 0"/>
<feBlend mode="normal" in2="effect1_dropShadow" result="effect2_dropShadow"/>
<feBlend mode="normal" in="SourceGraphic" in2="effect2_dropShadow" result="shape"/>
</filter>
<filter id="filter6_dd" x="460.898" y="298.676" width="132.106" height="113.278" filterUnits="userSpaceOnUse" color-interpolation-filters="sRGB">
<feFlood flood-opacity="0" result="BackgroundImageFix"/>
<feColorMatrix in="SourceAlpha" type="matrix" values="0 0 0 0 0 0 0 0 0 0 0 0 0 0 0 0 0 0 127 0"/>
<feOffset dx="10" dy="10"/>
<feGaussianBlur stdDeviation="10"/>
<feColorMatrix type="matrix" values="0 0 0 0 0 0 0 0 0 0 0 0 0 0 0 0 0 0 0.25 0"/>
<feBlend mode="normal" in2="BackgroundImageFix" result="effect1_dropShadow"/>
<feColorMatrix in="SourceAlpha" type="matrix" values="0 0 0 0 0 0 0 0 0 0 0 0 0 0 0 0 0 0 127 0"/>
<feOffset dx="20" dy="20"/>
<feGaussianBlur stdDeviation="20"/>
<feColorMatrix type="matrix" values="0 0 0 0 0 0 0 0 0 0 0 0 0 0 0 0 0 0 0.25 0"/>
<feBlend mode="normal" in2="effect1_dropShadow" result="effect2_dropShadow"/>
<feBlend mode="normal" in="SourceGraphic" in2="effect2_dropShadow" result="shape"/>
</filter>
<filter id="filter7_dd" x="461.877" y="344.416" width="92.334" height="85.5684" filterUnits="userSpaceOnUse" color-interpolation-filters="sRGB">
<feFlood flood-opacity="0" result="BackgroundImageFix"/>
<feColorMatrix in="SourceAlpha" type="matrix" values="0 0 0 0 0 0 0 0 0 0 0 0 0 0 0 0 0 0 127 0"/>
<feOffset dx="10" dy="10"/>
<feGaussianBlur stdDeviation="10"/>
<feColorMatrix type="matrix" values="0 0 0 0 0 0 0 0 0 0 0 0 0 0 0 0 0 0 0.25 0"/>
<feBlend mode="normal" in2="BackgroundImageFix" result="effect1_dropShadow"/>
<feColorMatrix in="SourceAlpha" type="matrix" values="0 0 0 0 0 0 0 0 0 0 0 0 0 0 0 0 0 0 127 0"/>
<feOffset dx="20" dy="20"/>
<feGaussianBlur stdDeviation="20"/>
<feColorMatrix type="matrix" values="0 0 0 0 0 0 0 0 0 0 0 0 0 0 0 0 0 0 0.25 0"/>
<feBlend mode="normal" in2="effect1_dropShadow" result="effect2_dropShadow"/>
<feBlend mode="normal" in="SourceGraphic" in2="effect2_dropShadow" result="shape"/>
</filter>
<filter id="filter8_dd" x="462.059" y="354.188" width="92.3334" height="85.5676" filterUnits="userSpaceOnUse" color-interpolation-filters="sRGB">
<feFlood flood-opacity="0" result="BackgroundImageFix"/>
<feColorMatrix in="SourceAlpha" type="matrix" values="0 0 0 0 0 0 0 0 0 0 0 0 0 0 0 0 0 0 127 0"/>
<feOffset dx="10" dy="10"/>
<feGaussianBlur stdDeviation="10"/>
<feColorMatrix type="matrix" values="0 0 0 0 0 0 0 0 0 0 0 0 0 0 0 0 0 0 0.25 0"/>
<feBlend mode="normal" in2="BackgroundImageFix" result="effect1_dropShadow"/>
<feColorMatrix in="SourceAlpha" type="matrix" values="0 0 0 0 0 0 0 0 0 0 0 0 0 0 0 0 0 0 127 0"/>
<feOffset dx="20" dy="20"/>
<feGaussianBlur stdDeviation="20"/>
<feColorMatrix type="matrix" values="0 0 0 0 0 0 0 0 0 0 0 0 0 0 0 0 0 0 0.25 0"/>
<feBlend mode="normal" in2="effect1_dropShadow" result="effect2_dropShadow"/>
<feBlend mode="normal" in="SourceGraphic" in2="effect2_dropShadow" result="shape"/>
</filter>
<filter id="filter9_dd" x="462.232" y="363.967" width="92.3339" height="85.5684" filterUnits="userSpaceOnUse" color-interpolation-filters="sRGB">
<feFlood flood-opacity="0" result="BackgroundImageFix"/>
<feColorMatrix in="SourceAlpha" type="matrix" values="0 0 0 0 0 0 0 0 0 0 0 0 0 0 0 0 0 0 127 0"/>
<feOffset dx="10" dy="10"/>
<feGaussianBlur stdDeviation="10"/>
<feColorMatrix type="matrix" values="0 0 0 0 0 0 0 0 0 0 0 0 0 0 0 0 0 0 0.25 0"/>
<feBlend mode="normal" in2="BackgroundImageFix" result="effect1_dropShadow"/>
<feColorMatrix in="SourceAlpha" type="matrix" values="0 0 0 0 0 0 0 0 0 0 0 0 0 0 0 0 0 0 127 0"/>
<feOffset dx="20" dy="20"/>
<feGaussianBlur stdDeviation="20"/>
<feColorMatrix type="matrix" values="0 0 0 0 0 0 0 0 0 0 0 0 0 0 0 0 0 0 0.25 0"/>
<feBlend mode="normal" in2="effect1_dropShadow" result="effect2_dropShadow"/>
<feBlend mode="normal" in="SourceGraphic" in2="effect2_dropShadow" result="shape"/>
</filter>
<filter id="filter10_dd" x="462.418" y="373.738" width="92.3338" height="85.5684" filterUnits="userSpaceOnUse" color-interpolation-filters="sRGB">
<feFlood flood-opacity="0" result="BackgroundImageFix"/>
<feColorMatrix in="SourceAlpha" type="matrix" values="0 0 0 0 0 0 0 0 0 0 0 0 0 0 0 0 0 0 127 0"/>
<feOffset dx="10" dy="10"/>
<feGaussianBlur stdDeviation="10"/>
<feColorMatrix type="matrix" values="0 0 0 0 0 0 0 0 0 0 0 0 0 0 0 0 0 0 0.25 0"/>
<feBlend mode="normal" in2="BackgroundImageFix" result="effect1_dropShadow"/>
<feColorMatrix in="SourceAlpha" type="matrix" values="0 0 0 0 0 0 0 0 0 0 0 0 0 0 0 0 0 0 127 0"/>
<feOffset dx="20" dy="20"/>
<feGaussianBlur stdDeviation="20"/>
<feColorMatrix type="matrix" values="0 0 0 0 0 0 0 0 0 0 0 0 0 0 0 0 0 0 0.25 0"/>
<feBlend mode="normal" in2="effect1_dropShadow" result="effect2_dropShadow"/>
<feBlend mode="normal" in="SourceGraphic" in2="effect2_dropShadow" result="shape"/>
</filter>
<filter id="filter11_dd" x="480.812" y="373.479" width="92.3339" height="85.5684" filterUnits="userSpaceOnUse" color-interpolation-filters="sRGB">
<feFlood flood-opacity="0" result="BackgroundImageFix"/>
<feColorMatrix in="SourceAlpha" type="matrix" values="0 0 0 0 0 0 0 0 0 0 0 0 0 0 0 0 0 0 127 0"/>
<feOffset dx="10" dy="10"/>
<feGaussianBlur stdDeviation="10"/>
<feColorMatrix type="matrix" values="0 0 0 0 0 0 0 0 0 0 0 0 0 0 0 0 0 0 0.25 0"/>
<feBlend mode="normal" in2="BackgroundImageFix" result="effect1_dropShadow"/>
<feColorMatrix in="SourceAlpha" type="matrix" values="0 0 0 0 0 0 0 0 0 0 0 0 0 0 0 0 0 0 127 0"/>
<feOffset dx="20" dy="20"/>
<feGaussianBlur stdDeviation="20"/>
<feColorMatrix type="matrix" values="0 0 0 0 0 0 0 0 0 0 0 0 0 0 0 0 0 0 0.25 0"/>
<feBlend mode="normal" in2="effect1_dropShadow" result="effect2_dropShadow"/>
<feBlend mode="normal" in="SourceGraphic" in2="effect2_dropShadow" result="shape"/>
</filter>
<filter id="filter12_dd" x="500.461" y="373.201" width="92.3334" height="85.5684" filterUnits="userSpaceOnUse" color-interpolation-filters="sRGB">
<feFlood flood-opacity="0" result="BackgroundImageFix"/>
<feColorMatrix in="SourceAlpha" type="matrix" values="0 0 0 0 0 0 0 0 0 0 0 0 0 0 0 0 0 0 127 0"/>
<feOffset dx="10" dy="10"/>
<feGaussianBlur stdDeviation="10"/>
<feColorMatrix type="matrix" values="0 0 0 0 0 0 0 0 0 0 0 0 0 0 0 0 0 0 0.25 0"/>
<feBlend mode="normal" in2="BackgroundImageFix" result="effect1_dropShadow"/>
<feColorMatrix in="SourceAlpha" type="matrix" values="0 0 0 0 0 0 0 0 0 0 0 0 0 0 0 0 0 0 127 0"/>
<feOffset dx="20" dy="20"/>
<feGaussianBlur stdDeviation="20"/>
<feColorMatrix type="matrix" values="0 0 0 0 0 0 0 0 0 0 0 0 0 0 0 0 0 0 0.25 0"/>
<feBlend mode="normal" in2="effect1_dropShadow" result="effect2_dropShadow"/>
<feBlend mode="normal" in="SourceGraphic" in2="effect2_dropShadow" result="shape"/>
</filter>
<filter id="filter13_dd" x="480.652" y="363.693" width="92.3338" height="85.5684" filterUnits="userSpaceOnUse" color-interpolation-filters="sRGB">
<feFlood flood-opacity="0" result="BackgroundImageFix"/>
<feColorMatrix in="SourceAlpha" type="matrix" values="0 0 0 0 0 0 0 0 0 0 0 0 0 0 0 0 0 0 127 0"/>
<feOffset dx="10" dy="10"/>
<feGaussianBlur stdDeviation="10"/>
<feColorMatrix type="matrix" values="0 0 0 0 0 0 0 0 0 0 0 0 0 0 0 0 0 0 0.25 0"/>
<feBlend mode="normal" in2="BackgroundImageFix" result="effect1_dropShadow"/>
<feColorMatrix in="SourceAlpha" type="matrix" values="0 0 0 0 0 0 0 0 0 0 0 0 0 0 0 0 0 0 127 0"/>
<feOffset dx="20" dy="20"/>
<feGaussianBlur stdDeviation="20"/>
<feColorMatrix type="matrix" values="0 0 0 0 0 0 0 0 0 0 0 0 0 0 0 0 0 0 0.25 0"/>
<feBlend mode="normal" in2="effect1_dropShadow" result="effect2_dropShadow"/>
<feBlend mode="normal" in="SourceGraphic" in2="effect2_dropShadow" result="shape"/>
</filter>
<filter id="filter14_dd" x="500.295" y="363.428" width="92.3335" height="85.5676" filterUnits="userSpaceOnUse" color-interpolation-filters="sRGB">
<feFlood flood-opacity="0" result="BackgroundImageFix"/>
<feColorMatrix in="SourceAlpha" type="matrix" values="0 0 0 0 0 0 0 0 0 0 0 0 0 0 0 0 0 0 127 0"/>
<feOffset dx="10" dy="10"/>
<feGaussianBlur stdDeviation="10"/>
<feColorMatrix type="matrix" values="0 0 0 0 0 0 0 0 0 0 0 0 0 0 0 0 0 0 0.25 0"/>
<feBlend mode="normal" in2="BackgroundImageFix" result="effect1_dropShadow"/>
<feColorMatrix in="SourceAlpha" type="matrix" values="0 0 0 0 0 0 0 0 0 0 0 0 0 0 0 0 0 0 127 0"/>
<feOffset dx="20" dy="20"/>
<feGaussianBlur stdDeviation="20"/>
<feColorMatrix type="matrix" values="0 0 0 0 0 0 0 0 0 0 0 0 0 0 0 0 0 0 0.25 0"/>
<feBlend mode="normal" in2="effect1_dropShadow" result="effect2_dropShadow"/>
<feBlend mode="normal" in="SourceGraphic" in2="effect2_dropShadow" result="shape"/>
</filter>
<filter id="filter15_dd" x="480.477" y="353.928" width="92.3334" height="85.5676" filterUnits="userSpaceOnUse" color-interpolation-filters="sRGB">
<feFlood flood-opacity="0" result="BackgroundImageFix"/>
<feColorMatrix in="SourceAlpha" type="matrix" values="0 0 0 0 0 0 0 0 0 0 0 0 0 0 0 0 0 0 127 0"/>
<feOffset dx="10" dy="10"/>
<feGaussianBlur stdDeviation="10"/>
<feColorMatrix type="matrix" values="0 0 0 0 0 0 0 0 0 0 0 0 0 0 0 0 0 0 0.25 0"/>
<feBlend mode="normal" in2="BackgroundImageFix" result="effect1_dropShadow"/>
<feColorMatrix in="SourceAlpha" type="matrix" values="0 0 0 0 0 0 0 0 0 0 0 0 0 0 0 0 0 0 127 0"/>
<feOffset dx="20" dy="20"/>
<feGaussianBlur stdDeviation="20"/>
<feColorMatrix type="matrix" values="0 0 0 0 0 0 0 0 0 0 0 0 0 0 0 0 0 0 0.25 0"/>
<feBlend mode="normal" in2="effect1_dropShadow" result="effect2_dropShadow"/>
<feBlend mode="normal" in="SourceGraphic" in2="effect2_dropShadow" result="shape"/>
</filter>
<filter id="filter16_dd" x="500.113" y="353.643" width="92.3338" height="85.5684" filterUnits="userSpaceOnUse" color-interpolation-filters="sRGB">
<feFlood flood-opacity="0" result="BackgroundImageFix"/>
<feColorMatrix in="SourceAlpha" type="matrix" values="0 0 0 0 0 0 0 0 0 0 0 0 0 0 0 0 0 0 127 0"/>
<feOffset dx="10" dy="10"/>
<feGaussianBlur stdDeviation="10"/>
<feColorMatrix type="matrix" values="0 0 0 0 0 0 0 0 0 0 0 0 0 0 0 0 0 0 0.25 0"/>
<feBlend mode="normal" in2="BackgroundImageFix" result="effect1_dropShadow"/>
<feColorMatrix in="SourceAlpha" type="matrix" values="0 0 0 0 0 0 0 0 0 0 0 0 0 0 0 0 0 0 127 0"/>
<feOffset dx="20" dy="20"/>
<feGaussianBlur stdDeviation="20"/>
<feColorMatrix type="matrix" values="0 0 0 0 0 0 0 0 0 0 0 0 0 0 0 0 0 0 0.25 0"/>
<feBlend mode="normal" in2="effect1_dropShadow" result="effect2_dropShadow"/>
<feBlend mode="normal" in="SourceGraphic" in2="effect2_dropShadow" result="shape"/>
</filter>
<filter id="filter17_dd" x="480.299" y="344.152" width="92.3338" height="85.5684" filterUnits="userSpaceOnUse" color-interpolation-filters="sRGB">
<feFlood flood-opacity="0" result="BackgroundImageFix"/>
<feColorMatrix in="SourceAlpha" type="matrix" values="0 0 0 0 0 0 0 0 0 0 0 0 0 0 0 0 0 0 127 0"/>
<feOffset dx="10" dy="10"/>
<feGaussianBlur stdDeviation="10"/>
<feColorMatrix type="matrix" values="0 0 0 0 0 0 0 0 0 0 0 0 0 0 0 0 0 0 0.25 0"/>
<feBlend mode="normal" in2="BackgroundImageFix" result="effect1_dropShadow"/>
<feColorMatrix in="SourceAlpha" type="matrix" values="0 0 0 0 0 0 0 0 0 0 0 0 0 0 0 0 0 0 127 0"/>
<feOffset dx="20" dy="20"/>
<feGaussianBlur stdDeviation="20"/>
<feColorMatrix type="matrix" values="0 0 0 0 0 0 0 0 0 0 0 0 0 0 0 0 0 0 0.25 0"/>
<feBlend mode="normal" in2="effect1_dropShadow" result="effect2_dropShadow"/>
<feBlend mode="normal" in="SourceGraphic" in2="effect2_dropShadow" result="shape"/>
</filter>
<filter id="filter18_dd" x="499.947" y="343.879" width="92.3334" height="85.5677" filterUnits="userSpaceOnUse" color-interpolation-filters="sRGB">
<feFlood flood-opacity="0" result="BackgroundImageFix"/>
<feColorMatrix in="SourceAlpha" type="matrix" values="0 0 0 0 0 0 0 0 0 0 0 0 0 0 0 0 0 0 127 0"/>
<feOffset dx="10" dy="10"/>
<feGaussianBlur stdDeviation="10"/>
<feColorMatrix type="matrix" values="0 0 0 0 0 0 0 0 0 0 0 0 0 0 0 0 0 0 0.25 0"/>
<feBlend mode="normal" in2="BackgroundImageFix" result="effect1_dropShadow"/>
<feColorMatrix in="SourceAlpha" type="matrix" values="0 0 0 0 0 0 0 0 0 0 0 0 0 0 0 0 0 0 127 0"/>
<feOffset dx="20" dy="20"/>
<feGaussianBlur stdDeviation="20"/>
<feColorMatrix type="matrix" values="0 0 0 0 0 0 0 0 0 0 0 0 0 0 0 0 0 0 0.25 0"/>
<feBlend mode="normal" in2="effect1_dropShadow" result="effect2_dropShadow"/>
<feBlend mode="normal" in="SourceGraphic" in2="effect2_dropShadow" result="shape"/>
</filter>
<filter id="filter19_dd" x="465.883" y="311.297" width="123.849" height="88.7476" filterUnits="userSpaceOnUse" color-interpolation-filters="sRGB">
<feFlood flood-opacity="0" result="BackgroundImageFix"/>
<feColorMatrix in="SourceAlpha" type="matrix" values="0 0 0 0 0 0 0 0 0 0 0 0 0 0 0 0 0 0 127 0"/>
<feOffset dx="10" dy="10"/>
<feGaussianBlur stdDeviation="10"/>
<feColorMatrix type="matrix" values="0 0 0 0 0 0 0 0 0 0 0 0 0 0 0 0 0 0 0.25 0"/>
<feBlend mode="normal" in2="BackgroundImageFix" result="effect1_dropShadow"/>
<feColorMatrix in="SourceAlpha" type="matrix" values="0 0 0 0 0 0 0 0 0 0 0 0 0 0 0 0 0 0 127 0"/>
<feOffset dx="20" dy="20"/>
<feGaussianBlur stdDeviation="20"/>
<feColorMatrix type="matrix" values="0 0 0 0 0 0 0 0 0 0 0 0 0 0 0 0 0 0 0.25 0"/>
<feBlend mode="normal" in2="effect1_dropShadow" result="effect2_dropShadow"/>
<feBlend mode="normal" in="SourceGraphic" in2="effect2_dropShadow" result="shape"/>
</filter>
<filter id="filter20_dd" x="616.855" y="278.77" width="254.173" height="171.13" filterUnits="userSpaceOnUse" color-interpolation-filters="sRGB">
<feFlood flood-opacity="0" result="BackgroundImageFix"/>
<feColorMatrix in="SourceAlpha" type="matrix" values="0 0 0 0 0 0 0 0 0 0 0 0 0 0 0 0 0 0 127 0"/>
<feOffset dy="4"/>
<feGaussianBlur stdDeviation="2"/>
<feColorMatrix type="matrix" values="0 0 0 0 0 0 0 0 0 0 0 0 0 0 0 0 0 0 0.25 0"/>
<feBlend mode="normal" in2="BackgroundImageFix" result="effect1_dropShadow"/>
<feColorMatrix in="SourceAlpha" type="matrix" values="0 0 0 0 0 0 0 0 0 0 0 0 0 0 0 0 0 0 127 0"/>
<feOffset dx="20" dy="20"/>
<feGaussianBlur stdDeviation="5"/>
<feColorMatrix type="matrix" values="0 0 0 0 0 0 0 0 0 0 0 0 0 0 0 0 0 0 0.25 0"/>
<feBlend mode="normal" in2="effect1_dropShadow" result="effect2_dropShadow"/>
<feBlend mode="normal" in="SourceGraphic" in2="effect2_dropShadow" result="shape"/>
</filter>
<filter id="filter21_dd" x="733.441" y="365.215" width="60.9271" height="47.5833" filterUnits="userSpaceOnUse" color-interpolation-filters="sRGB">
<feFlood flood-opacity="0" result="BackgroundImageFix"/>
<feColorMatrix in="SourceAlpha" type="matrix" values="0 0 0 0 0 0 0 0 0 0 0 0 0 0 0 0 0 0 127 0"/>
<feOffset dy="4"/>
<feGaussianBlur stdDeviation="2"/>
<feColorMatrix type="matrix" values="0 0 0 0 0 0 0 0 0 0 0 0 0 0 0 0 0 0 0.25 0"/>
<feBlend mode="normal" in2="BackgroundImageFix" result="effect1_dropShadow"/>
<feColorMatrix in="SourceAlpha" type="matrix" values="0 0 0 0 0 0 0 0 0 0 0 0 0 0 0 0 0 0 127 0"/>
<feOffset dx="20" dy="20"/>
<feGaussianBlur stdDeviation="10"/>
<feColorMatrix type="matrix" values="0 0 0 0 0 0 0 0 0 0 0 0 0 0 0 0 0 0 0.25 0"/>
<feBlend mode="normal" in2="effect1_dropShadow" result="effect2_dropShadow"/>
<feBlend mode="normal" in="SourceGraphic" in2="effect2_dropShadow" result="shape"/>
</filter>
<filter id="filter22_dd" x="747.371" y="360.219" width="60.927" height="47.5833" filterUnits="userSpaceOnUse" color-interpolation-filters="sRGB">
<feFlood flood-opacity="0" result="BackgroundImageFix"/>
<feColorMatrix in="SourceAlpha" type="matrix" values="0 0 0 0 0 0 0 0 0 0 0 0 0 0 0 0 0 0 127 0"/>
<feOffset dy="4"/>
<feGaussianBlur stdDeviation="2"/>
<feColorMatrix type="matrix" values="0 0 0 0 0 0 0 0 0 0 0 0 0 0 0 0 0 0 0.25 0"/>
<feBlend mode="normal" in2="BackgroundImageFix" result="effect1_dropShadow"/>
<feColorMatrix in="SourceAlpha" type="matrix" values="0 0 0 0 0 0 0 0 0 0 0 0 0 0 0 0 0 0 127 0"/>
<feOffset dx="20" dy="20"/>
<feGaussianBlur stdDeviation="10"/>
<feColorMatrix type="matrix" values="0 0 0 0 0 0 0 0 0 0 0 0 0 0 0 0 0 0 0.25 0"/>
<feBlend mode="normal" in2="effect1_dropShadow" result="effect2_dropShadow"/>
<feBlend mode="normal" in="SourceGraphic" in2="effect2_dropShadow" result="shape"/>
</filter>
<filter id="filter23_dd" x="762.281" y="355.346" width="60.927" height="47.5833" filterUnits="userSpaceOnUse" color-interpolation-filters="sRGB">
<feFlood flood-opacity="0" result="BackgroundImageFix"/>
<feColorMatrix in="SourceAlpha" type="matrix" values="0 0 0 0 0 0 0 0 0 0 0 0 0 0 0 0 0 0 127 0"/>
<feOffset dy="4"/>
<feGaussianBlur stdDeviation="2"/>
<feColorMatrix type="matrix" values="0 0 0 0 0 0 0 0 0 0 0 0 0 0 0 0 0 0 0.25 0"/>
<feBlend mode="normal" in2="BackgroundImageFix" result="effect1_dropShadow"/>
<feColorMatrix in="SourceAlpha" type="matrix" values="0 0 0 0 0 0 0 0 0 0 0 0 0 0 0 0 0 0 127 0"/>
<feOffset dx="20" dy="20"/>
<feGaussianBlur stdDeviation="10"/>
<feColorMatrix type="matrix" values="0 0 0 0 0 0 0 0 0 0 0 0 0 0 0 0 0 0 0.25 0"/>
<feBlend mode="normal" in2="effect1_dropShadow" result="effect2_dropShadow"/>
<feBlend mode="normal" in="SourceGraphic" in2="effect2_dropShadow" result="shape"/>
</filter>
<filter id="filter24_dd" x="746.742" y="372.828" width="60.927" height="47.5833" filterUnits="userSpaceOnUse" color-interpolation-filters="sRGB">
<feFlood flood-opacity="0" result="BackgroundImageFix"/>
<feColorMatrix in="SourceAlpha" type="matrix" values="0 0 0 0 0 0 0 0 0 0 0 0 0 0 0 0 0 0 127 0"/>
<feOffset dy="4"/>
<feGaussianBlur stdDeviation="2"/>
<feColorMatrix type="matrix" values="0 0 0 0 0 0 0 0 0 0 0 0 0 0 0 0 0 0 0.25 0"/>
<feBlend mode="normal" in2="BackgroundImageFix" result="effect1_dropShadow"/>
<feColorMatrix in="SourceAlpha" type="matrix" values="0 0 0 0 0 0 0 0 0 0 0 0 0 0 0 0 0 0 127 0"/>
<feOffset dx="20" dy="20"/>
<feGaussianBlur stdDeviation="10"/>
<feColorMatrix type="matrix" values="0 0 0 0 0 0 0 0 0 0 0 0 0 0 0 0 0 0 0.25 0"/>
<feBlend mode="normal" in2="effect1_dropShadow" result="effect2_dropShadow"/>
<feBlend mode="normal" in="SourceGraphic" in2="effect2_dropShadow" result="shape"/>
</filter>
<filter id="filter25_dd" x="760.178" y="367.768" width="60.927" height="47.5833" filterUnits="userSpaceOnUse" color-interpolation-filters="sRGB">
<feFlood flood-opacity="0" result="BackgroundImageFix"/>
<feColorMatrix in="SourceAlpha" type="matrix" values="0 0 0 0 0 0 0 0 0 0 0 0 0 0 0 0 0 0 127 0"/>
<feOffset dy="4"/>
<feGaussianBlur stdDeviation="2"/>
<feColorMatrix type="matrix" values="0 0 0 0 0 0 0 0 0 0 0 0 0 0 0 0 0 0 0.25 0"/>
<feBlend mode="normal" in2="BackgroundImageFix" result="effect1_dropShadow"/>
<feColorMatrix in="SourceAlpha" type="matrix" values="0 0 0 0 0 0 0 0 0 0 0 0 0 0 0 0 0 0 127 0"/>
<feOffset dx="20" dy="20"/>
<feGaussianBlur stdDeviation="10"/>
<feColorMatrix type="matrix" values="0 0 0 0 0 0 0 0 0 0 0 0 0 0 0 0 0 0 0.25 0"/>
<feBlend mode="normal" in2="effect1_dropShadow" result="effect2_dropShadow"/>
<feBlend mode="normal" in="SourceGraphic" in2="effect2_dropShadow" result="shape"/>
</filter>
<filter id="filter26_dd" x="774.102" y="362.777" width="60.9271" height="47.5833" filterUnits="userSpaceOnUse" color-interpolation-filters="sRGB">
<feFlood flood-opacity="0" result="BackgroundImageFix"/>
<feColorMatrix in="SourceAlpha" type="matrix" values="0 0 0 0 0 0 0 0 0 0 0 0 0 0 0 0 0 0 127 0"/>
<feOffset dy="4"/>
<feGaussianBlur stdDeviation="2"/>
<feColorMatrix type="matrix" values="0 0 0 0 0 0 0 0 0 0 0 0 0 0 0 0 0 0 0.25 0"/>
<feBlend mode="normal" in2="BackgroundImageFix" result="effect1_dropShadow"/>
<feColorMatrix in="SourceAlpha" type="matrix" values="0 0 0 0 0 0 0 0 0 0 0 0 0 0 0 0 0 0 127 0"/>
<feOffset dx="20" dy="20"/>
<feGaussianBlur stdDeviation="10"/>
<feColorMatrix type="matrix" values="0 0 0 0 0 0 0 0 0 0 0 0 0 0 0 0 0 0 0.25 0"/>
<feBlend mode="normal" in2="effect1_dropShadow" result="effect2_dropShadow"/>
<feBlend mode="normal" in="SourceGraphic" in2="effect2_dropShadow" result="shape"/>
</filter>
<filter id="filter27_dd" x="758.562" y="380.25" width="60.9265" height="47.5833" filterUnits="userSpaceOnUse" color-interpolation-filters="sRGB">
<feFlood flood-opacity="0" result="BackgroundImageFix"/>
<feColorMatrix in="SourceAlpha" type="matrix" values="0 0 0 0 0 0 0 0 0 0 0 0 0 0 0 0 0 0 127 0"/>
<feOffset dy="4"/>
<feGaussianBlur stdDeviation="2"/>
<feColorMatrix type="matrix" values="0 0 0 0 0 0 0 0 0 0 0 0 0 0 0 0 0 0 0.25 0"/>
<feBlend mode="normal" in2="BackgroundImageFix" result="effect1_dropShadow"/>
<feColorMatrix in="SourceAlpha" type="matrix" values="0 0 0 0 0 0 0 0 0 0 0 0 0 0 0 0 0 0 127 0"/>
<feOffset dx="20" dy="20"/>
<feGaussianBlur stdDeviation="10"/>
<feColorMatrix type="matrix" values="0 0 0 0 0 0 0 0 0 0 0 0 0 0 0 0 0 0 0.25 0"/>
<feBlend mode="normal" in2="effect1_dropShadow" result="effect2_dropShadow"/>
<feBlend mode="normal" in="SourceGraphic" in2="effect2_dropShadow" result="shape"/>
</filter>
<filter id="filter28_dd" x="772.064" y="374.807" width="60.927" height="47.5833" filterUnits="userSpaceOnUse" color-interpolation-filters="sRGB">
<feFlood flood-opacity="0" result="BackgroundImageFix"/>
<feColorMatrix in="SourceAlpha" type="matrix" values="0 0 0 0 0 0 0 0 0 0 0 0 0 0 0 0 0 0 127 0"/>
<feOffset dy="4"/>
<feGaussianBlur stdDeviation="2"/>
<feColorMatrix type="matrix" values="0 0 0 0 0 0 0 0 0 0 0 0 0 0 0 0 0 0 0.25 0"/>
<feBlend mode="normal" in2="BackgroundImageFix" result="effect1_dropShadow"/>
<feColorMatrix in="SourceAlpha" type="matrix" values="0 0 0 0 0 0 0 0 0 0 0 0 0 0 0 0 0 0 127 0"/>
<feOffset dx="20" dy="20"/>
<feGaussianBlur stdDeviation="10"/>
<feColorMatrix type="matrix" values="0 0 0 0 0 0 0 0 0 0 0 0 0 0 0 0 0 0 0.25 0"/>
<feBlend mode="normal" in2="effect1_dropShadow" result="effect2_dropShadow"/>
<feBlend mode="normal" in="SourceGraphic" in2="effect2_dropShadow" result="shape"/>
</filter>
<filter id="filter29_dd" x="784.514" y="369.621" width="60.9271" height="47.5833" filterUnits="userSpaceOnUse" color-interpolation-filters="sRGB">
<feFlood flood-opacity="0" result="BackgroundImageFix"/>
<feColorMatrix in="SourceAlpha" type="matrix" values="0 0 0 0 0 0 0 0 0 0 0 0 0 0 0 0 0 0 127 0"/>
<feOffset dy="4"/>
<feGaussianBlur stdDeviation="2"/>
<feColorMatrix type="matrix" values="0 0 0 0 0 0 0 0 0 0 0 0 0 0 0 0 0 0 0.25 0"/>
<feBlend mode="normal" in2="BackgroundImageFix" result="effect1_dropShadow"/>
<feColorMatrix in="SourceAlpha" type="matrix" values="0 0 0 0 0 0 0 0 0 0 0 0 0 0 0 0 0 0 127 0"/>
<feOffset dx="20" dy="20"/>
<feGaussianBlur stdDeviation="10"/>
<feColorMatrix type="matrix" values="0 0 0 0 0 0 0 0 0 0 0 0 0 0 0 0 0 0 0.25 0"/>
<feBlend mode="normal" in2="effect1_dropShadow" result="effect2_dropShadow"/>
<feBlend mode="normal" in="SourceGraphic" in2="effect2_dropShadow" result="shape"/>
</filter>
<clipPath id="clip0">
<rect width="1282" height="736" fill="white"/>
</clipPath>
</defs>
</svg>
