<svg width="268" height="256" viewBox="0 0 268 256" fill="none" xmlns="http://www.w3.org/2000/svg">
<path d="M80.0678 19.144L71.7395 27.5199L73.485 29.2724L84.8377 40.6485L90.951 46.7732L94.8793 50.7148L65.9523 79.8022L65.0754 80.6842C64.3461 80.5416 62.6252 79.9944 61.5789 78.9405L44.987 62.3129L36.2566 53.5565C35.6748 52.0977 34.6907 48.9941 35.3906 48.2922C36.0931 47.5842 57.0134 27.1317 67.3851 16.9954C68.7907 14.1788 73.8069 14.627 76.1371 15.2084L80.0678 19.144Z" fill="#FFF5F5"/>
<g filter="url(#filter0_dd)">
<path d="M172.349 188.86L147.024 163.482L176.429 133.91L201.751 159.294L172.349 188.86Z" fill="#D04B4B"/>
<path d="M172.349 188.86L147.024 163.482L176.429 133.91L201.751 159.294L172.349 188.86Z" stroke="black" stroke-opacity="0.2"/>
</g>
<g filter="url(#filter1_dd)">
<path d="M184.254 121.626C185.638 123.039 184.492 126.607 183.745 128.213L180.715 125.126L175.956 120.266L157.347 101.286L121.422 65.5163L89.832 33.2872L86.3595 30.6365C86.6549 30.3438 87.772 29.5864 89.8777 28.8981C91.9859 28.2038 94.5312 30.0936 95.5405 31.1245L184.254 121.626Z" fill="#B52B2B" fill-opacity="0.6"/>
<path d="M184.254 121.626C185.638 123.039 184.492 126.607 183.745 128.213L180.715 125.126L175.956 120.266L157.347 101.286L121.422 65.5163L89.832 33.2872L86.3595 30.6365C86.6549 30.3438 87.772 29.5864 89.8777 28.8981C91.9859 28.2038 94.5312 30.0936 95.5405 31.1245L184.254 121.626Z" stroke="#451A67"/>
</g>
<g filter="url(#filter2_dd)">
<path d="M44.4611 81.527C43.0625 80.1298 44.177 76.5553 44.9091 74.9427L47.9657 78.0051L52.768 82.82L71.5426 101.637L107.783 137.08L139.654 169.031L143.147 171.655C142.855 171.949 141.747 172.71 139.645 173.422C137.544 174.133 134.983 172.265 133.964 171.244L44.4611 81.527Z" fill="#B52B2B" fill-opacity="0.6"/>
<path d="M44.4611 81.527C43.0625 80.1298 44.177 76.5553 44.9091 74.9427L47.9657 78.0051L52.768 82.82L71.5426 101.637L107.783 137.08L139.654 169.031L143.147 171.655C142.855 171.949 141.747 172.71 139.645 173.422C137.544 174.133 134.983 172.265 133.964 171.244L44.4611 81.527Z" stroke="#451A67"/>
</g>
<g filter="url(#filter3_dd)">
<path d="M44.2207 76.6963C42.1702 73.9382 46.6134 69.4115 49.09 67.4958L58.9511 77.378C60.3243 78.7501 62.9916 77.9048 64.1543 77.3092L91.3277 49.9857C93.0813 48.2217 91.8058 46.0596 90.9482 45.2006L81.0871 35.3185L85.0315 31.3525C86.7851 29.5886 88.9438 30.2883 89.8046 30.8572L97.523 38.5887L104.811 45.8936L135.25 76.405L183.692 124.968C185.065 126.34 184.797 129.596 184.492 131.05L178.793 136.78L177.079 135.062L148.152 164.15L149.866 165.868L148.55 167.194C148.11 167.922 146.616 169.826 144.169 171.597C141.722 173.37 137.966 170.661 136.392 169.089L126.104 158.775C99.6652 132.563 46.2713 79.4545 44.2207 76.6963Z" fill="#1F4E4B"/>
<path d="M44.2207 76.6963C42.1702 73.9382 46.6134 69.4115 49.09 67.4958L58.9511 77.378C60.3243 78.7501 62.9916 77.9048 64.1543 77.3092L91.3277 49.9857C93.0813 48.2217 91.8058 46.0596 90.9482 45.2006L81.0871 35.3185L85.0315 31.3525C86.7851 29.5886 88.9438 30.2883 89.8046 30.8572L97.523 38.5887L104.811 45.8936L135.25 76.405L183.692 124.968C185.065 126.34 184.797 129.596 184.492 131.05L178.793 136.78L177.079 135.062L148.152 164.15L149.866 165.868L148.55 167.194C148.11 167.922 146.616 169.826 144.169 171.597C141.722 173.37 137.966 170.661 136.392 169.089L126.104 158.775C99.6652 132.563 46.2713 79.4545 44.2207 76.6963Z" stroke="#451A67"/>
</g>
<g filter="url(#filter4_dd)">
<path d="M106.359 56.5436L70.6369 92.4654C69.3661 93.7433 69.3618 95.8076 70.6272 97.0761L100.099 126.619C101.365 127.887 103.421 127.88 104.692 126.602L140.413 90.6799C141.684 89.4019 141.689 87.3377 140.423 86.0692L110.951 56.5266C109.686 55.2581 107.63 55.2657 106.359 56.5436Z" fill="#100F0F" fill-opacity="0.2"/>
</g>
<g filter="url(#filter5_dd)">
<path d="M109.483 60.4079L74.5063 95.5803C73.998 96.0915 73.9963 96.9172 74.5025 97.4246L98.8653 121.846C99.3715 122.353 100.194 122.35 100.702 121.839L135.679 86.6666C136.187 86.1554 136.189 85.3297 135.683 84.8223L111.32 60.4011C110.814 59.8937 109.991 59.8967 109.483 60.4079Z" fill="#D2C01C"/>
</g>
<g filter="url(#filter6_dd)">
<path d="M117.885 124.905L110.959 131.869C110.451 132.381 110.449 133.206 110.956 133.714L113.489 136.253C113.995 136.76 114.817 136.757 115.325 136.246L122.251 129.282C122.759 128.771 122.761 127.945 122.255 127.438L119.722 124.899C119.215 124.391 118.393 124.394 117.885 124.905Z" fill="#C4C4C4"/>
</g>
<g filter="url(#filter7_dd)">
<path d="M125.744 132.776L118.819 139.74C118.311 140.252 118.309 141.077 118.815 141.585L121.348 144.124C121.854 144.631 122.676 144.628 123.185 144.117L130.11 137.153C130.618 136.642 130.62 135.816 130.114 135.309L127.581 132.77C127.075 132.262 126.252 132.265 125.744 132.776Z" fill="#C4C4C4"/>
</g>
<g filter="url(#filter8_dd)">
<path d="M133.6 140.655L126.674 147.619C126.166 148.131 126.164 148.956 126.67 149.464L129.203 152.003C129.71 152.51 130.532 152.507 131.04 151.996L137.966 145.032C138.474 144.521 138.476 143.695 137.969 143.188L135.436 140.649C134.93 140.141 134.108 140.144 133.6 140.655Z" fill="#C4C4C4"/>
</g>
<g filter="url(#filter9_dd)">
<path d="M141.467 148.526L134.541 155.49C134.033 156.002 134.031 156.827 134.538 157.335L137.071 159.874C137.577 160.381 138.399 160.378 138.907 159.867L145.833 152.903C146.341 152.392 146.343 151.566 145.837 151.059L143.304 148.52C142.798 148.012 141.975 148.015 141.467 148.526Z" fill="#F30808"/>
</g>
<g filter="url(#filter10_dd)">
<path d="M154.6 135.316L147.674 142.28C147.166 142.791 147.164 143.616 147.67 144.124L150.203 146.663C150.71 147.17 151.532 147.167 152.04 146.656L158.966 139.692C159.474 139.181 159.476 138.355 158.969 137.848L156.437 135.309C155.93 134.801 155.108 134.804 154.6 135.316Z" fill="#C4C4C4"/>
</g>
<g filter="url(#filter11_dd)">
<path d="M168.631 121.212L161.706 128.176C161.197 128.687 161.195 129.513 161.702 130.02L164.235 132.559C164.741 133.067 165.563 133.064 166.072 132.552L172.997 125.588C173.505 125.077 173.507 124.252 173.001 123.744L170.468 121.205C169.962 120.698 169.139 120.701 168.631 121.212Z" fill="#286214"/>
</g>
<g filter="url(#filter12_dd)">
<path d="M146.748 127.429L139.823 134.393C139.314 134.904 139.313 135.73 139.819 136.237L142.352 138.776C142.858 139.283 143.68 139.28 144.189 138.769L151.114 131.805C151.622 131.294 151.624 130.468 151.118 129.961L148.585 127.422C148.079 126.915 147.256 126.918 146.748 127.429Z" fill="#C4C4C4"/>
</g>
<g filter="url(#filter13_dd)">
<path d="M160.779 113.325L153.854 120.289C153.346 120.8 153.344 121.626 153.85 122.134L156.383 124.673C156.889 125.18 157.712 125.177 158.22 124.666L165.145 117.702C165.654 117.191 165.655 116.365 165.149 115.857L162.616 113.318C162.11 112.811 161.288 112.814 160.779 113.325Z" fill="#C4C4C4"/>
</g>
<g filter="url(#filter14_dd)">
<path d="M138.893 119.55L131.967 126.514C131.459 127.025 131.457 127.851 131.963 128.358L134.496 130.897C135.003 131.405 135.825 131.402 136.333 130.89L143.259 123.926C143.767 123.415 143.769 122.589 143.262 122.082L140.729 119.543C140.223 119.036 139.401 119.039 138.893 119.55Z" fill="#C4C4C4"/>
</g>
<g filter="url(#filter15_dd)">
<path d="M152.912 105.452L145.987 112.416C145.478 112.927 145.477 113.753 145.983 114.261L148.516 116.8C149.022 117.307 149.844 117.304 150.353 116.793L157.278 109.829C157.786 109.318 157.788 108.492 157.282 107.984L154.749 105.445C154.243 104.938 153.42 104.941 152.912 105.452Z" fill="#C4C4C4"/>
</g>
<g filter="url(#filter16_dd)">
<path d="M131.033 111.675L124.108 118.639C123.6 119.15 123.598 119.976 124.104 120.483L126.637 123.022C127.143 123.53 127.966 123.527 128.474 123.015L135.399 116.051C135.907 115.54 135.909 114.714 135.403 114.207L132.87 111.668C132.364 111.161 131.541 111.164 131.033 111.675Z" fill="#C4C4C4"/>
</g>
<g filter="url(#filter17_dd)">
<path d="M145.061 97.5733L138.135 104.537C137.627 105.049 137.625 105.874 138.131 106.382L140.664 108.921C141.17 109.428 141.993 109.425 142.501 108.914L149.426 101.95C149.935 101.439 149.937 100.613 149.43 100.105L146.897 97.5665C146.391 97.0591 145.569 97.0622 145.061 97.5733Z" fill="#C4C4C4"/>
</g>
<path d="M174.245 180.434C175.455 179.217 175.459 177.251 174.254 176.042C173.048 174.834 171.089 174.841 169.879 176.058C168.669 177.275 168.665 179.241 169.87 180.45C171.076 181.658 173.035 181.651 174.245 180.434Z" fill="#C4C732"/>
<path d="M172.499 178.682C173.709 177.465 173.713 175.499 172.507 174.29C171.302 173.082 169.343 173.089 168.133 174.306C166.923 175.523 166.919 177.489 168.124 178.698C169.33 179.907 171.289 179.9 172.499 178.682Z" fill="#C78232"/>
<g filter="url(#filter18_dd)">
<path d="M92.1161 106.448L94.5806 108.822L93.7772 109.665L87.4846 103.596L89.7261 101.251C90.3936 100.55 91.0888 100.177 91.8173 100.12C92.5469 100.064 93.2011 100.316 93.7823 100.869C94.392 101.461 94.679 102.106 94.6396 102.816C94.5997 103.518 94.2362 104.23 93.5481 104.951L92.1161 106.448ZM91.4385 105.792L92.879 104.285C93.3068 103.839 93.5313 103.394 93.5533 102.952C93.5723 102.509 93.3824 102.101 92.9872 101.722C92.6129 101.359 92.1991 101.191 91.7462 101.212C91.294 101.232 90.8622 101.452 90.4565 101.858L88.9692 103.417L91.4385 105.792ZM94.3514 97.3801L95.4832 98.4735L96.3267 97.59L96.9447 98.1861L96.1013 99.0695L99.0033 101.86C99.1904 102.042 99.3681 102.142 99.5381 102.155C99.7051 102.166 99.8796 102.075 100.062 101.882C100.151 101.791 100.257 101.644 100.378 101.446L101.025 102.075C100.881 102.341 100.712 102.575 100.519 102.779C100.174 103.139 99.8061 103.306 99.4119 103.287C99.0208 103.262 98.6283 103.054 98.229 102.673L95.3294 99.8763L94.506 100.74L93.888 100.144L94.7114 99.2803L93.5796 98.1869L94.3514 97.3801ZM100.137 95.0435C100 95.1432 99.8622 95.2703 99.7263 95.4123C99.2202 95.9396 99.099 96.5174 99.364 97.1392L102.684 100.339L101.912 101.146L97.2333 96.6406L97.9851 95.8539L98.5384 96.3603C98.3755 95.6883 98.5243 95.1146 98.9897 94.6273C99.1402 94.47 99.2745 94.3696 99.3933 94.3262L100.137 95.0435ZM102.14 96.1173C101.682 95.6777 101.357 95.1867 101.162 94.6568C100.974 94.1152 100.933 93.5914 101.044 93.0732C101.157 92.5554 101.413 92.0884 101.811 91.6723C102.426 91.0274 103.143 90.7198 103.963 90.7493C104.786 90.7735 105.563 91.1383 106.295 91.8439L106.35 91.9016C106.806 92.34 107.129 92.8237 107.322 93.3526C107.515 93.8748 107.558 94.3924 107.444 94.9169C107.333 95.4422 107.074 95.9149 106.668 96.3417C106.055 96.9808 105.338 97.2886 104.515 97.2644C103.696 97.2349 102.923 96.8717 102.198 96.169L102.14 96.1173ZM103.013 95.3939C103.532 95.8932 104.064 96.1727 104.608 96.2383C105.157 96.2923 105.627 96.1164 106.016 95.7107C106.408 95.2994 106.562 94.8193 106.476 94.2704C106.388 93.7204 106.056 93.1701 105.482 92.6199C104.97 92.1233 104.438 91.844 103.883 91.7878C103.329 91.7251 102.856 91.8995 102.467 92.3052C102.085 92.7066 101.934 93.1808 102.015 93.7277C102.095 94.2746 102.428 94.8321 103.013 95.3939ZM105.66 87.8173L106.274 88.3553C106.17 87.5595 106.396 86.8694 106.954 86.2856C107.909 85.2855 108.948 85.3197 110.07 86.3881L113.161 89.3683L112.389 90.1751L109.293 87.1927C108.953 86.8717 108.631 86.7055 108.321 86.7064C108.015 86.702 107.706 86.8654 107.399 87.1846C107.147 87.4489 106.996 87.7468 106.945 88.0783C106.894 88.4098 106.927 88.7403 107.046 89.0702L110.378 92.2824L109.606 93.0892L104.931 88.578L105.66 87.8173ZM115.167 87.2661L114.395 88.0729L109.717 83.5677L110.489 82.7609L115.167 87.2661ZM108.413 82.4397C108.285 82.3102 108.212 82.168 108.199 82.0005C108.187 81.8337 108.256 81.6717 108.407 81.5144C108.557 81.357 108.716 81.2806 108.883 81.285C109.051 81.2897 109.198 81.3564 109.329 81.4799C109.459 81.6031 109.527 81.7506 109.535 81.9159C109.543 82.0812 109.473 82.2428 109.322 82.4001C109.172 82.5574 109.015 82.6346 108.851 82.6314C108.688 82.6289 108.543 82.5631 108.413 82.4397ZM117.655 83.521C117.931 83.2315 118.084 82.899 118.117 82.5178C118.152 82.1306 118.049 81.8068 117.811 81.5343L118.542 80.7674C118.797 81.0399 118.962 81.3815 119.039 81.7863C119.118 82.1914 119.092 82.6037 118.959 83.0358C118.832 83.456 118.613 83.8322 118.307 84.1519C117.691 84.7966 116.99 85.1037 116.201 85.0793C115.412 85.0479 114.65 84.675 113.911 83.9667L113.778 83.8353C113.322 83.3967 112.999 82.9202 112.805 82.4119C112.614 81.8974 112.568 81.393 112.674 80.8865C112.782 80.3806 113.04 79.9149 113.452 79.4833C113.96 78.9498 114.537 78.6628 115.185 78.6158C115.837 78.5634 116.425 78.7668 116.949 79.2261L116.218 79.9928C115.892 79.7268 115.533 79.6024 115.14 79.6259C114.745 79.6487 114.403 79.8059 114.109 80.1165C113.717 80.5277 113.56 80.9854 113.637 81.4955C113.712 82.0049 114.028 82.5208 114.581 83.0552L114.732 83.2012C115.271 83.7225 115.795 84.0056 116.3 84.0627C116.805 84.1197 117.257 83.9371 117.655 83.521ZM122.278 77.3241C122.062 77.1166 121.815 77.0377 121.537 77.0938C121.261 77.1369 120.881 77.328 120.403 77.6551C119.928 77.9764 119.513 78.2027 119.161 78.3274C118.811 78.4529 118.498 78.4882 118.219 78.4454C117.944 78.397 117.689 78.2656 117.461 78.0389C117.076 77.6715 116.909 77.1949 116.955 76.6148C117.004 76.0291 117.272 75.4828 117.761 74.9696C118.272 74.4372 118.824 74.133 119.416 74.0631C120.009 73.994 120.521 74.1595 120.947 74.5719L120.17 75.3839C119.951 75.1751 119.671 75.0896 119.33 75.1275C118.995 75.1603 118.69 75.3185 118.418 75.6025C118.137 75.897 117.978 76.192 117.949 76.4759C117.916 76.7656 118.001 77.0114 118.206 77.2073C118.4 77.3916 118.618 77.4588 118.864 77.3968C119.11 77.3348 119.469 77.1493 119.942 76.834C120.419 76.5134 120.838 76.2891 121.203 76.1554C121.568 76.0215 121.893 75.9842 122.184 76.0319C122.472 76.0787 122.742 76.2234 122.995 76.4598C123.41 76.8679 123.587 77.3553 123.517 77.9397C123.443 78.5226 123.15 79.08 122.636 79.6179C122.273 79.999 121.886 80.2718 121.475 80.4359C121.063 80.6 120.662 80.6484 120.267 80.5867C119.872 80.518 119.536 80.3533 119.259 80.0861L120.031 79.2793C120.314 79.5209 120.629 79.6207 120.979 79.5726C121.33 79.5178 121.665 79.3226 121.981 78.993C122.275 78.6827 122.449 78.3798 122.504 78.078C122.556 77.7753 122.483 77.5201 122.278 77.3241Z" fill="white"/>
</g>
<defs>
<filter id="filter0_dd" x="120.914" y="107" width="146.951" height="148.771" filterUnits="userSpaceOnUse" color-interpolation-filters="sRGB">
<feFlood flood-opacity="0" result="BackgroundImageFix"/>
<feColorMatrix in="SourceAlpha" type="matrix" values="0 0 0 0 0 0 0 0 0 0 0 0 0 0 0 0 0 0 127 0"/>
<feOffset dx="10" dy="10"/>
<feGaussianBlur stdDeviation="10"/>
<feColorMatrix type="matrix" values="0 0 0 0 0 0 0 0 0 0 0 0 0 0 0 0 0 0 0.25 0"/>
<feBlend mode="normal" in2="BackgroundImageFix" result="effect1_dropShadow"/>
<feColorMatrix in="SourceAlpha" type="matrix" values="0 0 0 0 0 0 0 0 0 0 0 0 0 0 0 0 0 0 127 0"/>
<feOffset dx="20" dy="20"/>
<feGaussianBlur stdDeviation="20"/>
<feColorMatrix type="matrix" values="0 0 0 0 0 0 0 0 0 0 0 0 0 0 0 0 0 0 0.25 0"/>
<feBlend mode="normal" in2="effect1_dropShadow" result="effect2_dropShadow"/>
<feBlend mode="normal" in="SourceGraphic" in2="effect2_dropShadow" result="shape"/>
</filter>
<filter id="filter1_dd" x="45.2305" y="6.37109" width="220.911" height="182.718" filterUnits="userSpaceOnUse" color-interpolation-filters="sRGB">
<feFlood flood-opacity="0" result="BackgroundImageFix"/>
<feColorMatrix in="SourceAlpha" type="matrix" values="0 0 0 0 0 0 0 0 0 0 0 0 0 0 0 0 0 0 127 0"/>
<feOffset dx="10" dy="10"/>
<feGaussianBlur stdDeviation="10"/>
<feColorMatrix type="matrix" values="0 0 0 0 0 0 0 0 0 0 0 0 0 0 0 0 0 0 0.25 0"/>
<feBlend mode="normal" in2="BackgroundImageFix" result="effect1_dropShadow"/>
<feColorMatrix in="SourceAlpha" type="matrix" values="0 0 0 0 0 0 0 0 0 0 0 0 0 0 0 0 0 0 127 0"/>
<feOffset dx="20" dy="20"/>
<feGaussianBlur stdDeviation="20"/>
<feColorMatrix type="matrix" values="0 0 0 0 0 0 0 0 0 0 0 0 0 0 0 0 0 0 0.25 0"/>
<feBlend mode="normal" in2="effect1_dropShadow" result="effect2_dropShadow"/>
<feBlend mode="normal" in="SourceGraphic" in2="effect2_dropShadow" result="shape"/>
</filter>
<filter id="filter2_dd" x="2.94531" y="54.0723" width="220.883" height="181.887" filterUnits="userSpaceOnUse" color-interpolation-filters="sRGB">
<feFlood flood-opacity="0" result="BackgroundImageFix"/>
<feColorMatrix in="SourceAlpha" type="matrix" values="0 0 0 0 0 0 0 0 0 0 0 0 0 0 0 0 0 0 127 0"/>
<feOffset dx="10" dy="10"/>
<feGaussianBlur stdDeviation="10"/>
<feColorMatrix type="matrix" values="0 0 0 0 0 0 0 0 0 0 0 0 0 0 0 0 0 0 0.25 0"/>
<feBlend mode="normal" in2="BackgroundImageFix" result="effect1_dropShadow"/>
<feColorMatrix in="SourceAlpha" type="matrix" values="0 0 0 0 0 0 0 0 0 0 0 0 0 0 0 0 0 0 127 0"/>
<feOffset dx="20" dy="20"/>
<feGaussianBlur stdDeviation="20"/>
<feColorMatrix type="matrix" values="0 0 0 0 0 0 0 0 0 0 0 0 0 0 0 0 0 0 0.25 0"/>
<feBlend mode="normal" in2="effect1_dropShadow" result="effect2_dropShadow"/>
<feBlend mode="normal" in="SourceGraphic" in2="effect2_dropShadow" result="shape"/>
</filter>
<filter id="filter3_dd" x="2.73438" y="0.193359" width="264.037" height="241.905" filterUnits="userSpaceOnUse" color-interpolation-filters="sRGB">
<feFlood flood-opacity="0" result="BackgroundImageFix"/>
<feColorMatrix in="SourceAlpha" type="matrix" values="0 0 0 0 0 0 0 0 0 0 0 0 0 0 0 0 0 0 127 0"/>
<feOffset dx="10" dy="10"/>
<feGaussianBlur stdDeviation="10"/>
<feColorMatrix type="matrix" values="0 0 0 0 0 0 0 0 0 0 0 0 0 0 0 0 0 0 0.25 0"/>
<feBlend mode="normal" in2="BackgroundImageFix" result="effect1_dropShadow"/>
<feColorMatrix in="SourceAlpha" type="matrix" values="0 0 0 0 0 0 0 0 0 0 0 0 0 0 0 0 0 0 127 0"/>
<feOffset dx="20" dy="20"/>
<feGaussianBlur stdDeviation="20"/>
<feColorMatrix type="matrix" values="0 0 0 0 0 0 0 0 0 0 0 0 0 0 0 0 0 0 0.25 0"/>
<feBlend mode="normal" in2="effect1_dropShadow" result="effect2_dropShadow"/>
<feBlend mode="normal" in="SourceGraphic" in2="effect2_dropShadow" result="shape"/>
</filter>
<filter id="filter4_dd" x="49.6797" y="35.5801" width="151.688" height="151.985" filterUnits="userSpaceOnUse" color-interpolation-filters="sRGB">
<feFlood flood-opacity="0" result="BackgroundImageFix"/>
<feColorMatrix in="SourceAlpha" type="matrix" values="0 0 0 0 0 0 0 0 0 0 0 0 0 0 0 0 0 0 127 0"/>
<feOffset dx="10" dy="10"/>
<feGaussianBlur stdDeviation="10"/>
<feColorMatrix type="matrix" values="0 0 0 0 0 0 0 0 0 0 0 0 0 0 0 0 0 0 0.25 0"/>
<feBlend mode="normal" in2="BackgroundImageFix" result="effect1_dropShadow"/>
<feColorMatrix in="SourceAlpha" type="matrix" values="0 0 0 0 0 0 0 0 0 0 0 0 0 0 0 0 0 0 127 0"/>
<feOffset dx="20" dy="20"/>
<feGaussianBlur stdDeviation="20"/>
<feColorMatrix type="matrix" values="0 0 0 0 0 0 0 0 0 0 0 0 0 0 0 0 0 0 0.25 0"/>
<feBlend mode="normal" in2="effect1_dropShadow" result="effect2_dropShadow"/>
<feBlend mode="normal" in="SourceGraphic" in2="effect2_dropShadow" result="shape"/>
</filter>
<filter id="filter5_dd" x="54.125" y="40.0234" width="141.937" height="142.202" filterUnits="userSpaceOnUse" color-interpolation-filters="sRGB">
<feFlood flood-opacity="0" result="BackgroundImageFix"/>
<feColorMatrix in="SourceAlpha" type="matrix" values="0 0 0 0 0 0 0 0 0 0 0 0 0 0 0 0 0 0 127 0"/>
<feOffset dx="10" dy="10"/>
<feGaussianBlur stdDeviation="10"/>
<feColorMatrix type="matrix" values="0 0 0 0 0 0 0 0 0 0 0 0 0 0 0 0 0 0 0.25 0"/>
<feBlend mode="normal" in2="BackgroundImageFix" result="effect1_dropShadow"/>
<feColorMatrix in="SourceAlpha" type="matrix" values="0 0 0 0 0 0 0 0 0 0 0 0 0 0 0 0 0 0 127 0"/>
<feOffset dx="20" dy="20"/>
<feGaussianBlur stdDeviation="20"/>
<feColorMatrix type="matrix" values="0 0 0 0 0 0 0 0 0 0 0 0 0 0 0 0 0 0 0.25 0"/>
<feBlend mode="normal" in2="effect1_dropShadow" result="effect2_dropShadow"/>
<feBlend mode="normal" in="SourceGraphic" in2="effect2_dropShadow" result="shape"/>
</filter>
<filter id="filter6_dd" x="90.5781" y="104.52" width="92.056" height="92.1112" filterUnits="userSpaceOnUse" color-interpolation-filters="sRGB">
<feFlood flood-opacity="0" result="BackgroundImageFix"/>
<feColorMatrix in="SourceAlpha" type="matrix" values="0 0 0 0 0 0 0 0 0 0 0 0 0 0 0 0 0 0 127 0"/>
<feOffset dx="10" dy="10"/>
<feGaussianBlur stdDeviation="10"/>
<feColorMatrix type="matrix" values="0 0 0 0 0 0 0 0 0 0 0 0 0 0 0 0 0 0 0.25 0"/>
<feBlend mode="normal" in2="BackgroundImageFix" result="effect1_dropShadow"/>
<feColorMatrix in="SourceAlpha" type="matrix" values="0 0 0 0 0 0 0 0 0 0 0 0 0 0 0 0 0 0 127 0"/>
<feOffset dx="20" dy="20"/>
<feGaussianBlur stdDeviation="20"/>
<feColorMatrix type="matrix" values="0 0 0 0 0 0 0 0 0 0 0 0 0 0 0 0 0 0 0.25 0"/>
<feBlend mode="normal" in2="effect1_dropShadow" result="effect2_dropShadow"/>
<feBlend mode="normal" in="SourceGraphic" in2="effect2_dropShadow" result="shape"/>
</filter>
<filter id="filter7_dd" x="98.4375" y="112.391" width="92.056" height="92.1112" filterUnits="userSpaceOnUse" color-interpolation-filters="sRGB">
<feFlood flood-opacity="0" result="BackgroundImageFix"/>
<feColorMatrix in="SourceAlpha" type="matrix" values="0 0 0 0 0 0 0 0 0 0 0 0 0 0 0 0 0 0 127 0"/>
<feOffset dx="10" dy="10"/>
<feGaussianBlur stdDeviation="10"/>
<feColorMatrix type="matrix" values="0 0 0 0 0 0 0 0 0 0 0 0 0 0 0 0 0 0 0.25 0"/>
<feBlend mode="normal" in2="BackgroundImageFix" result="effect1_dropShadow"/>
<feColorMatrix in="SourceAlpha" type="matrix" values="0 0 0 0 0 0 0 0 0 0 0 0 0 0 0 0 0 0 127 0"/>
<feOffset dx="20" dy="20"/>
<feGaussianBlur stdDeviation="20"/>
<feColorMatrix type="matrix" values="0 0 0 0 0 0 0 0 0 0 0 0 0 0 0 0 0 0 0.25 0"/>
<feBlend mode="normal" in2="effect1_dropShadow" result="effect2_dropShadow"/>
<feBlend mode="normal" in="SourceGraphic" in2="effect2_dropShadow" result="shape"/>
</filter>
<filter id="filter8_dd" x="106.293" y="120.27" width="92.056" height="92.1112" filterUnits="userSpaceOnUse" color-interpolation-filters="sRGB">
<feFlood flood-opacity="0" result="BackgroundImageFix"/>
<feColorMatrix in="SourceAlpha" type="matrix" values="0 0 0 0 0 0 0 0 0 0 0 0 0 0 0 0 0 0 127 0"/>
<feOffset dx="10" dy="10"/>
<feGaussianBlur stdDeviation="10"/>
<feColorMatrix type="matrix" values="0 0 0 0 0 0 0 0 0 0 0 0 0 0 0 0 0 0 0.25 0"/>
<feBlend mode="normal" in2="BackgroundImageFix" result="effect1_dropShadow"/>
<feColorMatrix in="SourceAlpha" type="matrix" values="0 0 0 0 0 0 0 0 0 0 0 0 0 0 0 0 0 0 127 0"/>
<feOffset dx="20" dy="20"/>
<feGaussianBlur stdDeviation="20"/>
<feColorMatrix type="matrix" values="0 0 0 0 0 0 0 0 0 0 0 0 0 0 0 0 0 0 0.25 0"/>
<feBlend mode="normal" in2="effect1_dropShadow" result="effect2_dropShadow"/>
<feBlend mode="normal" in="SourceGraphic" in2="effect2_dropShadow" result="shape"/>
</filter>
<filter id="filter9_dd" x="114.16" y="128.141" width="92.056" height="92.1112" filterUnits="userSpaceOnUse" color-interpolation-filters="sRGB">
<feFlood flood-opacity="0" result="BackgroundImageFix"/>
<feColorMatrix in="SourceAlpha" type="matrix" values="0 0 0 0 0 0 0 0 0 0 0 0 0 0 0 0 0 0 127 0"/>
<feOffset dx="10" dy="10"/>
<feGaussianBlur stdDeviation="10"/>
<feColorMatrix type="matrix" values="0 0 0 0 0 0 0 0 0 0 0 0 0 0 0 0 0 0 0.25 0"/>
<feBlend mode="normal" in2="BackgroundImageFix" result="effect1_dropShadow"/>
<feColorMatrix in="SourceAlpha" type="matrix" values="0 0 0 0 0 0 0 0 0 0 0 0 0 0 0 0 0 0 127 0"/>
<feOffset dx="20" dy="20"/>
<feGaussianBlur stdDeviation="20"/>
<feColorMatrix type="matrix" values="0 0 0 0 0 0 0 0 0 0 0 0 0 0 0 0 0 0 0.25 0"/>
<feBlend mode="normal" in2="effect1_dropShadow" result="effect2_dropShadow"/>
<feBlend mode="normal" in="SourceGraphic" in2="effect2_dropShadow" result="shape"/>
</filter>
<filter id="filter10_dd" x="127.293" y="114.93" width="92.056" height="92.1112" filterUnits="userSpaceOnUse" color-interpolation-filters="sRGB">
<feFlood flood-opacity="0" result="BackgroundImageFix"/>
<feColorMatrix in="SourceAlpha" type="matrix" values="0 0 0 0 0 0 0 0 0 0 0 0 0 0 0 0 0 0 127 0"/>
<feOffset dx="10" dy="10"/>
<feGaussianBlur stdDeviation="10"/>
<feColorMatrix type="matrix" values="0 0 0 0 0 0 0 0 0 0 0 0 0 0 0 0 0 0 0.25 0"/>
<feBlend mode="normal" in2="BackgroundImageFix" result="effect1_dropShadow"/>
<feColorMatrix in="SourceAlpha" type="matrix" values="0 0 0 0 0 0 0 0 0 0 0 0 0 0 0 0 0 0 127 0"/>
<feOffset dx="20" dy="20"/>
<feGaussianBlur stdDeviation="20"/>
<feColorMatrix type="matrix" values="0 0 0 0 0 0 0 0 0 0 0 0 0 0 0 0 0 0 0.25 0"/>
<feBlend mode="normal" in2="effect1_dropShadow" result="effect2_dropShadow"/>
<feBlend mode="normal" in="SourceGraphic" in2="effect2_dropShadow" result="shape"/>
</filter>
<filter id="filter11_dd" x="141.324" y="100.826" width="92.056" height="92.1112" filterUnits="userSpaceOnUse" color-interpolation-filters="sRGB">
<feFlood flood-opacity="0" result="BackgroundImageFix"/>
<feColorMatrix in="SourceAlpha" type="matrix" values="0 0 0 0 0 0 0 0 0 0 0 0 0 0 0 0 0 0 127 0"/>
<feOffset dx="10" dy="10"/>
<feGaussianBlur stdDeviation="10"/>
<feColorMatrix type="matrix" values="0 0 0 0 0 0 0 0 0 0 0 0 0 0 0 0 0 0 0.25 0"/>
<feBlend mode="normal" in2="BackgroundImageFix" result="effect1_dropShadow"/>
<feColorMatrix in="SourceAlpha" type="matrix" values="0 0 0 0 0 0 0 0 0 0 0 0 0 0 0 0 0 0 127 0"/>
<feOffset dx="20" dy="20"/>
<feGaussianBlur stdDeviation="20"/>
<feColorMatrix type="matrix" values="0 0 0 0 0 0 0 0 0 0 0 0 0 0 0 0 0 0 0.25 0"/>
<feBlend mode="normal" in2="effect1_dropShadow" result="effect2_dropShadow"/>
<feBlend mode="normal" in="SourceGraphic" in2="effect2_dropShadow" result="shape"/>
</filter>
<filter id="filter12_dd" x="119.441" y="107.043" width="92.056" height="92.1112" filterUnits="userSpaceOnUse" color-interpolation-filters="sRGB">
<feFlood flood-opacity="0" result="BackgroundImageFix"/>
<feColorMatrix in="SourceAlpha" type="matrix" values="0 0 0 0 0 0 0 0 0 0 0 0 0 0 0 0 0 0 127 0"/>
<feOffset dx="10" dy="10"/>
<feGaussianBlur stdDeviation="10"/>
<feColorMatrix type="matrix" values="0 0 0 0 0 0 0 0 0 0 0 0 0 0 0 0 0 0 0.25 0"/>
<feBlend mode="normal" in2="BackgroundImageFix" result="effect1_dropShadow"/>
<feColorMatrix in="SourceAlpha" type="matrix" values="0 0 0 0 0 0 0 0 0 0 0 0 0 0 0 0 0 0 127 0"/>
<feOffset dx="20" dy="20"/>
<feGaussianBlur stdDeviation="20"/>
<feColorMatrix type="matrix" values="0 0 0 0 0 0 0 0 0 0 0 0 0 0 0 0 0 0 0.25 0"/>
<feBlend mode="normal" in2="effect1_dropShadow" result="effect2_dropShadow"/>
<feBlend mode="normal" in="SourceGraphic" in2="effect2_dropShadow" result="shape"/>
</filter>
<filter id="filter13_dd" x="133.473" y="92.9395" width="92.056" height="92.1112" filterUnits="userSpaceOnUse" color-interpolation-filters="sRGB">
<feFlood flood-opacity="0" result="BackgroundImageFix"/>
<feColorMatrix in="SourceAlpha" type="matrix" values="0 0 0 0 0 0 0 0 0 0 0 0 0 0 0 0 0 0 127 0"/>
<feOffset dx="10" dy="10"/>
<feGaussianBlur stdDeviation="10"/>
<feColorMatrix type="matrix" values="0 0 0 0 0 0 0 0 0 0 0 0 0 0 0 0 0 0 0.25 0"/>
<feBlend mode="normal" in2="BackgroundImageFix" result="effect1_dropShadow"/>
<feColorMatrix in="SourceAlpha" type="matrix" values="0 0 0 0 0 0 0 0 0 0 0 0 0 0 0 0 0 0 127 0"/>
<feOffset dx="20" dy="20"/>
<feGaussianBlur stdDeviation="20"/>
<feColorMatrix type="matrix" values="0 0 0 0 0 0 0 0 0 0 0 0 0 0 0 0 0 0 0.25 0"/>
<feBlend mode="normal" in2="effect1_dropShadow" result="effect2_dropShadow"/>
<feBlend mode="normal" in="SourceGraphic" in2="effect2_dropShadow" result="shape"/>
</filter>
<filter id="filter14_dd" x="111.586" y="99.1641" width="92.056" height="92.1112" filterUnits="userSpaceOnUse" color-interpolation-filters="sRGB">
<feFlood flood-opacity="0" result="BackgroundImageFix"/>
<feColorMatrix in="SourceAlpha" type="matrix" values="0 0 0 0 0 0 0 0 0 0 0 0 0 0 0 0 0 0 127 0"/>
<feOffset dx="10" dy="10"/>
<feGaussianBlur stdDeviation="10"/>
<feColorMatrix type="matrix" values="0 0 0 0 0 0 0 0 0 0 0 0 0 0 0 0 0 0 0.25 0"/>
<feBlend mode="normal" in2="BackgroundImageFix" result="effect1_dropShadow"/>
<feColorMatrix in="SourceAlpha" type="matrix" values="0 0 0 0 0 0 0 0 0 0 0 0 0 0 0 0 0 0 127 0"/>
<feOffset dx="20" dy="20"/>
<feGaussianBlur stdDeviation="20"/>
<feColorMatrix type="matrix" values="0 0 0 0 0 0 0 0 0 0 0 0 0 0 0 0 0 0 0.25 0"/>
<feBlend mode="normal" in2="effect1_dropShadow" result="effect2_dropShadow"/>
<feBlend mode="normal" in="SourceGraphic" in2="effect2_dropShadow" result="shape"/>
</filter>
<filter id="filter15_dd" x="125.605" y="85.0664" width="92.056" height="92.1112" filterUnits="userSpaceOnUse" color-interpolation-filters="sRGB">
<feFlood flood-opacity="0" result="BackgroundImageFix"/>
<feColorMatrix in="SourceAlpha" type="matrix" values="0 0 0 0 0 0 0 0 0 0 0 0 0 0 0 0 0 0 127 0"/>
<feOffset dx="10" dy="10"/>
<feGaussianBlur stdDeviation="10"/>
<feColorMatrix type="matrix" values="0 0 0 0 0 0 0 0 0 0 0 0 0 0 0 0 0 0 0.25 0"/>
<feBlend mode="normal" in2="BackgroundImageFix" result="effect1_dropShadow"/>
<feColorMatrix in="SourceAlpha" type="matrix" values="0 0 0 0 0 0 0 0 0 0 0 0 0 0 0 0 0 0 127 0"/>
<feOffset dx="20" dy="20"/>
<feGaussianBlur stdDeviation="20"/>
<feColorMatrix type="matrix" values="0 0 0 0 0 0 0 0 0 0 0 0 0 0 0 0 0 0 0.25 0"/>
<feBlend mode="normal" in2="effect1_dropShadow" result="effect2_dropShadow"/>
<feBlend mode="normal" in="SourceGraphic" in2="effect2_dropShadow" result="shape"/>
</filter>
<filter id="filter16_dd" x="103.727" y="91.2891" width="92.056" height="92.1112" filterUnits="userSpaceOnUse" color-interpolation-filters="sRGB">
<feFlood flood-opacity="0" result="BackgroundImageFix"/>
<feColorMatrix in="SourceAlpha" type="matrix" values="0 0 0 0 0 0 0 0 0 0 0 0 0 0 0 0 0 0 127 0"/>
<feOffset dx="10" dy="10"/>
<feGaussianBlur stdDeviation="10"/>
<feColorMatrix type="matrix" values="0 0 0 0 0 0 0 0 0 0 0 0 0 0 0 0 0 0 0.25 0"/>
<feBlend mode="normal" in2="BackgroundImageFix" result="effect1_dropShadow"/>
<feColorMatrix in="SourceAlpha" type="matrix" values="0 0 0 0 0 0 0 0 0 0 0 0 0 0 0 0 0 0 127 0"/>
<feOffset dx="20" dy="20"/>
<feGaussianBlur stdDeviation="20"/>
<feColorMatrix type="matrix" values="0 0 0 0 0 0 0 0 0 0 0 0 0 0 0 0 0 0 0.25 0"/>
<feBlend mode="normal" in2="effect1_dropShadow" result="effect2_dropShadow"/>
<feBlend mode="normal" in="SourceGraphic" in2="effect2_dropShadow" result="shape"/>
</filter>
<filter id="filter17_dd" x="117.754" y="77.1875" width="92.056" height="92.1112" filterUnits="userSpaceOnUse" color-interpolation-filters="sRGB">
<feFlood flood-opacity="0" result="BackgroundImageFix"/>
<feColorMatrix in="SourceAlpha" type="matrix" values="0 0 0 0 0 0 0 0 0 0 0 0 0 0 0 0 0 0 127 0"/>
<feOffset dx="10" dy="10"/>
<feGaussianBlur stdDeviation="10"/>
<feColorMatrix type="matrix" values="0 0 0 0 0 0 0 0 0 0 0 0 0 0 0 0 0 0 0.25 0"/>
<feBlend mode="normal" in2="BackgroundImageFix" result="effect1_dropShadow"/>
<feColorMatrix in="SourceAlpha" type="matrix" values="0 0 0 0 0 0 0 0 0 0 0 0 0 0 0 0 0 0 127 0"/>
<feOffset dx="20" dy="20"/>
<feGaussianBlur stdDeviation="20"/>
<feColorMatrix type="matrix" values="0 0 0 0 0 0 0 0 0 0 0 0 0 0 0 0 0 0 0.25 0"/>
<feBlend mode="normal" in2="effect1_dropShadow" result="effect2_dropShadow"/>
<feBlend mode="normal" in="SourceGraphic" in2="effect2_dropShadow" result="shape"/>
</filter>
<filter id="filter18_dd" x="67.4844" y="54.0488" width="116.047" height="115.617" filterUnits="userSpaceOnUse" color-interpolation-filters="sRGB">
<feFlood flood-opacity="0" result="BackgroundImageFix"/>
<feColorMatrix in="SourceAlpha" type="matrix" values="0 0 0 0 0 0 0 0 0 0 0 0 0 0 0 0 0 0 127 0"/>
<feOffset dx="10" dy="10"/>
<feGaussianBlur stdDeviation="10"/>
<feColorMatrix type="matrix" values="0 0 0 0 0 0 0 0 0 0 0 0 0 0 0 0 0 0 0.25 0"/>
<feBlend mode="normal" in2="BackgroundImageFix" result="effect1_dropShadow"/>
<feColorMatrix in="SourceAlpha" type="matrix" values="0 0 0 0 0 0 0 0 0 0 0 0 0 0 0 0 0 0 127 0"/>
<feOffset dx="20" dy="20"/>
<feGaussianBlur stdDeviation="20"/>
<feColorMatrix type="matrix" values="0 0 0 0 0 0 0 0 0 0 0 0 0 0 0 0 0 0 0.25 0"/>
<feBlend mode="normal" in2="effect1_dropShadow" result="effect2_dropShadow"/>
<feBlend mode="normal" in="SourceGraphic" in2="effect2_dropShadow" result="shape"/>
</filter>
</defs>
</svg>
