<svg width="1440" height="1024" viewBox="0 0 1440 1024" fill="none" xmlns="http://www.w3.org/2000/svg">
<rect width="1440" height="1024" fill="#259E97" fill-opacity="0.28"/>
<g filter="url(#filter0_dd)">
<path d="M694.241 431.476L576.404 467.469L811.456 630.914L919.972 591.537L694.241 431.476Z" fill="#22AFC2" stroke="#7F7A7A"/>
<path d="M711.603 454.902L623.967 484.541L711.647 548.35L799.604 516.353L711.603 454.902Z" fill="#0F0F0F"/>
<path d="M729.222 469.219L647.3 496.381L700.095 532.576L778.664 504.89L729.222 469.219Z" fill="#CAE621"/>
<path d="M808.839 628.578L579.213 468.389L574.584 470.074L576.307 471.788L636.411 515.387L721.602 575.917C741.903 589.689 786.054 619.908 800.25 630.606C814.448 641.304 813.417 665.739 811.128 676.619L810.424 681.808L813.489 680.842L819.746 677.968L822.241 659.574C823.775 648.254 813.945 634.193 808.839 628.578Z" fill="black"/>
<path d="M602.352 341L509.321 370.758L506 373.61L515.098 375.034C520.376 376.983 532.086 381.737 536.708 385.157C542.485 389.433 553.784 399.87 567.924 414.605C579.235 426.393 595.719 463.266 602.547 480.228L693.12 450.567L690.855 442.025L686.357 428.316L678.061 410.16C673.55 402.551 662.098 384.351 652.37 372.426C642.642 360.5 614.972 346.506 602.352 341Z" fill="#FFF3F3"/>
<path d="M594.545 427.439L694.197 493.121L680.778 548.82L574.74 486.956L594.545 427.439Z" fill="#4D1BB8"/>
<path d="M561.589 482.971C562.254 478.066 570.487 472.644 574.52 470.545L577.393 470.995C650.105 521.384 797.431 624 805.039 631.355C814.551 640.55 816.75 656.789 817.548 661.73C818.345 666.67 813.011 680.768 810.712 683.298C808.872 685.322 799.411 682.494 794.91 680.826C721.514 645.1 572.061 572.367 561.412 567.234C550.763 562.1 549.487 548.189 550.18 541.875C553.706 524.285 560.924 487.877 561.589 482.971Z" fill="#22AFC2"/>
<path d="M817.487 640.527C815.477 637.323 813.052 633.573 811.078 631.516L921.651 591.423C922.854 592.616 926.337 596.118 930.651 600.591C934.965 605.064 934.207 620.617 933.29 627.834L857.268 662.854L820.117 677.544C820.315 675.128 820.64 666.024 821.027 661.311C821.51 655.419 819.283 643.39 817.487 640.527Z" fill="black"/>
<path d="M632.198 547.075L636.694 549.719C638.556 550.814 639.774 552.036 640.349 553.386C640.936 554.741 640.834 556.097 640.041 557.449C639.542 558.302 638.852 558.897 637.97 559.238C637.1 559.586 636.128 559.678 635.052 559.518C633.996 559.351 632.942 558.959 631.89 558.34L631.129 557.892L628.543 562.309L624.626 560.005L632.198 547.075ZM633.439 555.738C634.079 556.115 634.655 556.269 635.167 556.199C635.679 556.13 636.089 555.832 636.397 555.305C636.705 554.779 636.761 554.282 636.564 553.813C636.38 553.35 635.962 552.927 635.309 552.543L634.529 552.085L632.68 555.242C632.908 555.409 633.16 555.575 633.439 555.738ZM640.011 569.257C638.947 568.632 638.303 567.831 638.077 566.856C637.859 565.869 638.077 564.818 638.73 563.702L640.876 560.038L639.716 559.355L641.08 557.024L642.513 557.867L646.279 555.306L648.11 556.383L646.03 559.936L648.132 561.173L646.768 563.503L644.665 562.266L642.794 565.461C642.611 565.775 642.564 566.076 642.655 566.366C642.746 566.654 642.967 566.902 643.317 567.109C643.643 567.3 643.983 567.399 644.337 567.405L642.941 570.122C642.529 570.132 642.045 570.058 641.488 569.898C640.95 569.734 640.458 569.521 640.011 569.257ZM649.444 562.121L653.269 564.371L652.147 566.289C652.857 565.713 653.552 565.388 654.228 565.314C654.924 565.235 655.592 565.385 656.233 565.761L654.966 569.134C653.817 568.459 652.894 568.093 652.196 568.036C651.517 567.974 651.017 568.218 650.694 568.77L647.833 573.657L644.008 571.406L649.444 562.121ZM656.778 579.121C655.763 578.523 654.978 577.784 654.422 576.9C653.879 576.025 653.596 575.093 653.574 574.103C653.572 573.108 653.849 572.134 654.408 571.181C654.965 570.229 655.68 569.521 656.553 569.057C657.433 568.581 658.383 568.374 659.403 568.435C660.436 568.503 661.46 568.836 662.476 569.433C663.502 570.037 664.288 570.777 664.832 571.653C665.395 572.523 665.68 573.45 665.691 574.433C665.7 575.415 665.426 576.383 664.869 577.335C664.303 578.3 663.58 579.02 662.701 579.496C661.84 579.968 660.89 580.174 659.85 580.119C658.83 580.057 657.806 579.725 656.778 579.121ZM658.466 576.323C658.961 576.615 659.476 576.664 660.01 576.474C660.564 576.277 661.017 575.878 661.369 575.277C661.721 574.675 661.844 574.091 661.738 573.522C661.652 572.949 661.36 572.517 660.864 572.226C660.369 571.934 659.845 571.886 659.29 572.083C658.756 572.274 658.313 572.671 657.961 573.272C657.609 573.873 657.476 574.46 657.563 575.033C657.669 575.602 657.969 576.031 658.466 576.323ZM668.901 573.567L672.546 575.711L671.423 577.628C672.975 576.587 674.512 576.514 676.035 577.41C677.196 578.092 677.85 579.058 677.995 580.307C678.161 581.55 677.801 582.93 676.913 584.446L674.162 589.144L670.354 586.904L673.337 581.812C673.652 581.273 673.779 580.791 673.718 580.368C673.669 579.951 673.446 579.626 673.046 579.391C672.757 579.221 672.414 579.154 672.019 579.191C671.631 579.216 671.24 579.356 670.845 579.613C670.464 579.877 670.137 580.24 669.865 580.704L667.29 585.102L663.465 582.852L668.901 573.567ZM679.015 592.201C677.999 591.603 677.405 590.8 677.233 589.789C677.061 588.778 677.317 587.69 677.999 586.525L681.389 580.736L685.233 582.996L681.941 588.617C681.773 588.905 681.713 589.173 681.763 589.421C681.832 589.664 681.987 589.856 682.229 589.999C682.471 590.141 682.762 590.212 683.104 590.211L681.774 592.941C681.384 592.997 680.938 592.954 680.437 592.81C679.948 592.674 679.473 592.471 679.015 592.201ZM684.136 580.457C683.568 580.123 683.191 579.657 683.005 579.058C682.838 578.455 682.913 577.884 683.228 577.346C683.543 576.807 684.013 576.477 684.637 576.354C685.261 576.233 685.838 576.328 686.37 576.641C686.926 576.968 687.293 577.437 687.472 578.048C687.663 578.666 687.608 579.231 687.307 579.745C686.984 580.297 686.511 580.633 685.887 580.754C685.264 580.876 684.68 580.777 684.136 580.457ZM686.923 596.854C685.956 596.284 685.216 595.579 684.701 594.737C684.206 593.89 683.963 592.973 683.973 591.985C683.994 591.004 684.281 590.043 684.831 589.103C685.359 588.201 686.057 587.509 686.926 587.025C687.794 586.542 688.727 586.308 689.725 586.322C690.724 586.337 691.683 586.615 692.601 587.156C693.774 587.845 694.552 588.639 694.935 589.538L693.127 591.836C692.563 591.218 692.057 590.777 691.61 590.513C691.03 590.172 690.468 590.077 689.924 590.23C689.387 590.369 688.947 590.732 688.602 591.322C688.257 591.91 688.151 592.48 688.284 593.029C688.418 593.58 688.762 594.019 689.318 594.346C689.802 594.63 690.431 594.857 691.209 595.029L690.013 597.862C689.477 597.834 688.972 597.739 688.497 597.577C688.016 597.429 687.491 597.188 686.923 596.854ZM694.133 601.094C692.864 600.348 691.866 599.5 691.138 598.549L692.865 596.558C693.544 597.396 694.295 598.057 695.117 598.54C695.721 598.895 696.126 598.897 696.332 598.547C696.434 598.371 696.427 598.174 696.313 597.955C696.209 597.743 695.942 597.45 695.509 597.078C694.623 596.287 694.096 595.522 693.928 594.784C693.772 594.051 693.951 593.246 694.465 592.369C695.092 591.409 695.917 590.874 696.938 590.768C697.959 590.661 699.086 590.97 700.319 591.695C700.948 592.065 701.46 592.425 701.855 592.776C702.27 593.121 702.611 593.498 702.876 593.907L701.185 595.919C700.916 595.575 700.591 595.241 700.212 594.917C699.845 594.6 699.522 594.36 699.244 594.196C698.834 593.954 698.523 593.831 698.316 593.827C698.107 593.822 697.959 593.894 697.871 594.045C697.709 594.32 697.898 594.693 698.436 595.161C699.418 596.008 700.035 596.842 700.285 597.664C700.536 598.485 700.408 599.327 699.902 600.192C699.322 601.182 698.525 601.767 697.511 601.944C696.516 602.117 695.39 601.834 694.133 601.094Z" fill="white"/>
<g filter="url(#filter1_dd)">
<path d="M753.148 552.436L734.981 560.19L746.122 568.194L763.33 560.29L753.148 552.436Z" fill="#302A2A"/>
<path d="M753.148 552.436L734.981 560.19L746.122 568.194L763.33 560.29L753.148 552.436Z" stroke="black"/>
</g>
<g filter="url(#filter2_dd)">
<path d="M780.222 540.294L762.056 548.049L773.195 556.053L790.404 548.149L780.222 540.294Z" fill="#302A2A"/>
<path d="M780.222 540.294L762.056 548.049L773.195 556.053L790.404 548.149L780.222 540.294Z" stroke="black"/>
</g>
<g filter="url(#filter3_dd)">
<path d="M809.211 528.453L791.044 536.207L802.184 544.211L819.393 536.307L809.211 528.453Z" fill="#302A2A"/>
<path d="M809.211 528.453L791.044 536.207L802.184 544.211L819.393 536.307L809.211 528.453Z" stroke="black"/>
</g>
<g filter="url(#filter4_dd)">
<path d="M779.002 570.928L760.836 578.682L771.975 586.687L789.184 578.782L779.002 570.928Z" fill="#302A2A"/>
<path d="M779.002 570.928L760.836 578.682L771.975 586.687L789.184 578.782L779.002 570.928Z" stroke="black"/>
</g>
<g filter="url(#filter5_dd)">
<path d="M805.118 558.638L786.952 566.392L798.092 574.396L815.3 566.492L805.118 558.638Z" fill="#302A2A"/>
<path d="M805.118 558.638L786.952 566.392L798.092 574.396L815.3 566.492L805.118 558.638Z" stroke="black"/>
</g>
<g filter="url(#filter6_dd)">
<path d="M832.192 546.497L814.025 554.252L825.166 562.256L842.374 554.352L832.192 546.497Z" fill="#302A2A"/>
<path d="M832.192 546.497L814.025 554.252L825.166 562.256L842.374 554.352L832.192 546.497Z" stroke="black"/>
</g>
<g filter="url(#filter7_dd)">
<path d="M801.983 588.973L783.817 596.728L794.957 604.731L812.165 596.828L801.983 588.973Z" fill="#FF0707"/>
<path d="M801.983 588.973L783.817 596.728L794.957 604.731L812.165 596.828L801.983 588.973Z" stroke="black"/>
</g>
<g filter="url(#filter8_dd)">
<path d="M828.228 575.74L810.062 583.494L821.201 591.498L838.41 583.594L828.228 575.74Z" fill="#302A2A"/>
<path d="M828.228 575.74L810.062 583.494L821.201 591.498L838.41 583.594L828.228 575.74Z" stroke="black"/>
</g>
<g filter="url(#filter9_dd)">
<path d="M852.428 563.149L834.261 570.903L845.402 578.908L862.61 571.003L852.428 563.149Z" fill="#21F035"/>
<path d="M852.428 563.149L834.261 570.903L845.402 578.908L862.61 571.003L852.428 563.149Z" stroke="black"/>
</g>
<path d="M661.279 515.907C667.361 516.858 673.094 511.717 674.082 504.423C675.071 497.13 670.942 490.446 664.86 489.494C658.777 488.543 653.045 493.684 652.056 500.978C651.067 508.271 655.196 514.955 661.279 515.907Z" fill="#BA8E38"/>
<path d="M672.26 521.478C678.343 522.429 684.075 517.288 685.064 509.994C686.053 502.701 681.923 496.017 675.841 495.065C669.758 494.114 664.026 499.255 663.037 506.548C662.048 513.842 666.178 520.526 672.26 521.478Z" fill="#E9ED23"/>
</g>
<defs>
<filter id="filter0_dd" x="502" y="341" width="462" height="373" filterUnits="userSpaceOnUse" color-interpolation-filters="sRGB">
<feFlood flood-opacity="0" result="BackgroundImageFix"/>
<feColorMatrix in="SourceAlpha" type="matrix" values="0 0 0 0 0 0 0 0 0 0 0 0 0 0 0 0 0 0 127 0"/>
<feOffset dy="4"/>
<feGaussianBlur stdDeviation="2"/>
<feColorMatrix type="matrix" values="0 0 0 0 0 0 0 0 0 0 0 0 0 0 0 0 0 0 0.25 0"/>
<feBlend mode="normal" in2="BackgroundImageFix" result="effect1_dropShadow"/>
<feColorMatrix in="SourceAlpha" type="matrix" values="0 0 0 0 0 0 0 0 0 0 0 0 0 0 0 0 0 0 127 0"/>
<feOffset dx="20" dy="20"/>
<feGaussianBlur stdDeviation="5"/>
<feColorMatrix type="matrix" values="0 0 0 0 0 0 0 0 0 0 0 0 0 0 0 0 0 0 0.25 0"/>
<feBlend mode="normal" in2="effect1_dropShadow" result="effect2_dropShadow"/>
<feBlend mode="normal" in="SourceGraphic" in2="effect2_dropShadow" result="shape"/>
</filter>
<filter id="filter1_dd" x="729.969" y="551.861" width="74.3207" height="56.9093" filterUnits="userSpaceOnUse" color-interpolation-filters="sRGB">
<feFlood flood-opacity="0" result="BackgroundImageFix"/>
<feColorMatrix in="SourceAlpha" type="matrix" values="0 0 0 0 0 0 0 0 0 0 0 0 0 0 0 0 0 0 127 0"/>
<feOffset dy="4"/>
<feGaussianBlur stdDeviation="2"/>
<feColorMatrix type="matrix" values="0 0 0 0 0 0 0 0 0 0 0 0 0 0 0 0 0 0 0.25 0"/>
<feBlend mode="normal" in2="BackgroundImageFix" result="effect1_dropShadow"/>
<feColorMatrix in="SourceAlpha" type="matrix" values="0 0 0 0 0 0 0 0 0 0 0 0 0 0 0 0 0 0 127 0"/>
<feOffset dx="20" dy="20"/>
<feGaussianBlur stdDeviation="10"/>
<feColorMatrix type="matrix" values="0 0 0 0 0 0 0 0 0 0 0 0 0 0 0 0 0 0 0.25 0"/>
<feBlend mode="normal" in2="effect1_dropShadow" result="effect2_dropShadow"/>
<feBlend mode="normal" in="SourceGraphic" in2="effect2_dropShadow" result="shape"/>
</filter>
<filter id="filter2_dd" x="757.043" y="539.72" width="74.3206" height="56.9093" filterUnits="userSpaceOnUse" color-interpolation-filters="sRGB">
<feFlood flood-opacity="0" result="BackgroundImageFix"/>
<feColorMatrix in="SourceAlpha" type="matrix" values="0 0 0 0 0 0 0 0 0 0 0 0 0 0 0 0 0 0 127 0"/>
<feOffset dy="4"/>
<feGaussianBlur stdDeviation="2"/>
<feColorMatrix type="matrix" values="0 0 0 0 0 0 0 0 0 0 0 0 0 0 0 0 0 0 0.25 0"/>
<feBlend mode="normal" in2="BackgroundImageFix" result="effect1_dropShadow"/>
<feColorMatrix in="SourceAlpha" type="matrix" values="0 0 0 0 0 0 0 0 0 0 0 0 0 0 0 0 0 0 127 0"/>
<feOffset dx="20" dy="20"/>
<feGaussianBlur stdDeviation="10"/>
<feColorMatrix type="matrix" values="0 0 0 0 0 0 0 0 0 0 0 0 0 0 0 0 0 0 0.25 0"/>
<feBlend mode="normal" in2="effect1_dropShadow" result="effect2_dropShadow"/>
<feBlend mode="normal" in="SourceGraphic" in2="effect2_dropShadow" result="shape"/>
</filter>
<filter id="filter3_dd" x="786.032" y="527.878" width="74.3206" height="56.9093" filterUnits="userSpaceOnUse" color-interpolation-filters="sRGB">
<feFlood flood-opacity="0" result="BackgroundImageFix"/>
<feColorMatrix in="SourceAlpha" type="matrix" values="0 0 0 0 0 0 0 0 0 0 0 0 0 0 0 0 0 0 127 0"/>
<feOffset dy="4"/>
<feGaussianBlur stdDeviation="2"/>
<feColorMatrix type="matrix" values="0 0 0 0 0 0 0 0 0 0 0 0 0 0 0 0 0 0 0.25 0"/>
<feBlend mode="normal" in2="BackgroundImageFix" result="effect1_dropShadow"/>
<feColorMatrix in="SourceAlpha" type="matrix" values="0 0 0 0 0 0 0 0 0 0 0 0 0 0 0 0 0 0 127 0"/>
<feOffset dx="20" dy="20"/>
<feGaussianBlur stdDeviation="10"/>
<feColorMatrix type="matrix" values="0 0 0 0 0 0 0 0 0 0 0 0 0 0 0 0 0 0 0.25 0"/>
<feBlend mode="normal" in2="effect1_dropShadow" result="effect2_dropShadow"/>
<feBlend mode="normal" in="SourceGraphic" in2="effect2_dropShadow" result="shape"/>
</filter>
<filter id="filter4_dd" x="755.824" y="570.354" width="74.3206" height="56.9093" filterUnits="userSpaceOnUse" color-interpolation-filters="sRGB">
<feFlood flood-opacity="0" result="BackgroundImageFix"/>
<feColorMatrix in="SourceAlpha" type="matrix" values="0 0 0 0 0 0 0 0 0 0 0 0 0 0 0 0 0 0 127 0"/>
<feOffset dy="4"/>
<feGaussianBlur stdDeviation="2"/>
<feColorMatrix type="matrix" values="0 0 0 0 0 0 0 0 0 0 0 0 0 0 0 0 0 0 0.25 0"/>
<feBlend mode="normal" in2="BackgroundImageFix" result="effect1_dropShadow"/>
<feColorMatrix in="SourceAlpha" type="matrix" values="0 0 0 0 0 0 0 0 0 0 0 0 0 0 0 0 0 0 127 0"/>
<feOffset dx="20" dy="20"/>
<feGaussianBlur stdDeviation="10"/>
<feColorMatrix type="matrix" values="0 0 0 0 0 0 0 0 0 0 0 0 0 0 0 0 0 0 0.25 0"/>
<feBlend mode="normal" in2="effect1_dropShadow" result="effect2_dropShadow"/>
<feBlend mode="normal" in="SourceGraphic" in2="effect2_dropShadow" result="shape"/>
</filter>
<filter id="filter5_dd" x="781.94" y="558.063" width="74.3206" height="56.9093" filterUnits="userSpaceOnUse" color-interpolation-filters="sRGB">
<feFlood flood-opacity="0" result="BackgroundImageFix"/>
<feColorMatrix in="SourceAlpha" type="matrix" values="0 0 0 0 0 0 0 0 0 0 0 0 0 0 0 0 0 0 127 0"/>
<feOffset dy="4"/>
<feGaussianBlur stdDeviation="2"/>
<feColorMatrix type="matrix" values="0 0 0 0 0 0 0 0 0 0 0 0 0 0 0 0 0 0 0.25 0"/>
<feBlend mode="normal" in2="BackgroundImageFix" result="effect1_dropShadow"/>
<feColorMatrix in="SourceAlpha" type="matrix" values="0 0 0 0 0 0 0 0 0 0 0 0 0 0 0 0 0 0 127 0"/>
<feOffset dx="20" dy="20"/>
<feGaussianBlur stdDeviation="10"/>
<feColorMatrix type="matrix" values="0 0 0 0 0 0 0 0 0 0 0 0 0 0 0 0 0 0 0.25 0"/>
<feBlend mode="normal" in2="effect1_dropShadow" result="effect2_dropShadow"/>
<feBlend mode="normal" in="SourceGraphic" in2="effect2_dropShadow" result="shape"/>
</filter>
<filter id="filter6_dd" x="809.013" y="545.922" width="74.3207" height="56.9093" filterUnits="userSpaceOnUse" color-interpolation-filters="sRGB">
<feFlood flood-opacity="0" result="BackgroundImageFix"/>
<feColorMatrix in="SourceAlpha" type="matrix" values="0 0 0 0 0 0 0 0 0 0 0 0 0 0 0 0 0 0 127 0"/>
<feOffset dy="4"/>
<feGaussianBlur stdDeviation="2"/>
<feColorMatrix type="matrix" values="0 0 0 0 0 0 0 0 0 0 0 0 0 0 0 0 0 0 0.25 0"/>
<feBlend mode="normal" in2="BackgroundImageFix" result="effect1_dropShadow"/>
<feColorMatrix in="SourceAlpha" type="matrix" values="0 0 0 0 0 0 0 0 0 0 0 0 0 0 0 0 0 0 127 0"/>
<feOffset dx="20" dy="20"/>
<feGaussianBlur stdDeviation="10"/>
<feColorMatrix type="matrix" values="0 0 0 0 0 0 0 0 0 0 0 0 0 0 0 0 0 0 0.25 0"/>
<feBlend mode="normal" in2="effect1_dropShadow" result="effect2_dropShadow"/>
<feBlend mode="normal" in="SourceGraphic" in2="effect2_dropShadow" result="shape"/>
</filter>
<filter id="filter7_dd" x="778.805" y="588.397" width="74.3196" height="56.9093" filterUnits="userSpaceOnUse" color-interpolation-filters="sRGB">
<feFlood flood-opacity="0" result="BackgroundImageFix"/>
<feColorMatrix in="SourceAlpha" type="matrix" values="0 0 0 0 0 0 0 0 0 0 0 0 0 0 0 0 0 0 127 0"/>
<feOffset dy="4"/>
<feGaussianBlur stdDeviation="2"/>
<feColorMatrix type="matrix" values="0 0 0 0 0 0 0 0 0 0 0 0 0 0 0 0 0 0 0.25 0"/>
<feBlend mode="normal" in2="BackgroundImageFix" result="effect1_dropShadow"/>
<feColorMatrix in="SourceAlpha" type="matrix" values="0 0 0 0 0 0 0 0 0 0 0 0 0 0 0 0 0 0 127 0"/>
<feOffset dx="20" dy="20"/>
<feGaussianBlur stdDeviation="10"/>
<feColorMatrix type="matrix" values="0 0 0 0 0 0 0 0 0 0 0 0 0 0 0 0 0 0 0.25 0"/>
<feBlend mode="normal" in2="effect1_dropShadow" result="effect2_dropShadow"/>
<feBlend mode="normal" in="SourceGraphic" in2="effect2_dropShadow" result="shape"/>
</filter>
<filter id="filter8_dd" x="805.049" y="575.165" width="74.3206" height="56.9093" filterUnits="userSpaceOnUse" color-interpolation-filters="sRGB">
<feFlood flood-opacity="0" result="BackgroundImageFix"/>
<feColorMatrix in="SourceAlpha" type="matrix" values="0 0 0 0 0 0 0 0 0 0 0 0 0 0 0 0 0 0 127 0"/>
<feOffset dy="4"/>
<feGaussianBlur stdDeviation="2"/>
<feColorMatrix type="matrix" values="0 0 0 0 0 0 0 0 0 0 0 0 0 0 0 0 0 0 0.25 0"/>
<feBlend mode="normal" in2="BackgroundImageFix" result="effect1_dropShadow"/>
<feColorMatrix in="SourceAlpha" type="matrix" values="0 0 0 0 0 0 0 0 0 0 0 0 0 0 0 0 0 0 127 0"/>
<feOffset dx="20" dy="20"/>
<feGaussianBlur stdDeviation="10"/>
<feColorMatrix type="matrix" values="0 0 0 0 0 0 0 0 0 0 0 0 0 0 0 0 0 0 0.25 0"/>
<feBlend mode="normal" in2="effect1_dropShadow" result="effect2_dropShadow"/>
<feBlend mode="normal" in="SourceGraphic" in2="effect2_dropShadow" result="shape"/>
</filter>
<filter id="filter9_dd" x="829.249" y="562.574" width="74.3207" height="56.9093" filterUnits="userSpaceOnUse" color-interpolation-filters="sRGB">
<feFlood flood-opacity="0" result="BackgroundImageFix"/>
<feColorMatrix in="SourceAlpha" type="matrix" values="0 0 0 0 0 0 0 0 0 0 0 0 0 0 0 0 0 0 127 0"/>
<feOffset dy="4"/>
<feGaussianBlur stdDeviation="2"/>
<feColorMatrix type="matrix" values="0 0 0 0 0 0 0 0 0 0 0 0 0 0 0 0 0 0 0.25 0"/>
<feBlend mode="normal" in2="BackgroundImageFix" result="effect1_dropShadow"/>
<feColorMatrix in="SourceAlpha" type="matrix" values="0 0 0 0 0 0 0 0 0 0 0 0 0 0 0 0 0 0 127 0"/>
<feOffset dx="20" dy="20"/>
<feGaussianBlur stdDeviation="10"/>
<feColorMatrix type="matrix" values="0 0 0 0 0 0 0 0 0 0 0 0 0 0 0 0 0 0 0.25 0"/>
<feBlend mode="normal" in2="effect1_dropShadow" result="effect2_dropShadow"/>
<feBlend mode="normal" in="SourceGraphic" in2="effect2_dropShadow" result="shape"/>
</filter>
</defs>
</svg>
