<svg width="195" height="211" viewBox="0 0 195 211" fill="none" xmlns="http://www.w3.org/2000/svg">
<g filter="url(#filter0_d)">
<path d="M76.7217 158.104L76.1362 186.761" stroke="#FF1B1B" stroke-opacity="0.5"/>
</g>
<g filter="url(#filter1_d)">
<path d="M76.1374 186.761L108.507 187.172L109.094 158.518" stroke="#FF1B1B" stroke-opacity="0.5"/>
</g>
<g filter="url(#filter2_d)">
<path d="M108.316 122.3C111.389 122.339 113.912 120.795 113.952 118.853C113.991 116.909 111.533 115.301 108.46 115.261C105.388 115.223 102.865 116.766 102.824 118.711C102.784 120.653 105.244 122.261 108.316 122.3Z" fill="#121111"/>
</g>
<g filter="url(#filter3_d)">
<path d="M108.152 130.344C111.224 130.383 113.748 128.84 113.788 126.895C113.828 124.952 111.37 123.345 108.296 123.306C105.223 123.266 102.701 124.81 102.661 126.753C102.621 128.697 105.08 130.304 108.152 130.344Z" fill="#121111"/>
</g>
<g filter="url(#filter4_d)">
<path d="M69.4269 44.8654L69.4783 42.3497C69.4927 41.6809 69.7225 40.3418 70.5314 40.3522C71.3404 40.3627 73.9034 40.3964 75.0838 40.4104L78.1173 40.4487" stroke="#FF1B1B" stroke-opacity="0.5"/>
</g>
<g filter="url(#filter5_d)">
<path d="M121.565 43.517C122.914 43.5331 125.605 43.8714 125.581 45.0762C125.557 46.2833 124.96 75.4094 124.666 89.8208C125.684 89.5002 127.914 89.2592 128.69 90.8789C129.467 92.4978 128.185 132.106 127.447 151.711C127.088 152.711 125.968 154.709 124.349 154.687C122.731 154.668 120.303 154.638 119.291 154.624L121.565 43.517ZM68.9728 42.3448C67.6239 42.3264 64.9166 42.7939 64.8748 44.8053C64.8339 46.8182 64.0816 83.5182 63.7121 101.615L62.6614 152.896C62.818 153.568 63.4291 155.02 64.6357 155.436C65.841 155.854 67.1524 155.971 67.66 155.977L68.9728 42.3448Z" stroke="#FF1B1B" stroke-opacity="0.5"/>
</g>
<g filter="url(#filter6_d)">
<path d="M113.515 41.4031L113.246 54.4758L78.3455 54.0309L78.9219 25.8766C78.6271 23.8621 78.745 19.7384 81.5858 19.3725C84.4253 19.0074 91.1987 19.3287 94.2291 19.5345L105.863 19.683L116.991 19.8249" stroke="#FF1B1B" stroke-opacity="0.5"/>
</g>
<g filter="url(#filter7_d)">
<path d="M69.4379 44.3627L67.2771 149.937C67.0543 152.616 67.4173 157.986 70.6531 158.028C73.8903 158.069 76.0485 158.095 76.7223 158.105L76.785 155.088L109.661 155.508L109.599 158.524L116.175 158.608C116.852 158.448 118.319 157.628 118.767 155.623C119.21 153.617 120.461 81.0504 121.03 45.0194C121.224 43.6807 121.01 40.9941 118.582 40.9658C116.154 40.933 114.198 40.91 113.526 40.8995L113.741 30.3419L113.822 26.3207L113.905 22.2986C114.768 21.3029 116.999 19.4205 119.014 19.8498C121.029 20.2774 122.517 21.7381 123.01 22.4143L122.958 24.9287L122.927 26.4371L122.897 27.9447L113.791 27.8294" stroke="#FF1B1B" stroke-opacity="0.5"/>
</g>
<g filter="url(#filter8_d)">
<path d="M71.4021 96.6846L72.0722 64.0067C72.0887 63.1692 72.2264 61.3921 72.6399 60.997C73.053 60.5982 73.8308 60.508 74.1671 60.5132L76.1901 60.539L82.7669 60.622L115.138 61.0346C117.565 61.066 118.123 63.4191 118.1 64.5936L117.432 97.2706C117.391 99.2834 115.344 100.428 114.325 100.752L107.242 100.66L75.3777 100.254C72.9509 100.223 71.7166 97.8634 71.4021 96.6846Z" stroke="#FF1B1B" stroke-opacity="0.5"/>
</g>
<g filter="url(#filter9_d)">
<path d="M115.055 65.0578L75.0965 64.5483L74.4692 95.216L114.427 95.7266L115.055 65.0578Z" fill="#E9B42C"/>
<path d="M115.055 65.0578L75.0965 64.5483L74.4692 95.216L114.427 95.7266L115.055 65.0578Z" stroke="#FF1B1B" stroke-opacity="0.5"/>
</g>
<g filter="url(#filter10_d)">
<path d="M80.177 112.89C83.2489 112.929 85.7726 111.386 85.813 109.441C85.853 107.498 83.3936 105.892 80.3208 105.852C77.2479 105.812 74.7252 107.357 74.6852 109.299C74.6461 111.243 77.1041 112.851 80.177 112.89Z" fill="#121111"/>
</g>
<g filter="url(#filter11_d)">
<path d="M94.3412 113.071C97.414 113.111 99.9367 111.566 99.9768 109.624C100.017 107.679 97.5577 106.072 94.4849 106.033C91.413 105.994 88.8893 107.537 88.8502 109.481C88.8089 111.425 91.2683 113.031 94.3412 113.071Z" fill="#121111"/>
</g>
<g filter="url(#filter12_d)">
<path d="M108.503 113.25C111.576 113.289 114.099 111.745 114.139 109.8C114.179 107.858 111.72 106.251 108.647 106.211C105.574 106.171 103.051 107.716 103.012 109.66C102.972 111.602 105.43 113.21 108.503 113.25Z" fill="#121111"/>
</g>
<g filter="url(#filter13_d)">
<path d="M79.8289 129.985C82.9009 130.023 85.4245 128.48 85.4636 126.536C85.5049 124.593 83.0446 122.985 79.9727 122.946C76.8998 122.907 74.3771 124.451 74.3371 126.393C74.2967 128.338 76.7561 129.945 79.8289 129.985Z" fill="#121111"/>
</g>
<g filter="url(#filter14_d)">
<path d="M79.992 121.94C83.0639 121.978 85.5876 120.435 85.6267 118.491C85.668 116.548 83.2077 114.94 80.1358 114.901C77.0629 114.862 74.5402 116.406 74.5002 118.349C74.4597 120.293 76.9191 121.9 79.992 121.94Z" fill="#121111"/>
</g>
<g filter="url(#filter15_d)">
<path d="M94.154 122.118C97.2269 122.158 99.7496 120.614 99.7887 118.67C99.83 116.726 97.3706 115.12 94.2977 115.08C91.2249 115.04 88.7021 116.585 88.663 118.528C88.6217 120.472 91.0812 122.079 94.154 122.118Z" fill="#121111"/>
</g>
<g filter="url(#filter16_d)">
<path d="M93.992 130.164C97.064 130.202 99.5876 128.659 99.6267 126.715C99.6671 124.77 97.2077 123.164 94.1358 123.125C91.0629 123.085 88.5402 124.63 88.5002 126.572C88.4597 128.517 90.9192 130.124 93.992 130.164Z" fill="#121111"/>
</g>
<g filter="url(#filter17_d)">
<path d="M93.8266 138.208C96.8985 138.246 99.4221 136.703 99.4612 134.759C99.5003 132.815 97.0422 131.208 93.9703 131.169C90.8975 131.129 88.3747 132.674 88.3334 134.617C88.2943 136.561 90.7524 138.169 93.8266 138.208Z" fill="#121111"/>
</g>
<g filter="url(#filter18_d)">
<path d="M79.6636 138.027C82.7378 138.066 85.2606 136.521 85.3006 134.579C85.3397 132.635 82.8815 131.027 79.8087 130.987C76.7354 130.95 74.2118 132.493 74.1727 134.437C74.1336 136.381 76.5917 137.988 79.6636 138.027Z" fill="#121111"/>
</g>
<g filter="url(#filter19_d)">
<path d="M79.4785 147.075C82.5513 147.114 85.074 145.57 85.114 143.627C85.1531 141.684 82.695 140.076 79.6222 140.036C76.5503 139.998 74.0266 141.541 73.9862 143.486C73.9462 145.428 76.4065 147.036 79.4785 147.075Z" fill="#D51818"/>
</g>
<g filter="url(#filter20_d)">
<path d="M93.6397 147.257C96.7117 147.296 99.2366 145.752 99.2757 143.808C99.3148 141.864 96.8567 140.256 93.7835 140.219C90.7106 140.179 88.1879 141.723 88.1479 143.666C88.1088 145.61 90.5669 147.217 93.6397 147.257Z" fill="#121111"/>
</g>
<g filter="url(#filter21_d)">
<path d="M107.804 147.436C110.877 147.476 113.4 145.932 113.439 143.988C113.479 142.045 111.021 140.438 107.948 140.398C104.875 140.358 102.351 141.903 102.312 143.847C102.272 145.79 104.73 147.397 107.804 147.436Z" fill="#47D93A"/>
</g>
<g filter="url(#filter22_d)">
<path d="M107.987 138.388C111.06 138.428 113.583 136.884 113.622 134.94C113.663 132.996 111.204 131.39 108.131 131.35C105.058 131.31 102.535 132.855 102.496 134.798C102.455 136.742 104.914 138.349 107.987 138.388Z" fill="#121111"/>
</g>
<defs>
<filter id="filter0_d" x="58.5566" y="157.638" width="35.7446" height="37.5894" filterUnits="userSpaceOnUse" color-interpolation-filters="sRGB">
<feFlood flood-opacity="0" result="BackgroundImageFix"/>
<feColorMatrix in="SourceAlpha" type="matrix" values="0 0 0 0 0 0 0 0 0 0 0 0 0 0 0 0 0 0 127 0"/>
<feOffset dy="4"/>
<feGaussianBlur stdDeviation="2"/>
<feColorMatrix type="matrix" values="0 0 0 0 0 0 0 0 0 0 0 0 0 0 0 0 0 0 0.25 0"/>
<feBlend mode="normal" in2="BackgroundImageFix" result="effect1_dropShadow"/>
<feBlend mode="normal" in="SourceGraphic" in2="effect1_dropShadow" result="shape"/>
</filter>
<filter id="filter1_d" x="68.9102" y="158.051" width="57.9882" height="52.7078" filterUnits="userSpaceOnUse" color-interpolation-filters="sRGB">
<feFlood flood-opacity="0" result="BackgroundImageFix"/>
<feColorMatrix in="SourceAlpha" type="matrix" values="0 0 0 0 0 0 0 0 0 0 0 0 0 0 0 0 0 0 127 0"/>
<feOffset dy="4"/>
<feGaussianBlur stdDeviation="2"/>
<feColorMatrix type="matrix" values="0 0 0 0 0 0 0 0 0 0 0 0 0 0 0 0 0 0 0.25 0"/>
<feBlend mode="normal" in2="BackgroundImageFix" result="effect1_dropShadow"/>
<feBlend mode="normal" in="SourceGraphic" in2="effect1_dropShadow" result="shape"/>
</filter>
<filter id="filter2_d" x="97.8467" y="112.439" width="21.0819" height="20.6834" filterUnits="userSpaceOnUse" color-interpolation-filters="sRGB">
<feFlood flood-opacity="0" result="BackgroundImageFix"/>
<feColorMatrix in="SourceAlpha" type="matrix" values="0 0 0 0 0 0 0 0 0 0 0 0 0 0 0 0 0 0 127 0"/>
<feOffset dy="4"/>
<feGaussianBlur stdDeviation="2"/>
<feColorMatrix type="matrix" values="0 0 0 0 0 0 0 0 0 0 0 0 0 0 0 0 0 0 0.25 0"/>
<feBlend mode="normal" in2="BackgroundImageFix" result="effect1_dropShadow"/>
<feBlend mode="normal" in="SourceGraphic" in2="effect1_dropShadow" result="shape"/>
</filter>
<filter id="filter3_d" x="97.6836" y="120.482" width="21.0821" height="20.6835" filterUnits="userSpaceOnUse" color-interpolation-filters="sRGB">
<feFlood flood-opacity="0" result="BackgroundImageFix"/>
<feColorMatrix in="SourceAlpha" type="matrix" values="0 0 0 0 0 0 0 0 0 0 0 0 0 0 0 0 0 0 127 0"/>
<feOffset dy="4"/>
<feGaussianBlur stdDeviation="2"/>
<feColorMatrix type="matrix" values="0 0 0 0 0 0 0 0 0 0 0 0 0 0 0 0 0 0 0.25 0"/>
<feBlend mode="normal" in2="BackgroundImageFix" result="effect1_dropShadow"/>
<feBlend mode="normal" in="SourceGraphic" in2="effect1_dropShadow" result="shape"/>
</filter>
<filter id="filter4_d" x="62.9961" y="36.1982" width="19.5867" height="18.2144" filterUnits="userSpaceOnUse" color-interpolation-filters="sRGB">
<feFlood flood-opacity="0" result="BackgroundImageFix"/>
<feColorMatrix in="SourceAlpha" type="matrix" values="0 0 0 0 0 0 0 0 0 0 0 0 0 0 0 0 0 0 127 0"/>
<feOffset dy="4"/>
<feGaussianBlur stdDeviation="2"/>
<feColorMatrix type="matrix" values="0 0 0 0 0 0 0 0 0 0 0 0 0 0 0 0 0 0 0.25 0"/>
<feBlend mode="normal" in2="BackgroundImageFix" result="effect1_dropShadow"/>
<feBlend mode="normal" in="SourceGraphic" in2="effect1_dropShadow" result="shape"/>
</filter>
<filter id="filter5_d" x="7.93652" y="15.3198" width="173.001" height="176.506" filterUnits="userSpaceOnUse" color-interpolation-filters="sRGB">
<feFlood flood-opacity="0" result="BackgroundImageFix"/>
<feColorMatrix in="SourceAlpha" type="matrix" values="0 0 0 0 0 0 0 0 0 0 0 0 0 0 0 0 0 0 127 0"/>
<feOffset dy="4"/>
<feGaussianBlur stdDeviation="2"/>
<feColorMatrix type="matrix" values="0 0 0 0 0 0 0 0 0 0 0 0 0 0 0 0 0 0 0.25 0"/>
<feBlend mode="normal" in2="BackgroundImageFix" result="effect1_dropShadow"/>
<feBlend mode="normal" in="SourceGraphic" in2="effect1_dropShadow" result="shape"/>
</filter>
<filter id="filter6_d" x="58.2949" y="2.31787" width="78.1902" height="77.1359" filterUnits="userSpaceOnUse" color-interpolation-filters="sRGB">
<feFlood flood-opacity="0" result="BackgroundImageFix"/>
<feColorMatrix in="SourceAlpha" type="matrix" values="0 0 0 0 0 0 0 0 0 0 0 0 0 0 0 0 0 0 127 0"/>
<feOffset dy="4"/>
<feGaussianBlur stdDeviation="2"/>
<feColorMatrix type="matrix" values="0 0 0 0 0 0 0 0 0 0 0 0 0 0 0 0 0 0 0.25 0"/>
<feBlend mode="normal" in2="BackgroundImageFix" result="effect1_dropShadow"/>
<feBlend mode="normal" in="SourceGraphic" in2="effect1_dropShadow" result="shape"/>
</filter>
<filter id="filter7_d" x="12.167" y="12.2305" width="176.533" height="176.712" filterUnits="userSpaceOnUse" color-interpolation-filters="sRGB">
<feFlood flood-opacity="0" result="BackgroundImageFix"/>
<feColorMatrix in="SourceAlpha" type="matrix" values="0 0 0 0 0 0 0 0 0 0 0 0 0 0 0 0 0 0 127 0"/>
<feOffset dy="4"/>
<feGaussianBlur stdDeviation="2"/>
<feColorMatrix type="matrix" values="0 0 0 0 0 0 0 0 0 0 0 0 0 0 0 0 0 0 0.25 0"/>
<feBlend mode="normal" in2="BackgroundImageFix" result="effect1_dropShadow"/>
<feBlend mode="normal" in="SourceGraphic" in2="effect1_dropShadow" result="shape"/>
</filter>
<filter id="filter8_d" x="50.3301" y="39.9395" width="88.7741" height="88.4321" filterUnits="userSpaceOnUse" color-interpolation-filters="sRGB">
<feFlood flood-opacity="0" result="BackgroundImageFix"/>
<feColorMatrix in="SourceAlpha" type="matrix" values="0 0 0 0 0 0 0 0 0 0 0 0 0 0 0 0 0 0 127 0"/>
<feOffset dy="4"/>
<feGaussianBlur stdDeviation="2"/>
<feColorMatrix type="matrix" values="0 0 0 0 0 0 0 0 0 0 0 0 0 0 0 0 0 0 0.25 0"/>
<feBlend mode="normal" in2="BackgroundImageFix" result="effect1_dropShadow"/>
<feBlend mode="normal" in="SourceGraphic" in2="effect1_dropShadow" result="shape"/>
</filter>
<filter id="filter9_d" x="55.5049" y="45.249" width="78.5145" height="77.7754" filterUnits="userSpaceOnUse" color-interpolation-filters="sRGB">
<feFlood flood-opacity="0" result="BackgroundImageFix"/>
<feColorMatrix in="SourceAlpha" type="matrix" values="0 0 0 0 0 0 0 0 0 0 0 0 0 0 0 0 0 0 127 0"/>
<feOffset dy="4"/>
<feGaussianBlur stdDeviation="2"/>
<feColorMatrix type="matrix" values="0 0 0 0 0 0 0 0 0 0 0 0 0 0 0 0 0 0 0.25 0"/>
<feBlend mode="normal" in2="BackgroundImageFix" result="effect1_dropShadow"/>
<feBlend mode="normal" in="SourceGraphic" in2="effect1_dropShadow" result="shape"/>
</filter>
<filter id="filter10_d" x="69.708" y="103.029" width="21.0819" height="20.6833" filterUnits="userSpaceOnUse" color-interpolation-filters="sRGB">
<feFlood flood-opacity="0" result="BackgroundImageFix"/>
<feColorMatrix in="SourceAlpha" type="matrix" values="0 0 0 0 0 0 0 0 0 0 0 0 0 0 0 0 0 0 127 0"/>
<feOffset dy="4"/>
<feGaussianBlur stdDeviation="2"/>
<feColorMatrix type="matrix" values="0 0 0 0 0 0 0 0 0 0 0 0 0 0 0 0 0 0 0.25 0"/>
<feBlend mode="normal" in2="BackgroundImageFix" result="effect1_dropShadow"/>
<feBlend mode="normal" in="SourceGraphic" in2="effect1_dropShadow" result="shape"/>
</filter>
<filter id="filter11_d" x="83.8721" y="103.21" width="21.082" height="20.6834" filterUnits="userSpaceOnUse" color-interpolation-filters="sRGB">
<feFlood flood-opacity="0" result="BackgroundImageFix"/>
<feColorMatrix in="SourceAlpha" type="matrix" values="0 0 0 0 0 0 0 0 0 0 0 0 0 0 0 0 0 0 127 0"/>
<feOffset dy="4"/>
<feGaussianBlur stdDeviation="2"/>
<feColorMatrix type="matrix" values="0 0 0 0 0 0 0 0 0 0 0 0 0 0 0 0 0 0 0.25 0"/>
<feBlend mode="normal" in2="BackgroundImageFix" result="effect1_dropShadow"/>
<feBlend mode="normal" in="SourceGraphic" in2="effect1_dropShadow" result="shape"/>
</filter>
<filter id="filter12_d" x="98.0342" y="103.388" width="21.0821" height="20.6837" filterUnits="userSpaceOnUse" color-interpolation-filters="sRGB">
<feFlood flood-opacity="0" result="BackgroundImageFix"/>
<feColorMatrix in="SourceAlpha" type="matrix" values="0 0 0 0 0 0 0 0 0 0 0 0 0 0 0 0 0 0 127 0"/>
<feOffset dy="4"/>
<feGaussianBlur stdDeviation="2"/>
<feColorMatrix type="matrix" values="0 0 0 0 0 0 0 0 0 0 0 0 0 0 0 0 0 0 0.25 0"/>
<feBlend mode="normal" in2="BackgroundImageFix" result="effect1_dropShadow"/>
<feBlend mode="normal" in="SourceGraphic" in2="effect1_dropShadow" result="shape"/>
</filter>
<filter id="filter13_d" x="69.3594" y="120.124" width="21.082" height="20.6834" filterUnits="userSpaceOnUse" color-interpolation-filters="sRGB">
<feFlood flood-opacity="0" result="BackgroundImageFix"/>
<feColorMatrix in="SourceAlpha" type="matrix" values="0 0 0 0 0 0 0 0 0 0 0 0 0 0 0 0 0 0 127 0"/>
<feOffset dy="4"/>
<feGaussianBlur stdDeviation="2"/>
<feColorMatrix type="matrix" values="0 0 0 0 0 0 0 0 0 0 0 0 0 0 0 0 0 0 0.25 0"/>
<feBlend mode="normal" in2="BackgroundImageFix" result="effect1_dropShadow"/>
<feBlend mode="normal" in="SourceGraphic" in2="effect1_dropShadow" result="shape"/>
</filter>
<filter id="filter14_d" x="69.5225" y="112.079" width="21.0819" height="20.6834" filterUnits="userSpaceOnUse" color-interpolation-filters="sRGB">
<feFlood flood-opacity="0" result="BackgroundImageFix"/>
<feColorMatrix in="SourceAlpha" type="matrix" values="0 0 0 0 0 0 0 0 0 0 0 0 0 0 0 0 0 0 127 0"/>
<feOffset dy="4"/>
<feGaussianBlur stdDeviation="2"/>
<feColorMatrix type="matrix" values="0 0 0 0 0 0 0 0 0 0 0 0 0 0 0 0 0 0 0.25 0"/>
<feBlend mode="normal" in2="BackgroundImageFix" result="effect1_dropShadow"/>
<feBlend mode="normal" in="SourceGraphic" in2="effect1_dropShadow" result="shape"/>
</filter>
<filter id="filter15_d" x="83.6846" y="112.257" width="21.0822" height="20.6837" filterUnits="userSpaceOnUse" color-interpolation-filters="sRGB">
<feFlood flood-opacity="0" result="BackgroundImageFix"/>
<feColorMatrix in="SourceAlpha" type="matrix" values="0 0 0 0 0 0 0 0 0 0 0 0 0 0 0 0 0 0 127 0"/>
<feOffset dy="4"/>
<feGaussianBlur stdDeviation="2"/>
<feColorMatrix type="matrix" values="0 0 0 0 0 0 0 0 0 0 0 0 0 0 0 0 0 0 0.25 0"/>
<feBlend mode="normal" in2="BackgroundImageFix" result="effect1_dropShadow"/>
<feBlend mode="normal" in="SourceGraphic" in2="effect1_dropShadow" result="shape"/>
</filter>
<filter id="filter16_d" x="83.5225" y="120.302" width="21.082" height="20.6834" filterUnits="userSpaceOnUse" color-interpolation-filters="sRGB">
<feFlood flood-opacity="0" result="BackgroundImageFix"/>
<feColorMatrix in="SourceAlpha" type="matrix" values="0 0 0 0 0 0 0 0 0 0 0 0 0 0 0 0 0 0 127 0"/>
<feOffset dy="4"/>
<feGaussianBlur stdDeviation="2"/>
<feColorMatrix type="matrix" values="0 0 0 0 0 0 0 0 0 0 0 0 0 0 0 0 0 0 0.25 0"/>
<feBlend mode="normal" in2="BackgroundImageFix" result="effect1_dropShadow"/>
<feBlend mode="normal" in="SourceGraphic" in2="effect1_dropShadow" result="shape"/>
</filter>
<filter id="filter17_d" x="83.3564" y="128.347" width="21.0821" height="20.6835" filterUnits="userSpaceOnUse" color-interpolation-filters="sRGB">
<feFlood flood-opacity="0" result="BackgroundImageFix"/>
<feColorMatrix in="SourceAlpha" type="matrix" values="0 0 0 0 0 0 0 0 0 0 0 0 0 0 0 0 0 0 127 0"/>
<feOffset dy="4"/>
<feGaussianBlur stdDeviation="2"/>
<feColorMatrix type="matrix" values="0 0 0 0 0 0 0 0 0 0 0 0 0 0 0 0 0 0 0.25 0"/>
<feBlend mode="normal" in2="BackgroundImageFix" result="effect1_dropShadow"/>
<feBlend mode="normal" in="SourceGraphic" in2="effect1_dropShadow" result="shape"/>
</filter>
<filter id="filter18_d" x="69.1953" y="128.166" width="21.0822" height="20.6835" filterUnits="userSpaceOnUse" color-interpolation-filters="sRGB">
<feFlood flood-opacity="0" result="BackgroundImageFix"/>
<feColorMatrix in="SourceAlpha" type="matrix" values="0 0 0 0 0 0 0 0 0 0 0 0 0 0 0 0 0 0 127 0"/>
<feOffset dy="4"/>
<feGaussianBlur stdDeviation="2"/>
<feColorMatrix type="matrix" values="0 0 0 0 0 0 0 0 0 0 0 0 0 0 0 0 0 0 0.25 0"/>
<feBlend mode="normal" in2="BackgroundImageFix" result="effect1_dropShadow"/>
<feBlend mode="normal" in="SourceGraphic" in2="effect1_dropShadow" result="shape"/>
</filter>
<filter id="filter19_d" x="69.0088" y="137.214" width="21.0819" height="20.6834" filterUnits="userSpaceOnUse" color-interpolation-filters="sRGB">
<feFlood flood-opacity="0" result="BackgroundImageFix"/>
<feColorMatrix in="SourceAlpha" type="matrix" values="0 0 0 0 0 0 0 0 0 0 0 0 0 0 0 0 0 0 127 0"/>
<feOffset dy="4"/>
<feGaussianBlur stdDeviation="2"/>
<feColorMatrix type="matrix" values="0 0 0 0 0 0 0 0 0 0 0 0 0 0 0 0 0 0 0.25 0"/>
<feBlend mode="normal" in2="BackgroundImageFix" result="effect1_dropShadow"/>
<feBlend mode="normal" in="SourceGraphic" in2="effect1_dropShadow" result="shape"/>
</filter>
<filter id="filter20_d" x="83.1709" y="137.396" width="21.0821" height="20.6835" filterUnits="userSpaceOnUse" color-interpolation-filters="sRGB">
<feFlood flood-opacity="0" result="BackgroundImageFix"/>
<feColorMatrix in="SourceAlpha" type="matrix" values="0 0 0 0 0 0 0 0 0 0 0 0 0 0 0 0 0 0 127 0"/>
<feOffset dy="4"/>
<feGaussianBlur stdDeviation="2"/>
<feColorMatrix type="matrix" values="0 0 0 0 0 0 0 0 0 0 0 0 0 0 0 0 0 0 0.25 0"/>
<feBlend mode="normal" in2="BackgroundImageFix" result="effect1_dropShadow"/>
<feBlend mode="normal" in="SourceGraphic" in2="effect1_dropShadow" result="shape"/>
</filter>
<filter id="filter21_d" x="97.334" y="137.576" width="21.0823" height="20.6838" filterUnits="userSpaceOnUse" color-interpolation-filters="sRGB">
<feFlood flood-opacity="0" result="BackgroundImageFix"/>
<feColorMatrix in="SourceAlpha" type="matrix" values="0 0 0 0 0 0 0 0 0 0 0 0 0 0 0 0 0 0 127 0"/>
<feOffset dy="4"/>
<feGaussianBlur stdDeviation="2"/>
<feColorMatrix type="matrix" values="0 0 0 0 0 0 0 0 0 0 0 0 0 0 0 0 0 0 0.25 0"/>
<feBlend mode="normal" in2="BackgroundImageFix" result="effect1_dropShadow"/>
<feBlend mode="normal" in="SourceGraphic" in2="effect1_dropShadow" result="shape"/>
</filter>
<filter id="filter22_d" x="97.5176" y="128.527" width="21.0821" height="20.6836" filterUnits="userSpaceOnUse" color-interpolation-filters="sRGB">
<feFlood flood-opacity="0" result="BackgroundImageFix"/>
<feColorMatrix in="SourceAlpha" type="matrix" values="0 0 0 0 0 0 0 0 0 0 0 0 0 0 0 0 0 0 127 0"/>
<feOffset dy="4"/>
<feGaussianBlur stdDeviation="2"/>
<feColorMatrix type="matrix" values="0 0 0 0 0 0 0 0 0 0 0 0 0 0 0 0 0 0 0.25 0"/>
<feBlend mode="normal" in2="BackgroundImageFix" result="effect1_dropShadow"/>
<feBlend mode="normal" in="SourceGraphic" in2="effect1_dropShadow" result="shape"/>
</filter>
</defs>
</svg>
