<svg width="1440" height="1024" viewBox="0 0 1440 1024" fill="none" xmlns="http://www.w3.org/2000/svg">
<g clip-path="url(#clip0)">
<rect width="1440" height="1024" fill="#020202"/>
<path d="M-8.98446 1048.31L-8.98451 -11L1469 1025L-8.98446 1048.31Z" fill="#1DCBAC"/>
<g filter="url(#filter0_dd)">
<path d="M667.746 372.977L434.061 428.88L907.119 707.091L1122.14 645.286L667.746 372.977Z" fill="#22AFC2" stroke="#7F7A7A"/>
<path d="M703.024 412.332L529.316 458.663L705.864 567.147L880.14 516.918L703.024 412.332Z" fill="#0F0F0F"/>
<path d="M738.538 436.609L576.142 479.017L682.379 540.65L838.083 497.267L738.538 436.609Z" fill="#CAE621"/>
<path d="M901.831 703.133L439.679 430.489L430.507 433.133L433.991 436.028L555.006 510.16L726.498 613.132C767.344 636.59 856.186 688.049 884.783 706.221C913.381 724.394 912.046 764.842 907.805 782.795L906.556 791.368L912.633 789.866L925.014 785.302L929.441 754.907C932.165 736.202 912.17 712.597 901.831 703.133Z" fill="black"/>
<path d="M482.028 220.177L297.576 266.536L291.045 271.156L309.211 273.802C319.782 277.198 343.25 285.445 352.558 291.257C364.193 298.523 387.009 316.171 415.609 341.029C438.489 360.916 472.413 422.523 486.514 450.841L666.073 404.566L661.309 390.342L651.945 367.489L634.883 337.148C625.674 324.4 602.324 293.886 582.594 273.821C562.864 253.757 507.329 229.698 482.028 220.177Z" fill="#FFF3F3"/>
<path d="M469.02 363.134L669.47 475.098L644.377 566.95L431.319 461.109L469.02 363.134Z" fill="#4D1BB8"/>
<path d="M405.003 454.094C406.183 445.988 422.425 437.264 430.398 433.915L436.134 434.751C582.467 520.529 878.974 695.19 894.349 707.617C913.567 723.15 918.426 750.122 920.16 758.333C921.893 766.544 911.682 789.729 907.176 793.849C903.572 797.144 884.64 792.158 875.625 789.254C728.362 727.748 428.495 602.525 407.13 593.683C385.766 584.842 382.814 561.756 384.009 551.318C390.515 522.287 403.822 462.199 405.003 454.094Z" fill="#22AFC2"/>
<path d="M919.414 723.203C915.314 717.831 910.372 711.54 906.379 708.071L1125.47 645.146C1127.9 647.159 1134.95 653.072 1143.67 660.619C1152.4 668.166 1151.35 693.908 1149.73 705.836L999.318 761.449L925.742 784.612C926.066 780.614 926.444 765.542 927.076 757.746C927.866 748.001 923.075 728.001 919.414 723.203Z" fill="black"/>
<path d="M550.42 556.275L555.299 558.718C557.318 559.729 558.628 560.872 559.228 562.146C559.841 563.428 559.696 564.719 558.792 566.02C558.224 566.839 557.451 567.418 556.473 567.757C555.509 568.102 554.438 568.207 553.26 568.072C552.103 567.931 550.954 567.575 549.813 567.003L548.986 566.59L546.039 570.837L541.79 568.709L550.42 556.275ZM551.576 564.501C552.271 564.849 552.901 564.986 553.465 564.911C554.029 564.837 554.487 564.546 554.838 564.04C555.19 563.534 555.263 563.059 555.058 562.616C554.867 562.179 554.417 561.783 553.709 561.429L552.863 561.005L550.755 564.041C551.001 564.197 551.274 564.35 551.576 564.501ZM558.477 577.26C557.323 576.682 556.634 575.931 556.409 575.007C556.193 574.071 556.457 573.066 557.202 571.994L559.648 568.47L558.389 567.839L559.944 565.598L561.498 566.376L565.699 563.877L567.686 564.872L565.315 568.287L567.597 569.43L566.041 571.671L563.759 570.529L561.627 573.601C561.418 573.902 561.359 574.19 561.452 574.463C561.545 574.737 561.782 574.969 562.162 575.16C562.516 575.337 562.887 575.426 563.276 575.425L561.677 578.035C561.224 578.051 560.693 577.988 560.085 577.846C559.498 577.698 558.962 577.503 558.477 577.26ZM569.015 570.311L573.166 572.389L571.886 574.233C572.681 573.673 573.452 573.352 574.197 573.271C574.964 573.184 575.695 573.315 576.391 573.663L574.916 576.895C573.67 576.271 572.665 575.938 571.899 575.895C571.155 575.847 570.598 576.088 570.23 576.618L566.969 581.317L562.818 579.239L569.015 570.311ZM576.671 586.37C575.569 585.819 574.724 585.127 574.134 584.296C573.558 583.472 573.269 582.589 573.269 581.647C573.29 580.7 573.619 579.768 574.254 578.852C574.89 577.937 575.693 577.251 576.663 576.795C577.642 576.327 578.691 576.114 579.811 576.155C580.944 576.203 582.062 576.503 583.163 577.054C584.278 577.612 585.124 578.304 585.7 579.128C586.298 579.947 586.591 580.824 586.578 581.759C586.565 582.695 586.24 583.62 585.605 584.536C584.961 585.464 584.15 586.161 583.171 586.629C582.214 587.092 581.164 587.305 580.023 587.269C578.903 587.228 577.786 586.928 576.671 586.37ZM578.592 583.679C579.129 583.948 579.694 583.987 580.286 583.797C580.899 583.6 581.407 583.213 581.808 582.635C582.21 582.056 582.359 581.498 582.256 580.959C582.174 580.415 581.864 580.008 581.326 579.739C580.789 579.47 580.213 579.433 579.6 579.629C579.008 579.82 578.511 580.205 578.11 580.783C577.709 581.361 577.549 581.923 577.63 582.467C577.734 583.006 578.054 583.41 578.592 583.679ZM590.128 580.882L594.082 582.862L592.802 584.706C594.533 583.689 596.224 583.594 597.877 584.422C599.136 585.052 599.831 585.96 599.962 587.146C600.115 588.327 599.685 589.646 598.673 591.104L595.537 595.622L591.406 593.554L594.805 588.656C595.165 588.138 595.316 587.678 595.26 587.276C595.216 586.88 594.978 586.574 594.545 586.358C594.23 586.2 593.855 586.142 593.42 586.184C592.992 586.214 592.559 586.354 592.12 586.605C591.694 586.862 591.326 587.214 591.017 587.66L588.081 591.889L583.931 589.811L590.128 580.882ZM600.798 598.451C599.696 597.9 599.063 597.144 598.898 596.185C598.733 595.226 599.04 594.186 599.817 593.065L603.681 587.499L607.851 589.587L604.101 594.991C603.908 595.268 603.837 595.524 603.885 595.759C603.955 595.989 604.122 596.17 604.384 596.301C604.646 596.433 604.965 596.495 605.341 596.488L603.814 599.109C603.383 599.169 602.894 599.136 602.347 599.008C601.812 598.886 601.296 598.701 600.798 598.451ZM606.707 587.187C606.091 586.878 605.687 586.441 605.497 585.875C605.328 585.303 605.424 584.759 605.783 584.24C606.143 583.722 606.667 583.4 607.355 583.274C608.044 583.148 608.677 583.229 609.254 583.518C609.857 583.82 610.249 584.26 610.431 584.839C610.626 585.423 610.552 585.963 610.209 586.457C609.842 586.987 609.313 587.315 608.625 587.441C607.937 587.567 607.297 587.483 606.707 587.187ZM609.379 602.748C608.33 602.223 607.533 601.564 606.987 600.771C606.463 599.973 606.218 599.103 606.253 598.163C606.3 597.229 606.638 596.31 607.265 595.406C607.867 594.538 608.651 593.867 609.616 593.393C610.582 592.918 611.613 592.68 612.711 592.677C613.808 592.675 614.855 592.923 615.852 593.422C617.124 594.059 617.96 594.803 618.36 595.652L616.318 597.869C615.712 597.29 615.167 596.879 614.682 596.636C614.052 596.321 613.437 596.24 612.836 596.393C612.243 596.535 611.75 596.888 611.356 597.455C610.963 598.021 610.833 598.565 610.966 599.086C611.1 599.607 611.468 600.019 612.071 600.321C612.596 600.584 613.283 600.79 614.133 600.94L612.751 603.657C612.163 603.639 611.61 603.557 611.093 603.411C610.567 603.278 609.995 603.057 609.379 602.748ZM617.202 606.665C615.825 605.976 614.748 605.185 613.971 604.293L615.917 602.368C616.643 603.155 617.453 603.771 618.344 604.217C619 604.546 619.445 604.541 619.679 604.204C619.796 604.035 619.794 603.847 619.673 603.64C619.564 603.44 619.277 603.166 618.811 602.819C617.856 602.081 617.295 601.362 617.128 600.661C616.974 599.967 617.189 599.198 617.775 598.355C618.488 597.429 619.407 596.907 620.532 596.789C621.657 596.67 622.888 596.945 624.226 597.615C624.908 597.957 625.462 598.291 625.889 598.618C626.337 598.94 626.701 599.293 626.983 599.678L625.077 601.622C624.788 601.299 624.44 600.986 624.031 600.684C623.635 600.388 623.287 600.165 622.985 600.014C622.539 599.791 622.202 599.679 621.973 599.678C621.744 599.677 621.579 599.748 621.479 599.893C621.295 600.158 621.493 600.509 622.073 600.946C623.133 601.736 623.79 602.52 624.046 603.297C624.302 604.075 624.141 604.879 623.564 605.711C622.903 606.662 622.013 607.232 620.894 607.418C619.797 607.599 618.566 607.348 617.202 606.665Z" fill="white"/>
<g filter="url(#filter1_dd)">
<path d="M788.647 575.225L752.687 587.497L775.114 601.11L809.162 588.559L788.647 575.225Z" fill="#302A2A"/>
<path d="M788.647 575.225L752.687 587.497L775.114 601.11L809.162 588.559L788.647 575.225Z" stroke="black"/>
</g>
<g filter="url(#filter2_dd)">
<path d="M842.233 555.969L806.273 568.242L828.7 581.854L862.748 569.303L842.233 555.969Z" fill="#302A2A"/>
<path d="M842.233 555.969L806.273 568.242L828.7 581.854L862.748 569.303L842.233 555.969Z" stroke="black"/>
</g>
<g filter="url(#filter3_dd)">
<path d="M899.624 537.27L863.663 549.542L886.09 563.155L920.138 550.604L899.624 537.27Z" fill="#302A2A"/>
<path d="M899.624 537.27L863.663 549.542L886.09 563.155L920.138 550.604L899.624 537.27Z" stroke="black"/>
</g>
<g filter="url(#filter4_dd)">
<path d="M840.698 606.684L804.737 618.956L827.164 632.569L861.213 620.018L840.698 606.684Z" fill="#302A2A"/>
<path d="M840.698 606.684L804.737 618.956L827.164 632.569L861.213 620.018L840.698 606.684Z" stroke="black"/>
</g>
<g filter="url(#filter5_dd)">
<path d="M892.362 587.149L856.401 599.421L878.828 613.034L912.877 600.483L892.362 587.149Z" fill="#302A2A"/>
<path d="M892.362 587.149L856.401 599.421L878.828 613.034L912.877 600.483L892.362 587.149Z" stroke="black"/>
</g>
<g filter="url(#filter6_dd)">
<path d="M945.944 567.889L909.983 580.161L932.41 593.774L966.459 581.223L945.944 567.889Z" fill="#302A2A"/>
<path d="M945.944 567.889L909.983 580.161L932.41 593.774L966.459 581.223L945.944 567.889Z" stroke="black"/>
</g>
<g filter="url(#filter7_dd)">
<path d="M887.01 637.305L851.05 649.577L873.477 663.19L907.525 650.639L887.01 637.305Z" fill="#FF0707"/>
<path d="M887.01 637.305L851.05 649.577L873.477 663.19L907.525 650.639L887.01 637.305Z" stroke="black"/>
</g>
<g filter="url(#filter8_dd)">
<path d="M938.901 616.211L902.94 628.484L925.367 642.096L959.416 629.545L938.901 616.211Z" fill="#302A2A"/>
<path d="M938.901 616.211L902.94 628.484L925.367 642.096L959.416 629.545L938.901 616.211Z" stroke="black"/>
</g>
<g filter="url(#filter9_dd)">
<path d="M986.745 596.118L950.784 608.39L973.211 622.003L1007.26 609.452L986.745 596.118Z" fill="#21F035"/>
<path d="M986.745 596.118L950.784 608.39L973.211 622.003L1007.26 609.452L986.745 596.118Z" stroke="black"/>
</g>
<ellipse cx="607.738" cy="489.987" rx="22.2223" ry="22.0522" transform="rotate(8.28595 607.738 489.987)" fill="#BA8E38"/>
<ellipse cx="629.785" cy="499.562" rx="22.2223" ry="22.0522" transform="rotate(8.28595 629.785 499.562)" fill="#E9ED23"/>
</g>
<path d="M1217.93 325.474L1174.33 301.731L1169.31 310.84L1136.78 370.059L1119.27 401.947L1107.99 422.444L956.569 339.969L951.978 337.47C951.695 334.358 951.876 326.769 954.896 321.304L1002.45 234.753L1027.5 189.203C1032.7 185.137 1044.06 177.509 1047.72 179.506C1051.4 181.507 1158.56 241.842 1211.67 271.758C1224.69 274.113 1228.78 294.885 1229.18 304.974L1217.93 325.474Z" fill="#FFF5F5"/>
<g filter="url(#filter10_dd)">
<path d="M641.833 897.838L714.407 765.734L868.347 849.568L795.746 981.669L641.833 897.838Z" fill="#1A1717"/>
<path d="M641.833 897.838L714.407 765.734L868.347 849.568L795.746 981.669L641.833 897.838Z" stroke="black" stroke-opacity="0.2"/>
</g>
<g filter="url(#filter11_dd)">
<path d="M927.125 866.698C923.057 873.95 907.311 873.525 899.951 872.405L908.836 856.537L922.842 831.608L977.511 734.144L1079.53 547.016L1172.37 381.557L1178.98 364.42C1180.5 365.267 1184.87 368.883 1190.13 376.571C1195.42 384.261 1190.79 396.759 1187.82 402.048L927.125 866.698Z" fill="#3AC2F2" fill-opacity="0.6"/>
<path d="M927.125 866.698C923.057 873.95 907.311 873.525 899.951 872.405L908.836 856.537L922.842 831.608L977.511 734.144L1079.53 547.016L1172.37 381.557L1178.98 364.42C1180.5 365.267 1184.87 368.883 1190.13 376.571C1195.42 384.261 1190.79 396.759 1187.82 402.048L927.125 866.698Z" stroke="#451A67" stroke-opacity="0.2"/>
</g>
<g filter="url(#filter12_dd)">
<path d="M924.316 255.261C928.307 247.971 944.041 248.258 951.41 249.312L942.653 265.256L928.881 290.31L875.068 388.248L774.738 576.264L683.35 742.529L676.875 759.721C675.345 758.886 670.969 755.311 665.624 747.668C660.279 740.024 664.8 727.488 667.719 722.174L924.316 255.261Z" fill="#3AC2F2" fill-opacity="0.6"/>
<path d="M924.316 255.261C928.307 247.971 944.041 248.258 951.41 249.312L942.653 265.256L928.881 290.31L875.068 388.248L774.738 576.264L683.35 742.529L676.875 759.721C675.345 758.886 670.969 755.311 665.624 747.668C660.279 740.024 664.8 727.488 667.719 722.174L924.316 255.261Z" stroke="#451A67" stroke-opacity="0.2"/>
</g>
<g filter="url(#filter13_dd)">
<path d="M943.519 248.596C952.233 237.071 975.729 249.669 986.375 257.407L958.114 308.847C954.195 316.006 960.746 325.775 964.519 329.765L1106.76 407.241C1115.94 412.24 1123.16 404.545 1125.62 400.072L1153.88 348.633L1174.53 359.879C1183.71 364.878 1183.43 374.415 1182.14 378.559L1160.04 418.817L1139.15 456.837L1051.88 615.626L912.983 868.342C909.064 875.5 895.613 878.252 889.385 878.736L859.557 862.489L864.469 853.544L713.046 771.069L708.134 780.014L701.234 776.265C697.777 775.345 688.337 771.557 678.306 763.769C668.275 755.983 674.781 737.634 679.27 729.431L708.772 675.758C783.4 538.175 934.805 260.121 943.519 248.596Z" fill="#1E0B31"/>
<path d="M943.519 248.596C952.233 237.071 975.729 249.669 986.375 257.407L958.114 308.847C954.195 316.006 960.746 325.775 964.519 329.765L1106.76 407.241C1115.94 412.24 1123.16 404.545 1125.62 400.072L1153.88 348.633L1174.53 359.879C1183.71 364.878 1183.43 374.415 1182.14 378.559L1160.04 418.817L1139.15 456.837L1051.88 615.626L912.983 868.342C909.064 875.5 895.613 878.252 889.385 878.736L859.557 862.489L864.469 853.544L713.046 771.069L708.134 780.014L701.234 776.265C697.777 775.345 688.337 771.557 678.306 763.769C668.275 755.983 674.781 737.634 679.27 729.431L708.772 675.758C783.4 538.175 934.805 260.121 943.519 248.596Z" stroke="#451A67" stroke-opacity="0.2"/>
</g>
<g filter="url(#filter14_dd)">
<path d="M1098 475.633L911.006 373.787C904.354 370.164 896.02 372.578 892.392 379.18L807.898 532.927C804.27 539.529 806.722 547.818 813.375 551.441L1000.37 653.287C1007.03 656.91 1015.36 654.496 1018.99 647.894L1103.48 494.147C1107.11 487.545 1104.66 479.256 1098 475.633Z" fill="#100F0F" fill-opacity="0.2"/>
</g>
<g filter="url(#filter15_dd)">
<path d="M1086.04 492.801L902.947 393.079C900.286 391.63 896.952 392.596 895.501 395.236L825.655 522.331C824.204 524.971 825.185 528.287 827.846 529.736L1010.94 629.458C1013.6 630.907 1016.94 629.941 1018.39 627.301L1088.24 500.206C1089.69 497.566 1088.71 494.25 1086.04 492.801Z" fill="#1CD2D2"/>
</g>
<g filter="url(#filter16_dd)">
<path d="M835.747 602.66L799.494 582.915C796.833 581.466 793.499 582.432 792.048 585.072L784.786 598.286C783.335 600.927 784.316 604.242 786.977 605.691L823.23 625.436C825.891 626.885 829.224 625.919 830.675 623.279L837.937 610.065C839.388 607.424 838.408 604.109 835.747 602.66Z" fill="#C4C4C4" fill-opacity="0.2"/>
</g>
<g filter="url(#filter17_dd)">
<path d="M813.223 643.656L776.971 623.911C774.31 622.462 770.976 623.428 769.525 626.068L762.263 639.282C760.812 641.923 761.793 645.238 764.454 646.687L800.706 666.432C803.367 667.881 806.701 666.915 808.152 664.275L815.414 651.061C816.865 648.421 815.884 645.105 813.223 643.656Z" fill="#C4C4C4" fill-opacity="0.2"/>
</g>
<g filter="url(#filter18_dd)">
<path d="M790.688 684.652L754.435 664.907C751.774 663.458 748.441 664.424 746.99 667.064L739.728 680.278C738.277 682.919 739.257 686.234 741.918 687.684L778.171 707.428C780.832 708.877 784.166 707.912 785.617 705.271L792.879 692.057C794.33 689.417 793.349 686.101 790.688 684.652Z" fill="#C4C4C4" fill-opacity="0.2"/>
</g>
<g filter="url(#filter19_dd)">
<path d="M768.161 725.644L731.908 705.9C729.247 704.45 725.913 705.416 724.462 708.057L717.201 721.27C715.749 723.911 716.73 727.226 719.391 728.676L755.644 748.42C758.305 749.869 761.638 748.904 763.09 746.263L770.351 733.049C771.802 730.409 770.822 727.093 768.161 725.644Z" fill="#F30808"/>
</g>
<g filter="url(#filter20_dd)">
<path d="M836.993 763.138L800.74 743.394C798.079 741.944 794.745 742.91 793.294 745.551L786.033 758.764C784.581 761.405 785.562 764.721 788.223 766.17L824.476 785.914C827.137 787.364 830.47 786.398 831.922 783.757L839.183 770.544C840.634 767.903 839.654 764.588 836.993 763.138Z" fill="#C4C4C4" fill-opacity="0.2"/>
</g>
<g filter="url(#filter21_dd)">
<path d="M910.407 803.125L874.154 783.38C871.493 781.931 868.16 782.897 866.708 785.537L859.447 798.751C857.995 801.391 858.976 804.707 861.637 806.156L897.89 825.901C900.551 827.35 903.884 826.384 905.336 823.744L912.597 810.53C914.048 807.889 913.068 804.574 910.407 803.125Z" fill="#286214"/>
</g>
<g filter="url(#filter22_dd)">
<path d="M859.543 722.144L823.291 702.4C820.63 700.95 817.296 701.916 815.845 704.557L808.583 717.77C807.132 720.411 808.113 723.726 810.774 725.176L847.027 744.92C849.688 746.369 853.021 745.404 854.472 742.763L861.734 729.549C863.185 726.909 862.204 723.593 859.543 722.144Z" fill="#C4C4C4" fill-opacity="0.2"/>
</g>
<g filter="url(#filter23_dd)">
<path d="M932.958 762.128L896.705 742.384C894.044 740.935 890.71 741.9 889.259 744.541L881.997 757.755C880.546 760.395 881.527 763.711 884.188 765.16L920.441 784.904C923.102 786.354 926.435 785.388 927.886 782.747L935.148 769.534C936.599 766.893 935.619 763.578 932.958 762.128Z" fill="#C4C4C4" fill-opacity="0.2"/>
</g>
<g filter="url(#filter24_dd)">
<path d="M882.059 681.148L845.806 661.403C843.145 659.954 839.812 660.92 838.361 663.561L831.099 676.774C829.648 679.415 830.629 682.73 833.29 684.18L869.542 703.924C872.203 705.373 875.537 704.408 876.988 701.767L884.25 688.553C885.701 685.913 884.72 682.597 882.059 681.148Z" fill="#C4C4C4" fill-opacity="0.2"/>
</g>
<g filter="url(#filter25_dd)">
<path d="M955.497 721.14L919.244 701.396C916.583 699.946 913.249 700.912 911.798 703.553L904.536 716.766C903.085 719.407 904.066 722.723 906.727 724.172L942.98 743.916C945.641 745.366 948.974 744.4 950.425 741.759L957.687 728.546C959.138 725.905 958.158 722.589 955.497 721.14Z" fill="#C4C4C4" fill-opacity="0.2"/>
</g>
<g filter="url(#filter26_dd)">
<path d="M904.586 640.148L868.334 620.403C865.673 618.954 862.339 619.92 860.888 622.561L853.626 635.774C852.175 638.415 853.156 641.73 855.817 643.18L892.07 662.924C894.731 664.373 898.064 663.408 899.515 660.767L906.777 647.553C908.228 644.913 907.247 641.597 904.586 640.148Z" fill="#C4C4C4" fill-opacity="0.2"/>
</g>
<g filter="url(#filter27_dd)">
<path d="M978.02 680.14L941.767 660.396C939.106 658.946 935.773 659.912 934.322 662.553L927.06 675.766C925.609 678.407 926.59 681.722 929.251 683.172L965.503 702.916C968.164 704.366 971.498 703.4 972.949 700.759L980.211 687.546C981.662 684.905 980.681 681.589 978.02 680.14Z" fill="#C4C4C4" fill-opacity="0.2"/>
</g>
<path d="M678.057 895.573C684.393 899.024 692.331 896.723 695.788 890.433C699.244 884.144 696.91 876.248 690.574 872.797C684.238 869.346 676.3 871.647 672.843 877.937C669.387 884.226 671.721 892.122 678.057 895.573Z" fill="#C4C732"/>
<path d="M683.073 886.458C689.409 889.909 697.347 887.608 700.803 881.318C704.26 875.029 701.925 867.133 695.589 863.682C689.253 860.231 681.315 862.532 677.859 868.822C674.402 875.111 676.737 883.007 683.073 886.458Z" fill="#C78232"/>
<g filter="url(#filter28_dd)">
<path d="M879.894 476.981L873.217 489.724L868.868 487.475L885.947 454.929L898.047 461.213C901.662 463.081 903.986 465.447 905.072 468.32C906.157 471.199 905.913 474.135 904.366 477.132C902.693 480.291 900.43 482.209 897.52 482.886C894.639 483.552 891.339 482.924 887.619 480.997L879.894 476.981ZM881.74 473.474L889.519 477.511C891.823 478.712 893.88 479.095 895.689 478.663C897.499 478.218 898.923 476.97 899.986 474.929C901.011 472.991 901.201 471.123 900.585 469.319C899.969 467.519 898.576 466.034 896.46 464.875L888.419 460.709L881.74 473.474ZM919.112 475.319L916.033 481.175L920.591 483.538L918.913 486.735L914.356 484.371L906.512 499.371C905.999 500.341 905.804 501.176 905.953 501.877C906.104 502.564 906.677 503.161 907.673 503.67C908.144 503.921 908.863 504.175 909.802 504.432L908.026 507.785C906.785 507.513 905.64 507.109 904.592 506.57C902.733 505.603 901.623 504.315 901.236 502.702C900.876 501.094 901.255 499.264 902.32 497.204L910.192 482.207L905.739 479.901L907.416 476.704L911.869 479.01L914.948 473.155L919.112 475.319ZM935.352 495.913C934.789 495.481 934.113 495.073 933.38 494.692C930.657 493.271 928.183 493.463 925.986 495.265L916.983 512.433L912.819 510.268L925.489 486.078L929.548 488.185L928.157 491.015C930.676 489.566 933.166 489.491 935.68 490.795C936.492 491.217 937.056 491.64 937.37 492.069L935.352 495.913ZM933.378 505.265C934.612 502.897 936.211 501.009 938.12 499.598C940.082 498.199 942.148 497.416 944.37 497.256C946.592 497.101 948.777 497.582 950.924 498.698C954.251 500.422 956.337 502.955 957.182 506.295C958.054 509.646 957.497 513.212 955.512 516.997L955.345 517.289C954.112 519.643 952.542 521.52 950.634 522.92C948.755 524.314 946.717 525.097 944.467 525.257C942.216 525.425 940.004 524.939 937.804 523.801C934.504 522.083 932.418 519.552 931.546 516.201C930.701 512.861 931.256 509.312 933.238 505.559L933.378 505.265ZM937.325 507.937C935.921 510.618 935.42 513.096 935.795 515.366C936.225 517.648 937.487 519.335 939.582 520.426C941.703 521.526 943.821 521.579 945.935 520.589C948.051 519.584 949.88 517.597 951.424 514.63C952.825 511.979 953.325 509.503 952.899 507.197C952.5 504.889 951.239 503.186 949.144 502.094C947.075 501.025 944.984 500.974 942.872 501.943C940.76 502.912 938.902 504.91 937.325 507.937ZM971.011 509.691L969.563 512.801C972.652 511.446 975.703 511.546 978.715 513.109C983.875 515.785 984.96 520.019 981.971 525.807L973.585 541.79L969.421 539.625L977.809 523.618C978.704 521.869 978.995 520.371 978.626 519.121C978.284 517.881 977.26 516.825 975.611 515.962C974.249 515.26 972.869 515.001 971.471 515.185C970.073 515.37 968.779 515.893 967.587 516.76L958.55 533.992L954.386 531.828L967.083 507.643L971.011 509.691ZM984.429 547.409L980.265 545.245L992.934 521.057L997.098 523.222L984.429 547.409ZM995.95 514.466C996.322 513.796 996.81 513.335 997.47 513.083C998.129 512.839 998.864 512.929 999.676 513.351C1000.49 513.772 1000.98 514.323 1001.16 515.003C1001.34 515.685 1001.25 516.358 1000.9 517.03C1000.56 517.7 1000.04 518.15 999.385 518.377C998.727 518.605 997.992 518.511 997.18 518.089C996.368 517.667 995.872 517.124 995.692 516.458C995.511 515.8 995.606 515.138 995.95 514.466ZM1002.47 553.039C1003.96 553.813 1005.48 554.037 1007.06 553.72C1008.66 553.407 1009.85 552.608 1010.67 551.328L1014.62 553.376C1013.83 554.725 1012.64 555.792 1011.1 556.582C1009.56 557.375 1007.86 557.758 1005.96 557.73C1004.12 557.711 1002.34 557.272 1000.69 556.414C997.366 554.688 995.301 552.22 994.47 549.007C993.668 545.785 994.274 542.269 996.263 538.454L996.636 537.763C997.869 535.406 999.411 533.54 1001.23 532.158C1003.08 530.78 1005.07 530.002 1007.23 529.834C1009.4 529.671 1011.59 530.165 1013.81 531.32C1016.56 532.741 1018.4 534.732 1019.35 537.291C1020.33 539.861 1020.2 542.474 1018.97 545.131L1015.01 543.081C1015.7 541.452 1015.78 539.859 1015.22 538.3C1014.67 536.732 1013.63 535.538 1012.03 534.719C1009.91 533.619 1007.88 533.525 1005.91 534.435C1003.94 535.337 1002.23 537.222 1000.73 540.084L1000.32 540.867C998.849 543.653 998.323 546.101 998.688 548.207C999.052 550.312 1000.32 551.923 1002.47 553.039ZM1032.92 564.395C1033.5 563.277 1033.53 562.19 1032.97 561.133C1032.47 560.071 1031.26 558.763 1029.37 557.218C1027.52 555.678 1026.12 554.272 1025.2 552.998C1024.28 551.732 1023.77 550.513 1023.61 549.336C1023.48 548.167 1023.71 546.986 1024.36 545.796C1025.39 543.811 1027.12 542.573 1029.51 542.075C1031.93 541.586 1034.45 542.025 1037.1 543.391C1039.85 544.826 1041.72 546.696 1042.7 549.001C1043.68 551.314 1043.62 553.575 1042.45 555.781L1038.26 553.603C1038.85 552.471 1038.86 551.241 1038.31 549.911C1037.78 548.595 1036.78 547.553 1035.32 546.788C1033.8 546.001 1032.42 545.709 1031.24 545.924C1030.03 546.134 1029.14 546.767 1028.59 547.825C1028.08 548.824 1028.06 549.781 1028.6 550.703C1029.14 551.624 1030.31 552.853 1032.14 554.39C1034 555.938 1035.4 557.366 1036.37 558.681C1037.34 559.993 1037.87 561.261 1038.02 562.492C1038.17 563.712 1037.9 564.972 1037.25 566.27C1036.09 568.427 1034.33 569.714 1031.89 570.12C1029.45 570.509 1026.86 569.983 1024.08 568.54C1022.12 567.525 1020.56 566.286 1019.41 564.819C1018.27 563.352 1017.6 561.789 1017.38 560.122C1017.2 558.448 1017.46 556.896 1018.22 555.465L1022.38 557.63C1021.74 559.055 1021.71 560.445 1022.31 561.803C1022.95 563.154 1024.13 564.275 1025.83 565.163C1027.43 565.985 1028.86 566.328 1030.14 566.195C1031.42 566.05 1032.37 565.453 1032.92 564.395Z" fill="white"/>
</g>
</g>
<defs>
<filter id="filter0_dd" x="265.48" y="194" width="917.371" height="633.129" filterUnits="userSpaceOnUse" color-interpolation-filters="sRGB">
<feFlood flood-opacity="0" result="BackgroundImageFix"/>
<feColorMatrix in="SourceAlpha" type="matrix" values="0 0 0 0 0 0 0 0 0 0 0 0 0 0 0 0 0 0 127 0"/>
<feOffset dy="4"/>
<feGaussianBlur stdDeviation="2"/>
<feColorMatrix type="matrix" values="0 0 0 0 0 0 0 0 0 0 0 0 0 0 0 0 0 0 0.25 0"/>
<feBlend mode="normal" in2="BackgroundImageFix" result="effect1_dropShadow"/>
<feColorMatrix in="SourceAlpha" type="matrix" values="0 0 0 0 0 0 0 0 0 0 0 0 0 0 0 0 0 0 127 0"/>
<feOffset dx="20" dy="20"/>
<feGaussianBlur stdDeviation="5"/>
<feColorMatrix type="matrix" values="0 0 0 0 0 0 0 0 0 0 0 0 0 0 0 0 0 0 0.25 0"/>
<feBlend mode="normal" in2="effect1_dropShadow" result="effect2_dropShadow"/>
<feBlend mode="normal" in="SourceGraphic" in2="effect2_dropShadow" result="shape"/>
</filter>
<filter id="filter1_dd" x="745.965" y="569.631" width="105.857" height="76.7829" filterUnits="userSpaceOnUse" color-interpolation-filters="sRGB">
<feFlood flood-opacity="0" result="BackgroundImageFix"/>
<feColorMatrix in="SourceAlpha" type="matrix" values="0 0 0 0 0 0 0 0 0 0 0 0 0 0 0 0 0 0 127 0"/>
<feOffset dy="4"/>
<feGaussianBlur stdDeviation="2"/>
<feColorMatrix type="matrix" values="0 0 0 0 0 0 0 0 0 0 0 0 0 0 0 0 0 0 0.25 0"/>
<feBlend mode="normal" in2="BackgroundImageFix" result="effect1_dropShadow"/>
<feColorMatrix in="SourceAlpha" type="matrix" values="0 0 0 0 0 0 0 0 0 0 0 0 0 0 0 0 0 0 127 0"/>
<feOffset dx="20" dy="20"/>
<feGaussianBlur stdDeviation="10"/>
<feColorMatrix type="matrix" values="0 0 0 0 0 0 0 0 0 0 0 0 0 0 0 0 0 0 0.25 0"/>
<feBlend mode="normal" in2="effect1_dropShadow" result="effect2_dropShadow"/>
<feBlend mode="normal" in="SourceGraphic" in2="effect2_dropShadow" result="shape"/>
</filter>
<filter id="filter2_dd" x="799.551" y="550.375" width="105.857" height="76.7829" filterUnits="userSpaceOnUse" color-interpolation-filters="sRGB">
<feFlood flood-opacity="0" result="BackgroundImageFix"/>
<feColorMatrix in="SourceAlpha" type="matrix" values="0 0 0 0 0 0 0 0 0 0 0 0 0 0 0 0 0 0 127 0"/>
<feOffset dy="4"/>
<feGaussianBlur stdDeviation="2"/>
<feColorMatrix type="matrix" values="0 0 0 0 0 0 0 0 0 0 0 0 0 0 0 0 0 0 0.25 0"/>
<feBlend mode="normal" in2="BackgroundImageFix" result="effect1_dropShadow"/>
<feColorMatrix in="SourceAlpha" type="matrix" values="0 0 0 0 0 0 0 0 0 0 0 0 0 0 0 0 0 0 127 0"/>
<feOffset dx="20" dy="20"/>
<feGaussianBlur stdDeviation="10"/>
<feColorMatrix type="matrix" values="0 0 0 0 0 0 0 0 0 0 0 0 0 0 0 0 0 0 0.25 0"/>
<feBlend mode="normal" in2="effect1_dropShadow" result="effect2_dropShadow"/>
<feBlend mode="normal" in="SourceGraphic" in2="effect2_dropShadow" result="shape"/>
</filter>
<filter id="filter3_dd" x="856.941" y="531.676" width="105.857" height="76.7829" filterUnits="userSpaceOnUse" color-interpolation-filters="sRGB">
<feFlood flood-opacity="0" result="BackgroundImageFix"/>
<feColorMatrix in="SourceAlpha" type="matrix" values="0 0 0 0 0 0 0 0 0 0 0 0 0 0 0 0 0 0 127 0"/>
<feOffset dy="4"/>
<feGaussianBlur stdDeviation="2"/>
<feColorMatrix type="matrix" values="0 0 0 0 0 0 0 0 0 0 0 0 0 0 0 0 0 0 0.25 0"/>
<feBlend mode="normal" in2="BackgroundImageFix" result="effect1_dropShadow"/>
<feColorMatrix in="SourceAlpha" type="matrix" values="0 0 0 0 0 0 0 0 0 0 0 0 0 0 0 0 0 0 127 0"/>
<feOffset dx="20" dy="20"/>
<feGaussianBlur stdDeviation="10"/>
<feColorMatrix type="matrix" values="0 0 0 0 0 0 0 0 0 0 0 0 0 0 0 0 0 0 0.25 0"/>
<feBlend mode="normal" in2="effect1_dropShadow" result="effect2_dropShadow"/>
<feBlend mode="normal" in="SourceGraphic" in2="effect2_dropShadow" result="shape"/>
</filter>
<filter id="filter4_dd" x="798.016" y="601.09" width="105.857" height="76.7829" filterUnits="userSpaceOnUse" color-interpolation-filters="sRGB">
<feFlood flood-opacity="0" result="BackgroundImageFix"/>
<feColorMatrix in="SourceAlpha" type="matrix" values="0 0 0 0 0 0 0 0 0 0 0 0 0 0 0 0 0 0 127 0"/>
<feOffset dy="4"/>
<feGaussianBlur stdDeviation="2"/>
<feColorMatrix type="matrix" values="0 0 0 0 0 0 0 0 0 0 0 0 0 0 0 0 0 0 0.25 0"/>
<feBlend mode="normal" in2="BackgroundImageFix" result="effect1_dropShadow"/>
<feColorMatrix in="SourceAlpha" type="matrix" values="0 0 0 0 0 0 0 0 0 0 0 0 0 0 0 0 0 0 127 0"/>
<feOffset dx="20" dy="20"/>
<feGaussianBlur stdDeviation="10"/>
<feColorMatrix type="matrix" values="0 0 0 0 0 0 0 0 0 0 0 0 0 0 0 0 0 0 0.25 0"/>
<feBlend mode="normal" in2="effect1_dropShadow" result="effect2_dropShadow"/>
<feBlend mode="normal" in="SourceGraphic" in2="effect2_dropShadow" result="shape"/>
</filter>
<filter id="filter5_dd" x="849.68" y="581.555" width="105.857" height="76.7829" filterUnits="userSpaceOnUse" color-interpolation-filters="sRGB">
<feFlood flood-opacity="0" result="BackgroundImageFix"/>
<feColorMatrix in="SourceAlpha" type="matrix" values="0 0 0 0 0 0 0 0 0 0 0 0 0 0 0 0 0 0 127 0"/>
<feOffset dy="4"/>
<feGaussianBlur stdDeviation="2"/>
<feColorMatrix type="matrix" values="0 0 0 0 0 0 0 0 0 0 0 0 0 0 0 0 0 0 0.25 0"/>
<feBlend mode="normal" in2="BackgroundImageFix" result="effect1_dropShadow"/>
<feColorMatrix in="SourceAlpha" type="matrix" values="0 0 0 0 0 0 0 0 0 0 0 0 0 0 0 0 0 0 127 0"/>
<feOffset dx="20" dy="20"/>
<feGaussianBlur stdDeviation="10"/>
<feColorMatrix type="matrix" values="0 0 0 0 0 0 0 0 0 0 0 0 0 0 0 0 0 0 0.25 0"/>
<feBlend mode="normal" in2="effect1_dropShadow" result="effect2_dropShadow"/>
<feBlend mode="normal" in="SourceGraphic" in2="effect2_dropShadow" result="shape"/>
</filter>
<filter id="filter6_dd" x="903.262" y="562.295" width="105.857" height="76.7829" filterUnits="userSpaceOnUse" color-interpolation-filters="sRGB">
<feFlood flood-opacity="0" result="BackgroundImageFix"/>
<feColorMatrix in="SourceAlpha" type="matrix" values="0 0 0 0 0 0 0 0 0 0 0 0 0 0 0 0 0 0 127 0"/>
<feOffset dy="4"/>
<feGaussianBlur stdDeviation="2"/>
<feColorMatrix type="matrix" values="0 0 0 0 0 0 0 0 0 0 0 0 0 0 0 0 0 0 0.25 0"/>
<feBlend mode="normal" in2="BackgroundImageFix" result="effect1_dropShadow"/>
<feColorMatrix in="SourceAlpha" type="matrix" values="0 0 0 0 0 0 0 0 0 0 0 0 0 0 0 0 0 0 127 0"/>
<feOffset dx="20" dy="20"/>
<feGaussianBlur stdDeviation="10"/>
<feColorMatrix type="matrix" values="0 0 0 0 0 0 0 0 0 0 0 0 0 0 0 0 0 0 0.25 0"/>
<feBlend mode="normal" in2="effect1_dropShadow" result="effect2_dropShadow"/>
<feBlend mode="normal" in="SourceGraphic" in2="effect2_dropShadow" result="shape"/>
</filter>
<filter id="filter7_dd" x="844.328" y="631.711" width="105.857" height="76.7829" filterUnits="userSpaceOnUse" color-interpolation-filters="sRGB">
<feFlood flood-opacity="0" result="BackgroundImageFix"/>
<feColorMatrix in="SourceAlpha" type="matrix" values="0 0 0 0 0 0 0 0 0 0 0 0 0 0 0 0 0 0 127 0"/>
<feOffset dy="4"/>
<feGaussianBlur stdDeviation="2"/>
<feColorMatrix type="matrix" values="0 0 0 0 0 0 0 0 0 0 0 0 0 0 0 0 0 0 0.25 0"/>
<feBlend mode="normal" in2="BackgroundImageFix" result="effect1_dropShadow"/>
<feColorMatrix in="SourceAlpha" type="matrix" values="0 0 0 0 0 0 0 0 0 0 0 0 0 0 0 0 0 0 127 0"/>
<feOffset dx="20" dy="20"/>
<feGaussianBlur stdDeviation="10"/>
<feColorMatrix type="matrix" values="0 0 0 0 0 0 0 0 0 0 0 0 0 0 0 0 0 0 0.25 0"/>
<feBlend mode="normal" in2="effect1_dropShadow" result="effect2_dropShadow"/>
<feBlend mode="normal" in="SourceGraphic" in2="effect2_dropShadow" result="shape"/>
</filter>
<filter id="filter8_dd" x="896.219" y="610.617" width="105.857" height="76.7829" filterUnits="userSpaceOnUse" color-interpolation-filters="sRGB">
<feFlood flood-opacity="0" result="BackgroundImageFix"/>
<feColorMatrix in="SourceAlpha" type="matrix" values="0 0 0 0 0 0 0 0 0 0 0 0 0 0 0 0 0 0 127 0"/>
<feOffset dy="4"/>
<feGaussianBlur stdDeviation="2"/>
<feColorMatrix type="matrix" values="0 0 0 0 0 0 0 0 0 0 0 0 0 0 0 0 0 0 0.25 0"/>
<feBlend mode="normal" in2="BackgroundImageFix" result="effect1_dropShadow"/>
<feColorMatrix in="SourceAlpha" type="matrix" values="0 0 0 0 0 0 0 0 0 0 0 0 0 0 0 0 0 0 127 0"/>
<feOffset dx="20" dy="20"/>
<feGaussianBlur stdDeviation="10"/>
<feColorMatrix type="matrix" values="0 0 0 0 0 0 0 0 0 0 0 0 0 0 0 0 0 0 0.25 0"/>
<feBlend mode="normal" in2="effect1_dropShadow" result="effect2_dropShadow"/>
<feBlend mode="normal" in="SourceGraphic" in2="effect2_dropShadow" result="shape"/>
</filter>
<filter id="filter9_dd" x="944.062" y="590.523" width="105.857" height="76.7829" filterUnits="userSpaceOnUse" color-interpolation-filters="sRGB">
<feFlood flood-opacity="0" result="BackgroundImageFix"/>
<feColorMatrix in="SourceAlpha" type="matrix" values="0 0 0 0 0 0 0 0 0 0 0 0 0 0 0 0 0 0 127 0"/>
<feOffset dy="4"/>
<feGaussianBlur stdDeviation="2"/>
<feColorMatrix type="matrix" values="0 0 0 0 0 0 0 0 0 0 0 0 0 0 0 0 0 0 0.25 0"/>
<feBlend mode="normal" in2="BackgroundImageFix" result="effect1_dropShadow"/>
<feColorMatrix in="SourceAlpha" type="matrix" values="0 0 0 0 0 0 0 0 0 0 0 0 0 0 0 0 0 0 127 0"/>
<feOffset dx="20" dy="20"/>
<feGaussianBlur stdDeviation="10"/>
<feColorMatrix type="matrix" values="0 0 0 0 0 0 0 0 0 0 0 0 0 0 0 0 0 0 0.25 0"/>
<feBlend mode="normal" in2="effect1_dropShadow" result="effect2_dropShadow"/>
<feBlend mode="normal" in="SourceGraphic" in2="effect2_dropShadow" result="shape"/>
</filter>
<filter id="filter10_dd" x="613.273" y="738.211" width="323.633" height="310.984" filterUnits="userSpaceOnUse" color-interpolation-filters="sRGB">
<feFlood flood-opacity="0" result="BackgroundImageFix"/>
<feColorMatrix in="SourceAlpha" type="matrix" values="0 0 0 0 0 0 0 0 0 0 0 0 0 0 0 0 0 0 127 0"/>
<feOffset dx="10" dy="10"/>
<feGaussianBlur stdDeviation="10"/>
<feColorMatrix type="matrix" values="0 0 0 0 0 0 0 0 0 0 0 0 0 0 0 0 0 0 0.25 0"/>
<feBlend mode="normal" in2="BackgroundImageFix" result="effect1_dropShadow"/>
<feColorMatrix in="SourceAlpha" type="matrix" values="0 0 0 0 0 0 0 0 0 0 0 0 0 0 0 0 0 0 127 0"/>
<feOffset dx="20" dy="20"/>
<feGaussianBlur stdDeviation="20"/>
<feColorMatrix type="matrix" values="0 0 0 0 0 0 0 0 0 0 0 0 0 0 0 0 0 0 0.25 0"/>
<feBlend mode="normal" in2="effect1_dropShadow" result="effect2_dropShadow"/>
<feBlend mode="normal" in="SourceGraphic" in2="effect2_dropShadow" result="shape"/>
</filter>
<filter id="filter11_dd" x="879.156" y="317.514" width="376.462" height="643.576" filterUnits="userSpaceOnUse" color-interpolation-filters="sRGB">
<feFlood flood-opacity="0" result="BackgroundImageFix"/>
<feColorMatrix in="SourceAlpha" type="matrix" values="0 0 0 0 0 0 0 0 0 0 0 0 0 0 0 0 0 0 127 0"/>
<feOffset dx="10" dy="10"/>
<feGaussianBlur stdDeviation="10"/>
<feColorMatrix type="matrix" values="0 0 0 0 0 0 0 0 0 0 0 0 0 0 0 0 0 0 0.25 0"/>
<feBlend mode="normal" in2="BackgroundImageFix" result="effect1_dropShadow"/>
<feColorMatrix in="SourceAlpha" type="matrix" values="0 0 0 0 0 0 0 0 0 0 0 0 0 0 0 0 0 0 127 0"/>
<feOffset dx="20" dy="20"/>
<feGaussianBlur stdDeviation="20"/>
<feColorMatrix type="matrix" values="0 0 0 0 0 0 0 0 0 0 0 0 0 0 0 0 0 0 0.25 0"/>
<feBlend mode="normal" in2="effect1_dropShadow" result="effect2_dropShadow"/>
<feBlend mode="normal" in="SourceGraphic" in2="effect2_dropShadow" result="shape"/>
</filter>
<filter id="filter12_dd" x="640.055" y="201.193" width="372.144" height="644.855" filterUnits="userSpaceOnUse" color-interpolation-filters="sRGB">
<feFlood flood-opacity="0" result="BackgroundImageFix"/>
<feColorMatrix in="SourceAlpha" type="matrix" values="0 0 0 0 0 0 0 0 0 0 0 0 0 0 0 0 0 0 127 0"/>
<feOffset dx="10" dy="10"/>
<feGaussianBlur stdDeviation="10"/>
<feColorMatrix type="matrix" values="0 0 0 0 0 0 0 0 0 0 0 0 0 0 0 0 0 0 0.25 0"/>
<feBlend mode="normal" in2="BackgroundImageFix" result="effect1_dropShadow"/>
<feColorMatrix in="SourceAlpha" type="matrix" values="0 0 0 0 0 0 0 0 0 0 0 0 0 0 0 0 0 0 127 0"/>
<feOffset dx="20" dy="20"/>
<feGaussianBlur stdDeviation="20"/>
<feColorMatrix type="matrix" values="0 0 0 0 0 0 0 0 0 0 0 0 0 0 0 0 0 0 0.25 0"/>
<feBlend mode="normal" in2="effect1_dropShadow" result="effect2_dropShadow"/>
<feBlend mode="normal" in="SourceGraphic" in2="effect2_dropShadow" result="shape"/>
</filter>
<filter id="filter13_dd" x="640.055" y="196.789" width="615.744" height="770.464" filterUnits="userSpaceOnUse" color-interpolation-filters="sRGB">
<feFlood flood-opacity="0" result="BackgroundImageFix"/>
<feColorMatrix in="SourceAlpha" type="matrix" values="0 0 0 0 0 0 0 0 0 0 0 0 0 0 0 0 0 0 127 0"/>
<feOffset dx="10" dy="10"/>
<feGaussianBlur stdDeviation="10"/>
<feColorMatrix type="matrix" values="0 0 0 0 0 0 0 0 0 0 0 0 0 0 0 0 0 0 0.25 0"/>
<feBlend mode="normal" in2="BackgroundImageFix" result="effect1_dropShadow"/>
<feColorMatrix in="SourceAlpha" type="matrix" values="0 0 0 0 0 0 0 0 0 0 0 0 0 0 0 0 0 0 127 0"/>
<feOffset dx="20" dy="20"/>
<feGaussianBlur stdDeviation="20"/>
<feColorMatrix type="matrix" values="0 0 0 0 0 0 0 0 0 0 0 0 0 0 0 0 0 0 0.25 0"/>
<feBlend mode="normal" in2="effect1_dropShadow" result="effect2_dropShadow"/>
<feBlend mode="normal" in="SourceGraphic" in2="effect2_dropShadow" result="shape"/>
</filter>
<filter id="filter14_dd" x="786.223" y="352.102" width="378.938" height="362.869" filterUnits="userSpaceOnUse" color-interpolation-filters="sRGB">
<feFlood flood-opacity="0" result="BackgroundImageFix"/>
<feColorMatrix in="SourceAlpha" type="matrix" values="0 0 0 0 0 0 0 0 0 0 0 0 0 0 0 0 0 0 127 0"/>
<feOffset dx="10" dy="10"/>
<feGaussianBlur stdDeviation="10"/>
<feColorMatrix type="matrix" values="0 0 0 0 0 0 0 0 0 0 0 0 0 0 0 0 0 0 0.25 0"/>
<feBlend mode="normal" in2="BackgroundImageFix" result="effect1_dropShadow"/>
<feColorMatrix in="SourceAlpha" type="matrix" values="0 0 0 0 0 0 0 0 0 0 0 0 0 0 0 0 0 0 127 0"/>
<feOffset dx="20" dy="20"/>
<feGaussianBlur stdDeviation="20"/>
<feColorMatrix type="matrix" values="0 0 0 0 0 0 0 0 0 0 0 0 0 0 0 0 0 0 0.25 0"/>
<feBlend mode="normal" in2="effect1_dropShadow" result="effect2_dropShadow"/>
<feBlend mode="normal" in="SourceGraphic" in2="effect2_dropShadow" result="shape"/>
</filter>
<filter id="filter15_dd" x="804.984" y="372.406" width="343.922" height="317.726" filterUnits="userSpaceOnUse" color-interpolation-filters="sRGB">
<feFlood flood-opacity="0" result="BackgroundImageFix"/>
<feColorMatrix in="SourceAlpha" type="matrix" values="0 0 0 0 0 0 0 0 0 0 0 0 0 0 0 0 0 0 127 0"/>
<feOffset dx="10" dy="10"/>
<feGaussianBlur stdDeviation="10"/>
<feColorMatrix type="matrix" values="0 0 0 0 0 0 0 0 0 0 0 0 0 0 0 0 0 0 0.25 0"/>
<feBlend mode="normal" in2="BackgroundImageFix" result="effect1_dropShadow"/>
<feColorMatrix in="SourceAlpha" type="matrix" values="0 0 0 0 0 0 0 0 0 0 0 0 0 0 0 0 0 0 127 0"/>
<feOffset dx="20" dy="20"/>
<feGaussianBlur stdDeviation="20"/>
<feColorMatrix type="matrix" values="0 0 0 0 0 0 0 0 0 0 0 0 0 0 0 0 0 0 0.25 0"/>
<feBlend mode="normal" in2="effect1_dropShadow" result="effect2_dropShadow"/>
<feBlend mode="normal" in="SourceGraphic" in2="effect2_dropShadow" result="shape"/>
</filter>
<filter id="filter16_dd" x="764.117" y="562.242" width="134.493" height="123.868" filterUnits="userSpaceOnUse" color-interpolation-filters="sRGB">
<feFlood flood-opacity="0" result="BackgroundImageFix"/>
<feColorMatrix in="SourceAlpha" type="matrix" values="0 0 0 0 0 0 0 0 0 0 0 0 0 0 0 0 0 0 127 0"/>
<feOffset dx="10" dy="10"/>
<feGaussianBlur stdDeviation="10"/>
<feColorMatrix type="matrix" values="0 0 0 0 0 0 0 0 0 0 0 0 0 0 0 0 0 0 0.25 0"/>
<feBlend mode="normal" in2="BackgroundImageFix" result="effect1_dropShadow"/>
<feColorMatrix in="SourceAlpha" type="matrix" values="0 0 0 0 0 0 0 0 0 0 0 0 0 0 0 0 0 0 127 0"/>
<feOffset dx="20" dy="20"/>
<feGaussianBlur stdDeviation="20"/>
<feColorMatrix type="matrix" values="0 0 0 0 0 0 0 0 0 0 0 0 0 0 0 0 0 0 0.25 0"/>
<feBlend mode="normal" in2="effect1_dropShadow" result="effect2_dropShadow"/>
<feBlend mode="normal" in="SourceGraphic" in2="effect2_dropShadow" result="shape"/>
</filter>
<filter id="filter17_dd" x="741.594" y="603.238" width="134.493" height="123.868" filterUnits="userSpaceOnUse" color-interpolation-filters="sRGB">
<feFlood flood-opacity="0" result="BackgroundImageFix"/>
<feColorMatrix in="SourceAlpha" type="matrix" values="0 0 0 0 0 0 0 0 0 0 0 0 0 0 0 0 0 0 127 0"/>
<feOffset dx="10" dy="10"/>
<feGaussianBlur stdDeviation="10"/>
<feColorMatrix type="matrix" values="0 0 0 0 0 0 0 0 0 0 0 0 0 0 0 0 0 0 0.25 0"/>
<feBlend mode="normal" in2="BackgroundImageFix" result="effect1_dropShadow"/>
<feColorMatrix in="SourceAlpha" type="matrix" values="0 0 0 0 0 0 0 0 0 0 0 0 0 0 0 0 0 0 127 0"/>
<feOffset dx="20" dy="20"/>
<feGaussianBlur stdDeviation="20"/>
<feColorMatrix type="matrix" values="0 0 0 0 0 0 0 0 0 0 0 0 0 0 0 0 0 0 0.25 0"/>
<feBlend mode="normal" in2="effect1_dropShadow" result="effect2_dropShadow"/>
<feBlend mode="normal" in="SourceGraphic" in2="effect2_dropShadow" result="shape"/>
</filter>
<filter id="filter18_dd" x="719.059" y="644.234" width="134.493" height="123.868" filterUnits="userSpaceOnUse" color-interpolation-filters="sRGB">
<feFlood flood-opacity="0" result="BackgroundImageFix"/>
<feColorMatrix in="SourceAlpha" type="matrix" values="0 0 0 0 0 0 0 0 0 0 0 0 0 0 0 0 0 0 127 0"/>
<feOffset dx="10" dy="10"/>
<feGaussianBlur stdDeviation="10"/>
<feColorMatrix type="matrix" values="0 0 0 0 0 0 0 0 0 0 0 0 0 0 0 0 0 0 0.25 0"/>
<feBlend mode="normal" in2="BackgroundImageFix" result="effect1_dropShadow"/>
<feColorMatrix in="SourceAlpha" type="matrix" values="0 0 0 0 0 0 0 0 0 0 0 0 0 0 0 0 0 0 127 0"/>
<feOffset dx="20" dy="20"/>
<feGaussianBlur stdDeviation="20"/>
<feColorMatrix type="matrix" values="0 0 0 0 0 0 0 0 0 0 0 0 0 0 0 0 0 0 0.25 0"/>
<feBlend mode="normal" in2="effect1_dropShadow" result="effect2_dropShadow"/>
<feBlend mode="normal" in="SourceGraphic" in2="effect2_dropShadow" result="shape"/>
</filter>
<filter id="filter19_dd" x="696.531" y="685.227" width="134.493" height="123.868" filterUnits="userSpaceOnUse" color-interpolation-filters="sRGB">
<feFlood flood-opacity="0" result="BackgroundImageFix"/>
<feColorMatrix in="SourceAlpha" type="matrix" values="0 0 0 0 0 0 0 0 0 0 0 0 0 0 0 0 0 0 127 0"/>
<feOffset dx="10" dy="10"/>
<feGaussianBlur stdDeviation="10"/>
<feColorMatrix type="matrix" values="0 0 0 0 0 0 0 0 0 0 0 0 0 0 0 0 0 0 0.25 0"/>
<feBlend mode="normal" in2="BackgroundImageFix" result="effect1_dropShadow"/>
<feColorMatrix in="SourceAlpha" type="matrix" values="0 0 0 0 0 0 0 0 0 0 0 0 0 0 0 0 0 0 127 0"/>
<feOffset dx="20" dy="20"/>
<feGaussianBlur stdDeviation="20"/>
<feColorMatrix type="matrix" values="0 0 0 0 0 0 0 0 0 0 0 0 0 0 0 0 0 0 0.25 0"/>
<feBlend mode="normal" in2="effect1_dropShadow" result="effect2_dropShadow"/>
<feBlend mode="normal" in="SourceGraphic" in2="effect2_dropShadow" result="shape"/>
</filter>
<filter id="filter20_dd" x="765.363" y="722.721" width="134.493" height="123.868" filterUnits="userSpaceOnUse" color-interpolation-filters="sRGB">
<feFlood flood-opacity="0" result="BackgroundImageFix"/>
<feColorMatrix in="SourceAlpha" type="matrix" values="0 0 0 0 0 0 0 0 0 0 0 0 0 0 0 0 0 0 127 0"/>
<feOffset dx="10" dy="10"/>
<feGaussianBlur stdDeviation="10"/>
<feColorMatrix type="matrix" values="0 0 0 0 0 0 0 0 0 0 0 0 0 0 0 0 0 0 0.25 0"/>
<feBlend mode="normal" in2="BackgroundImageFix" result="effect1_dropShadow"/>
<feColorMatrix in="SourceAlpha" type="matrix" values="0 0 0 0 0 0 0 0 0 0 0 0 0 0 0 0 0 0 127 0"/>
<feOffset dx="20" dy="20"/>
<feGaussianBlur stdDeviation="20"/>
<feColorMatrix type="matrix" values="0 0 0 0 0 0 0 0 0 0 0 0 0 0 0 0 0 0 0.25 0"/>
<feBlend mode="normal" in2="effect1_dropShadow" result="effect2_dropShadow"/>
<feBlend mode="normal" in="SourceGraphic" in2="effect2_dropShadow" result="shape"/>
</filter>
<filter id="filter21_dd" x="838.777" y="762.707" width="134.493" height="123.868" filterUnits="userSpaceOnUse" color-interpolation-filters="sRGB">
<feFlood flood-opacity="0" result="BackgroundImageFix"/>
<feColorMatrix in="SourceAlpha" type="matrix" values="0 0 0 0 0 0 0 0 0 0 0 0 0 0 0 0 0 0 127 0"/>
<feOffset dx="10" dy="10"/>
<feGaussianBlur stdDeviation="10"/>
<feColorMatrix type="matrix" values="0 0 0 0 0 0 0 0 0 0 0 0 0 0 0 0 0 0 0.25 0"/>
<feBlend mode="normal" in2="BackgroundImageFix" result="effect1_dropShadow"/>
<feColorMatrix in="SourceAlpha" type="matrix" values="0 0 0 0 0 0 0 0 0 0 0 0 0 0 0 0 0 0 127 0"/>
<feOffset dx="20" dy="20"/>
<feGaussianBlur stdDeviation="20"/>
<feColorMatrix type="matrix" values="0 0 0 0 0 0 0 0 0 0 0 0 0 0 0 0 0 0 0.25 0"/>
<feBlend mode="normal" in2="effect1_dropShadow" result="effect2_dropShadow"/>
<feBlend mode="normal" in="SourceGraphic" in2="effect2_dropShadow" result="shape"/>
</filter>
<filter id="filter22_dd" x="787.914" y="681.727" width="134.492" height="123.868" filterUnits="userSpaceOnUse" color-interpolation-filters="sRGB">
<feFlood flood-opacity="0" result="BackgroundImageFix"/>
<feColorMatrix in="SourceAlpha" type="matrix" values="0 0 0 0 0 0 0 0 0 0 0 0 0 0 0 0 0 0 127 0"/>
<feOffset dx="10" dy="10"/>
<feGaussianBlur stdDeviation="10"/>
<feColorMatrix type="matrix" values="0 0 0 0 0 0 0 0 0 0 0 0 0 0 0 0 0 0 0.25 0"/>
<feBlend mode="normal" in2="BackgroundImageFix" result="effect1_dropShadow"/>
<feColorMatrix in="SourceAlpha" type="matrix" values="0 0 0 0 0 0 0 0 0 0 0 0 0 0 0 0 0 0 127 0"/>
<feOffset dx="20" dy="20"/>
<feGaussianBlur stdDeviation="20"/>
<feColorMatrix type="matrix" values="0 0 0 0 0 0 0 0 0 0 0 0 0 0 0 0 0 0 0.25 0"/>
<feBlend mode="normal" in2="effect1_dropShadow" result="effect2_dropShadow"/>
<feBlend mode="normal" in="SourceGraphic" in2="effect2_dropShadow" result="shape"/>
</filter>
<filter id="filter23_dd" x="861.328" y="721.711" width="134.493" height="123.868" filterUnits="userSpaceOnUse" color-interpolation-filters="sRGB">
<feFlood flood-opacity="0" result="BackgroundImageFix"/>
<feColorMatrix in="SourceAlpha" type="matrix" values="0 0 0 0 0 0 0 0 0 0 0 0 0 0 0 0 0 0 127 0"/>
<feOffset dx="10" dy="10"/>
<feGaussianBlur stdDeviation="10"/>
<feColorMatrix type="matrix" values="0 0 0 0 0 0 0 0 0 0 0 0 0 0 0 0 0 0 0.25 0"/>
<feBlend mode="normal" in2="BackgroundImageFix" result="effect1_dropShadow"/>
<feColorMatrix in="SourceAlpha" type="matrix" values="0 0 0 0 0 0 0 0 0 0 0 0 0 0 0 0 0 0 127 0"/>
<feOffset dx="20" dy="20"/>
<feGaussianBlur stdDeviation="20"/>
<feColorMatrix type="matrix" values="0 0 0 0 0 0 0 0 0 0 0 0 0 0 0 0 0 0 0.25 0"/>
<feBlend mode="normal" in2="effect1_dropShadow" result="effect2_dropShadow"/>
<feBlend mode="normal" in="SourceGraphic" in2="effect2_dropShadow" result="shape"/>
</filter>
<filter id="filter24_dd" x="810.43" y="640.73" width="134.493" height="123.868" filterUnits="userSpaceOnUse" color-interpolation-filters="sRGB">
<feFlood flood-opacity="0" result="BackgroundImageFix"/>
<feColorMatrix in="SourceAlpha" type="matrix" values="0 0 0 0 0 0 0 0 0 0 0 0 0 0 0 0 0 0 127 0"/>
<feOffset dx="10" dy="10"/>
<feGaussianBlur stdDeviation="10"/>
<feColorMatrix type="matrix" values="0 0 0 0 0 0 0 0 0 0 0 0 0 0 0 0 0 0 0.25 0"/>
<feBlend mode="normal" in2="BackgroundImageFix" result="effect1_dropShadow"/>
<feColorMatrix in="SourceAlpha" type="matrix" values="0 0 0 0 0 0 0 0 0 0 0 0 0 0 0 0 0 0 127 0"/>
<feOffset dx="20" dy="20"/>
<feGaussianBlur stdDeviation="20"/>
<feColorMatrix type="matrix" values="0 0 0 0 0 0 0 0 0 0 0 0 0 0 0 0 0 0 0.25 0"/>
<feBlend mode="normal" in2="effect1_dropShadow" result="effect2_dropShadow"/>
<feBlend mode="normal" in="SourceGraphic" in2="effect2_dropShadow" result="shape"/>
</filter>
<filter id="filter25_dd" x="883.867" y="680.723" width="134.493" height="123.868" filterUnits="userSpaceOnUse" color-interpolation-filters="sRGB">
<feFlood flood-opacity="0" result="BackgroundImageFix"/>
<feColorMatrix in="SourceAlpha" type="matrix" values="0 0 0 0 0 0 0 0 0 0 0 0 0 0 0 0 0 0 127 0"/>
<feOffset dx="10" dy="10"/>
<feGaussianBlur stdDeviation="10"/>
<feColorMatrix type="matrix" values="0 0 0 0 0 0 0 0 0 0 0 0 0 0 0 0 0 0 0.25 0"/>
<feBlend mode="normal" in2="BackgroundImageFix" result="effect1_dropShadow"/>
<feColorMatrix in="SourceAlpha" type="matrix" values="0 0 0 0 0 0 0 0 0 0 0 0 0 0 0 0 0 0 127 0"/>
<feOffset dx="20" dy="20"/>
<feGaussianBlur stdDeviation="20"/>
<feColorMatrix type="matrix" values="0 0 0 0 0 0 0 0 0 0 0 0 0 0 0 0 0 0 0.25 0"/>
<feBlend mode="normal" in2="effect1_dropShadow" result="effect2_dropShadow"/>
<feBlend mode="normal" in="SourceGraphic" in2="effect2_dropShadow" result="shape"/>
</filter>
<filter id="filter26_dd" x="832.957" y="599.73" width="134.493" height="123.868" filterUnits="userSpaceOnUse" color-interpolation-filters="sRGB">
<feFlood flood-opacity="0" result="BackgroundImageFix"/>
<feColorMatrix in="SourceAlpha" type="matrix" values="0 0 0 0 0 0 0 0 0 0 0 0 0 0 0 0 0 0 127 0"/>
<feOffset dx="10" dy="10"/>
<feGaussianBlur stdDeviation="10"/>
<feColorMatrix type="matrix" values="0 0 0 0 0 0 0 0 0 0 0 0 0 0 0 0 0 0 0.25 0"/>
<feBlend mode="normal" in2="BackgroundImageFix" result="effect1_dropShadow"/>
<feColorMatrix in="SourceAlpha" type="matrix" values="0 0 0 0 0 0 0 0 0 0 0 0 0 0 0 0 0 0 127 0"/>
<feOffset dx="20" dy="20"/>
<feGaussianBlur stdDeviation="20"/>
<feColorMatrix type="matrix" values="0 0 0 0 0 0 0 0 0 0 0 0 0 0 0 0 0 0 0.25 0"/>
<feBlend mode="normal" in2="effect1_dropShadow" result="effect2_dropShadow"/>
<feBlend mode="normal" in="SourceGraphic" in2="effect2_dropShadow" result="shape"/>
</filter>
<filter id="filter27_dd" x="906.391" y="639.723" width="134.493" height="123.868" filterUnits="userSpaceOnUse" color-interpolation-filters="sRGB">
<feFlood flood-opacity="0" result="BackgroundImageFix"/>
<feColorMatrix in="SourceAlpha" type="matrix" values="0 0 0 0 0 0 0 0 0 0 0 0 0 0 0 0 0 0 127 0"/>
<feOffset dx="10" dy="10"/>
<feGaussianBlur stdDeviation="10"/>
<feColorMatrix type="matrix" values="0 0 0 0 0 0 0 0 0 0 0 0 0 0 0 0 0 0 0.25 0"/>
<feBlend mode="normal" in2="BackgroundImageFix" result="effect1_dropShadow"/>
<feColorMatrix in="SourceAlpha" type="matrix" values="0 0 0 0 0 0 0 0 0 0 0 0 0 0 0 0 0 0 127 0"/>
<feOffset dx="20" dy="20"/>
<feGaussianBlur stdDeviation="20"/>
<feColorMatrix type="matrix" values="0 0 0 0 0 0 0 0 0 0 0 0 0 0 0 0 0 0 0.25 0"/>
<feBlend mode="normal" in2="effect1_dropShadow" result="effect2_dropShadow"/>
<feBlend mode="normal" in="SourceGraphic" in2="effect2_dropShadow" result="shape"/>
</filter>
<filter id="filter28_dd" x="848.867" y="434.93" width="254.517" height="195.314" filterUnits="userSpaceOnUse" color-interpolation-filters="sRGB">
<feFlood flood-opacity="0" result="BackgroundImageFix"/>
<feColorMatrix in="SourceAlpha" type="matrix" values="0 0 0 0 0 0 0 0 0 0 0 0 0 0 0 0 0 0 127 0"/>
<feOffset dx="10" dy="10"/>
<feGaussianBlur stdDeviation="10"/>
<feColorMatrix type="matrix" values="0 0 0 0 0 0 0 0 0 0 0 0 0 0 0 0 0 0 0.25 0"/>
<feBlend mode="normal" in2="BackgroundImageFix" result="effect1_dropShadow"/>
<feColorMatrix in="SourceAlpha" type="matrix" values="0 0 0 0 0 0 0 0 0 0 0 0 0 0 0 0 0 0 127 0"/>
<feOffset dx="20" dy="20"/>
<feGaussianBlur stdDeviation="20"/>
<feColorMatrix type="matrix" values="0 0 0 0 0 0 0 0 0 0 0 0 0 0 0 0 0 0 0.25 0"/>
<feBlend mode="normal" in2="effect1_dropShadow" result="effect2_dropShadow"/>
<feBlend mode="normal" in="SourceGraphic" in2="effect2_dropShadow" result="shape"/>
</filter>
<clipPath id="clip0">
<rect width="1440" height="1024" fill="white"/>
</clipPath>
</defs>
</svg>
