<svg width="1440" height="1024" viewBox="0 0 1440 1024" fill="none" xmlns="http://www.w3.org/2000/svg">
<g clip-path="url(#clip0)">
<rect width="1440" height="1024" fill="white"/>
<rect width="1440" height="1024" fill="#FFC446" fill-opacity="0.49"/>
<rect width="1460" height="512" fill="#3FACE4" fill-opacity="0.5"/>
<g filter="url(#filter0_d)">
<rect x="272" y="232" width="904" height="560" fill="#F8F9FD"/>
</g>
<path d="M415.416 646.854L409.69 643.783C409.144 643.493 408.607 643.179 408.06 642.88C420.252 641.075 431.37 635.746 439.585 627.77C447.8 619.793 452.625 609.643 453.266 598.987C453.906 588.332 450.325 577.806 443.111 569.139C435.897 560.472 425.478 554.179 413.568 551.296L413.851 570.668L401.514 549.6H401.341C394.193 549.311 387.048 550.241 380.316 552.334C373.584 554.428 367.396 557.644 362.105 561.801C356.815 565.957 352.525 570.972 349.481 576.558C346.438 582.145 344.7 588.193 344.367 594.359C344.312 595.254 344.367 596.142 344.367 597.029C340.079 592.804 336.173 588.274 333.597 583.311C328.38 573.267 328.28 561.881 328.689 548.053C329.509 520.639 330.884 493.022 332.668 465.491C345.55 464.254 357.499 459.097 366.369 450.945C375.24 442.793 380.451 432.181 381.066 421.014C381.139 419.577 381.112 418.156 381.066 416.75C381.066 416.397 381.066 416.043 381.002 415.698C380.893 414.332 380.748 412.981 380.502 411.646C380.502 411.426 380.411 411.214 380.365 411.002C380.147 409.871 379.874 408.756 379.564 407.649C379.446 407.241 379.327 406.864 379.2 406.416C378.817 405.223 378.399 404.06 377.907 402.875C377.743 402.49 377.552 402.089 377.379 401.728C376.997 400.872 376.578 400.024 376.132 399.192C375.895 398.752 375.667 398.312 375.422 397.88C375.349 397.771 375.303 397.653 375.23 397.543C369.477 387.738 359.92 379.984 348.222 375.631C336.524 371.278 323.426 370.601 311.209 373.718L311.573 398.925L299.374 378.1C289.342 383.057 281.409 390.65 276.733 399.769C272.057 408.889 270.883 419.06 273.381 428.796H273.326C273.408 429.134 273.527 429.448 273.618 429.785C273.791 430.406 273.973 431.018 274.173 431.631C274.428 432.416 274.719 433.201 275.02 433.987C275.247 434.56 275.466 435.141 275.721 435.714C276.094 436.546 276.513 437.355 276.932 438.164C277.178 438.635 277.396 439.122 277.66 439.585C278.352 440.805 279.105 441.991 279.918 443.143C280.2 443.551 280.519 443.928 280.828 444.328C281.411 445.114 281.994 445.899 282.649 446.629C283.041 447.092 283.459 447.532 283.869 447.988C284.47 448.639 285.08 449.283 285.69 449.904C286.136 450.351 286.6 450.775 287.065 451.207C287.738 451.812 288.421 452.401 289.131 452.982C289.596 453.367 290.042 453.767 290.561 454.128C291.362 454.741 292.2 455.33 293.046 455.903C293.474 456.186 293.893 456.492 294.33 456.775C295.623 457.56 296.952 458.345 298.327 459.13C298.582 459.272 298.864 459.382 299.119 459.515C300.275 460.096 301.44 460.646 302.642 461.156C303.161 461.376 303.689 461.565 304.217 461.769C305.2 462.154 306.193 462.554 307.212 462.853C307.804 463.049 308.405 463.229 309.033 463.41C310.035 463.701 311.054 463.968 312.083 464.195C312.684 464.337 313.294 464.486 313.904 464.611C315.015 464.839 316.153 465.028 317.3 465.2L317.518 465.24C316.772 476.851 316.104 488.47 315.516 500.097C312.27 494.34 307.695 489.217 302.071 485.04C296.447 480.864 289.892 477.724 282.809 475.812C275.727 473.9 268.266 473.256 260.885 473.922C253.503 474.587 246.358 476.547 239.887 479.681L249.519 502.453L229.681 485.963C219.057 494.341 212.724 506.014 212.073 518.417C211.819 522.768 212.285 527.128 213.457 531.366C215.948 540.535 221.575 548.846 229.609 555.223C237.643 561.599 247.714 565.747 258.514 567.127C269.314 568.508 280.345 567.057 290.178 562.965C300.011 558.872 308.191 552.325 313.658 544.174C313.658 545.351 313.567 546.529 313.531 547.715C313.167 559.918 312.711 575.105 319.767 588.666C324.547 597.854 332.231 605.314 339.797 612.004C344.74 616.362 349.866 620.571 355.119 624.647C360.286 630.639 367.033 635.484 374.802 638.781C383.433 644.521 392.374 649.916 401.614 654.895L407.387 657.989C412.576 660.76 417.893 663.611 423.1 666.571C422.19 666.493 421.28 666.406 420.369 666.367C408.815 665.903 397.389 668.62 387.743 674.125C378.097 679.63 370.731 687.638 366.709 696.992L400.759 720.887L363.304 713.396C363.315 721.344 365.662 729.16 370.125 736.114C374.589 743.068 381.022 748.932 388.825 753.16C396.629 757.388 405.547 759.841 414.747 760.291C423.948 760.74 433.13 759.171 441.436 755.729C440.599 756.64 439.755 757.546 438.905 758.446C437.23 760.242 435.576 762.027 433.944 763.802C411.784 788.003 405.62 810.988 416.591 828.507L429.938 822.288C419.258 805.24 435.318 783.41 445.843 771.913C447.445 770.16 449.072 768.406 450.723 766.652C464.898 751.442 480.94 734.26 480.548 713.153C479.957 681.358 444.131 662.229 415.416 646.854Z" fill="#F2F2F2"/>
<path d="M942.561 551.052L948.287 547.981C948.834 547.691 949.371 547.377 949.917 547.078C937.727 545.268 926.614 539.935 918.403 531.955C910.193 523.975 905.374 513.824 904.739 503.169C904.103 492.515 907.689 481.991 914.906 473.326C922.124 464.662 932.544 458.374 944.454 455.494L944.172 474.866L956.508 453.798H956.663C963.812 453.509 970.956 454.439 977.688 456.532C984.42 458.626 990.609 461.842 995.899 465.999C1001.19 470.155 1005.48 475.17 1008.52 480.756C1011.57 486.343 1013.3 492.391 1013.64 498.557C1013.69 499.452 1013.64 500.34 1013.64 501.227C1017.93 497.002 1021.83 492.472 1024.41 487.509C1029.62 477.465 1029.72 466.079 1029.32 452.251C1028.5 424.837 1027.12 397.22 1025.34 369.689C1012.45 368.452 1000.51 363.295 991.635 355.143C982.765 346.991 977.554 336.379 976.938 325.212C976.866 323.775 976.893 322.354 976.938 320.948C976.938 320.595 976.938 320.241 977.002 319.896C977.111 318.53 977.257 317.179 977.503 315.844C977.503 315.624 977.594 315.412 977.639 315.2C977.858 314.069 978.131 312.954 978.441 311.847C978.559 311.439 978.677 311.062 978.805 310.614C979.187 309.421 979.606 308.258 980.098 307.073C980.261 306.688 980.453 306.287 980.626 305.926C981.008 305.07 981.427 304.222 981.873 303.39C982.11 302.95 982.337 302.51 982.592 302.078C982.656 301.969 982.701 301.851 982.774 301.741C988.525 291.941 998.075 284.191 1009.77 279.836C1021.46 275.482 1034.55 274.8 1046.76 277.908L1046.39 303.115L1058.59 282.29C1068.63 287.246 1076.57 294.84 1081.24 303.961C1085.92 313.083 1087.1 323.256 1084.6 332.994H1084.65C1084.57 333.332 1084.45 333.646 1084.36 333.983C1084.19 334.604 1084 335.216 1083.8 335.829C1083.55 336.614 1083.26 337.399 1082.96 338.185C1082.73 338.758 1082.51 339.339 1082.26 339.912C1081.88 340.744 1081.46 341.553 1081.05 342.362C1080.8 342.833 1080.58 343.32 1080.32 343.783C1079.63 345.003 1078.87 346.189 1078.06 347.341C1077.78 347.749 1077.46 348.126 1077.15 348.526C1076.57 349.312 1075.98 350.097 1075.33 350.827C1074.94 351.29 1074.52 351.73 1074.11 352.186C1073.51 352.837 1072.9 353.481 1072.29 354.102C1071.84 354.549 1071.38 354.973 1070.91 355.405C1070.25 356.01 1069.56 356.599 1068.85 357.18C1068.38 357.565 1067.94 357.965 1067.42 358.326C1066.62 358.939 1065.78 359.528 1064.93 360.101C1064.5 360.384 1064.08 360.69 1063.65 360.973C1062.35 361.758 1061.03 362.543 1059.65 363.289C1059.4 363.43 1059.11 363.54 1058.86 363.674C1057.7 364.255 1056.54 364.805 1055.34 365.315C1054.82 365.535 1054.29 365.723 1053.76 365.928C1052.78 366.312 1051.78 366.713 1050.76 367.011C1050.17 367.208 1049.57 367.388 1048.94 367.569C1047.94 367.859 1046.92 368.126 1045.89 368.354C1045.29 368.495 1044.68 368.645 1044.07 368.77C1042.96 368.998 1041.82 369.186 1040.68 369.359H1040.46C1041.21 380.976 1041.87 392.595 1042.46 404.217C1045.71 398.46 1050.28 393.336 1055.91 389.16C1061.53 384.984 1068.09 381.843 1075.17 379.931C1082.25 378.019 1089.71 377.376 1097.09 378.041C1104.47 378.707 1111.62 380.666 1118.09 383.8L1108.46 406.572L1128.28 390.161C1138.9 398.539 1145.23 410.212 1145.89 422.615C1146.14 426.966 1145.67 431.326 1144.5 435.564C1142.01 444.733 1136.38 453.044 1128.35 459.421C1120.32 465.797 1110.25 469.945 1099.45 471.325C1088.65 472.706 1077.61 471.255 1067.78 467.163C1057.95 463.07 1049.77 456.523 1044.3 448.372C1044.3 449.549 1044.4 450.727 1044.43 451.913C1044.79 464.116 1045.25 479.303 1038.19 492.864C1033.41 502.052 1025.73 509.512 1018.16 516.202C1013.22 520.56 1008.09 524.769 1002.84 528.845C997.673 534.837 990.926 539.682 983.157 542.979C974.526 548.719 965.585 554.114 956.345 559.093L950.572 562.187C945.383 564.958 940.066 567.809 934.859 570.769C935.769 570.691 936.679 570.604 937.59 570.565C949.144 570.101 960.57 572.818 970.216 578.323C979.862 583.828 987.228 591.836 991.25 601.19L957.2 625.085L994.655 617.594C994.644 625.542 992.297 633.358 987.834 640.312C983.37 647.266 976.937 653.13 969.134 657.358C961.33 661.586 952.412 664.039 943.212 664.489C934.011 664.938 924.829 663.369 916.523 659.927C917.36 660.838 918.204 661.744 919.054 662.644C920.729 664.44 922.383 666.225 924.015 668C946.175 692.201 952.339 715.186 941.368 732.705L928.021 726.486C938.701 709.438 922.641 687.608 912.116 676.111C910.514 674.358 908.887 672.604 907.236 670.85C893.079 655.679 877.037 638.482 877.429 617.39C878.021 585.556 913.809 566.427 942.561 551.052Z" fill="#F2F2F2"/>
<path d="M797.176 857.999C1046.16 857.999 1248 846.397 1248 832.085C1248 817.774 1046.16 806.172 797.176 806.172C548.192 806.172 346.352 817.774 346.352 832.085C346.352 846.397 548.192 857.999 797.176 857.999Z" fill="#F2F2F2"/>
<path d="M812.317 832.872L650.088 831.082L650.561 827.493L658.409 768.293H800.882L811.361 827.493L812.162 831.977L812.317 832.872Z" fill="#2F2E41"/>
<path opacity="0.1" d="M812.162 831.976H731.198L650.088 831.081L650.561 827.492H811.361L812.162 831.976Z" fill="black"/>
<path d="M838.317 828.387H623.047V832.871H838.317V828.387Z" fill="#3F3D56"/>
<path d="M1043.71 412.72C1043.72 411.187 1043.38 409.667 1042.7 408.247C1042.03 406.828 1041.04 405.537 1039.79 404.447C1038.54 403.358 1037.05 402.492 1035.41 401.898C1033.77 401.305 1032.01 400.995 1030.24 400.988H429.064C427.286 400.995 425.528 401.305 423.888 401.898C422.249 402.492 420.761 403.358 419.51 404.447C418.259 405.537 417.269 406.828 416.596 408.247C415.923 409.667 415.582 411.187 415.59 412.72V727.026H1043.71V412.72Z" fill="#3F3D56"/>
<path d="M415.59 723.895V760.707C415.59 763.79 417.009 766.746 419.536 768.925C422.063 771.105 425.491 772.329 429.064 772.329H1030.24C1033.81 772.329 1037.24 771.105 1039.76 768.925C1042.29 766.746 1043.71 763.79 1043.71 760.707V723.895H415.59Z" fill="#3F3D56"/>
<path d="M1020.82 420.723H441.582V703.265H1020.82V420.723Z" fill="#32B0B8"/>
<path d="M732.737 758.358C734.864 758.361 736.963 757.945 738.876 757.144C740.79 756.343 742.467 755.176 743.78 753.733C744.181 753.293 744.547 752.828 744.873 752.343L737.17 751.252L745.501 751.307C746.298 749.807 746.733 748.183 746.78 746.533C746.827 744.884 746.485 743.243 745.774 741.711L734.594 746.713L744.9 740.18C743.932 738.745 742.632 737.497 741.082 736.513C739.531 735.53 737.762 734.832 735.886 734.463C734.009 734.094 732.065 734.062 730.173 734.368C728.281 734.675 726.483 735.314 724.89 736.245C723.296 737.176 721.942 738.38 720.911 739.782C719.88 741.184 719.194 742.754 718.896 744.394C718.598 746.034 718.694 747.709 719.178 749.316C719.663 750.923 720.525 752.426 721.711 753.733V753.733C723.023 755.174 724.697 756.339 726.607 757.14C728.517 757.942 730.613 758.358 732.737 758.358Z" fill="#6C63FF"/>
<path opacity="0.1" d="M746.803 772.328L811.525 828.388L801.592 772.328H746.803Z" fill="black"/>
<path d="M920.629 810.587L938.064 801.792C935.702 798.323 932.69 795.216 929.151 792.596L896.275 801.415L922.031 788.348C915.653 785.335 908.475 783.806 901.204 783.911C893.933 784.017 886.819 785.754 880.563 788.952C874.306 792.149 869.123 796.696 865.523 802.146C861.923 807.596 860.03 813.761 860.031 820.033C860.031 839.987 878.786 840.678 901.911 840.678C925.036 840.678 943.79 839.987 943.79 820.033C943.797 814.986 942.575 809.994 940.203 805.38L920.629 810.587Z" fill="#57B894"/>
<path opacity="0.1" d="M925.071 829.983C923.212 828.38 921.136 826.975 918.89 825.798C915.73 823.984 912.453 822.138 908.72 821.518C905.452 820.976 902.065 821.432 898.705 821.275C892.909 820.968 887.452 818.81 883.401 815.22C881.016 813.1 879.149 810.509 876.282 808.868C873.195 807.124 869.28 806.747 865.63 807.179C864.565 807.316 863.51 807.505 862.47 807.745C860.827 811.673 859.989 815.818 859.994 819.995C859.994 839.948 878.749 840.639 901.874 840.639C913.099 840.639 923.296 840.474 930.816 838.024L929.56 835.998C928.364 833.838 926.856 831.816 925.071 829.983V829.983Z" fill="black"/>
<path opacity="0.3" d="M486.566 529.723H467.311V534.764H486.566V529.723Z" fill="#6C63FF"/>
<path opacity="0.3" d="M1000.36 529.871H981.109V534.912H1000.36V529.871Z" fill="#6C63FF"/>
<path opacity="0.3" d="M486.74 565.164H467.484V570.205H486.74V565.164Z" fill="#6C63FF"/>
<path opacity="0.3" d="M486.912 600.602H467.656V605.643H486.912V600.602Z" fill="#6C63FF"/>
<path opacity="0.3" d="M487.086 636.031H467.83V641.073H487.086V636.031Z" fill="#6C63FF"/>
<g opacity="0.2">
<path opacity="0.2" d="M492.029 532.152H486.566V532.349H492.029V532.152Z" fill="#F2F2F2"/>
<path opacity="0.2" d="M964.566 532.349H953.832V532.152H964.566V532.349ZM943.089 532.349H932.356V532.152H943.089V532.349ZM921.613 532.349H910.87V532.152H921.613V532.349ZM900.136 532.349H889.393V532.152H900.136V532.349ZM878.659 532.349H867.916V532.152H878.659V532.349ZM857.173 532.349H846.439V532.152H857.173V532.349ZM835.696 532.349H824.953V532.152H835.696V532.349ZM814.219 532.349H803.476V532.152H814.219V532.349ZM792.742 532.349H781.999V532.152H792.742V532.349ZM771.256 532.349H760.522V532.152H771.256V532.349ZM749.779 532.349H739.036V532.152H749.779V532.349ZM728.302 532.349H717.559V532.152H728.302V532.349ZM706.825 532.349H696.082V532.152H706.825V532.349ZM685.339 532.349H674.605V532.152H685.339V532.349ZM663.862 532.349H653.128V532.152H663.862V532.349ZM642.385 532.349H631.679V532.152H642.422L642.385 532.349ZM620.908 532.349H610.165V532.152H620.908V532.349ZM599.422 532.349H588.688V532.152H599.422V532.349ZM577.945 532.349H567.211V532.152H577.963L577.945 532.349ZM556.468 532.349H545.725V532.152H556.468V532.349ZM534.991 532.349H524.248V532.152H534.991V532.349ZM513.505 532.349H502.771V532.152H513.505V532.349Z" fill="#F2F2F2"/>
<path opacity="0.2" d="M980.773 532.152H975.311V532.349H980.773V532.152Z" fill="#F2F2F2"/>
<path opacity="0.2" d="M492.029 532.152H486.566V532.349H492.029V532.152Z" fill="#F2F2F2"/>
<path opacity="0.2" d="M964.566 532.349H953.832V532.152H964.566V532.349ZM943.089 532.349H932.356V532.152H943.089V532.349ZM921.613 532.349H910.87V532.152H921.613V532.349ZM900.136 532.349H889.393V532.152H900.136V532.349ZM878.659 532.349H867.916V532.152H878.659V532.349ZM857.173 532.349H846.439V532.152H857.173V532.349ZM835.696 532.349H824.953V532.152H835.696V532.349ZM814.219 532.349H803.476V532.152H814.219V532.349ZM792.742 532.349H781.999V532.152H792.742V532.349ZM771.256 532.349H760.522V532.152H771.256V532.349ZM749.779 532.349H739.036V532.152H749.779V532.349ZM728.302 532.349H717.559V532.152H728.302V532.349ZM706.825 532.349H696.082V532.152H706.825V532.349ZM685.339 532.349H674.605V532.152H685.339V532.349ZM663.862 532.349H653.128V532.152H663.862V532.349ZM642.385 532.349H631.679V532.152H642.422L642.385 532.349ZM620.908 532.349H610.165V532.152H620.908V532.349ZM599.422 532.349H588.688V532.152H599.422V532.349ZM577.945 532.349H567.211V532.152H577.963L577.945 532.349ZM556.468 532.349H545.725V532.152H556.468V532.349ZM534.991 532.349H524.248V532.152H534.991V532.349ZM513.505 532.349H502.771V532.152H513.505V532.349Z" fill="#F2F2F2"/>
<path opacity="0.2" d="M980.773 532.152H975.311V532.349H980.773V532.152Z" fill="#F2F2F2"/>
</g>
<path opacity="0.3" d="M486.566 494.387H467.311V499.428H486.566V494.387Z" fill="#6C63FF"/>
<path opacity="0.3" d="M1000.36 494.535H981.109V499.577H1000.36V494.535Z" fill="#6C63FF"/>
<g opacity="0.2">
<path opacity="0.2" d="M492.029 496.812H486.566V497.009H492.029V496.812Z" fill="#F2F2F2"/>
<path opacity="0.2" d="M964.566 497.009H953.832V496.812H964.566V497.009ZM943.089 497.009H932.356V496.812H943.089V497.009ZM921.613 497.009H910.87V496.812H921.613V497.009ZM900.136 497.009H889.393V496.812H900.136V497.009ZM878.659 497.009H867.916V496.812H878.659V497.009ZM857.173 497.009H846.439V496.812H857.173V497.009ZM835.696 497.009H824.953V496.812H835.696V497.009ZM814.219 497.009H803.476V496.812H814.219V497.009ZM792.742 497.009H781.999V496.812H792.742V497.009ZM771.256 497.009H760.522V496.812H771.256V497.009ZM749.779 497.009H739.036V496.812H749.779V497.009ZM728.302 497.009H717.559V496.812H728.302V497.009ZM706.825 497.009H696.082V496.812H706.825V497.009ZM685.339 497.009H674.605V496.812H685.339V497.009ZM663.862 497.009H653.128V496.812H663.862V497.009ZM642.385 497.009H631.679V496.812H642.422L642.385 497.009ZM620.908 497.009H610.165V496.812H620.908V497.009ZM599.422 497.009H588.688V496.812H599.422V497.009ZM577.945 497.009H567.211V496.812H577.963L577.945 497.009ZM556.468 497.009H545.725V496.812H556.468V497.009ZM534.991 497.009H524.248V496.812H534.991V497.009ZM513.505 497.009H502.771V496.812H513.505V497.009Z" fill="#F2F2F2"/>
<path opacity="0.2" d="M980.773 496.812H975.311V497.009H980.773V496.812Z" fill="#F2F2F2"/>
</g>
<path opacity="0.3" d="M1000.36 565.164H981.109V570.205H1000.36V565.164Z" fill="#6C63FF"/>
<g opacity="0.2">
<path opacity="0.2" d="M492.029 567.441H486.566V567.638H492.029V567.441Z" fill="#F2F2F2"/>
<path opacity="0.2" d="M964.566 567.63H953.832V567.434H964.566V567.63ZM943.089 567.63H932.356V567.434H943.089V567.63ZM921.613 567.63H910.87V567.434H921.613V567.63ZM900.136 567.63H889.393V567.434H900.136V567.63ZM878.659 567.63H867.916V567.434H878.659V567.63ZM857.173 567.63H846.439V567.434H857.173V567.63ZM835.696 567.63H824.953V567.434H835.696V567.63ZM814.219 567.63H803.476V567.434H814.219V567.63ZM792.742 567.63H781.999V567.434H792.742V567.63ZM771.256 567.63H760.522V567.434H771.256V567.63ZM749.779 567.63H739.036V567.434H749.779V567.63ZM728.302 567.63H717.559V567.434H728.302V567.63ZM706.825 567.63H696.082V567.434H706.825V567.63ZM685.339 567.63H674.605V567.434H685.339V567.63ZM663.862 567.63H653.128V567.434H663.862V567.63ZM642.385 567.63H631.679V567.434H642.422L642.385 567.63ZM620.908 567.63H610.165V567.434H620.908V567.63ZM599.422 567.63H588.688V567.434H599.422V567.63ZM577.945 567.63H567.211V567.434H577.963L577.945 567.63ZM556.468 567.63H545.725V567.434H556.468V567.63ZM534.991 567.63H524.248V567.434H534.991V567.63ZM513.505 567.63H502.771V567.434H513.505V567.63Z" fill="#F2F2F2"/>
<path opacity="0.2" d="M980.773 567.441H975.311V567.638H980.773V567.441Z" fill="#F2F2F2"/>
<path opacity="0.2" d="M492.029 567.441H486.566V567.638H492.029V567.441Z" fill="#F2F2F2"/>
<path opacity="0.2" d="M964.566 567.63H953.832V567.434H964.566V567.63ZM943.089 567.63H932.356V567.434H943.089V567.63ZM921.613 567.63H910.87V567.434H921.613V567.63ZM900.136 567.63H889.393V567.434H900.136V567.63ZM878.659 567.63H867.916V567.434H878.659V567.63ZM857.173 567.63H846.439V567.434H857.173V567.63ZM835.696 567.63H824.953V567.434H835.696V567.63ZM814.219 567.63H803.476V567.434H814.219V567.63ZM792.742 567.63H781.999V567.434H792.742V567.63ZM771.256 567.63H760.522V567.434H771.256V567.63ZM749.779 567.63H739.036V567.434H749.779V567.63ZM728.302 567.63H717.559V567.434H728.302V567.63ZM706.825 567.63H696.082V567.434H706.825V567.63ZM685.339 567.63H674.605V567.434H685.339V567.63ZM663.862 567.63H653.128V567.434H663.862V567.63ZM642.385 567.63H631.679V567.434H642.422L642.385 567.63ZM620.908 567.63H610.165V567.434H620.908V567.63ZM599.422 567.63H588.688V567.434H599.422V567.63ZM577.945 567.63H567.211V567.434H577.963L577.945 567.63ZM556.468 567.63H545.725V567.434H556.468V567.63ZM534.991 567.63H524.248V567.434H534.991V567.63ZM513.505 567.63H502.771V567.434H513.505V567.63Z" fill="#F2F2F2"/>
<path opacity="0.2" d="M980.773 567.441H975.311V567.638H980.773V567.441Z" fill="#F2F2F2"/>
</g>
<path opacity="0.3" d="M1000.36 600.453H981.109V605.494H1000.36V600.453Z" fill="#6C63FF"/>
<g opacity="0.2">
<path opacity="0.2" d="M492.029 602.723H486.566V602.919H492.029V602.723Z" fill="#F2F2F2"/>
<path opacity="0.2" d="M964.566 602.919H953.832V602.723H964.566V602.919ZM943.089 602.919H932.356V602.723H943.089V602.919ZM921.613 602.919H910.87V602.723H921.613V602.919ZM900.136 602.919H889.393V602.723H900.136V602.919ZM878.659 602.919H867.916V602.723H878.659V602.919ZM857.173 602.919H846.439V602.723H857.173V602.919ZM835.696 602.919H824.953V602.723H835.696V602.919ZM814.219 602.919H803.476V602.723H814.219V602.919ZM792.742 602.919H781.999V602.723H792.742V602.919ZM771.256 602.919H760.522V602.723H771.256V602.919ZM749.779 602.919H739.036V602.723H749.779V602.919ZM728.302 602.919H717.559V602.723H728.302V602.919ZM706.825 602.919H696.082V602.723H706.825V602.919ZM685.339 602.919H674.605V602.723H685.339V602.919ZM663.862 602.919H653.128V602.723H663.862V602.919ZM642.385 602.919H631.679V602.723H642.422L642.385 602.919ZM620.908 602.919H610.165V602.723H620.908V602.919ZM599.422 602.919H588.688V602.723H599.422V602.919ZM577.945 602.919H567.211V602.723H577.963L577.945 602.919ZM556.468 602.919H545.725V602.723H556.468V602.919ZM534.991 602.919H524.248V602.723H534.991V602.919ZM513.505 602.919H502.771V602.723H513.505V602.919Z" fill="#F2F2F2"/>
<path opacity="0.2" d="M980.773 602.723H975.311V602.919H980.773V602.723Z" fill="#F2F2F2"/>
<path opacity="0.2" d="M492.029 602.723H486.566V602.919H492.029V602.723Z" fill="#F2F2F2"/>
<path opacity="0.2" d="M964.566 602.919H953.832V602.723H964.566V602.919ZM943.089 602.919H932.356V602.723H943.089V602.919ZM921.613 602.919H910.87V602.723H921.613V602.919ZM900.136 602.919H889.393V602.723H900.136V602.919ZM878.659 602.919H867.916V602.723H878.659V602.919ZM857.173 602.919H846.439V602.723H857.173V602.919ZM835.696 602.919H824.953V602.723H835.696V602.919ZM814.219 602.919H803.476V602.723H814.219V602.919ZM792.742 602.919H781.999V602.723H792.742V602.919ZM771.256 602.919H760.522V602.723H771.256V602.919ZM749.779 602.919H739.036V602.723H749.779V602.919ZM728.302 602.919H717.559V602.723H728.302V602.919ZM706.825 602.919H696.082V602.723H706.825V602.919ZM685.339 602.919H674.605V602.723H685.339V602.919ZM663.862 602.919H653.128V602.723H663.862V602.919ZM642.385 602.919H631.679V602.723H642.422L642.385 602.919ZM620.908 602.919H610.165V602.723H620.908V602.919ZM599.422 602.919H588.688V602.723H599.422V602.919ZM577.945 602.919H567.211V602.723H577.963L577.945 602.919ZM556.468 602.919H545.725V602.723H556.468V602.919ZM534.991 602.919H524.248V602.723H534.991V602.919ZM513.505 602.919H502.771V602.723H513.505V602.919Z" fill="#F2F2F2"/>
<path opacity="0.2" d="M980.773 602.723H975.311V602.919H980.773V602.723Z" fill="#F2F2F2"/>
</g>
<path opacity="0.3" d="M1000.36 635.734H981.109V640.776H1000.36V635.734Z" fill="#6C63FF"/>
<g opacity="0.2">
<path opacity="0.2" d="M492.029 638.012H486.566V638.208H492.029V638.012Z" fill="#F2F2F2"/>
<path opacity="0.2" d="M964.566 638.208H953.832V638.012H964.566V638.208ZM943.089 638.208H932.356V638.012H943.089V638.208ZM921.613 638.208H910.87V638.012H921.613V638.208ZM900.136 638.208H889.393V638.012H900.136V638.208ZM878.659 638.208H867.916V638.012H878.659V638.208ZM857.173 638.208H846.439V638.012H857.173V638.208ZM835.696 638.208H824.953V638.012H835.696V638.208ZM814.219 638.208H803.476V638.012H814.219V638.208ZM792.742 638.208H781.999V638.012H792.742V638.208ZM771.256 638.208H760.522V638.012H771.256V638.208ZM749.779 638.208H739.036V638.012H749.779V638.208ZM728.302 638.208H717.559V638.012H728.302V638.208ZM706.825 638.208H696.082V638.012H706.825V638.208ZM685.339 638.208H674.605V638.012H685.339V638.208ZM663.862 638.208H653.128V638.012H663.862V638.208ZM642.385 638.208H631.679V638.012H642.422L642.385 638.208ZM620.908 638.208H610.165V638.012H620.908V638.208ZM599.422 638.208H588.688V638.012H599.422V638.208ZM577.945 638.208H567.211V638.012H577.963L577.945 638.208ZM556.468 638.208H545.725V638.012H556.468V638.208ZM534.991 638.208H524.248V638.012H534.991V638.208ZM513.505 638.208H502.771V638.012H513.505V638.208Z" fill="#F2F2F2"/>
<path opacity="0.2" d="M980.773 638.012H975.311V638.208H980.773V638.012Z" fill="#F2F2F2"/>
<path opacity="0.2" d="M492.029 638.012H486.566V638.208H492.029V638.012Z" fill="#F2F2F2"/>
<path opacity="0.2" d="M964.566 638.208H953.832V638.012H964.566V638.208ZM943.089 638.208H932.356V638.012H943.089V638.208ZM921.613 638.208H910.87V638.012H921.613V638.208ZM900.136 638.208H889.393V638.012H900.136V638.208ZM878.659 638.208H867.916V638.012H878.659V638.208ZM857.173 638.208H846.439V638.012H857.173V638.208ZM835.696 638.208H824.953V638.012H835.696V638.208ZM814.219 638.208H803.476V638.012H814.219V638.208ZM792.742 638.208H781.999V638.012H792.742V638.208ZM771.256 638.208H760.522V638.012H771.256V638.208ZM749.779 638.208H739.036V638.012H749.779V638.208ZM728.302 638.208H717.559V638.012H728.302V638.208ZM706.825 638.208H696.082V638.012H706.825V638.208ZM685.339 638.208H674.605V638.012H685.339V638.208ZM663.862 638.208H653.128V638.012H663.862V638.208ZM642.385 638.208H631.679V638.012H642.422L642.385 638.208ZM620.908 638.208H610.165V638.012H620.908V638.208ZM599.422 638.208H588.688V638.012H599.422V638.208ZM577.945 638.208H567.211V638.012H577.963L577.945 638.208ZM556.468 638.208H545.725V638.012H556.468V638.208ZM534.991 638.208H524.248V638.012H534.991V638.208ZM513.505 638.208H502.771V638.012H513.505V638.208Z" fill="#F2F2F2"/>
<path opacity="0.2" d="M980.773 638.012H975.311V638.208H980.773V638.012Z" fill="#F2F2F2"/>
</g>
<path d="M682.262 497.059V638.554" stroke="#F2F2F2" stroke-width="0.1" stroke-miterlimit="10"/>
<path opacity="0.2" d="M1000.36 670.82H467.766V670.899H1000.36V670.82Z" fill="#F2F2F2"/>
<path opacity="0.3" d="M549.704 674.782C552.219 674.782 554.257 673.024 554.257 670.856C554.257 668.688 552.219 666.93 549.704 666.93C547.19 666.93 545.152 668.688 545.152 670.856C545.152 673.024 547.19 674.782 549.704 674.782Z" fill="#6C63FF"/>
<path opacity="0.3" d="M616.165 674.782C618.679 674.782 620.717 673.024 620.717 670.856C620.717 668.688 618.679 666.93 616.165 666.93C613.651 666.93 611.613 668.688 611.613 670.856C611.613 673.024 613.651 674.782 616.165 674.782Z" fill="#6C63FF"/>
<path opacity="0.3" d="M682.626 674.782C685.14 674.782 687.178 673.024 687.178 670.856C687.178 668.688 685.14 666.93 682.626 666.93C680.112 666.93 678.074 668.688 678.074 670.856C678.074 673.024 680.112 674.782 682.626 674.782Z" fill="#6C63FF"/>
<path opacity="0.3" d="M749.087 674.782C751.601 674.782 753.639 673.024 753.639 670.856C753.639 668.688 751.601 666.93 749.087 666.93C746.573 666.93 744.535 668.688 744.535 670.856C744.535 673.024 746.573 674.782 749.087 674.782Z" fill="#6C63FF"/>
<path opacity="0.3" d="M815.548 674.782C818.062 674.782 820.1 673.024 820.1 670.856C820.1 668.688 818.062 666.93 815.548 666.93C813.034 666.93 810.996 668.688 810.996 670.856C810.996 673.024 813.034 674.782 815.548 674.782Z" fill="#6C63FF"/>
<path opacity="0.3" d="M882.009 674.782C884.523 674.782 886.561 673.024 886.561 670.856C886.561 668.688 884.523 666.93 882.009 666.93C879.495 666.93 877.457 668.688 877.457 670.856C877.457 673.024 879.495 674.782 882.009 674.782Z" fill="#6C63FF"/>
<path opacity="0.3" d="M948.47 674.782C950.984 674.782 953.022 673.024 953.022 670.856C953.022 668.688 950.984 666.93 948.47 666.93C945.956 666.93 943.918 668.688 943.918 670.856C943.918 673.024 945.956 674.782 948.47 674.782Z" fill="#6C63FF"/>
<path d="M430.229 822.271C427.497 817.944 430.593 812.644 434.134 808.788C437.676 804.933 441.973 800.936 441.882 795.997C441.745 788.929 433.051 784.752 426.104 781.006C420.945 778.224 416.19 774.921 411.938 771.167C410.159 769.723 408.686 768.022 407.586 766.141C406.148 763.377 406.184 760.236 406.275 757.213C406.585 747.12 407.165 737.045 408.014 726.988" stroke="#3F3D56" stroke-width="4" stroke-miterlimit="10"/>
<path d="M394.805 726.455C394.901 724.609 395.536 722.814 396.65 721.236C397.764 719.657 399.321 718.347 401.178 717.425L404.036 722.301L403.945 716.396C405.313 716.05 406.737 715.902 408.16 715.956C410.675 716.064 413.097 716.811 415.119 718.105C417.142 719.398 418.675 721.179 419.526 723.223C420.376 725.267 420.506 727.482 419.898 729.589C419.291 731.697 417.973 733.602 416.112 735.064C414.25 736.526 411.928 737.48 409.439 737.806C406.95 738.131 404.404 737.813 402.124 736.893C399.844 735.972 397.931 734.489 396.627 732.631C395.322 730.774 394.685 728.625 394.795 726.455H394.805Z" fill="#57B894"/>
<path d="M417.592 801.046C418.932 803.287 421.125 805.062 423.802 806.074C426.479 807.086 429.478 807.274 432.297 806.606C435.116 805.938 437.582 804.454 439.284 802.404C440.985 800.354 441.818 797.862 441.642 795.345C441.467 792.828 440.293 790.44 438.319 788.581C436.345 786.721 433.69 785.504 430.799 785.132C427.908 784.76 424.956 785.257 422.439 786.539C419.922 787.82 417.992 789.81 416.973 792.173L424.957 797.772L416.172 796.02C416.175 797.769 416.662 799.492 417.592 801.046Z" fill="#57B894"/>
<path d="M423.901 779.649C427.076 779.842 430.219 779.004 432.714 777.3C435.209 775.595 436.874 773.147 437.382 770.437C437.889 767.727 437.203 764.951 435.459 762.655C433.714 760.36 431.036 758.71 427.952 758.031L428.025 762.57L425.13 757.63C423.453 757.56 421.777 757.775 420.198 758.265C418.618 758.754 417.166 759.508 415.925 760.483C414.684 761.457 413.679 762.634 412.966 763.945C412.254 765.256 411.849 766.675 411.774 768.121C411.699 769.393 411.884 770.666 412.32 771.883C413.088 774.048 414.613 775.957 416.685 777.347C418.758 778.737 421.278 779.541 423.901 779.649V779.649Z" fill="#57B894"/>
<path d="M392.883 761.847C394.844 761.909 396.796 761.58 398.585 760.885C400.375 760.189 401.954 759.147 403.2 757.839C404.446 756.531 405.324 754.992 405.768 753.343C406.211 751.694 406.207 749.979 405.755 748.332C405.304 746.684 404.417 745.149 403.165 743.846C401.912 742.542 400.328 741.506 398.535 740.817C396.742 740.129 394.789 739.807 392.828 739.876C390.866 739.946 388.951 740.405 387.229 741.218L389.487 746.558L384.844 742.71C382.356 744.676 380.872 747.412 380.72 750.319C380.659 751.34 380.766 752.363 381.038 753.358C381.676 755.691 383.177 757.781 385.314 759.312C387.451 760.844 390.108 761.734 392.883 761.847V761.847Z" fill="#57B894"/>
<path opacity="0.1" d="M396.526 729.389C399.475 729.664 402.343 730.457 405.302 730.614C408.261 730.771 411.511 730.159 413.387 728.18C414.388 727.112 414.898 725.754 415.745 724.591C416.553 723.505 417.66 722.606 418.968 721.977C419.739 723.367 420.162 724.881 420.211 726.421C420.26 727.961 419.932 729.493 419.251 730.917C418.569 732.341 417.547 733.626 416.253 734.688C414.958 735.75 413.419 736.565 411.736 737.08C410.052 737.596 408.262 737.801 406.481 737.681C404.7 737.562 402.968 737.121 401.397 736.387C399.827 735.653 398.452 734.642 397.364 733.42C396.275 732.199 395.496 730.793 395.078 729.295C395.564 729.311 396.046 729.342 396.526 729.389Z" fill="black"/>
<path opacity="0.1" d="M392.884 761.846C395.087 761.942 397.282 761.544 399.254 760.689C401.225 759.834 402.906 758.553 404.131 756.97C405.356 755.387 406.083 753.557 406.242 751.658C406.401 749.76 405.986 747.859 405.038 746.141C404.024 746.729 403.152 747.481 402.471 748.355C401.56 749.541 401.005 750.907 399.94 751.999C397.946 754.017 394.55 754.676 391.463 754.559C388.377 754.441 385.4 753.679 382.359 753.436C381.931 753.436 381.503 753.381 381.066 753.373C381.706 755.699 383.204 757.782 385.335 759.31C387.467 760.839 390.116 761.728 392.884 761.846V761.846Z" fill="black"/>
<path opacity="0.1" d="M423.901 779.65C426.089 779.748 428.269 779.358 430.231 778.517C432.194 777.677 433.872 776.414 435.103 774.851C436.335 773.289 437.079 771.478 437.263 769.595C437.447 767.712 437.066 765.82 436.155 764.102C435.095 764.699 434.17 765.457 433.424 766.34C432.432 767.549 431.812 768.939 430.693 770.054C428.535 772.127 424.911 772.857 421.652 772.786C418.393 772.716 415.434 772.064 412.293 771.852C413.056 774.027 414.582 775.945 416.661 777.341C418.74 778.738 421.269 779.544 423.901 779.65V779.65Z" fill="black"/>
<path opacity="0.1" d="M417.592 801.046C418.974 803.711 421.527 805.793 424.689 806.834C427.851 807.875 431.363 807.79 434.453 806.598C437.542 805.405 439.956 803.203 441.163 800.476C442.37 797.749 442.272 794.719 440.89 792.055C439.835 792.647 438.89 793.372 438.085 794.206C436.865 795.486 436.064 796.939 434.662 798.133C432.049 800.347 427.834 801.274 424.074 801.344C421.908 801.352 419.744 801.252 417.592 801.046V801.046Z" fill="black"/>
<path d="M449.503 817.293C449.503 817.293 439.416 817.026 436.375 815.157C433.334 813.288 420.897 811.066 420.115 814.058C419.332 817.05 404.956 828.978 416.336 829.025C427.717 829.072 442.793 827.494 445.834 825.884C448.875 824.274 449.503 817.293 449.503 817.293Z" fill="#656380"/>
<path opacity="0.2" d="M416.135 827.98C427.524 828.059 442.592 826.457 445.623 824.839C447.936 823.622 448.855 819.264 449.165 817.262H449.502C449.502 817.262 448.864 824.274 445.86 825.9C442.856 827.525 427.752 829.103 416.362 829.041C413.076 829.041 411.947 828.012 412.01 826.52C412.438 827.399 413.686 827.965 416.135 827.98Z" fill="black"/>
<path d="M612.324 464.143L598.618 464.504L598.63 467.34L598.731 485.763L598.786 495.683L598.817 502.062L551.21 503.313L549.767 503.351C549.281 502.656 548.306 500.84 548.301 499.138L548.154 472.211L548.083 458.036C548.791 456.365 550.509 453.011 551.659 452.983C552.817 452.951 586.771 452.531 603.602 452.325C607.059 451.1 610.837 455.441 612.287 457.767L612.324 464.143Z" fill="#FFF5F5"/>
<g filter="url(#filter1_dd)">
<path d="M550.164 677.998L549.939 636.899L598.336 635.625L598.555 676.726L550.164 677.998Z" fill="#1A1717"/>
<path d="M550.164 677.998L549.939 636.899L598.336 635.625L598.555 676.726L550.164 677.998Z" stroke="black" stroke-opacity="0.2"/>
</g>
<g filter="url(#filter2_dd)">
<path d="M614.817 631.629C614.809 633.897 610.954 635.951 609.027 636.693L609.041 631.734L609.073 623.935L609.178 593.46L608.671 535.35L608.858 483.61L608.15 478.663C608.633 478.654 610.174 478.909 612.474 480.004C614.781 481.096 615.343 484.678 615.335 486.332L614.817 631.629Z" fill="#B52BAF" fill-opacity="0.6"/>
<path d="M614.817 631.629C614.809 633.897 610.954 635.951 609.027 636.693L609.041 631.734L609.073 623.935L609.178 593.46L608.671 535.35L608.858 483.61L608.15 478.663C608.633 478.654 610.174 478.909 612.474 480.004C614.781 481.096 615.343 484.678 615.335 486.332L614.817 631.629Z" stroke="#451A67" stroke-opacity="0.2"/>
</g>
<g filter="url(#filter3_dd)">
<path d="M532.052 487.738C532.036 485.472 535.87 483.388 537.79 482.629L537.818 487.589L537.858 495.384L538.023 525.854L539.057 583.941L539.329 635.674L540.075 640.617C539.594 640.629 538.058 640.384 535.742 639.312C533.426 638.239 532.834 634.663 532.825 633.01L532.052 487.738Z" fill="#B52BAF" fill-opacity="0.6"/>
<path d="M532.052 487.738C532.036 485.472 535.87 483.388 537.79 482.629L537.818 487.589L537.858 495.384L538.023 525.854L539.057 583.941L539.329 635.674L540.075 640.617C539.594 640.629 538.058 640.384 535.742 639.312C533.426 638.239 532.834 634.663 532.825 633.01L532.052 487.738Z" stroke="#451A67" stroke-opacity="0.2"/>
</g>
<g filter="url(#filter4_dd)">
<path d="M535.789 483.541C536.345 479.63 543.705 479.389 547.312 479.759L547.4 495.762C547.415 497.987 550.307 499.396 551.753 499.822L596.474 498.647C599.361 498.571 600.07 495.768 600.062 494.376L599.975 478.373L606.466 478.203C609.353 478.126 610.565 480.415 610.812 481.568L610.883 494.091L610.946 505.92L611.21 555.325L611.625 633.955C611.64 636.18 608.764 638.668 607.327 639.635L597.948 639.881L597.932 637.098L550.325 638.349L550.341 641.132L548.173 641.191C547.215 641.447 544.429 641.844 540.963 641.379C537.498 640.914 536.604 635.694 536.586 633.144L536.498 616.444C536.033 573.772 535.234 487.453 535.789 483.541Z" fill="#1E0B31"/>
<path d="M535.789 483.541C536.345 479.63 543.705 479.389 547.312 479.759L547.4 495.762C547.415 497.987 550.307 499.396 551.753 499.822L596.474 498.647C599.361 498.571 600.07 495.768 600.062 494.376L599.975 478.373L606.466 478.203C609.353 478.126 610.565 480.415 610.812 481.568L610.883 494.091L610.946 505.92L611.21 555.325L611.625 633.955C611.64 636.18 608.764 638.668 607.327 639.635L597.948 639.881L597.932 637.098L550.325 638.349L550.341 641.132L548.173 641.191C547.215 641.447 544.429 641.844 540.963 641.379C537.498 640.914 536.604 635.694 536.586 633.144L536.498 616.444C536.033 573.772 535.234 487.453 535.789 483.541Z" stroke="#451A67" stroke-opacity="0.2"/>
</g>
<g filter="url(#filter5_dd)">
<path d="M603.544 515.987L544.753 517.533C542.661 517.588 540.975 519.297 540.986 521.351L541.24 569.187C541.251 571.241 542.956 572.861 545.047 572.806L603.839 571.261C605.93 571.206 607.617 569.496 607.606 567.442L607.351 519.606C607.341 517.552 605.636 515.932 603.544 515.987Z" fill="#100F0F" fill-opacity="0.2"/>
</g>
<g filter="url(#filter6_dd)">
<path d="M602.978 521.669L545.412 523.183C544.575 523.205 543.901 523.889 543.905 524.71L544.116 564.253C544.12 565.075 544.802 565.723 545.638 565.701L603.204 564.187C604.04 564.165 604.715 563.482 604.71 562.66L604.499 523.117C604.495 522.295 603.813 521.647 602.978 521.669Z" fill="#1CC7D2"/>
</g>
<g filter="url(#filter7_dd)">
<path d="M557.321 581.843L545.924 582.142C545.087 582.164 544.412 582.848 544.417 583.67L544.439 587.781C544.444 588.603 545.125 589.251 545.962 589.229L557.36 588.929C558.196 588.907 558.871 588.224 558.866 587.402L558.844 583.29C558.84 582.468 558.158 581.82 557.321 581.843Z" fill="#C4C4C4" fill-opacity="0.2"/>
</g>
<g filter="url(#filter8_dd)">
<path d="M557.398 594.589L546 594.888C545.163 594.91 544.489 595.594 544.493 596.416L544.515 600.526C544.519 601.348 545.201 601.996 546.037 601.974L557.435 601.674C558.272 601.653 558.946 600.969 558.942 600.147L558.92 596.036C558.916 595.215 558.234 594.566 557.398 594.589Z" fill="#C4C4C4" fill-opacity="0.2"/>
</g>
<g filter="url(#filter9_dd)">
<path d="M557.464 607.346L546.067 607.646C545.23 607.668 544.555 608.352 544.559 609.173L544.581 613.285C544.586 614.106 545.268 614.755 546.104 614.732L557.502 614.433C558.338 614.41 559.013 613.727 559.009 612.905L558.987 608.794C558.983 607.973 558.301 607.325 557.464 607.346Z" fill="#C4C4C4" fill-opacity="0.2"/>
</g>
<g filter="url(#filter10_dd)">
<path d="M557.544 620.096L546.146 620.396C545.31 620.418 544.635 621.102 544.64 621.923L544.662 626.035C544.666 626.856 545.347 627.504 546.184 627.483L557.582 627.182C558.419 627.161 559.093 626.476 559.089 625.656L559.067 621.544C559.062 620.722 558.381 620.074 557.544 620.096Z" fill="#F30808"/>
</g>
<g filter="url(#filter11_dd)">
<path d="M579.161 619.53L567.764 619.83C566.927 619.852 566.252 620.535 566.257 621.357L566.279 625.469C566.283 626.289 566.965 626.938 567.802 626.916L579.199 626.617C580.036 626.595 580.71 625.91 580.706 625.089L580.684 620.978C580.68 620.156 579.998 619.508 579.161 619.53Z" fill="#C4C4C4" fill-opacity="0.2"/>
</g>
<g filter="url(#filter12_dd)">
<path d="M602.247 618.924L590.85 619.225C590.013 619.246 589.338 619.93 589.343 620.752L589.364 624.863C589.369 625.684 590.051 626.333 590.887 626.31L602.285 626.011C603.121 625.988 603.796 625.305 603.792 624.483L603.77 620.373C603.766 619.551 603.084 618.903 602.247 618.924Z" fill="#286214"/>
</g>
<g filter="url(#filter13_dd)">
<path d="M579.11 606.76L567.713 607.06C566.876 607.082 566.202 607.767 566.206 608.587L566.228 612.699C566.232 613.521 566.914 614.169 567.751 614.147L579.148 613.847C579.985 613.825 580.66 613.141 580.655 612.32L580.633 608.208C580.629 607.387 579.947 606.739 579.11 606.76Z" fill="#C4C4C4" fill-opacity="0.2"/>
</g>
<g filter="url(#filter14_dd)">
<path d="M602.193 606.171L590.795 606.47C589.958 606.492 589.283 607.176 589.288 607.998L589.31 612.108C589.314 612.93 589.996 613.578 590.832 613.556L602.23 613.256C603.067 613.235 603.741 612.551 603.737 611.729L603.715 607.618C603.711 606.797 603.029 606.148 602.193 606.171Z" fill="#C4C4C4" fill-opacity="0.2"/>
</g>
<g filter="url(#filter15_dd)">
<path d="M579.042 594.022L567.644 594.322C566.808 594.344 566.133 595.028 566.138 595.849L566.159 599.96C566.164 600.782 566.845 601.43 567.682 601.408L579.08 601.108C579.917 601.087 580.591 600.402 580.586 599.58L580.565 595.47C580.56 594.648 579.879 594 579.042 594.022Z" fill="#C4C4C4" fill-opacity="0.2"/>
</g>
<g filter="url(#filter16_dd)">
<path d="M602.118 593.404L590.721 593.705C589.884 593.726 589.21 594.411 589.214 595.232L589.236 599.343C589.24 600.165 589.922 600.813 590.758 600.791L602.156 600.491C602.992 600.469 603.667 599.786 603.663 598.964L603.641 594.852C603.637 594.031 602.955 593.383 602.118 593.404Z" fill="#C4C4C4" fill-opacity="0.2"/>
</g>
<g filter="url(#filter17_dd)">
<path d="M578.97 581.264L567.572 581.564C566.736 581.586 566.061 582.27 566.065 583.091L566.087 587.203C566.092 588.025 566.773 588.672 567.61 588.651L579.008 588.351C579.844 588.329 580.519 587.644 580.515 586.824L580.493 582.712C580.488 581.89 579.806 581.242 578.97 581.264Z" fill="#C4C4C4" fill-opacity="0.2"/>
</g>
<g filter="url(#filter18_dd)">
<path d="M602.058 580.663L590.66 580.963C589.823 580.984 589.149 581.669 589.153 582.49L589.175 586.601C589.179 587.423 589.861 588.071 590.698 588.049L602.095 587.749C602.932 587.727 603.607 587.043 603.602 586.222L603.581 582.111C603.577 581.289 602.895 580.641 602.058 580.663Z" fill="#C4C4C4" fill-opacity="0.2"/>
</g>
<path d="M558.6 672.518C560.592 672.465 562.198 670.837 562.188 668.88C562.177 666.923 560.554 665.38 558.562 665.431C556.57 665.484 554.964 667.113 554.974 669.07C554.985 671.026 556.608 672.57 558.6 672.518Z" fill="#C4C732"/>
<path d="M558.588 669.678C560.58 669.625 562.186 667.997 562.176 666.04C562.166 664.083 560.543 662.54 558.55 662.591C556.558 662.644 554.952 664.273 554.962 666.23C554.973 668.187 556.596 669.73 558.588 669.678Z" fill="#C78232"/>
<g filter="url(#filter19_dd)">
<path d="M551.095 546.135L551.194 550.055L549.843 550.119L549.594 540.104L553.358 539.931C554.481 539.877 555.359 540.118 556.007 540.647C556.655 541.178 556.99 541.905 557.02 542.823C557.04 543.797 556.751 544.56 556.14 545.117C555.535 545.668 554.654 545.972 553.498 546.026L551.095 546.135ZM551.069 545.055L553.488 544.944C554.205 544.912 554.753 544.721 555.131 544.371C555.508 544.019 555.684 543.53 555.667 542.903C555.654 542.305 555.449 541.838 555.058 541.497C554.668 541.156 554.132 540.997 553.466 541.012L550.967 541.129L551.069 545.055ZM560.334 540.378L560.377 542.181L561.794 542.116L561.819 543.099L560.402 543.165L560.523 547.777C560.529 548.076 560.594 548.3 560.725 548.445C560.853 548.587 561.072 548.649 561.38 548.633C561.528 548.628 561.735 548.589 561.996 548.522L562.018 549.556C561.682 549.661 561.352 549.722 561.026 549.738C560.448 549.765 560.007 549.613 559.697 549.285C559.394 548.955 559.24 548.471 559.221 547.839L559.106 543.224L557.722 543.289L557.698 542.305L559.082 542.24L559.039 540.437L560.334 540.378ZM567.017 543.017C566.823 542.992 566.606 542.988 566.377 542.998C565.53 543.035 564.958 543.419 564.67 544.145L564.803 549.427L563.508 549.486L563.317 542.045L564.579 541.987L564.624 542.845C565.037 542.158 565.627 541.8 566.409 541.764C566.662 541.752 566.855 541.775 566.988 541.833L567.017 543.017ZM567.796 545.493C567.776 544.766 567.909 544.102 568.18 543.508C568.465 542.909 568.859 542.442 569.373 542.1C569.889 541.76 570.48 541.574 571.148 541.544C572.182 541.495 573.026 541.808 573.678 542.48C574.338 543.152 574.683 544.069 574.712 545.234L574.711 545.326C574.729 546.05 574.602 546.708 574.33 547.299C574.064 547.885 573.677 548.348 573.156 548.694C572.635 549.041 572.036 549.229 571.353 549.262C570.326 549.308 569.483 548.996 568.823 548.324C568.17 547.652 567.828 546.738 567.802 545.582L567.796 545.493ZM569.107 545.584C569.129 546.408 569.34 547.062 569.736 547.546C570.146 548.026 570.677 548.251 571.329 548.222C571.988 548.192 572.506 547.914 572.883 547.391C573.259 546.865 573.434 546.146 573.408 545.235C573.39 544.418 573.178 543.765 572.766 543.279C572.36 542.789 571.827 542.56 571.175 542.589C570.532 542.619 570.021 542.893 569.641 543.411C569.262 543.928 569.082 544.654 569.107 545.584ZM577.471 541.39L577.539 542.322C578.102 541.58 578.852 541.186 579.788 541.143C581.393 541.068 582.223 541.919 582.279 543.694L582.401 548.612L581.106 548.671L580.981 543.747C580.962 543.211 580.831 542.818 580.574 542.574C580.325 542.328 579.936 542.219 579.422 542.241C578.999 542.261 578.632 542.389 578.319 542.624C578.007 542.859 577.765 543.159 577.594 543.527L577.727 548.829L576.432 548.888L576.248 541.444L577.471 541.39ZM585.772 548.455L584.477 548.514L584.286 541.074L585.581 541.015L585.772 548.455ZM584.129 539.106C584.129 538.897 584.185 538.721 584.31 538.572C584.436 538.424 584.626 538.344 584.879 538.333C585.131 538.322 585.324 538.384 585.459 538.519C585.593 538.656 585.661 538.828 585.667 539.034C585.674 539.239 585.611 539.415 585.483 539.559C585.355 539.703 585.164 539.781 584.912 539.792C584.66 539.804 584.467 539.743 584.334 539.611C584.203 539.481 584.137 539.311 584.129 539.106ZM590.881 547.316C591.345 547.294 591.742 547.139 592.08 546.849C592.425 546.555 592.604 546.205 592.629 545.791L593.859 545.733C593.847 546.16 593.704 546.574 593.438 546.972C593.173 547.37 592.815 547.692 592.353 547.945C591.905 548.193 591.418 548.332 590.905 548.356C589.871 548.403 589.041 548.103 588.409 547.458C587.783 546.808 587.457 545.895 587.425 544.723L587.422 544.509C587.403 543.785 587.524 543.133 587.779 542.558C588.041 541.979 588.414 541.525 588.914 541.189C589.416 540.853 590.009 540.672 590.701 540.639C591.556 540.599 592.266 540.817 592.84 541.291C593.422 541.763 593.741 542.397 593.799 543.193L592.57 543.25C592.518 542.772 592.323 542.385 591.979 542.093C591.634 541.8 591.224 541.66 590.728 541.685C590.068 541.716 589.566 541.971 589.213 542.456C588.86 542.937 588.7 543.616 588.721 544.497L588.727 544.738C588.747 545.596 588.949 546.246 589.319 546.693C589.69 547.14 590.213 547.346 590.881 547.316ZM599.752 545.831C599.742 545.488 599.603 545.227 599.327 545.054C599.064 544.871 598.595 544.729 597.932 544.622C597.278 544.513 596.751 544.373 596.358 544.198C595.967 544.025 595.681 543.807 595.485 543.55C595.297 543.292 595.194 542.981 595.19 542.612C595.172 542.004 595.422 541.475 595.932 541.03C596.451 540.584 597.118 540.342 597.941 540.303C598.796 540.266 599.5 540.45 600.046 540.86C600.592 541.272 600.881 541.814 600.896 542.494L599.592 542.553C599.581 542.206 599.42 541.914 599.108 541.676C598.803 541.438 598.424 541.328 597.967 541.348C597.495 541.37 597.123 541.49 596.867 541.702C596.604 541.916 596.474 542.188 596.483 542.513C596.493 542.819 596.619 543.046 596.872 543.19C597.126 543.334 597.574 543.463 598.222 543.576C598.877 543.687 599.406 543.833 599.817 544.011C600.226 544.187 600.525 544.414 600.727 544.685C600.928 544.951 601.032 545.285 601.048 545.681C601.058 546.349 600.807 546.892 600.272 547.322C599.736 547.748 599.04 547.979 598.176 548.018C597.566 548.047 597.024 547.967 596.55 547.778C596.077 547.589 595.706 547.311 595.43 546.948C595.159 546.578 595.016 546.175 595.006 545.735L596.302 545.675C596.338 546.1 596.517 546.432 596.846 546.669C597.18 546.902 597.615 547.004 598.145 546.981C598.641 546.956 599.031 546.842 599.323 546.636C599.614 546.426 599.761 546.156 599.752 545.831Z" fill="white"/>
</g>
<g filter="url(#filter20_dd)">
<path d="M818.594 519.797L748.111 539.21L888.704 627.364L953.611 606.126L818.594 519.797Z" fill="#3FACE4" stroke="#7F7A7A"/>
<path d="M828.977 532.434L776.559 548.419L829.003 582.835L881.613 565.577L828.977 532.434Z" fill="#0F0F0F"/>
<path d="M839.516 540.156L790.516 554.806L822.094 574.328L869.089 559.395L839.516 540.156Z" fill="#CAE621"/>
<path d="M887.139 626.105L749.792 539.707L747.023 540.616L748.054 541.54L784.004 565.056L834.96 597.702C847.102 605.131 873.51 621.429 882.002 627.199C890.494 632.969 889.877 646.148 888.508 652.016L888.087 654.815L889.92 654.294L893.663 652.744L895.155 642.823C896.072 636.718 890.193 629.134 887.139 626.105Z" fill="black"/>
<path d="M763.631 471L707.986 487.05L706 488.588L711.442 489.356C714.598 490.408 721.603 492.972 724.368 494.816C727.823 497.122 734.581 502.752 743.038 510.699C749.804 517.057 759.663 536.944 763.748 546.093L817.923 530.095L816.568 525.488L813.878 518.094L808.915 508.302C806.217 504.198 799.367 494.382 793.549 487.95C787.73 481.517 771.18 473.97 763.631 471Z" fill="#FFF3F3"/>
<path d="M758.963 517.621L818.568 553.046L810.542 583.088L747.117 549.722L758.963 517.621Z" fill="#4D1BB8"/>
<path d="M739.251 547.573C739.648 544.928 744.573 542.003 746.985 540.871L748.704 541.113C792.195 568.291 880.315 623.637 884.866 627.604C890.555 632.563 891.871 641.322 892.348 643.987C892.824 646.652 889.634 654.255 888.259 655.62C887.159 656.711 881.499 655.186 878.808 654.287C834.907 635.018 745.514 595.789 739.145 593.02C732.775 590.251 732.012 582.748 732.427 579.343C734.536 569.855 738.853 550.219 739.251 547.573Z" fill="#3FACE4"/>
<path d="M892.31 632.551C891.108 630.823 889.657 628.8 888.477 627.691L954.614 606.066C955.333 606.71 957.417 608.599 959.997 611.011C962.577 613.424 962.124 621.812 961.576 625.705L916.105 644.593L893.883 652.516C894.002 651.213 894.196 646.302 894.427 643.761C894.717 640.583 893.384 634.095 892.31 632.551Z" fill="black"/>
<path d="M781.484 582.148L784.173 583.575C785.287 584.165 786.015 584.824 786.359 585.552C786.71 586.283 786.649 587.014 786.175 587.744C785.876 588.204 785.464 588.525 784.936 588.709C784.416 588.896 783.834 588.946 783.191 588.86C782.559 588.77 781.929 588.558 781.3 588.224L780.845 587.983L779.297 590.365L776.955 589.123L781.484 582.148ZM782.226 586.821C782.609 587.024 782.954 587.107 783.26 587.07C783.566 587.032 783.811 586.872 783.996 586.588C784.18 586.304 784.213 586.036 784.096 585.783C783.985 585.533 783.735 585.305 783.345 585.098L782.878 584.851L781.772 586.553C781.908 586.644 782.06 586.733 782.226 586.821ZM786.157 594.113C785.521 593.775 785.135 593.344 785 592.818C784.87 592.285 785 591.718 785.391 591.117L786.674 589.14L785.98 588.772L786.796 587.515L787.653 587.969L789.906 586.588L791.001 587.169L789.757 589.085L791.015 589.752L790.199 591.009L788.941 590.342L787.821 592.065C787.712 592.235 787.684 592.397 787.738 592.553C787.793 592.709 787.925 592.842 788.135 592.954C788.33 593.057 788.533 593.111 788.745 593.114L787.91 594.579C787.663 594.585 787.374 594.544 787.04 594.458C786.719 594.37 786.424 594.255 786.157 594.113ZM791.799 590.264L794.087 591.477L793.416 592.512C793.841 592.201 794.256 592.026 794.661 591.986C795.077 591.943 795.477 592.024 795.86 592.227L795.102 594.046C794.415 593.682 793.863 593.484 793.445 593.454C793.039 593.42 792.74 593.552 792.547 593.85L790.835 596.485L788.548 595.272L791.799 590.264ZM796.186 599.433C795.579 599.11 795.109 598.711 794.777 598.235C794.452 597.763 794.283 597.26 794.27 596.726C794.269 596.189 794.434 595.664 794.768 595.15C795.101 594.637 795.529 594.255 796.051 594.005C796.578 593.748 797.146 593.636 797.756 593.669C798.374 593.706 798.986 593.886 799.594 594.207C800.208 594.533 800.678 594.932 801.003 595.405C801.34 595.874 801.511 596.374 801.517 596.904C801.523 597.434 801.358 597.956 801.025 598.47C800.687 598.99 800.255 599.378 799.729 599.635C799.214 599.889 798.645 600.001 798.024 599.971C797.413 599.938 796.801 599.759 796.186 599.433ZM797.195 597.924C797.491 598.081 797.799 598.108 798.119 598.005C798.451 597.899 798.722 597.684 798.932 597.359C799.143 597.035 799.216 596.72 799.153 596.413C799.101 596.104 798.927 595.871 798.63 595.714C798.334 595.556 798.02 595.531 797.689 595.637C797.369 595.74 797.104 595.954 796.894 596.278C796.683 596.602 796.604 596.919 796.655 597.228C796.719 597.534 796.899 597.766 797.195 597.924ZM803.437 596.437L805.617 597.593L804.946 598.627C805.874 598.066 806.793 598.027 807.704 598.51C808.398 598.878 808.789 599.399 808.877 600.072C808.976 600.743 808.76 601.487 808.229 602.305L806.584 604.839L804.306 603.631L806.09 600.884C806.279 600.593 806.355 600.333 806.318 600.105C806.289 599.881 806.155 599.705 805.917 599.578C805.744 599.486 805.538 599.451 805.302 599.471C805.07 599.484 804.836 599.559 804.6 599.698C804.372 599.84 804.176 600.036 804.014 600.287L802.473 602.658L800.186 601.445L803.437 596.437ZM809.486 606.487C808.879 606.165 808.524 605.732 808.421 605.186C808.318 604.641 808.471 604.055 808.879 603.426L810.906 600.304L813.205 601.523L811.237 604.554C811.136 604.71 811.1 604.854 811.13 604.988C811.172 605.119 811.264 605.223 811.409 605.3C811.554 605.376 811.728 605.414 811.933 605.414L811.137 606.886C810.904 606.917 810.637 606.893 810.337 606.816C810.044 606.743 809.761 606.633 809.486 606.487ZM812.55 600.153C812.21 599.973 811.984 599.722 811.873 599.399C811.773 599.073 811.818 598.766 812.006 598.475C812.195 598.184 812.476 598.006 812.849 597.941C813.222 597.875 813.567 597.926 813.886 598.095C814.218 598.271 814.438 598.525 814.545 598.854C814.659 599.187 814.626 599.492 814.446 599.769C814.253 600.067 813.97 600.248 813.597 600.313C813.224 600.379 812.875 600.326 812.55 600.153ZM814.217 608.997C813.638 608.69 813.195 608.309 812.887 607.855C812.591 607.399 812.446 606.904 812.452 606.371C812.465 605.842 812.636 605.324 812.966 604.817C813.281 604.33 813.699 603.957 814.218 603.696C814.737 603.435 815.295 603.309 815.893 603.317C816.49 603.325 817.063 603.474 817.613 603.766C818.314 604.138 818.78 604.566 819.009 605.051L817.927 606.29C817.59 605.957 817.288 605.719 817.02 605.577C816.673 605.393 816.337 605.342 816.011 605.424C815.691 605.499 815.427 605.695 815.221 606.013C815.015 606.331 814.951 606.638 815.031 606.934C815.111 607.231 815.316 607.468 815.649 607.644C815.938 607.798 816.315 607.92 816.78 608.013L816.065 609.541C815.745 609.525 815.442 609.474 815.158 609.387C814.87 609.307 814.556 609.177 814.217 608.997ZM818.529 611.284C817.77 610.881 817.173 610.424 816.738 609.911L817.77 608.837C818.177 609.289 818.626 609.646 819.118 609.906C819.479 610.098 819.721 610.099 819.844 609.91C819.905 609.815 819.901 609.709 819.833 609.591C819.771 609.476 819.611 609.318 819.352 609.118C818.822 608.691 818.507 608.279 818.407 607.88C818.313 607.485 818.42 607.051 818.727 606.578C819.103 606.06 819.596 605.772 820.207 605.714C820.818 605.657 821.492 605.823 822.229 606.215C822.605 606.414 822.911 606.608 823.148 606.798C823.396 606.984 823.6 607.187 823.758 607.407L822.747 608.493C822.586 608.307 822.392 608.127 822.165 607.952C821.945 607.781 821.753 607.652 821.586 607.564C821.341 607.433 821.155 607.366 821.031 607.364C820.906 607.362 820.817 607.401 820.765 607.482C820.668 607.63 820.781 607.831 821.103 608.084C821.69 608.541 822.059 608.991 822.209 609.434C822.359 609.876 822.283 610.331 821.98 610.797C821.633 611.331 821.156 611.647 820.549 611.742C819.954 611.836 819.281 611.683 818.529 611.284Z" fill="white"/>
<g filter="url(#filter21_dd)">
<path d="M853.827 585.035L842.961 589.217L849.624 593.535L859.917 589.271L853.827 585.035Z" fill="#302A2A"/>
<path d="M853.827 585.035L842.961 589.217L849.624 593.535L859.917 589.271L853.827 585.035Z" stroke="black"/>
</g>
<g filter="url(#filter22_dd)">
<path d="M870.022 578.484L859.156 582.667L865.819 586.984L876.112 582.72L870.022 578.484Z" fill="#302A2A"/>
<path d="M870.022 578.484L859.156 582.667L865.819 586.984L876.112 582.72L870.022 578.484Z" stroke="black"/>
</g>
<g filter="url(#filter23_dd)">
<path d="M887.36 572.098L876.494 576.28L883.157 580.597L893.45 576.334L887.36 572.098Z" fill="#302A2A"/>
<path d="M887.36 572.098L876.494 576.28L883.157 580.597L893.45 576.334L887.36 572.098Z" stroke="black"/>
</g>
<g filter="url(#filter24_dd)">
<path d="M869.292 595.016L858.426 599.198L865.089 603.515L875.382 599.252L869.292 595.016Z" fill="#302A2A"/>
<path d="M869.292 595.016L858.426 599.198L865.089 603.515L875.382 599.252L869.292 595.016Z" stroke="black"/>
</g>
<g filter="url(#filter25_dd)">
<path d="M884.913 588.383L874.047 592.565L880.71 596.882L891.003 592.619L884.913 588.383Z" fill="#302A2A"/>
<path d="M884.913 588.383L874.047 592.565L880.71 596.882L891.003 592.619L884.913 588.383Z" stroke="black"/>
</g>
<g filter="url(#filter26_dd)">
<path d="M901.104 581.84L890.238 586.023L896.902 590.339L907.194 586.077L901.104 581.84Z" fill="#302A2A"/>
<path d="M901.104 581.84L890.238 586.023L896.902 590.339L907.194 586.077L901.104 581.84Z" stroke="black"/>
</g>
<g filter="url(#filter27_dd)">
<path d="M883.035 604.746L872.17 608.929L878.833 613.246L889.125 608.983L883.035 604.746Z" fill="#FF0707"/>
<path d="M883.035 604.746L872.17 608.929L878.833 613.246L889.125 608.983L883.035 604.746Z" stroke="black"/>
</g>
<g filter="url(#filter28_dd)">
<path d="M898.735 597.609L887.869 601.792L894.532 606.109L904.825 601.845L898.735 597.609Z" fill="#302A2A"/>
<path d="M898.735 597.609L887.869 601.792L894.532 606.109L904.825 601.845L898.735 597.609Z" stroke="black"/>
</g>
<g filter="url(#filter29_dd)">
<path d="M913.21 590.812L902.344 594.995L909.007 599.312L919.3 595.049L913.21 590.812Z" fill="#21F035"/>
<path d="M913.21 590.812L902.344 594.995L909.007 599.312L919.3 595.049L913.21 590.812Z" stroke="black"/>
</g>
<path d="M798.877 565.335C802.515 565.848 805.944 563.075 806.536 559.141C807.127 555.208 804.657 551.603 801.019 551.089C797.381 550.576 793.952 553.349 793.361 557.283C792.769 561.217 795.239 564.822 798.877 565.335Z" fill="#BA8E38"/>
<path d="M805.446 568.343C809.084 568.856 812.512 566.083 813.104 562.149C813.695 558.215 811.226 554.61 807.587 554.097C803.949 553.584 800.521 556.357 799.929 560.291C799.338 564.225 801.807 567.83 805.446 568.343Z" fill="#E9ED23"/>
</g>
<path d="M1083.23 456.997C1083.23 456.997 1057.19 450.997 1042.87 461.997C1028.55 472.997 1061.09 497.997 1061.09 497.997L1083.23 456.997Z" fill="#2F2E41"/>
<path d="M1110.15 600.479C1109.63 599.105 1109.42 597.633 1109.53 596.166C1109.63 594.7 1110.06 593.276 1110.78 591.994C1111.5 590.711 1112.49 589.602 1113.69 588.744C1114.88 587.887 1116.25 587.301 1117.69 587.029L1122.95 551.684L1136.78 564.078L1129.67 595.742C1129.96 598.2 1129.35 600.68 1127.94 602.714C1126.53 604.748 1124.42 606.194 1122.01 606.778C1119.61 607.362 1117.07 607.043 1114.89 605.882C1112.7 604.721 1111.02 602.799 1110.15 600.479H1110.15Z" fill="#FFB8B8"/>
<path d="M1055.65 783.968L1067.88 783.156L1070.57 735.586L1052.52 736.784L1055.65 783.968Z" fill="#FFB8B8"/>
<path d="M1091.78 794.242H1053.24V779.355H1076.89C1080.84 779.355 1084.62 780.924 1087.42 783.716C1090.21 786.507 1091.78 790.294 1091.78 794.242V794.242V794.242Z" fill="#2F2E41"/>
<path d="M1076.79 767.034L1088.29 771.279L1110.14 728.937L1093.16 722.672L1076.79 767.034Z" fill="#FFB8B8"/>
<path d="M1106.53 790.145L1070.38 776.802L1075.54 762.836L1097.72 771.024C1101.42 772.391 1104.43 775.173 1106.08 778.759C1107.74 782.345 1107.9 786.441 1106.53 790.144V790.144L1106.53 790.145Z" fill="#2F2E41"/>
<path d="M1110.23 584.282C1110.23 584.282 1122.62 590.953 1118.81 617.636L1115 718.651L1093.94 764.7L1075.83 759.935L1087.36 722.463L1072.11 656.708L1070.11 776.136L1052.96 778.995L1028.28 580.47L1059.72 566.176L1110.23 584.282Z" fill="#2F2E41"/>
<path d="M1065.95 445.661C1079.51 445.661 1090.51 434.665 1090.51 421.1C1090.51 407.535 1079.51 396.539 1065.95 396.539C1052.39 396.539 1041.39 407.535 1041.39 421.1C1041.39 434.665 1052.39 445.661 1065.95 445.661Z" fill="#FFB8B8"/>
<path d="M1080.21 452.297L1067.82 472.309L1049.72 454.203L1015.87 477.898C1014.68 478.727 1013.81 479.934 1013.4 481.322C1012.98 482.711 1013.05 484.198 1013.6 485.541C1018.8 498.416 1032.14 536.474 1028.28 580.471C1028.28 580.471 1054.01 573.8 1080.69 581.424C1107.37 589.048 1114.04 586.189 1114.04 586.189C1114.04 586.189 1107.37 537.588 1111.18 527.105C1114.35 518.41 1120.79 489.388 1122.89 479.744C1123.09 478.833 1122.99 477.882 1122.61 477.032C1122.22 476.182 1121.58 475.478 1120.76 475.023L1080.21 452.297Z" fill="#6C63FF"/>
<path d="M1119.78 475.138C1120.83 474.988 1121.9 475.225 1122.78 475.804C1123.67 476.384 1124.31 477.266 1124.59 478.286L1140.73 536.539L1136.91 571.799L1118.81 568.94L1120.71 544.163L1107.37 512.715L1116.18 478.367C1116.39 477.533 1116.85 476.781 1117.49 476.206C1118.13 475.631 1118.93 475.259 1119.78 475.138V475.138Z" fill="#6C63FF"/>
<path d="M1046.96 386.62C1048.6 383.84 1050.97 381.567 1053.82 380.051C1056.67 378.536 1059.88 377.837 1063.1 378.032C1066.47 378.454 1069.76 379.375 1072.85 380.763L1088.91 387.026C1093.07 388.646 1097.62 390.632 1099.42 394.711C1101.09 398.496 1099.84 402.869 1098.58 406.81L1092.57 425.546C1091.91 421.305 1090.77 417.154 1089.17 413.169C1087.42 409.252 1084.66 405.64 1080.85 403.683C1076.68 401.543 1071.76 401.588 1067.08 401.813C1060.45 402.132 1053.24 402.976 1048.53 407.653C1046.03 410.309 1044.33 413.62 1043.64 417.202C1042.96 420.764 1042.61 424.384 1042.61 428.011C1039.89 423.337 1037.6 418.427 1035.77 413.34C1034.26 409.552 1033.4 405.537 1033.23 401.464C1033.07 397.355 1034.43 393.333 1037.06 390.167C1039.77 387.136 1044.19 385.499 1048.07 386.699" fill="#2F2E41"/>
<path d="M1033.3 614.479C1033.82 613.105 1034.03 611.633 1033.92 610.166C1033.82 608.7 1033.39 607.276 1032.67 605.994C1031.95 604.711 1030.96 603.602 1029.76 602.744C1028.57 601.887 1027.2 601.301 1025.76 601.029L1020.5 565.684L1006.67 578.078L1013.78 609.742C1013.49 612.2 1014.1 614.68 1015.51 616.714C1016.92 618.748 1019.03 620.194 1021.44 620.778C1023.84 621.362 1026.38 621.043 1028.56 619.882C1030.75 618.721 1032.43 616.799 1033.3 614.479V614.479Z" fill="#FFB8B8"/>
<path d="M1016.22 477.56C1014.77 477.8 1013.45 478.527 1012.48 479.62C1011.51 480.712 1010.94 482.104 1010.86 483.565L1005.4 592.765H1025.42L1032.09 534.634L1023.6 482.848C1023.46 482.016 1023.16 481.218 1022.72 480.502C1022.27 479.785 1021.69 479.163 1021 478.672C1020.32 478.181 1019.54 477.83 1018.72 477.639C1017.9 477.448 1017.05 477.421 1016.22 477.56V477.56Z" fill="#6C63FF"/>
<path d="M1158.74 795.282H987V793.176H1159.12L1158.74 795.282Z" fill="#CCCCCC"/>
</g>
<defs>
<filter id="filter0_d" x="262" y="222" width="944" height="600" filterUnits="userSpaceOnUse" color-interpolation-filters="sRGB">
<feFlood flood-opacity="0" result="BackgroundImageFix"/>
<feColorMatrix in="SourceAlpha" type="matrix" values="0 0 0 0 0 0 0 0 0 0 0 0 0 0 0 0 0 0 127 0"/>
<feOffset dx="10" dy="10"/>
<feGaussianBlur stdDeviation="10"/>
<feColorMatrix type="matrix" values="0 0 0 0 0 0 0 0 0 0 0 0 0 0 0 0 0 0 0.25 0"/>
<feBlend mode="normal" in2="BackgroundImageFix" result="effect1_dropShadow"/>
<feBlend mode="normal" in="SourceGraphic" in2="effect1_dropShadow" result="shape"/>
</filter>
<filter id="filter1_dd" x="512.342" y="595.863" width="163.818" height="161.899" filterUnits="userSpaceOnUse" color-interpolation-filters="sRGB">
<feFlood flood-opacity="0" result="BackgroundImageFix"/>
<feColorMatrix in="SourceAlpha" type="matrix" values="0 0 0 0 0 0 0 0 0 0 0 0 0 0 0 0 0 0 127 0"/>
<feOffset dx="10" dy="10"/>
<feGaussianBlur stdDeviation="10"/>
<feColorMatrix type="matrix" values="0 0 0 0 0 0 0 0 0 0 0 0 0 0 0 0 0 0 0.25 0"/>
<feBlend mode="normal" in2="BackgroundImageFix" result="effect1_dropShadow"/>
<feColorMatrix in="SourceAlpha" type="matrix" values="0 0 0 0 0 0 0 0 0 0 0 0 0 0 0 0 0 0 127 0"/>
<feOffset dx="20" dy="20"/>
<feGaussianBlur stdDeviation="20"/>
<feColorMatrix type="matrix" values="0 0 0 0 0 0 0 0 0 0 0 0 0 0 0 0 0 0 0.25 0"/>
<feBlend mode="normal" in2="effect1_dropShadow" result="effect2_dropShadow"/>
<feBlend mode="normal" in="SourceGraphic" in2="effect2_dropShadow" result="shape"/>
</filter>
<filter id="filter2_dd" x="522.969" y="455.973" width="214.46" height="241.612" filterUnits="userSpaceOnUse" color-interpolation-filters="sRGB">
<feFlood flood-opacity="0" result="BackgroundImageFix"/>
<feColorMatrix in="SourceAlpha" type="matrix" values="0 0 0 0 0 0 0 0 0 0 0 0 0 0 0 0 0 0 127 0"/>
<feOffset dx="10" dy="10"/>
<feGaussianBlur stdDeviation="10"/>
<feColorMatrix type="matrix" values="0 0 0 0 0 0 0 0 0 0 0 0 0 0 0 0 0 0 0.25 0"/>
<feBlend mode="normal" in2="BackgroundImageFix" result="effect1_dropShadow"/>
<feColorMatrix in="SourceAlpha" type="matrix" values="0 0 0 0 0 0 0 0 0 0 0 0 0 0 0 0 0 0 127 0"/>
<feOffset dx="20" dy="20"/>
<feGaussianBlur stdDeviation="20"/>
<feColorMatrix type="matrix" values="0 0 0 0 0 0 0 0 0 0 0 0 0 0 0 0 0 0 0.25 0"/>
<feBlend mode="normal" in2="effect1_dropShadow" result="effect2_dropShadow"/>
<feBlend mode="normal" in="SourceGraphic" in2="effect2_dropShadow" result="shape"/>
</filter>
<filter id="filter3_dd" x="450.479" y="461.75" width="213.652" height="241.576" filterUnits="userSpaceOnUse" color-interpolation-filters="sRGB">
<feFlood flood-opacity="0" result="BackgroundImageFix"/>
<feColorMatrix in="SourceAlpha" type="matrix" values="0 0 0 0 0 0 0 0 0 0 0 0 0 0 0 0 0 0 127 0"/>
<feOffset dx="10" dy="10"/>
<feGaussianBlur stdDeviation="10"/>
<feColorMatrix type="matrix" values="0 0 0 0 0 0 0 0 0 0 0 0 0 0 0 0 0 0 0.25 0"/>
<feBlend mode="normal" in2="BackgroundImageFix" result="effect1_dropShadow"/>
<feColorMatrix in="SourceAlpha" type="matrix" values="0 0 0 0 0 0 0 0 0 0 0 0 0 0 0 0 0 0 127 0"/>
<feOffset dx="20" dy="20"/>
<feGaussianBlur stdDeviation="20"/>
<feColorMatrix type="matrix" values="0 0 0 0 0 0 0 0 0 0 0 0 0 0 0 0 0 0 0.25 0"/>
<feBlend mode="normal" in2="effect1_dropShadow" result="effect2_dropShadow"/>
<feBlend mode="normal" in="SourceGraphic" in2="effect2_dropShadow" result="shape"/>
</filter>
<filter id="filter4_dd" x="452.361" y="430.383" width="283.376" height="298.287" filterUnits="userSpaceOnUse" color-interpolation-filters="sRGB">
<feFlood flood-opacity="0" result="BackgroundImageFix"/>
<feColorMatrix in="SourceAlpha" type="matrix" values="0 0 0 0 0 0 0 0 0 0 0 0 0 0 0 0 0 0 127 0"/>
<feOffset dx="10" dy="10"/>
<feGaussianBlur stdDeviation="10"/>
<feColorMatrix type="matrix" values="0 0 0 0 0 0 0 0 0 0 0 0 0 0 0 0 0 0 0.25 0"/>
<feBlend mode="normal" in2="BackgroundImageFix" result="effect1_dropShadow"/>
<feColorMatrix in="SourceAlpha" type="matrix" values="0 0 0 0 0 0 0 0 0 0 0 0 0 0 0 0 0 0 127 0"/>
<feOffset dx="20" dy="20"/>
<feGaussianBlur stdDeviation="20"/>
<feColorMatrix type="matrix" values="0 0 0 0 0 0 0 0 0 0 0 0 0 0 0 0 0 0 0.25 0"/>
<feBlend mode="normal" in2="effect1_dropShadow" result="effect2_dropShadow"/>
<feBlend mode="normal" in="SourceGraphic" in2="effect2_dropShadow" result="shape"/>
</filter>
<filter id="filter5_dd" x="500.254" y="471.75" width="188.084" height="185.294" filterUnits="userSpaceOnUse" color-interpolation-filters="sRGB">
<feFlood flood-opacity="0" result="BackgroundImageFix"/>
<feColorMatrix in="SourceAlpha" type="matrix" values="0 0 0 0 0 0 0 0 0 0 0 0 0 0 0 0 0 0 127 0"/>
<feOffset dx="10" dy="10"/>
<feGaussianBlur stdDeviation="10"/>
<feColorMatrix type="matrix" values="0 0 0 0 0 0 0 0 0 0 0 0 0 0 0 0 0 0 0.25 0"/>
<feBlend mode="normal" in2="BackgroundImageFix" result="effect1_dropShadow"/>
<feColorMatrix in="SourceAlpha" type="matrix" values="0 0 0 0 0 0 0 0 0 0 0 0 0 0 0 0 0 0 127 0"/>
<feOffset dx="20" dy="20"/>
<feGaussianBlur stdDeviation="20"/>
<feColorMatrix type="matrix" values="0 0 0 0 0 0 0 0 0 0 0 0 0 0 0 0 0 0 0.25 0"/>
<feBlend mode="normal" in2="effect1_dropShadow" result="effect2_dropShadow"/>
<feBlend mode="normal" in="SourceGraphic" in2="effect2_dropShadow" result="shape"/>
</filter>
<filter id="filter6_dd" x="507.322" y="478.703" width="173.971" height="169.961" filterUnits="userSpaceOnUse" color-interpolation-filters="sRGB">
<feFlood flood-opacity="0" result="BackgroundImageFix"/>
<feColorMatrix in="SourceAlpha" type="matrix" values="0 0 0 0 0 0 0 0 0 0 0 0 0 0 0 0 0 0 127 0"/>
<feOffset dx="10" dy="10"/>
<feGaussianBlur stdDeviation="10"/>
<feColorMatrix type="matrix" values="0 0 0 0 0 0 0 0 0 0 0 0 0 0 0 0 0 0 0.25 0"/>
<feBlend mode="normal" in2="BackgroundImageFix" result="effect1_dropShadow"/>
<feColorMatrix in="SourceAlpha" type="matrix" values="0 0 0 0 0 0 0 0 0 0 0 0 0 0 0 0 0 0 127 0"/>
<feOffset dx="20" dy="20"/>
<feGaussianBlur stdDeviation="20"/>
<feColorMatrix type="matrix" values="0 0 0 0 0 0 0 0 0 0 0 0 0 0 0 0 0 0 0.25 0"/>
<feBlend mode="normal" in2="effect1_dropShadow" result="effect2_dropShadow"/>
<feBlend mode="normal" in="SourceGraphic" in2="effect2_dropShadow" result="shape"/>
</filter>
<filter id="filter7_dd" x="522.227" y="556.871" width="98.8301" height="97.3302" filterUnits="userSpaceOnUse" color-interpolation-filters="sRGB">
<feFlood flood-opacity="0" result="BackgroundImageFix"/>
<feColorMatrix in="SourceAlpha" type="matrix" values="0 0 0 0 0 0 0 0 0 0 0 0 0 0 0 0 0 0 127 0"/>
<feOffset dx="10" dy="10"/>
<feGaussianBlur stdDeviation="10"/>
<feColorMatrix type="matrix" values="0 0 0 0 0 0 0 0 0 0 0 0 0 0 0 0 0 0 0.25 0"/>
<feBlend mode="normal" in2="BackgroundImageFix" result="effect1_dropShadow"/>
<feColorMatrix in="SourceAlpha" type="matrix" values="0 0 0 0 0 0 0 0 0 0 0 0 0 0 0 0 0 0 127 0"/>
<feOffset dx="20" dy="20"/>
<feGaussianBlur stdDeviation="20"/>
<feColorMatrix type="matrix" values="0 0 0 0 0 0 0 0 0 0 0 0 0 0 0 0 0 0 0.25 0"/>
<feBlend mode="normal" in2="effect1_dropShadow" result="effect2_dropShadow"/>
<feBlend mode="normal" in="SourceGraphic" in2="effect2_dropShadow" result="shape"/>
</filter>
<filter id="filter8_dd" x="522.303" y="569.617" width="98.8298" height="97.3296" filterUnits="userSpaceOnUse" color-interpolation-filters="sRGB">
<feFlood flood-opacity="0" result="BackgroundImageFix"/>
<feColorMatrix in="SourceAlpha" type="matrix" values="0 0 0 0 0 0 0 0 0 0 0 0 0 0 0 0 0 0 127 0"/>
<feOffset dx="10" dy="10"/>
<feGaussianBlur stdDeviation="10"/>
<feColorMatrix type="matrix" values="0 0 0 0 0 0 0 0 0 0 0 0 0 0 0 0 0 0 0.25 0"/>
<feBlend mode="normal" in2="BackgroundImageFix" result="effect1_dropShadow"/>
<feColorMatrix in="SourceAlpha" type="matrix" values="0 0 0 0 0 0 0 0 0 0 0 0 0 0 0 0 0 0 127 0"/>
<feOffset dx="20" dy="20"/>
<feGaussianBlur stdDeviation="20"/>
<feColorMatrix type="matrix" values="0 0 0 0 0 0 0 0 0 0 0 0 0 0 0 0 0 0 0.25 0"/>
<feBlend mode="normal" in2="effect1_dropShadow" result="effect2_dropShadow"/>
<feBlend mode="normal" in="SourceGraphic" in2="effect2_dropShadow" result="shape"/>
</filter>
<filter id="filter9_dd" x="522.369" y="582.375" width="98.8299" height="97.3297" filterUnits="userSpaceOnUse" color-interpolation-filters="sRGB">
<feFlood flood-opacity="0" result="BackgroundImageFix"/>
<feColorMatrix in="SourceAlpha" type="matrix" values="0 0 0 0 0 0 0 0 0 0 0 0 0 0 0 0 0 0 127 0"/>
<feOffset dx="10" dy="10"/>
<feGaussianBlur stdDeviation="10"/>
<feColorMatrix type="matrix" values="0 0 0 0 0 0 0 0 0 0 0 0 0 0 0 0 0 0 0.25 0"/>
<feBlend mode="normal" in2="BackgroundImageFix" result="effect1_dropShadow"/>
<feColorMatrix in="SourceAlpha" type="matrix" values="0 0 0 0 0 0 0 0 0 0 0 0 0 0 0 0 0 0 127 0"/>
<feOffset dx="20" dy="20"/>
<feGaussianBlur stdDeviation="20"/>
<feColorMatrix type="matrix" values="0 0 0 0 0 0 0 0 0 0 0 0 0 0 0 0 0 0 0.25 0"/>
<feBlend mode="normal" in2="effect1_dropShadow" result="effect2_dropShadow"/>
<feBlend mode="normal" in="SourceGraphic" in2="effect2_dropShadow" result="shape"/>
</filter>
<filter id="filter10_dd" x="522.449" y="595.125" width="98.8299" height="97.3296" filterUnits="userSpaceOnUse" color-interpolation-filters="sRGB">
<feFlood flood-opacity="0" result="BackgroundImageFix"/>
<feColorMatrix in="SourceAlpha" type="matrix" values="0 0 0 0 0 0 0 0 0 0 0 0 0 0 0 0 0 0 127 0"/>
<feOffset dx="10" dy="10"/>
<feGaussianBlur stdDeviation="10"/>
<feColorMatrix type="matrix" values="0 0 0 0 0 0 0 0 0 0 0 0 0 0 0 0 0 0 0.25 0"/>
<feBlend mode="normal" in2="BackgroundImageFix" result="effect1_dropShadow"/>
<feColorMatrix in="SourceAlpha" type="matrix" values="0 0 0 0 0 0 0 0 0 0 0 0 0 0 0 0 0 0 127 0"/>
<feOffset dx="20" dy="20"/>
<feGaussianBlur stdDeviation="20"/>
<feColorMatrix type="matrix" values="0 0 0 0 0 0 0 0 0 0 0 0 0 0 0 0 0 0 0.25 0"/>
<feBlend mode="normal" in2="effect1_dropShadow" result="effect2_dropShadow"/>
<feBlend mode="normal" in="SourceGraphic" in2="effect2_dropShadow" result="shape"/>
</filter>
<filter id="filter11_dd" x="544.066" y="594.559" width="98.83" height="97.33" filterUnits="userSpaceOnUse" color-interpolation-filters="sRGB">
<feFlood flood-opacity="0" result="BackgroundImageFix"/>
<feColorMatrix in="SourceAlpha" type="matrix" values="0 0 0 0 0 0 0 0 0 0 0 0 0 0 0 0 0 0 127 0"/>
<feOffset dx="10" dy="10"/>
<feGaussianBlur stdDeviation="10"/>
<feColorMatrix type="matrix" values="0 0 0 0 0 0 0 0 0 0 0 0 0 0 0 0 0 0 0.25 0"/>
<feBlend mode="normal" in2="BackgroundImageFix" result="effect1_dropShadow"/>
<feColorMatrix in="SourceAlpha" type="matrix" values="0 0 0 0 0 0 0 0 0 0 0 0 0 0 0 0 0 0 127 0"/>
<feOffset dx="20" dy="20"/>
<feGaussianBlur stdDeviation="20"/>
<feColorMatrix type="matrix" values="0 0 0 0 0 0 0 0 0 0 0 0 0 0 0 0 0 0 0.25 0"/>
<feBlend mode="normal" in2="effect1_dropShadow" result="effect2_dropShadow"/>
<feBlend mode="normal" in="SourceGraphic" in2="effect2_dropShadow" result="shape"/>
</filter>
<filter id="filter12_dd" x="567.152" y="593.953" width="98.8298" height="97.3296" filterUnits="userSpaceOnUse" color-interpolation-filters="sRGB">
<feFlood flood-opacity="0" result="BackgroundImageFix"/>
<feColorMatrix in="SourceAlpha" type="matrix" values="0 0 0 0 0 0 0 0 0 0 0 0 0 0 0 0 0 0 127 0"/>
<feOffset dx="10" dy="10"/>
<feGaussianBlur stdDeviation="10"/>
<feColorMatrix type="matrix" values="0 0 0 0 0 0 0 0 0 0 0 0 0 0 0 0 0 0 0.25 0"/>
<feBlend mode="normal" in2="BackgroundImageFix" result="effect1_dropShadow"/>
<feColorMatrix in="SourceAlpha" type="matrix" values="0 0 0 0 0 0 0 0 0 0 0 0 0 0 0 0 0 0 127 0"/>
<feOffset dx="20" dy="20"/>
<feGaussianBlur stdDeviation="20"/>
<feColorMatrix type="matrix" values="0 0 0 0 0 0 0 0 0 0 0 0 0 0 0 0 0 0 0.25 0"/>
<feBlend mode="normal" in2="effect1_dropShadow" result="effect2_dropShadow"/>
<feBlend mode="normal" in="SourceGraphic" in2="effect2_dropShadow" result="shape"/>
</filter>
<filter id="filter13_dd" x="544.016" y="581.789" width="98.83" height="97.33" filterUnits="userSpaceOnUse" color-interpolation-filters="sRGB">
<feFlood flood-opacity="0" result="BackgroundImageFix"/>
<feColorMatrix in="SourceAlpha" type="matrix" values="0 0 0 0 0 0 0 0 0 0 0 0 0 0 0 0 0 0 127 0"/>
<feOffset dx="10" dy="10"/>
<feGaussianBlur stdDeviation="10"/>
<feColorMatrix type="matrix" values="0 0 0 0 0 0 0 0 0 0 0 0 0 0 0 0 0 0 0.25 0"/>
<feBlend mode="normal" in2="BackgroundImageFix" result="effect1_dropShadow"/>
<feColorMatrix in="SourceAlpha" type="matrix" values="0 0 0 0 0 0 0 0 0 0 0 0 0 0 0 0 0 0 127 0"/>
<feOffset dx="20" dy="20"/>
<feGaussianBlur stdDeviation="20"/>
<feColorMatrix type="matrix" values="0 0 0 0 0 0 0 0 0 0 0 0 0 0 0 0 0 0 0.25 0"/>
<feBlend mode="normal" in2="effect1_dropShadow" result="effect2_dropShadow"/>
<feBlend mode="normal" in="SourceGraphic" in2="effect2_dropShadow" result="shape"/>
</filter>
<filter id="filter14_dd" x="567.098" y="581.199" width="98.8298" height="97.3296" filterUnits="userSpaceOnUse" color-interpolation-filters="sRGB">
<feFlood flood-opacity="0" result="BackgroundImageFix"/>
<feColorMatrix in="SourceAlpha" type="matrix" values="0 0 0 0 0 0 0 0 0 0 0 0 0 0 0 0 0 0 127 0"/>
<feOffset dx="10" dy="10"/>
<feGaussianBlur stdDeviation="10"/>
<feColorMatrix type="matrix" values="0 0 0 0 0 0 0 0 0 0 0 0 0 0 0 0 0 0 0.25 0"/>
<feBlend mode="normal" in2="BackgroundImageFix" result="effect1_dropShadow"/>
<feColorMatrix in="SourceAlpha" type="matrix" values="0 0 0 0 0 0 0 0 0 0 0 0 0 0 0 0 0 0 127 0"/>
<feOffset dx="20" dy="20"/>
<feGaussianBlur stdDeviation="20"/>
<feColorMatrix type="matrix" values="0 0 0 0 0 0 0 0 0 0 0 0 0 0 0 0 0 0 0.25 0"/>
<feBlend mode="normal" in2="effect1_dropShadow" result="effect2_dropShadow"/>
<feBlend mode="normal" in="SourceGraphic" in2="effect2_dropShadow" result="shape"/>
</filter>
<filter id="filter15_dd" x="543.947" y="569.051" width="98.8298" height="97.3296" filterUnits="userSpaceOnUse" color-interpolation-filters="sRGB">
<feFlood flood-opacity="0" result="BackgroundImageFix"/>
<feColorMatrix in="SourceAlpha" type="matrix" values="0 0 0 0 0 0 0 0 0 0 0 0 0 0 0 0 0 0 127 0"/>
<feOffset dx="10" dy="10"/>
<feGaussianBlur stdDeviation="10"/>
<feColorMatrix type="matrix" values="0 0 0 0 0 0 0 0 0 0 0 0 0 0 0 0 0 0 0.25 0"/>
<feBlend mode="normal" in2="BackgroundImageFix" result="effect1_dropShadow"/>
<feColorMatrix in="SourceAlpha" type="matrix" values="0 0 0 0 0 0 0 0 0 0 0 0 0 0 0 0 0 0 127 0"/>
<feOffset dx="20" dy="20"/>
<feGaussianBlur stdDeviation="20"/>
<feColorMatrix type="matrix" values="0 0 0 0 0 0 0 0 0 0 0 0 0 0 0 0 0 0 0.25 0"/>
<feBlend mode="normal" in2="effect1_dropShadow" result="effect2_dropShadow"/>
<feBlend mode="normal" in="SourceGraphic" in2="effect2_dropShadow" result="shape"/>
</filter>
<filter id="filter16_dd" x="567.023" y="568.434" width="98.8298" height="97.3296" filterUnits="userSpaceOnUse" color-interpolation-filters="sRGB">
<feFlood flood-opacity="0" result="BackgroundImageFix"/>
<feColorMatrix in="SourceAlpha" type="matrix" values="0 0 0 0 0 0 0 0 0 0 0 0 0 0 0 0 0 0 127 0"/>
<feOffset dx="10" dy="10"/>
<feGaussianBlur stdDeviation="10"/>
<feColorMatrix type="matrix" values="0 0 0 0 0 0 0 0 0 0 0 0 0 0 0 0 0 0 0.25 0"/>
<feBlend mode="normal" in2="BackgroundImageFix" result="effect1_dropShadow"/>
<feColorMatrix in="SourceAlpha" type="matrix" values="0 0 0 0 0 0 0 0 0 0 0 0 0 0 0 0 0 0 127 0"/>
<feOffset dx="20" dy="20"/>
<feGaussianBlur stdDeviation="20"/>
<feColorMatrix type="matrix" values="0 0 0 0 0 0 0 0 0 0 0 0 0 0 0 0 0 0 0.25 0"/>
<feBlend mode="normal" in2="effect1_dropShadow" result="effect2_dropShadow"/>
<feBlend mode="normal" in="SourceGraphic" in2="effect2_dropShadow" result="shape"/>
</filter>
<filter id="filter17_dd" x="543.875" y="556.293" width="98.83" height="97.33" filterUnits="userSpaceOnUse" color-interpolation-filters="sRGB">
<feFlood flood-opacity="0" result="BackgroundImageFix"/>
<feColorMatrix in="SourceAlpha" type="matrix" values="0 0 0 0 0 0 0 0 0 0 0 0 0 0 0 0 0 0 127 0"/>
<feOffset dx="10" dy="10"/>
<feGaussianBlur stdDeviation="10"/>
<feColorMatrix type="matrix" values="0 0 0 0 0 0 0 0 0 0 0 0 0 0 0 0 0 0 0.25 0"/>
<feBlend mode="normal" in2="BackgroundImageFix" result="effect1_dropShadow"/>
<feColorMatrix in="SourceAlpha" type="matrix" values="0 0 0 0 0 0 0 0 0 0 0 0 0 0 0 0 0 0 127 0"/>
<feOffset dx="20" dy="20"/>
<feGaussianBlur stdDeviation="20"/>
<feColorMatrix type="matrix" values="0 0 0 0 0 0 0 0 0 0 0 0 0 0 0 0 0 0 0.25 0"/>
<feBlend mode="normal" in2="effect1_dropShadow" result="effect2_dropShadow"/>
<feBlend mode="normal" in="SourceGraphic" in2="effect2_dropShadow" result="shape"/>
</filter>
<filter id="filter18_dd" x="566.963" y="555.691" width="98.8302" height="97.3298" filterUnits="userSpaceOnUse" color-interpolation-filters="sRGB">
<feFlood flood-opacity="0" result="BackgroundImageFix"/>
<feColorMatrix in="SourceAlpha" type="matrix" values="0 0 0 0 0 0 0 0 0 0 0 0 0 0 0 0 0 0 127 0"/>
<feOffset dx="10" dy="10"/>
<feGaussianBlur stdDeviation="10"/>
<feColorMatrix type="matrix" values="0 0 0 0 0 0 0 0 0 0 0 0 0 0 0 0 0 0 0.25 0"/>
<feBlend mode="normal" in2="BackgroundImageFix" result="effect1_dropShadow"/>
<feColorMatrix in="SourceAlpha" type="matrix" values="0 0 0 0 0 0 0 0 0 0 0 0 0 0 0 0 0 0 127 0"/>
<feOffset dx="20" dy="20"/>
<feGaussianBlur stdDeviation="20"/>
<feColorMatrix type="matrix" values="0 0 0 0 0 0 0 0 0 0 0 0 0 0 0 0 0 0 0.25 0"/>
<feBlend mode="normal" in2="effect1_dropShadow" result="effect2_dropShadow"/>
<feBlend mode="normal" in="SourceGraphic" in2="effect2_dropShadow" result="shape"/>
</filter>
<filter id="filter19_dd" x="525.68" y="499.457" width="137.286" height="129.203" filterUnits="userSpaceOnUse" color-interpolation-filters="sRGB">
<feFlood flood-opacity="0" result="BackgroundImageFix"/>
<feColorMatrix in="SourceAlpha" type="matrix" values="0 0 0 0 0 0 0 0 0 0 0 0 0 0 0 0 0 0 127 0"/>
<feOffset dx="10" dy="10"/>
<feGaussianBlur stdDeviation="10"/>
<feColorMatrix type="matrix" values="0 0 0 0 0 0 0 0 0 0 0 0 0 0 0 0 0 0 0.25 0"/>
<feBlend mode="normal" in2="BackgroundImageFix" result="effect1_dropShadow"/>
<feColorMatrix in="SourceAlpha" type="matrix" values="0 0 0 0 0 0 0 0 0 0 0 0 0 0 0 0 0 0 127 0"/>
<feOffset dx="20" dy="20"/>
<feGaussianBlur stdDeviation="20"/>
<feColorMatrix type="matrix" values="0 0 0 0 0 0 0 0 0 0 0 0 0 0 0 0 0 0 0.25 0"/>
<feBlend mode="normal" in2="effect1_dropShadow" result="effect2_dropShadow"/>
<feBlend mode="normal" in="SourceGraphic" in2="effect2_dropShadow" result="shape"/>
</filter>
<filter id="filter20_dd" x="702" y="471" width="290" height="214.998" filterUnits="userSpaceOnUse" color-interpolation-filters="sRGB">
<feFlood flood-opacity="0" result="BackgroundImageFix"/>
<feColorMatrix in="SourceAlpha" type="matrix" values="0 0 0 0 0 0 0 0 0 0 0 0 0 0 0 0 0 0 127 0"/>
<feOffset dy="4"/>
<feGaussianBlur stdDeviation="2"/>
<feColorMatrix type="matrix" values="0 0 0 0 0 0 0 0 0 0 0 0 0 0 0 0 0 0 0.25 0"/>
<feBlend mode="normal" in2="BackgroundImageFix" result="effect1_dropShadow"/>
<feColorMatrix in="SourceAlpha" type="matrix" values="0 0 0 0 0 0 0 0 0 0 0 0 0 0 0 0 0 0 127 0"/>
<feOffset dx="20" dy="20"/>
<feGaussianBlur stdDeviation="5"/>
<feColorMatrix type="matrix" values="0 0 0 0 0 0 0 0 0 0 0 0 0 0 0 0 0 0 0.25 0"/>
<feBlend mode="normal" in2="effect1_dropShadow" result="effect2_dropShadow"/>
<feBlend mode="normal" in="SourceGraphic" in2="effect2_dropShadow" result="shape"/>
</filter>
<filter id="filter21_dd" x="837.865" y="584.473" width="63.0881" height="49.6238" filterUnits="userSpaceOnUse" color-interpolation-filters="sRGB">
<feFlood flood-opacity="0" result="BackgroundImageFix"/>
<feColorMatrix in="SourceAlpha" type="matrix" values="0 0 0 0 0 0 0 0 0 0 0 0 0 0 0 0 0 0 127 0"/>
<feOffset dy="4"/>
<feGaussianBlur stdDeviation="2"/>
<feColorMatrix type="matrix" values="0 0 0 0 0 0 0 0 0 0 0 0 0 0 0 0 0 0 0.25 0"/>
<feBlend mode="normal" in2="BackgroundImageFix" result="effect1_dropShadow"/>
<feColorMatrix in="SourceAlpha" type="matrix" values="0 0 0 0 0 0 0 0 0 0 0 0 0 0 0 0 0 0 127 0"/>
<feOffset dx="20" dy="20"/>
<feGaussianBlur stdDeviation="10"/>
<feColorMatrix type="matrix" values="0 0 0 0 0 0 0 0 0 0 0 0 0 0 0 0 0 0 0.25 0"/>
<feBlend mode="normal" in2="effect1_dropShadow" result="effect2_dropShadow"/>
<feBlend mode="normal" in="SourceGraphic" in2="effect2_dropShadow" result="shape"/>
</filter>
<filter id="filter22_dd" x="854.061" y="577.922" width="63.0881" height="49.6238" filterUnits="userSpaceOnUse" color-interpolation-filters="sRGB">
<feFlood flood-opacity="0" result="BackgroundImageFix"/>
<feColorMatrix in="SourceAlpha" type="matrix" values="0 0 0 0 0 0 0 0 0 0 0 0 0 0 0 0 0 0 127 0"/>
<feOffset dy="4"/>
<feGaussianBlur stdDeviation="2"/>
<feColorMatrix type="matrix" values="0 0 0 0 0 0 0 0 0 0 0 0 0 0 0 0 0 0 0.25 0"/>
<feBlend mode="normal" in2="BackgroundImageFix" result="effect1_dropShadow"/>
<feColorMatrix in="SourceAlpha" type="matrix" values="0 0 0 0 0 0 0 0 0 0 0 0 0 0 0 0 0 0 127 0"/>
<feOffset dx="20" dy="20"/>
<feGaussianBlur stdDeviation="10"/>
<feColorMatrix type="matrix" values="0 0 0 0 0 0 0 0 0 0 0 0 0 0 0 0 0 0 0.25 0"/>
<feBlend mode="normal" in2="effect1_dropShadow" result="effect2_dropShadow"/>
<feBlend mode="normal" in="SourceGraphic" in2="effect2_dropShadow" result="shape"/>
</filter>
<filter id="filter23_dd" x="871.398" y="571.535" width="63.0881" height="49.6238" filterUnits="userSpaceOnUse" color-interpolation-filters="sRGB">
<feFlood flood-opacity="0" result="BackgroundImageFix"/>
<feColorMatrix in="SourceAlpha" type="matrix" values="0 0 0 0 0 0 0 0 0 0 0 0 0 0 0 0 0 0 127 0"/>
<feOffset dy="4"/>
<feGaussianBlur stdDeviation="2"/>
<feColorMatrix type="matrix" values="0 0 0 0 0 0 0 0 0 0 0 0 0 0 0 0 0 0 0.25 0"/>
<feBlend mode="normal" in2="BackgroundImageFix" result="effect1_dropShadow"/>
<feColorMatrix in="SourceAlpha" type="matrix" values="0 0 0 0 0 0 0 0 0 0 0 0 0 0 0 0 0 0 127 0"/>
<feOffset dx="20" dy="20"/>
<feGaussianBlur stdDeviation="10"/>
<feColorMatrix type="matrix" values="0 0 0 0 0 0 0 0 0 0 0 0 0 0 0 0 0 0 0.25 0"/>
<feBlend mode="normal" in2="effect1_dropShadow" result="effect2_dropShadow"/>
<feBlend mode="normal" in="SourceGraphic" in2="effect2_dropShadow" result="shape"/>
</filter>
<filter id="filter24_dd" x="853.33" y="594.453" width="63.0881" height="49.6238" filterUnits="userSpaceOnUse" color-interpolation-filters="sRGB">
<feFlood flood-opacity="0" result="BackgroundImageFix"/>
<feColorMatrix in="SourceAlpha" type="matrix" values="0 0 0 0 0 0 0 0 0 0 0 0 0 0 0 0 0 0 127 0"/>
<feOffset dy="4"/>
<feGaussianBlur stdDeviation="2"/>
<feColorMatrix type="matrix" values="0 0 0 0 0 0 0 0 0 0 0 0 0 0 0 0 0 0 0.25 0"/>
<feBlend mode="normal" in2="BackgroundImageFix" result="effect1_dropShadow"/>
<feColorMatrix in="SourceAlpha" type="matrix" values="0 0 0 0 0 0 0 0 0 0 0 0 0 0 0 0 0 0 127 0"/>
<feOffset dx="20" dy="20"/>
<feGaussianBlur stdDeviation="10"/>
<feColorMatrix type="matrix" values="0 0 0 0 0 0 0 0 0 0 0 0 0 0 0 0 0 0 0.25 0"/>
<feBlend mode="normal" in2="effect1_dropShadow" result="effect2_dropShadow"/>
<feBlend mode="normal" in="SourceGraphic" in2="effect2_dropShadow" result="shape"/>
</filter>
<filter id="filter25_dd" x="868.951" y="587.82" width="63.0881" height="49.6238" filterUnits="userSpaceOnUse" color-interpolation-filters="sRGB">
<feFlood flood-opacity="0" result="BackgroundImageFix"/>
<feColorMatrix in="SourceAlpha" type="matrix" values="0 0 0 0 0 0 0 0 0 0 0 0 0 0 0 0 0 0 127 0"/>
<feOffset dy="4"/>
<feGaussianBlur stdDeviation="2"/>
<feColorMatrix type="matrix" values="0 0 0 0 0 0 0 0 0 0 0 0 0 0 0 0 0 0 0.25 0"/>
<feBlend mode="normal" in2="BackgroundImageFix" result="effect1_dropShadow"/>
<feColorMatrix in="SourceAlpha" type="matrix" values="0 0 0 0 0 0 0 0 0 0 0 0 0 0 0 0 0 0 127 0"/>
<feOffset dx="20" dy="20"/>
<feGaussianBlur stdDeviation="10"/>
<feColorMatrix type="matrix" values="0 0 0 0 0 0 0 0 0 0 0 0 0 0 0 0 0 0 0.25 0"/>
<feBlend mode="normal" in2="effect1_dropShadow" result="effect2_dropShadow"/>
<feBlend mode="normal" in="SourceGraphic" in2="effect2_dropShadow" result="shape"/>
</filter>
<filter id="filter26_dd" x="885.143" y="581.277" width="63.0881" height="49.6238" filterUnits="userSpaceOnUse" color-interpolation-filters="sRGB">
<feFlood flood-opacity="0" result="BackgroundImageFix"/>
<feColorMatrix in="SourceAlpha" type="matrix" values="0 0 0 0 0 0 0 0 0 0 0 0 0 0 0 0 0 0 127 0"/>
<feOffset dy="4"/>
<feGaussianBlur stdDeviation="2"/>
<feColorMatrix type="matrix" values="0 0 0 0 0 0 0 0 0 0 0 0 0 0 0 0 0 0 0.25 0"/>
<feBlend mode="normal" in2="BackgroundImageFix" result="effect1_dropShadow"/>
<feColorMatrix in="SourceAlpha" type="matrix" values="0 0 0 0 0 0 0 0 0 0 0 0 0 0 0 0 0 0 127 0"/>
<feOffset dx="20" dy="20"/>
<feGaussianBlur stdDeviation="10"/>
<feColorMatrix type="matrix" values="0 0 0 0 0 0 0 0 0 0 0 0 0 0 0 0 0 0 0.25 0"/>
<feBlend mode="normal" in2="effect1_dropShadow" result="effect2_dropShadow"/>
<feBlend mode="normal" in="SourceGraphic" in2="effect2_dropShadow" result="shape"/>
</filter>
<filter id="filter27_dd" x="867.074" y="604.184" width="63.0875" height="49.6238" filterUnits="userSpaceOnUse" color-interpolation-filters="sRGB">
<feFlood flood-opacity="0" result="BackgroundImageFix"/>
<feColorMatrix in="SourceAlpha" type="matrix" values="0 0 0 0 0 0 0 0 0 0 0 0 0 0 0 0 0 0 127 0"/>
<feOffset dy="4"/>
<feGaussianBlur stdDeviation="2"/>
<feColorMatrix type="matrix" values="0 0 0 0 0 0 0 0 0 0 0 0 0 0 0 0 0 0 0.25 0"/>
<feBlend mode="normal" in2="BackgroundImageFix" result="effect1_dropShadow"/>
<feColorMatrix in="SourceAlpha" type="matrix" values="0 0 0 0 0 0 0 0 0 0 0 0 0 0 0 0 0 0 127 0"/>
<feOffset dx="20" dy="20"/>
<feGaussianBlur stdDeviation="10"/>
<feColorMatrix type="matrix" values="0 0 0 0 0 0 0 0 0 0 0 0 0 0 0 0 0 0 0.25 0"/>
<feBlend mode="normal" in2="effect1_dropShadow" result="effect2_dropShadow"/>
<feBlend mode="normal" in="SourceGraphic" in2="effect2_dropShadow" result="shape"/>
</filter>
<filter id="filter28_dd" x="882.773" y="597.047" width="63.0881" height="49.6238" filterUnits="userSpaceOnUse" color-interpolation-filters="sRGB">
<feFlood flood-opacity="0" result="BackgroundImageFix"/>
<feColorMatrix in="SourceAlpha" type="matrix" values="0 0 0 0 0 0 0 0 0 0 0 0 0 0 0 0 0 0 127 0"/>
<feOffset dy="4"/>
<feGaussianBlur stdDeviation="2"/>
<feColorMatrix type="matrix" values="0 0 0 0 0 0 0 0 0 0 0 0 0 0 0 0 0 0 0.25 0"/>
<feBlend mode="normal" in2="BackgroundImageFix" result="effect1_dropShadow"/>
<feColorMatrix in="SourceAlpha" type="matrix" values="0 0 0 0 0 0 0 0 0 0 0 0 0 0 0 0 0 0 127 0"/>
<feOffset dx="20" dy="20"/>
<feGaussianBlur stdDeviation="10"/>
<feColorMatrix type="matrix" values="0 0 0 0 0 0 0 0 0 0 0 0 0 0 0 0 0 0 0.25 0"/>
<feBlend mode="normal" in2="effect1_dropShadow" result="effect2_dropShadow"/>
<feBlend mode="normal" in="SourceGraphic" in2="effect2_dropShadow" result="shape"/>
</filter>
<filter id="filter29_dd" x="897.248" y="590.25" width="63.0881" height="49.6238" filterUnits="userSpaceOnUse" color-interpolation-filters="sRGB">
<feFlood flood-opacity="0" result="BackgroundImageFix"/>
<feColorMatrix in="SourceAlpha" type="matrix" values="0 0 0 0 0 0 0 0 0 0 0 0 0 0 0 0 0 0 127 0"/>
<feOffset dy="4"/>
<feGaussianBlur stdDeviation="2"/>
<feColorMatrix type="matrix" values="0 0 0 0 0 0 0 0 0 0 0 0 0 0 0 0 0 0 0.25 0"/>
<feBlend mode="normal" in2="BackgroundImageFix" result="effect1_dropShadow"/>
<feColorMatrix in="SourceAlpha" type="matrix" values="0 0 0 0 0 0 0 0 0 0 0 0 0 0 0 0 0 0 127 0"/>
<feOffset dx="20" dy="20"/>
<feGaussianBlur stdDeviation="10"/>
<feColorMatrix type="matrix" values="0 0 0 0 0 0 0 0 0 0 0 0 0 0 0 0 0 0 0.25 0"/>
<feBlend mode="normal" in2="effect1_dropShadow" result="effect2_dropShadow"/>
<feBlend mode="normal" in="SourceGraphic" in2="effect2_dropShadow" result="shape"/>
</filter>
<clipPath id="clip0">
<rect width="1440" height="1024" fill="white"/>
</clipPath>
</defs>
</svg>
