<svg width="360" height="640" viewBox="0 0 360 640" fill="none" xmlns="http://www.w3.org/2000/svg">
<g clip-path="url(#clip0)">
<rect width="360" height="640" fill="black"/>
<path d="M-14.7229 640.671L-1.34901 652.856L8.65222 641.287" stroke="#2AC8DE"/>
<g filter="url(#filter1_d)">
<path d="M31.454 578.611C30.8967 578.103 29.6068 577.291 28.9049 578.103C28.2031 578.915 15.3945 593.731 9.07792 601.038L-8.81903 621.741C-8.98332 622.075 -9.22161 622.898 -8.86046 623.517C-8.4993 624.136 -7.99108 624.672 -7.78211 624.862M53.0111 598.615C53.5683 599.123 54.5776 600.26 54.1565 600.747C53.7354 601.234 43.5704 612.993 38.5405 618.811C39.0754 619.057 40.0884 619.786 39.8613 620.74C39.6342 621.694 25.6129 637.51 18.6306 645.299C18.1404 645.578 16.9928 645.984 16.3241 645.375C15.6554 644.765 14.6523 643.851 14.2344 643.471" stroke="#2AC8DE"/>
</g>
<g filter="url(#filter2_d)">
<path d="M50.3702 594.757L45.8082 600.034L31.3895 586.897L41.2153 575.531C41.7778 574.592 43.2305 572.941 44.5411 573.844C45.8517 574.748 48.5699 577.394 49.7653 578.604L54.5715 582.983L59.1688 587.172" stroke="#2AC8DE"/>
</g>
<g filter="url(#filter3_d)">
<path d="M30.9613 579.614L-5.88536 622.237C-6.8908 623.256 -8.56734 625.598 -7.22995 626.817C-5.89256 628.035 -5.00097 628.848 -4.72234 629.102L-3.66958 627.884L9.91329 640.26L8.86053 641.477L11.5771 643.952C11.9142 644.139 12.8057 644.346 13.6747 643.687C14.5437 643.027 39.771 613.643 52.276 599.034C52.8135 598.556 53.6378 597.372 52.6348 596.458C51.6318 595.544 50.8237 594.808 50.5451 594.554L54.2298 590.292L55.6335 588.668L57.0372 587.045C57.7364 586.956 59.3086 587.01 60.0041 587.934C60.6996 588.858 60.8235 590.011 60.7986 590.472L59.9213 591.486L59.3949 592.095L58.8685 592.704L55.1071 589.277" stroke="#2AC8DE"/>
</g>
<g filter="url(#filter4_d)">
<path d="M13.9674 601.865L25.3724 588.672C25.6648 588.333 26.3266 587.654 26.6341 587.644C26.9416 587.634 27.2971 587.886 27.4365 588.013L28.2723 588.774L30.9889 591.249L44.3628 603.434C45.3658 604.348 44.7978 605.524 44.3884 605.998L32.9835 619.19C32.2816 620.002 31.0363 619.714 30.5014 619.469L27.5759 616.803L14.411 604.809C13.4079 603.895 13.6974 602.465 13.9674 601.865Z" stroke="#2AC8DE"/>
</g>
<g filter="url(#filter5_d)">
<path d="M42.9586 605.058L26.4502 590.017L15.7471 602.398L32.2555 617.439L42.9586 605.058Z" fill="#E9B42C"/>
<path d="M42.9586 605.058L26.4502 590.017L15.7471 602.398L32.2555 617.439L42.9586 605.058Z" stroke="#2AC8DE"/>
</g>
<g filter="url(#filter6_d)">
<ellipse rx="3.10966" ry="1.87806" transform="matrix(0.739193 0.673494 -0.653984 0.756508 13.3419 610.366)" fill="#797777"/>
</g>
<g filter="url(#filter7_d)">
<ellipse rx="3.10966" ry="1.87806" transform="matrix(0.739193 0.673494 -0.653984 0.756508 19.1935 615.697)" fill="#797777"/>
</g>
<g filter="url(#filter8_d)">
<ellipse rx="3.10966" ry="1.87806" transform="matrix(0.739193 0.673494 -0.653984 0.756508 25.0441 621.028)" fill="#797777"/>
</g>
<g filter="url(#filter9_d)">
<ellipse rx="3.10966" ry="1.87806" transform="matrix(0.739193 0.673494 -0.653984 0.756508 21.8858 624.681)" fill="#797777"/>
</g>
<g filter="url(#filter10_d)">
<ellipse rx="3.10966" ry="1.87806" transform="matrix(0.739193 0.673494 -0.653984 0.756508 7.37706 617.267)" fill="#797777"/>
</g>
<g filter="url(#filter11_d)">
<ellipse rx="3.10966" ry="1.87806" transform="matrix(0.739193 0.673494 -0.653984 0.756508 10.1837 614.019)" fill="#797777"/>
</g>
<g filter="url(#filter12_d)">
<ellipse rx="3.10966" ry="1.87806" transform="matrix(0.739193 0.673494 -0.653984 0.756508 16.0353 619.35)" fill="#797777"/>
</g>
<g filter="url(#filter13_d)">
<ellipse rx="3.10966" ry="1.87806" transform="matrix(0.739193 0.673494 -0.653984 0.756508 13.2276 622.598)" fill="#797777"/>
</g>
<g filter="url(#filter14_d)">
<ellipse rx="3.10966" ry="1.87806" transform="matrix(0.739193 0.673494 -0.653984 0.756508 19.0792 627.929)" fill="#797777"/>
</g>
<g filter="url(#filter15_d)">
<ellipse rx="3.10966" ry="1.87806" transform="matrix(0.739193 0.673494 -0.653984 0.756508 10.42 625.845)" fill="#797777"/>
</g>
<g filter="url(#filter16_d)">
<ellipse rx="3.10966" ry="1.87806" transform="matrix(0.739193 0.673494 -0.653984 0.756508 4.56944 620.514)" fill="#797777"/>
</g>
<g filter="url(#filter17_d)">
<ellipse rx="3.10966" ry="1.87806" transform="matrix(0.739193 0.673494 -0.653984 0.756508 1.41124 624.167)" fill="#D51818"/>
</g>
<g filter="url(#filter18_d)">
<ellipse rx="3.10966" ry="1.87806" transform="matrix(0.739193 0.673494 -0.653984 0.756508 7.26182 629.499)" fill="#797777"/>
</g>
<g filter="url(#filter19_d)">
<ellipse rx="3.10966" ry="1.87806" transform="matrix(0.739193 0.673494 -0.653984 0.756508 13.1134 634.83)" fill="#47D93A"/>
</g>
<g filter="url(#filter20_d)">
<ellipse rx="3.10966" ry="1.87806" transform="matrix(0.739193 0.673494 -0.653984 0.756508 16.2716 631.176)" fill="#797777"/>
</g>
<g filter="url(#filter21_d)">
<path d="M348.588 637.814L360.578 647.306" stroke="#F01A41"/>
</g>
<g filter="url(#filter22_d)">
<path d="M360.578 647.306L372.174 633.418L360.184 623.926" stroke="#F01A41"/>
</g>
<g filter="url(#filter23_d)">
<path d="M296.582 603.853C296.099 604.432 295.343 605.756 296.185 606.422C297.026 607.088 312.382 619.244 319.955 625.239L341.412 642.225C341.753 642.375 342.585 642.577 343.188 642.19C343.792 641.802 344.305 641.271 344.486 641.054M315.636 581.452C316.119 580.873 317.212 579.816 317.717 580.216C318.221 580.615 330.408 590.263 336.439 595.036C336.661 594.491 337.346 593.448 338.309 593.633C339.272 593.819 355.679 607.144 363.762 613.783C364.062 614.261 364.517 615.39 363.937 616.084C363.358 616.779 362.488 617.82 362.125 618.254" stroke="#F01A41"/>
</g>
<g filter="url(#filter24_d)">
<path d="M311.895 584.258L317.365 588.588L304.863 603.561L293.083 594.235C292.121 593.714 290.408 592.334 291.254 590.985C292.1 589.637 294.626 586.807 295.784 585.56L299.951 580.569L303.937 575.795" stroke="#F01A41"/>
</g>
<g filter="url(#filter25_d)">
<path d="M297.604 604.302L341.78 639.273C342.841 640.233 345.254 641.807 346.414 640.418C347.573 639.029 348.346 638.104 348.588 637.814L347.326 636.815L359.103 622.71L360.365 623.709L362.72 620.888C362.892 620.543 363.061 619.644 362.364 618.804C361.668 617.964 331.221 594.031 316.085 582.169C315.585 581.652 314.366 580.88 313.496 581.921C312.627 582.963 311.926 583.802 311.685 584.091L307.267 580.594L305.584 579.262L303.901 577.93C303.783 577.235 303.768 575.662 304.661 574.927C305.554 574.192 306.701 574.019 307.163 574.024L308.214 574.856L308.845 575.356L309.477 575.856L306.215 579.762" stroke="#F01A41"/>
</g>
<g filter="url(#filter26_d)">
<path d="M320.569 620.319L306.895 609.495C306.545 609.217 305.838 608.585 305.814 608.279C305.791 607.972 306.027 607.606 306.148 607.461L306.872 606.593L309.228 603.772L320.824 589.884C321.693 588.843 322.892 589.359 323.383 589.748L337.057 600.572C337.898 601.238 337.664 602.495 337.442 603.04L334.905 606.078L323.491 619.749C322.621 620.79 321.18 620.563 320.569 620.319Z" stroke="#F01A41"/>
</g>
<g filter="url(#filter27_d)">
<path d="M322.507 591.216L308.193 608.359L321.025 618.517L335.339 601.374L322.507 591.216Z" fill="#E9B42C"/>
<path d="M322.507 591.216L308.193 608.359L321.025 618.517L335.339 601.374L322.507 591.216Z" stroke="#F01A41"/>
</g>
<g filter="url(#filter28_d)">
<ellipse rx="3.10966" ry="1.87806" transform="matrix(0.640922 -0.767606 0.784062 0.620683 329.09 620.576)" fill="#797777"/>
</g>
<g filter="url(#filter29_d)">
<ellipse rx="3.10966" ry="1.87806" transform="matrix(0.640922 -0.767606 0.784062 0.620683 334.163 614.5)" fill="#797777"/>
</g>
<g filter="url(#filter30_d)">
<ellipse rx="3.10966" ry="1.87806" transform="matrix(0.640922 -0.767606 0.784062 0.620683 339.236 608.424)" fill="#797777"/>
</g>
<g filter="url(#filter31_d)">
<ellipse rx="3.10966" ry="1.87806" transform="matrix(0.640922 -0.767606 0.784062 0.620683 343.022 611.422)" fill="#797777"/>
</g>
<g filter="url(#filter32_d)">
<ellipse rx="3.10966" ry="1.87806" transform="matrix(0.640922 -0.767606 0.784062 0.620683 336.242 626.238)" fill="#797777"/>
</g>
<g filter="url(#filter33_d)">
<ellipse rx="3.10966" ry="1.87806" transform="matrix(0.640922 -0.767606 0.784062 0.620683 332.876 623.574)" fill="#797777"/>
</g>
<g filter="url(#filter34_d)">
<ellipse rx="3.10966" ry="1.87806" transform="matrix(0.640922 -0.767606 0.784062 0.620683 337.949 617.498)" fill="#797777"/>
</g>
<g filter="url(#filter35_d)">
<ellipse rx="3.10966" ry="1.87806" transform="matrix(0.640922 -0.767606 0.784062 0.620683 341.315 620.162)" fill="#797777"/>
</g>
<g filter="url(#filter36_d)">
<ellipse rx="3.10966" ry="1.87806" transform="matrix(0.640922 -0.767606 0.784062 0.620683 346.388 614.086)" fill="#797777"/>
</g>
<g filter="url(#filter37_d)">
<ellipse rx="3.10966" ry="1.87806" transform="matrix(0.640922 -0.767606 0.784062 0.620683 344.68 622.827)" fill="#797777"/>
</g>
<g filter="url(#filter38_d)">
<ellipse rx="3.10966" ry="1.87806" transform="matrix(0.640922 -0.767606 0.784062 0.620683 339.607 628.902)" fill="#797777"/>
</g>
<g filter="url(#filter39_d)">
<ellipse rx="3.10966" ry="1.87806" transform="matrix(0.640922 -0.767606 0.784062 0.620683 343.394 631.9)" fill="#D51818"/>
</g>
<g filter="url(#filter40_d)">
<ellipse rx="3.10966" ry="1.87806" transform="matrix(0.640922 -0.767606 0.784062 0.620683 348.468 625.824)" fill="#797777"/>
</g>
<g filter="url(#filter41_d)">
<ellipse rx="3.10966" ry="1.87806" transform="matrix(0.640922 -0.767606 0.784062 0.620683 353.54 619.748)" fill="#47D93A"/>
</g>
<g filter="url(#filter42_d)">
<ellipse rx="3.10966" ry="1.87806" transform="matrix(0.640922 -0.767606 0.784062 0.620683 349.754 616.75)" fill="#797777"/>
</g>
<ellipse cx="180" cy="-54" rx="250" ry="430" fill="#E9B42C"/>
<path d="M281 44H80V148.571H281V44Z" fill="#221862"/>
<path d="M138.83 93.8081C138.83 94.3732 138.867 94.8381 138.939 95.2026C139.012 95.549 139.149 95.8224 139.35 96.0229C139.568 96.2235 139.869 96.3693 140.252 96.4604C140.635 96.5334 141.136 96.5789 141.756 96.5972V97.1714H133.006V96.5972C133.607 96.5425 134.072 96.4696 134.4 96.3784C134.747 96.2873 135.011 96.1323 135.193 95.9136C135.376 95.6948 135.485 95.394 135.522 95.0112C135.576 94.6102 135.604 94.0815 135.604 93.4253V79.9175C135.604 79.3524 135.576 78.9058 135.522 78.5776C135.467 78.2313 135.348 77.967 135.166 77.7847C134.984 77.5841 134.719 77.4383 134.373 77.3472C134.027 77.256 133.571 77.1831 133.006 77.1284V76.4995H141.236C142.786 76.4995 144.18 76.7183 145.42 77.1558C146.678 77.5933 147.626 78.1675 148.264 78.8784C149.048 79.8081 149.439 80.9019 149.439 82.1597C149.439 83.1987 149.166 84.1649 148.619 85.0581C148.091 85.9331 147.361 86.6258 146.432 87.1362C145.757 87.5008 144.982 87.7651 144.107 87.9292C143.251 88.0933 142.203 88.1753 140.963 88.1753C140.562 88.1753 140.206 88.1753 139.897 88.1753C139.605 88.1571 139.249 88.1388 138.83 88.1206V93.8081ZM138.83 86.8354C139.195 86.8719 139.495 86.8993 139.732 86.9175C139.988 86.9357 140.27 86.9448 140.58 86.9448C144.208 86.9448 146.022 85.4136 146.022 82.3511C146.022 80.7287 145.52 79.5438 144.518 78.7964C143.533 78.049 141.975 77.6753 139.842 77.6753C139.423 77.6753 139.149 77.7482 139.022 77.894C138.894 78.0216 138.83 78.3042 138.83 78.7417V86.8354ZM157.834 84.1011H154.662V93.0698C154.662 94.0724 154.79 94.7925 155.045 95.23C155.3 95.6493 155.71 95.8589 156.275 95.8589C156.64 95.8589 156.959 95.786 157.232 95.6401C157.506 95.4761 157.825 95.1844 158.189 94.7651L158.572 95.1479C157.588 96.6974 156.33 97.4722 154.799 97.4722C152.958 97.4722 152.037 96.1506 152.037 93.5073V84.1011H150.397C150.324 84.0828 150.287 84.019 150.287 83.9097C150.287 83.7274 150.46 83.5269 150.807 83.3081C151.627 82.8341 152.639 81.7222 153.842 79.9722C153.933 79.8263 154.033 79.6896 154.143 79.562C154.27 79.4162 154.38 79.2612 154.471 79.0972C154.544 79.0972 154.589 79.1245 154.607 79.1792C154.644 79.2339 154.662 79.3433 154.662 79.5073V83.1167H157.834V84.1011ZM158.791 84.5386C159.247 84.3745 159.666 84.2287 160.049 84.1011C160.432 83.9552 160.796 83.8185 161.143 83.6909C161.507 83.5451 161.863 83.4084 162.209 83.2808C162.574 83.1349 162.966 82.98 163.385 82.8159L163.576 82.8706V85.7417C163.959 85.1766 164.305 84.7118 164.615 84.3472C164.925 83.9644 165.226 83.6636 165.518 83.4448C165.809 83.2078 166.092 83.0438 166.365 82.9526C166.657 82.8615 166.967 82.8159 167.295 82.8159C167.824 82.8159 168.243 82.9709 168.553 83.2808C168.863 83.5724 169.018 83.9644 169.018 84.4565C169.018 84.9123 168.908 85.2677 168.689 85.5229C168.471 85.7599 168.179 85.8784 167.814 85.8784C167.614 85.8784 167.413 85.842 167.213 85.769C167.031 85.6779 166.812 85.5047 166.557 85.2495C166.393 85.1037 166.238 84.9943 166.092 84.9214C165.946 84.8485 165.828 84.812 165.736 84.812C165.518 84.812 165.281 84.9032 165.025 85.0854C164.788 85.2495 164.561 85.4591 164.342 85.7144C164.123 85.9696 163.941 86.243 163.795 86.5347C163.649 86.8263 163.576 87.0998 163.576 87.355V94.3823C163.576 94.8198 163.613 95.1844 163.686 95.4761C163.758 95.7677 163.895 96.0047 164.096 96.187C164.296 96.3511 164.57 96.4787 164.916 96.5698C165.262 96.661 165.7 96.7157 166.229 96.7339V97.1714H158.709V96.7339C159.201 96.6427 159.593 96.5516 159.885 96.4604C160.195 96.3511 160.423 96.2235 160.568 96.0776C160.732 95.9318 160.833 95.7404 160.869 95.5034C160.924 95.2482 160.951 94.9292 160.951 94.5464V86.7534C160.951 86.0607 160.869 85.5776 160.705 85.3042C160.541 85.0125 160.268 84.8667 159.885 84.8667C159.684 84.8667 159.502 84.8758 159.338 84.894C159.192 84.9123 159.01 84.9487 158.791 85.0034V84.5386ZM176.783 82.8159C177.786 82.8159 178.706 82.9891 179.545 83.3354C180.383 83.6818 181.103 84.174 181.705 84.812C182.325 85.4318 182.808 86.1701 183.154 87.0269C183.501 87.8836 183.674 88.8315 183.674 89.8706C183.674 90.9644 183.491 91.9761 183.127 92.9058C182.78 93.8172 182.297 94.6193 181.678 95.312C181.058 95.9865 180.32 96.5151 179.463 96.8979C178.624 97.2808 177.713 97.4722 176.729 97.4722C175.744 97.4722 174.833 97.2899 173.994 96.9253C173.156 96.5607 172.436 96.0503 171.834 95.394C171.232 94.7378 170.758 93.9631 170.412 93.0698C170.066 92.1766 169.893 91.2013 169.893 90.144C169.893 89.0685 170.057 88.0841 170.385 87.1909C170.731 86.2795 171.205 85.5047 171.807 84.8667C172.408 84.2104 173.128 83.7091 173.967 83.3628C174.824 82.9982 175.762 82.8159 176.783 82.8159ZM176.318 83.6909C175.225 83.6909 174.35 84.1375 173.693 85.0308C173.037 85.924 172.709 87.1089 172.709 88.5854C172.709 89.6974 172.828 90.7821 173.064 91.8394C173.301 92.8784 173.639 93.8081 174.076 94.6284C174.404 95.2664 174.842 95.7586 175.389 96.105C175.936 96.4513 176.528 96.6245 177.166 96.6245C178.314 96.6245 179.208 96.1232 179.846 95.1206C180.502 94.0998 180.83 92.7052 180.83 90.937C180.83 89.6063 180.639 88.3667 180.256 87.2183C179.873 86.0698 179.353 85.2039 178.697 84.6206C178.351 84.2925 177.986 84.0555 177.603 83.9097C177.221 83.7638 176.792 83.6909 176.318 83.6909ZM185.096 84.2104C185.952 83.9735 186.691 83.7547 187.31 83.5542C187.948 83.3537 188.641 83.1076 189.389 82.8159L189.635 82.8706V85.3589C190.163 84.8667 190.628 84.4565 191.029 84.1284C191.43 83.8003 191.795 83.5451 192.123 83.3628C192.469 83.1623 192.797 83.0256 193.107 82.9526C193.435 82.8615 193.782 82.8159 194.146 82.8159C195.295 82.8159 196.197 83.2261 196.853 84.0464C197.51 84.8667 197.838 86.0151 197.838 87.4917V94.6558C197.838 95.4032 197.965 95.9136 198.221 96.187C198.476 96.4604 198.977 96.6427 199.724 96.7339V97.1714H193.244V96.7339C193.627 96.6974 193.946 96.6336 194.201 96.5425C194.456 96.4513 194.657 96.3055 194.803 96.105C194.967 95.9045 195.076 95.6401 195.131 95.312C195.185 94.9839 195.213 94.5737 195.213 94.0815V87.5464C195.213 85.5412 194.456 84.5386 192.943 84.5386C192.688 84.5386 192.442 84.5659 192.205 84.6206C191.968 84.6753 191.722 84.7664 191.467 84.894C191.23 85.0216 190.965 85.2039 190.674 85.4409C190.4 85.6779 190.072 85.9696 189.689 86.3159V95.0933C189.689 95.6584 189.835 96.0594 190.127 96.2964C190.418 96.5151 190.965 96.661 191.767 96.7339V97.1714H185.15V96.7339C185.551 96.6974 185.87 96.6427 186.107 96.5698C186.363 96.4787 186.563 96.342 186.709 96.1597C186.855 95.9774 186.955 95.7495 187.01 95.4761C187.064 95.1844 187.092 94.8198 187.092 94.3823V86.6167C187.092 85.8511 187.01 85.3315 186.846 85.0581C186.682 84.7664 186.381 84.6206 185.943 84.6206C185.615 84.6206 185.333 84.6662 185.096 84.7573V84.2104ZM205.795 82.8979V93.9995C205.795 94.5646 205.813 95.0203 205.849 95.3667C205.904 95.6948 206.014 95.9591 206.178 96.1597C206.342 96.342 206.57 96.4696 206.861 96.5425C207.171 96.6154 207.59 96.6792 208.119 96.7339V97.1714H200.709V96.7339C201.256 96.6974 201.684 96.6427 201.994 96.5698C202.322 96.4787 202.568 96.342 202.732 96.1597C202.915 95.9591 203.033 95.6948 203.088 95.3667C203.142 95.0203 203.17 94.5646 203.17 93.9995V86.7534C203.17 86.0607 203.088 85.5776 202.924 85.3042C202.778 85.0125 202.523 84.8667 202.158 84.8667C202.012 84.8667 201.839 84.8758 201.639 84.894C201.456 84.9123 201.265 84.9396 201.064 84.9761L200.846 85.0034V84.5386L205.658 82.8159L205.795 82.8979ZM204.236 75.8433C204.674 75.8433 205.047 76.0073 205.357 76.3354C205.667 76.6453 205.822 77.019 205.822 77.4565C205.822 77.9123 205.667 78.2951 205.357 78.605C205.066 78.8966 204.683 79.0425 204.209 79.0425C203.753 79.0425 203.379 78.8966 203.088 78.605C202.796 78.2951 202.65 77.9123 202.65 77.4565C202.65 77.019 202.805 76.6453 203.115 76.3354C203.425 76.0073 203.799 75.8433 204.236 75.8433ZM221.764 92.5776C221.508 93.0698 221.271 93.4982 221.053 93.8628C220.852 94.2091 220.652 94.5282 220.451 94.8198C220.269 95.0933 220.077 95.3394 219.877 95.5581C219.676 95.7769 219.458 95.9774 219.221 96.1597C218.127 97.0347 216.915 97.4722 215.584 97.4722C214.727 97.4722 213.934 97.3081 213.205 96.98C212.476 96.6336 211.847 96.1506 211.318 95.5308C210.808 94.911 210.407 94.1818 210.115 93.3433C209.823 92.5047 209.678 91.575 209.678 90.5542C209.678 89.2599 209.896 88.075 210.334 86.9995C210.79 85.9058 211.437 85.0125 212.275 84.3198C212.913 83.7912 213.588 83.3993 214.299 83.144C215.028 82.8706 215.766 82.7339 216.514 82.7339C217.17 82.7339 217.79 82.825 218.373 83.0073C218.956 83.1714 219.467 83.3993 219.904 83.6909C220.342 83.9826 220.688 84.3289 220.943 84.73C221.198 85.1128 221.326 85.5229 221.326 85.9604C221.326 86.325 221.18 86.644 220.889 86.9175C220.615 87.1909 220.278 87.3276 219.877 87.3276C219.512 87.3276 219.202 87.1909 218.947 86.9175C218.692 86.644 218.501 86.2795 218.373 85.8237L218.182 85.1401C218.036 84.5568 217.826 84.1649 217.553 83.9644C217.297 83.7638 216.887 83.6636 216.322 83.6636C215.684 83.6636 215.101 83.8003 214.572 84.0737C214.062 84.3289 213.624 84.7026 213.26 85.1948C212.895 85.687 212.603 86.2703 212.385 86.9448C212.184 87.6193 212.084 88.3667 212.084 89.187C212.084 90.062 212.202 90.8732 212.439 91.6206C212.676 92.368 213.004 93.006 213.424 93.5347C213.843 94.0633 214.344 94.4826 214.928 94.7925C215.529 95.0841 216.185 95.23 216.896 95.23C217.79 95.23 218.564 95.0203 219.221 94.6011C219.877 94.1636 220.579 93.3979 221.326 92.3042L221.764 92.5776ZM232.099 87.3823C231.753 85.9787 231.325 84.9852 230.814 84.4019C230.304 83.8185 229.602 83.5269 228.709 83.5269C227.98 83.5269 227.396 83.7274 226.959 84.1284C226.521 84.5112 226.303 85.0216 226.303 85.6597C226.303 86.5529 226.749 87.2638 227.642 87.7925L231.006 89.7886C231.954 90.3537 232.628 90.9188 233.029 91.4839C233.43 92.0308 233.631 92.6961 233.631 93.48C233.631 94.0269 233.512 94.5464 233.275 95.0386C233.038 95.5308 232.719 95.9591 232.318 96.3237C231.935 96.6701 231.48 96.9526 230.951 97.1714C230.422 97.3719 229.857 97.4722 229.256 97.4722C228.928 97.4722 228.572 97.4448 228.189 97.3901C227.807 97.3537 227.387 97.2808 226.932 97.1714C226.567 97.0802 226.284 97.0164 226.084 96.98C225.883 96.9435 225.692 96.9253 225.51 96.9253C225.327 96.9253 225.191 96.9526 225.099 97.0073C225.008 97.062 224.908 97.1623 224.799 97.3081H224.389V92.4409H224.881C225.063 93.243 225.273 93.9175 225.51 94.4644C225.747 95.0112 226.02 95.4578 226.33 95.8042C226.64 96.1506 227.004 96.4058 227.424 96.5698C227.843 96.7157 228.317 96.7886 228.846 96.7886C229.666 96.7886 230.304 96.5881 230.76 96.187C231.234 95.786 231.471 95.2391 231.471 94.5464C231.471 93.6167 230.924 92.842 229.83 92.2222L228.025 91.1831C227.351 90.8003 226.777 90.4357 226.303 90.0894C225.847 89.743 225.473 89.3966 225.182 89.0503C224.89 88.6857 224.68 88.312 224.553 87.9292C224.425 87.5464 224.361 87.1362 224.361 86.6987C224.361 86.1336 224.461 85.6141 224.662 85.1401C224.881 84.6662 225.172 84.256 225.537 83.9097C225.92 83.5633 226.376 83.299 226.904 83.1167C227.433 82.9344 228.016 82.8433 228.654 82.8433C229.383 82.8433 230.085 82.9709 230.76 83.2261C231.142 83.3901 231.434 83.4722 231.635 83.4722C231.708 83.4722 231.762 83.4539 231.799 83.4175C231.835 83.381 231.926 83.299 232.072 83.1714L232.099 83.1167H232.482L232.592 87.3823H232.099Z" fill="white"/>
<path d="M109.585 70.3901C101.558 70.3901 95.0537 76.9526 95.0537 84.9214C95.0537 92.9487 101.558 99.4526 109.585 99.4526C117.554 99.4526 124.116 92.9487 124.116 84.9214C124.116 76.9526 117.554 70.3901 109.585 70.3901ZM108.882 84.5112C108.706 84.8042 108.413 84.9214 108.062 84.9214C107.827 84.9214 107.593 85.0386 107.417 85.2144L107.065 85.5659C106.89 85.7417 106.89 86.0347 107.065 86.2104L107.417 86.562C107.593 86.7378 107.71 86.9722 107.71 87.2065V87.7339C107.71 88.2612 107.241 88.6714 106.772 88.6714H106.362C106.011 88.6714 105.718 88.4956 105.542 88.2026L104.194 85.5073C104.077 85.2729 103.726 85.1558 103.491 85.3901L102.319 86.562C102.144 86.7378 101.909 86.7964 101.675 86.7964H97.9834C97.9248 86.2104 97.8662 85.5659 97.8662 84.9214C97.8662 78.4761 103.081 73.2026 109.585 73.2026C110.815 73.2026 112.046 73.437 113.159 73.7886L110.23 76.0737C109.937 76.2495 109.937 76.7183 110.288 76.894L110.933 77.187C111.226 77.3628 111.46 77.6558 111.46 78.0073V82.5776C111.46 82.8706 111.226 83.0464 110.991 83.0464H110.757C110.581 83.0464 110.464 82.9878 110.347 82.812C110.288 82.6362 109.995 82.6362 109.937 82.812L108.882 84.5112ZM118.96 90.9565C118.96 91.1909 118.843 91.4253 118.667 91.6011L118.081 92.187C117.905 92.3628 117.671 92.4214 117.437 92.4214H116.558C116.323 92.4214 116.03 92.3628 115.855 92.187L115.093 91.4253C114.858 91.1323 114.448 90.9565 114.038 90.9565C113.862 90.9565 113.745 90.9565 113.628 91.0151L112.397 91.3081C112.28 91.3081 112.222 91.3667 112.163 91.3667H111.577C111.284 91.3667 111.05 91.2495 110.874 91.0737L110.171 90.3706C110.112 90.312 110.054 90.1948 110.054 90.019V89.4331C110.054 89.2573 110.171 89.0815 110.347 89.0229L112.632 88.0854C112.749 88.0269 112.866 87.9683 112.983 87.9097L114.39 86.9136C114.448 86.855 114.565 86.855 114.624 86.855H115.327C115.562 86.855 115.737 86.9136 115.796 87.0894L116.089 87.8511C116.147 87.9683 116.206 88.0269 116.323 88.0269H116.558C116.616 88.0269 116.733 87.9683 116.733 87.8511L117.026 86.9722C117.026 86.9136 117.144 86.855 117.202 86.855H117.612C117.73 86.855 117.847 86.9136 117.847 87.0894V87.7925C117.847 87.9683 117.847 88.0854 117.964 88.144L118.667 88.8472C118.843 89.0229 118.901 89.2573 118.901 89.4917V90.9565H118.96Z" fill="white"/>
<path d="M219.103 71.0718L214.533 66.5014L215.627 65.4468C215.705 65.4858 215.822 65.5249 215.939 65.5249C216.603 65.5249 217.189 64.9389 217.189 64.2749C217.189 63.5718 216.603 63.0249 215.939 63.0249C215.236 63.0249 214.689 63.5718 214.689 64.2749C214.689 64.353 214.689 64.4702 214.728 64.5483L213.674 65.6421L209.103 61.0718C208.83 60.7983 208.322 60.8374 208.127 61.1889C206.486 64.2358 206.955 68.103 209.533 70.6421C212.072 73.2202 215.939 73.6889 218.986 72.0483C219.338 71.853 219.377 71.3452 219.103 71.0718ZM227.15 64.8608C226.838 58.4546 221.72 53.3374 215.353 53.0249C215.314 53.0249 215.314 52.9858 215.314 52.9858C214.963 52.9858 214.689 53.2983 214.689 53.6499V54.8608C214.689 55.2124 214.924 55.4858 215.275 55.4858C220.314 55.7593 224.377 59.8608 224.65 64.9389C224.689 65.2514 224.963 65.5249 225.275 65.5249H226.525C226.877 65.5249 227.189 65.2124 227.189 64.8608H227.15ZM223.4 64.8218C223.088 60.5249 219.65 57.0874 215.353 56.7749C215.314 56.7749 215.314 56.7358 215.314 56.7358C214.963 56.7358 214.689 57.0483 214.689 57.3999V58.6499C214.689 58.9624 214.924 59.2358 215.236 59.2749C218.244 59.5093 220.627 61.9311 220.9 64.9389C220.939 65.2514 221.213 65.5249 221.525 65.5249H222.775C223.127 65.5249 223.439 65.2124 223.439 64.8608C223.439 64.8608 223.4 64.8608 223.4 64.8218Z" fill="white"/>
<g filter="url(#filter43_d)">
<path d="M87.2432 107.986H273.757" stroke="white"/>
</g>
<path d="M109.404 131.811H108.774V133.463C109.456 133.613 109.88 133.795 110.048 134.009L109.908 135.171H106.128L105.988 134.009C106.11 133.851 106.366 133.697 106.758 133.547V127.149C106.376 127.009 106.119 126.851 105.988 126.673L106.128 125.511H109.838C111.136 125.53 112.102 125.768 112.736 126.225C113.38 126.673 113.702 127.476 113.702 128.633C113.702 130.752 112.27 131.811 109.404 131.811ZM109.614 127.037H108.774V130.285H109.712C110.347 130.285 110.818 130.159 111.126 129.907C111.444 129.655 111.602 129.221 111.602 128.605C111.602 127.98 111.43 127.565 111.084 127.359C110.748 127.145 110.258 127.037 109.614 127.037ZM116.942 126.407V128.171H118.944V129.347H116.942V132.889C116.942 133.188 116.984 133.407 117.068 133.547C117.152 133.678 117.353 133.743 117.67 133.743C117.988 133.743 118.328 133.673 118.692 133.533L119.112 134.625C118.394 134.989 117.656 135.171 116.9 135.171C116.154 135.171 115.645 135.013 115.374 134.695C115.113 134.369 114.982 133.897 114.982 133.281V129.347H114.352L114.198 128.493C114.348 128.316 114.656 128.139 115.122 127.961C115.234 127.196 115.5 126.678 115.92 126.407H116.942ZM123.803 129.893C123.094 129.893 122.604 130.029 122.333 130.299V133.505C123.089 133.645 123.607 133.841 123.887 134.093L123.747 135.171H119.743L119.603 134.093C119.734 133.916 119.991 133.757 120.373 133.617V129.725C120.047 129.613 119.79 129.455 119.603 129.249L119.743 128.171C120.257 128.059 120.719 128.003 121.129 128.003C121.54 128.003 121.881 128.013 122.151 128.031V128.913C122.366 128.661 122.641 128.456 122.977 128.297C123.313 128.129 123.617 128.045 123.887 128.045C124.167 128.045 124.359 128.069 124.461 128.115L124.419 129.935C124.233 129.907 124.027 129.893 123.803 129.893ZM128.265 135.283C127.164 135.283 126.347 134.989 125.815 134.401C125.283 133.813 125.017 132.927 125.017 131.741C125.017 130.547 125.311 129.637 125.899 129.011C126.497 128.377 127.351 128.059 128.461 128.059C129.572 128.059 130.393 128.339 130.925 128.899C131.467 129.459 131.737 130.337 131.737 131.531C131.737 132.717 131.434 133.641 130.827 134.303C130.23 134.957 129.376 135.283 128.265 135.283ZM127.033 131.615C127.033 133.109 127.481 133.855 128.377 133.855C128.835 133.855 129.171 133.687 129.385 133.351C129.609 133.006 129.721 132.446 129.721 131.671C129.721 130.215 129.264 129.487 128.349 129.487C127.901 129.487 127.57 129.651 127.355 129.977C127.141 130.295 127.033 130.841 127.033 131.615ZM132.595 128.171C133.108 128.059 133.57 128.003 133.981 128.003C134.392 128.003 134.732 128.013 135.003 128.031V128.731C135.236 128.535 135.544 128.377 135.927 128.255C136.319 128.125 136.692 128.059 137.047 128.059C137.962 128.059 138.601 128.274 138.965 128.703C139.338 129.133 139.525 129.875 139.525 130.929V133.617C139.889 133.757 140.146 133.916 140.295 134.093L140.155 135.171H136.935L136.795 134.093C136.926 133.916 137.182 133.757 137.565 133.617V130.845C137.565 130.341 137.481 130.005 137.313 129.837C137.154 129.66 136.865 129.571 136.445 129.571C136.025 129.571 135.605 129.721 135.185 130.019V133.617C135.549 133.757 135.806 133.916 135.955 134.093L135.815 135.171H132.595L132.455 134.093C132.586 133.916 132.842 133.757 133.225 133.617V129.725C132.898 129.613 132.642 129.455 132.455 129.249L132.595 128.171ZM140.949 128.171C141.472 128.05 141.957 127.989 142.405 127.989C142.853 127.989 143.231 128.003 143.539 128.031V133.617C143.903 133.757 144.16 133.916 144.309 134.093L144.169 135.171H140.949L140.809 134.093C140.94 133.916 141.197 133.757 141.579 133.617V129.725C141.253 129.613 140.996 129.455 140.809 129.249L140.949 128.171ZM142.531 127.205C141.757 127.205 141.369 126.855 141.369 126.155C141.369 125.446 141.757 125.091 142.531 125.091C143.315 125.091 143.707 125.446 143.707 126.155C143.707 126.855 143.315 127.205 142.531 127.205ZM148.159 129.487C147.3 129.487 146.871 130.225 146.871 131.699C146.871 132.446 146.988 132.969 147.221 133.267C147.464 133.557 147.809 133.701 148.257 133.701C148.966 133.701 149.592 133.636 150.133 133.505L150.553 134.583C150.254 134.779 149.853 134.947 149.349 135.087C148.845 135.218 148.355 135.283 147.879 135.283C145.863 135.283 144.855 134.117 144.855 131.783C144.855 130.421 145.205 129.441 145.905 128.843C146.53 128.321 147.291 128.059 148.187 128.059C149.083 128.059 149.83 128.227 150.427 128.563C150.436 128.657 150.441 128.745 150.441 128.829C150.441 129.361 150.32 129.865 150.077 130.341H148.845C148.714 130.108 148.635 129.828 148.607 129.501C148.495 129.492 148.346 129.487 148.159 129.487ZM153.972 129.319C153.356 129.319 153.048 129.501 153.048 129.865C153.048 130.211 153.37 130.467 154.014 130.635L155.12 130.929C156.258 131.228 156.828 131.886 156.828 132.903C156.828 133.603 156.58 134.177 156.086 134.625C155.6 135.064 154.821 135.283 153.748 135.283C152.684 135.283 151.853 135.134 151.256 134.835C151.246 134.733 151.242 134.63 151.242 134.527C151.242 134.014 151.344 133.552 151.55 133.141H152.712C152.833 133.365 152.912 133.599 152.95 133.841C153.136 133.897 153.402 133.925 153.748 133.925C154.569 133.925 154.98 133.692 154.98 133.225C154.98 133.076 154.924 132.955 154.812 132.861C154.7 132.759 154.48 132.661 154.154 132.567L153.048 132.245C152.478 132.087 152.035 131.853 151.718 131.545C151.4 131.228 151.242 130.766 151.242 130.159C151.242 129.543 151.489 129.039 151.984 128.647C152.478 128.255 153.183 128.059 154.098 128.059C155.022 128.059 155.801 128.195 156.436 128.465C156.445 128.559 156.45 128.652 156.45 128.745C156.45 129.231 156.347 129.679 156.142 130.089H154.994C154.872 129.875 154.793 129.651 154.756 129.417C154.494 129.352 154.233 129.319 153.972 129.319ZM165.729 125.441L168.515 133.519C168.907 133.659 169.182 133.823 169.341 134.009L169.201 135.171H165.925L165.785 134.009C165.897 133.86 166.121 133.72 166.457 133.589L166.079 132.413H163.279L162.929 133.547C163.255 133.678 163.498 133.832 163.657 134.009L163.517 135.171H160.325L160.185 134.009C160.353 133.795 160.665 133.617 161.123 133.477L163.811 125.441H165.729ZM164.567 127.401C164.567 127.971 164.45 128.633 164.217 129.389L163.671 131.125H165.673L165.141 129.417C164.926 128.764 164.805 128.171 164.777 127.639L164.763 127.401H164.567ZM176.301 125.525V127.527L175.419 127.639C175.297 127.546 175.181 127.35 175.069 127.051H173.389V133.547C173.762 133.697 174.019 133.851 174.159 134.009L174.019 135.171H170.743L170.603 134.009C170.724 133.851 170.981 133.697 171.373 133.547V127.051H169.693C169.581 127.35 169.464 127.546 169.343 127.639L168.461 127.527V125.525H176.301ZM185.95 129.893C185.95 129.52 185.982 128.941 186.048 128.157L186.076 127.821L185.936 127.807C185.721 128.601 185.534 129.231 185.376 129.697L183.514 135.171H181.652L179.692 129.697C179.514 129.277 179.356 128.755 179.216 128.129L179.132 127.807L178.992 127.821C179.076 128.652 179.118 129.343 179.118 129.893V133.575C179.463 133.706 179.72 133.879 179.888 134.093L179.748 135.171H177.004L176.863 134.093C177.032 133.879 177.288 133.706 177.634 133.575V127.107C177.251 126.967 176.985 126.795 176.835 126.589L176.975 125.511H180.168L182.212 131.153C182.473 131.769 182.641 132.334 182.716 132.847L182.758 133.085H182.954C182.991 132.516 183.159 131.872 183.458 131.153L185.404 125.511H188.54L188.68 126.589C188.53 126.795 188.264 126.967 187.882 127.107V133.519C188.246 133.659 188.502 133.823 188.652 134.009L188.512 135.171H185.32L185.18 134.023C185.329 133.837 185.586 133.673 185.95 133.533V129.893ZM197.021 127.037C196.704 126.953 196.373 126.911 196.027 126.911C195.682 126.911 195.402 127 195.187 127.177C194.982 127.345 194.879 127.588 194.879 127.905C194.879 128.213 194.959 128.456 195.117 128.633C195.276 128.811 195.589 128.965 196.055 129.095L197.301 129.459C197.973 129.655 198.505 129.963 198.897 130.383C199.299 130.794 199.499 131.401 199.499 132.203C199.499 133.155 199.154 133.907 198.463 134.457C197.782 135.008 196.933 135.283 195.915 135.283C195.355 135.283 194.777 135.213 194.179 135.073C193.591 134.924 193.101 134.719 192.709 134.457C192.709 134.401 192.709 134.294 192.709 134.135C192.709 133.977 192.742 133.706 192.807 133.323C192.873 132.941 192.966 132.628 193.087 132.385H194.417C194.567 132.675 194.655 133.062 194.683 133.547C195.01 133.687 195.388 133.757 195.817 133.757C196.256 133.757 196.615 133.655 196.895 133.449C197.175 133.244 197.315 132.95 197.315 132.567C197.315 132.39 197.301 132.245 197.273 132.133C197.245 132.012 197.157 131.886 197.007 131.755C196.867 131.615 196.662 131.503 196.391 131.419L194.949 130.999C193.484 130.579 192.751 129.646 192.751 128.199C192.751 127.35 193.059 126.673 193.675 126.169C194.291 125.656 195.094 125.399 196.083 125.399C197.082 125.399 198.057 125.623 199.009 126.071C199.009 126.127 199.009 126.235 199.009 126.393C199.009 126.552 198.977 126.823 198.911 127.205C198.846 127.588 198.753 127.901 198.631 128.143H197.301C197.143 127.919 197.049 127.551 197.021 127.037ZM203.518 135.283C202.398 135.283 201.554 134.985 200.984 134.387C200.424 133.79 200.144 132.922 200.144 131.783C200.144 131.093 200.242 130.5 200.438 130.005C200.634 129.501 200.9 129.114 201.236 128.843C201.89 128.321 202.65 128.059 203.518 128.059C204.386 128.059 205.049 128.283 205.506 128.731C205.973 129.17 206.206 129.963 206.206 131.111C206.206 131.783 205.875 132.119 205.212 132.119H202.174C202.212 132.707 202.361 133.123 202.622 133.365C202.893 133.608 203.318 133.729 203.896 133.729C204.214 133.729 204.517 133.692 204.806 133.617C205.096 133.543 205.306 133.468 205.436 133.393L205.632 133.281L206.052 134.401C205.996 134.467 205.912 134.551 205.8 134.653C205.698 134.747 205.427 134.877 204.988 135.045C204.559 135.204 204.069 135.283 203.518 135.283ZM204.4 130.873C204.419 130.743 204.428 130.584 204.428 130.397C204.428 130.211 204.354 130.015 204.204 129.809C204.055 129.595 203.794 129.487 203.42 129.487C203.056 129.487 202.776 129.599 202.58 129.823C202.384 130.047 202.254 130.425 202.188 130.957L204.4 130.873ZM211.126 129.893C210.417 129.893 209.927 130.029 209.656 130.299V133.505C210.412 133.645 210.93 133.841 211.21 134.093L211.07 135.171H207.066L206.926 134.093C207.057 133.916 207.313 133.757 207.696 133.617V129.725C207.369 129.613 207.113 129.455 206.926 129.249L207.066 128.171C207.579 128.059 208.041 128.003 208.452 128.003C208.863 128.003 209.203 128.013 209.474 128.031V128.913C209.689 128.661 209.964 128.456 210.3 128.297C210.636 128.129 210.939 128.045 211.21 128.045C211.49 128.045 211.681 128.069 211.784 128.115L211.742 129.935C211.555 129.907 211.35 129.893 211.126 129.893ZM216.862 135.255H215.322L213.026 129.795C212.559 129.646 212.246 129.464 212.088 129.249L212.228 128.171H215.448L215.588 129.249C215.466 129.399 215.266 129.534 214.986 129.655L215.742 131.769C215.91 132.208 216.031 132.642 216.106 133.071L216.134 133.267H216.33C216.404 132.801 216.535 132.311 216.722 131.797L217.464 129.725C217.118 129.595 216.876 129.436 216.736 129.249L216.876 128.171H219.956L220.096 129.249C219.928 129.464 219.62 129.646 219.172 129.795L216.862 135.255ZM220.725 128.171C221.248 128.05 221.733 127.989 222.181 127.989C222.629 127.989 223.007 128.003 223.315 128.031V133.617C223.679 133.757 223.936 133.916 224.085 134.093L223.945 135.171H220.725L220.585 134.093C220.716 133.916 220.972 133.757 221.355 133.617V129.725C221.028 129.613 220.772 129.455 220.585 129.249L220.725 128.171ZM222.307 127.205C221.532 127.205 221.145 126.855 221.145 126.155C221.145 125.446 221.532 125.091 222.307 125.091C223.091 125.091 223.483 125.446 223.483 126.155C223.483 126.855 223.091 127.205 222.307 127.205ZM227.935 129.487C227.076 129.487 226.647 130.225 226.647 131.699C226.647 132.446 226.763 132.969 226.997 133.267C227.239 133.557 227.585 133.701 228.033 133.701C228.742 133.701 229.367 133.636 229.909 133.505L230.329 134.583C230.03 134.779 229.629 134.947 229.125 135.087C228.621 135.218 228.131 135.283 227.655 135.283C225.639 135.283 224.631 134.117 224.631 131.783C224.631 130.421 224.981 129.441 225.681 128.843C226.306 128.321 227.067 128.059 227.963 128.059C228.859 128.059 229.605 128.227 230.203 128.563C230.212 128.657 230.217 128.745 230.217 128.829C230.217 129.361 230.095 129.865 229.853 130.341H228.621C228.49 130.108 228.411 129.828 228.383 129.501C228.271 129.492 228.121 129.487 227.935 129.487ZM234.308 135.283C233.188 135.283 232.343 134.985 231.774 134.387C231.214 133.79 230.934 132.922 230.934 131.783C230.934 131.093 231.032 130.5 231.228 130.005C231.424 129.501 231.69 129.114 232.026 128.843C232.679 128.321 233.44 128.059 234.308 128.059C235.176 128.059 235.838 128.283 236.296 128.731C236.762 129.17 236.996 129.963 236.996 131.111C236.996 131.783 236.664 132.119 236.002 132.119H232.964C233.001 132.707 233.15 133.123 233.412 133.365C233.682 133.608 234.107 133.729 234.686 133.729C235.003 133.729 235.306 133.692 235.596 133.617C235.885 133.543 236.095 133.468 236.226 133.393L236.422 133.281L236.842 134.401C236.786 134.467 236.702 134.551 236.59 134.653C236.487 134.747 236.216 134.877 235.778 135.045C235.348 135.204 234.858 135.283 234.308 135.283ZM235.19 130.873C235.208 130.743 235.218 130.584 235.218 130.397C235.218 130.211 235.143 130.015 234.994 129.809C234.844 129.595 234.583 129.487 234.21 129.487C233.846 129.487 233.566 129.599 233.37 129.823C233.174 130.047 233.043 130.425 232.978 130.957L235.19 130.873ZM240.515 129.319C239.899 129.319 239.591 129.501 239.591 129.865C239.591 130.211 239.913 130.467 240.557 130.635L241.663 130.929C242.802 131.228 243.371 131.886 243.371 132.903C243.371 133.603 243.124 134.177 242.629 134.625C242.144 135.064 241.364 135.283 240.291 135.283C239.227 135.283 238.396 135.134 237.799 134.835C237.79 134.733 237.785 134.63 237.785 134.527C237.785 134.014 237.888 133.552 238.093 133.141H239.255C239.376 133.365 239.456 133.599 239.493 133.841C239.68 133.897 239.946 133.925 240.291 133.925C241.112 133.925 241.523 133.692 241.523 133.225C241.523 133.076 241.467 132.955 241.355 132.861C241.243 132.759 241.024 132.661 240.697 132.567L239.591 132.245C239.022 132.087 238.578 131.853 238.261 131.545C237.944 131.228 237.785 130.766 237.785 130.159C237.785 129.543 238.032 129.039 238.527 128.647C239.022 128.255 239.726 128.059 240.641 128.059C241.565 128.059 242.344 128.195 242.979 128.465C242.988 128.559 242.993 128.652 242.993 128.745C242.993 129.231 242.89 129.679 242.685 130.089H241.537C241.416 129.875 241.336 129.651 241.299 129.417C241.038 129.352 240.776 129.319 240.515 129.319Z" fill="white"/>
<g filter="url(#filter44_dd)">
<path d="M227.309 225.693L212.086 225.531L212.032 228.778L211.682 249.884L211.493 261.248L211.372 268.554L158.491 267.99L156.888 267.973C156.368 267.155 155.334 265.034 155.367 263.085L155.879 232.239L156.149 216.004C156.981 214.118 158.967 210.35 160.249 210.364C161.531 210.378 199.233 211.321 217.924 211.791C221.791 210.533 225.873 215.665 227.431 218.387L227.309 225.693Z" fill="#FFF5F5"/>
</g>
<g filter="url(#filter45_dd)">
<path d="M154.556 472.37L155.338 425.288L209.089 425.861L208.307 472.943L154.556 472.37Z" fill="#1A1717"/>
<path d="M154.556 472.37L155.338 425.288L209.089 425.861L208.307 472.943L154.556 472.37Z" stroke="#3DFDDA" stroke-opacity="0.2"/>
</g>
<g filter="url(#filter46_dd)">
<path d="M234.109 308.792C234.153 306.195 230.433 304.964 228.568 304.674L227.767 304.665L227.713 307.912L225.739 378.526L225.28 406.126L229.287 406.169C231.209 406.189 232.251 404.577 232.532 403.768L234.109 308.792Z" fill="#D12237" fill-opacity="0.2"/>
<path d="M234.109 308.792C234.153 306.195 230.433 304.964 228.568 304.674L227.767 304.665L227.713 307.912L225.739 378.526L225.28 406.126L229.287 406.169C231.209 406.189 232.251 404.577 232.532 403.768L234.109 308.792Z" stroke="#3DFDDA" stroke-opacity="0.2"/>
</g>
<g filter="url(#filter47_dd)">
<path d="M227.479 421.976C227.414 424.573 223.084 426.762 220.927 427.532L221.071 421.85L221.296 412.922L222.178 378.021L223.059 311.451L224.556 252.2L223.898 246.503C224.432 246.513 226.133 246.872 228.664 248.22C231.194 249.569 231.731 253.694 231.684 255.588L227.479 421.976Z" fill="#EB2E72" fill-opacity="0.6"/>
<path d="M227.479 421.976C227.414 424.573 223.084 426.762 220.927 427.532L221.071 421.85L221.296 412.922L222.178 378.021L223.059 311.451L224.556 252.2L223.898 246.503C224.432 246.513 226.133 246.872 228.664 248.22C231.194 249.569 231.731 253.694 231.684 255.588L227.479 421.976Z" stroke="#D12237" stroke-opacity="0.2"/>
</g>
<g filter="url(#filter48_dd)">
<path d="M139.198 253.704C139.241 251.106 143.552 248.879 145.702 248.09L145.607 253.772L145.459 262.701L144.879 297.607L144.575 364.179L143.591 423.437L144.297 429.128C143.763 429.122 142.059 428.78 139.517 427.453C136.975 426.127 136.402 422.008 136.433 420.113L139.198 253.704Z" fill="#EB2E72" fill-opacity="0.6"/>
<path d="M139.198 253.704C139.241 251.106 143.552 248.879 145.702 248.09L145.607 253.772L145.459 262.701L144.879 297.607L144.575 364.179L143.591 423.437L144.297 429.128C143.763 429.122 142.059 428.78 139.517 427.453C136.975 426.127 136.402 422.008 136.433 420.113L139.198 253.704Z" stroke="#D12237" stroke-opacity="0.2"/>
</g>
<g filter="url(#filter49_dd)">
<path d="M143.454 249.052C144.169 244.595 152.342 244.629 156.34 245.203L156.035 263.536C155.993 266.087 159.169 267.821 160.763 268.37L210.439 268.9C213.644 268.934 214.498 265.754 214.524 264.16L214.829 245.827L222.04 245.904C225.245 245.938 226.536 248.609 226.781 249.94L226.543 264.288L226.318 277.838L225.378 334.431L223.882 424.501C223.839 427.052 220.588 429.781 218.968 430.827L208.552 430.716L208.605 427.527L155.725 426.964L155.672 430.152L153.268 430.126C152.195 430.381 149.091 430.72 145.256 430.041C141.42 429.362 140.559 423.347 140.607 420.425L140.925 401.295C141.47 352.404 142.739 253.509 143.454 249.052Z" fill="#180A50"/>
<path d="M143.454 249.052C144.169 244.595 152.342 244.629 156.34 245.203L156.035 263.536C155.993 266.087 159.169 267.821 160.763 268.37L210.439 268.9C213.644 268.934 214.498 265.754 214.524 264.16L214.829 245.827L222.04 245.904C225.245 245.938 226.536 248.609 226.781 249.94L226.543 264.288L226.318 277.838L225.378 334.431L223.882 424.501C223.839 427.052 220.588 429.781 218.968 430.827L208.552 430.716L208.605 427.527L155.725 426.964L155.672 430.152L153.268 430.126C152.195 430.381 149.091 430.72 145.256 430.041C141.42 429.362 140.559 423.347 140.607 420.425L140.925 401.295C141.47 352.404 142.739 253.509 143.454 249.052Z" stroke="#D12237" stroke-opacity="0.2"/>
</g>
<g filter="url(#filter50_dd)">
<rect width="74.1739" height="62.9404" rx="5" transform="matrix(0.993781 0.010597 -0.0167097 1.00598 148.347 288.311)" fill="#100F0F" fill-opacity="0.2"/>
</g>
<g filter="url(#filter51_dd)">
<rect width="67.724" height="48.4157" rx="2" transform="matrix(0.993781 0.010597 -0.0167097 1.00598 151.444 294.838)" fill="#1CD2D2"/>
</g>
<g filter="url(#filter52_dd)">
<rect width="16.1248" height="8.06928" rx="2" transform="matrix(0.993781 0.010597 -0.0167097 1.00598 150.561 362.369)" fill="#C4C4C4" fill-opacity="0.2"/>
</g>
<g filter="url(#filter53_dd)">
<rect width="16.1248" height="8.06928" rx="2" transform="matrix(0.993781 0.010597 -0.0167097 1.00598 150.317 376.981)" fill="#C4C4C4" fill-opacity="0.2"/>
</g>
<g filter="url(#filter54_dd)">
<rect width="16.1248" height="8.06928" rx="2" transform="matrix(0.993781 0.010597 -0.0167097 1.00598 150.074 391.592)" fill="#C4C4C4" fill-opacity="0.2"/>
</g>
<g filter="url(#filter55_dd)">
<rect width="16.1248" height="8.06928" rx="2" transform="matrix(0.993781 0.010597 -0.0167097 1.00598 149.832 406.204)" fill="#F30808"/>
</g>
<g filter="url(#filter56_dd)">
<rect width="16.1248" height="8.06928" rx="2" transform="matrix(0.993781 0.010597 -0.0167097 1.00598 173.869 406.461)" fill="#C4C4C4" fill-opacity="0.2"/>
</g>
<g filter="url(#filter57_dd)">
<rect width="16.1248" height="8.06928" rx="2" transform="matrix(0.993781 0.010597 -0.0167097 1.00598 199.508 406.733)" fill="#286214"/>
</g>
<g filter="url(#filter58_dd)">
<rect width="16.1248" height="8.06928" rx="2" transform="matrix(0.993781 0.010597 -0.0167097 1.00598 174.111 391.848)" fill="#C4C4C4" fill-opacity="0.2"/>
</g>
<g filter="url(#filter59_dd)">
<rect width="16.1248" height="8.06928" rx="2" transform="matrix(0.993781 0.010597 -0.0167097 1.00598 199.751 392.122)" fill="#C4C4C4" fill-opacity="0.2"/>
</g>
<g filter="url(#filter60_dd)">
<rect width="16.1248" height="8.06928" rx="2" transform="matrix(0.993781 0.010597 -0.0167097 1.00598 174.354 377.237)" fill="#C4C4C4" fill-opacity="0.2"/>
</g>
<g filter="url(#filter61_dd)">
<rect width="16.1248" height="8.06928" rx="2" transform="matrix(0.993781 0.010597 -0.0167097 1.00598 199.993 377.51)" fill="#C4C4C4" fill-opacity="0.2"/>
</g>
<g filter="url(#filter62_dd)">
<rect width="16.1248" height="8.06928" rx="2" transform="matrix(0.993781 0.010597 -0.0167097 1.00598 174.597 362.625)" fill="#C4C4C4" fill-opacity="0.2"/>
</g>
<g filter="url(#filter63_dd)">
<rect width="16.1248" height="8.06928" rx="2" transform="matrix(0.993781 0.010597 -0.0167097 1.00598 200.236 362.899)" fill="#C4C4C4" fill-opacity="0.2"/>
</g>
<g filter="url(#filter64_dd)">
<ellipse rx="4.03119" ry="4.03464" transform="matrix(0.993781 0.010597 -0.0167097 1.00598 164.125 462.377)" fill="#C4C732"/>
</g>
<g filter="url(#filter65_dd)">
<ellipse rx="4.03119" ry="4.03464" transform="matrix(0.993781 0.010597 -0.0167097 1.00598 164.179 459.13)" fill="#C78232"/>
</g>
<path d="M164.629 320.277L164.653 323.617L163.528 323.625L163.466 315.094L166.613 315.071C167.546 315.064 168.278 315.297 168.809 315.77C169.344 316.242 169.614 316.871 169.62 317.656C169.626 318.485 169.371 319.125 168.854 319.578C168.342 320.027 167.604 320.255 166.639 320.262L164.629 320.277ZM164.622 319.357L166.644 319.342C167.245 319.338 167.705 319.194 168.023 318.91C168.342 318.623 168.499 318.212 168.495 317.676C168.491 317.169 168.328 316.764 168.006 316.461C167.683 316.159 167.242 316.004 166.684 315.996L164.598 316.011L164.622 319.357ZM172.424 315.685L172.435 317.22L173.619 317.211L173.625 318.049L172.441 318.058L172.47 321.989C172.472 322.243 172.526 322.434 172.632 322.562C172.739 322.687 172.919 322.748 173.173 322.746C173.298 322.745 173.469 322.72 173.688 322.672L173.694 323.551C173.409 323.631 173.132 323.672 172.863 323.674C172.379 323.678 172.012 323.534 171.764 323.243C171.516 322.951 171.39 322.536 171.386 321.997L171.357 318.066L170.203 318.074L170.197 317.236L171.351 317.228L171.34 315.693L172.424 315.685ZM177.962 318.152C177.797 318.126 177.619 318.114 177.428 318.115C176.717 318.12 176.237 318.427 175.987 319.034L176.02 323.534L174.936 323.542L174.89 317.202L175.945 317.194L175.968 317.927C176.319 317.358 176.821 317.071 177.473 317.066C177.684 317.065 177.844 317.091 177.954 317.145L177.962 318.152ZM178.575 320.287C178.57 319.666 178.687 319.106 178.926 318.608C179.168 318.11 179.505 317.725 179.937 317.452C180.372 317.18 180.87 317.041 181.428 317.037C182.291 317.031 182.991 317.325 183.526 317.918C184.066 318.512 184.339 319.305 184.346 320.297L184.347 320.374C184.351 320.991 184.236 321.546 184.002 322.04C183.771 322.53 183.436 322.913 182.996 323.19C182.561 323.467 182.058 323.607 181.488 323.611C180.628 323.617 179.929 323.324 179.389 322.73C178.854 322.136 178.582 321.347 178.575 320.363L178.575 320.287ZM179.665 320.408C179.671 321.111 179.837 321.674 180.164 322.097C180.495 322.521 180.934 322.73 181.481 322.726C182.032 322.722 182.468 322.504 182.789 322.072C183.11 321.636 183.268 321.03 183.262 320.252C183.257 319.557 183.087 318.996 182.752 318.569C182.421 318.137 181.981 317.924 181.435 317.928C180.899 317.932 180.469 318.148 180.144 318.576C179.819 319.004 179.66 319.615 179.665 320.408ZM186.708 317.116L186.749 317.913C187.229 317.3 187.86 316.99 188.641 316.985C189.981 316.975 190.662 317.726 190.685 319.237L190.715 323.427L189.631 323.435L189.601 319.24C189.593 318.783 189.485 318.445 189.277 318.228C189.072 318.011 188.753 317.904 188.319 317.907C187.968 317.91 187.66 318.006 187.396 318.195C187.131 318.384 186.926 318.632 186.78 318.938L186.813 323.455L185.729 323.463L185.683 317.123L186.708 317.116ZM193.528 323.406L192.444 323.414L192.397 317.075L193.481 317.067L193.528 323.406ZM192.297 315.394C192.296 315.218 192.348 315.069 192.452 314.947C192.561 314.825 192.72 314.764 192.931 314.762C193.142 314.76 193.303 314.82 193.413 314.94C193.523 315.06 193.579 315.208 193.58 315.384C193.582 315.56 193.528 315.707 193.42 315.825C193.311 315.943 193.151 316.003 192.94 316.004C192.729 316.006 192.569 315.948 192.459 315.832C192.352 315.715 192.299 315.569 192.297 315.394ZM197.805 322.608C198.192 322.605 198.529 322.485 198.816 322.249C199.103 322.012 199.261 321.718 199.29 321.366L200.316 321.359C200.299 321.722 200.176 322.069 199.948 322.399C199.72 322.728 199.413 322.992 199.028 323.19C198.647 323.389 198.241 323.489 197.811 323.492C196.948 323.499 196.259 323.217 195.743 322.646C195.231 322.072 194.971 321.284 194.964 320.284L194.962 320.103C194.958 319.486 195.067 318.936 195.29 318.454C195.513 317.972 195.835 317.596 196.255 317.328C196.679 317.059 197.18 316.923 197.758 316.918C198.469 316.913 199.06 317.122 199.532 317.544C200.008 317.966 200.264 318.517 200.3 319.197L199.274 319.204C199.24 318.794 199.081 318.459 198.798 318.2C198.519 317.936 198.174 317.806 197.764 317.809C197.213 317.813 196.787 318.015 196.485 318.416C196.188 318.813 196.041 319.386 196.047 320.136L196.048 320.341C196.054 321.071 196.208 321.633 196.512 322.025C196.815 322.418 197.246 322.612 197.805 322.608ZM205.228 321.639C205.226 321.346 205.113 321.121 204.889 320.962C204.669 320.8 204.283 320.662 203.732 320.549C203.184 320.436 202.747 320.298 202.422 320.136C202.1 319.975 201.861 319.781 201.703 319.556C201.549 319.33 201.471 319.061 201.468 318.749C201.465 318.229 201.68 317.788 202.115 317.426C202.554 317.063 203.115 316.879 203.799 316.874C204.517 316.869 205.101 317.05 205.549 317.418C206.001 317.786 206.229 318.259 206.233 318.837L205.143 318.845C205.141 318.548 205.012 318.293 204.757 318.08C204.505 317.867 204.188 317.762 203.805 317.765C203.411 317.768 203.103 317.856 202.881 318.029C202.66 318.203 202.55 318.428 202.552 318.706C202.554 318.967 202.659 319.164 202.867 319.295C203.075 319.427 203.449 319.551 203.989 319.668C204.533 319.785 204.973 319.926 205.31 320.092C205.647 320.257 205.897 320.459 206.059 320.696C206.225 320.929 206.309 321.216 206.311 321.555C206.315 322.122 206.092 322.578 205.642 322.926C205.191 323.269 204.604 323.443 203.882 323.448C203.374 323.452 202.924 323.365 202.532 323.188C202.14 323.012 201.832 322.764 201.607 322.445C201.386 322.123 201.274 321.774 201.271 321.399L202.355 321.391C202.377 321.754 202.524 322.042 202.795 322.255C203.07 322.464 203.43 322.567 203.875 322.563C204.285 322.56 204.613 322.476 204.858 322.31C205.107 322.14 205.23 321.917 205.228 321.639Z" fill="white"/>
</g>
<defs>
<filter id="filter1_d" x="-13.543" y="577.253" width="72.2926" height="76.9456" filterUnits="userSpaceOnUse" color-interpolation-filters="sRGB">
<feFlood flood-opacity="0" result="BackgroundImageFix"/>
<feColorMatrix in="SourceAlpha" type="matrix" values="0 0 0 0 0 0 0 0 0 0 0 0 0 0 0 0 0 0 127 0"/>
<feOffset dy="4"/>
<feGaussianBlur stdDeviation="2"/>
<feColorMatrix type="matrix" values="0 0 0 0 0 0 0 0 0 0 0 0 0 0 0 0 0 0 0.25 0"/>
<feBlend mode="normal" in2="BackgroundImageFix" result="effect1_dropShadow"/>
<feBlend mode="normal" in="SourceGraphic" in2="effect1_dropShadow" result="shape"/>
</filter>
<filter id="filter2_d" x="26.6934" y="573.075" width="36.8029" height="35.6741" filterUnits="userSpaceOnUse" color-interpolation-filters="sRGB">
<feFlood flood-opacity="0" result="BackgroundImageFix"/>
<feColorMatrix in="SourceAlpha" type="matrix" values="0 0 0 0 0 0 0 0 0 0 0 0 0 0 0 0 0 0 127 0"/>
<feOffset dy="4"/>
<feGaussianBlur stdDeviation="2"/>
<feColorMatrix type="matrix" values="0 0 0 0 0 0 0 0 0 0 0 0 0 0 0 0 0 0 0.25 0"/>
<feBlend mode="normal" in2="BackgroundImageFix" result="effect1_dropShadow"/>
<feBlend mode="normal" in="SourceGraphic" in2="effect1_dropShadow" result="shape"/>
</filter>
<filter id="filter3_d" x="-12.2197" y="579.277" width="77.5148" height="73.3665" filterUnits="userSpaceOnUse" color-interpolation-filters="sRGB">
<feFlood flood-opacity="0" result="BackgroundImageFix"/>
<feColorMatrix in="SourceAlpha" type="matrix" values="0 0 0 0 0 0 0 0 0 0 0 0 0 0 0 0 0 0 127 0"/>
<feOffset dy="4"/>
<feGaussianBlur stdDeviation="2"/>
<feColorMatrix type="matrix" values="0 0 0 0 0 0 0 0 0 0 0 0 0 0 0 0 0 0 0.25 0"/>
<feBlend mode="normal" in2="BackgroundImageFix" result="effect1_dropShadow"/>
<feBlend mode="normal" in="SourceGraphic" in2="effect1_dropShadow" result="shape"/>
</filter>
<filter id="filter4_d" x="9.2168" y="587.138" width="40.2003" height="41.095" filterUnits="userSpaceOnUse" color-interpolation-filters="sRGB">
<feFlood flood-opacity="0" result="BackgroundImageFix"/>
<feColorMatrix in="SourceAlpha" type="matrix" values="0 0 0 0 0 0 0 0 0 0 0 0 0 0 0 0 0 0 127 0"/>
<feOffset dy="4"/>
<feGaussianBlur stdDeviation="2"/>
<feColorMatrix type="matrix" values="0 0 0 0 0 0 0 0 0 0 0 0 0 0 0 0 0 0 0.25 0"/>
<feBlend mode="normal" in2="BackgroundImageFix" result="effect1_dropShadow"/>
<feBlend mode="normal" in="SourceGraphic" in2="effect1_dropShadow" result="shape"/>
</filter>
<filter id="filter5_d" x="11.0508" y="589.302" width="36.6047" height="36.8521" filterUnits="userSpaceOnUse" color-interpolation-filters="sRGB">
<feFlood flood-opacity="0" result="BackgroundImageFix"/>
<feColorMatrix in="SourceAlpha" type="matrix" values="0 0 0 0 0 0 0 0 0 0 0 0 0 0 0 0 0 0 127 0"/>
<feOffset dy="4"/>
<feGaussianBlur stdDeviation="2"/>
<feColorMatrix type="matrix" values="0 0 0 0 0 0 0 0 0 0 0 0 0 0 0 0 0 0 0.25 0"/>
<feBlend mode="normal" in2="BackgroundImageFix" result="effect1_dropShadow"/>
<feBlend mode="normal" in="SourceGraphic" in2="effect1_dropShadow" result="shape"/>
</filter>
<filter id="filter6_d" x="6.73535" y="607.834" width="13.2134" height="13.0621" filterUnits="userSpaceOnUse" color-interpolation-filters="sRGB">
<feFlood flood-opacity="0" result="BackgroundImageFix"/>
<feColorMatrix in="SourceAlpha" type="matrix" values="0 0 0 0 0 0 0 0 0 0 0 0 0 0 0 0 0 0 127 0"/>
<feOffset dy="4"/>
<feGaussianBlur stdDeviation="2"/>
<feColorMatrix type="matrix" values="0 0 0 0 0 0 0 0 0 0 0 0 0 0 0 0 0 0 0.25 0"/>
<feBlend mode="normal" in2="BackgroundImageFix" result="effect1_dropShadow"/>
<feBlend mode="normal" in="SourceGraphic" in2="effect1_dropShadow" result="shape"/>
</filter>
<filter id="filter7_d" x="12.5869" y="613.166" width="13.2134" height="13.0621" filterUnits="userSpaceOnUse" color-interpolation-filters="sRGB">
<feFlood flood-opacity="0" result="BackgroundImageFix"/>
<feColorMatrix in="SourceAlpha" type="matrix" values="0 0 0 0 0 0 0 0 0 0 0 0 0 0 0 0 0 0 127 0"/>
<feOffset dy="4"/>
<feGaussianBlur stdDeviation="2"/>
<feColorMatrix type="matrix" values="0 0 0 0 0 0 0 0 0 0 0 0 0 0 0 0 0 0 0.25 0"/>
<feBlend mode="normal" in2="BackgroundImageFix" result="effect1_dropShadow"/>
<feBlend mode="normal" in="SourceGraphic" in2="effect1_dropShadow" result="shape"/>
</filter>
<filter id="filter8_d" x="18.4375" y="618.497" width="13.2134" height="13.0621" filterUnits="userSpaceOnUse" color-interpolation-filters="sRGB">
<feFlood flood-opacity="0" result="BackgroundImageFix"/>
<feColorMatrix in="SourceAlpha" type="matrix" values="0 0 0 0 0 0 0 0 0 0 0 0 0 0 0 0 0 0 127 0"/>
<feOffset dy="4"/>
<feGaussianBlur stdDeviation="2"/>
<feColorMatrix type="matrix" values="0 0 0 0 0 0 0 0 0 0 0 0 0 0 0 0 0 0 0.25 0"/>
<feBlend mode="normal" in2="BackgroundImageFix" result="effect1_dropShadow"/>
<feBlend mode="normal" in="SourceGraphic" in2="effect1_dropShadow" result="shape"/>
</filter>
<filter id="filter9_d" x="15.2793" y="622.15" width="13.2134" height="13.0621" filterUnits="userSpaceOnUse" color-interpolation-filters="sRGB">
<feFlood flood-opacity="0" result="BackgroundImageFix"/>
<feColorMatrix in="SourceAlpha" type="matrix" values="0 0 0 0 0 0 0 0 0 0 0 0 0 0 0 0 0 0 127 0"/>
<feOffset dy="4"/>
<feGaussianBlur stdDeviation="2"/>
<feColorMatrix type="matrix" values="0 0 0 0 0 0 0 0 0 0 0 0 0 0 0 0 0 0 0.25 0"/>
<feBlend mode="normal" in2="BackgroundImageFix" result="effect1_dropShadow"/>
<feBlend mode="normal" in="SourceGraphic" in2="effect1_dropShadow" result="shape"/>
</filter>
<filter id="filter10_d" x="0.770508" y="614.735" width="13.2134" height="13.0621" filterUnits="userSpaceOnUse" color-interpolation-filters="sRGB">
<feFlood flood-opacity="0" result="BackgroundImageFix"/>
<feColorMatrix in="SourceAlpha" type="matrix" values="0 0 0 0 0 0 0 0 0 0 0 0 0 0 0 0 0 0 127 0"/>
<feOffset dy="4"/>
<feGaussianBlur stdDeviation="2"/>
<feColorMatrix type="matrix" values="0 0 0 0 0 0 0 0 0 0 0 0 0 0 0 0 0 0 0.25 0"/>
<feBlend mode="normal" in2="BackgroundImageFix" result="effect1_dropShadow"/>
<feBlend mode="normal" in="SourceGraphic" in2="effect1_dropShadow" result="shape"/>
</filter>
<filter id="filter11_d" x="3.57715" y="611.488" width="13.2134" height="13.0621" filterUnits="userSpaceOnUse" color-interpolation-filters="sRGB">
<feFlood flood-opacity="0" result="BackgroundImageFix"/>
<feColorMatrix in="SourceAlpha" type="matrix" values="0 0 0 0 0 0 0 0 0 0 0 0 0 0 0 0 0 0 127 0"/>
<feOffset dy="4"/>
<feGaussianBlur stdDeviation="2"/>
<feColorMatrix type="matrix" values="0 0 0 0 0 0 0 0 0 0 0 0 0 0 0 0 0 0 0.25 0"/>
<feBlend mode="normal" in2="BackgroundImageFix" result="effect1_dropShadow"/>
<feBlend mode="normal" in="SourceGraphic" in2="effect1_dropShadow" result="shape"/>
</filter>
<filter id="filter12_d" x="9.42871" y="616.819" width="13.2134" height="13.0621" filterUnits="userSpaceOnUse" color-interpolation-filters="sRGB">
<feFlood flood-opacity="0" result="BackgroundImageFix"/>
<feColorMatrix in="SourceAlpha" type="matrix" values="0 0 0 0 0 0 0 0 0 0 0 0 0 0 0 0 0 0 127 0"/>
<feOffset dy="4"/>
<feGaussianBlur stdDeviation="2"/>
<feColorMatrix type="matrix" values="0 0 0 0 0 0 0 0 0 0 0 0 0 0 0 0 0 0 0.25 0"/>
<feBlend mode="normal" in2="BackgroundImageFix" result="effect1_dropShadow"/>
<feBlend mode="normal" in="SourceGraphic" in2="effect1_dropShadow" result="shape"/>
</filter>
<filter id="filter13_d" x="6.62109" y="620.066" width="13.2134" height="13.0621" filterUnits="userSpaceOnUse" color-interpolation-filters="sRGB">
<feFlood flood-opacity="0" result="BackgroundImageFix"/>
<feColorMatrix in="SourceAlpha" type="matrix" values="0 0 0 0 0 0 0 0 0 0 0 0 0 0 0 0 0 0 127 0"/>
<feOffset dy="4"/>
<feGaussianBlur stdDeviation="2"/>
<feColorMatrix type="matrix" values="0 0 0 0 0 0 0 0 0 0 0 0 0 0 0 0 0 0 0.25 0"/>
<feBlend mode="normal" in2="BackgroundImageFix" result="effect1_dropShadow"/>
<feBlend mode="normal" in="SourceGraphic" in2="effect1_dropShadow" result="shape"/>
</filter>
<filter id="filter14_d" x="12.4727" y="625.397" width="13.2134" height="13.0621" filterUnits="userSpaceOnUse" color-interpolation-filters="sRGB">
<feFlood flood-opacity="0" result="BackgroundImageFix"/>
<feColorMatrix in="SourceAlpha" type="matrix" values="0 0 0 0 0 0 0 0 0 0 0 0 0 0 0 0 0 0 127 0"/>
<feOffset dy="4"/>
<feGaussianBlur stdDeviation="2"/>
<feColorMatrix type="matrix" values="0 0 0 0 0 0 0 0 0 0 0 0 0 0 0 0 0 0 0.25 0"/>
<feBlend mode="normal" in2="BackgroundImageFix" result="effect1_dropShadow"/>
<feBlend mode="normal" in="SourceGraphic" in2="effect1_dropShadow" result="shape"/>
</filter>
<filter id="filter15_d" x="3.81348" y="623.314" width="13.2134" height="13.0621" filterUnits="userSpaceOnUse" color-interpolation-filters="sRGB">
<feFlood flood-opacity="0" result="BackgroundImageFix"/>
<feColorMatrix in="SourceAlpha" type="matrix" values="0 0 0 0 0 0 0 0 0 0 0 0 0 0 0 0 0 0 127 0"/>
<feOffset dy="4"/>
<feGaussianBlur stdDeviation="2"/>
<feColorMatrix type="matrix" values="0 0 0 0 0 0 0 0 0 0 0 0 0 0 0 0 0 0 0.25 0"/>
<feBlend mode="normal" in2="BackgroundImageFix" result="effect1_dropShadow"/>
<feBlend mode="normal" in="SourceGraphic" in2="effect1_dropShadow" result="shape"/>
</filter>
<filter id="filter16_d" x="-2.03711" y="617.983" width="13.2134" height="13.0621" filterUnits="userSpaceOnUse" color-interpolation-filters="sRGB">
<feFlood flood-opacity="0" result="BackgroundImageFix"/>
<feColorMatrix in="SourceAlpha" type="matrix" values="0 0 0 0 0 0 0 0 0 0 0 0 0 0 0 0 0 0 127 0"/>
<feOffset dy="4"/>
<feGaussianBlur stdDeviation="2"/>
<feColorMatrix type="matrix" values="0 0 0 0 0 0 0 0 0 0 0 0 0 0 0 0 0 0 0.25 0"/>
<feBlend mode="normal" in2="BackgroundImageFix" result="effect1_dropShadow"/>
<feBlend mode="normal" in="SourceGraphic" in2="effect1_dropShadow" result="shape"/>
</filter>
<filter id="filter17_d" x="-5.19531" y="621.636" width="13.2134" height="13.0621" filterUnits="userSpaceOnUse" color-interpolation-filters="sRGB">
<feFlood flood-opacity="0" result="BackgroundImageFix"/>
<feColorMatrix in="SourceAlpha" type="matrix" values="0 0 0 0 0 0 0 0 0 0 0 0 0 0 0 0 0 0 127 0"/>
<feOffset dy="4"/>
<feGaussianBlur stdDeviation="2"/>
<feColorMatrix type="matrix" values="0 0 0 0 0 0 0 0 0 0 0 0 0 0 0 0 0 0 0.25 0"/>
<feBlend mode="normal" in2="BackgroundImageFix" result="effect1_dropShadow"/>
<feBlend mode="normal" in="SourceGraphic" in2="effect1_dropShadow" result="shape"/>
</filter>
<filter id="filter18_d" x="0.655273" y="626.967" width="13.2134" height="13.0621" filterUnits="userSpaceOnUse" color-interpolation-filters="sRGB">
<feFlood flood-opacity="0" result="BackgroundImageFix"/>
<feColorMatrix in="SourceAlpha" type="matrix" values="0 0 0 0 0 0 0 0 0 0 0 0 0 0 0 0 0 0 127 0"/>
<feOffset dy="4"/>
<feGaussianBlur stdDeviation="2"/>
<feColorMatrix type="matrix" values="0 0 0 0 0 0 0 0 0 0 0 0 0 0 0 0 0 0 0.25 0"/>
<feBlend mode="normal" in2="BackgroundImageFix" result="effect1_dropShadow"/>
<feBlend mode="normal" in="SourceGraphic" in2="effect1_dropShadow" result="shape"/>
</filter>
<filter id="filter19_d" x="6.50684" y="632.298" width="13.2134" height="13.0621" filterUnits="userSpaceOnUse" color-interpolation-filters="sRGB">
<feFlood flood-opacity="0" result="BackgroundImageFix"/>
<feColorMatrix in="SourceAlpha" type="matrix" values="0 0 0 0 0 0 0 0 0 0 0 0 0 0 0 0 0 0 127 0"/>
<feOffset dy="4"/>
<feGaussianBlur stdDeviation="2"/>
<feColorMatrix type="matrix" values="0 0 0 0 0 0 0 0 0 0 0 0 0 0 0 0 0 0 0.25 0"/>
<feBlend mode="normal" in2="BackgroundImageFix" result="effect1_dropShadow"/>
<feBlend mode="normal" in="SourceGraphic" in2="effect1_dropShadow" result="shape"/>
</filter>
<filter id="filter20_d" x="9.66504" y="628.645" width="13.2134" height="13.0621" filterUnits="userSpaceOnUse" color-interpolation-filters="sRGB">
<feFlood flood-opacity="0" result="BackgroundImageFix"/>
<feColorMatrix in="SourceAlpha" type="matrix" values="0 0 0 0 0 0 0 0 0 0 0 0 0 0 0 0 0 0 127 0"/>
<feOffset dy="4"/>
<feGaussianBlur stdDeviation="2"/>
<feColorMatrix type="matrix" values="0 0 0 0 0 0 0 0 0 0 0 0 0 0 0 0 0 0 0.25 0"/>
<feBlend mode="normal" in2="BackgroundImageFix" result="effect1_dropShadow"/>
<feBlend mode="normal" in="SourceGraphic" in2="effect1_dropShadow" result="shape"/>
</filter>
<filter id="filter21_d" x="344.268" y="637.43" width="20.6314" height="18.2596" filterUnits="userSpaceOnUse" color-interpolation-filters="sRGB">
<feFlood flood-opacity="0" result="BackgroundImageFix"/>
<feColorMatrix in="SourceAlpha" type="matrix" values="0 0 0 0 0 0 0 0 0 0 0 0 0 0 0 0 0 0 127 0"/>
<feOffset dy="4"/>
<feGaussianBlur stdDeviation="2"/>
<feColorMatrix type="matrix" values="0 0 0 0 0 0 0 0 0 0 0 0 0 0 0 0 0 0 0.25 0"/>
<feBlend mode="normal" in2="BackgroundImageFix" result="effect1_dropShadow"/>
<feBlend mode="normal" in="SourceGraphic" in2="effect1_dropShadow" result="shape"/>
</filter>
<filter id="filter22_d" x="355.863" y="623.542" width="21.0234" height="32.0741" filterUnits="userSpaceOnUse" color-interpolation-filters="sRGB">
<feFlood flood-opacity="0" result="BackgroundImageFix"/>
<feColorMatrix in="SourceAlpha" type="matrix" values="0 0 0 0 0 0 0 0 0 0 0 0 0 0 0 0 0 0 127 0"/>
<feOffset dy="4"/>
<feGaussianBlur stdDeviation="2"/>
<feColorMatrix type="matrix" values="0 0 0 0 0 0 0 0 0 0 0 0 0 0 0 0 0 0 0.25 0"/>
<feBlend mode="normal" in2="BackgroundImageFix" result="effect1_dropShadow"/>
<feBlend mode="normal" in="SourceGraphic" in2="effect1_dropShadow" result="shape"/>
</filter>
<filter id="filter23_d" x="291.301" y="579.634" width="77.4222" height="71.2728" filterUnits="userSpaceOnUse" color-interpolation-filters="sRGB">
<feFlood flood-opacity="0" result="BackgroundImageFix"/>
<feColorMatrix in="SourceAlpha" type="matrix" values="0 0 0 0 0 0 0 0 0 0 0 0 0 0 0 0 0 0 127 0"/>
<feOffset dy="4"/>
<feGaussianBlur stdDeviation="2"/>
<feColorMatrix type="matrix" values="0 0 0 0 0 0 0 0 0 0 0 0 0 0 0 0 0 0 0.25 0"/>
<feBlend mode="normal" in2="BackgroundImageFix" result="effect1_dropShadow"/>
<feBlend mode="normal" in="SourceGraphic" in2="effect1_dropShadow" result="shape"/>
</filter>
<filter id="filter24_d" x="286.519" y="575.485" width="35.5586" height="36.7697" filterUnits="userSpaceOnUse" color-interpolation-filters="sRGB">
<feFlood flood-opacity="0" result="BackgroundImageFix"/>
<feColorMatrix in="SourceAlpha" type="matrix" values="0 0 0 0 0 0 0 0 0 0 0 0 0 0 0 0 0 0 127 0"/>
<feOffset dy="4"/>
<feGaussianBlur stdDeviation="2"/>
<feColorMatrix type="matrix" values="0 0 0 0 0 0 0 0 0 0 0 0 0 0 0 0 0 0 0.25 0"/>
<feBlend mode="normal" in2="BackgroundImageFix" result="effect1_dropShadow"/>
<feBlend mode="normal" in="SourceGraphic" in2="effect1_dropShadow" result="shape"/>
</filter>
<filter id="filter25_d" x="293.284" y="573.53" width="74.0942" height="75.9292" filterUnits="userSpaceOnUse" color-interpolation-filters="sRGB">
<feFlood flood-opacity="0" result="BackgroundImageFix"/>
<feColorMatrix in="SourceAlpha" type="matrix" values="0 0 0 0 0 0 0 0 0 0 0 0 0 0 0 0 0 0 127 0"/>
<feOffset dy="4"/>
<feGaussianBlur stdDeviation="2"/>
<feColorMatrix type="matrix" values="0 0 0 0 0 0 0 0 0 0 0 0 0 0 0 0 0 0 0.25 0"/>
<feBlend mode="normal" in2="BackgroundImageFix" result="effect1_dropShadow"/>
<feBlend mode="normal" in="SourceGraphic" in2="effect1_dropShadow" result="shape"/>
</filter>
<filter id="filter26_d" x="301.307" y="588.777" width="40.8502" height="40.2413" filterUnits="userSpaceOnUse" color-interpolation-filters="sRGB">
<feFlood flood-opacity="0" result="BackgroundImageFix"/>
<feColorMatrix in="SourceAlpha" type="matrix" values="0 0 0 0 0 0 0 0 0 0 0 0 0 0 0 0 0 0 127 0"/>
<feOffset dy="4"/>
<feGaussianBlur stdDeviation="2"/>
<feColorMatrix type="matrix" values="0 0 0 0 0 0 0 0 0 0 0 0 0 0 0 0 0 0 0.25 0"/>
<feBlend mode="normal" in2="BackgroundImageFix" result="effect1_dropShadow"/>
<feBlend mode="normal" in="SourceGraphic" in2="effect1_dropShadow" result="shape"/>
</filter>
<filter id="filter27_d" x="303.48" y="590.522" width="36.5706" height="36.6893" filterUnits="userSpaceOnUse" color-interpolation-filters="sRGB">
<feFlood flood-opacity="0" result="BackgroundImageFix"/>
<feColorMatrix in="SourceAlpha" type="matrix" values="0 0 0 0 0 0 0 0 0 0 0 0 0 0 0 0 0 0 127 0"/>
<feOffset dy="4"/>
<feGaussianBlur stdDeviation="2"/>
<feColorMatrix type="matrix" values="0 0 0 0 0 0 0 0 0 0 0 0 0 0 0 0 0 0 0.25 0"/>
<feBlend mode="normal" in2="BackgroundImageFix" result="effect1_dropShadow"/>
<feBlend mode="normal" in="SourceGraphic" in2="effect1_dropShadow" result="shape"/>
</filter>
<filter id="filter28_d" x="322.611" y="617.919" width="12.9563" height="13.314" filterUnits="userSpaceOnUse" color-interpolation-filters="sRGB">
<feFlood flood-opacity="0" result="BackgroundImageFix"/>
<feColorMatrix in="SourceAlpha" type="matrix" values="0 0 0 0 0 0 0 0 0 0 0 0 0 0 0 0 0 0 127 0"/>
<feOffset dy="4"/>
<feGaussianBlur stdDeviation="2"/>
<feColorMatrix type="matrix" values="0 0 0 0 0 0 0 0 0 0 0 0 0 0 0 0 0 0 0.25 0"/>
<feBlend mode="normal" in2="BackgroundImageFix" result="effect1_dropShadow"/>
<feBlend mode="normal" in="SourceGraphic" in2="effect1_dropShadow" result="shape"/>
</filter>
<filter id="filter29_d" x="327.685" y="611.843" width="12.9563" height="13.314" filterUnits="userSpaceOnUse" color-interpolation-filters="sRGB">
<feFlood flood-opacity="0" result="BackgroundImageFix"/>
<feColorMatrix in="SourceAlpha" type="matrix" values="0 0 0 0 0 0 0 0 0 0 0 0 0 0 0 0 0 0 127 0"/>
<feOffset dy="4"/>
<feGaussianBlur stdDeviation="2"/>
<feColorMatrix type="matrix" values="0 0 0 0 0 0 0 0 0 0 0 0 0 0 0 0 0 0 0.25 0"/>
<feBlend mode="normal" in2="BackgroundImageFix" result="effect1_dropShadow"/>
<feBlend mode="normal" in="SourceGraphic" in2="effect1_dropShadow" result="shape"/>
</filter>
<filter id="filter30_d" x="332.758" y="605.767" width="12.9563" height="13.314" filterUnits="userSpaceOnUse" color-interpolation-filters="sRGB">
<feFlood flood-opacity="0" result="BackgroundImageFix"/>
<feColorMatrix in="SourceAlpha" type="matrix" values="0 0 0 0 0 0 0 0 0 0 0 0 0 0 0 0 0 0 127 0"/>
<feOffset dy="4"/>
<feGaussianBlur stdDeviation="2"/>
<feColorMatrix type="matrix" values="0 0 0 0 0 0 0 0 0 0 0 0 0 0 0 0 0 0 0.25 0"/>
<feBlend mode="normal" in2="BackgroundImageFix" result="effect1_dropShadow"/>
<feBlend mode="normal" in="SourceGraphic" in2="effect1_dropShadow" result="shape"/>
</filter>
<filter id="filter31_d" x="336.544" y="608.765" width="12.9563" height="13.314" filterUnits="userSpaceOnUse" color-interpolation-filters="sRGB">
<feFlood flood-opacity="0" result="BackgroundImageFix"/>
<feColorMatrix in="SourceAlpha" type="matrix" values="0 0 0 0 0 0 0 0 0 0 0 0 0 0 0 0 0 0 127 0"/>
<feOffset dy="4"/>
<feGaussianBlur stdDeviation="2"/>
<feColorMatrix type="matrix" values="0 0 0 0 0 0 0 0 0 0 0 0 0 0 0 0 0 0 0.25 0"/>
<feBlend mode="normal" in2="BackgroundImageFix" result="effect1_dropShadow"/>
<feBlend mode="normal" in="SourceGraphic" in2="effect1_dropShadow" result="shape"/>
</filter>
<filter id="filter32_d" x="329.764" y="623.581" width="12.9563" height="13.314" filterUnits="userSpaceOnUse" color-interpolation-filters="sRGB">
<feFlood flood-opacity="0" result="BackgroundImageFix"/>
<feColorMatrix in="SourceAlpha" type="matrix" values="0 0 0 0 0 0 0 0 0 0 0 0 0 0 0 0 0 0 127 0"/>
<feOffset dy="4"/>
<feGaussianBlur stdDeviation="2"/>
<feColorMatrix type="matrix" values="0 0 0 0 0 0 0 0 0 0 0 0 0 0 0 0 0 0 0.25 0"/>
<feBlend mode="normal" in2="BackgroundImageFix" result="effect1_dropShadow"/>
<feBlend mode="normal" in="SourceGraphic" in2="effect1_dropShadow" result="shape"/>
</filter>
<filter id="filter33_d" x="326.397" y="620.917" width="12.9563" height="13.314" filterUnits="userSpaceOnUse" color-interpolation-filters="sRGB">
<feFlood flood-opacity="0" result="BackgroundImageFix"/>
<feColorMatrix in="SourceAlpha" type="matrix" values="0 0 0 0 0 0 0 0 0 0 0 0 0 0 0 0 0 0 127 0"/>
<feOffset dy="4"/>
<feGaussianBlur stdDeviation="2"/>
<feColorMatrix type="matrix" values="0 0 0 0 0 0 0 0 0 0 0 0 0 0 0 0 0 0 0.25 0"/>
<feBlend mode="normal" in2="BackgroundImageFix" result="effect1_dropShadow"/>
<feBlend mode="normal" in="SourceGraphic" in2="effect1_dropShadow" result="shape"/>
</filter>
<filter id="filter34_d" x="331.471" y="614.841" width="12.9563" height="13.314" filterUnits="userSpaceOnUse" color-interpolation-filters="sRGB">
<feFlood flood-opacity="0" result="BackgroundImageFix"/>
<feColorMatrix in="SourceAlpha" type="matrix" values="0 0 0 0 0 0 0 0 0 0 0 0 0 0 0 0 0 0 127 0"/>
<feOffset dy="4"/>
<feGaussianBlur stdDeviation="2"/>
<feColorMatrix type="matrix" values="0 0 0 0 0 0 0 0 0 0 0 0 0 0 0 0 0 0 0.25 0"/>
<feBlend mode="normal" in2="BackgroundImageFix" result="effect1_dropShadow"/>
<feBlend mode="normal" in="SourceGraphic" in2="effect1_dropShadow" result="shape"/>
</filter>
<filter id="filter35_d" x="334.837" y="617.505" width="12.9563" height="13.314" filterUnits="userSpaceOnUse" color-interpolation-filters="sRGB">
<feFlood flood-opacity="0" result="BackgroundImageFix"/>
<feColorMatrix in="SourceAlpha" type="matrix" values="0 0 0 0 0 0 0 0 0 0 0 0 0 0 0 0 0 0 127 0"/>
<feOffset dy="4"/>
<feGaussianBlur stdDeviation="2"/>
<feColorMatrix type="matrix" values="0 0 0 0 0 0 0 0 0 0 0 0 0 0 0 0 0 0 0.25 0"/>
<feBlend mode="normal" in2="BackgroundImageFix" result="effect1_dropShadow"/>
<feBlend mode="normal" in="SourceGraphic" in2="effect1_dropShadow" result="shape"/>
</filter>
<filter id="filter36_d" x="339.91" y="611.429" width="12.9563" height="13.314" filterUnits="userSpaceOnUse" color-interpolation-filters="sRGB">
<feFlood flood-opacity="0" result="BackgroundImageFix"/>
<feColorMatrix in="SourceAlpha" type="matrix" values="0 0 0 0 0 0 0 0 0 0 0 0 0 0 0 0 0 0 127 0"/>
<feOffset dy="4"/>
<feGaussianBlur stdDeviation="2"/>
<feColorMatrix type="matrix" values="0 0 0 0 0 0 0 0 0 0 0 0 0 0 0 0 0 0 0.25 0"/>
<feBlend mode="normal" in2="BackgroundImageFix" result="effect1_dropShadow"/>
<feBlend mode="normal" in="SourceGraphic" in2="effect1_dropShadow" result="shape"/>
</filter>
<filter id="filter37_d" x="338.202" y="620.169" width="12.9563" height="13.314" filterUnits="userSpaceOnUse" color-interpolation-filters="sRGB">
<feFlood flood-opacity="0" result="BackgroundImageFix"/>
<feColorMatrix in="SourceAlpha" type="matrix" values="0 0 0 0 0 0 0 0 0 0 0 0 0 0 0 0 0 0 127 0"/>
<feOffset dy="4"/>
<feGaussianBlur stdDeviation="2"/>
<feColorMatrix type="matrix" values="0 0 0 0 0 0 0 0 0 0 0 0 0 0 0 0 0 0 0.25 0"/>
<feBlend mode="normal" in2="BackgroundImageFix" result="effect1_dropShadow"/>
<feBlend mode="normal" in="SourceGraphic" in2="effect1_dropShadow" result="shape"/>
</filter>
<filter id="filter38_d" x="333.129" y="626.245" width="12.9563" height="13.314" filterUnits="userSpaceOnUse" color-interpolation-filters="sRGB">
<feFlood flood-opacity="0" result="BackgroundImageFix"/>
<feColorMatrix in="SourceAlpha" type="matrix" values="0 0 0 0 0 0 0 0 0 0 0 0 0 0 0 0 0 0 127 0"/>
<feOffset dy="4"/>
<feGaussianBlur stdDeviation="2"/>
<feColorMatrix type="matrix" values="0 0 0 0 0 0 0 0 0 0 0 0 0 0 0 0 0 0 0.25 0"/>
<feBlend mode="normal" in2="BackgroundImageFix" result="effect1_dropShadow"/>
<feBlend mode="normal" in="SourceGraphic" in2="effect1_dropShadow" result="shape"/>
</filter>
<filter id="filter39_d" x="336.916" y="629.243" width="12.9563" height="13.314" filterUnits="userSpaceOnUse" color-interpolation-filters="sRGB">
<feFlood flood-opacity="0" result="BackgroundImageFix"/>
<feColorMatrix in="SourceAlpha" type="matrix" values="0 0 0 0 0 0 0 0 0 0 0 0 0 0 0 0 0 0 127 0"/>
<feOffset dy="4"/>
<feGaussianBlur stdDeviation="2"/>
<feColorMatrix type="matrix" values="0 0 0 0 0 0 0 0 0 0 0 0 0 0 0 0 0 0 0.25 0"/>
<feBlend mode="normal" in2="BackgroundImageFix" result="effect1_dropShadow"/>
<feBlend mode="normal" in="SourceGraphic" in2="effect1_dropShadow" result="shape"/>
</filter>
<filter id="filter40_d" x="341.989" y="623.167" width="12.9563" height="13.314" filterUnits="userSpaceOnUse" color-interpolation-filters="sRGB">
<feFlood flood-opacity="0" result="BackgroundImageFix"/>
<feColorMatrix in="SourceAlpha" type="matrix" values="0 0 0 0 0 0 0 0 0 0 0 0 0 0 0 0 0 0 127 0"/>
<feOffset dy="4"/>
<feGaussianBlur stdDeviation="2"/>
<feColorMatrix type="matrix" values="0 0 0 0 0 0 0 0 0 0 0 0 0 0 0 0 0 0 0.25 0"/>
<feBlend mode="normal" in2="BackgroundImageFix" result="effect1_dropShadow"/>
<feBlend mode="normal" in="SourceGraphic" in2="effect1_dropShadow" result="shape"/>
</filter>
<filter id="filter41_d" x="347.062" y="617.091" width="12.9563" height="13.314" filterUnits="userSpaceOnUse" color-interpolation-filters="sRGB">
<feFlood flood-opacity="0" result="BackgroundImageFix"/>
<feColorMatrix in="SourceAlpha" type="matrix" values="0 0 0 0 0 0 0 0 0 0 0 0 0 0 0 0 0 0 127 0"/>
<feOffset dy="4"/>
<feGaussianBlur stdDeviation="2"/>
<feColorMatrix type="matrix" values="0 0 0 0 0 0 0 0 0 0 0 0 0 0 0 0 0 0 0.25 0"/>
<feBlend mode="normal" in2="BackgroundImageFix" result="effect1_dropShadow"/>
<feBlend mode="normal" in="SourceGraphic" in2="effect1_dropShadow" result="shape"/>
</filter>
<filter id="filter42_d" x="343.275" y="614.093" width="12.9563" height="13.314" filterUnits="userSpaceOnUse" color-interpolation-filters="sRGB">
<feFlood flood-opacity="0" result="BackgroundImageFix"/>
<feColorMatrix in="SourceAlpha" type="matrix" values="0 0 0 0 0 0 0 0 0 0 0 0 0 0 0 0 0 0 127 0"/>
<feOffset dy="4"/>
<feGaussianBlur stdDeviation="2"/>
<feColorMatrix type="matrix" values="0 0 0 0 0 0 0 0 0 0 0 0 0 0 0 0 0 0 0.25 0"/>
<feBlend mode="normal" in2="BackgroundImageFix" result="effect1_dropShadow"/>
<feBlend mode="normal" in="SourceGraphic" in2="effect1_dropShadow" result="shape"/>
</filter>
<filter id="filter43_d" x="77.2432" y="91.4858" width="226.514" height="41" filterUnits="userSpaceOnUse" color-interpolation-filters="sRGB">
<feFlood flood-opacity="0" result="BackgroundImageFix"/>
<feColorMatrix in="SourceAlpha" type="matrix" values="0 0 0 0 0 0 0 0 0 0 0 0 0 0 0 0 0 0 127 0"/>
<feOffset dx="10" dy="4"/>
<feGaussianBlur stdDeviation="10"/>
<feColorMatrix type="matrix" values="0 0 0 0 0 0 0 0 0 0 0 0 0 0 0 0 0 0 0.25 0"/>
<feBlend mode="normal" in2="BackgroundImageFix" result="effect1_dropShadow"/>
<feBlend mode="normal" in="SourceGraphic" in2="effect1_dropShadow" result="shape"/>
</filter>
<filter id="filter44_dd" x="135.366" y="190.364" width="152.065" height="138.19" filterUnits="userSpaceOnUse" color-interpolation-filters="sRGB">
<feFlood flood-opacity="0" result="BackgroundImageFix"/>
<feColorMatrix in="SourceAlpha" type="matrix" values="0 0 0 0 0 0 0 0 0 0 0 0 0 0 0 0 0 0 127 0"/>
<feOffset dx="10" dy="10"/>
<feGaussianBlur stdDeviation="10"/>
<feColorMatrix type="matrix" values="0 0 0 0 0 0 0 0 0 0 0 0 0 0 0 0 0 0 0.25 0"/>
<feBlend mode="normal" in2="BackgroundImageFix" result="effect1_dropShadow"/>
<feColorMatrix in="SourceAlpha" type="matrix" values="0 0 0 0 0 0 0 0 0 0 0 0 0 0 0 0 0 0 127 0"/>
<feOffset dx="20" dy="20"/>
<feGaussianBlur stdDeviation="20"/>
<feColorMatrix type="matrix" values="0 0 0 0 0 0 0 0 0 0 0 0 0 0 0 0 0 0 0.25 0"/>
<feBlend mode="normal" in2="effect1_dropShadow" result="effect2_dropShadow"/>
<feBlend mode="normal" in="SourceGraphic" in2="effect2_dropShadow" result="shape"/>
</filter>
<filter id="filter45_dd" x="134.556" y="405.288" width="134.533" height="127.655" filterUnits="userSpaceOnUse" color-interpolation-filters="sRGB">
<feFlood flood-opacity="0" result="BackgroundImageFix"/>
<feColorMatrix in="SourceAlpha" type="matrix" values="0 0 0 0 0 0 0 0 0 0 0 0 0 0 0 0 0 0 127 0"/>
<feOffset dx="10" dy="10"/>
<feGaussianBlur stdDeviation="10"/>
<feColorMatrix type="matrix" values="0 0 0 0 0 0 0 0 0 0 0 0 0 0 0 0 0 0 0.25 0"/>
<feBlend mode="normal" in2="BackgroundImageFix" result="effect1_dropShadow"/>
<feColorMatrix in="SourceAlpha" type="matrix" values="0 0 0 0 0 0 0 0 0 0 0 0 0 0 0 0 0 0 127 0"/>
<feOffset dx="20" dy="20"/>
<feGaussianBlur stdDeviation="20"/>
<feColorMatrix type="matrix" values="0 0 0 0 0 0 0 0 0 0 0 0 0 0 0 0 0 0 0.25 0"/>
<feBlend mode="normal" in2="effect1_dropShadow" result="effect2_dropShadow"/>
<feBlend mode="normal" in="SourceGraphic" in2="effect2_dropShadow" result="shape"/>
</filter>
<filter id="filter46_dd" x="205.28" y="284.665" width="88.8294" height="181.504" filterUnits="userSpaceOnUse" color-interpolation-filters="sRGB">
<feFlood flood-opacity="0" result="BackgroundImageFix"/>
<feColorMatrix in="SourceAlpha" type="matrix" values="0 0 0 0 0 0 0 0 0 0 0 0 0 0 0 0 0 0 127 0"/>
<feOffset dx="10" dy="10"/>
<feGaussianBlur stdDeviation="10"/>
<feColorMatrix type="matrix" values="0 0 0 0 0 0 0 0 0 0 0 0 0 0 0 0 0 0 0.25 0"/>
<feBlend mode="normal" in2="BackgroundImageFix" result="effect1_dropShadow"/>
<feColorMatrix in="SourceAlpha" type="matrix" values="0 0 0 0 0 0 0 0 0 0 0 0 0 0 0 0 0 0 127 0"/>
<feOffset dx="20" dy="20"/>
<feGaussianBlur stdDeviation="20"/>
<feColorMatrix type="matrix" values="0 0 0 0 0 0 0 0 0 0 0 0 0 0 0 0 0 0 0.25 0"/>
<feBlend mode="normal" in2="effect1_dropShadow" result="effect2_dropShadow"/>
<feBlend mode="normal" in="SourceGraphic" in2="effect2_dropShadow" result="shape"/>
</filter>
<filter id="filter47_dd" x="200.928" y="226.503" width="90.759" height="261.029" filterUnits="userSpaceOnUse" color-interpolation-filters="sRGB">
<feFlood flood-opacity="0" result="BackgroundImageFix"/>
<feColorMatrix in="SourceAlpha" type="matrix" values="0 0 0 0 0 0 0 0 0 0 0 0 0 0 0 0 0 0 127 0"/>
<feOffset dx="10" dy="10"/>
<feGaussianBlur stdDeviation="10"/>
<feColorMatrix type="matrix" values="0 0 0 0 0 0 0 0 0 0 0 0 0 0 0 0 0 0 0.25 0"/>
<feBlend mode="normal" in2="BackgroundImageFix" result="effect1_dropShadow"/>
<feColorMatrix in="SourceAlpha" type="matrix" values="0 0 0 0 0 0 0 0 0 0 0 0 0 0 0 0 0 0 127 0"/>
<feOffset dx="20" dy="20"/>
<feGaussianBlur stdDeviation="20"/>
<feColorMatrix type="matrix" values="0 0 0 0 0 0 0 0 0 0 0 0 0 0 0 0 0 0 0.25 0"/>
<feBlend mode="normal" in2="effect1_dropShadow" result="effect2_dropShadow"/>
<feBlend mode="normal" in="SourceGraphic" in2="effect2_dropShadow" result="shape"/>
</filter>
<filter id="filter48_dd" x="116.433" y="228.09" width="89.2695" height="261.038" filterUnits="userSpaceOnUse" color-interpolation-filters="sRGB">
<feFlood flood-opacity="0" result="BackgroundImageFix"/>
<feColorMatrix in="SourceAlpha" type="matrix" values="0 0 0 0 0 0 0 0 0 0 0 0 0 0 0 0 0 0 127 0"/>
<feOffset dx="10" dy="10"/>
<feGaussianBlur stdDeviation="10"/>
<feColorMatrix type="matrix" values="0 0 0 0 0 0 0 0 0 0 0 0 0 0 0 0 0 0 0.25 0"/>
<feBlend mode="normal" in2="BackgroundImageFix" result="effect1_dropShadow"/>
<feColorMatrix in="SourceAlpha" type="matrix" values="0 0 0 0 0 0 0 0 0 0 0 0 0 0 0 0 0 0 127 0"/>
<feOffset dx="20" dy="20"/>
<feGaussianBlur stdDeviation="20"/>
<feColorMatrix type="matrix" values="0 0 0 0 0 0 0 0 0 0 0 0 0 0 0 0 0 0 0.25 0"/>
<feBlend mode="normal" in2="effect1_dropShadow" result="effect2_dropShadow"/>
<feBlend mode="normal" in="SourceGraphic" in2="effect2_dropShadow" result="shape"/>
</filter>
<filter id="filter49_dd" x="120.605" y="224.934" width="166.176" height="265.893" filterUnits="userSpaceOnUse" color-interpolation-filters="sRGB">
<feFlood flood-opacity="0" result="BackgroundImageFix"/>
<feColorMatrix in="SourceAlpha" type="matrix" values="0 0 0 0 0 0 0 0 0 0 0 0 0 0 0 0 0 0 127 0"/>
<feOffset dx="10" dy="10"/>
<feGaussianBlur stdDeviation="10"/>
<feColorMatrix type="matrix" values="0 0 0 0 0 0 0 0 0 0 0 0 0 0 0 0 0 0 0.25 0"/>
<feBlend mode="normal" in2="BackgroundImageFix" result="effect1_dropShadow"/>
<feColorMatrix in="SourceAlpha" type="matrix" values="0 0 0 0 0 0 0 0 0 0 0 0 0 0 0 0 0 0 127 0"/>
<feOffset dx="20" dy="20"/>
<feGaussianBlur stdDeviation="20"/>
<feColorMatrix type="matrix" values="0 0 0 0 0 0 0 0 0 0 0 0 0 0 0 0 0 0 0.25 0"/>
<feBlend mode="normal" in2="effect1_dropShadow" result="effect2_dropShadow"/>
<feBlend mode="normal" in="SourceGraphic" in2="effect2_dropShadow" result="shape"/>
</filter>
<filter id="filter50_dd" x="127.378" y="268.363" width="154.599" height="143.997" filterUnits="userSpaceOnUse" color-interpolation-filters="sRGB">
<feFlood flood-opacity="0" result="BackgroundImageFix"/>
<feColorMatrix in="SourceAlpha" type="matrix" values="0 0 0 0 0 0 0 0 0 0 0 0 0 0 0 0 0 0 127 0"/>
<feOffset dx="10" dy="10"/>
<feGaussianBlur stdDeviation="10"/>
<feColorMatrix type="matrix" values="0 0 0 0 0 0 0 0 0 0 0 0 0 0 0 0 0 0 0.25 0"/>
<feBlend mode="normal" in2="BackgroundImageFix" result="effect1_dropShadow"/>
<feColorMatrix in="SourceAlpha" type="matrix" values="0 0 0 0 0 0 0 0 0 0 0 0 0 0 0 0 0 0 127 0"/>
<feOffset dx="20" dy="20"/>
<feGaussianBlur stdDeviation="20"/>
<feColorMatrix type="matrix" values="0 0 0 0 0 0 0 0 0 0 0 0 0 0 0 0 0 0 0.25 0"/>
<feBlend mode="normal" in2="effect1_dropShadow" result="effect2_dropShadow"/>
<feBlend mode="normal" in="SourceGraphic" in2="effect2_dropShadow" result="shape"/>
</filter>
<filter id="filter51_dd" x="130.669" y="274.859" width="148.046" height="129.381" filterUnits="userSpaceOnUse" color-interpolation-filters="sRGB">
<feFlood flood-opacity="0" result="BackgroundImageFix"/>
<feColorMatrix in="SourceAlpha" type="matrix" values="0 0 0 0 0 0 0 0 0 0 0 0 0 0 0 0 0 0 127 0"/>
<feOffset dx="10" dy="10"/>
<feGaussianBlur stdDeviation="10"/>
<feColorMatrix type="matrix" values="0 0 0 0 0 0 0 0 0 0 0 0 0 0 0 0 0 0 0.25 0"/>
<feBlend mode="normal" in2="BackgroundImageFix" result="effect1_dropShadow"/>
<feColorMatrix in="SourceAlpha" type="matrix" values="0 0 0 0 0 0 0 0 0 0 0 0 0 0 0 0 0 0 127 0"/>
<feOffset dx="20" dy="20"/>
<feGaussianBlur stdDeviation="20"/>
<feColorMatrix type="matrix" values="0 0 0 0 0 0 0 0 0 0 0 0 0 0 0 0 0 0 0.25 0"/>
<feBlend mode="normal" in2="effect1_dropShadow" result="effect2_dropShadow"/>
<feBlend mode="normal" in="SourceGraphic" in2="effect2_dropShadow" result="shape"/>
</filter>
<filter id="filter52_dd" x="130.459" y="342.39" width="96.0931" height="88.2463" filterUnits="userSpaceOnUse" color-interpolation-filters="sRGB">
<feFlood flood-opacity="0" result="BackgroundImageFix"/>
<feColorMatrix in="SourceAlpha" type="matrix" values="0 0 0 0 0 0 0 0 0 0 0 0 0 0 0 0 0 0 127 0"/>
<feOffset dx="10" dy="10"/>
<feGaussianBlur stdDeviation="10"/>
<feColorMatrix type="matrix" values="0 0 0 0 0 0 0 0 0 0 0 0 0 0 0 0 0 0 0.25 0"/>
<feBlend mode="normal" in2="BackgroundImageFix" result="effect1_dropShadow"/>
<feColorMatrix in="SourceAlpha" type="matrix" values="0 0 0 0 0 0 0 0 0 0 0 0 0 0 0 0 0 0 127 0"/>
<feOffset dx="20" dy="20"/>
<feGaussianBlur stdDeviation="20"/>
<feColorMatrix type="matrix" values="0 0 0 0 0 0 0 0 0 0 0 0 0 0 0 0 0 0 0.25 0"/>
<feBlend mode="normal" in2="effect1_dropShadow" result="effect2_dropShadow"/>
<feBlend mode="normal" in="SourceGraphic" in2="effect2_dropShadow" result="shape"/>
</filter>
<filter id="filter53_dd" x="130.216" y="357.002" width="96.0931" height="88.2463" filterUnits="userSpaceOnUse" color-interpolation-filters="sRGB">
<feFlood flood-opacity="0" result="BackgroundImageFix"/>
<feColorMatrix in="SourceAlpha" type="matrix" values="0 0 0 0 0 0 0 0 0 0 0 0 0 0 0 0 0 0 127 0"/>
<feOffset dx="10" dy="10"/>
<feGaussianBlur stdDeviation="10"/>
<feColorMatrix type="matrix" values="0 0 0 0 0 0 0 0 0 0 0 0 0 0 0 0 0 0 0.25 0"/>
<feBlend mode="normal" in2="BackgroundImageFix" result="effect1_dropShadow"/>
<feColorMatrix in="SourceAlpha" type="matrix" values="0 0 0 0 0 0 0 0 0 0 0 0 0 0 0 0 0 0 127 0"/>
<feOffset dx="20" dy="20"/>
<feGaussianBlur stdDeviation="20"/>
<feColorMatrix type="matrix" values="0 0 0 0 0 0 0 0 0 0 0 0 0 0 0 0 0 0 0.25 0"/>
<feBlend mode="normal" in2="effect1_dropShadow" result="effect2_dropShadow"/>
<feBlend mode="normal" in="SourceGraphic" in2="effect2_dropShadow" result="shape"/>
</filter>
<filter id="filter54_dd" x="129.973" y="371.613" width="96.0931" height="88.2463" filterUnits="userSpaceOnUse" color-interpolation-filters="sRGB">
<feFlood flood-opacity="0" result="BackgroundImageFix"/>
<feColorMatrix in="SourceAlpha" type="matrix" values="0 0 0 0 0 0 0 0 0 0 0 0 0 0 0 0 0 0 127 0"/>
<feOffset dx="10" dy="10"/>
<feGaussianBlur stdDeviation="10"/>
<feColorMatrix type="matrix" values="0 0 0 0 0 0 0 0 0 0 0 0 0 0 0 0 0 0 0.25 0"/>
<feBlend mode="normal" in2="BackgroundImageFix" result="effect1_dropShadow"/>
<feColorMatrix in="SourceAlpha" type="matrix" values="0 0 0 0 0 0 0 0 0 0 0 0 0 0 0 0 0 0 127 0"/>
<feOffset dx="20" dy="20"/>
<feGaussianBlur stdDeviation="20"/>
<feColorMatrix type="matrix" values="0 0 0 0 0 0 0 0 0 0 0 0 0 0 0 0 0 0 0.25 0"/>
<feBlend mode="normal" in2="effect1_dropShadow" result="effect2_dropShadow"/>
<feBlend mode="normal" in="SourceGraphic" in2="effect2_dropShadow" result="shape"/>
</filter>
<filter id="filter55_dd" x="129.73" y="386.225" width="96.0931" height="88.2463" filterUnits="userSpaceOnUse" color-interpolation-filters="sRGB">
<feFlood flood-opacity="0" result="BackgroundImageFix"/>
<feColorMatrix in="SourceAlpha" type="matrix" values="0 0 0 0 0 0 0 0 0 0 0 0 0 0 0 0 0 0 127 0"/>
<feOffset dx="10" dy="10"/>
<feGaussianBlur stdDeviation="10"/>
<feColorMatrix type="matrix" values="0 0 0 0 0 0 0 0 0 0 0 0 0 0 0 0 0 0 0.25 0"/>
<feBlend mode="normal" in2="BackgroundImageFix" result="effect1_dropShadow"/>
<feColorMatrix in="SourceAlpha" type="matrix" values="0 0 0 0 0 0 0 0 0 0 0 0 0 0 0 0 0 0 127 0"/>
<feOffset dx="20" dy="20"/>
<feGaussianBlur stdDeviation="20"/>
<feColorMatrix type="matrix" values="0 0 0 0 0 0 0 0 0 0 0 0 0 0 0 0 0 0 0.25 0"/>
<feBlend mode="normal" in2="effect1_dropShadow" result="effect2_dropShadow"/>
<feBlend mode="normal" in="SourceGraphic" in2="effect2_dropShadow" result="shape"/>
</filter>
<filter id="filter56_dd" x="153.768" y="386.482" width="96.0931" height="88.2463" filterUnits="userSpaceOnUse" color-interpolation-filters="sRGB">
<feFlood flood-opacity="0" result="BackgroundImageFix"/>
<feColorMatrix in="SourceAlpha" type="matrix" values="0 0 0 0 0 0 0 0 0 0 0 0 0 0 0 0 0 0 127 0"/>
<feOffset dx="10" dy="10"/>
<feGaussianBlur stdDeviation="10"/>
<feColorMatrix type="matrix" values="0 0 0 0 0 0 0 0 0 0 0 0 0 0 0 0 0 0 0.25 0"/>
<feBlend mode="normal" in2="BackgroundImageFix" result="effect1_dropShadow"/>
<feColorMatrix in="SourceAlpha" type="matrix" values="0 0 0 0 0 0 0 0 0 0 0 0 0 0 0 0 0 0 127 0"/>
<feOffset dx="20" dy="20"/>
<feGaussianBlur stdDeviation="20"/>
<feColorMatrix type="matrix" values="0 0 0 0 0 0 0 0 0 0 0 0 0 0 0 0 0 0 0.25 0"/>
<feBlend mode="normal" in2="effect1_dropShadow" result="effect2_dropShadow"/>
<feBlend mode="normal" in="SourceGraphic" in2="effect2_dropShadow" result="shape"/>
</filter>
<filter id="filter57_dd" x="179.406" y="386.754" width="96.0931" height="88.2463" filterUnits="userSpaceOnUse" color-interpolation-filters="sRGB">
<feFlood flood-opacity="0" result="BackgroundImageFix"/>
<feColorMatrix in="SourceAlpha" type="matrix" values="0 0 0 0 0 0 0 0 0 0 0 0 0 0 0 0 0 0 127 0"/>
<feOffset dx="10" dy="10"/>
<feGaussianBlur stdDeviation="10"/>
<feColorMatrix type="matrix" values="0 0 0 0 0 0 0 0 0 0 0 0 0 0 0 0 0 0 0.25 0"/>
<feBlend mode="normal" in2="BackgroundImageFix" result="effect1_dropShadow"/>
<feColorMatrix in="SourceAlpha" type="matrix" values="0 0 0 0 0 0 0 0 0 0 0 0 0 0 0 0 0 0 127 0"/>
<feOffset dx="20" dy="20"/>
<feGaussianBlur stdDeviation="20"/>
<feColorMatrix type="matrix" values="0 0 0 0 0 0 0 0 0 0 0 0 0 0 0 0 0 0 0.25 0"/>
<feBlend mode="normal" in2="effect1_dropShadow" result="effect2_dropShadow"/>
<feBlend mode="normal" in="SourceGraphic" in2="effect2_dropShadow" result="shape"/>
</filter>
<filter id="filter58_dd" x="154.01" y="371.869" width="96.0931" height="88.2463" filterUnits="userSpaceOnUse" color-interpolation-filters="sRGB">
<feFlood flood-opacity="0" result="BackgroundImageFix"/>
<feColorMatrix in="SourceAlpha" type="matrix" values="0 0 0 0 0 0 0 0 0 0 0 0 0 0 0 0 0 0 127 0"/>
<feOffset dx="10" dy="10"/>
<feGaussianBlur stdDeviation="10"/>
<feColorMatrix type="matrix" values="0 0 0 0 0 0 0 0 0 0 0 0 0 0 0 0 0 0 0.25 0"/>
<feBlend mode="normal" in2="BackgroundImageFix" result="effect1_dropShadow"/>
<feColorMatrix in="SourceAlpha" type="matrix" values="0 0 0 0 0 0 0 0 0 0 0 0 0 0 0 0 0 0 127 0"/>
<feOffset dx="20" dy="20"/>
<feGaussianBlur stdDeviation="20"/>
<feColorMatrix type="matrix" values="0 0 0 0 0 0 0 0 0 0 0 0 0 0 0 0 0 0 0.25 0"/>
<feBlend mode="normal" in2="effect1_dropShadow" result="effect2_dropShadow"/>
<feBlend mode="normal" in="SourceGraphic" in2="effect2_dropShadow" result="shape"/>
</filter>
<filter id="filter59_dd" x="179.649" y="372.143" width="96.0931" height="88.2463" filterUnits="userSpaceOnUse" color-interpolation-filters="sRGB">
<feFlood flood-opacity="0" result="BackgroundImageFix"/>
<feColorMatrix in="SourceAlpha" type="matrix" values="0 0 0 0 0 0 0 0 0 0 0 0 0 0 0 0 0 0 127 0"/>
<feOffset dx="10" dy="10"/>
<feGaussianBlur stdDeviation="10"/>
<feColorMatrix type="matrix" values="0 0 0 0 0 0 0 0 0 0 0 0 0 0 0 0 0 0 0.25 0"/>
<feBlend mode="normal" in2="BackgroundImageFix" result="effect1_dropShadow"/>
<feColorMatrix in="SourceAlpha" type="matrix" values="0 0 0 0 0 0 0 0 0 0 0 0 0 0 0 0 0 0 127 0"/>
<feOffset dx="20" dy="20"/>
<feGaussianBlur stdDeviation="20"/>
<feColorMatrix type="matrix" values="0 0 0 0 0 0 0 0 0 0 0 0 0 0 0 0 0 0 0.25 0"/>
<feBlend mode="normal" in2="effect1_dropShadow" result="effect2_dropShadow"/>
<feBlend mode="normal" in="SourceGraphic" in2="effect2_dropShadow" result="shape"/>
</filter>
<filter id="filter60_dd" x="154.253" y="357.258" width="96.0931" height="88.2463" filterUnits="userSpaceOnUse" color-interpolation-filters="sRGB">
<feFlood flood-opacity="0" result="BackgroundImageFix"/>
<feColorMatrix in="SourceAlpha" type="matrix" values="0 0 0 0 0 0 0 0 0 0 0 0 0 0 0 0 0 0 127 0"/>
<feOffset dx="10" dy="10"/>
<feGaussianBlur stdDeviation="10"/>
<feColorMatrix type="matrix" values="0 0 0 0 0 0 0 0 0 0 0 0 0 0 0 0 0 0 0.25 0"/>
<feBlend mode="normal" in2="BackgroundImageFix" result="effect1_dropShadow"/>
<feColorMatrix in="SourceAlpha" type="matrix" values="0 0 0 0 0 0 0 0 0 0 0 0 0 0 0 0 0 0 127 0"/>
<feOffset dx="20" dy="20"/>
<feGaussianBlur stdDeviation="20"/>
<feColorMatrix type="matrix" values="0 0 0 0 0 0 0 0 0 0 0 0 0 0 0 0 0 0 0.25 0"/>
<feBlend mode="normal" in2="effect1_dropShadow" result="effect2_dropShadow"/>
<feBlend mode="normal" in="SourceGraphic" in2="effect2_dropShadow" result="shape"/>
</filter>
<filter id="filter61_dd" x="179.892" y="357.531" width="96.0931" height="88.2463" filterUnits="userSpaceOnUse" color-interpolation-filters="sRGB">
<feFlood flood-opacity="0" result="BackgroundImageFix"/>
<feColorMatrix in="SourceAlpha" type="matrix" values="0 0 0 0 0 0 0 0 0 0 0 0 0 0 0 0 0 0 127 0"/>
<feOffset dx="10" dy="10"/>
<feGaussianBlur stdDeviation="10"/>
<feColorMatrix type="matrix" values="0 0 0 0 0 0 0 0 0 0 0 0 0 0 0 0 0 0 0.25 0"/>
<feBlend mode="normal" in2="BackgroundImageFix" result="effect1_dropShadow"/>
<feColorMatrix in="SourceAlpha" type="matrix" values="0 0 0 0 0 0 0 0 0 0 0 0 0 0 0 0 0 0 127 0"/>
<feOffset dx="20" dy="20"/>
<feGaussianBlur stdDeviation="20"/>
<feColorMatrix type="matrix" values="0 0 0 0 0 0 0 0 0 0 0 0 0 0 0 0 0 0 0.25 0"/>
<feBlend mode="normal" in2="effect1_dropShadow" result="effect2_dropShadow"/>
<feBlend mode="normal" in="SourceGraphic" in2="effect2_dropShadow" result="shape"/>
</filter>
<filter id="filter62_dd" x="154.495" y="342.646" width="96.0931" height="88.2463" filterUnits="userSpaceOnUse" color-interpolation-filters="sRGB">
<feFlood flood-opacity="0" result="BackgroundImageFix"/>
<feColorMatrix in="SourceAlpha" type="matrix" values="0 0 0 0 0 0 0 0 0 0 0 0 0 0 0 0 0 0 127 0"/>
<feOffset dx="10" dy="10"/>
<feGaussianBlur stdDeviation="10"/>
<feColorMatrix type="matrix" values="0 0 0 0 0 0 0 0 0 0 0 0 0 0 0 0 0 0 0.25 0"/>
<feBlend mode="normal" in2="BackgroundImageFix" result="effect1_dropShadow"/>
<feColorMatrix in="SourceAlpha" type="matrix" values="0 0 0 0 0 0 0 0 0 0 0 0 0 0 0 0 0 0 127 0"/>
<feOffset dx="20" dy="20"/>
<feGaussianBlur stdDeviation="20"/>
<feColorMatrix type="matrix" values="0 0 0 0 0 0 0 0 0 0 0 0 0 0 0 0 0 0 0.25 0"/>
<feBlend mode="normal" in2="effect1_dropShadow" result="effect2_dropShadow"/>
<feBlend mode="normal" in="SourceGraphic" in2="effect2_dropShadow" result="shape"/>
</filter>
<filter id="filter63_dd" x="180.135" y="342.92" width="96.0931" height="88.2463" filterUnits="userSpaceOnUse" color-interpolation-filters="sRGB">
<feFlood flood-opacity="0" result="BackgroundImageFix"/>
<feColorMatrix in="SourceAlpha" type="matrix" values="0 0 0 0 0 0 0 0 0 0 0 0 0 0 0 0 0 0 127 0"/>
<feOffset dx="10" dy="10"/>
<feGaussianBlur stdDeviation="10"/>
<feColorMatrix type="matrix" values="0 0 0 0 0 0 0 0 0 0 0 0 0 0 0 0 0 0 0.25 0"/>
<feBlend mode="normal" in2="BackgroundImageFix" result="effect1_dropShadow"/>
<feColorMatrix in="SourceAlpha" type="matrix" values="0 0 0 0 0 0 0 0 0 0 0 0 0 0 0 0 0 0 127 0"/>
<feOffset dx="20" dy="20"/>
<feGaussianBlur stdDeviation="20"/>
<feColorMatrix type="matrix" values="0 0 0 0 0 0 0 0 0 0 0 0 0 0 0 0 0 0 0.25 0"/>
<feBlend mode="normal" in2="effect1_dropShadow" result="effect2_dropShadow"/>
<feBlend mode="normal" in="SourceGraphic" in2="effect2_dropShadow" result="shape"/>
</filter>
<filter id="filter64_dd" x="140.118" y="438.318" width="88.0134" height="88.118" filterUnits="userSpaceOnUse" color-interpolation-filters="sRGB">
<feFlood flood-opacity="0" result="BackgroundImageFix"/>
<feColorMatrix in="SourceAlpha" type="matrix" values="0 0 0 0 0 0 0 0 0 0 0 0 0 0 0 0 0 0 127 0"/>
<feOffset dx="10" dy="10"/>
<feGaussianBlur stdDeviation="10"/>
<feColorMatrix type="matrix" values="0 0 0 0 0 0 0 0 0 0 0 0 0 0 0 0 0 0 0.25 0"/>
<feBlend mode="normal" in2="BackgroundImageFix" result="effect1_dropShadow"/>
<feColorMatrix in="SourceAlpha" type="matrix" values="0 0 0 0 0 0 0 0 0 0 0 0 0 0 0 0 0 0 127 0"/>
<feOffset dx="20" dy="20"/>
<feGaussianBlur stdDeviation="20"/>
<feColorMatrix type="matrix" values="0 0 0 0 0 0 0 0 0 0 0 0 0 0 0 0 0 0 0.25 0"/>
<feBlend mode="normal" in2="effect1_dropShadow" result="effect2_dropShadow"/>
<feBlend mode="normal" in="SourceGraphic" in2="effect2_dropShadow" result="shape"/>
</filter>
<filter id="filter65_dd" x="140.172" y="435.071" width="88.0134" height="88.118" filterUnits="userSpaceOnUse" color-interpolation-filters="sRGB">
<feFlood flood-opacity="0" result="BackgroundImageFix"/>
<feColorMatrix in="SourceAlpha" type="matrix" values="0 0 0 0 0 0 0 0 0 0 0 0 0 0 0 0 0 0 127 0"/>
<feOffset dx="10" dy="10"/>
<feGaussianBlur stdDeviation="10"/>
<feColorMatrix type="matrix" values="0 0 0 0 0 0 0 0 0 0 0 0 0 0 0 0 0 0 0.25 0"/>
<feBlend mode="normal" in2="BackgroundImageFix" result="effect1_dropShadow"/>
<feColorMatrix in="SourceAlpha" type="matrix" values="0 0 0 0 0 0 0 0 0 0 0 0 0 0 0 0 0 0 127 0"/>
<feOffset dx="20" dy="20"/>
<feGaussianBlur stdDeviation="20"/>
<feColorMatrix type="matrix" values="0 0 0 0 0 0 0 0 0 0 0 0 0 0 0 0 0 0 0.25 0"/>
<feBlend mode="normal" in2="effect1_dropShadow" result="effect2_dropShadow"/>
<feBlend mode="normal" in="SourceGraphic" in2="effect2_dropShadow" result="shape"/>
</filter>
<clipPath id="clip0">
<rect width="360" height="640" fill="white"/>
</clipPath>
</defs>
</svg>
