<svg width="25" height="25" viewBox="0 0 25 25" fill="none" xmlns="http://www.w3.org/2000/svg">
<path d="M12.5 25C19.4036 25 25 19.4036 25 12.5C25 5.59644 19.4036 0 12.5 0C5.59644 0 0 5.59644 0 12.5C0 19.4036 5.59644 25 12.5 25Z" fill="#E4E4E4"/>
<path d="M12.5 22.9173C18.253 22.9173 22.9167 18.2536 22.9167 12.5007C22.9167 6.74768 18.253 2.08398 12.5 2.08398C6.74708 2.08398 2.08337 6.74768 2.08337 12.5007C2.08337 18.2536 6.74708 22.9173 12.5 22.9173Z" fill="#6C63FF"/>
<path d="M11.6148 16.2671C11.5962 16.2671 11.5775 16.2667 11.5589 16.2658C11.3941 16.2578 11.233 16.2143 11.0867 16.1383C10.9403 16.0622 10.8121 15.9554 10.7109 15.8252L9.11306 13.7708C8.927 13.531 8.84365 13.2273 8.88129 12.9261C8.91892 12.625 9.07447 12.351 9.3138 12.1644L9.37128 12.1197C9.61108 11.9336 9.91487 11.8503 10.216 11.8879C10.5172 11.9255 10.7911 12.0811 10.9778 12.3204C11.0678 12.4362 11.1818 12.5312 11.312 12.5988C11.4422 12.6665 11.5854 12.7052 11.7319 12.7123C11.8785 12.7195 12.0248 12.6949 12.1609 12.6402C12.297 12.5855 12.4197 12.5021 12.5206 12.3956L15.7651 8.97075C15.8685 8.86161 15.9924 8.7739 16.1297 8.71264C16.267 8.65138 16.415 8.61776 16.5653 8.6137C16.7155 8.60964 16.8652 8.63522 17.0055 8.68899C17.1459 8.74275 17.2744 8.82365 17.3835 8.92705L17.4365 8.97724C17.6569 9.18604 17.7853 9.47384 17.7935 9.77732C17.8016 10.0808 17.6889 10.3751 17.4801 10.5955L12.4456 15.9096C12.3387 16.0226 12.2099 16.1125 12.067 16.174C11.9242 16.2355 11.7703 16.2672 11.6148 16.2671V16.2671Z" fill="white"/>
</svg>
