<svg width="20" height="20" viewBox="0 0 20 20" fill="none" xmlns="http://www.w3.org/2000/svg">
<g id="Group 4">
<path id="Vector" d="M19.7961 4.13135C18.9916 4.08127 18.2992 4.60713 18.2492 5.30596C18.2429 5.39268 18.2473 5.47801 18.2605 5.56101C18.1052 5.395 17.8754 5.28278 17.6118 5.26608C17.1291 5.23594 16.7121 5.53783 16.6519 5.94822C16.5642 5.9255 16.4725 5.9102 16.3775 5.90417C15.6733 5.86058 15.0672 6.32059 15.0241 6.93178" fill="#FDFCEF"/>
<path id="Vector_2" d="M15.0246 7.04818C15.0217 7.04818 15.0187 7.04818 15.0163 7.04818C14.9487 7.044 14.8977 6.98882 14.9021 6.92483C14.9506 6.25104 15.6106 5.74558 16.3858 5.78917C16.4431 5.79288 16.501 5.79937 16.5588 5.80957C16.6862 5.40242 17.1262 5.11769 17.6201 5.15108C17.8019 5.16221 17.9768 5.21647 18.1268 5.30504C18.1268 5.30272 18.1272 5.30087 18.1272 5.29855C18.1811 4.53758 18.9338 3.96859 19.8045 4.01635C19.8721 4.02052 19.9231 4.07571 19.9187 4.1397C19.9142 4.20369 19.8574 4.25146 19.7883 4.24775C19.047 4.19998 18.4168 4.6804 18.3718 5.31431C18.3664 5.39036 18.3698 5.46781 18.382 5.54479C18.3904 5.59533 18.362 5.64541 18.3125 5.66721C18.264 5.689 18.2052 5.67787 18.1689 5.63892C18.0297 5.49007 17.8239 5.39686 17.6044 5.38294C17.187 5.35698 16.8253 5.61295 16.7739 5.96538C16.769 5.99831 16.7494 6.02752 16.72 6.04607C16.6901 6.06462 16.6543 6.07018 16.62 6.06137C16.5367 6.04004 16.4525 6.02659 16.3701 6.02149C15.7341 5.983 15.1858 6.39479 15.1466 6.94106C15.1422 7.00134 15.0888 7.04818 15.0246 7.04818Z" fill="white"/>
<path id="Vector_3" d="M16.3015 18.6027H3.69793C1.85262 18.6027 0.342957 17.174 0.342957 15.4276V3.49971C0.342957 1.75332 1.85262 0.324585 3.69793 0.324585H16.3015C18.1468 0.324585 19.6565 1.75332 19.6565 3.49971V15.4276C19.657 17.174 18.1468 18.6027 16.3015 18.6027Z" fill="#308D88"/>
<path id="Vector_4" d="M16.3015 18.9274H3.69797C1.65862 18.9274 0 17.3572 0 15.4276V3.49973C0 1.56971 1.65911 0 3.69797 0H16.3015C18.3409 0 20 1.57017 20 3.49973V15.4276C20 17.3577 18.3409 18.9274 16.3015 18.9274ZM3.69797 0.649214C2.0369 0.649214 0.685988 1.9277 0.685988 3.49973V15.4276C0.685988 16.9997 2.0369 18.2782 3.69797 18.2782H16.3015C17.9626 18.2782 19.3135 16.9997 19.3135 15.4276V3.49973C19.3135 1.9277 17.9621 0.649214 16.3015 0.649214H3.69797Z" fill="white"/>
<path id="Vector_5" d="M15.5582 17.2974H4.44126C2.9458 17.2974 1.72229 16.1395 1.72229 14.7242V4.20321C1.72229 2.78792 2.9458 1.63 4.44126 1.63H15.5582C17.0536 1.63 18.2772 2.78792 18.2772 4.20321V14.7242C18.2772 16.1395 17.0536 17.2974 15.5582 17.2974Z" fill="#FDFCEE"/>
<path id="Vector_6" d="M15.7616 17.4596H4.23796C2.75622 17.4596 1.55084 16.3189 1.55084 14.9166V4.01071C1.55084 2.60841 2.75622 1.46765 4.23796 1.46765H15.2113C15.3059 1.46765 15.3828 1.54046 15.3828 1.62995C15.3828 1.71945 15.3059 1.79226 15.2113 1.79226H4.23796C2.94536 1.79226 1.89384 2.78741 1.89384 4.01071V14.9161C1.89384 16.1394 2.94536 17.1346 4.23796 17.1346H15.7616C17.0542 17.1346 18.1057 16.1394 18.1057 14.9161V8.88307C18.1057 8.79357 18.1826 8.72076 18.2772 8.72076C18.3718 8.72076 18.4487 8.79357 18.4487 8.88307V14.9161C18.4487 16.3189 17.2433 17.4596 15.7616 17.4596Z" fill="white"/>
<path id="Vector_7" d="M18.2772 8.17546C18.1826 8.17546 18.1057 8.10265 18.1057 8.01315V6.85245C18.1057 6.76295 18.1826 6.69015 18.2772 6.69015C18.3718 6.69015 18.4487 6.76295 18.4487 6.85245V8.01315C18.4487 8.10265 18.3718 8.17546 18.2772 8.17546ZM18.2772 6.43463C18.1826 6.43463 18.1057 6.36183 18.1057 6.27233V5.69221C18.1057 5.60271 18.1826 5.52991 18.2772 5.52991C18.3718 5.52991 18.4487 5.60271 18.4487 5.69221V6.27233C18.4487 6.36183 18.3718 6.43463 18.2772 6.43463Z" fill="white"/>
<path id="Vector_8" d="M14.4562 10.2752V13.0923H12.7015L12.677 10.2993C12.677 9.59213 12.337 9.08945 11.6662 9.08945C11.1541 9.08945 10.8508 9.41359 10.7166 9.72846C10.6686 9.84022 10.6544 9.99789 10.6544 10.1551V13.0923H8.87716C8.87716 13.0923 8.90117 8.32709 8.87716 7.83415H10.6544V8.64567C10.6504 8.65169 10.6465 8.65819 10.6421 8.66421H10.6544V8.64567C10.9013 8.25521 11.3521 7.80076 12.3365 7.80076C13.5561 7.79844 14.4562 8.51768 14.4562 10.2752ZM6.85839 5.35461C6.3096 5.35461 5.95142 5.71075 5.95142 6.17912C5.95142 6.63681 6.29882 7.00362 6.83732 7.00362H6.84761C7.40718 7.00362 7.75459 6.63681 7.75459 6.17912C7.74283 5.71122 7.40571 5.35461 6.85839 5.35461ZM5.97592 13.0923H7.73058V7.83415H5.97592V13.0923Z" fill="#308D88"/>
<path id="Vector_9" d="M14.4562 13.2547H12.7015C12.6075 13.2547 12.5305 13.1828 12.53 13.0938L12.506 10.3008C12.506 9.98451 12.4242 9.25183 11.6667 9.25183C11.1605 9.25183 10.9449 9.62791 10.8763 9.78928C10.843 9.8658 10.8263 9.98868 10.8263 10.1552V13.0924C10.8263 13.1819 10.7494 13.2547 10.6548 13.2547H8.87764C8.83207 13.2547 8.78797 13.2375 8.75612 13.2069C8.72378 13.1763 8.70565 13.1346 8.70614 13.0915C8.70614 13.0437 8.72966 8.32438 8.70614 7.84118C8.70418 7.79666 8.72084 7.754 8.75367 7.72154C8.78601 7.68954 8.8306 7.67145 8.87764 7.67145H10.6548C10.7494 7.67145 10.8263 7.74426 10.8263 7.83376V8.16996C11.2017 7.81289 11.7 7.63807 12.337 7.63807C12.3389 7.63807 12.3409 7.63807 12.3424 7.63807C12.9892 7.63807 13.5159 7.82541 13.9064 8.19453C14.3851 8.64667 14.6277 9.34689 14.6277 10.2748V13.0919C14.6282 13.1819 14.5513 13.2547 14.4562 13.2547ZM12.8721 12.9301H14.2852V10.2753C14.2852 9.43639 14.0765 8.81361 13.6644 8.42454C13.34 8.11802 12.8951 7.96267 12.3424 7.96267C12.3409 7.96267 12.3389 7.96267 12.3375 7.96267C11.4119 7.96267 11.0238 8.38559 10.8131 8.71205C10.7641 8.8303 10.5647 8.85302 10.5 8.74358C10.4745 8.70046 10.4667 8.64945 10.4838 8.60493V7.99606H9.05403C9.06873 8.86554 9.05403 12.145 9.0506 12.9296H10.4838V10.1547C10.4838 9.94278 10.5083 9.78325 10.5588 9.66686C10.7563 9.2036 11.1713 8.92676 11.6672 8.92676C12.3963 8.92676 12.8495 9.45262 12.8495 10.2989L12.8721 12.9301ZM7.73057 13.2547H5.9759C5.88134 13.2547 5.80441 13.1819 5.80441 13.0924V7.83422C5.80441 7.74472 5.88134 7.67192 5.9759 7.67192H7.73057C7.82513 7.67192 7.90206 7.74472 7.90206 7.83422V13.0924C7.90206 13.1819 7.82513 13.2547 7.73057 13.2547ZM6.1474 12.9301H7.55858V7.99652H6.1474V12.9301ZM6.84809 7.16599C6.22482 7.16599 5.77991 6.75096 5.77991 6.17919C5.77991 5.60742 6.23364 5.19238 6.85838 5.19238C7.47185 5.19238 7.91137 5.59675 7.92656 6.17501C7.92656 6.75096 7.47283 7.16599 6.84809 7.16599ZM6.85838 5.51745C6.41886 5.51745 6.12339 5.78363 6.12339 6.17965C6.12339 6.56964 6.41739 6.84185 6.8378 6.84185C7.2881 6.84185 7.58357 6.57567 7.58357 6.17965C7.57279 5.77899 7.28859 5.51745 6.85838 5.51745Z" fill="white"/>
<path id="Vector_10" d="M5.7814 17.5459C5.77258 17.5459 5.76376 17.545 5.75445 17.5431C5.6883 17.5292 5.64715 17.4671 5.66185 17.4045C5.67851 17.334 5.70398 17.2654 5.73828 17.2004C6.00974 16.6797 6.75943 16.4872 7.40916 16.7715C7.4704 16.7984 7.49735 16.8675 7.46894 16.9255C7.44052 16.9839 7.36751 17.0085 7.30626 16.982C6.77658 16.7506 6.17144 16.8944 5.9578 17.3029C5.93281 17.3512 5.9137 17.4022 5.90096 17.455C5.88822 17.5088 5.83775 17.5459 5.7814 17.5459ZM3.48628 19.9999H2.99335C2.85811 19.9999 2.74835 19.8961 2.74835 19.7681C2.74835 19.6401 2.85811 19.5362 2.99335 19.5362H3.48579C3.62103 19.5362 3.73079 19.6401 3.73079 19.7681C3.73079 19.8961 3.62152 19.9999 3.48628 19.9999Z" fill="white"/>
</g>
</svg>
