<svg width="21" height="21" viewBox="0 0 21 21" fill="none" xmlns="http://www.w3.org/2000/svg">
<g id="Group 5">
<path id="Vector" d="M20.7866 4.98938C19.9821 4.9393 19.2897 5.46517 19.2397 6.164C19.2334 6.25072 19.2378 6.33604 19.251 6.41905C19.0957 6.25304 18.8659 6.14082 18.6023 6.12412C18.1196 6.09398 17.7026 6.39587 17.6424 6.80626C17.5547 6.78354 17.463 6.76824 17.368 6.76221C16.6639 6.71862 16.0577 7.17863 16.0146 7.78982" fill="#FDFCEF"/>
<path id="Vector_2" d="M16.0151 7.90618C16.0122 7.90618 16.0092 7.90618 16.0068 7.90618C15.9391 7.90201 15.8882 7.84682 15.8926 7.78283C15.9406 7.10857 16.6046 6.59755 17.3763 6.64716C17.4331 6.65087 17.491 6.65737 17.5493 6.66803C17.6767 6.26088 18.1167 5.9794 18.6106 6.00908C18.7953 6.02067 18.9683 6.07354 19.1177 6.16211C19.1177 6.16025 19.1177 6.1584 19.1177 6.15654C19.1721 5.39557 19.9272 4.82472 20.795 4.87434C20.8626 4.87852 20.9135 4.9337 20.9091 4.99769C20.9047 5.06169 20.8449 5.11038 20.7788 5.10574C20.037 5.05844 19.4073 5.5384 19.3622 6.17231C19.3568 6.24883 19.3603 6.32627 19.3725 6.40232C19.3809 6.45286 19.3524 6.50295 19.3034 6.52474C19.2554 6.54654 19.1961 6.53541 19.1599 6.49645C19.0202 6.3476 18.8144 6.25439 18.5944 6.24048C18.1799 6.21451 17.8158 6.47049 17.7639 6.82292C17.759 6.85584 17.7394 6.88506 17.7105 6.90361C17.6811 6.92215 17.6443 6.92726 17.611 6.91891C17.5262 6.89758 17.442 6.88366 17.3606 6.87903C16.7222 6.83961 16.1763 7.25233 16.1371 7.7986C16.1327 7.85934 16.0788 7.90618 16.0151 7.90618Z" fill="white"/>
<path id="Vector_3" d="M17.292 19.4608H4.68847C2.84316 19.4608 1.3335 18.0321 1.3335 16.2857V4.35775C1.3335 2.61136 2.84316 1.18262 4.68847 1.18262H17.292C19.1374 1.18262 20.647 2.61136 20.647 4.35775V16.2857C20.6475 18.0321 19.1374 19.4608 17.292 19.4608Z" fill="#308D88"/>
<path id="Vector_4" d="M17.2925 19.7859H4.68845C2.6491 19.7859 0.98999 18.2158 0.98999 16.2862V4.35777C0.98999 2.42774 2.6491 0.858032 4.68845 0.858032H17.292C19.3314 0.858032 20.99 2.42821 20.99 4.35777V16.2857C20.9905 18.2158 19.3314 19.7859 17.2925 19.7859ZM4.68845 1.50725C3.02738 1.50725 1.67647 2.78574 1.67647 4.35777V16.2857C1.67647 17.8578 3.02787 19.1362 4.68845 19.1362H17.292C18.9531 19.1362 20.304 17.8578 20.304 16.2857V4.35777C20.304 2.78574 18.9531 1.50725 17.292 1.50725H4.68845Z" fill="white"/>
<path id="Vector_5" d="M16.5487 18.1555H5.43176C3.93631 18.1555 2.7128 16.9976 2.7128 15.5823V5.06125C2.7128 3.64596 3.93631 2.48804 5.43176 2.48804H16.5487C18.0442 2.48804 19.2677 3.64596 19.2677 5.06125V15.5823C19.2677 16.9976 18.0442 18.1555 16.5487 18.1555Z" fill="#FDFCEE"/>
<path id="Vector_6" d="M16.7521 18.3178H5.22844C3.7467 18.3178 2.54132 17.177 2.54132 15.7747V4.86924C2.54132 3.46694 3.7467 2.32617 5.22844 2.32617H16.2018C16.2964 2.32617 16.3733 2.39898 16.3733 2.48848C16.3733 2.57798 16.2964 2.65078 16.2018 2.65078H5.22844C3.93584 2.65078 2.88432 3.64594 2.88432 4.86924V15.7747C2.88432 16.998 3.93584 17.9931 5.22844 17.9931H16.7521C18.0447 17.9931 19.0962 16.998 19.0962 15.7747V9.74161C19.0962 9.65211 19.1731 9.57931 19.2677 9.57931C19.3623 9.57931 19.4392 9.65211 19.4392 9.74161V15.7747C19.4392 17.177 18.2338 18.3178 16.7521 18.3178Z" fill="white"/>
<path id="Vector_7" d="M19.2677 9.03349C19.1731 9.03349 19.0962 8.96069 19.0962 8.87119V7.71048C19.0962 7.62099 19.1731 7.54818 19.2677 7.54818C19.3623 7.54818 19.4392 7.62099 19.4392 7.71048V8.87119C19.4392 8.96069 19.3627 9.03349 19.2677 9.03349ZM19.2677 7.29267C19.1731 7.29267 19.0962 7.21986 19.0962 7.13036V6.55024C19.0962 6.46074 19.1731 6.38794 19.2677 6.38794C19.3623 6.38794 19.4392 6.46074 19.4392 6.55024V7.13036C19.4392 7.21986 19.3627 7.29267 19.2677 7.29267Z" fill="white"/>
<path id="Vector_8" d="M15.9132 7.09931C15.7809 6.7761 15.604 6.5025 15.3149 6.2289C15.0258 5.9553 14.7367 5.7879 14.3952 5.66269C14.0659 5.54119 13.6847 5.45726 13.1345 5.43454C12.5803 5.41181 12.4039 5.40393 10.9902 5.40393C9.57662 5.40393 9.40022 5.40764 8.84604 5.43454C8.29186 5.45726 7.91457 5.54073 7.5853 5.66269C7.24377 5.7879 6.95468 5.9553 6.66558 6.2289C6.37649 6.5025 6.1996 6.7761 6.0673 7.09931C5.93892 7.41094 5.85023 7.77171 5.82622 8.29248C5.80222 8.81695 5.79388 8.98389 5.79388 10.3217C5.79388 11.6596 5.79781 11.8265 5.82622 12.351C5.85023 12.8755 5.93843 13.2326 6.0673 13.5442C6.1996 13.8674 6.37649 14.141 6.66558 14.4146C6.95468 14.6882 7.24377 14.8556 7.5853 14.9808C7.91457 15.1023 8.29578 15.1862 8.84604 15.2089C9.40022 15.2317 9.57662 15.2396 10.9902 15.2396C12.4039 15.2396 12.5803 15.2358 13.1345 15.2089C13.6886 15.1862 14.0659 15.1028 14.3952 14.9808C14.7367 14.8556 15.0258 14.6882 15.3149 14.4146C15.604 14.141 15.7809 13.8674 15.9132 13.5442C16.0416 13.2326 16.1303 12.8718 16.1543 12.351C16.1783 11.8265 16.1866 11.6596 16.1866 10.3217C16.1866 8.98389 16.1827 8.81695 16.1543 8.29248C16.1298 7.768 16.0416 7.41094 15.9132 7.09931Z" fill="#308D88"/>
<path id="Vector_9" d="M10.9902 15.4013C9.58445 15.4013 9.40021 15.3935 8.85191 15.3717C8.31782 15.3494 7.91211 15.2757 7.52305 15.1319C7.13645 14.99 6.8351 14.8041 6.54454 14.5291C6.25397 14.2541 6.05749 13.9684 5.90804 13.6026C5.75565 13.2339 5.67823 12.8499 5.65569 12.3574C5.62727 11.8307 5.62335 11.666 5.62335 10.3212C5.62335 8.98941 5.63168 8.81458 5.6552 8.29567C5.67823 7.79253 5.75614 7.40857 5.90804 7.0399C6.05749 6.67495 6.25397 6.3893 6.54454 6.11385C6.8351 5.83886 7.13645 5.6529 7.52305 5.511C7.9126 5.36725 8.31831 5.29351 8.83868 5.27218C9.39629 5.24529 9.56975 5.24158 10.9902 5.24158C12.4029 5.24158 12.5881 5.24946 13.1364 5.27172C13.6631 5.29351 14.0689 5.36725 14.4574 5.511C14.844 5.65336 15.1459 5.83932 15.4359 6.11385C15.7265 6.38883 15.923 6.67449 16.0729 7.0399C16.2248 7.40857 16.3027 7.79253 16.3253 8.28501C16.3537 8.8118 16.3576 8.97642 16.3576 10.3212C16.3576 11.653 16.3493 11.8279 16.3258 12.3468C16.3027 12.8509 16.2248 13.2348 16.0729 13.603C15.923 13.9684 15.7265 14.2536 15.4359 14.5291C15.1459 14.8036 14.844 14.9896 14.4574 15.1319C14.0684 15.2757 13.6622 15.3494 13.1418 15.3707C12.5847 15.3976 12.4107 15.4013 10.9902 15.4013ZM10.9902 5.56665C9.57808 5.56665 9.40609 5.57036 8.85485 5.59679C8.3727 5.61673 8.00079 5.68351 7.64751 5.81381C7.30745 5.93902 7.04237 6.10225 6.78708 6.34385C6.5318 6.58545 6.35883 6.83633 6.22751 7.15769C6.08983 7.49204 6.01927 7.84401 5.9982 8.29892C5.97419 8.82339 5.96635 8.99636 5.96635 10.3212C5.96635 11.6582 5.97027 11.8214 5.9982 12.3421C6.01878 12.798 6.08983 13.1504 6.22751 13.4843C6.35932 13.8061 6.5318 14.057 6.78708 14.2986C7.04237 14.5402 7.30745 14.7034 7.64751 14.8286C8.0003 14.959 8.37221 15.0257 8.85338 15.0457C9.40952 15.0684 9.5918 15.0758 10.9902 15.0758C12.4024 15.0758 12.5744 15.0721 13.1256 15.0457C13.6083 15.0257 13.9802 14.9585 14.3325 14.8286C14.673 14.7034 14.9381 14.5402 15.1929 14.2986C15.4482 14.057 15.6211 13.8061 15.753 13.4848C15.8906 13.1509 15.9612 12.7989 15.9823 12.3431C16.0063 11.8186 16.0141 11.6456 16.0141 10.3208C16.0141 8.98384 16.0102 8.82061 15.9823 8.29985C15.9617 7.84354 15.8906 7.49157 15.753 7.15769C15.753 7.15769 15.753 7.15769 15.753 7.15723C15.6211 6.83587 15.4482 6.58499 15.1929 6.34339C14.9381 6.10179 14.6725 5.93856 14.3325 5.81335C13.9802 5.68304 13.6083 5.61627 13.1266 5.59633C12.5788 5.57453 12.3955 5.56665 10.9902 5.56665Z" fill="white"/>
<path id="Vector_10" d="M10.9863 7.79492C9.51293 7.79492 8.31638 8.92734 8.31638 10.3218C8.31638 11.7162 9.51293 12.8486 10.9863 12.8486C12.4597 12.8486 13.6563 11.7162 13.6563 10.3218C13.6563 8.92734 12.4597 7.79492 10.9863 7.79492Z" fill="#FDFCEF"/>
<path id="Vector_11" d="M10.9863 13.0113C9.41934 13.0113 8.14487 11.8047 8.14487 10.3217C8.14487 8.83872 9.41983 7.63257 10.9863 7.63257C12.5528 7.63257 13.8283 8.83918 13.8283 10.3217C13.8283 11.8042 12.5533 13.0113 10.9863 13.0113ZM10.9863 7.95718C9.60847 7.95718 8.48786 9.01818 8.48786 10.3217C8.48786 11.6257 9.60896 12.6867 10.9863 12.6867C12.3642 12.6867 13.4853 11.6257 13.4853 10.3217C13.4853 9.01772 12.3642 7.95718 10.9863 7.95718Z" fill="white"/>
<path id="Vector_12" d="M13.8591 6.93555C13.6941 6.93555 13.5358 6.9976 13.4191 7.10804C13.3024 7.21849 13.2368 7.36828 13.2368 7.52448C13.2368 7.68067 13.3024 7.83047 13.4191 7.94092C13.5358 8.05136 13.6941 8.11341 13.8591 8.11341C14.0242 8.11341 14.1825 8.05136 14.2992 7.94092C14.4159 7.83047 14.4814 7.68067 14.4814 7.52448C14.4814 7.36828 14.4159 7.21849 14.2992 7.10804C14.1825 6.9976 14.0242 6.93555 13.8591 6.93555Z" fill="#FDFCEF"/>
<path id="Vector_13" d="M13.8592 8.27576C13.4216 8.27576 13.0654 7.93863 13.0654 7.52453C13.0654 7.10996 13.4216 6.77283 13.8592 6.77283C14.2972 6.77283 14.6534 7.10996 14.6534 7.52453C14.6529 7.93863 14.2967 8.27576 13.8592 8.27576ZM13.8592 7.0979C13.6107 7.0979 13.4084 7.28942 13.4084 7.52453C13.4084 7.75964 13.6107 7.95115 13.8592 7.95115C14.1081 7.95115 14.3099 7.75964 14.3099 7.52453C14.3099 7.28895 14.1081 7.0979 13.8592 7.0979Z" fill="white"/>
<path id="Vector_14" d="M6.77191 18.4039C6.76309 18.4039 6.75427 18.403 6.74496 18.4012C6.67881 18.3873 6.63765 18.3251 6.65235 18.2625C6.6695 18.1916 6.69498 18.1229 6.72928 18.058C7.00122 17.5372 7.75042 17.3453 8.39966 17.6295C8.46091 17.6564 8.48786 17.7255 8.45944 17.7835C8.43102 17.8414 8.3585 17.8665 8.29676 17.8401C7.76708 17.6077 7.16243 17.7519 6.9488 18.1609C6.92332 18.2092 6.90421 18.2602 6.89196 18.3131C6.87873 18.3668 6.82826 18.4039 6.77191 18.4039ZM4.47679 20.858H3.98435C3.84911 20.858 3.73935 20.7541 3.73935 20.6261C3.73935 20.4981 3.84911 20.3943 3.98435 20.3943H4.47679C4.61202 20.3943 4.72178 20.4981 4.72178 20.6261C4.72178 20.7541 4.61202 20.858 4.47679 20.858Z" fill="white"/>
</g>
</svg>
