<svg width="189" height="182" viewBox="0 0 189 182" fill="none" xmlns="http://www.w3.org/2000/svg">
<g filter="url(#filter0_d)">
<path d="M66.9976 42.054L31.8865 54.6213L101.835 112.457L134.171 98.6877L66.9976 42.054Z" fill="#22AFC2" stroke="#7F7A7A"/>
<path d="M72.1608 50.3282L46.0474 60.6865L72.1391 83.2613L98.3487 72.0722L72.1608 50.3282Z" fill="#0F0F0F"/>
<path d="M77.4048 55.39L52.9944 64.8808L68.7055 77.6892L92.1177 68.0103L77.4048 55.39Z" fill="#CAE621"/>
<path d="M101.058 111.629L32.7247 54.947L31.3453 55.5359L31.858 56.1418L49.7433 71.5672L75.0949 92.9838C81.1362 97.8576 94.2751 108.551 98.4998 112.336C102.724 116.12 102.408 124.731 101.722 128.563L101.511 130.39L102.424 130.053L104.289 129.046L105.038 122.566C105.5 118.579 102.577 113.614 101.058 111.629Z" fill="black"/>
<path d="M39.6591 10.0761L11.9387 20.4711L10.9486 21.4729L13.6579 21.9835C15.2291 22.6758 18.7153 24.3629 20.0906 25.5729C21.8098 27.0854 25.1712 30.775 29.377 35.9819C32.7417 40.1475 37.6377 53.1586 39.6651 59.1434L66.6533 48.7802L65.9819 45.7674L64.6472 40.9318L62.1829 34.5251C60.8424 31.8389 57.438 25.4135 54.5451 21.201C51.6521 16.9885 43.4157 12.0292 39.6591 10.0761Z" fill="#FFF3F3"/>
<path d="M37.3061 40.5318L66.9627 63.7785L62.945 83.3947L31.385 61.487L37.3061 40.5318Z" fill="#4D1BB8"/>
<path d="M27.4645 60.0713C27.6644 58.3432 30.1186 56.4402 31.3208 55.7047L32.1763 55.866C53.8145 73.6964 97.6568 110.007 99.9204 112.607C102.75 115.857 103.399 121.582 103.634 123.324C103.87 125.066 102.276 130.029 101.59 130.918C101.042 131.63 98.2247 130.624 96.8847 130.032C75.0373 117.368 30.55 91.5866 27.3803 89.7667C24.2105 87.9469 23.8356 83.0432 24.0443 80.8188C25.1011 74.623 27.2646 61.7993 27.4645 60.0713Z" fill="#22AFC2"/>
<path d="M103.626 115.853C103.029 114.721 102.308 113.397 101.72 112.67L134.67 98.6506C135.027 99.072 136.063 100.31 137.347 101.891C138.63 103.471 138.399 108.952 138.123 111.494L115.466 123.76L104.396 128.901C104.456 128.049 104.556 124.841 104.673 123.18C104.819 121.105 104.16 116.863 103.626 115.853Z" fill="black"/>
<path d="M49.0883 81.4217L50.3073 82.2749C50.812 82.6281 51.1486 83.0085 51.3171 83.4161C51.4889 83.826 51.4787 84.2244 51.2865 84.6113C51.1655 84.8549 50.9908 85.0199 50.7624 85.1063C50.5373 85.1949 50.2818 85.2068 49.996 85.142C49.7153 85.0759 49.4324 84.943 49.1473 84.7435L48.9409 84.599L48.3136 85.8618L47.2518 85.1186L49.0883 81.4217ZM49.5233 84C49.6969 84.1216 49.8509 84.1762 49.9851 84.1639C50.1192 84.1516 50.2237 84.0702 50.2984 83.9198C50.3732 83.7693 50.3817 83.6232 50.3241 83.4815C50.2697 83.342 50.154 83.2104 49.977 83.0865L49.7657 82.9386L49.3172 83.8413C49.3792 83.8944 49.4479 83.9473 49.5233 84ZM51.4255 88.0977C51.1371 87.8959 50.9571 87.6492 50.8855 87.3577C50.8157 87.0626 50.86 86.7557 51.0184 86.4369L51.5389 85.389L51.2243 85.1688L51.5553 84.5025L51.9436 84.7743L52.9053 84.0787L53.4017 84.4261L52.8972 85.4417L53.4675 85.8408L53.1365 86.5071L52.5662 86.1081L52.1125 87.0216C52.068 87.1111 52.0595 87.1993 52.087 87.2862C52.1145 87.373 52.1758 87.4497 52.2708 87.5162C52.3593 87.5782 52.4503 87.6129 52.5437 87.6203L52.2094 88.4001C52.1008 88.3965 51.972 88.3668 51.8231 88.3109C51.6793 88.2536 51.5468 88.1826 51.4255 88.0977ZM53.8252 86.1419L54.8624 86.8678L54.5901 87.4159C54.7705 87.2573 54.9495 87.1726 55.1271 87.1617C55.3098 87.1496 55.488 87.2043 55.6617 87.3258L55.3691 88.3015C55.0578 88.0836 54.8097 87.9607 54.6249 87.9327C54.4451 87.9034 54.316 87.9676 54.2377 88.1252L53.5437 89.5223L52.5065 88.7964L53.8252 86.1419ZM55.9718 91.2796C55.6965 91.087 55.4801 90.8559 55.3225 90.5863C55.1682 90.319 55.0821 90.039 55.064 89.7463C55.0511 89.4524 55.1122 89.1693 55.2474 88.8971C55.3827 88.6248 55.5625 88.4272 55.787 88.3043C56.0132 88.1778 56.2613 88.1318 56.5313 88.1662C56.8045 88.203 57.0788 88.3177 57.3541 88.5103C57.6326 88.7053 57.849 88.9364 58.0033 89.2037C58.1627 89.4697 58.2497 89.7479 58.2645 90.0383C58.2792 90.3286 58.219 90.6099 58.0837 90.8822C57.9467 91.158 57.7651 91.3592 57.5388 91.4857C57.3177 91.6109 57.0696 91.6569 56.7945 91.6238C56.5246 91.5893 56.2503 91.4746 55.9718 91.2796ZM56.382 90.4805C56.5164 90.5745 56.6528 90.5976 56.7914 90.5498C56.9351 90.5007 57.0496 90.3901 57.135 90.2182C57.2204 90.0462 57.2456 89.8756 57.2105 89.7062C57.1805 89.5355 57.0983 89.4031 56.9639 89.3091C56.8296 89.215 56.6905 89.1926 56.5469 89.2417C56.4083 89.2895 56.2963 89.3994 56.2109 89.5714C56.1255 89.7433 56.0978 89.9147 56.1278 90.0853C56.1629 90.2547 56.2476 90.3865 56.382 90.4805ZM59.1008 89.8343L60.0889 90.5258L59.8166 91.0739C60.2131 90.7914 60.6178 90.7946 61.0307 91.0836C61.3453 91.3038 61.5297 91.5994 61.5839 91.9705C61.6431 92.3402 61.5651 92.7418 61.3497 93.1753L60.6824 94.5187L59.6501 93.7962L60.3735 92.3399C60.45 92.1859 60.4776 92.0459 60.4563 91.9199C60.4382 91.7962 60.3751 91.6966 60.267 91.6209C60.1883 91.5658 60.0971 91.5406 59.9932 91.5451C59.8912 91.5461 59.7898 91.5814 59.689 91.6508C59.5915 91.7226 59.5099 91.8248 59.444 91.9573L58.8194 93.2147L57.7822 92.4888L59.1008 89.8343ZM62.0007 95.4992C61.7254 95.3066 61.5588 95.0596 61.5009 94.7584C61.443 94.4571 61.4967 94.1399 61.6622 93.8068L62.4844 92.1517L63.5265 92.8811L62.7284 94.4878C62.6875 94.5702 62.6751 94.6484 62.6913 94.7225C62.7125 94.7953 62.7559 94.8547 62.8215 94.9005C62.887 94.9464 62.9649 94.9719 63.055 94.9771L62.7381 95.7619C62.6357 95.7723 62.5176 95.7524 62.3836 95.702C62.2528 95.654 62.1252 95.5864 62.0007 95.4992ZM63.2056 92.1134C63.0516 92.0056 62.9463 91.8619 62.8898 91.6823C62.8383 91.5015 62.8508 91.334 62.9274 91.18C63.0039 91.0259 63.1236 90.9359 63.2867 90.91C63.4497 90.8841 63.6033 90.9216 63.7475 91.0226C63.8982 91.1281 64.001 91.2724 64.0558 91.4556C64.1138 91.641 64.1063 91.8072 64.0334 91.9541C63.9551 92.1117 63.8344 92.2034 63.6714 92.2293C63.5084 92.2553 63.3531 92.2166 63.2056 92.1134ZM64.1451 97.0001C63.8829 96.8166 63.6787 96.5964 63.5325 96.3396C63.3913 96.0815 63.3158 95.8066 63.3061 95.5149C63.2997 95.2256 63.3632 94.9466 63.4967 94.6779C63.6248 94.42 63.8004 94.2266 64.0233 94.0978C64.2463 93.969 64.4896 93.9148 64.7533 93.9353C65.017 93.9557 65.2734 94.053 65.5224 94.2273C65.8403 94.4498 66.0554 94.6969 66.1677 94.9687L65.7193 95.618C65.5628 95.4263 65.4239 95.2881 65.3026 95.2032C65.1453 95.0931 64.9959 95.0561 64.8543 95.0922C64.7145 95.1247 64.6028 95.2251 64.5191 95.3935C64.4355 95.5619 64.4147 95.7283 64.4566 95.8929C64.4985 96.0574 64.5949 96.1924 64.7456 96.2979C64.8767 96.3897 65.0458 96.467 65.2531 96.53L64.9727 97.3476C64.8311 97.3305 64.6967 97.2944 64.5695 97.2392C64.4406 97.1876 64.2991 97.1079 64.1451 97.0001ZM66.0999 98.3683C65.7558 98.1274 65.4819 97.8609 65.2782 97.5686L65.7089 97.0083C65.8986 97.2666 66.1048 97.4737 66.3277 97.6297C66.4915 97.7444 66.5984 97.7516 66.6482 97.6513C66.6731 97.6011 66.669 97.5427 66.6359 97.4761C66.606 97.4117 66.5318 97.3211 66.4131 97.2043C66.1696 96.9566 66.021 96.7223 65.9674 96.5013C65.917 96.2826 65.9541 96.0478 66.0787 95.7971C66.2324 95.5232 66.4433 95.3788 66.7114 95.3636C66.9795 95.3485 67.2806 95.4579 67.6149 95.6918C67.7853 95.8111 67.9249 95.9257 68.0337 96.0357C68.1476 96.1443 68.2419 96.2611 68.3168 96.3859L67.896 96.9531C67.8205 96.8472 67.7308 96.7433 67.6267 96.6416C67.526 96.5421 67.4379 96.466 67.3626 96.4132C67.2511 96.3352 67.1679 96.2939 67.1128 96.2891C67.0578 96.2844 67.0196 96.3035 66.9982 96.3465C66.9591 96.4253 67.0134 96.5382 67.1613 96.6851C67.431 96.9511 67.604 97.2074 67.6803 97.4539C67.7566 97.7004 67.7333 97.9473 67.6106 98.1945C67.47 98.4775 67.267 98.6371 67.0016 98.6735C66.7413 98.7085 66.4407 98.6068 66.0999 98.3683Z" fill="white"/>
<g filter="url(#filter1_dd)">
<path d="M84.4986 84.7395L79.0849 87.4543L82.3999 90.2862L87.5283 87.5177L84.4986 84.7395Z" fill="#302A2A"/>
<path d="M84.4986 84.7395L79.0849 87.4543L82.3999 90.2862L87.5283 87.5177L84.4986 84.7395Z" stroke="black"/>
</g>
<g filter="url(#filter2_dd)">
<path d="M92.565 80.4875L87.1513 83.2023L90.4663 86.0342L95.5947 83.2657L92.565 80.4875Z" fill="#302A2A"/>
<path d="M92.565 80.4875L87.1513 83.2023L90.4663 86.0342L95.5947 83.2657L92.565 80.4875Z" stroke="black"/>
</g>
<g filter="url(#filter3_dd)">
<path d="M101.206 76.3469L95.792 79.0617L99.1069 81.8936L104.235 79.1251L101.206 76.3469Z" fill="#302A2A"/>
<path d="M101.206 76.3469L95.792 79.0617L99.1069 81.8936L104.235 79.1251L101.206 76.3469Z" stroke="black"/>
</g>
<g filter="url(#filter4_dd)">
<path d="M92.19 91.2844L86.7763 93.9992L90.0913 96.8311L95.2197 94.0626L92.19 91.2844Z" fill="#302A2A"/>
<path d="M92.19 91.2844L86.7763 93.9992L90.0913 96.8311L95.2197 94.0626L92.19 91.2844Z" stroke="black"/>
</g>
<g filter="url(#filter5_dd)">
<path d="M99.979 86.9797L94.5654 89.6945L97.8803 92.5264L103.009 89.7579L99.979 86.9797Z" fill="#302A2A"/>
<path d="M99.979 86.9797L94.5654 89.6945L97.8803 92.5264L103.009 89.7579L99.979 86.9797Z" stroke="black"/>
</g>
<g filter="url(#filter6_dd)">
<path d="M108.042 82.7258L102.628 85.4406L105.943 88.2725L111.071 85.504L108.042 82.7258Z" fill="#302A2A"/>
<path d="M108.042 82.7258L102.628 85.4406L105.943 88.2725L111.071 85.504L108.042 82.7258Z" stroke="black"/>
</g>
<g filter="url(#filter7_dd)">
<path d="M99.0259 97.6672L93.6123 100.382L96.9272 103.214L102.056 100.445L99.0259 97.6672Z" fill="#FF0707"/>
<path d="M99.0259 97.6672L93.6123 100.382L96.9272 103.214L102.056 100.445L99.0259 97.6672Z" stroke="black"/>
</g>
<g filter="url(#filter8_dd)">
<path d="M106.846 93.0285L101.433 95.7433L104.748 98.5753L109.876 95.8067L106.846 93.0285Z" fill="#302A2A"/>
<path d="M106.846 93.0285L101.433 95.7433L104.748 98.5753L109.876 95.8067L106.846 93.0285Z" stroke="black"/>
</g>
<g filter="url(#filter9_dd)">
<path d="M114.065 88.6164L108.651 91.3312L111.966 94.1631L117.095 91.3946L114.065 88.6164Z" fill="#21F035"/>
<path d="M114.065 88.6164L108.651 91.3312L111.966 94.1631L117.095 91.3946L114.065 88.6164Z" stroke="black"/>
</g>
<ellipse rx="3.33739" ry="4.6834" transform="matrix(0.982697 0.185218 -0.11492 0.993375 57.6867 67.124)" fill="#BA8E38"/>
<ellipse rx="3.33739" ry="4.6834" transform="matrix(0.982697 0.185218 -0.11492 0.993375 60.9524 69.0967)" fill="#E9ED23"/>
</g>
<defs>
<filter id="filter0_d" x="0.949219" y="0.0761719" width="187.387" height="181.088" filterUnits="userSpaceOnUse" color-interpolation-filters="sRGB">
<feFlood flood-opacity="0" result="BackgroundImageFix"/>
<feColorMatrix in="SourceAlpha" type="matrix" values="0 0 0 0 0 0 0 0 0 0 0 0 0 0 0 0 0 0 127 0"/>
<feOffset dx="20" dy="20"/>
<feGaussianBlur stdDeviation="15"/>
<feColorMatrix type="matrix" values="0 0 0 0 0 0 0 0 0 0 0 0 0 0 0 0 0 0 0.25 0"/>
<feBlend mode="normal" in2="BackgroundImageFix" result="effect1_dropShadow"/>
<feBlend mode="normal" in="SourceGraphic" in2="effect1_dropShadow" result="shape"/>
</filter>
<filter id="filter1_dd" x="74.1875" y="84.1348" width="54.1921" height="46.7583" filterUnits="userSpaceOnUse" color-interpolation-filters="sRGB">
<feFlood flood-opacity="0" result="BackgroundImageFix"/>
<feColorMatrix in="SourceAlpha" type="matrix" values="0 0 0 0 0 0 0 0 0 0 0 0 0 0 0 0 0 0 127 0"/>
<feOffset dy="4"/>
<feGaussianBlur stdDeviation="2"/>
<feColorMatrix type="matrix" values="0 0 0 0 0 0 0 0 0 0 0 0 0 0 0 0 0 0 0.25 0"/>
<feBlend mode="normal" in2="BackgroundImageFix" result="effect1_dropShadow"/>
<feColorMatrix in="SourceAlpha" type="matrix" values="0 0 0 0 0 0 0 0 0 0 0 0 0 0 0 0 0 0 127 0"/>
<feOffset dx="20" dy="20"/>
<feGaussianBlur stdDeviation="10"/>
<feColorMatrix type="matrix" values="0 0 0 0 0 0 0 0 0 0 0 0 0 0 0 0 0 0 0.25 0"/>
<feBlend mode="normal" in2="effect1_dropShadow" result="effect2_dropShadow"/>
<feBlend mode="normal" in="SourceGraphic" in2="effect2_dropShadow" result="shape"/>
</filter>
<filter id="filter2_dd" x="82.2539" y="79.8828" width="54.1921" height="46.7583" filterUnits="userSpaceOnUse" color-interpolation-filters="sRGB">
<feFlood flood-opacity="0" result="BackgroundImageFix"/>
<feColorMatrix in="SourceAlpha" type="matrix" values="0 0 0 0 0 0 0 0 0 0 0 0 0 0 0 0 0 0 127 0"/>
<feOffset dy="4"/>
<feGaussianBlur stdDeviation="2"/>
<feColorMatrix type="matrix" values="0 0 0 0 0 0 0 0 0 0 0 0 0 0 0 0 0 0 0.25 0"/>
<feBlend mode="normal" in2="BackgroundImageFix" result="effect1_dropShadow"/>
<feColorMatrix in="SourceAlpha" type="matrix" values="0 0 0 0 0 0 0 0 0 0 0 0 0 0 0 0 0 0 127 0"/>
<feOffset dx="20" dy="20"/>
<feGaussianBlur stdDeviation="10"/>
<feColorMatrix type="matrix" values="0 0 0 0 0 0 0 0 0 0 0 0 0 0 0 0 0 0 0.25 0"/>
<feBlend mode="normal" in2="effect1_dropShadow" result="effect2_dropShadow"/>
<feBlend mode="normal" in="SourceGraphic" in2="effect2_dropShadow" result="shape"/>
</filter>
<filter id="filter3_dd" x="90.8945" y="75.7422" width="54.1921" height="46.7583" filterUnits="userSpaceOnUse" color-interpolation-filters="sRGB">
<feFlood flood-opacity="0" result="BackgroundImageFix"/>
<feColorMatrix in="SourceAlpha" type="matrix" values="0 0 0 0 0 0 0 0 0 0 0 0 0 0 0 0 0 0 127 0"/>
<feOffset dy="4"/>
<feGaussianBlur stdDeviation="2"/>
<feColorMatrix type="matrix" values="0 0 0 0 0 0 0 0 0 0 0 0 0 0 0 0 0 0 0.25 0"/>
<feBlend mode="normal" in2="BackgroundImageFix" result="effect1_dropShadow"/>
<feColorMatrix in="SourceAlpha" type="matrix" values="0 0 0 0 0 0 0 0 0 0 0 0 0 0 0 0 0 0 127 0"/>
<feOffset dx="20" dy="20"/>
<feGaussianBlur stdDeviation="10"/>
<feColorMatrix type="matrix" values="0 0 0 0 0 0 0 0 0 0 0 0 0 0 0 0 0 0 0.25 0"/>
<feBlend mode="normal" in2="effect1_dropShadow" result="effect2_dropShadow"/>
<feBlend mode="normal" in="SourceGraphic" in2="effect2_dropShadow" result="shape"/>
</filter>
<filter id="filter4_dd" x="81.8789" y="90.6797" width="54.1921" height="46.7583" filterUnits="userSpaceOnUse" color-interpolation-filters="sRGB">
<feFlood flood-opacity="0" result="BackgroundImageFix"/>
<feColorMatrix in="SourceAlpha" type="matrix" values="0 0 0 0 0 0 0 0 0 0 0 0 0 0 0 0 0 0 127 0"/>
<feOffset dy="4"/>
<feGaussianBlur stdDeviation="2"/>
<feColorMatrix type="matrix" values="0 0 0 0 0 0 0 0 0 0 0 0 0 0 0 0 0 0 0.25 0"/>
<feBlend mode="normal" in2="BackgroundImageFix" result="effect1_dropShadow"/>
<feColorMatrix in="SourceAlpha" type="matrix" values="0 0 0 0 0 0 0 0 0 0 0 0 0 0 0 0 0 0 127 0"/>
<feOffset dx="20" dy="20"/>
<feGaussianBlur stdDeviation="10"/>
<feColorMatrix type="matrix" values="0 0 0 0 0 0 0 0 0 0 0 0 0 0 0 0 0 0 0.25 0"/>
<feBlend mode="normal" in2="effect1_dropShadow" result="effect2_dropShadow"/>
<feBlend mode="normal" in="SourceGraphic" in2="effect2_dropShadow" result="shape"/>
</filter>
<filter id="filter5_dd" x="89.668" y="86.375" width="54.1921" height="46.7583" filterUnits="userSpaceOnUse" color-interpolation-filters="sRGB">
<feFlood flood-opacity="0" result="BackgroundImageFix"/>
<feColorMatrix in="SourceAlpha" type="matrix" values="0 0 0 0 0 0 0 0 0 0 0 0 0 0 0 0 0 0 127 0"/>
<feOffset dy="4"/>
<feGaussianBlur stdDeviation="2"/>
<feColorMatrix type="matrix" values="0 0 0 0 0 0 0 0 0 0 0 0 0 0 0 0 0 0 0.25 0"/>
<feBlend mode="normal" in2="BackgroundImageFix" result="effect1_dropShadow"/>
<feColorMatrix in="SourceAlpha" type="matrix" values="0 0 0 0 0 0 0 0 0 0 0 0 0 0 0 0 0 0 127 0"/>
<feOffset dx="20" dy="20"/>
<feGaussianBlur stdDeviation="10"/>
<feColorMatrix type="matrix" values="0 0 0 0 0 0 0 0 0 0 0 0 0 0 0 0 0 0 0.25 0"/>
<feBlend mode="normal" in2="effect1_dropShadow" result="effect2_dropShadow"/>
<feBlend mode="normal" in="SourceGraphic" in2="effect2_dropShadow" result="shape"/>
</filter>
<filter id="filter6_dd" x="97.7305" y="82.1211" width="54.1921" height="46.7583" filterUnits="userSpaceOnUse" color-interpolation-filters="sRGB">
<feFlood flood-opacity="0" result="BackgroundImageFix"/>
<feColorMatrix in="SourceAlpha" type="matrix" values="0 0 0 0 0 0 0 0 0 0 0 0 0 0 0 0 0 0 127 0"/>
<feOffset dy="4"/>
<feGaussianBlur stdDeviation="2"/>
<feColorMatrix type="matrix" values="0 0 0 0 0 0 0 0 0 0 0 0 0 0 0 0 0 0 0.25 0"/>
<feBlend mode="normal" in2="BackgroundImageFix" result="effect1_dropShadow"/>
<feColorMatrix in="SourceAlpha" type="matrix" values="0 0 0 0 0 0 0 0 0 0 0 0 0 0 0 0 0 0 127 0"/>
<feOffset dx="20" dy="20"/>
<feGaussianBlur stdDeviation="10"/>
<feColorMatrix type="matrix" values="0 0 0 0 0 0 0 0 0 0 0 0 0 0 0 0 0 0 0.25 0"/>
<feBlend mode="normal" in2="effect1_dropShadow" result="effect2_dropShadow"/>
<feBlend mode="normal" in="SourceGraphic" in2="effect2_dropShadow" result="shape"/>
</filter>
<filter id="filter7_dd" x="88.7148" y="97.0625" width="54.1921" height="46.7583" filterUnits="userSpaceOnUse" color-interpolation-filters="sRGB">
<feFlood flood-opacity="0" result="BackgroundImageFix"/>
<feColorMatrix in="SourceAlpha" type="matrix" values="0 0 0 0 0 0 0 0 0 0 0 0 0 0 0 0 0 0 127 0"/>
<feOffset dy="4"/>
<feGaussianBlur stdDeviation="2"/>
<feColorMatrix type="matrix" values="0 0 0 0 0 0 0 0 0 0 0 0 0 0 0 0 0 0 0.25 0"/>
<feBlend mode="normal" in2="BackgroundImageFix" result="effect1_dropShadow"/>
<feColorMatrix in="SourceAlpha" type="matrix" values="0 0 0 0 0 0 0 0 0 0 0 0 0 0 0 0 0 0 127 0"/>
<feOffset dx="20" dy="20"/>
<feGaussianBlur stdDeviation="10"/>
<feColorMatrix type="matrix" values="0 0 0 0 0 0 0 0 0 0 0 0 0 0 0 0 0 0 0.25 0"/>
<feBlend mode="normal" in2="effect1_dropShadow" result="effect2_dropShadow"/>
<feBlend mode="normal" in="SourceGraphic" in2="effect2_dropShadow" result="shape"/>
</filter>
<filter id="filter8_dd" x="96.5352" y="92.4238" width="54.1921" height="46.7583" filterUnits="userSpaceOnUse" color-interpolation-filters="sRGB">
<feFlood flood-opacity="0" result="BackgroundImageFix"/>
<feColorMatrix in="SourceAlpha" type="matrix" values="0 0 0 0 0 0 0 0 0 0 0 0 0 0 0 0 0 0 127 0"/>
<feOffset dy="4"/>
<feGaussianBlur stdDeviation="2"/>
<feColorMatrix type="matrix" values="0 0 0 0 0 0 0 0 0 0 0 0 0 0 0 0 0 0 0.25 0"/>
<feBlend mode="normal" in2="BackgroundImageFix" result="effect1_dropShadow"/>
<feColorMatrix in="SourceAlpha" type="matrix" values="0 0 0 0 0 0 0 0 0 0 0 0 0 0 0 0 0 0 127 0"/>
<feOffset dx="20" dy="20"/>
<feGaussianBlur stdDeviation="10"/>
<feColorMatrix type="matrix" values="0 0 0 0 0 0 0 0 0 0 0 0 0 0 0 0 0 0 0.25 0"/>
<feBlend mode="normal" in2="effect1_dropShadow" result="effect2_dropShadow"/>
<feBlend mode="normal" in="SourceGraphic" in2="effect2_dropShadow" result="shape"/>
</filter>
<filter id="filter9_dd" x="103.754" y="88.0117" width="54.1921" height="46.7583" filterUnits="userSpaceOnUse" color-interpolation-filters="sRGB">
<feFlood flood-opacity="0" result="BackgroundImageFix"/>
<feColorMatrix in="SourceAlpha" type="matrix" values="0 0 0 0 0 0 0 0 0 0 0 0 0 0 0 0 0 0 127 0"/>
<feOffset dy="4"/>
<feGaussianBlur stdDeviation="2"/>
<feColorMatrix type="matrix" values="0 0 0 0 0 0 0 0 0 0 0 0 0 0 0 0 0 0 0.25 0"/>
<feBlend mode="normal" in2="BackgroundImageFix" result="effect1_dropShadow"/>
<feColorMatrix in="SourceAlpha" type="matrix" values="0 0 0 0 0 0 0 0 0 0 0 0 0 0 0 0 0 0 127 0"/>
<feOffset dx="20" dy="20"/>
<feGaussianBlur stdDeviation="10"/>
<feColorMatrix type="matrix" values="0 0 0 0 0 0 0 0 0 0 0 0 0 0 0 0 0 0 0.25 0"/>
<feBlend mode="normal" in2="effect1_dropShadow" result="effect2_dropShadow"/>
<feBlend mode="normal" in="SourceGraphic" in2="effect2_dropShadow" result="shape"/>
</filter>
</defs>
</svg>
