<svg width="192" height="147" viewBox="0 0 192 147" fill="none" xmlns="http://www.w3.org/2000/svg">
<path d="M81.5671 39.4348L33.7682 52.7777L129.041 114.316L173.061 99.693L81.5671 39.4348Z" fill="#22AFC2" stroke="#7F7A7A"/>
<path d="M88.6047 48.2348L53.0555 59.2339L88.5942 83.253L124.274 71.3706L88.6047 48.2348Z" fill="#0F0F0F"/>
<path d="M95.7462 53.6207L62.5153 63.6984L83.9145 77.3268L115.786 67.0485L95.7462 53.6207Z" fill="#CAE621"/>
<path d="M127.985 113.434L34.9116 53.1232L33.0337 53.7486L33.7321 54.3932L58.0931 70.8055L92.6232 93.5927C100.852 98.7786 118.747 110.157 124.502 114.183C130.256 118.21 129.83 127.365 128.898 131.44L128.612 133.383L129.855 133.025L132.393 131.956L133.41 125.066C134.036 120.826 130.054 115.544 127.985 113.434Z" fill="black"/>
<path d="M44.3313 5.41535L6.59408 16.4525L5.24655 17.5172L8.9357 18.0618C11.0754 18.7988 15.8231 20.5947 17.6964 21.8821C20.038 23.4913 24.617 27.4164 30.3465 32.9555C34.93 37.3868 41.6038 51.2245 44.3677 57.5894L81.108 46.5856L80.1921 43.3817L78.372 38.2391L75.013 31.4253C73.1863 28.5683 68.5473 21.7341 64.606 17.2532C60.6646 12.7723 49.4473 7.49426 44.3313 5.41535Z" fill="#FFF3F3"/>
<path d="M41.1384 37.7985L81.5312 62.5341L76.072 83.3901L33.0884 60.0772L41.1384 37.7985Z" fill="#4D1BB8"/>
<path d="M27.7566 58.5709C28.0277 56.7336 31.3683 54.7115 33.0047 53.9301L34.1697 54.1021C63.6418 73.0739 123.357 111.709 126.44 114.475C130.295 117.932 131.182 124.02 131.504 125.873C131.825 127.725 129.658 133.001 128.725 133.947C127.978 134.703 124.142 133.631 122.317 133.001C92.5631 119.523 31.9759 92.0834 27.659 90.1465C23.3421 88.2096 22.8288 82.9952 23.1118 80.6301C24.547 74.0426 27.4854 60.4082 27.7566 58.5709Z" fill="#22AFC2"/>
<path d="M131.485 117.925C130.67 116.722 129.688 115.313 128.888 114.541L173.743 99.6521C174.23 100.1 175.641 101.417 177.39 103.099C179.138 104.78 178.826 110.608 178.451 113.311L147.611 126.341L132.54 131.8C132.621 130.895 132.755 127.484 132.914 125.718C133.112 123.511 132.212 119 131.485 117.925Z" fill="black"/>
<path d="M56.483 82.4635L58.2238 83.4154C58.9444 83.8094 59.4154 84.249 59.6368 84.734C59.8629 85.2215 59.8214 85.7084 59.5124 86.1945C59.3178 86.5005 59.0493 86.7146 58.7068 86.8366C58.3691 86.9613 57.9917 86.9945 57.5746 86.9363C57.1651 86.8761 56.7568 86.7347 56.3497 86.5121L56.0549 86.3509L55.0464 87.9374L53.5302 87.1084L56.483 82.4635ZM56.9533 85.5775C57.2013 85.7131 57.4247 85.7685 57.6233 85.7437C57.822 85.7189 57.9814 85.612 58.1015 85.423C58.2217 85.2339 58.244 85.055 58.1684 84.8863C58.0974 84.7201 57.9356 84.568 57.6829 84.4298L57.3811 84.2647L56.6601 85.399C56.748 85.4591 56.8457 85.5187 56.9533 85.5775ZM59.4861 90.4381C59.0743 90.2129 58.8253 89.9251 58.7391 89.5746C58.6557 89.2197 58.7413 88.842 58.996 88.4414L59.8329 87.1249L59.3837 86.8792L59.9159 86.0421L60.4704 86.3453L61.9343 85.4263L62.6432 85.8139L61.8321 87.0899L62.6463 87.5352L62.1141 88.3723L61.2999 87.9271L60.5703 89.0748C60.4987 89.1873 60.4804 89.2956 60.5152 89.3995C60.55 89.5035 60.6353 89.5926 60.771 89.6668C60.8973 89.7359 61.0291 89.7715 61.1664 89.7738L60.6217 90.7497C60.4618 90.7533 60.2739 90.7264 60.0581 90.669C59.8499 90.6097 59.6592 90.5327 59.4861 90.4381ZM63.1537 87.8763L64.6347 88.6862L64.1969 89.3749C64.4734 89.1682 64.7429 89.0517 65.0055 89.0255C65.2757 88.9973 65.5347 89.051 65.7828 89.1866L65.2867 90.3984C64.8422 90.1553 64.4846 90.0235 64.2139 90.0028C63.9508 89.9803 63.7563 90.068 63.6304 90.266L62.5145 92.0214L61.0335 91.2115L63.1537 87.8763ZM65.9777 93.988C65.5847 93.773 65.2809 93.5068 65.0665 93.1894C64.8568 92.8746 64.7483 92.5393 64.7411 92.1835C64.7415 91.8259 64.8504 91.476 65.0678 91.1339C65.2853 90.7919 65.5635 90.5377 65.9026 90.3713C66.2446 90.2004 66.6134 90.1261 67.0091 90.1484C67.4095 90.1733 67.8063 90.2932 68.1993 90.5081C68.5971 90.7256 68.9008 90.9918 69.1106 91.3067C69.3278 91.6196 69.4377 91.9526 69.4402 92.3058C69.4427 92.659 69.3353 93.0066 69.1178 93.3487C68.8975 93.6952 68.6164 93.9539 68.2744 94.1248C67.94 94.2937 67.5712 94.368 67.1679 94.3477C66.7722 94.3254 66.3755 94.2055 65.9777 93.988ZM66.6355 92.9829C66.8274 93.0879 67.0271 93.1061 67.2346 93.0376C67.4496 92.9671 67.6258 92.8239 67.7631 92.6079C67.9005 92.3918 67.9489 92.1817 67.9084 91.9776C67.8754 91.7716 67.763 91.6161 67.5712 91.5112C67.3793 91.4063 67.1759 91.389 66.9608 91.4595C66.7533 91.5279 66.5809 91.6702 66.4436 91.8863C66.3062 92.1023 66.254 92.3133 66.287 92.5194C66.3275 92.7235 66.4437 92.878 66.6355 92.9829ZM70.6868 91.9958L72.0977 92.7673L71.6599 93.4559C72.2632 93.0822 72.8597 93.0566 73.4493 93.379C73.8985 93.6247 74.1507 93.9719 74.206 94.4206C74.2688 94.8674 74.1271 95.3631 73.7809 95.9077L72.7079 97.5955L71.2339 96.7895L72.397 94.9599C72.52 94.7664 72.57 94.5935 72.5469 94.4414C72.5285 94.2918 72.4421 94.1748 72.2876 94.0903C72.1753 94.0289 72.0425 94.0048 71.8891 94.018C71.7385 94.0266 71.5867 94.077 71.4335 94.1692C71.285 94.2639 71.1578 94.3945 71.052 94.561L70.0477 96.1408L68.5667 95.3309L70.6868 91.9958ZM74.5864 98.6956C74.1934 98.4806 73.9641 98.1915 73.8987 97.8282C73.8333 97.4649 73.9336 97.0739 74.1997 96.6553L75.5216 94.5759L77.0096 95.3897L75.7264 97.4083C75.6606 97.5118 75.6371 97.6082 75.6561 97.6974C75.6826 97.7847 75.7426 97.8539 75.8362 97.9051C75.9298 97.9563 76.0429 97.9817 76.1755 97.9815L75.6561 98.9621C75.5046 98.9823 75.3317 98.9666 75.1375 98.915C74.9479 98.866 74.7643 98.7928 74.5864 98.6956ZM76.5875 94.4765C76.3676 94.3562 76.2219 94.1886 76.1505 93.9736C76.0865 93.7567 76.1161 93.5515 76.2391 93.3579C76.3622 93.1644 76.5447 93.0459 76.7868 93.0024C77.0289 92.9588 77.2529 92.9934 77.4588 93.106C77.674 93.2237 77.8159 93.3923 77.8845 93.6117C77.9578 93.8337 77.9357 94.037 77.8184 94.2216C77.6925 94.4196 77.5086 94.5404 77.2665 94.5839C77.0244 94.6274 76.7981 94.5916 76.5875 94.4765ZM77.6484 100.37C77.274 100.165 76.9876 99.9116 76.789 99.6089C76.598 99.3043 76.505 98.9744 76.51 98.6193C76.5198 98.2668 76.6319 97.9217 76.8465 97.5841C77.0525 97.2601 77.3242 97.0113 77.6614 96.8379C77.9987 96.6645 78.361 96.5806 78.7484 96.5862C79.1358 96.5918 79.5074 96.6918 79.863 96.8863C80.3169 97.1345 80.6176 97.4203 80.7652 97.7436L80.0611 98.5686C79.843 98.3463 79.6474 98.1877 79.4742 98.0931C79.2496 97.9702 79.0317 97.936 78.8206 97.9904C78.6123 98.0403 78.441 98.171 78.3065 98.3825C78.172 98.594 78.1302 98.7986 78.1811 98.9963C78.232 99.194 78.3651 99.3517 78.5804 99.4694C78.7675 99.5717 79.0118 99.6538 79.3131 99.7154L78.8456 100.734C78.6379 100.723 78.4421 100.689 78.2583 100.631C78.0716 100.577 77.8683 100.49 77.6484 100.37ZM80.4397 101.896C79.9484 101.628 79.5622 101.323 79.2813 100.981L79.9534 100.266C80.216 100.567 80.5063 100.805 80.8245 100.979C81.0585 101.107 81.2155 101.108 81.2956 100.982C81.3357 100.919 81.3335 100.848 81.2891 100.769C81.2493 100.692 81.1459 100.587 80.9787 100.453C80.6361 100.169 80.4326 99.8939 80.3682 99.6282C80.3085 99.3651 80.3787 99.076 80.579 98.7609C80.8238 98.4156 81.1443 98.2239 81.5405 98.1858C81.9368 98.1477 82.3736 98.2592 82.8509 98.5202C83.0942 98.6533 83.2924 98.7829 83.4455 98.9091C83.6062 99.0333 83.7376 99.1689 83.8397 99.3157L83.1816 100.039C83.0773 99.9148 82.9519 99.7946 82.8053 99.6781C82.6634 99.5641 82.5386 99.4776 82.431 99.4188C82.2719 99.3318 82.1519 99.2874 82.071 99.2856C81.9902 99.2839 81.9326 99.31 81.8982 99.364C81.8353 99.463 81.9079 99.5968 82.1162 99.7652C82.4962 100.07 82.7343 100.37 82.8304 100.665C82.9265 100.96 82.8759 101.263 82.6784 101.574C82.4524 101.929 82.1426 102.139 81.7489 102.203C81.3628 102.265 80.9264 102.163 80.4397 101.896Z" fill="white"/>
<g filter="url(#filter0_dd)">
<path d="M105.421 84.8332L98.0513 87.7167L102.566 90.7299L109.548 87.789L105.421 84.8332Z" fill="#302A2A"/>
<path d="M105.421 84.8332L98.0513 87.7167L102.566 90.7299L109.548 87.789L105.421 84.8332Z" stroke="black"/>
</g>
<g filter="url(#filter1_dd)">
<path d="M116.405 80.3175L109.036 83.2011L113.551 86.2142L120.532 83.2734L116.405 80.3175Z" fill="#302A2A"/>
<path d="M116.405 80.3175L109.036 83.2011L113.551 86.2142L120.532 83.2734L116.405 80.3175Z" stroke="black"/>
</g>
<g filter="url(#filter2_dd)">
<path d="M128.163 75.9171L120.794 78.8007L125.309 81.8138L132.29 78.873L128.163 75.9171Z" fill="#302A2A"/>
<path d="M128.163 75.9171L120.794 78.8007L125.309 81.8138L132.29 78.873L128.163 75.9171Z" stroke="black"/>
</g>
<g filter="url(#filter3_dd)">
<path d="M115.897 91.7941L108.528 94.6777L113.043 97.6908L120.024 94.7499L115.897 91.7941Z" fill="#302A2A"/>
<path d="M115.897 91.7941L108.528 94.6777L113.043 97.6908L120.024 94.7499L115.897 91.7941Z" stroke="black"/>
</g>
<g filter="url(#filter4_dd)">
<path d="M126.499 87.2238L119.129 90.1073L123.645 93.1205L130.626 90.1796L126.499 87.2238Z" fill="#302A2A"/>
<path d="M126.499 87.2238L119.129 90.1073L123.645 93.1205L130.626 90.1796L126.499 87.2238Z" stroke="black"/>
</g>
<g filter="url(#filter5_dd)">
<path d="M137.479 82.7043L130.11 85.5878L134.625 88.601L141.606 85.6601L137.479 82.7043Z" fill="#302A2A"/>
<path d="M137.479 82.7043L130.11 85.5878L134.625 88.601L141.606 85.6601L137.479 82.7043Z" stroke="black"/>
</g>
<g filter="url(#filter6_dd)">
<path d="M125.214 98.5871L117.844 101.471L122.359 104.484L129.341 101.543L125.214 98.5871Z" fill="#FF0707"/>
<path d="M125.214 98.5871L117.844 101.471L122.359 104.484L129.341 101.543L125.214 98.5871Z" stroke="black"/>
</g>
<g filter="url(#filter7_dd)">
<path d="M135.858 93.6593L128.489 96.5429L133.004 99.556L139.985 96.6152L135.858 93.6593Z" fill="#302A2A"/>
<path d="M135.858 93.6593L128.489 96.5429L133.004 99.556L139.985 96.6152L135.858 93.6593Z" stroke="black"/>
</g>
<g filter="url(#filter8_dd)">
<path d="M145.683 88.9718L138.313 91.8554L142.828 94.8685L149.809 91.9277L145.683 88.9718Z" fill="#21F035"/>
<path d="M145.683 88.9718L138.313 91.8554L142.828 94.8685L149.809 91.9277L145.683 88.9718Z" stroke="black"/>
</g>
<ellipse cx="68.9036" cy="66.0863" rx="4.5142" ry="5.00023" transform="rotate(8.39645 68.9036 66.0863)" fill="#BA8E38"/>
<ellipse cx="73.3568" cy="68.1859" rx="4.5142" ry="5.00023" transform="rotate(8.39645 73.3568 68.1859)" fill="#E9ED23"/>
<defs>
<filter id="filter0_dd" x="92.5625" y="83.1094" width="58.4214" height="49.2763" filterUnits="userSpaceOnUse" color-interpolation-filters="sRGB">
<feFlood flood-opacity="0" result="BackgroundImageFix"/>
<feColorMatrix in="SourceAlpha" type="matrix" values="0 0 0 0 0 0 0 0 0 0 0 0 0 0 0 0 0 0 127 0"/>
<feOffset dy="4"/>
<feGaussianBlur stdDeviation="2"/>
<feColorMatrix type="matrix" values="0 0 0 0 0 0 0 0 0 0 0 0 0 0 0 0 0 0 0.25 0"/>
<feBlend mode="normal" in2="BackgroundImageFix" result="effect1_dropShadow"/>
<feColorMatrix in="SourceAlpha" type="matrix" values="0 0 0 0 0 0 0 0 0 0 0 0 0 0 0 0 0 0 127 0"/>
<feOffset dx="20" dy="20"/>
<feGaussianBlur stdDeviation="10"/>
<feColorMatrix type="matrix" values="0 0 0 0 0 0 0 0 0 0 0 0 0 0 0 0 0 0 0.25 0"/>
<feBlend mode="normal" in2="effect1_dropShadow" result="effect2_dropShadow"/>
<feBlend mode="normal" in="SourceGraphic" in2="effect2_dropShadow" result="shape"/>
</filter>
<filter id="filter1_dd" x="103.547" y="78.5938" width="58.4214" height="49.2763" filterUnits="userSpaceOnUse" color-interpolation-filters="sRGB">
<feFlood flood-opacity="0" result="BackgroundImageFix"/>
<feColorMatrix in="SourceAlpha" type="matrix" values="0 0 0 0 0 0 0 0 0 0 0 0 0 0 0 0 0 0 127 0"/>
<feOffset dy="4"/>
<feGaussianBlur stdDeviation="2"/>
<feColorMatrix type="matrix" values="0 0 0 0 0 0 0 0 0 0 0 0 0 0 0 0 0 0 0.25 0"/>
<feBlend mode="normal" in2="BackgroundImageFix" result="effect1_dropShadow"/>
<feColorMatrix in="SourceAlpha" type="matrix" values="0 0 0 0 0 0 0 0 0 0 0 0 0 0 0 0 0 0 127 0"/>
<feOffset dx="20" dy="20"/>
<feGaussianBlur stdDeviation="10"/>
<feColorMatrix type="matrix" values="0 0 0 0 0 0 0 0 0 0 0 0 0 0 0 0 0 0 0.25 0"/>
<feBlend mode="normal" in2="effect1_dropShadow" result="effect2_dropShadow"/>
<feBlend mode="normal" in="SourceGraphic" in2="effect2_dropShadow" result="shape"/>
</filter>
<filter id="filter2_dd" x="115.305" y="74.1934" width="58.4214" height="49.2763" filterUnits="userSpaceOnUse" color-interpolation-filters="sRGB">
<feFlood flood-opacity="0" result="BackgroundImageFix"/>
<feColorMatrix in="SourceAlpha" type="matrix" values="0 0 0 0 0 0 0 0 0 0 0 0 0 0 0 0 0 0 127 0"/>
<feOffset dy="4"/>
<feGaussianBlur stdDeviation="2"/>
<feColorMatrix type="matrix" values="0 0 0 0 0 0 0 0 0 0 0 0 0 0 0 0 0 0 0.25 0"/>
<feBlend mode="normal" in2="BackgroundImageFix" result="effect1_dropShadow"/>
<feColorMatrix in="SourceAlpha" type="matrix" values="0 0 0 0 0 0 0 0 0 0 0 0 0 0 0 0 0 0 127 0"/>
<feOffset dx="20" dy="20"/>
<feGaussianBlur stdDeviation="10"/>
<feColorMatrix type="matrix" values="0 0 0 0 0 0 0 0 0 0 0 0 0 0 0 0 0 0 0.25 0"/>
<feBlend mode="normal" in2="effect1_dropShadow" result="effect2_dropShadow"/>
<feBlend mode="normal" in="SourceGraphic" in2="effect2_dropShadow" result="shape"/>
</filter>
<filter id="filter3_dd" x="103.039" y="90.0703" width="58.4214" height="49.2763" filterUnits="userSpaceOnUse" color-interpolation-filters="sRGB">
<feFlood flood-opacity="0" result="BackgroundImageFix"/>
<feColorMatrix in="SourceAlpha" type="matrix" values="0 0 0 0 0 0 0 0 0 0 0 0 0 0 0 0 0 0 127 0"/>
<feOffset dy="4"/>
<feGaussianBlur stdDeviation="2"/>
<feColorMatrix type="matrix" values="0 0 0 0 0 0 0 0 0 0 0 0 0 0 0 0 0 0 0.25 0"/>
<feBlend mode="normal" in2="BackgroundImageFix" result="effect1_dropShadow"/>
<feColorMatrix in="SourceAlpha" type="matrix" values="0 0 0 0 0 0 0 0 0 0 0 0 0 0 0 0 0 0 127 0"/>
<feOffset dx="20" dy="20"/>
<feGaussianBlur stdDeviation="10"/>
<feColorMatrix type="matrix" values="0 0 0 0 0 0 0 0 0 0 0 0 0 0 0 0 0 0 0.25 0"/>
<feBlend mode="normal" in2="effect1_dropShadow" result="effect2_dropShadow"/>
<feBlend mode="normal" in="SourceGraphic" in2="effect2_dropShadow" result="shape"/>
</filter>
<filter id="filter4_dd" x="113.641" y="85.5" width="58.4214" height="49.2763" filterUnits="userSpaceOnUse" color-interpolation-filters="sRGB">
<feFlood flood-opacity="0" result="BackgroundImageFix"/>
<feColorMatrix in="SourceAlpha" type="matrix" values="0 0 0 0 0 0 0 0 0 0 0 0 0 0 0 0 0 0 127 0"/>
<feOffset dy="4"/>
<feGaussianBlur stdDeviation="2"/>
<feColorMatrix type="matrix" values="0 0 0 0 0 0 0 0 0 0 0 0 0 0 0 0 0 0 0.25 0"/>
<feBlend mode="normal" in2="BackgroundImageFix" result="effect1_dropShadow"/>
<feColorMatrix in="SourceAlpha" type="matrix" values="0 0 0 0 0 0 0 0 0 0 0 0 0 0 0 0 0 0 127 0"/>
<feOffset dx="20" dy="20"/>
<feGaussianBlur stdDeviation="10"/>
<feColorMatrix type="matrix" values="0 0 0 0 0 0 0 0 0 0 0 0 0 0 0 0 0 0 0.25 0"/>
<feBlend mode="normal" in2="effect1_dropShadow" result="effect2_dropShadow"/>
<feBlend mode="normal" in="SourceGraphic" in2="effect2_dropShadow" result="shape"/>
</filter>
<filter id="filter5_dd" x="124.621" y="80.9805" width="58.4214" height="49.2763" filterUnits="userSpaceOnUse" color-interpolation-filters="sRGB">
<feFlood flood-opacity="0" result="BackgroundImageFix"/>
<feColorMatrix in="SourceAlpha" type="matrix" values="0 0 0 0 0 0 0 0 0 0 0 0 0 0 0 0 0 0 127 0"/>
<feOffset dy="4"/>
<feGaussianBlur stdDeviation="2"/>
<feColorMatrix type="matrix" values="0 0 0 0 0 0 0 0 0 0 0 0 0 0 0 0 0 0 0.25 0"/>
<feBlend mode="normal" in2="BackgroundImageFix" result="effect1_dropShadow"/>
<feColorMatrix in="SourceAlpha" type="matrix" values="0 0 0 0 0 0 0 0 0 0 0 0 0 0 0 0 0 0 127 0"/>
<feOffset dx="20" dy="20"/>
<feGaussianBlur stdDeviation="10"/>
<feColorMatrix type="matrix" values="0 0 0 0 0 0 0 0 0 0 0 0 0 0 0 0 0 0 0.25 0"/>
<feBlend mode="normal" in2="effect1_dropShadow" result="effect2_dropShadow"/>
<feBlend mode="normal" in="SourceGraphic" in2="effect2_dropShadow" result="shape"/>
</filter>
<filter id="filter6_dd" x="112.355" y="96.8633" width="58.4214" height="49.2763" filterUnits="userSpaceOnUse" color-interpolation-filters="sRGB">
<feFlood flood-opacity="0" result="BackgroundImageFix"/>
<feColorMatrix in="SourceAlpha" type="matrix" values="0 0 0 0 0 0 0 0 0 0 0 0 0 0 0 0 0 0 127 0"/>
<feOffset dy="4"/>
<feGaussianBlur stdDeviation="2"/>
<feColorMatrix type="matrix" values="0 0 0 0 0 0 0 0 0 0 0 0 0 0 0 0 0 0 0.25 0"/>
<feBlend mode="normal" in2="BackgroundImageFix" result="effect1_dropShadow"/>
<feColorMatrix in="SourceAlpha" type="matrix" values="0 0 0 0 0 0 0 0 0 0 0 0 0 0 0 0 0 0 127 0"/>
<feOffset dx="20" dy="20"/>
<feGaussianBlur stdDeviation="10"/>
<feColorMatrix type="matrix" values="0 0 0 0 0 0 0 0 0 0 0 0 0 0 0 0 0 0 0.25 0"/>
<feBlend mode="normal" in2="effect1_dropShadow" result="effect2_dropShadow"/>
<feBlend mode="normal" in="SourceGraphic" in2="effect2_dropShadow" result="shape"/>
</filter>
<filter id="filter7_dd" x="123" y="91.9355" width="58.4214" height="49.2763" filterUnits="userSpaceOnUse" color-interpolation-filters="sRGB">
<feFlood flood-opacity="0" result="BackgroundImageFix"/>
<feColorMatrix in="SourceAlpha" type="matrix" values="0 0 0 0 0 0 0 0 0 0 0 0 0 0 0 0 0 0 127 0"/>
<feOffset dy="4"/>
<feGaussianBlur stdDeviation="2"/>
<feColorMatrix type="matrix" values="0 0 0 0 0 0 0 0 0 0 0 0 0 0 0 0 0 0 0.25 0"/>
<feBlend mode="normal" in2="BackgroundImageFix" result="effect1_dropShadow"/>
<feColorMatrix in="SourceAlpha" type="matrix" values="0 0 0 0 0 0 0 0 0 0 0 0 0 0 0 0 0 0 127 0"/>
<feOffset dx="20" dy="20"/>
<feGaussianBlur stdDeviation="10"/>
<feColorMatrix type="matrix" values="0 0 0 0 0 0 0 0 0 0 0 0 0 0 0 0 0 0 0.25 0"/>
<feBlend mode="normal" in2="effect1_dropShadow" result="effect2_dropShadow"/>
<feBlend mode="normal" in="SourceGraphic" in2="effect2_dropShadow" result="shape"/>
</filter>
<filter id="filter8_dd" x="132.824" y="87.248" width="58.4214" height="49.2763" filterUnits="userSpaceOnUse" color-interpolation-filters="sRGB">
<feFlood flood-opacity="0" result="BackgroundImageFix"/>
<feColorMatrix in="SourceAlpha" type="matrix" values="0 0 0 0 0 0 0 0 0 0 0 0 0 0 0 0 0 0 127 0"/>
<feOffset dy="4"/>
<feGaussianBlur stdDeviation="2"/>
<feColorMatrix type="matrix" values="0 0 0 0 0 0 0 0 0 0 0 0 0 0 0 0 0 0 0.25 0"/>
<feBlend mode="normal" in2="BackgroundImageFix" result="effect1_dropShadow"/>
<feColorMatrix in="SourceAlpha" type="matrix" values="0 0 0 0 0 0 0 0 0 0 0 0 0 0 0 0 0 0 127 0"/>
<feOffset dx="20" dy="20"/>
<feGaussianBlur stdDeviation="10"/>
<feColorMatrix type="matrix" values="0 0 0 0 0 0 0 0 0 0 0 0 0 0 0 0 0 0 0.25 0"/>
<feBlend mode="normal" in2="effect1_dropShadow" result="effect2_dropShadow"/>
<feBlend mode="normal" in="SourceGraphic" in2="effect2_dropShadow" result="shape"/>
</filter>
</defs>
</svg>
