<svg width="199" height="270" viewBox="0 0 199 270" fill="none" xmlns="http://www.w3.org/2000/svg">
<rect width="193" height="270" fill="#2BD0C6"/>
<path d="M88.2517 106.264L40.4786 119.699L135.87 181.053L179.862 166.346L88.2517 106.264Z" fill="#22AFC2" stroke="#7F7A7A"/>
<path d="M95.3055 115.052L59.7775 126.119L95.3625 150.07L131.019 138.119L95.3055 115.052Z" fill="#0F0F0F"/>
<path d="M102.458 120.422L69.2467 130.564L90.6721 144.151L122.524 133.811L102.458 120.422Z" fill="#CAE621"/>
<path d="M134.813 180.175L41.623 120.044L39.7463 120.673L40.446 121.316L64.8386 137.681L99.4126 160.402C107.651 165.572 125.569 176.916 131.331 180.931C137.093 184.946 136.685 194.103 135.761 198.179L135.478 200.123L136.72 199.762L139.257 198.688L140.26 191.796C140.878 187.555 136.886 182.281 134.813 180.175Z" fill="black"/>
<path d="M50.951 72.3176L13.2351 83.4275L11.8897 84.4948L15.5799 85.0322C17.721 85.7651 22.4722 87.5519 24.3479 88.8357C26.6926 90.4404 31.2791 94.3567 37.0193 99.8847C41.6114 104.307 48.3118 118.132 51.088 124.491L87.807 113.417L86.885 110.215L85.055 105.076L81.6829 98.2683C79.8506 95.4149 75.1985 88.5896 71.2484 84.1163C67.2984 79.643 56.071 74.3866 50.951 72.3176Z" fill="#FFF3F3"/>
<path d="M47.8205 104.707L88.261 129.364L82.842 150.231L39.8135 127.001L47.8205 104.707Z" fill="#4D1BB8"/>
<path d="M34.4781 125.503C34.7457 123.666 38.0824 121.637 39.7172 120.852L40.8826 121.022C70.3912 139.937 130.181 178.457 133.27 181.217C137.131 184.667 138.029 190.753 138.355 192.605C138.68 194.457 136.523 199.737 135.591 200.684C134.846 201.442 131.008 200.378 129.182 199.751C99.4021 186.33 38.762 159.008 34.4414 157.079C30.1208 155.151 29.5974 149.937 29.8759 147.572C31.2984 140.981 34.2104 127.341 34.4781 125.503Z" fill="#22AFC2"/>
<path d="M138.321 184.658C137.505 183.456 136.519 182.05 135.718 181.278L180.544 166.303C181.032 166.751 182.446 168.065 184.197 169.743C185.949 171.421 185.648 177.249 185.279 179.953L154.463 193.042L139.403 198.531C139.483 197.625 139.61 194.214 139.765 192.448C139.959 190.24 139.051 185.731 138.321 184.658Z" fill="black"/>
<path d="M63.2509 149.341L64.9935 150.29C65.7149 150.682 66.1867 151.121 66.4091 151.606C66.6361 152.093 66.5955 152.58 66.2875 153.066C66.0935 153.373 65.8254 153.587 65.4832 153.71C65.1456 153.835 64.7683 153.869 64.3512 153.812C63.9415 153.753 63.533 153.612 63.1254 153.39L62.8303 153.229L61.8248 154.818L60.3071 153.992L63.2509 149.341ZM63.7272 152.454C63.9755 152.589 64.1989 152.644 64.3975 152.619C64.5961 152.594 64.7553 152.487 64.8751 152.298C64.995 152.108 65.0169 151.929 64.9409 151.761C64.8697 151.595 64.7076 151.443 64.4546 151.305L64.1525 151.141L63.4336 152.276C63.5216 152.336 63.6195 152.396 63.7272 152.454ZM66.2693 157.31C65.8571 157.086 65.6076 156.798 65.5207 156.448C65.4366 156.093 65.5215 155.715 65.7754 155.314L66.6098 153.996L66.1601 153.751L66.6907 152.913L67.2457 153.215L68.7079 152.293L69.4176 152.68L68.6089 153.957L69.4239 154.401L68.8934 155.239L68.0783 154.796L67.3509 155.945C67.2796 156.057 67.2614 156.166 67.2964 156.269C67.3315 156.373 67.4169 156.462 67.5527 156.536C67.6792 156.605 67.8111 156.64 67.9484 156.643L67.4055 157.619C67.2457 157.623 67.0578 157.597 66.8419 157.54C66.6335 157.481 66.4427 157.404 66.2693 157.31ZM69.932 154.741L71.4146 155.548L70.9781 156.238C71.2542 156.03 71.5235 155.913 71.786 155.887C72.0561 155.858 72.3153 155.911 72.5636 156.046L72.0699 157.259C71.6249 157.017 71.267 156.886 70.9964 156.866C70.7332 156.844 70.5389 156.932 70.4133 157.13L69.3008 158.887L67.8183 158.08L69.932 154.741ZM72.7678 160.847C72.3743 160.633 72.0701 160.368 71.8551 160.051C71.6447 159.736 71.5356 159.401 71.5277 159.045C71.5274 158.688 71.6356 158.338 71.8524 157.995C72.0692 157.653 72.347 157.398 72.6858 157.231C73.0274 157.059 73.3961 156.984 73.7918 157.006C74.1923 157.03 74.5892 157.149 74.9827 157.363C75.3809 157.58 75.6851 157.846 75.8955 158.16C76.1134 158.473 76.2239 158.805 76.2271 159.159C76.2303 159.512 76.1235 159.86 75.9067 160.202C75.687 160.549 75.4064 160.808 75.0648 160.98C74.7307 161.149 74.362 161.224 73.9587 161.205C73.5629 161.183 73.166 161.064 72.7678 160.847ZM73.4237 159.841C73.6158 159.946 73.8155 159.963 74.0228 159.895C74.2377 159.824 74.4137 159.68 74.5506 159.464C74.6875 159.248 74.7355 159.037 74.6946 158.833C74.6612 158.627 74.5485 158.472 74.3565 158.367C74.1644 158.263 73.9609 158.246 73.746 158.317C73.5387 158.386 73.3665 158.528 73.2296 158.745C73.0927 158.961 73.0409 159.172 73.0743 159.378C73.1152 159.582 73.2316 159.737 73.4237 159.841ZM77.4731 158.846L78.8854 159.615L78.449 160.304C79.0516 159.93 79.648 159.903 80.2382 160.224C80.6879 160.469 80.9408 160.816 80.9969 161.264C81.0606 161.711 80.9198 162.207 80.5747 162.752L79.505 164.442L78.0294 163.639L79.189 161.807C79.3116 161.613 79.3613 161.44 79.3379 161.288C79.3192 161.139 79.2325 161.022 79.0779 160.938C78.9655 160.876 78.8326 160.853 78.6792 160.866C78.5287 160.875 78.3769 160.926 78.224 161.018C78.0756 161.113 77.9487 161.244 77.8432 161.411L76.8419 162.992L75.3593 162.185L77.4731 158.846ZM81.3856 165.538C80.9921 165.324 80.7623 165.035 80.6962 164.672C80.6301 164.309 80.7296 163.918 80.9949 163.499L82.3128 161.417L83.8024 162.228L82.5231 164.249C82.4574 164.353 82.4342 164.449 82.4533 164.538C82.48 164.625 82.5402 164.694 82.6339 164.745C82.7275 164.796 82.8407 164.822 82.9733 164.821L82.4558 165.803C82.3043 165.823 82.1313 165.808 81.937 165.757C81.7474 165.708 81.5636 165.635 81.3856 165.538ZM83.3785 161.315C83.1584 161.196 83.0124 161.028 82.9405 160.813C82.8762 160.597 82.9054 160.391 83.028 160.198C83.1507 160.004 83.333 159.885 83.575 159.841C83.817 159.797 84.041 159.831 84.2471 159.943C84.4626 160.061 84.6049 160.229 84.6739 160.448C84.7476 160.67 84.7259 160.873 84.609 161.058C84.4835 161.256 84.2997 161.378 84.0577 161.422C83.8157 161.466 83.5893 161.43 83.3785 161.315ZM84.4508 167.207C84.076 167.003 83.7891 166.75 83.5899 166.447C83.3983 166.143 83.3047 165.814 83.3091 165.458C83.3181 165.106 83.4296 164.761 83.6435 164.423C83.8489 164.098 84.1201 163.849 84.457 163.675C84.7939 163.501 85.1561 163.416 85.5435 163.421C85.9309 163.426 86.3027 163.525 86.6587 163.719C87.113 163.966 87.4143 164.251 87.5626 164.575L86.86 165.401C86.6415 165.179 86.4455 165.021 86.2722 164.926C86.0474 164.804 85.8294 164.77 85.6184 164.825C85.4102 164.875 85.2391 165.006 85.105 165.218C84.971 165.43 84.9296 165.635 84.9809 165.832C85.0321 166.03 85.1655 166.187 85.381 166.304C85.5684 166.406 85.8128 166.488 86.1142 166.549L85.6487 167.568C85.4409 167.558 85.2451 167.524 85.0612 167.466C84.8744 167.413 84.6709 167.327 84.4508 167.207ZM87.2451 168.728C86.7532 168.46 86.3665 168.156 86.0848 167.815L86.7556 167.098C87.0187 167.399 87.3095 167.636 87.6281 167.809C87.8623 167.937 88.0193 167.938 88.0992 167.811C88.1391 167.748 88.1368 167.677 88.0922 167.599C88.0523 167.522 87.9487 167.417 87.7813 167.284C87.4381 167 87.2341 166.725 87.1691 166.46C87.1089 166.197 87.1786 165.908 87.3783 165.592C87.6224 165.246 87.9425 165.054 88.3387 165.015C88.7349 164.976 89.1719 165.087 89.6497 165.347C89.8933 165.48 90.0917 165.609 90.2451 165.735C90.406 165.859 90.5376 165.994 90.6401 166.141L89.9833 166.865C89.8788 166.741 89.7532 166.621 89.6064 166.505C89.4642 166.391 89.3393 166.305 89.2315 166.246C89.0723 166.16 88.9522 166.116 88.8713 166.114C88.7905 166.112 88.7329 166.139 88.6987 166.193C88.6359 166.292 88.7088 166.425 88.9174 166.593C89.298 166.898 89.5367 167.197 89.6334 167.492C89.73 167.787 89.68 168.09 89.4831 168.401C89.2578 168.757 88.9484 168.967 88.5548 169.032C88.1688 169.094 87.7322 168.993 87.2451 168.728Z" fill="white"/>
<g filter="url(#filter0_dd)">
<path d="M112.192 151.617L104.828 154.515L109.349 157.519L116.325 154.565L112.192 151.617Z" fill="#302A2A"/>
<path d="M112.192 151.617L104.828 154.515L109.349 157.519L116.325 154.565L112.192 151.617Z" stroke="black"/>
</g>
<g filter="url(#filter1_dd)">
<path d="M123.169 147.08L115.805 149.978L120.326 152.982L127.301 150.028L123.169 147.08Z" fill="#302A2A"/>
<path d="M123.169 147.08L115.805 149.978L120.326 152.982L127.301 150.028L123.169 147.08Z" stroke="black"/>
</g>
<g filter="url(#filter2_dd)">
<path d="M134.919 142.656L127.555 145.554L132.076 148.558L139.051 145.604L134.919 142.656Z" fill="#302A2A"/>
<path d="M134.919 142.656L127.555 145.554L132.076 148.558L139.051 145.604L134.919 142.656Z" stroke="black"/>
</g>
<g filter="url(#filter3_dd)">
<path d="M122.684 158.558L115.321 161.456L119.841 164.461L126.817 161.506L122.684 158.558Z" fill="#302A2A"/>
<path d="M122.684 158.558L115.321 161.456L119.841 164.461L126.817 161.506L122.684 158.558Z" stroke="black"/>
</g>
<g filter="url(#filter4_dd)">
<path d="M133.274 153.967L125.91 156.864L130.431 159.869L137.407 156.914L133.274 153.967Z" fill="#302A2A"/>
<path d="M133.274 153.967L125.91 156.864L130.431 159.869L137.407 156.914L133.274 153.967Z" stroke="black"/>
</g>
<g filter="url(#filter5_dd)">
<path d="M144.247 149.426L136.883 152.323L141.404 155.328L148.379 152.373L144.247 149.426Z" fill="#302A2A"/>
<path d="M144.247 149.426L136.883 152.323L141.404 155.328L148.379 152.373L144.247 149.426Z" stroke="black"/>
</g>
<g filter="url(#filter6_dd)">
<path d="M132.013 165.332L124.649 168.23L129.17 171.234L136.145 168.28L132.013 165.332Z" fill="#FF0707"/>
<path d="M132.013 165.332L124.649 168.23L129.17 171.234L136.145 168.28L132.013 165.332Z" stroke="black"/>
</g>
<g filter="url(#filter7_dd)">
<path d="M142.649 160.385L135.285 163.282L139.806 166.287L146.782 163.332L142.649 160.385Z" fill="#302A2A"/>
<path d="M142.649 160.385L135.285 163.282L139.806 166.287L146.782 163.332L142.649 160.385Z" stroke="black"/>
</g>
<g filter="url(#filter8_dd)">
<path d="M152.462 155.677L145.098 158.575L149.619 161.58L156.594 158.625L152.462 155.677Z" fill="#21F035"/>
<path d="M152.462 155.677L145.098 158.575L149.619 161.58L156.594 158.625L152.462 155.677Z" stroke="black"/>
</g>
<ellipse cx="75.641" cy="132.94" rx="4.5142" ry="5.00023" transform="rotate(8.28595 75.641 132.94)" fill="#BA8E38"/>
<ellipse cx="80.098" cy="135.032" rx="4.5142" ry="5.00023" transform="rotate(8.28595 80.098 135.032)" fill="#E9ED23"/>
<defs>
<filter id="filter0_dd" x="99.3438" y="149.908" width="58.4111" height="49.2527" filterUnits="userSpaceOnUse" color-interpolation-filters="sRGB">
<feFlood flood-opacity="0" result="BackgroundImageFix"/>
<feColorMatrix in="SourceAlpha" type="matrix" values="0 0 0 0 0 0 0 0 0 0 0 0 0 0 0 0 0 0 127 0"/>
<feOffset dy="4"/>
<feGaussianBlur stdDeviation="2"/>
<feColorMatrix type="matrix" values="0 0 0 0 0 0 0 0 0 0 0 0 0 0 0 0 0 0 0.25 0"/>
<feBlend mode="normal" in2="BackgroundImageFix" result="effect1_dropShadow"/>
<feColorMatrix in="SourceAlpha" type="matrix" values="0 0 0 0 0 0 0 0 0 0 0 0 0 0 0 0 0 0 127 0"/>
<feOffset dx="20" dy="20"/>
<feGaussianBlur stdDeviation="10"/>
<feColorMatrix type="matrix" values="0 0 0 0 0 0 0 0 0 0 0 0 0 0 0 0 0 0 0.25 0"/>
<feBlend mode="normal" in2="effect1_dropShadow" result="effect2_dropShadow"/>
<feBlend mode="normal" in="SourceGraphic" in2="effect2_dropShadow" result="shape"/>
</filter>
<filter id="filter1_dd" x="110.32" y="145.371" width="58.4111" height="49.2527" filterUnits="userSpaceOnUse" color-interpolation-filters="sRGB">
<feFlood flood-opacity="0" result="BackgroundImageFix"/>
<feColorMatrix in="SourceAlpha" type="matrix" values="0 0 0 0 0 0 0 0 0 0 0 0 0 0 0 0 0 0 127 0"/>
<feOffset dy="4"/>
<feGaussianBlur stdDeviation="2"/>
<feColorMatrix type="matrix" values="0 0 0 0 0 0 0 0 0 0 0 0 0 0 0 0 0 0 0.25 0"/>
<feBlend mode="normal" in2="BackgroundImageFix" result="effect1_dropShadow"/>
<feColorMatrix in="SourceAlpha" type="matrix" values="0 0 0 0 0 0 0 0 0 0 0 0 0 0 0 0 0 0 127 0"/>
<feOffset dx="20" dy="20"/>
<feGaussianBlur stdDeviation="10"/>
<feColorMatrix type="matrix" values="0 0 0 0 0 0 0 0 0 0 0 0 0 0 0 0 0 0 0.25 0"/>
<feBlend mode="normal" in2="effect1_dropShadow" result="effect2_dropShadow"/>
<feBlend mode="normal" in="SourceGraphic" in2="effect2_dropShadow" result="shape"/>
</filter>
<filter id="filter2_dd" x="122.07" y="140.947" width="58.4111" height="49.2527" filterUnits="userSpaceOnUse" color-interpolation-filters="sRGB">
<feFlood flood-opacity="0" result="BackgroundImageFix"/>
<feColorMatrix in="SourceAlpha" type="matrix" values="0 0 0 0 0 0 0 0 0 0 0 0 0 0 0 0 0 0 127 0"/>
<feOffset dy="4"/>
<feGaussianBlur stdDeviation="2"/>
<feColorMatrix type="matrix" values="0 0 0 0 0 0 0 0 0 0 0 0 0 0 0 0 0 0 0.25 0"/>
<feBlend mode="normal" in2="BackgroundImageFix" result="effect1_dropShadow"/>
<feColorMatrix in="SourceAlpha" type="matrix" values="0 0 0 0 0 0 0 0 0 0 0 0 0 0 0 0 0 0 127 0"/>
<feOffset dx="20" dy="20"/>
<feGaussianBlur stdDeviation="10"/>
<feColorMatrix type="matrix" values="0 0 0 0 0 0 0 0 0 0 0 0 0 0 0 0 0 0 0.25 0"/>
<feBlend mode="normal" in2="effect1_dropShadow" result="effect2_dropShadow"/>
<feBlend mode="normal" in="SourceGraphic" in2="effect2_dropShadow" result="shape"/>
</filter>
<filter id="filter3_dd" x="109.836" y="156.85" width="58.4111" height="49.2527" filterUnits="userSpaceOnUse" color-interpolation-filters="sRGB">
<feFlood flood-opacity="0" result="BackgroundImageFix"/>
<feColorMatrix in="SourceAlpha" type="matrix" values="0 0 0 0 0 0 0 0 0 0 0 0 0 0 0 0 0 0 127 0"/>
<feOffset dy="4"/>
<feGaussianBlur stdDeviation="2"/>
<feColorMatrix type="matrix" values="0 0 0 0 0 0 0 0 0 0 0 0 0 0 0 0 0 0 0.25 0"/>
<feBlend mode="normal" in2="BackgroundImageFix" result="effect1_dropShadow"/>
<feColorMatrix in="SourceAlpha" type="matrix" values="0 0 0 0 0 0 0 0 0 0 0 0 0 0 0 0 0 0 127 0"/>
<feOffset dx="20" dy="20"/>
<feGaussianBlur stdDeviation="10"/>
<feColorMatrix type="matrix" values="0 0 0 0 0 0 0 0 0 0 0 0 0 0 0 0 0 0 0.25 0"/>
<feBlend mode="normal" in2="effect1_dropShadow" result="effect2_dropShadow"/>
<feBlend mode="normal" in="SourceGraphic" in2="effect2_dropShadow" result="shape"/>
</filter>
<filter id="filter4_dd" x="120.426" y="152.258" width="58.4111" height="49.2527" filterUnits="userSpaceOnUse" color-interpolation-filters="sRGB">
<feFlood flood-opacity="0" result="BackgroundImageFix"/>
<feColorMatrix in="SourceAlpha" type="matrix" values="0 0 0 0 0 0 0 0 0 0 0 0 0 0 0 0 0 0 127 0"/>
<feOffset dy="4"/>
<feGaussianBlur stdDeviation="2"/>
<feColorMatrix type="matrix" values="0 0 0 0 0 0 0 0 0 0 0 0 0 0 0 0 0 0 0.25 0"/>
<feBlend mode="normal" in2="BackgroundImageFix" result="effect1_dropShadow"/>
<feColorMatrix in="SourceAlpha" type="matrix" values="0 0 0 0 0 0 0 0 0 0 0 0 0 0 0 0 0 0 127 0"/>
<feOffset dx="20" dy="20"/>
<feGaussianBlur stdDeviation="10"/>
<feColorMatrix type="matrix" values="0 0 0 0 0 0 0 0 0 0 0 0 0 0 0 0 0 0 0.25 0"/>
<feBlend mode="normal" in2="effect1_dropShadow" result="effect2_dropShadow"/>
<feBlend mode="normal" in="SourceGraphic" in2="effect2_dropShadow" result="shape"/>
</filter>
<filter id="filter5_dd" x="131.398" y="147.717" width="58.4111" height="49.2527" filterUnits="userSpaceOnUse" color-interpolation-filters="sRGB">
<feFlood flood-opacity="0" result="BackgroundImageFix"/>
<feColorMatrix in="SourceAlpha" type="matrix" values="0 0 0 0 0 0 0 0 0 0 0 0 0 0 0 0 0 0 127 0"/>
<feOffset dy="4"/>
<feGaussianBlur stdDeviation="2"/>
<feColorMatrix type="matrix" values="0 0 0 0 0 0 0 0 0 0 0 0 0 0 0 0 0 0 0.25 0"/>
<feBlend mode="normal" in2="BackgroundImageFix" result="effect1_dropShadow"/>
<feColorMatrix in="SourceAlpha" type="matrix" values="0 0 0 0 0 0 0 0 0 0 0 0 0 0 0 0 0 0 127 0"/>
<feOffset dx="20" dy="20"/>
<feGaussianBlur stdDeviation="10"/>
<feColorMatrix type="matrix" values="0 0 0 0 0 0 0 0 0 0 0 0 0 0 0 0 0 0 0.25 0"/>
<feBlend mode="normal" in2="effect1_dropShadow" result="effect2_dropShadow"/>
<feBlend mode="normal" in="SourceGraphic" in2="effect2_dropShadow" result="shape"/>
</filter>
<filter id="filter6_dd" x="119.164" y="163.623" width="58.4111" height="49.2527" filterUnits="userSpaceOnUse" color-interpolation-filters="sRGB">
<feFlood flood-opacity="0" result="BackgroundImageFix"/>
<feColorMatrix in="SourceAlpha" type="matrix" values="0 0 0 0 0 0 0 0 0 0 0 0 0 0 0 0 0 0 127 0"/>
<feOffset dy="4"/>
<feGaussianBlur stdDeviation="2"/>
<feColorMatrix type="matrix" values="0 0 0 0 0 0 0 0 0 0 0 0 0 0 0 0 0 0 0.25 0"/>
<feBlend mode="normal" in2="BackgroundImageFix" result="effect1_dropShadow"/>
<feColorMatrix in="SourceAlpha" type="matrix" values="0 0 0 0 0 0 0 0 0 0 0 0 0 0 0 0 0 0 127 0"/>
<feOffset dx="20" dy="20"/>
<feGaussianBlur stdDeviation="10"/>
<feColorMatrix type="matrix" values="0 0 0 0 0 0 0 0 0 0 0 0 0 0 0 0 0 0 0.25 0"/>
<feBlend mode="normal" in2="effect1_dropShadow" result="effect2_dropShadow"/>
<feBlend mode="normal" in="SourceGraphic" in2="effect2_dropShadow" result="shape"/>
</filter>
<filter id="filter7_dd" x="129.801" y="158.676" width="58.4111" height="49.2527" filterUnits="userSpaceOnUse" color-interpolation-filters="sRGB">
<feFlood flood-opacity="0" result="BackgroundImageFix"/>
<feColorMatrix in="SourceAlpha" type="matrix" values="0 0 0 0 0 0 0 0 0 0 0 0 0 0 0 0 0 0 127 0"/>
<feOffset dy="4"/>
<feGaussianBlur stdDeviation="2"/>
<feColorMatrix type="matrix" values="0 0 0 0 0 0 0 0 0 0 0 0 0 0 0 0 0 0 0.25 0"/>
<feBlend mode="normal" in2="BackgroundImageFix" result="effect1_dropShadow"/>
<feColorMatrix in="SourceAlpha" type="matrix" values="0 0 0 0 0 0 0 0 0 0 0 0 0 0 0 0 0 0 127 0"/>
<feOffset dx="20" dy="20"/>
<feGaussianBlur stdDeviation="10"/>
<feColorMatrix type="matrix" values="0 0 0 0 0 0 0 0 0 0 0 0 0 0 0 0 0 0 0.25 0"/>
<feBlend mode="normal" in2="effect1_dropShadow" result="effect2_dropShadow"/>
<feBlend mode="normal" in="SourceGraphic" in2="effect2_dropShadow" result="shape"/>
</filter>
<filter id="filter8_dd" x="139.613" y="153.969" width="58.4111" height="49.2527" filterUnits="userSpaceOnUse" color-interpolation-filters="sRGB">
<feFlood flood-opacity="0" result="BackgroundImageFix"/>
<feColorMatrix in="SourceAlpha" type="matrix" values="0 0 0 0 0 0 0 0 0 0 0 0 0 0 0 0 0 0 127 0"/>
<feOffset dy="4"/>
<feGaussianBlur stdDeviation="2"/>
<feColorMatrix type="matrix" values="0 0 0 0 0 0 0 0 0 0 0 0 0 0 0 0 0 0 0.25 0"/>
<feBlend mode="normal" in2="BackgroundImageFix" result="effect1_dropShadow"/>
<feColorMatrix in="SourceAlpha" type="matrix" values="0 0 0 0 0 0 0 0 0 0 0 0 0 0 0 0 0 0 127 0"/>
<feOffset dx="20" dy="20"/>
<feGaussianBlur stdDeviation="10"/>
<feColorMatrix type="matrix" values="0 0 0 0 0 0 0 0 0 0 0 0 0 0 0 0 0 0 0.25 0"/>
<feBlend mode="normal" in2="effect1_dropShadow" result="effect2_dropShadow"/>
<feBlend mode="normal" in="SourceGraphic" in2="effect2_dropShadow" result="shape"/>
</filter>
</defs>
</svg>
