<svg width="40" height="20" viewBox="0 0 40 20" fill="none" xmlns="http://www.w3.org/2000/svg">
<path d="M29.9999 0.27832C27.4253 0.27832 24.9561 1.25239 23.1355 2.98625C21.315 4.72011 20.2922 7.07173 20.2922 9.52377C20.2922 11.9758 21.315 14.3274 23.1355 16.0613C24.9561 17.7952 27.4253 18.7692 29.9999 18.7692C32.5745 18.7692 35.0437 17.7952 36.8643 16.0613C38.6848 14.3274 39.7076 11.9758 39.7076 9.52377C39.7076 7.07173 38.6848 4.72011 36.8643 2.98625C35.0437 1.25239 32.5745 0.27832 29.9999 0.27832Z" fill="#308D88"/>
<path d="M30 19.0476C24.486 19.0476 20 14.7752 20 9.52381C20 4.27239 24.486 0 30 0C35.514 0 40 4.27239 40 9.52381C40 14.7752 35.514 19.0476 30 19.0476ZM30 0.556716C24.8084 0.556716 20.5846 4.57898 20.5846 9.52381C20.5846 14.4686 24.8084 18.4909 30 18.4909C35.1917 18.4909 39.4155 14.4686 39.4155 9.52381C39.4155 4.57898 35.1917 0.556716 30 0.556716Z" fill="white"/>
<path d="M37.2648 13.1775C37.2343 13.1775 37.203 13.1708 37.1738 13.1573C37.0698 13.1091 37.0268 12.9902 37.0773 12.8916C37.1299 12.7886 37.18 12.6848 37.2272 12.5807C37.4109 12.1747 37.5571 11.75 37.6619 11.3177C37.6882 11.2103 37.8001 11.1435 37.9124 11.1686C38.0247 11.1936 38.0948 11.3002 38.069 11.4072C37.9583 11.8629 37.8042 12.3103 37.6109 12.7381C37.5612 12.8483 37.5086 12.9576 37.4531 13.0658C37.4164 13.1366 37.342 13.1775 37.2648 13.1775Z" fill="white"/>
<path d="M38.1047 10.4695C38.0985 10.4695 38.0922 10.4691 38.0859 10.4687C37.9711 10.4587 37.8864 10.3617 37.8968 10.2527C37.9122 10.0901 37.9223 9.92665 37.9264 9.76362C37.9532 8.7488 37.7703 7.75666 37.3841 6.81422C37.3419 6.71202 37.3953 6.5967 37.5026 6.55694C37.6108 6.51677 37.731 6.56688 37.7732 6.66987C38.1803 7.66122 38.3724 8.70586 38.3444 9.77396C38.3398 9.94574 38.3294 10.1175 38.3131 10.2889C38.3026 10.3919 38.2116 10.4695 38.1047 10.4695Z" fill="white"/>
<path d="M24.0435 4.44976C23.9921 4.44976 23.9412 4.43187 23.9011 4.39608C23.8167 4.32132 23.8126 4.19526 23.8911 4.11533C25.2518 2.72713 27.0932 1.8503 29.076 1.6463C29.1925 1.63318 29.2936 1.71351 29.3061 1.82246C29.3186 1.93142 29.2355 2.02964 29.1211 2.04157C27.2376 2.23523 25.4886 3.06831 24.1967 4.38614C24.155 4.42869 24.0994 4.44976 24.0435 4.44976Z" fill="white"/>
<path d="M24.4555 15.402C24.4042 15.402 24.3532 15.3841 24.3132 15.3483C21.4689 12.8192 20.8213 8.81284 22.7382 5.60616C22.795 5.51033 22.9223 5.47772 23.023 5.5314C23.1232 5.58588 23.1582 5.70717 23.101 5.8026C21.2806 8.84903 21.896 12.6546 24.5983 15.0576C24.6827 15.1324 24.6869 15.2584 24.6084 15.3383C24.567 15.3809 24.5115 15.402 24.4555 15.402Z" fill="white"/>
<path d="M33.5553 16.7289C33.4777 16.7289 33.4029 16.6876 33.367 16.6164C33.3169 16.5178 33.3603 16.3989 33.4643 16.3512C34.344 15.9472 35.1311 15.3948 35.8042 14.7089C36.0756 14.4317 36.3265 14.1343 36.5499 13.8241C36.615 13.7342 36.7453 13.7115 36.8401 13.7728C36.9353 13.8348 36.9595 13.9589 36.8939 14.0492C36.6589 14.3748 36.395 14.6882 36.1094 14.9797C35.4012 15.7018 34.5724 16.2836 33.6459 16.7091C33.6163 16.723 33.5854 16.7289 33.5553 16.7289Z" fill="white"/>
<path d="M28.5386 18.6698V12.1086H26.0334V9.72263H28.5386V7.355C28.4843 5.23073 30.7307 3.12834 34.3841 4.30977V6.5414L32.9762 6.53305C31.8931 6.53305 31.4614 6.77443 31.4614 7.4914V9.72263H34.3119L33.8108 12.1086H31.4614V18.6698" fill="white"/>
<path d="M31.6702 18.6698H31.2527V11.9097H33.6397L34.0573 9.92144H31.2527V7.49137C31.2527 6.47417 32.0811 6.3342 32.9763 6.3342L34.1754 6.34136V4.45409C32.5704 3.96816 31.1149 4.10376 30.0635 4.84101C29.2147 5.4351 28.7228 6.37317 28.7475 7.3506V9.92144H26.2422V11.9097H28.7475V18.6698H28.3299V12.3074H25.8247V9.52378H28.3299V7.35498C28.302 6.25308 28.8573 5.19134 29.8164 4.5201C31.0122 3.68344 32.6589 3.54148 34.4514 4.12165L34.593 4.16738V6.7414L32.975 6.73185C31.8723 6.73185 31.6702 6.98794 31.6702 7.49137V9.52378H34.5667L33.9821 12.3074H31.6702V18.6698Z" fill="white"/>
<path d="M30 19.04C24.491 19.04 20.0088 14.7712 20.0088 9.52416C20.0088 4.27711 24.491 0.00830078 30 0.00830078C35.509 0.00830078 39.9913 4.27751 39.9913 9.52416C39.9913 14.7708 35.509 19.04 30 19.04ZM30 0.565414C24.8134 0.565414 20.5933 4.5841 20.5933 9.52416C20.5933 14.4642 24.8134 18.4829 30 18.4829C35.1867 18.4829 39.4067 14.4642 39.4067 9.52416C39.4067 4.5841 35.1867 0.565414 30 0.565414Z" fill="white"/>
</svg>
