<svg width="36" height="37" viewBox="0 0 36 37" fill="none" xmlns="http://www.w3.org/2000/svg">
<path d="M18 37C27.9411 37 36 28.7173 36 18.5C36 8.28273 27.9411 0 18 0C8.05887 0 0 8.28273 0 18.5C0 28.7173 8.05887 37 18 37Z" fill="#E4E4E4"/>
<path d="M18 33.9173C26.2843 33.9173 33 27.015 33 18.5006C33 9.98626 26.2843 3.08398 18 3.08398C9.71573 3.08398 3 9.98626 3 18.5006C3 27.015 9.71573 33.9173 18 33.9173Z" fill="#6C63FF"/>
<path d="M16.7254 24.0757C16.6985 24.0757 16.6717 24.0751 16.6448 24.0737C16.4076 24.062 16.1756 23.9976 15.9649 23.8851C15.7541 23.7725 15.5695 23.6145 15.4238 23.4217L13.1229 20.3812C12.8549 20.0263 12.7349 19.5767 12.7891 19.131C12.8433 18.6853 13.0673 18.2799 13.4119 18.0037L13.4947 17.9375C13.84 17.6622 14.2775 17.5388 14.7111 17.5945C15.1448 17.6502 15.5393 17.8804 15.8081 18.2346C15.9377 18.406 16.1019 18.5465 16.2893 18.6466C16.4768 18.7468 16.6831 18.8041 16.894 18.8146C17.105 18.8252 17.3157 18.7888 17.5118 18.7079C17.7078 18.627 17.8845 18.5035 18.0298 18.3459L22.7018 13.2771C22.8507 13.1156 23.0291 12.9858 23.2268 12.8951C23.4245 12.8044 23.6376 12.7547 23.854 12.7487C24.0704 12.7427 24.2859 12.7805 24.488 12.8601C24.6902 12.9397 24.8752 13.0594 25.0323 13.2124L25.1086 13.2867C25.4259 13.5957 25.6108 14.0217 25.6226 14.4708C25.6344 14.92 25.4721 15.3555 25.1715 15.6817L17.9217 23.5467C17.7677 23.7138 17.5823 23.847 17.3766 23.9379C17.1709 24.0289 16.9493 24.0758 16.7254 24.0757V24.0757Z" fill="white"/>
</svg>
