<svg width="332" height="376" viewBox="0 0 332 376" fill="none" xmlns="http://www.w3.org/2000/svg">
<path d="M107.367 297.001L107.367 26.0006L306.366 297.002L107.367 297.001Z" fill="#1FD8CD"/>
<path d="M276.464 98.747L265.898 93.4668L264.782 95.674L257.541 110.023L253.644 117.749L251.134 122.715L214.44 104.374L213.327 103.818C213.234 103.081 213.213 101.275 213.886 99.9512L224.469 78.9804L230.044 67.9436C231.247 66.9336 233.885 65.0255 234.771 65.4698C235.664 65.9147 261.647 79.3624 274.525 86.0304C277.64 86.4814 278.789 91.385 278.968 93.78L276.464 98.747Z" fill="#FFF5F5"/>
<g filter="url(#filter0_dd)">
<path d="M144.265 239.612L160.417 207.604L197.721 226.247L181.562 258.254L144.265 239.612Z" fill="#1A1717"/>
<path d="M144.265 239.612L160.417 207.604L197.721 226.247L181.562 258.254L144.265 239.612Z" stroke="black" stroke-opacity="0.2"/>
</g>
<g filter="url(#filter1_dd)">
<path d="M211.841 229.827C210.934 231.585 207.187 231.615 205.427 231.411L207.407 227.565L210.529 221.522L222.713 197.897L245.406 152.564L266.097 112.458L267.525 108.329C267.896 108.518 268.965 109.341 270.279 111.124C271.6 112.908 270.604 115.918 269.942 117.2L211.841 229.827Z" fill="#3AC2F2" fill-opacity="0.6"/>
<path d="M211.841 229.827C210.934 231.585 207.187 231.615 205.427 231.411L207.407 227.565L210.529 221.522L222.713 197.897L245.406 152.564L266.097 112.458L267.525 108.329C267.896 108.518 268.965 109.341 270.279 111.124C271.6 112.908 270.604 115.918 269.942 117.2L211.841 229.827Z" stroke="#451A67" stroke-opacity="0.2"/>
</g>
<g filter="url(#filter2_dd)">
<path d="M206.057 84.5077C206.944 82.7415 210.688 82.6783 212.449 82.8674L210.5 86.7305L207.435 92.8009L195.458 116.531L173.174 162.061L152.835 202.347L151.439 206.487C151.068 206.302 149.998 205.488 148.663 203.716C147.328 201.944 148.298 198.926 148.948 197.638L206.057 84.5077Z" fill="#3AC2F2" fill-opacity="0.6"/>
<path d="M206.057 84.5077C206.944 82.7415 210.688 82.6783 212.449 82.8674L210.5 86.7305L207.435 92.8009L195.458 116.531L173.174 162.061L152.835 202.347L151.439 206.487C151.068 206.302 149.998 205.488 148.663 203.716C147.328 201.944 148.298 198.926 148.948 197.638L206.057 84.5077Z" stroke="#451A67" stroke-opacity="0.2"/>
</g>
<g filter="url(#filter3_dd)">
<path d="M210.567 82.7646C212.543 79.9524 218.235 82.751 220.831 84.5016L214.541 96.9651C213.669 98.6995 215.309 100.967 216.239 101.884L250.708 119.114C252.933 120.225 254.586 118.336 255.133 117.252L261.422 104.789L266.425 107.289C268.65 108.401 268.663 110.67 268.393 111.666L263.473 121.421L258.824 130.633L239.402 169.106L208.488 230.338C207.616 232.073 204.441 232.839 202.964 233.006L195.736 229.393L196.829 227.226L160.135 208.885L159.042 211.052L157.37 210.218C156.54 210.029 154.264 209.207 151.814 207.439C149.364 205.672 150.757 201.256 151.756 199.269L158.322 186.264C174.916 152.937 208.592 85.577 210.567 82.7646Z" fill="#1E0B31"/>
<path d="M210.567 82.7646C212.543 79.9524 218.235 82.751 220.831 84.5016L214.541 96.9651C213.669 98.6995 215.309 100.967 216.239 101.884L250.708 119.114C252.933 120.225 254.586 118.336 255.133 117.252L261.422 104.789L266.425 107.289C268.65 108.401 268.663 110.67 268.393 111.666L263.473 121.421L258.824 130.633L239.402 169.106L208.488 230.338C207.616 232.073 204.441 232.839 202.964 233.006L195.736 229.393L196.829 227.226L160.135 208.885L159.042 211.052L157.37 210.218C156.54 210.029 154.264 209.207 151.814 207.439C149.364 205.672 150.757 201.256 151.756 199.269L158.322 186.264C174.916 152.937 208.592 85.577 210.567 82.7646Z" stroke="#451A67" stroke-opacity="0.2"/>
</g>
<g filter="url(#filter4_dd)">
<path d="M249.199 135.444L203.884 112.795C202.272 111.989 200.31 112.633 199.503 114.232L180.698 151.484C179.89 153.084 180.543 155.034 182.155 155.84L227.47 178.488C229.082 179.294 231.043 178.651 231.851 177.051L250.656 139.799C251.463 138.199 250.811 136.249 249.199 135.444Z" fill="#100F0F" fill-opacity="0.2"/>
</g>
<g filter="url(#filter5_dd)">
<path d="M246.51 139.625L202.14 117.449C201.495 117.127 200.711 117.384 200.388 118.024L184.843 148.818C184.52 149.458 184.781 150.238 185.426 150.56L229.795 172.737C230.44 173.059 231.225 172.801 231.548 172.162L247.093 141.367C247.416 140.727 247.155 139.948 246.51 139.625Z" fill="#1CD2D2"/>
</g>
<g filter="url(#filter6_dd)">
<path d="M187.902 167.834L179.117 163.443C178.472 163.121 177.687 163.378 177.364 164.018L175.748 167.219C175.425 167.859 175.686 168.639 176.331 168.962L185.116 173.352C185.761 173.675 186.545 173.417 186.868 172.777L188.485 169.576C188.808 168.936 188.547 168.156 187.902 167.834Z" fill="#C4C4C4" fill-opacity="0.2"/>
</g>
<g filter="url(#filter7_dd)">
<path d="M182.894 177.767L174.109 173.377C173.464 173.054 172.68 173.312 172.357 173.951L170.74 177.153C170.417 177.793 170.678 178.573 171.323 178.895L180.108 183.286C180.753 183.608 181.538 183.351 181.861 182.711L183.477 179.509C183.8 178.87 183.539 178.09 182.894 177.767Z" fill="#C4C4C4" fill-opacity="0.2"/>
</g>
<g filter="url(#filter8_dd)">
<path d="M177.878 187.697L169.093 183.306C168.449 182.984 167.664 183.241 167.341 183.881L165.725 187.083C165.402 187.723 165.663 188.502 166.308 188.825L175.093 193.216C175.737 193.538 176.522 193.281 176.845 192.641L178.461 189.439C178.784 188.799 178.523 188.019 177.878 187.697Z" fill="#C4C4C4" fill-opacity="0.2"/>
</g>
<g filter="url(#filter9_dd)">
<path d="M172.874 197.637L164.089 193.246C163.445 192.923 162.66 193.181 162.337 193.821L160.721 197.022C160.398 197.662 160.659 198.442 161.304 198.764L170.089 203.155C170.734 203.477 171.518 203.22 171.841 202.58L173.457 199.379C173.78 198.739 173.519 197.959 172.874 197.637Z" fill="#F30808"/>
</g>
<g filter="url(#filter10_dd)">
<path d="M189.539 205.965L180.754 201.574C180.109 201.252 179.324 201.509 179.001 202.149L177.385 205.35C177.062 205.99 177.323 206.77 177.968 207.092L186.753 211.483C187.398 211.806 188.182 211.548 188.505 210.908L190.121 207.707C190.444 207.067 190.183 206.287 189.539 205.965Z" fill="#C4C4C4" fill-opacity="0.2"/>
</g>
<g filter="url(#filter11_dd)">
<path d="M207.332 214.861L198.546 210.47C197.902 210.148 197.117 210.405 196.794 211.045L195.178 214.247C194.855 214.887 195.116 215.667 195.761 215.989L204.546 220.38C205.191 220.702 205.975 220.445 206.298 219.805L207.914 216.603C208.237 215.963 207.976 215.183 207.332 214.861Z" fill="#286214"/>
</g>
<g filter="url(#filter12_dd)">
<path d="M194.562 196.035L185.777 191.644C185.132 191.322 184.348 191.579 184.025 192.219L182.408 195.421C182.085 196.06 182.346 196.84 182.991 197.163L191.776 201.554C192.421 201.876 193.206 201.618 193.529 200.979L195.145 197.777C195.468 197.137 195.207 196.357 194.562 196.035Z" fill="#C4C4C4" fill-opacity="0.2"/>
</g>
<g filter="url(#filter13_dd)">
<path d="M212.355 204.931L203.57 200.541C202.925 200.218 202.141 200.476 201.818 201.116L200.201 204.317C199.878 204.957 200.139 205.737 200.784 206.059L209.569 210.45C210.214 210.772 210.999 210.515 211.322 209.875L212.938 206.673C213.261 206.034 213 205.254 212.355 204.931Z" fill="#C4C4C4" fill-opacity="0.2"/>
</g>
<g filter="url(#filter14_dd)">
<path d="M199.578 186.103L190.793 181.712C190.148 181.39 189.363 181.648 189.04 182.287L187.424 185.489C187.101 186.129 187.362 186.909 188.007 187.231L196.792 191.622C197.437 191.944 198.221 191.687 198.544 191.047L200.16 187.845C200.483 187.206 200.222 186.426 199.578 186.103Z" fill="#C4C4C4" fill-opacity="0.2"/>
</g>
<g filter="url(#filter15_dd)">
<path d="M217.363 194.992L208.578 190.601C207.933 190.279 207.148 190.536 206.825 191.176L205.209 194.378C204.886 195.017 205.147 195.797 205.792 196.12L214.577 200.511C215.222 200.833 216.006 200.575 216.329 199.936L217.946 196.734C218.269 196.094 218.008 195.314 217.363 194.992Z" fill="#C4C4C4" fill-opacity="0.2"/>
</g>
<g filter="url(#filter16_dd)">
<path d="M204.589 176.172L195.804 171.781C195.159 171.459 194.375 171.716 194.052 172.356L192.436 175.557C192.113 176.197 192.374 176.977 193.019 177.299L201.804 181.69C202.448 182.013 203.233 181.755 203.556 181.115L205.172 177.914C205.495 177.274 205.234 176.494 204.589 176.172Z" fill="#C4C4C4" fill-opacity="0.2"/>
</g>
<g filter="url(#filter17_dd)">
<path d="M222.382 185.064L213.597 180.673C212.952 180.351 212.168 180.609 211.845 181.248L210.229 184.45C209.906 185.09 210.167 185.87 210.811 186.192L219.597 190.583C220.241 190.905 221.026 190.648 221.349 190.008L222.965 186.806C223.288 186.166 223.027 185.387 222.382 185.064Z" fill="#C4C4C4" fill-opacity="0.2"/>
</g>
<path d="M152.858 238.771C154.393 239.539 156.261 238.925 157.03 237.402C157.8 235.878 157.179 234.02 155.643 233.253C154.108 232.485 152.24 233.099 151.47 234.623C150.701 236.146 151.322 238.004 152.858 238.771Z" fill="#C4C732"/>
<path d="M153.975 236.564C155.51 237.332 157.378 236.718 158.148 235.195C158.917 233.671 158.296 231.813 156.761 231.046C155.225 230.278 153.357 230.892 152.588 232.416C151.818 233.939 152.439 235.797 153.975 236.564Z" fill="#C78232"/>
<g filter="url(#filter18_dd)">
<path d="M197.347 137.579L195.866 140.664L194.813 140.166L198.601 132.287L201.531 133.679C202.406 134.093 202.979 134.636 203.261 135.31C203.543 135.985 203.509 136.685 203.167 137.411C202.795 138.176 202.273 138.65 201.587 138.836C200.908 139.018 200.118 138.896 199.217 138.469L197.347 137.579ZM197.756 136.73L199.64 137.625C200.198 137.891 200.69 137.965 201.116 137.847C201.543 137.726 201.871 137.418 202.107 136.924C202.334 136.454 202.364 136.009 202.202 135.585C202.041 135.162 201.697 134.821 201.184 134.563L199.238 133.64L197.756 136.73ZM206.658 136.857L205.975 138.274L207.078 138.798L206.706 139.572L205.603 139.048L203.863 142.679C203.749 142.914 203.71 143.114 203.751 143.279C203.793 143.442 203.934 143.579 204.175 143.691C204.289 143.747 204.462 143.801 204.688 143.855L204.293 144.667C203.996 144.612 203.72 144.526 203.467 144.406C203.017 144.192 202.742 143.895 202.636 143.515C202.537 143.136 202.612 142.698 202.848 142.199L204.594 138.568L203.516 138.057L203.888 137.284L204.966 137.795L205.65 136.377L206.658 136.857ZM210.691 141.617C210.554 141.519 210.39 141.427 210.212 141.343C209.553 141.028 208.966 141.094 208.459 141.541L206.462 145.697L205.454 145.217L208.264 139.361L209.247 139.828L208.94 140.512C209.527 140.147 210.118 140.108 210.727 140.397C210.923 140.491 211.061 140.587 211.139 140.686L210.691 141.617ZM210.3 143.856C210.574 143.283 210.938 142.821 211.38 142.469C211.835 142.12 212.32 141.917 212.847 141.861C213.374 141.805 213.898 141.901 214.418 142.149C215.223 142.531 215.74 143.115 215.969 143.902C216.204 144.692 216.102 145.544 215.661 146.46L215.624 146.531C215.351 147.101 214.993 147.56 214.551 147.909C214.116 148.256 213.638 148.459 213.104 148.516C212.57 148.575 212.04 148.477 211.508 148.225C210.709 147.844 210.192 147.26 209.956 146.471C209.727 145.684 209.83 144.836 210.269 143.927L210.3 143.856ZM211.261 144.458C210.95 145.107 210.851 145.701 210.96 146.237C211.081 146.776 211.395 147.166 211.902 147.408C212.416 147.652 212.92 147.647 213.414 147.394C213.909 147.137 214.327 146.65 214.67 145.932C214.98 145.29 215.079 144.697 214.958 144.153C214.844 143.607 214.53 143.213 214.023 142.971C213.522 142.734 213.024 142.739 212.53 142.987C212.036 143.235 211.611 143.726 211.261 144.458ZM219.286 144.594L218.967 145.346C219.69 144.998 220.417 144.996 221.146 145.342C222.395 145.935 222.689 146.933 222.026 148.334L220.166 152.203L219.158 151.723L221.018 147.848C221.217 147.425 221.273 147.066 221.175 146.772C221.083 146.48 220.831 146.238 220.432 146.046C220.102 145.891 219.772 145.841 219.441 145.896C219.11 145.952 218.807 146.087 218.531 146.303L216.526 150.475L215.518 149.995L218.334 144.14L219.286 144.594ZM222.791 153.448L221.783 152.968L224.593 147.113L225.602 147.593L222.791 153.448ZM225.255 145.521C225.338 145.359 225.45 145.245 225.605 145.18C225.76 145.116 225.935 145.131 226.132 145.225C226.329 145.318 226.451 145.445 226.499 145.605C226.547 145.766 226.53 145.927 226.454 146.089C226.378 146.251 226.259 146.363 226.105 146.422C225.95 146.482 225.775 146.466 225.578 146.372C225.382 146.278 225.259 146.154 225.211 145.997C225.162 145.842 225.179 145.684 225.255 145.521ZM227.128 154.636C227.49 154.807 227.853 154.848 228.226 154.76C228.604 154.672 228.879 154.472 229.063 154.161L230.021 154.615C229.842 154.942 229.57 155.205 229.21 155.406C228.849 155.607 228.45 155.713 227.998 155.722C227.559 155.733 227.133 155.643 226.734 155.453C225.928 155.07 225.417 154.501 225.192 153.744C224.975 152.985 225.089 152.144 225.53 151.221L225.613 151.053C225.887 150.483 226.238 150.026 226.66 149.683C227.088 149.34 227.553 149.138 228.067 149.08C228.581 149.023 229.104 149.123 229.643 149.378C230.309 149.693 230.763 150.151 231.011 150.752C231.265 151.354 231.256 151.976 230.985 152.618L230.027 152.164C230.178 151.771 230.183 151.392 230.037 151.026C229.892 150.658 229.635 150.383 229.248 150.201C228.735 149.957 228.251 149.952 227.791 150.185C227.331 150.416 226.94 150.878 226.606 151.571L226.515 151.76C226.189 152.435 226.084 153.021 226.189 153.519C226.293 154.016 226.608 154.389 227.128 154.636ZM234.462 157.081C234.592 156.811 234.589 156.552 234.449 156.305C234.321 156.057 234.021 155.756 233.56 155.405C233.106 155.054 232.761 154.732 232.532 154.436C232.303 154.143 232.171 153.858 232.124 153.579C232.084 153.302 232.129 153.02 232.272 152.731C232.501 152.251 232.901 151.942 233.466 151.804C234.038 151.668 234.64 151.751 235.281 152.054C235.947 152.372 236.409 152.801 236.661 153.34C236.913 153.882 236.916 154.42 236.658 154.954L235.643 154.471C235.773 154.197 235.766 153.905 235.623 153.593C235.487 153.285 235.241 153.045 234.886 152.876C234.518 152.701 234.189 152.644 233.91 152.705C233.624 152.765 233.418 152.922 233.296 153.178C233.182 153.42 233.186 153.648 233.322 153.862C233.459 154.077 233.747 154.359 234.195 154.709C234.649 155.062 234.994 155.39 235.235 155.694C235.476 155.998 235.614 156.295 235.66 156.586C235.706 156.875 235.653 157.177 235.508 157.491C235.251 158.013 234.844 158.334 234.267 158.451C233.69 158.563 233.069 158.46 232.397 158.14C231.921 157.915 231.541 157.634 231.256 157.295C230.971 156.956 230.799 156.59 230.734 156.195C230.675 155.799 230.726 155.428 230.893 155.081L231.901 155.561C231.76 155.905 231.765 156.236 231.92 156.553C232.082 156.87 232.373 157.126 232.785 157.323C233.172 157.505 233.514 157.575 233.817 157.532C234.121 157.487 234.341 157.337 234.462 157.081Z" fill="white"/>
</g>
<defs>
<filter id="filter0_dd" x="122.234" y="185.75" width="137.52" height="134.36" filterUnits="userSpaceOnUse" color-interpolation-filters="sRGB">
<feFlood flood-opacity="0" result="BackgroundImageFix"/>
<feColorMatrix in="SourceAlpha" type="matrix" values="0 0 0 0 0 0 0 0 0 0 0 0 0 0 0 0 0 0 127 0"/>
<feOffset dx="10" dy="10"/>
<feGaussianBlur stdDeviation="10"/>
<feColorMatrix type="matrix" values="0 0 0 0 0 0 0 0 0 0 0 0 0 0 0 0 0 0 0.25 0"/>
<feBlend mode="normal" in2="BackgroundImageFix" result="effect1_dropShadow"/>
<feColorMatrix in="SourceAlpha" type="matrix" values="0 0 0 0 0 0 0 0 0 0 0 0 0 0 0 0 0 0 127 0"/>
<feOffset dx="20" dy="20"/>
<feGaussianBlur stdDeviation="20"/>
<feColorMatrix type="matrix" values="0 0 0 0 0 0 0 0 0 0 0 0 0 0 0 0 0 0 0.25 0"/>
<feBlend mode="normal" in2="effect1_dropShadow" result="effect2_dropShadow"/>
<feBlend mode="normal" in="SourceGraphic" in2="effect2_dropShadow" result="shape"/>
</filter>
<filter id="filter1_dd" x="184.648" y="83.1582" width="147.268" height="213.562" filterUnits="userSpaceOnUse" color-interpolation-filters="sRGB">
<feFlood flood-opacity="0" result="BackgroundImageFix"/>
<feColorMatrix in="SourceAlpha" type="matrix" values="0 0 0 0 0 0 0 0 0 0 0 0 0 0 0 0 0 0 127 0"/>
<feOffset dx="10" dy="10"/>
<feGaussianBlur stdDeviation="10"/>
<feColorMatrix type="matrix" values="0 0 0 0 0 0 0 0 0 0 0 0 0 0 0 0 0 0 0.25 0"/>
<feBlend mode="normal" in2="BackgroundImageFix" result="effect1_dropShadow"/>
<feColorMatrix in="SourceAlpha" type="matrix" values="0 0 0 0 0 0 0 0 0 0 0 0 0 0 0 0 0 0 127 0"/>
<feOffset dx="20" dy="20"/>
<feGaussianBlur stdDeviation="20"/>
<feColorMatrix type="matrix" values="0 0 0 0 0 0 0 0 0 0 0 0 0 0 0 0 0 0 0.25 0"/>
<feBlend mode="normal" in2="effect1_dropShadow" result="effect2_dropShadow"/>
<feBlend mode="normal" in="SourceGraphic" in2="effect2_dropShadow" result="shape"/>
</filter>
<filter id="filter2_dd" x="127.004" y="57.6543" width="146.218" height="213.904" filterUnits="userSpaceOnUse" color-interpolation-filters="sRGB">
<feFlood flood-opacity="0" result="BackgroundImageFix"/>
<feColorMatrix in="SourceAlpha" type="matrix" values="0 0 0 0 0 0 0 0 0 0 0 0 0 0 0 0 0 0 127 0"/>
<feOffset dx="10" dy="10"/>
<feGaussianBlur stdDeviation="10"/>
<feColorMatrix type="matrix" values="0 0 0 0 0 0 0 0 0 0 0 0 0 0 0 0 0 0 0.25 0"/>
<feBlend mode="normal" in2="BackgroundImageFix" result="effect1_dropShadow"/>
<feColorMatrix in="SourceAlpha" type="matrix" values="0 0 0 0 0 0 0 0 0 0 0 0 0 0 0 0 0 0 127 0"/>
<feOffset dx="20" dy="20"/>
<feGaussianBlur stdDeviation="20"/>
<feColorMatrix type="matrix" values="0 0 0 0 0 0 0 0 0 0 0 0 0 0 0 0 0 0 0.25 0"/>
<feBlend mode="normal" in2="effect1_dropShadow" result="effect2_dropShadow"/>
<feBlend mode="normal" in="SourceGraphic" in2="effect2_dropShadow" result="shape"/>
</filter>
<filter id="filter3_dd" x="127.789" y="56.5098" width="203.377" height="241.793" filterUnits="userSpaceOnUse" color-interpolation-filters="sRGB">
<feFlood flood-opacity="0" result="BackgroundImageFix"/>
<feColorMatrix in="SourceAlpha" type="matrix" values="0 0 0 0 0 0 0 0 0 0 0 0 0 0 0 0 0 0 127 0"/>
<feOffset dx="10" dy="10"/>
<feGaussianBlur stdDeviation="10"/>
<feColorMatrix type="matrix" values="0 0 0 0 0 0 0 0 0 0 0 0 0 0 0 0 0 0 0.25 0"/>
<feBlend mode="normal" in2="BackgroundImageFix" result="effect1_dropShadow"/>
<feColorMatrix in="SourceAlpha" type="matrix" values="0 0 0 0 0 0 0 0 0 0 0 0 0 0 0 0 0 0 127 0"/>
<feOffset dx="20" dy="20"/>
<feGaussianBlur stdDeviation="20"/>
<feColorMatrix type="matrix" values="0 0 0 0 0 0 0 0 0 0 0 0 0 0 0 0 0 0 0.25 0"/>
<feBlend mode="normal" in2="effect1_dropShadow" result="effect2_dropShadow"/>
<feBlend mode="normal" in="SourceGraphic" in2="effect2_dropShadow" result="shape"/>
</filter>
<filter id="filter4_dd" x="160.352" y="92.4473" width="150.651" height="146.388" filterUnits="userSpaceOnUse" color-interpolation-filters="sRGB">
<feFlood flood-opacity="0" result="BackgroundImageFix"/>
<feColorMatrix in="SourceAlpha" type="matrix" values="0 0 0 0 0 0 0 0 0 0 0 0 0 0 0 0 0 0 127 0"/>
<feOffset dx="10" dy="10"/>
<feGaussianBlur stdDeviation="10"/>
<feColorMatrix type="matrix" values="0 0 0 0 0 0 0 0 0 0 0 0 0 0 0 0 0 0 0.25 0"/>
<feBlend mode="normal" in2="BackgroundImageFix" result="effect1_dropShadow"/>
<feColorMatrix in="SourceAlpha" type="matrix" values="0 0 0 0 0 0 0 0 0 0 0 0 0 0 0 0 0 0 127 0"/>
<feOffset dx="20" dy="20"/>
<feGaussianBlur stdDeviation="20"/>
<feColorMatrix type="matrix" values="0 0 0 0 0 0 0 0 0 0 0 0 0 0 0 0 0 0 0.25 0"/>
<feBlend mode="normal" in2="effect1_dropShadow" result="effect2_dropShadow"/>
<feBlend mode="normal" in="SourceGraphic" in2="effect2_dropShadow" result="shape"/>
</filter>
<filter id="filter5_dd" x="164.703" y="97.3105" width="142.527" height="135.566" filterUnits="userSpaceOnUse" color-interpolation-filters="sRGB">
<feFlood flood-opacity="0" result="BackgroundImageFix"/>
<feColorMatrix in="SourceAlpha" type="matrix" values="0 0 0 0 0 0 0 0 0 0 0 0 0 0 0 0 0 0 127 0"/>
<feOffset dx="10" dy="10"/>
<feGaussianBlur stdDeviation="10"/>
<feColorMatrix type="matrix" values="0 0 0 0 0 0 0 0 0 0 0 0 0 0 0 0 0 0 0.25 0"/>
<feBlend mode="normal" in2="BackgroundImageFix" result="effect1_dropShadow"/>
<feColorMatrix in="SourceAlpha" type="matrix" values="0 0 0 0 0 0 0 0 0 0 0 0 0 0 0 0 0 0 127 0"/>
<feOffset dx="20" dy="20"/>
<feGaussianBlur stdDeviation="20"/>
<feColorMatrix type="matrix" values="0 0 0 0 0 0 0 0 0 0 0 0 0 0 0 0 0 0 0.25 0"/>
<feBlend mode="normal" in2="effect1_dropShadow" result="effect2_dropShadow"/>
<feBlend mode="normal" in="SourceGraphic" in2="effect2_dropShadow" result="shape"/>
</filter>
<filter id="filter6_dd" x="155.609" y="143.305" width="93.0135" height="90.1873" filterUnits="userSpaceOnUse" color-interpolation-filters="sRGB">
<feFlood flood-opacity="0" result="BackgroundImageFix"/>
<feColorMatrix in="SourceAlpha" type="matrix" values="0 0 0 0 0 0 0 0 0 0 0 0 0 0 0 0 0 0 127 0"/>
<feOffset dx="10" dy="10"/>
<feGaussianBlur stdDeviation="10"/>
<feColorMatrix type="matrix" values="0 0 0 0 0 0 0 0 0 0 0 0 0 0 0 0 0 0 0.25 0"/>
<feBlend mode="normal" in2="BackgroundImageFix" result="effect1_dropShadow"/>
<feColorMatrix in="SourceAlpha" type="matrix" values="0 0 0 0 0 0 0 0 0 0 0 0 0 0 0 0 0 0 127 0"/>
<feOffset dx="20" dy="20"/>
<feGaussianBlur stdDeviation="20"/>
<feColorMatrix type="matrix" values="0 0 0 0 0 0 0 0 0 0 0 0 0 0 0 0 0 0 0.25 0"/>
<feBlend mode="normal" in2="effect1_dropShadow" result="effect2_dropShadow"/>
<feBlend mode="normal" in="SourceGraphic" in2="effect2_dropShadow" result="shape"/>
</filter>
<filter id="filter7_dd" x="150.602" y="153.238" width="93.0135" height="90.1873" filterUnits="userSpaceOnUse" color-interpolation-filters="sRGB">
<feFlood flood-opacity="0" result="BackgroundImageFix"/>
<feColorMatrix in="SourceAlpha" type="matrix" values="0 0 0 0 0 0 0 0 0 0 0 0 0 0 0 0 0 0 127 0"/>
<feOffset dx="10" dy="10"/>
<feGaussianBlur stdDeviation="10"/>
<feColorMatrix type="matrix" values="0 0 0 0 0 0 0 0 0 0 0 0 0 0 0 0 0 0 0.25 0"/>
<feBlend mode="normal" in2="BackgroundImageFix" result="effect1_dropShadow"/>
<feColorMatrix in="SourceAlpha" type="matrix" values="0 0 0 0 0 0 0 0 0 0 0 0 0 0 0 0 0 0 127 0"/>
<feOffset dx="20" dy="20"/>
<feGaussianBlur stdDeviation="20"/>
<feColorMatrix type="matrix" values="0 0 0 0 0 0 0 0 0 0 0 0 0 0 0 0 0 0 0.25 0"/>
<feBlend mode="normal" in2="effect1_dropShadow" result="effect2_dropShadow"/>
<feBlend mode="normal" in="SourceGraphic" in2="effect2_dropShadow" result="shape"/>
</filter>
<filter id="filter8_dd" x="145.586" y="163.168" width="93.0135" height="90.1873" filterUnits="userSpaceOnUse" color-interpolation-filters="sRGB">
<feFlood flood-opacity="0" result="BackgroundImageFix"/>
<feColorMatrix in="SourceAlpha" type="matrix" values="0 0 0 0 0 0 0 0 0 0 0 0 0 0 0 0 0 0 127 0"/>
<feOffset dx="10" dy="10"/>
<feGaussianBlur stdDeviation="10"/>
<feColorMatrix type="matrix" values="0 0 0 0 0 0 0 0 0 0 0 0 0 0 0 0 0 0 0.25 0"/>
<feBlend mode="normal" in2="BackgroundImageFix" result="effect1_dropShadow"/>
<feColorMatrix in="SourceAlpha" type="matrix" values="0 0 0 0 0 0 0 0 0 0 0 0 0 0 0 0 0 0 127 0"/>
<feOffset dx="20" dy="20"/>
<feGaussianBlur stdDeviation="20"/>
<feColorMatrix type="matrix" values="0 0 0 0 0 0 0 0 0 0 0 0 0 0 0 0 0 0 0.25 0"/>
<feBlend mode="normal" in2="effect1_dropShadow" result="effect2_dropShadow"/>
<feBlend mode="normal" in="SourceGraphic" in2="effect2_dropShadow" result="shape"/>
</filter>
<filter id="filter9_dd" x="140.582" y="173.107" width="93.0135" height="90.1873" filterUnits="userSpaceOnUse" color-interpolation-filters="sRGB">
<feFlood flood-opacity="0" result="BackgroundImageFix"/>
<feColorMatrix in="SourceAlpha" type="matrix" values="0 0 0 0 0 0 0 0 0 0 0 0 0 0 0 0 0 0 127 0"/>
<feOffset dx="10" dy="10"/>
<feGaussianBlur stdDeviation="10"/>
<feColorMatrix type="matrix" values="0 0 0 0 0 0 0 0 0 0 0 0 0 0 0 0 0 0 0.25 0"/>
<feBlend mode="normal" in2="BackgroundImageFix" result="effect1_dropShadow"/>
<feColorMatrix in="SourceAlpha" type="matrix" values="0 0 0 0 0 0 0 0 0 0 0 0 0 0 0 0 0 0 127 0"/>
<feOffset dx="20" dy="20"/>
<feGaussianBlur stdDeviation="20"/>
<feColorMatrix type="matrix" values="0 0 0 0 0 0 0 0 0 0 0 0 0 0 0 0 0 0 0.25 0"/>
<feBlend mode="normal" in2="effect1_dropShadow" result="effect2_dropShadow"/>
<feBlend mode="normal" in="SourceGraphic" in2="effect2_dropShadow" result="shape"/>
</filter>
<filter id="filter10_dd" x="157.246" y="181.436" width="93.0135" height="90.1873" filterUnits="userSpaceOnUse" color-interpolation-filters="sRGB">
<feFlood flood-opacity="0" result="BackgroundImageFix"/>
<feColorMatrix in="SourceAlpha" type="matrix" values="0 0 0 0 0 0 0 0 0 0 0 0 0 0 0 0 0 0 127 0"/>
<feOffset dx="10" dy="10"/>
<feGaussianBlur stdDeviation="10"/>
<feColorMatrix type="matrix" values="0 0 0 0 0 0 0 0 0 0 0 0 0 0 0 0 0 0 0.25 0"/>
<feBlend mode="normal" in2="BackgroundImageFix" result="effect1_dropShadow"/>
<feColorMatrix in="SourceAlpha" type="matrix" values="0 0 0 0 0 0 0 0 0 0 0 0 0 0 0 0 0 0 127 0"/>
<feOffset dx="20" dy="20"/>
<feGaussianBlur stdDeviation="20"/>
<feColorMatrix type="matrix" values="0 0 0 0 0 0 0 0 0 0 0 0 0 0 0 0 0 0 0.25 0"/>
<feBlend mode="normal" in2="effect1_dropShadow" result="effect2_dropShadow"/>
<feBlend mode="normal" in="SourceGraphic" in2="effect2_dropShadow" result="shape"/>
</filter>
<filter id="filter11_dd" x="175.039" y="190.332" width="93.0135" height="90.1873" filterUnits="userSpaceOnUse" color-interpolation-filters="sRGB">
<feFlood flood-opacity="0" result="BackgroundImageFix"/>
<feColorMatrix in="SourceAlpha" type="matrix" values="0 0 0 0 0 0 0 0 0 0 0 0 0 0 0 0 0 0 127 0"/>
<feOffset dx="10" dy="10"/>
<feGaussianBlur stdDeviation="10"/>
<feColorMatrix type="matrix" values="0 0 0 0 0 0 0 0 0 0 0 0 0 0 0 0 0 0 0.25 0"/>
<feBlend mode="normal" in2="BackgroundImageFix" result="effect1_dropShadow"/>
<feColorMatrix in="SourceAlpha" type="matrix" values="0 0 0 0 0 0 0 0 0 0 0 0 0 0 0 0 0 0 127 0"/>
<feOffset dx="20" dy="20"/>
<feGaussianBlur stdDeviation="20"/>
<feColorMatrix type="matrix" values="0 0 0 0 0 0 0 0 0 0 0 0 0 0 0 0 0 0 0.25 0"/>
<feBlend mode="normal" in2="effect1_dropShadow" result="effect2_dropShadow"/>
<feBlend mode="normal" in="SourceGraphic" in2="effect2_dropShadow" result="shape"/>
</filter>
<filter id="filter12_dd" x="162.27" y="171.506" width="93.0135" height="90.1873" filterUnits="userSpaceOnUse" color-interpolation-filters="sRGB">
<feFlood flood-opacity="0" result="BackgroundImageFix"/>
<feColorMatrix in="SourceAlpha" type="matrix" values="0 0 0 0 0 0 0 0 0 0 0 0 0 0 0 0 0 0 127 0"/>
<feOffset dx="10" dy="10"/>
<feGaussianBlur stdDeviation="10"/>
<feColorMatrix type="matrix" values="0 0 0 0 0 0 0 0 0 0 0 0 0 0 0 0 0 0 0.25 0"/>
<feBlend mode="normal" in2="BackgroundImageFix" result="effect1_dropShadow"/>
<feColorMatrix in="SourceAlpha" type="matrix" values="0 0 0 0 0 0 0 0 0 0 0 0 0 0 0 0 0 0 127 0"/>
<feOffset dx="20" dy="20"/>
<feGaussianBlur stdDeviation="20"/>
<feColorMatrix type="matrix" values="0 0 0 0 0 0 0 0 0 0 0 0 0 0 0 0 0 0 0.25 0"/>
<feBlend mode="normal" in2="effect1_dropShadow" result="effect2_dropShadow"/>
<feBlend mode="normal" in="SourceGraphic" in2="effect2_dropShadow" result="shape"/>
</filter>
<filter id="filter13_dd" x="180.062" y="180.402" width="93.0135" height="90.1873" filterUnits="userSpaceOnUse" color-interpolation-filters="sRGB">
<feFlood flood-opacity="0" result="BackgroundImageFix"/>
<feColorMatrix in="SourceAlpha" type="matrix" values="0 0 0 0 0 0 0 0 0 0 0 0 0 0 0 0 0 0 127 0"/>
<feOffset dx="10" dy="10"/>
<feGaussianBlur stdDeviation="10"/>
<feColorMatrix type="matrix" values="0 0 0 0 0 0 0 0 0 0 0 0 0 0 0 0 0 0 0.25 0"/>
<feBlend mode="normal" in2="BackgroundImageFix" result="effect1_dropShadow"/>
<feColorMatrix in="SourceAlpha" type="matrix" values="0 0 0 0 0 0 0 0 0 0 0 0 0 0 0 0 0 0 127 0"/>
<feOffset dx="20" dy="20"/>
<feGaussianBlur stdDeviation="20"/>
<feColorMatrix type="matrix" values="0 0 0 0 0 0 0 0 0 0 0 0 0 0 0 0 0 0 0.25 0"/>
<feBlend mode="normal" in2="effect1_dropShadow" result="effect2_dropShadow"/>
<feBlend mode="normal" in="SourceGraphic" in2="effect2_dropShadow" result="shape"/>
</filter>
<filter id="filter14_dd" x="167.285" y="161.574" width="93.0135" height="90.1873" filterUnits="userSpaceOnUse" color-interpolation-filters="sRGB">
<feFlood flood-opacity="0" result="BackgroundImageFix"/>
<feColorMatrix in="SourceAlpha" type="matrix" values="0 0 0 0 0 0 0 0 0 0 0 0 0 0 0 0 0 0 127 0"/>
<feOffset dx="10" dy="10"/>
<feGaussianBlur stdDeviation="10"/>
<feColorMatrix type="matrix" values="0 0 0 0 0 0 0 0 0 0 0 0 0 0 0 0 0 0 0.25 0"/>
<feBlend mode="normal" in2="BackgroundImageFix" result="effect1_dropShadow"/>
<feColorMatrix in="SourceAlpha" type="matrix" values="0 0 0 0 0 0 0 0 0 0 0 0 0 0 0 0 0 0 127 0"/>
<feOffset dx="20" dy="20"/>
<feGaussianBlur stdDeviation="20"/>
<feColorMatrix type="matrix" values="0 0 0 0 0 0 0 0 0 0 0 0 0 0 0 0 0 0 0.25 0"/>
<feBlend mode="normal" in2="effect1_dropShadow" result="effect2_dropShadow"/>
<feBlend mode="normal" in="SourceGraphic" in2="effect2_dropShadow" result="shape"/>
</filter>
<filter id="filter15_dd" x="185.07" y="170.463" width="93.0135" height="90.1873" filterUnits="userSpaceOnUse" color-interpolation-filters="sRGB">
<feFlood flood-opacity="0" result="BackgroundImageFix"/>
<feColorMatrix in="SourceAlpha" type="matrix" values="0 0 0 0 0 0 0 0 0 0 0 0 0 0 0 0 0 0 127 0"/>
<feOffset dx="10" dy="10"/>
<feGaussianBlur stdDeviation="10"/>
<feColorMatrix type="matrix" values="0 0 0 0 0 0 0 0 0 0 0 0 0 0 0 0 0 0 0.25 0"/>
<feBlend mode="normal" in2="BackgroundImageFix" result="effect1_dropShadow"/>
<feColorMatrix in="SourceAlpha" type="matrix" values="0 0 0 0 0 0 0 0 0 0 0 0 0 0 0 0 0 0 127 0"/>
<feOffset dx="20" dy="20"/>
<feGaussianBlur stdDeviation="20"/>
<feColorMatrix type="matrix" values="0 0 0 0 0 0 0 0 0 0 0 0 0 0 0 0 0 0 0.25 0"/>
<feBlend mode="normal" in2="effect1_dropShadow" result="effect2_dropShadow"/>
<feBlend mode="normal" in="SourceGraphic" in2="effect2_dropShadow" result="shape"/>
</filter>
<filter id="filter16_dd" x="172.297" y="151.643" width="93.0135" height="90.1873" filterUnits="userSpaceOnUse" color-interpolation-filters="sRGB">
<feFlood flood-opacity="0" result="BackgroundImageFix"/>
<feColorMatrix in="SourceAlpha" type="matrix" values="0 0 0 0 0 0 0 0 0 0 0 0 0 0 0 0 0 0 127 0"/>
<feOffset dx="10" dy="10"/>
<feGaussianBlur stdDeviation="10"/>
<feColorMatrix type="matrix" values="0 0 0 0 0 0 0 0 0 0 0 0 0 0 0 0 0 0 0.25 0"/>
<feBlend mode="normal" in2="BackgroundImageFix" result="effect1_dropShadow"/>
<feColorMatrix in="SourceAlpha" type="matrix" values="0 0 0 0 0 0 0 0 0 0 0 0 0 0 0 0 0 0 127 0"/>
<feOffset dx="20" dy="20"/>
<feGaussianBlur stdDeviation="20"/>
<feColorMatrix type="matrix" values="0 0 0 0 0 0 0 0 0 0 0 0 0 0 0 0 0 0 0.25 0"/>
<feBlend mode="normal" in2="effect1_dropShadow" result="effect2_dropShadow"/>
<feBlend mode="normal" in="SourceGraphic" in2="effect2_dropShadow" result="shape"/>
</filter>
<filter id="filter17_dd" x="190.09" y="160.535" width="93.0135" height="90.1873" filterUnits="userSpaceOnUse" color-interpolation-filters="sRGB">
<feFlood flood-opacity="0" result="BackgroundImageFix"/>
<feColorMatrix in="SourceAlpha" type="matrix" values="0 0 0 0 0 0 0 0 0 0 0 0 0 0 0 0 0 0 127 0"/>
<feOffset dx="10" dy="10"/>
<feGaussianBlur stdDeviation="10"/>
<feColorMatrix type="matrix" values="0 0 0 0 0 0 0 0 0 0 0 0 0 0 0 0 0 0 0.25 0"/>
<feBlend mode="normal" in2="BackgroundImageFix" result="effect1_dropShadow"/>
<feColorMatrix in="SourceAlpha" type="matrix" values="0 0 0 0 0 0 0 0 0 0 0 0 0 0 0 0 0 0 127 0"/>
<feOffset dx="20" dy="20"/>
<feGaussianBlur stdDeviation="20"/>
<feColorMatrix type="matrix" values="0 0 0 0 0 0 0 0 0 0 0 0 0 0 0 0 0 0 0.25 0"/>
<feBlend mode="normal" in2="effect1_dropShadow" result="effect2_dropShadow"/>
<feBlend mode="normal" in="SourceGraphic" in2="effect2_dropShadow" result="shape"/>
</filter>
<filter id="filter18_dd" x="174.812" y="112.287" width="122.038" height="106.208" filterUnits="userSpaceOnUse" color-interpolation-filters="sRGB">
<feFlood flood-opacity="0" result="BackgroundImageFix"/>
<feColorMatrix in="SourceAlpha" type="matrix" values="0 0 0 0 0 0 0 0 0 0 0 0 0 0 0 0 0 0 127 0"/>
<feOffset dx="10" dy="10"/>
<feGaussianBlur stdDeviation="10"/>
<feColorMatrix type="matrix" values="0 0 0 0 0 0 0 0 0 0 0 0 0 0 0 0 0 0 0.25 0"/>
<feBlend mode="normal" in2="BackgroundImageFix" result="effect1_dropShadow"/>
<feColorMatrix in="SourceAlpha" type="matrix" values="0 0 0 0 0 0 0 0 0 0 0 0 0 0 0 0 0 0 127 0"/>
<feOffset dx="20" dy="20"/>
<feGaussianBlur stdDeviation="20"/>
<feColorMatrix type="matrix" values="0 0 0 0 0 0 0 0 0 0 0 0 0 0 0 0 0 0 0.25 0"/>
<feBlend mode="normal" in2="effect1_dropShadow" result="effect2_dropShadow"/>
<feBlend mode="normal" in="SourceGraphic" in2="effect2_dropShadow" result="shape"/>
</filter>
</defs>
</svg>
