<svg width="216" height="294" viewBox="0 0 216 294" fill="none" xmlns="http://www.w3.org/2000/svg">
<rect width="193" height="270" fill="#F5CFF5"/>
<path d="M160.526 71.8153L149.961 66.5351L148.844 68.7424L141.604 83.0909L137.706 90.8171L135.196 95.7835L98.5021 77.4424L97.3896 76.8866C97.2962 76.1493 97.2759 74.3436 97.9483 73.0195L108.531 52.0488L114.107 41.012C115.309 40.0019 117.947 38.0939 118.833 38.5382C119.726 38.9831 145.709 52.4307 158.588 59.0988C161.703 59.5498 162.851 64.4534 163.03 66.8483L160.526 71.8153Z" fill="#FFF5F5"/>
<g filter="url(#filter0_dd)">
<path d="M28.3274 212.68L44.479 180.672L81.7831 199.315L65.6249 231.323L28.3274 212.68Z" fill="#1A1717"/>
<path d="M28.3274 212.68L44.479 180.672L81.7831 199.315L65.6249 231.323L28.3274 212.68Z" stroke="black" stroke-opacity="0.2"/>
</g>
<g filter="url(#filter1_dd)">
<path d="M95.9034 202.895C94.9965 204.653 91.2491 204.684 89.4896 204.479L91.4697 200.633L94.5915 194.59L106.775 170.966L129.469 125.632L150.16 85.5265L151.587 81.3977C151.958 81.5863 153.028 82.4094 154.342 84.1928C155.662 85.9768 154.667 88.9864 154.004 90.2683L95.9034 202.895Z" fill="#B52BAF" fill-opacity="0.6"/>
<path d="M95.9034 202.895C94.9965 204.653 91.2491 204.684 89.4896 204.479L91.4697 200.633L94.5915 194.59L106.775 170.966L129.469 125.632L150.16 85.5265L151.587 81.3977C151.958 81.5863 153.028 82.4094 154.342 84.1928C155.662 85.9768 154.667 88.9864 154.004 90.2683L95.9034 202.895Z" stroke="#451A67" stroke-opacity="0.2"/>
</g>
<g filter="url(#filter2_dd)">
<path d="M90.1191 57.5761C91.0069 55.8098 94.7506 55.7467 96.5115 55.9358L94.5626 59.7989L91.4975 65.8692L79.5208 89.5992L57.237 135.129L36.8972 175.415L35.5014 179.556C35.1306 179.37 34.0601 178.557 32.7253 176.785C31.3905 175.012 32.3608 171.995 33.0104 170.707L90.1191 57.5761Z" fill="#B52BAF" fill-opacity="0.6"/>
<path d="M90.1191 57.5761C91.0069 55.8098 94.7506 55.7467 96.5115 55.9358L94.5626 59.7989L91.4975 65.8692L79.5208 89.5992L57.237 135.129L36.8972 175.415L35.5014 179.556C35.1306 179.37 34.0601 178.557 32.7253 176.785C31.3905 175.012 32.3608 171.995 33.0104 170.707L90.1191 57.5761Z" stroke="#451A67" stroke-opacity="0.2"/>
</g>
<g filter="url(#filter3_dd)">
<path d="M94.6299 55.833C96.6055 53.0207 102.298 55.8194 104.894 57.57L98.604 70.0335C97.732 71.7678 99.3714 74.0353 100.302 74.9524L134.771 92.1819C136.996 93.2935 138.649 91.4042 139.195 90.3203L145.485 77.8569L150.488 80.3578C152.713 81.4696 152.726 83.7388 152.456 84.7346L147.536 94.4889L142.886 103.701L123.465 142.175L92.5507 203.407C91.6787 205.141 88.5036 205.907 87.0266 206.075L79.7984 202.461L80.8916 200.294L44.1975 181.953L43.1044 184.12L41.4323 183.287C40.6028 183.097 38.3263 182.275 35.8762 180.508C33.426 178.741 34.8194 174.325 35.8183 172.337L42.3844 159.332C58.9786 126.005 92.6544 58.6453 94.6299 55.833Z" fill="#1E0B31"/>
<path d="M94.6299 55.833C96.6055 53.0207 102.298 55.8194 104.894 57.57L98.604 70.0335C97.732 71.7678 99.3714 74.0353 100.302 74.9524L134.771 92.1819C136.996 93.2935 138.649 91.4042 139.195 90.3203L145.485 77.8569L150.488 80.3578C152.713 81.4696 152.726 83.7388 152.456 84.7346L147.536 94.4889L142.886 103.701L123.465 142.175L92.5507 203.407C91.6787 205.141 88.5036 205.907 87.0266 206.075L79.7984 202.461L80.8916 200.294L44.1975 181.953L43.1044 184.12L41.4323 183.287C40.6028 183.097 38.3263 182.275 35.8762 180.508C33.426 178.741 34.8194 174.325 35.8183 172.337L42.3844 159.332C58.9786 126.005 92.6544 58.6453 94.6299 55.833Z" stroke="#451A67" stroke-opacity="0.2"/>
</g>
<g filter="url(#filter4_dd)">
<path d="M133.261 108.512L87.9463 85.8632C86.3342 85.0575 84.3728 85.701 83.5653 87.3005L64.7603 124.553C63.9529 126.152 64.6052 128.102 66.2173 128.908L111.532 151.557C113.144 152.363 115.106 151.719 115.913 150.12L134.718 112.867C135.526 111.268 134.873 109.318 133.261 108.512Z" fill="#100F0F" fill-opacity="0.2"/>
</g>
<g filter="url(#filter5_dd)">
<path d="M130.573 112.694L86.2027 90.5172C85.5579 90.1949 84.7733 90.4523 84.4504 91.0921L68.9053 121.886C68.5823 122.526 68.8432 123.306 69.4881 123.629L113.858 145.805C114.503 146.127 115.287 145.87 115.61 145.23L131.155 114.436C131.478 113.796 131.217 113.016 130.573 112.694Z" fill="#1CC7D2"/>
</g>
<g filter="url(#filter6_dd)">
<path d="M71.9643 140.902L63.1793 136.511C62.5345 136.189 61.7499 136.446 61.4269 137.086L59.8107 140.288C59.4878 140.928 59.7487 141.708 60.3935 142.03L69.1786 146.421C69.8234 146.743 70.608 146.486 70.931 145.846L72.5471 142.644C72.8701 142.004 72.6092 141.224 71.9643 140.902Z" fill="#C4C4C4" fill-opacity="0.2"/>
</g>
<g filter="url(#filter7_dd)">
<path d="M66.9565 150.836L58.1715 146.445C57.5266 146.123 56.7421 146.38 56.4191 147.02L54.8029 150.221C54.48 150.861 54.7409 151.641 55.3857 151.963L64.1708 156.354C64.8156 156.677 65.6002 156.419 65.9231 155.779L67.5393 152.578C67.8623 151.938 67.6014 151.158 66.9565 150.836Z" fill="#C4C4C4" fill-opacity="0.2"/>
</g>
<g filter="url(#filter8_dd)">
<path d="M61.9409 160.765L53.1559 156.375C52.511 156.052 51.7265 156.31 51.4035 156.949L49.7873 160.151C49.4643 160.791 49.7252 161.571 50.3701 161.893L59.1551 166.284C59.8 166.606 60.5845 166.349 60.9075 165.709L62.5237 162.507C62.8467 161.868 62.5857 161.088 61.9409 160.765Z" fill="#C4C4C4" fill-opacity="0.2"/>
</g>
<g filter="url(#filter9_dd)">
<path d="M56.937 170.705L48.152 166.314C47.5071 165.992 46.7226 166.249 46.3996 166.889L44.7834 170.091C44.4604 170.73 44.7213 171.51 45.3662 171.833L54.1512 176.223C54.7961 176.546 55.5806 176.288 55.9036 175.649L57.5198 172.447C57.8428 171.807 57.5818 171.027 56.937 170.705Z" fill="#F30808"/>
</g>
<g filter="url(#filter10_dd)">
<path d="M73.6011 179.033L64.816 174.642C64.1712 174.32 63.3866 174.577 63.0636 175.217L61.4475 178.419C61.1245 179.058 61.3854 179.838 62.0302 180.161L70.8153 184.552C71.4601 184.874 72.2447 184.616 72.5677 183.977L74.1838 180.775C74.5068 180.135 74.2459 179.355 73.6011 179.033Z" fill="#C4C4C4" fill-opacity="0.2"/>
</g>
<g filter="url(#filter11_dd)">
<path d="M91.394 187.929L82.609 183.539C81.9641 183.216 81.1796 183.474 80.8566 184.114L79.2404 187.315C78.9175 187.955 79.1784 188.735 79.8232 189.057L88.6083 193.448C89.2531 193.77 90.0377 193.513 90.3606 192.873L91.9768 189.672C92.2998 189.032 92.0389 188.252 91.394 187.929Z" fill="#286214"/>
</g>
<g filter="url(#filter12_dd)">
<path d="M78.6245 169.103L69.8395 164.712C69.1946 164.39 68.4101 164.648 68.0871 165.287L66.4709 168.489C66.1479 169.129 66.4088 169.909 67.0537 170.231L75.8387 174.622C76.4836 174.944 77.2681 174.687 77.5911 174.047L79.2073 170.845C79.5302 170.206 79.2693 169.426 78.6245 169.103Z" fill="#C4C4C4" fill-opacity="0.2"/>
</g>
<g filter="url(#filter13_dd)">
<path d="M96.4175 178L87.6324 173.609C86.9876 173.287 86.203 173.544 85.88 174.184L84.2639 177.385C83.9409 178.025 84.2018 178.805 84.8467 179.127L93.6317 183.518C94.2765 183.841 95.0611 183.583 95.3841 182.943L97.0002 179.742C97.3232 179.102 97.0623 178.322 96.4175 178Z" fill="#C4C4C4" fill-opacity="0.2"/>
</g>
<g filter="url(#filter14_dd)">
<path d="M83.6401 159.172L74.8551 154.781C74.2102 154.459 73.4257 154.716 73.1027 155.356L71.4865 158.557C71.1636 159.197 71.4245 159.977 72.0693 160.299L80.8544 164.69C81.4992 165.013 82.2838 164.755 82.6067 164.115L84.2229 160.914C84.5459 160.274 84.285 159.494 83.6401 159.172Z" fill="#C4C4C4" fill-opacity="0.2"/>
</g>
<g filter="url(#filter15_dd)">
<path d="M101.425 168.06L92.6402 163.67C91.9954 163.347 91.2108 163.605 90.8879 164.244L89.2717 167.446C88.9487 168.086 89.2096 168.866 89.8545 169.188L98.6395 173.579C99.2843 173.901 100.069 173.644 100.392 173.004L102.008 169.802C102.331 169.163 102.07 168.383 101.425 168.06Z" fill="#C4C4C4" fill-opacity="0.2"/>
</g>
<g filter="url(#filter16_dd)">
<path d="M88.6518 149.24L79.8668 144.849C79.222 144.527 78.4374 144.784 78.1144 145.424L76.4982 148.626C76.1753 149.266 76.4362 150.045 77.081 150.368L85.8661 154.759C86.5109 155.081 87.2955 154.823 87.6184 154.184L89.2346 150.982C89.5576 150.342 89.2967 149.562 88.6518 149.24Z" fill="#C4C4C4" fill-opacity="0.2"/>
</g>
<g filter="url(#filter17_dd)">
<path d="M106.445 158.133L97.6598 153.742C97.0149 153.419 96.2304 153.677 95.9074 154.317L94.2912 157.518C93.9682 158.158 94.2292 158.938 94.874 159.26L103.659 163.651C104.304 163.973 105.088 163.716 105.411 163.076L107.028 159.875C107.351 159.235 107.09 158.455 106.445 158.133Z" fill="#C4C4C4" fill-opacity="0.2"/>
</g>
<path d="M36.9201 211.84C38.4554 212.607 40.3237 211.994 41.093 210.47C41.8623 208.946 41.2412 207.089 39.7058 206.321C38.1705 205.554 36.3022 206.167 35.5329 207.691C34.7636 209.215 35.3847 211.072 36.9201 211.84Z" fill="#C4C732"/>
<path d="M38.0372 209.633C39.5726 210.4 41.4409 209.787 42.2102 208.263C42.9795 206.739 42.3584 204.882 40.823 204.114C39.2876 203.347 37.4194 203.96 36.6501 205.484C35.8808 207.008 36.5019 208.865 38.0372 209.633Z" fill="#C78232"/>
<g filter="url(#filter18_dd)">
<path d="M81.4091 110.647L79.9281 113.732L78.8753 113.234L82.6639 105.355L85.5936 106.748C86.4689 107.161 87.0411 107.705 87.3233 108.379C87.6055 109.054 87.572 109.754 87.2293 110.479C86.8579 111.244 86.3357 111.719 85.6496 111.904C84.9702 112.086 84.1801 111.965 83.2796 111.537L81.4091 110.647ZM81.8188 109.798L83.7021 110.693C84.2601 110.959 84.7524 111.033 85.1789 110.915C85.6056 110.794 85.9336 110.486 86.1693 109.992C86.3968 109.523 86.4264 109.077 86.2649 108.653C86.1033 108.231 85.7597 107.889 85.2469 107.631L83.3001 106.708L81.8188 109.798ZM90.7203 109.925L90.0372 111.343L91.1407 111.866L90.7686 112.64L89.6651 112.117L87.9255 115.748C87.8117 115.982 87.7723 116.182 87.8136 116.348C87.8551 116.51 87.9964 116.647 88.2375 116.76C88.3516 116.815 88.5246 116.87 88.75 116.923L88.3558 117.735C88.0585 117.681 87.783 117.594 87.5292 117.475C87.079 117.261 86.8044 116.964 86.6989 116.583C86.5998 116.204 86.6747 115.766 86.9107 115.267L88.6569 111.637L87.5788 111.126L87.9509 110.352L89.029 110.863L89.7121 109.445L90.7203 109.925ZM94.7539 114.685C94.6165 114.587 94.4525 114.496 94.2749 114.411C93.6155 114.096 93.0289 114.162 92.5216 114.609L90.5246 118.765L89.5163 118.285L92.3265 112.429L93.3094 112.896L93.0022 113.581C93.5891 113.215 94.1805 113.176 94.7893 113.465C94.9858 113.559 95.1233 113.655 95.2018 113.754L94.7539 114.685ZM94.3628 116.924C94.6365 116.351 95.0009 115.889 95.4429 115.538C95.8979 115.189 96.3824 114.985 96.9095 114.929C97.4365 114.874 97.9601 114.97 98.48 115.217C99.2854 115.599 99.8026 116.184 100.032 116.971C100.267 117.76 100.164 118.612 99.7239 119.529L99.6865 119.599C99.4131 120.169 99.0554 120.628 98.6136 120.977C98.1783 121.324 97.7003 121.527 97.1667 121.584C96.6329 121.643 96.1029 121.546 95.5702 121.294C94.7713 120.913 94.254 120.329 94.0187 119.539C93.7898 118.752 93.892 117.904 94.3319 116.995L94.3628 116.924ZM95.3237 117.527C95.0123 118.176 94.9139 118.769 95.0221 119.305C95.1433 119.844 95.4575 120.235 95.9647 120.477C96.4784 120.72 96.9824 120.715 97.4768 120.462C97.9714 120.206 98.3899 119.718 98.732 119C99.043 118.358 99.1413 117.765 99.0205 117.221C98.9063 116.675 98.5924 116.281 98.0851 116.039C97.5841 115.802 97.0865 115.808 96.5925 116.056C96.0984 116.304 95.6733 116.794 95.3237 117.527ZM103.348 117.662L103.03 118.414C103.753 118.066 104.479 118.064 105.208 118.411C106.458 119.004 106.751 120.001 106.089 121.402L104.229 125.271L103.22 124.791L105.081 120.916C105.279 120.493 105.336 120.135 105.238 119.84C105.146 119.549 104.894 119.306 104.494 119.115C104.164 118.959 103.834 118.909 103.503 118.965C103.173 119.02 102.869 119.155 102.593 119.371L100.588 123.543L99.5803 123.063L102.397 117.209L103.348 117.662ZM106.854 126.516L105.846 126.037L108.656 120.181L109.664 120.661L106.854 126.516ZM109.318 118.589C109.401 118.427 109.513 118.314 109.668 118.248C109.822 118.185 109.998 118.2 110.195 118.293C110.391 118.387 110.513 118.514 110.562 118.674C110.61 118.834 110.593 118.995 110.516 119.158C110.44 119.32 110.322 119.431 110.167 119.491C110.013 119.55 109.837 119.534 109.641 119.44C109.444 119.347 109.322 119.222 109.273 119.065C109.225 118.91 109.242 118.752 109.318 118.589ZM111.191 127.704C111.552 127.876 111.916 127.916 112.288 127.828C112.667 127.74 112.942 127.54 113.126 127.229L114.084 127.683C113.905 128.01 113.632 128.274 113.272 128.474C112.912 128.676 112.512 128.781 112.06 128.79C111.621 128.801 111.196 128.711 110.796 128.521C109.991 128.139 109.479 127.569 109.255 126.812C109.037 126.053 109.152 125.212 109.593 124.289L109.676 124.122C109.949 123.551 110.3 123.095 110.722 122.751C111.151 122.408 111.615 122.207 112.129 122.148C112.644 122.092 113.167 122.191 113.706 122.447C114.372 122.762 114.825 123.22 115.073 123.82C115.328 124.423 115.319 125.045 115.047 125.687L114.09 125.232C114.24 124.84 114.246 124.46 114.1 124.094C113.954 123.726 113.698 123.451 113.311 123.27C112.797 123.026 112.314 123.02 111.853 123.253C111.393 123.484 111.002 123.946 110.668 124.639L110.577 124.829C110.251 125.503 110.147 126.09 110.251 126.587C110.355 127.085 110.671 127.457 111.191 127.704ZM118.525 130.15C118.654 129.879 118.652 129.62 118.511 129.374C118.384 129.125 118.083 128.825 117.622 128.473C117.168 128.123 116.823 127.8 116.594 127.505C116.365 127.212 116.234 126.926 116.187 126.648C116.147 126.371 116.192 126.088 116.335 125.8C116.563 125.319 116.963 125.011 117.528 124.872C118.1 124.736 118.703 124.819 119.344 125.122C120.009 125.44 120.471 125.869 120.723 126.409C120.975 126.95 120.979 127.488 120.721 128.022L119.706 127.54C119.835 127.266 119.829 126.973 119.686 126.662C119.549 126.353 119.304 126.114 118.949 125.944C118.581 125.77 118.251 125.712 117.972 125.773C117.687 125.833 117.48 125.991 117.358 126.247C117.244 126.489 117.249 126.716 117.385 126.931C117.521 127.145 117.81 127.428 118.258 127.778C118.712 128.13 119.056 128.458 119.298 128.762C119.539 129.066 119.676 129.363 119.722 129.655C119.769 129.943 119.716 130.245 119.571 130.559C119.313 131.082 118.906 131.402 118.329 131.519C117.752 131.632 117.131 131.529 116.459 131.209C115.983 130.984 115.603 130.702 115.318 130.363C115.033 130.024 114.861 129.658 114.796 129.264C114.737 128.867 114.788 128.496 114.955 128.15L115.964 128.629C115.823 128.974 115.827 129.304 115.983 129.622C116.145 129.938 116.435 130.194 116.847 130.391C117.234 130.573 117.576 130.643 117.88 130.601C118.184 130.556 118.403 130.406 118.525 130.15Z" fill="white"/>
</g>
<defs>
<filter id="filter0_dd" x="6.29688" y="158.818" width="137.52" height="134.36" filterUnits="userSpaceOnUse" color-interpolation-filters="sRGB">
<feFlood flood-opacity="0" result="BackgroundImageFix"/>
<feColorMatrix in="SourceAlpha" type="matrix" values="0 0 0 0 0 0 0 0 0 0 0 0 0 0 0 0 0 0 127 0"/>
<feOffset dx="10" dy="10"/>
<feGaussianBlur stdDeviation="10"/>
<feColorMatrix type="matrix" values="0 0 0 0 0 0 0 0 0 0 0 0 0 0 0 0 0 0 0.25 0"/>
<feBlend mode="normal" in2="BackgroundImageFix" result="effect1_dropShadow"/>
<feColorMatrix in="SourceAlpha" type="matrix" values="0 0 0 0 0 0 0 0 0 0 0 0 0 0 0 0 0 0 127 0"/>
<feOffset dx="20" dy="20"/>
<feGaussianBlur stdDeviation="20"/>
<feColorMatrix type="matrix" values="0 0 0 0 0 0 0 0 0 0 0 0 0 0 0 0 0 0 0.25 0"/>
<feBlend mode="normal" in2="effect1_dropShadow" result="effect2_dropShadow"/>
<feBlend mode="normal" in="SourceGraphic" in2="effect2_dropShadow" result="shape"/>
</filter>
<filter id="filter1_dd" x="68.7109" y="56.2266" width="147.268" height="213.562" filterUnits="userSpaceOnUse" color-interpolation-filters="sRGB">
<feFlood flood-opacity="0" result="BackgroundImageFix"/>
<feColorMatrix in="SourceAlpha" type="matrix" values="0 0 0 0 0 0 0 0 0 0 0 0 0 0 0 0 0 0 127 0"/>
<feOffset dx="10" dy="10"/>
<feGaussianBlur stdDeviation="10"/>
<feColorMatrix type="matrix" values="0 0 0 0 0 0 0 0 0 0 0 0 0 0 0 0 0 0 0.25 0"/>
<feBlend mode="normal" in2="BackgroundImageFix" result="effect1_dropShadow"/>
<feColorMatrix in="SourceAlpha" type="matrix" values="0 0 0 0 0 0 0 0 0 0 0 0 0 0 0 0 0 0 127 0"/>
<feOffset dx="20" dy="20"/>
<feGaussianBlur stdDeviation="20"/>
<feColorMatrix type="matrix" values="0 0 0 0 0 0 0 0 0 0 0 0 0 0 0 0 0 0 0.25 0"/>
<feBlend mode="normal" in2="effect1_dropShadow" result="effect2_dropShadow"/>
<feBlend mode="normal" in="SourceGraphic" in2="effect2_dropShadow" result="shape"/>
</filter>
<filter id="filter2_dd" x="11.0664" y="30.7227" width="146.218" height="213.904" filterUnits="userSpaceOnUse" color-interpolation-filters="sRGB">
<feFlood flood-opacity="0" result="BackgroundImageFix"/>
<feColorMatrix in="SourceAlpha" type="matrix" values="0 0 0 0 0 0 0 0 0 0 0 0 0 0 0 0 0 0 127 0"/>
<feOffset dx="10" dy="10"/>
<feGaussianBlur stdDeviation="10"/>
<feColorMatrix type="matrix" values="0 0 0 0 0 0 0 0 0 0 0 0 0 0 0 0 0 0 0.25 0"/>
<feBlend mode="normal" in2="BackgroundImageFix" result="effect1_dropShadow"/>
<feColorMatrix in="SourceAlpha" type="matrix" values="0 0 0 0 0 0 0 0 0 0 0 0 0 0 0 0 0 0 127 0"/>
<feOffset dx="20" dy="20"/>
<feGaussianBlur stdDeviation="20"/>
<feColorMatrix type="matrix" values="0 0 0 0 0 0 0 0 0 0 0 0 0 0 0 0 0 0 0.25 0"/>
<feBlend mode="normal" in2="effect1_dropShadow" result="effect2_dropShadow"/>
<feBlend mode="normal" in="SourceGraphic" in2="effect2_dropShadow" result="shape"/>
</filter>
<filter id="filter3_dd" x="11.8516" y="29.5781" width="203.377" height="241.793" filterUnits="userSpaceOnUse" color-interpolation-filters="sRGB">
<feFlood flood-opacity="0" result="BackgroundImageFix"/>
<feColorMatrix in="SourceAlpha" type="matrix" values="0 0 0 0 0 0 0 0 0 0 0 0 0 0 0 0 0 0 127 0"/>
<feOffset dx="10" dy="10"/>
<feGaussianBlur stdDeviation="10"/>
<feColorMatrix type="matrix" values="0 0 0 0 0 0 0 0 0 0 0 0 0 0 0 0 0 0 0.25 0"/>
<feBlend mode="normal" in2="BackgroundImageFix" result="effect1_dropShadow"/>
<feColorMatrix in="SourceAlpha" type="matrix" values="0 0 0 0 0 0 0 0 0 0 0 0 0 0 0 0 0 0 127 0"/>
<feOffset dx="20" dy="20"/>
<feGaussianBlur stdDeviation="20"/>
<feColorMatrix type="matrix" values="0 0 0 0 0 0 0 0 0 0 0 0 0 0 0 0 0 0 0.25 0"/>
<feBlend mode="normal" in2="effect1_dropShadow" result="effect2_dropShadow"/>
<feBlend mode="normal" in="SourceGraphic" in2="effect2_dropShadow" result="shape"/>
</filter>
<filter id="filter4_dd" x="44.4141" y="65.5156" width="150.651" height="146.388" filterUnits="userSpaceOnUse" color-interpolation-filters="sRGB">
<feFlood flood-opacity="0" result="BackgroundImageFix"/>
<feColorMatrix in="SourceAlpha" type="matrix" values="0 0 0 0 0 0 0 0 0 0 0 0 0 0 0 0 0 0 127 0"/>
<feOffset dx="10" dy="10"/>
<feGaussianBlur stdDeviation="10"/>
<feColorMatrix type="matrix" values="0 0 0 0 0 0 0 0 0 0 0 0 0 0 0 0 0 0 0.25 0"/>
<feBlend mode="normal" in2="BackgroundImageFix" result="effect1_dropShadow"/>
<feColorMatrix in="SourceAlpha" type="matrix" values="0 0 0 0 0 0 0 0 0 0 0 0 0 0 0 0 0 0 127 0"/>
<feOffset dx="20" dy="20"/>
<feGaussianBlur stdDeviation="20"/>
<feColorMatrix type="matrix" values="0 0 0 0 0 0 0 0 0 0 0 0 0 0 0 0 0 0 0.25 0"/>
<feBlend mode="normal" in2="effect1_dropShadow" result="effect2_dropShadow"/>
<feBlend mode="normal" in="SourceGraphic" in2="effect2_dropShadow" result="shape"/>
</filter>
<filter id="filter5_dd" x="48.7656" y="70.3789" width="142.527" height="135.566" filterUnits="userSpaceOnUse" color-interpolation-filters="sRGB">
<feFlood flood-opacity="0" result="BackgroundImageFix"/>
<feColorMatrix in="SourceAlpha" type="matrix" values="0 0 0 0 0 0 0 0 0 0 0 0 0 0 0 0 0 0 127 0"/>
<feOffset dx="10" dy="10"/>
<feGaussianBlur stdDeviation="10"/>
<feColorMatrix type="matrix" values="0 0 0 0 0 0 0 0 0 0 0 0 0 0 0 0 0 0 0.25 0"/>
<feBlend mode="normal" in2="BackgroundImageFix" result="effect1_dropShadow"/>
<feColorMatrix in="SourceAlpha" type="matrix" values="0 0 0 0 0 0 0 0 0 0 0 0 0 0 0 0 0 0 127 0"/>
<feOffset dx="20" dy="20"/>
<feGaussianBlur stdDeviation="20"/>
<feColorMatrix type="matrix" values="0 0 0 0 0 0 0 0 0 0 0 0 0 0 0 0 0 0 0.25 0"/>
<feBlend mode="normal" in2="effect1_dropShadow" result="effect2_dropShadow"/>
<feBlend mode="normal" in="SourceGraphic" in2="effect2_dropShadow" result="shape"/>
</filter>
<filter id="filter6_dd" x="39.6719" y="116.373" width="93.0135" height="90.1873" filterUnits="userSpaceOnUse" color-interpolation-filters="sRGB">
<feFlood flood-opacity="0" result="BackgroundImageFix"/>
<feColorMatrix in="SourceAlpha" type="matrix" values="0 0 0 0 0 0 0 0 0 0 0 0 0 0 0 0 0 0 127 0"/>
<feOffset dx="10" dy="10"/>
<feGaussianBlur stdDeviation="10"/>
<feColorMatrix type="matrix" values="0 0 0 0 0 0 0 0 0 0 0 0 0 0 0 0 0 0 0.25 0"/>
<feBlend mode="normal" in2="BackgroundImageFix" result="effect1_dropShadow"/>
<feColorMatrix in="SourceAlpha" type="matrix" values="0 0 0 0 0 0 0 0 0 0 0 0 0 0 0 0 0 0 127 0"/>
<feOffset dx="20" dy="20"/>
<feGaussianBlur stdDeviation="20"/>
<feColorMatrix type="matrix" values="0 0 0 0 0 0 0 0 0 0 0 0 0 0 0 0 0 0 0.25 0"/>
<feBlend mode="normal" in2="effect1_dropShadow" result="effect2_dropShadow"/>
<feBlend mode="normal" in="SourceGraphic" in2="effect2_dropShadow" result="shape"/>
</filter>
<filter id="filter7_dd" x="34.6641" y="126.307" width="93.0135" height="90.1873" filterUnits="userSpaceOnUse" color-interpolation-filters="sRGB">
<feFlood flood-opacity="0" result="BackgroundImageFix"/>
<feColorMatrix in="SourceAlpha" type="matrix" values="0 0 0 0 0 0 0 0 0 0 0 0 0 0 0 0 0 0 127 0"/>
<feOffset dx="10" dy="10"/>
<feGaussianBlur stdDeviation="10"/>
<feColorMatrix type="matrix" values="0 0 0 0 0 0 0 0 0 0 0 0 0 0 0 0 0 0 0.25 0"/>
<feBlend mode="normal" in2="BackgroundImageFix" result="effect1_dropShadow"/>
<feColorMatrix in="SourceAlpha" type="matrix" values="0 0 0 0 0 0 0 0 0 0 0 0 0 0 0 0 0 0 127 0"/>
<feOffset dx="20" dy="20"/>
<feGaussianBlur stdDeviation="20"/>
<feColorMatrix type="matrix" values="0 0 0 0 0 0 0 0 0 0 0 0 0 0 0 0 0 0 0.25 0"/>
<feBlend mode="normal" in2="effect1_dropShadow" result="effect2_dropShadow"/>
<feBlend mode="normal" in="SourceGraphic" in2="effect2_dropShadow" result="shape"/>
</filter>
<filter id="filter8_dd" x="29.6484" y="136.236" width="93.0135" height="90.1873" filterUnits="userSpaceOnUse" color-interpolation-filters="sRGB">
<feFlood flood-opacity="0" result="BackgroundImageFix"/>
<feColorMatrix in="SourceAlpha" type="matrix" values="0 0 0 0 0 0 0 0 0 0 0 0 0 0 0 0 0 0 127 0"/>
<feOffset dx="10" dy="10"/>
<feGaussianBlur stdDeviation="10"/>
<feColorMatrix type="matrix" values="0 0 0 0 0 0 0 0 0 0 0 0 0 0 0 0 0 0 0.25 0"/>
<feBlend mode="normal" in2="BackgroundImageFix" result="effect1_dropShadow"/>
<feColorMatrix in="SourceAlpha" type="matrix" values="0 0 0 0 0 0 0 0 0 0 0 0 0 0 0 0 0 0 127 0"/>
<feOffset dx="20" dy="20"/>
<feGaussianBlur stdDeviation="20"/>
<feColorMatrix type="matrix" values="0 0 0 0 0 0 0 0 0 0 0 0 0 0 0 0 0 0 0.25 0"/>
<feBlend mode="normal" in2="effect1_dropShadow" result="effect2_dropShadow"/>
<feBlend mode="normal" in="SourceGraphic" in2="effect2_dropShadow" result="shape"/>
</filter>
<filter id="filter9_dd" x="24.6445" y="146.176" width="93.0135" height="90.1873" filterUnits="userSpaceOnUse" color-interpolation-filters="sRGB">
<feFlood flood-opacity="0" result="BackgroundImageFix"/>
<feColorMatrix in="SourceAlpha" type="matrix" values="0 0 0 0 0 0 0 0 0 0 0 0 0 0 0 0 0 0 127 0"/>
<feOffset dx="10" dy="10"/>
<feGaussianBlur stdDeviation="10"/>
<feColorMatrix type="matrix" values="0 0 0 0 0 0 0 0 0 0 0 0 0 0 0 0 0 0 0.25 0"/>
<feBlend mode="normal" in2="BackgroundImageFix" result="effect1_dropShadow"/>
<feColorMatrix in="SourceAlpha" type="matrix" values="0 0 0 0 0 0 0 0 0 0 0 0 0 0 0 0 0 0 127 0"/>
<feOffset dx="20" dy="20"/>
<feGaussianBlur stdDeviation="20"/>
<feColorMatrix type="matrix" values="0 0 0 0 0 0 0 0 0 0 0 0 0 0 0 0 0 0 0.25 0"/>
<feBlend mode="normal" in2="effect1_dropShadow" result="effect2_dropShadow"/>
<feBlend mode="normal" in="SourceGraphic" in2="effect2_dropShadow" result="shape"/>
</filter>
<filter id="filter10_dd" x="41.3086" y="154.504" width="93.0135" height="90.1873" filterUnits="userSpaceOnUse" color-interpolation-filters="sRGB">
<feFlood flood-opacity="0" result="BackgroundImageFix"/>
<feColorMatrix in="SourceAlpha" type="matrix" values="0 0 0 0 0 0 0 0 0 0 0 0 0 0 0 0 0 0 127 0"/>
<feOffset dx="10" dy="10"/>
<feGaussianBlur stdDeviation="10"/>
<feColorMatrix type="matrix" values="0 0 0 0 0 0 0 0 0 0 0 0 0 0 0 0 0 0 0.25 0"/>
<feBlend mode="normal" in2="BackgroundImageFix" result="effect1_dropShadow"/>
<feColorMatrix in="SourceAlpha" type="matrix" values="0 0 0 0 0 0 0 0 0 0 0 0 0 0 0 0 0 0 127 0"/>
<feOffset dx="20" dy="20"/>
<feGaussianBlur stdDeviation="20"/>
<feColorMatrix type="matrix" values="0 0 0 0 0 0 0 0 0 0 0 0 0 0 0 0 0 0 0.25 0"/>
<feBlend mode="normal" in2="effect1_dropShadow" result="effect2_dropShadow"/>
<feBlend mode="normal" in="SourceGraphic" in2="effect2_dropShadow" result="shape"/>
</filter>
<filter id="filter11_dd" x="59.1016" y="163.4" width="93.0135" height="90.1873" filterUnits="userSpaceOnUse" color-interpolation-filters="sRGB">
<feFlood flood-opacity="0" result="BackgroundImageFix"/>
<feColorMatrix in="SourceAlpha" type="matrix" values="0 0 0 0 0 0 0 0 0 0 0 0 0 0 0 0 0 0 127 0"/>
<feOffset dx="10" dy="10"/>
<feGaussianBlur stdDeviation="10"/>
<feColorMatrix type="matrix" values="0 0 0 0 0 0 0 0 0 0 0 0 0 0 0 0 0 0 0.25 0"/>
<feBlend mode="normal" in2="BackgroundImageFix" result="effect1_dropShadow"/>
<feColorMatrix in="SourceAlpha" type="matrix" values="0 0 0 0 0 0 0 0 0 0 0 0 0 0 0 0 0 0 127 0"/>
<feOffset dx="20" dy="20"/>
<feGaussianBlur stdDeviation="20"/>
<feColorMatrix type="matrix" values="0 0 0 0 0 0 0 0 0 0 0 0 0 0 0 0 0 0 0.25 0"/>
<feBlend mode="normal" in2="effect1_dropShadow" result="effect2_dropShadow"/>
<feBlend mode="normal" in="SourceGraphic" in2="effect2_dropShadow" result="shape"/>
</filter>
<filter id="filter12_dd" x="46.332" y="144.574" width="93.0135" height="90.1873" filterUnits="userSpaceOnUse" color-interpolation-filters="sRGB">
<feFlood flood-opacity="0" result="BackgroundImageFix"/>
<feColorMatrix in="SourceAlpha" type="matrix" values="0 0 0 0 0 0 0 0 0 0 0 0 0 0 0 0 0 0 127 0"/>
<feOffset dx="10" dy="10"/>
<feGaussianBlur stdDeviation="10"/>
<feColorMatrix type="matrix" values="0 0 0 0 0 0 0 0 0 0 0 0 0 0 0 0 0 0 0.25 0"/>
<feBlend mode="normal" in2="BackgroundImageFix" result="effect1_dropShadow"/>
<feColorMatrix in="SourceAlpha" type="matrix" values="0 0 0 0 0 0 0 0 0 0 0 0 0 0 0 0 0 0 127 0"/>
<feOffset dx="20" dy="20"/>
<feGaussianBlur stdDeviation="20"/>
<feColorMatrix type="matrix" values="0 0 0 0 0 0 0 0 0 0 0 0 0 0 0 0 0 0 0.25 0"/>
<feBlend mode="normal" in2="effect1_dropShadow" result="effect2_dropShadow"/>
<feBlend mode="normal" in="SourceGraphic" in2="effect2_dropShadow" result="shape"/>
</filter>
<filter id="filter13_dd" x="64.125" y="153.471" width="93.0135" height="90.1873" filterUnits="userSpaceOnUse" color-interpolation-filters="sRGB">
<feFlood flood-opacity="0" result="BackgroundImageFix"/>
<feColorMatrix in="SourceAlpha" type="matrix" values="0 0 0 0 0 0 0 0 0 0 0 0 0 0 0 0 0 0 127 0"/>
<feOffset dx="10" dy="10"/>
<feGaussianBlur stdDeviation="10"/>
<feColorMatrix type="matrix" values="0 0 0 0 0 0 0 0 0 0 0 0 0 0 0 0 0 0 0.25 0"/>
<feBlend mode="normal" in2="BackgroundImageFix" result="effect1_dropShadow"/>
<feColorMatrix in="SourceAlpha" type="matrix" values="0 0 0 0 0 0 0 0 0 0 0 0 0 0 0 0 0 0 127 0"/>
<feOffset dx="20" dy="20"/>
<feGaussianBlur stdDeviation="20"/>
<feColorMatrix type="matrix" values="0 0 0 0 0 0 0 0 0 0 0 0 0 0 0 0 0 0 0.25 0"/>
<feBlend mode="normal" in2="effect1_dropShadow" result="effect2_dropShadow"/>
<feBlend mode="normal" in="SourceGraphic" in2="effect2_dropShadow" result="shape"/>
</filter>
<filter id="filter14_dd" x="51.3477" y="134.643" width="93.0135" height="90.1873" filterUnits="userSpaceOnUse" color-interpolation-filters="sRGB">
<feFlood flood-opacity="0" result="BackgroundImageFix"/>
<feColorMatrix in="SourceAlpha" type="matrix" values="0 0 0 0 0 0 0 0 0 0 0 0 0 0 0 0 0 0 127 0"/>
<feOffset dx="10" dy="10"/>
<feGaussianBlur stdDeviation="10"/>
<feColorMatrix type="matrix" values="0 0 0 0 0 0 0 0 0 0 0 0 0 0 0 0 0 0 0.25 0"/>
<feBlend mode="normal" in2="BackgroundImageFix" result="effect1_dropShadow"/>
<feColorMatrix in="SourceAlpha" type="matrix" values="0 0 0 0 0 0 0 0 0 0 0 0 0 0 0 0 0 0 127 0"/>
<feOffset dx="20" dy="20"/>
<feGaussianBlur stdDeviation="20"/>
<feColorMatrix type="matrix" values="0 0 0 0 0 0 0 0 0 0 0 0 0 0 0 0 0 0 0.25 0"/>
<feBlend mode="normal" in2="effect1_dropShadow" result="effect2_dropShadow"/>
<feBlend mode="normal" in="SourceGraphic" in2="effect2_dropShadow" result="shape"/>
</filter>
<filter id="filter15_dd" x="69.1328" y="143.531" width="93.0135" height="90.1873" filterUnits="userSpaceOnUse" color-interpolation-filters="sRGB">
<feFlood flood-opacity="0" result="BackgroundImageFix"/>
<feColorMatrix in="SourceAlpha" type="matrix" values="0 0 0 0 0 0 0 0 0 0 0 0 0 0 0 0 0 0 127 0"/>
<feOffset dx="10" dy="10"/>
<feGaussianBlur stdDeviation="10"/>
<feColorMatrix type="matrix" values="0 0 0 0 0 0 0 0 0 0 0 0 0 0 0 0 0 0 0.25 0"/>
<feBlend mode="normal" in2="BackgroundImageFix" result="effect1_dropShadow"/>
<feColorMatrix in="SourceAlpha" type="matrix" values="0 0 0 0 0 0 0 0 0 0 0 0 0 0 0 0 0 0 127 0"/>
<feOffset dx="20" dy="20"/>
<feGaussianBlur stdDeviation="20"/>
<feColorMatrix type="matrix" values="0 0 0 0 0 0 0 0 0 0 0 0 0 0 0 0 0 0 0.25 0"/>
<feBlend mode="normal" in2="effect1_dropShadow" result="effect2_dropShadow"/>
<feBlend mode="normal" in="SourceGraphic" in2="effect2_dropShadow" result="shape"/>
</filter>
<filter id="filter16_dd" x="56.3594" y="124.711" width="93.0135" height="90.1873" filterUnits="userSpaceOnUse" color-interpolation-filters="sRGB">
<feFlood flood-opacity="0" result="BackgroundImageFix"/>
<feColorMatrix in="SourceAlpha" type="matrix" values="0 0 0 0 0 0 0 0 0 0 0 0 0 0 0 0 0 0 127 0"/>
<feOffset dx="10" dy="10"/>
<feGaussianBlur stdDeviation="10"/>
<feColorMatrix type="matrix" values="0 0 0 0 0 0 0 0 0 0 0 0 0 0 0 0 0 0 0.25 0"/>
<feBlend mode="normal" in2="BackgroundImageFix" result="effect1_dropShadow"/>
<feColorMatrix in="SourceAlpha" type="matrix" values="0 0 0 0 0 0 0 0 0 0 0 0 0 0 0 0 0 0 127 0"/>
<feOffset dx="20" dy="20"/>
<feGaussianBlur stdDeviation="20"/>
<feColorMatrix type="matrix" values="0 0 0 0 0 0 0 0 0 0 0 0 0 0 0 0 0 0 0.25 0"/>
<feBlend mode="normal" in2="effect1_dropShadow" result="effect2_dropShadow"/>
<feBlend mode="normal" in="SourceGraphic" in2="effect2_dropShadow" result="shape"/>
</filter>
<filter id="filter17_dd" x="74.1523" y="133.604" width="93.0135" height="90.1873" filterUnits="userSpaceOnUse" color-interpolation-filters="sRGB">
<feFlood flood-opacity="0" result="BackgroundImageFix"/>
<feColorMatrix in="SourceAlpha" type="matrix" values="0 0 0 0 0 0 0 0 0 0 0 0 0 0 0 0 0 0 127 0"/>
<feOffset dx="10" dy="10"/>
<feGaussianBlur stdDeviation="10"/>
<feColorMatrix type="matrix" values="0 0 0 0 0 0 0 0 0 0 0 0 0 0 0 0 0 0 0.25 0"/>
<feBlend mode="normal" in2="BackgroundImageFix" result="effect1_dropShadow"/>
<feColorMatrix in="SourceAlpha" type="matrix" values="0 0 0 0 0 0 0 0 0 0 0 0 0 0 0 0 0 0 127 0"/>
<feOffset dx="20" dy="20"/>
<feGaussianBlur stdDeviation="20"/>
<feColorMatrix type="matrix" values="0 0 0 0 0 0 0 0 0 0 0 0 0 0 0 0 0 0 0.25 0"/>
<feBlend mode="normal" in2="effect1_dropShadow" result="effect2_dropShadow"/>
<feBlend mode="normal" in="SourceGraphic" in2="effect2_dropShadow" result="shape"/>
</filter>
<filter id="filter18_dd" x="58.875" y="85.3555" width="122.038" height="106.208" filterUnits="userSpaceOnUse" color-interpolation-filters="sRGB">
<feFlood flood-opacity="0" result="BackgroundImageFix"/>
<feColorMatrix in="SourceAlpha" type="matrix" values="0 0 0 0 0 0 0 0 0 0 0 0 0 0 0 0 0 0 127 0"/>
<feOffset dx="10" dy="10"/>
<feGaussianBlur stdDeviation="10"/>
<feColorMatrix type="matrix" values="0 0 0 0 0 0 0 0 0 0 0 0 0 0 0 0 0 0 0.25 0"/>
<feBlend mode="normal" in2="BackgroundImageFix" result="effect1_dropShadow"/>
<feColorMatrix in="SourceAlpha" type="matrix" values="0 0 0 0 0 0 0 0 0 0 0 0 0 0 0 0 0 0 127 0"/>
<feOffset dx="20" dy="20"/>
<feGaussianBlur stdDeviation="20"/>
<feColorMatrix type="matrix" values="0 0 0 0 0 0 0 0 0 0 0 0 0 0 0 0 0 0 0.25 0"/>
<feBlend mode="normal" in2="effect1_dropShadow" result="effect2_dropShadow"/>
<feBlend mode="normal" in="SourceGraphic" in2="effect2_dropShadow" result="shape"/>
</filter>
</defs>
</svg>
