<svg width="21" height="21" viewBox="0 0 21 21" fill="none" xmlns="http://www.w3.org/2000/svg">
<g id="Group 6">
<path id="Vector" d="M20.7877 4.98938C19.9831 4.9393 19.2907 5.46517 19.2407 6.164C19.2343 6.25072 19.2388 6.33604 19.252 6.41905C19.0966 6.25304 18.8668 6.14082 18.6032 6.12412C18.1206 6.09398 17.7036 6.39586 17.6433 6.80626C17.5556 6.78354 17.464 6.76824 17.3689 6.76221C16.6648 6.71862 16.0586 7.17863 16.0155 7.78982" fill="#FDFCEF"/>
<path id="Vector_2" d="M16.0165 7.90618C16.0135 7.90618 16.0106 7.90618 16.0081 7.90618C15.9405 7.902 15.8896 7.84682 15.894 7.78283C15.942 7.10857 16.6035 6.59754 17.3777 6.64716C17.4345 6.65087 17.4924 6.65737 17.5507 6.66803C17.6776 6.26088 18.1206 5.9794 18.612 6.00908C18.7968 6.02067 18.9697 6.07354 19.1192 6.16211C19.1192 6.16072 19.1192 6.15886 19.1192 6.15701C19.1736 5.39557 19.9306 4.82472 20.7965 4.87434C20.8641 4.87852 20.915 4.9337 20.9106 4.99769C20.9062 5.06169 20.8494 5.11038 20.7803 5.10574C20.0399 5.05844 19.4088 5.5384 19.3637 6.17231C19.3583 6.24975 19.3617 6.32673 19.374 6.40232C19.3823 6.45286 19.3539 6.50294 19.3049 6.52474C19.2569 6.54654 19.1971 6.53541 19.1613 6.49645C19.0217 6.3476 18.8159 6.25439 18.5959 6.24048C18.1784 6.21451 17.8172 6.47048 17.7653 6.82292C17.7604 6.85584 17.7408 6.88506 17.7119 6.9036C17.6825 6.92215 17.6457 6.92725 17.6124 6.91891C17.5276 6.89758 17.4434 6.88366 17.362 6.87903C16.7299 6.841 16.1777 7.25186 16.139 7.79859C16.1341 7.85934 16.0802 7.90618 16.0165 7.90618Z" fill="white"/>
<path id="Vector_3" d="M17.293 19.4608H4.68907C2.84372 19.4608 1.33401 18.0321 1.33401 16.2857V4.35774C1.33401 2.61135 2.84372 1.18262 4.68907 1.18262H17.293C19.1383 1.18262 20.648 2.61135 20.648 4.35774V16.2857C20.6485 18.0321 19.1383 19.4608 17.293 19.4608Z" fill="#308D88"/>
<path id="Vector_4" d="M17.2929 19.7859H4.68906C2.64966 19.7859 0.990997 18.2157 0.990997 16.2862V4.35777C0.990997 2.42774 2.65015 0.858032 4.68906 0.858032H17.2929C19.3323 0.858032 20.991 2.42821 20.991 4.35777V16.2857C20.9915 18.2157 19.3323 19.7859 17.2929 19.7859ZM4.68906 1.50725C3.02794 1.50725 1.677 2.78574 1.677 4.35777V16.2857C1.677 17.8577 3.02794 19.1362 4.68906 19.1362H17.2929C18.9541 19.1362 20.305 17.8577 20.305 16.2857V4.35777C20.305 2.78574 18.9541 1.50725 17.2929 1.50725H4.68906Z" fill="white"/>
<path id="Vector_5" d="M16.5496 18.1555H5.43241C3.93692 18.1555 2.71338 16.9975 2.71338 15.5823V5.06125C2.71338 3.64596 3.93692 2.48804 5.43241 2.48804H16.5496C18.0451 2.48804 19.2687 3.64596 19.2687 5.06125V15.5823C19.2687 16.9975 18.0451 18.1555 16.5496 18.1555Z" fill="#FDFCEE"/>
<path id="Vector_6" d="M16.753 18.3177H5.22954C3.74777 18.3177 2.54236 17.177 2.54236 15.7747V4.86924C2.54236 3.46694 3.74777 2.32617 5.22954 2.32617H16.2032C16.2977 2.32617 16.3747 2.39898 16.3747 2.48848C16.3747 2.57798 16.2977 2.65078 16.2032 2.65078H5.22954C3.93691 2.65078 2.88536 3.64594 2.88536 4.86924V15.7747C2.88536 16.998 3.93691 17.9931 5.22954 17.9931H16.753C18.0456 17.9931 19.0971 16.998 19.0971 15.7747V9.74161C19.0971 9.65211 19.1741 9.5793 19.2686 9.5793C19.3632 9.5793 19.4401 9.65211 19.4401 9.74161V15.7747C19.4401 17.177 18.2347 18.3177 16.753 18.3177Z" fill="white"/>
<path id="Vector_7" d="M19.2686 9.03349C19.1741 9.03349 19.0971 8.96069 19.0971 8.87119V7.71048C19.0971 7.62098 19.1741 7.54818 19.2686 7.54818C19.3632 7.54818 19.4401 7.62098 19.4401 7.71048V8.87119C19.4401 8.96069 19.3637 9.03349 19.2686 9.03349ZM19.2686 7.29267C19.1741 7.29267 19.0971 7.21986 19.0971 7.13036V6.55024C19.0971 6.46074 19.1741 6.38794 19.2686 6.38794C19.3632 6.38794 19.4401 6.46074 19.4401 6.55024V7.13036C19.4401 7.21986 19.3637 7.29267 19.2686 7.29267Z" fill="white"/>
<path id="Vector_8" d="M16.2066 7.57373C15.8229 7.73511 15.4108 7.84409 14.9772 7.89231C15.4192 7.6419 15.7582 7.24495 15.9185 6.77242C15.5049 7.00428 15.0468 7.17308 14.5597 7.2635C14.1692 6.87026 13.613 6.62402 12.9971 6.62402C11.8152 6.62402 10.8577 7.53061 10.8577 8.64911C10.8577 8.80771 10.8763 8.96259 10.9126 9.11052C9.13388 9.02612 7.55705 8.2197 6.50158 6.99454C6.31783 7.29364 6.21198 7.64144 6.21198 8.01288C6.21198 8.71589 6.58978 9.33543 7.16357 9.69899C6.81322 9.68832 6.48296 9.59743 6.19435 9.44579C6.19386 9.45414 6.19386 9.46295 6.19386 9.4713C6.19386 10.453 6.93131 11.2715 7.91034 11.4574C7.731 11.5033 7.54185 11.5284 7.34634 11.5284C7.20816 11.5284 7.07439 11.5159 6.94405 11.4922C7.216 12.2963 8.00687 12.882 8.94278 12.8987C8.21071 13.4417 7.28803 13.7659 6.28549 13.7659C6.11251 13.7659 5.94199 13.7561 5.7749 13.7376C6.72159 14.3117 7.84664 14.6469 9.05548 14.6469C12.9917 14.6469 15.1448 11.5608 15.1448 8.88422C15.1448 8.79658 15.1423 8.70893 15.1384 8.62175C15.5568 8.33656 15.9195 7.98042 16.2066 7.57373Z" fill="#308D88"/>
<path id="Vector_9" d="M9.05597 14.8091C7.8584 14.8091 6.69219 14.4859 5.68278 13.8743C5.61565 13.8335 5.58723 13.7542 5.61369 13.6828C5.64064 13.6118 5.71463 13.5691 5.79548 13.5766C5.95571 13.5946 6.12084 13.6039 6.28549 13.6039C7.07341 13.6039 7.8241 13.3994 8.47972 13.0094C7.68886 12.8429 7.0347 12.292 6.78088 11.5422C6.76226 11.4875 6.77598 11.4281 6.81567 11.385C6.85536 11.3423 6.9171 11.3215 6.9759 11.3331C7.03764 11.3442 7.09987 11.3525 7.16259 11.3581C6.47365 10.9727 6.02186 10.2619 6.02186 9.47166C6.02186 9.41416 6.0542 9.34831 6.10663 9.3191C6.15955 9.29035 6.22423 9.2769 6.27715 9.30426C6.37908 9.35759 6.48541 9.40257 6.59566 9.43828C6.2409 9.04643 6.0395 8.54375 6.0395 8.01371C6.0395 7.62696 6.14779 7.24671 6.35213 6.91375C6.38055 6.86738 6.43102 6.8377 6.48688 6.83353C6.54274 6.83075 6.59762 6.85162 6.63339 6.89289C7.64525 8.0675 9.11869 8.80483 10.7039 8.9356C10.6911 8.84192 10.6847 8.7464 10.6847 8.65041C10.6847 7.44426 11.7216 6.46301 12.9961 6.46301C13.6003 6.46301 14.1853 6.68977 14.6156 7.08765C15.0419 6.99908 15.4505 6.84651 15.8303 6.63366C15.8915 6.59981 15.9689 6.60445 16.0243 6.64665C16.0802 6.68838 16.1022 6.75887 16.0807 6.82286C15.9817 7.11501 15.819 7.38212 15.6059 7.60842C15.7867 7.55926 15.9636 7.49851 16.1355 7.42617C16.2061 7.39742 16.2874 7.41504 16.3364 7.46976C16.3859 7.52494 16.3903 7.6047 16.3477 7.66453C16.0645 8.06565 15.7166 8.41437 15.3118 8.70281C15.3138 8.76356 15.3153 8.8243 15.3153 8.88551C15.3167 11.7968 12.9745 14.8091 9.05597 14.8091ZM6.47806 13.9244C7.27921 14.2921 8.15828 14.4845 9.05597 14.4845C12.7604 14.4845 14.9737 11.6373 14.9737 8.88412C14.9737 8.7988 14.9713 8.71347 14.9674 8.62861C14.9649 8.57389 14.9914 8.52242 15.0384 8.49042C15.2844 8.32255 15.5088 8.13057 15.7097 7.91726C15.4775 7.98079 15.2398 8.02623 14.9978 8.05313C14.9198 8.06194 14.8419 8.01649 14.8155 7.94462C14.789 7.87227 14.8204 7.79205 14.8895 7.75263C15.1634 7.59729 15.3907 7.38397 15.5554 7.13263C15.2467 7.26387 14.9247 7.36079 14.593 7.422C14.5352 7.43359 14.4759 7.41504 14.4352 7.37377C14.0638 7.00001 13.54 6.78577 12.9971 6.78577C11.9117 6.78577 11.0287 7.6214 11.0287 8.64855C11.0287 8.7937 11.0459 8.93699 11.0797 9.07332C11.0919 9.12294 11.0792 9.17534 11.0444 9.2143C11.0101 9.25325 10.9552 9.26855 10.9043 9.27226C9.22845 9.1925 7.65162 8.47234 6.53882 7.28566C6.4369 7.51428 6.38349 7.76144 6.38349 8.01232C6.38349 8.63603 6.71081 9.21615 7.25912 9.56348C7.32282 9.60383 7.35026 9.67941 7.32674 9.74804C7.30371 9.81714 7.23217 9.87696 7.15818 9.86027C6.89309 9.85192 6.62996 9.80045 6.38398 9.70863C6.49668 10.4988 7.11849 11.1401 7.94464 11.2973C8.02255 11.3122 8.07939 11.3757 8.08233 11.4513C8.08478 11.5269 8.03235 11.5937 7.95591 11.6136C7.71434 11.6757 7.46395 11.6999 7.2111 11.6864C7.53059 12.3106 8.19748 12.7228 8.9467 12.7358C9.01922 12.7372 9.08292 12.7817 9.10644 12.8467C9.12947 12.912 9.10644 12.9835 9.0496 13.0261C8.30479 13.5789 7.41935 13.8873 6.47806 13.9244Z" fill="white"/>
<path id="Vector_10" d="M6.77256 18.404C6.76374 18.404 6.75443 18.4031 6.74512 18.4012C6.67946 18.3869 6.63781 18.3247 6.653 18.2626C6.67015 18.1921 6.69563 18.1235 6.72944 18.059C7.00139 17.5387 7.75012 17.3458 8.40036 17.6301C8.46161 17.6569 8.48856 17.726 8.46014 17.784C8.43123 17.842 8.35871 17.867 8.29745 17.8406C7.76776 17.6083 7.1631 17.7525 6.94945 18.1615C6.92446 18.2097 6.90535 18.2607 6.89212 18.314C6.87938 18.3674 6.82891 18.404 6.77256 18.404ZM4.47738 20.858H3.98493C3.84969 20.858 3.73993 20.7542 3.73993 20.6262C3.73993 20.4982 3.84969 20.3943 3.98493 20.3943H4.47738C4.61262 20.3943 4.72239 20.4982 4.72239 20.6262C4.72239 20.7542 4.61311 20.858 4.47738 20.858Z" fill="white"/>
</g>
</svg>
